<svg id="Layer_1" data-name="Layer 1" xmlns="http://www.w3.org/2000/svg" viewBox="0 0 128 128"><defs><style>.cls-1{fill:#555;}.cls-13,.cls-18,.cls-2{fill:#444;}.cls-3{fill:#edccc3;}.cls-10,.cls-11,.cls-12,.cls-13,.cls-14,.cls-15,.cls-16,.cls-18,.cls-3,.cls-8,.cls-9{stroke:#333;}.cls-15,.cls-17,.cls-18,.cls-3,.cls-6,.cls-8,.cls-9{stroke-miterlimit:10;}.cls-11,.cls-12,.cls-13,.cls-14,.cls-3{stroke-width:4px;}.cls-4{fill:#dddbdb;}.cls-5{fill:#d9d6d6;}.cls-11,.cls-17,.cls-6,.cls-8{fill:none;}.cls-6{stroke:#ae887b;opacity:0.12;isolation:isolate;}.cls-10,.cls-6,.cls-8{stroke-linecap:round;}.cls-10,.cls-12,.cls-7,.cls-9{fill:#333;}.cls-8,.cls-9{stroke-width:2px;}.cls-10,.cls-11,.cls-12,.cls-13,.cls-14,.cls-16{stroke-linejoin:round;}.cls-10,.cls-15,.cls-16,.cls-17,.cls-18{stroke-width:3px;}.cls-14,.cls-16{fill:#d1d8db;}.cls-15{fill:#383a39;}.cls-17{stroke:#555;}</style></defs><title>charlie-chaplin</title><path class="cls-1" d="M114,102c-2-4.56-3.3-4.78-8-6-12.88-3.34-24.07-6-42-6s-29.12,2.66-42,6c-4.7,1.22-6,1.44-8,6-2.89,6.5-4,10-4,10,.31.19,23.9,10,54,10s53.69-9.76,54-10C118,112,116.89,108.5,114,102Z"/><path class="cls-2" d="M106.43,104C95.72,101.19,83.65,98,64,98c-17.93,0-29.55,2.61-42.43,6-4.33,1.12-7.55,4.64-9.23,8.9a156.79,156.79,0,0,0,51.66,9,161.29,161.29,0,0,0,51.64-9.06C114,108.59,110.74,105.09,106.43,104Z"/><rect class="cls-3" x="50" y="78" width="28" height="18"/><path class="cls-4" d="M86,50V44c0-11.86-7.61-18-22-18S42,32.17,42,44v6c-3.85,0-3.92,3.95-3,8.15.72,3.43,3.1,7.85,5,7.85,0,9.59,9.87,18.71,14.47,21.13C60.21,88,62.08,88,64,88s3.79,0,5.53-.88C74.14,84.69,84,75.56,84,66c1.92,0,4.3-4.4,5-7.83C89.92,53.94,89.85,50,86,50Z"/><path class="cls-5" d="M86,50V44c0-11.86-7.61-18-22-18-1.47,0-2.85.08-4.17.21C56.7,40.54,54.16,56.16,54.34,67c0,3.83.85,11.36,1.56,18.08a27.75,27.75,0,0,0,3.14,2,11.14,11.14,0,0,0,5.42.93,10.48,10.48,0,0,0,5.07-.88C74.14,84.69,84,75.56,84,66c1.92,0,4.3-4.4,5-7.83C89.92,53.94,89.85,50,86,50Z"/><line class="cls-6" x1="64" y1="71.5" x2="64" y2="71.56"/><circle class="cls-7" cx="54.4" cy="58.25" r="1.5"/><circle class="cls-7" cx="73.6" cy="58.25" r="1.5"/><path class="cls-8" d="M60,68.24l2.2.6a5.55,5.55,0,0,0,3.6,0l2.2-.6"/><line class="cls-8" x1="60" y1="76.03" x2="68" y2="76.03"/><path class="cls-9" d="M64.69,69.47H63.31c-2.28,0-4.14,1-4.14,2.89v.33a.39.39,0,0,0,.42.34h8.82a.39.39,0,0,0,.42-.34v-.33C68.83,70.49,67,69.47,64.69,69.47Z"/><line class="cls-8" x1="63" y1="80.03" x2="65" y2="80.03"/><path class="cls-10" d="M84,44.35V56c0-1.59,0-5.36,3-5.36,0-4.19,2.43-2.14,2.43-6.05,0-2.89-1.75-8.61-7.55-8.61A17.81,17.81,0,0,1,84,44.35Z"/><path class="cls-10" d="M44,44.35V56c0-1.59,0-5.36-3-5.36,0-4.19-2.43-2.14-2.43-6.05,0-2.89,1.75-8.61,7.55-8.61A17.81,17.81,0,0,0,44,44.35Z"/><path class="cls-11" d="M86,50V44c0-11.86-7.61-18-22-18S42,32.17,42,44v6c-3.85,0-3.92,3.95-3,8.15.72,3.43,3.1,7.85,5,7.85,0,9.59,9.87,18.71,14.47,21.13C60.21,88,62.08,88,64,88s3.79,0,5.53-.88C74.14,84.69,84,75.56,84,66c1.92,0,4.3-4.4,5-7.83C89.92,53.94,89.85,50,86,50Z"/><path class="cls-2" d="M86,38V23.59C86,12.23,76,6,64,6S42,12.45,42,24.1V38s6,4,22,4S86,38,86,38Z"/><path class="cls-7" d="M86,23.59C86,15,80.33,9.38,72.41,7.12c-.73,0-1.46-.07-2.2-.07-12,0-22,6.45-22,18.1V39.06A23.54,23.54,0,0,0,55,41.52,79.2,79.2,0,0,0,64,42c16,0,22-4,22-4Z"/><path class="cls-11" d="M86,38V23.59C86,12.23,76,6,64,6S42,12.45,42,24.1V38s6,4,22,4S86,38,86,38Z"/><path class="cls-12" d="M64,48c-20,0-34-6-34-12l12,2H86l12-2c0,6-12,12-34,12"/><path class="cls-13" d="M64,34c-16,0-22-4-22-4v8s6,4,22,4,22-4,22-4V30S80,34,64,34Z"/><path class="cls-14" d="M49.36,96c2.48,8,7.71,14.17,14.62,24.45l0,0C69.27,111,75.52,105.2,78.46,96Z"/><path class="cls-15" d="M64,122c2.67,0,5.28-.08,7.83-.22L65.09,101.5H62.75L56,121.75Q59.91,122,64,122Z"/><path class="cls-16" d="M49,83v8.9S54.4,101,64,101V97.21c0-2.57-1.84-4.42-4.09-5.68C50,86,49,83,49,83Z"/><path class="cls-16" d="M79,83v8.9S73.6,101,64,101V97.21c0-2.57,1.84-4.42,4.09-5.68C78,86,79,83,79,83Z"/><path class="cls-15" d="M50.14,97.49A25.14,25.14,0,0,0,64,101.34V98c-5.51-2.19-11.09-3.87-15.79-8.21A34.69,34.69,0,0,0,50.14,97.49Z"/><path class="cls-15" d="M79.84,89.77C75.12,94.14,69.53,95.82,64,98v3.32a25.1,25.1,0,0,0,14-3.93A34.89,34.89,0,0,0,79.84,89.77Z"/><path class="cls-15" d="M59.2,97.81,62,102h4l2.8-4.19a1.17,1.17,0,0,0-1-1.81H60.17A1.17,1.17,0,0,0,59.2,97.81Z"/><path class="cls-17" d="M21.5,96a66.31,66.31,0,0,1,4,22"/><path class="cls-18" d="M20,96a66.31,66.31,0,0,1,4,22"/><path class="cls-17" d="M108,96a66.31,66.31,0,0,0-4,22"/><path class="cls-18" d="M106.5,96a66.31,66.31,0,0,0-4,22"/><path class="cls-13" d="M64,122c1.38,0,2.74,0,4.09-.06l23.21-20.8-5-5.5L94,92,80,79.86C80,98,74.37,102.49,62.06,122Z"/><path class="cls-13" d="M36.65,101.12c17,14,22.06,18.14,25.28,20.84L64,122l2.12,0C49.31,100.38,48,92.1,48,79.86L34,92l7.65,3.62Z"/><path class="cls-11" d="M35.7,92.82c-4.61.93-9,2.05-13.7,3.26s-6,1.44-8,6c-2.89,6.51-4,10-4,10,.31.2,23.9,10,54,10s53.69-9.75,54-10c0,0-1.11-3.44-4-10-2-4.56-3.3-4.78-8-6s-9-2.31-13.63-3.25"/></svg>