<svg id="Layer_1" data-name="Layer 1" xmlns="http://www.w3.org/2000/svg" viewBox="0 0 128 128"><defs><style>.cls-1{fill:#84303a;}.cls-2{fill:#77252b;}.cls-3{fill:#9e3237;}.cls-4{fill:#e8b992;}.cls-5{fill:#dba983;}.cls-11,.cls-12,.cls-6,.cls-7,.cls-9{fill:none;}.cls-11,.cls-12,.cls-13,.cls-6,.cls-9{stroke:#333;}.cls-6,.cls-7{stroke-linecap:square;}.cls-12,.cls-13,.cls-6,.cls-9{stroke-linejoin:round;}.cls-6,.cls-9{stroke-width:4px;}.cls-7{stroke:#e5d285;stroke-linejoin:bevel;}.cls-11,.cls-12,.cls-13,.cls-7{stroke-width:2px;}.cls-8{fill:#ddad8a;}.cls-10,.cls-13{fill:#333;}.cls-11,.cls-12{stroke-linecap:round;}.cls-11{stroke-miterlimit:10;}</style></defs><title>cristiano-ronaldo</title><path class="cls-1" d="M108,88.9c-10-2-14.36-3.28-28-6H48c-13.64,2.88-18,4-28,6-8,2-12,10-12,16a135.88,135.88,0,0,0,56,12,134.43,134.43,0,0,0,56-12C120,98.92,116,90.92,108,88.9Z"/><path class="cls-2" d="M108,95c-10-2-14.36-3.28-28-6H48c-13.64,2.88-18,4-28,6a16.09,16.09,0,0,0-11,10.4,135.7,135.7,0,0,0,55,11.57,134.21,134.21,0,0,0,54.94-11.56A16.05,16.05,0,0,0,108,95Z"/><path class="cls-3" d="M64,116.92a132.65,132.65,0,0,0,41-6.3V106a18.29,18.29,0,0,0-5.21-12.78C94.33,92,89.34,90.82,80,89H48c-9.91,2.09-14.93,3.26-20.76,4.5a18.2,18.2,0,0,0-5,12.52v4.37A134.59,134.59,0,0,0,64,116.92Z"/><path class="cls-1" d="M65.94,98.89C73.65,96.74,79.57,93,84,87.45l2.33-2.89c-2.26-.49-4.83-1-7.94-1.64H49.58l-7.89,1.7L44,87.44C48.42,93,54.34,96.73,62.07,98.89l1.93.53Z"/><path class="cls-4" d="M48,70.92v12c3.94,4.91,9.18,8.1,16,10,6.81-1.89,12.06-5.11,16-10v-12Z"/><path class="cls-5" d="M48,75.54,67.27,91.85A28.7,28.7,0,0,0,80,82.92v-12H48Z"/><path class="cls-6" d="M48,70.92v12c3.94,4.91,9.18,8.1,16,10,6.81-1.89,12.06-5.11,16-10v-12Z"/><path class="cls-6" d="M48,82.92c-13.64,2.88-18,4-28,6-8,2-12,10-12,16a135.88,135.88,0,0,0,56,12,134.43,134.43,0,0,0,56-12c0-6-4-14-12-16-10-2-14.36-3.28-28-6"/><polyline class="cls-7" points="33.03 97.92 37 97.92 37 106.92"/><path class="cls-4" d="M84.05,61.3c-1,10.62.71,9.54-10.78,18.91-1.84,2.26-5.54,3.11-9.23,3.09h0c-3.69,0-7.4-.83-9.23-3.09C43.33,70.84,45,71.92,44.05,61.3c-3.95,0-5-5.4-5.7-8.89-.78-3.69.5-7.81,3.85-6.79a.52.52,0,0,0,.67-.57L42,39c-1-13.31,8-22,22-22s23,8.69,22,22l-.87,6.1a.52.52,0,0,0,.67.57c3.35-1,4.64,3.1,3.85,6.79C88.91,55.9,88,61.3,84.05,61.3Z"/><path class="cls-8" d="M85.8,45.62a.52.52,0,0,1-.67-.57L86,39c1-13.31-8-22-22-22a29.69,29.69,0,0,0-4.18.3c-2.88,16.42-6,36.14-6,45.4V79.42l1,.79c1.83,2.26,5.53,3.11,9.22,3.09s7.39-.83,9.22-3.09c11.49-9.37,9.82-8.29,10.78-18.91,3.94,0,4.86-5.4,5.6-8.89C90.44,48.72,89.15,44.6,85.8,45.62Z"/><path class="cls-8" d="M64.06,83.3h0Z"/><path class="cls-9" d="M84.05,61.3c-1,10.62.71,9.54-10.78,18.91-1.84,2.26-5.54,3.11-9.23,3.09h0c-3.69,0-7.4-.83-9.23-3.09C43.33,70.84,45,71.92,44.05,61.3c-3.95,0-5-5.4-5.7-8.89-.78-3.69.5-7.81,3.85-6.79a.52.52,0,0,0,.67-.57L42,39c-1-13.31,8-22,22-22s23,8.69,22,22l-.87,6.1a.52.52,0,0,0,.67.57c3.35-1,4.64,3.1,3.85,6.79C88.91,55.9,88,61.3,84.05,61.3Z"/><circle class="cls-10" cx="72.84" cy="52.65" r="1.5"/><circle class="cls-10" cx="54.52" cy="52.65" r="1.5"/><path class="cls-11" d="M68,62.92H66.17a1,1,0,0,0-.33.06c-1.53.52-1.87.59-3.1.2a5.23,5.23,0,0,0-1.62-.26H60"/><line class="cls-12" x1="63" y1="72.92" x2="65" y2="72.92"/><polyline class="cls-11" points="68.69 68.88 67.1 69.45 60.5 69.45"/><path class="cls-13" d="M85.35,28.25c.39-8.72-14-17.25-14-17.25S65.65,12.61,53,15.76c-8.08,2-9.71,8-9.89,11.9-2.87,4.06-3.07,9.61-2.45,13.9L41.32,46c2.38,1.25,3.38,6.31,3.38,6.31v-11l3-3V31h3.19c3.13.68,6.56,1.41,10.2,2.1a14.62,14.62,0,0,0,5.82,0c2.71-.57,13.38-2.62,18-3.55l-4.57,4.61v4.13l3,3v11s1-5.06,3.38-6.31l.64-4.44C88,37.48,87.84,32.24,85.35,28.25Z"/></svg>