<svg id="Layer_1" data-name="Layer 1" xmlns="http://www.w3.org/2000/svg" viewBox="0 0 128 128"><defs><style>.cls-1{fill:#9e4159;}.cls-2{fill:#333;}.cls-3{fill:#8e3246;}.cls-14,.cls-16,.cls-17,.cls-19,.cls-4,.cls-7{fill:none;stroke:#333;}.cls-16,.cls-17,.cls-4,.cls-7{stroke-linejoin:round;}.cls-4,.cls-7{stroke-width:4px;}.cls-5{fill:#f4bc62;}.cls-6{fill:#f7a159;}.cls-17,.cls-19,.cls-7{stroke-linecap:round;}.cls-8{fill:#eab8a2;}.cls-9{fill:#e2ad9a;}.cls-10{fill:#d7a992;}.cls-11{fill:#aaa;}.cls-12{fill:#d5a18a;}.cls-13{fill:#cfa883;}.cls-14,.cls-19{stroke-miterlimit:10;}.cls-14,.cls-16,.cls-17{stroke-width:3px;}.cls-15{fill:#d2ac86;}.cls-18{fill:#605842;}.cls-19{stroke-width:2px;}</style></defs><title>dalai-lama</title><path class="cls-1" d="M113.72,97.51a12.12,12.12,0,0,0-8.93-9.38l-9.32-2.32a130.62,130.62,0,0,0-31.68-3.9H63.6a130.68,130.68,0,0,0-31.68,3.9L22.6,88.13a12.12,12.12,0,0,0-8.93,9.38l-.67,4,.2.12a124.71,124.71,0,0,0,50.49,10.6,124.9,124.9,0,0,0,50.47-10.58l.1-.09Z"/><path class="cls-2" d="M92.69,92.44a23.1,23.1,0,0,1-5.18,10.14,20.14,20.14,0,0,1-4.38,3.75,16.07,16.07,0,0,1-5.28,2.19,25.86,25.86,0,0,0,8.91-6.6A37.3,37.3,0,0,0,92.69,92.44Z"/><path class="cls-2" d="M103,94.85a21.25,21.25,0,0,1-3.26,5.52A23.79,23.79,0,0,1,95,104.79a24.23,24.23,0,0,1-5.71,3l-1.54.5-1.55.42-1.58.28c-.54.07-1.07.12-1.6.17.52-.15,1-.3,1.54-.43l1.5-.49,1.49-.54L89,107.1A32.71,32.71,0,0,0,94.44,104a31.69,31.69,0,0,0,4.71-4.11A33.84,33.84,0,0,0,103,94.85Z"/><path class="cls-2" d="M109,97.67a15,15,0,0,1-5.42,7.08,15.42,15.42,0,0,1-8.39,3,26.33,26.33,0,0,0,7.81-3.79A24.89,24.89,0,0,0,109,97.67Z"/><path class="cls-3" d="M104.79,93.61l-9.32-2.33c-1.66-.42-3.33-.78-5-1.13a11.23,11.23,0,0,0,.41-3C90.87,77.68,78.67,70,63.63,70S36.39,77.68,36.39,87.2a11.38,11.38,0,0,0,.41,3c-1.63.34-3.26.7-4.87,1.11L22.6,93.61A12.11,12.11,0,0,0,13.93,102a124.71,124.71,0,0,0,49.76,10.29A124.85,124.85,0,0,0,113.46,102,12.11,12.11,0,0,0,104.79,93.61Z"/><path class="cls-1" d="M63.63,78.07c13.94,0,25.42,5.46,27,14,.12-.67.2-4.17.2-4.87C90.87,77.68,78.67,70,63.63,70S36.39,77.68,36.39,87.2c0,.7.08,4.2.2,4.87C38.21,83.53,49.69,78.07,63.63,78.07Z"/><path class="cls-4" d="M36.39,92.07V87.2C36.39,77.68,48.59,70,63.63,70S90.87,77.68,90.87,87.2v4.87"/><path class="cls-5" d="M97.74,107.55a110.89,110.89,0,0,0,4.12-20.15l-6.39-1.59c-1.38-.35-2.76-.66-4.14-1C90.1,93.14,88,99,82.73,107.73,89.43,108.52,92.44,109,97.74,107.55Z"/><path class="cls-6" d="M82,110.89a123.8,123.8,0,0,0,15.6-3.33c1.52-5.64,3.12-12,3.58-14.86l-5.69-1.42c-1.71-.43-3.42-.8-5.14-1.16C89.42,94,85.61,103.23,82,110.89Z"/><path class="cls-7" d="M97.74,107.55a110.89,110.89,0,0,0,4.12-20.15l-6.39-1.59c-1.38-.35-2.76-.66-4.14-1C90.1,93.14,88,99,82.73,107.73,89.43,108.52,92.44,109,97.74,107.55Z"/><path class="cls-8" d="M78.45,85.23V78.07H48.81v7.18l-1.6.2c0,7.67,8.78,13.25,16.42,15.5,7.65-2.25,16.43-7.59,16.43-15.51Z"/><path class="cls-9" d="M62.76,100.67l.87.28c5.67-1.67,11.94-5,14.82-9.89v-13H48.81v6.84L59.72,95.82A12.93,12.93,0,0,1,62.76,100.67Z"/><path class="cls-2" d="M33.22,94.07c1.64,1.88,3.23,3.63,4.94,5.24a65.26,65.26,0,0,0,5.31,4.54c1.85,1.42,3.77,2.77,5.74,4.1s4,2.64,6,4.12a26.34,26.34,0,0,1-7.14-2,30.13,30.13,0,0,1-6.44-3.8,26.51,26.51,0,0,1-5.26-5.37A18.62,18.62,0,0,1,33.22,94.07Z"/><path class="cls-2" d="M25.22,98.07c1.46,1.09,2.71,2.26,4,3.37s2.45,2.17,3.71,3.15a48,48,0,0,0,4,2.74c1.39.89,2.86,1.72,4.37,2.74a13.47,13.47,0,0,1-5.35-.59A15.31,15.31,0,0,1,31,107a16.31,16.31,0,0,1-3.66-4A15.91,15.91,0,0,1,25.22,98.07Z"/><path class="cls-8" d="M88.55,45.91c0-2.5-.69-14.89-4.86-21.67-2.48-4-10-8-20-8s-17.51,4-20,8c-4.16,6.78-4,19.5-4,22-6,0-4,11.28-3.56,13.17.88,3.62,3,5.5,4.94,5.55a77,77,0,0,0,2.39,9.23,11.13,11.13,0,0,0,1.8,3.34,117.59,117.59,0,0,0,8.23,9.37c2.81,2.63,7.3,3,10.1,3s7.3-.35,10.1-3a113.72,113.72,0,0,0,8.23-9.37,11.16,11.16,0,0,0,1.81-3.34A78.94,78.94,0,0,0,86.12,65c1.93,0,4.06-1.93,4.93-5.55C91.51,57.52,94.55,45.91,88.55,45.91Z"/><path class="cls-9" d="M88.55,45.91c0-2.5-.39-14.46-4.55-21.24C81.51,20.63,73.57,16,63.59,16c-.8,0-1.57,0-2.34.1-4.34,17.22-7.42,36.6-7.2,51.45,0,5,.49,12.83,1.16,20.56a17.66,17.66,0,0,0,8.38,1.77c2.81,0,7.3-.35,10.1-3a113.72,113.72,0,0,0,8.23-9.37,11.16,11.16,0,0,0,1.81-3.34A78.94,78.94,0,0,0,86.12,65c1.93,0,4.06-1.93,4.93-5.55C91.51,57.52,94.55,45.91,88.55,45.91Z"/><path class="cls-10" d="M84,24.67C81.51,20.63,73.57,16,63.59,16s-17.92,4.63-20.4,8.67c-3.75,6.1-4.44,16.39-4.54,20.21l5,3.36,1.75-10.47a3,3,0,0,1,1.64-2.22l1.43-.72A3.13,3.13,0,0,0,50.07,33a20.38,20.38,0,0,1,5.86-9.31,5.6,5.6,0,0,1,3.71-1.42H67.9a5.53,5.53,0,0,1,3.37,1.14,15.73,15.73,0,0,1,6.11,9.45A3.11,3.11,0,0,0,79,34.89l1.32.66A3,3,0,0,1,82,37.77l1.74,10.47,4.86-2.43C88.54,43.14,88.12,31.37,84,24.67Z"/><path class="cls-11" d="M88.53,44.79c-.16-3.94-1.11-14.48-4.84-20.55a10.68,10.68,0,0,0-2.16-2.45c1.78,10.3,3,21.24,2.16,26.45Z"/><path class="cls-11" d="M43.69,24.24c-3.81,6.21-4,17.39-4,21.14l4,2.86c-.85-5.21.39-16.15,2.17-26.45A11,11,0,0,0,43.69,24.24Z"/><path class="cls-4" d="M87.69,46.24c0-2.5.47-14.79-3.69-21.57-2.49-4-10.32-8.45-20.31-8.45s-18,4.41-20.5,8.45c-4.17,6.78-3.5,19.07-3.5,21.57-6,0-4,11.28-3.56,13.17.88,3.62,3.63,6.78,5.56,6.83.87,4.09.91,5.41,1.77,8a11.13,11.13,0,0,0,1.8,3.34,103.07,103.07,0,0,0,8.43,8.71,14.55,14.55,0,0,0,20,0,99.79,99.79,0,0,0,8.23-8.71,11.16,11.16,0,0,0,1.81-3.34,59.16,59.16,0,0,0,2-8c1.94,0,4.49-3.21,5.36-6.83C91.51,57.52,93.69,46.24,87.69,46.24Z"/><path class="cls-12" d="M82.28,56.7c0,3.66-2.72,6.65-6.06,6.65H72.34a4.58,4.58,0,0,1-3.84-2.26l-2.09-3.5a4.54,4.54,0,0,1-.6-1.84,3,3,0,0,0-3.23,0,4.49,4.49,0,0,1-.6,1.84L59.9,61.08a4.6,4.6,0,0,1-3.84,2.27h-4c-3.34,0-6.06-3-6.06-6.65V55.33a4,4,0,0,1,.15-1.14h0a4,4,0,0,1,3.58-3.08h9a3.6,3.6,0,0,1,2.67,1.19,4.11,4.11,0,0,1,.79,1.23,5.09,5.09,0,0,1,3.87,0,4.28,4.28,0,0,1,.78-1.23,3.57,3.57,0,0,1,2.7-1.19h9C80.58,51.22,82.28,52.67,82.28,56.7Z"/><path class="cls-13" d="M78.86,50.74H69.35a2.67,2.67,0,0,0-2,.89A3.63,3.63,0,0,0,67,55.89l2.21,3.69a3.66,3.66,0,0,0,3.09,1.85h4.12c2.91,0,5.28-2.64,5.28-5.91V54.08a3.15,3.15,0,0,0-2.8-3.34"/><path class="cls-14" d="M60.79,54a4.31,4.31,0,0,1,5.71,0"/><path class="cls-13" d="M50.86,61.37H55a3.72,3.72,0,0,0,3.1-1.85l2.23-3.79a3.61,3.61,0,0,0-.4-4.24,2.61,2.61,0,0,0-2-.75H48.43A3.12,3.12,0,0,0,45.5,54v1.45c0,3.26,2.36,5.91,5.29,5.91h.07"/><path class="cls-15" d="M53,53.4l-4,4.46a2.69,2.69,0,0,0,1.9.81h1.35L57,53.36Z"/><path class="cls-16" d="M48.43,50.74h9.51a2.69,2.69,0,0,1,2,.89,3.63,3.63,0,0,1,.39,4.26l-2.2,3.69A3.69,3.69,0,0,1,55,61.43H50.86c-2.92,0-5.29-2.64-5.29-5.91V54.08A3.14,3.14,0,0,1,48.43,50.74Z"/><path class="cls-16" d="M78.86,50.74H69.35a2.67,2.67,0,0,0-2,.89A3.63,3.63,0,0,0,67,55.89l2.21,3.69a3.66,3.66,0,0,0,3.09,1.85h4.12c2.91,0,5.28-2.64,5.28-5.91V54.08A3.15,3.15,0,0,0,78.86,50.74Z"/><line class="cls-17" x1="44.22" y1="51.74" x2="46.33" y2="51.74"/><line class="cls-17" x1="80.83" y1="51.74" x2="82.95" y2="51.74"/><line class="cls-7" x1="78.45" y1="81.91" x2="78.45" y2="90.91"/><path class="cls-4" d="M63,101.28c7.65-2.24,17-8,17-15.84"/><line class="cls-7" x1="48.81" y1="81.91" x2="48.81" y2="90.91"/><path class="cls-4" d="M47.21,85.45c0,7.94,8.92,12.22,16.12,16,5.24,2.73,14.52,7.09,34.41,6.12"/><path class="cls-4" d="M36.68,84.71c-1.59.34-3.18.7-4.76,1.1L22.6,88.13a12.12,12.12,0,0,0-8.93,9.38l-.67,4,.2.12a124.71,124.71,0,0,0,50.49,10.6,124.9,124.9,0,0,0,50.47-10.58l.1-.09-.54-4.06a12.12,12.12,0,0,0-8.93-9.38l-9.32-2.32c-1.38-.35-2.76-.67-4.14-1"/><ellipse class="cls-18" cx="54.34" cy="54.29" rx="2" ry="1.25"/><path class="cls-15" d="M74.55,53.4l-3.66,4.25.29.49a1.34,1.34,0,0,0,1.12.68h1.47l4.75-5.32Z"/><ellipse class="cls-18" cx="73.22" cy="54.29" rx="2" ry="1.25"/><line class="cls-19" x1="59.33" y1="74.98" x2="67.17" y2="74.98"/><path class="cls-19" d="M59.35,68l2.2.6a5.55,5.55,0,0,0,3.6,0l2.2-.6"/><line class="cls-19" x1="62.35" y1="78.98" x2="64.35" y2="78.98"/></svg>