<svg id="Layer_1" data-name="Layer 1" xmlns="http://www.w3.org/2000/svg" viewBox="0 0 128 128"><defs><style>.cls-1{fill:#d8ab8d;}.cls-2{fill:#d2a385;}.cls-3{fill:#d5e7e5;}.cls-4{fill:#e6edec;}.cls-5{fill:#edf7f6;}.cls-6{fill:#fbbc86;}.cls-7{fill:#eea86a;}.cls-10,.cls-12,.cls-13,.cls-14,.cls-15,.cls-18,.cls-8{fill:none;}.cls-10,.cls-12,.cls-13,.cls-14,.cls-18,.cls-8{stroke:#333;}.cls-12,.cls-13,.cls-14,.cls-15,.cls-8{stroke-linecap:round;}.cls-10,.cls-14,.cls-18,.cls-8{stroke-linejoin:round;}.cls-10,.cls-8{stroke-width:4px;}.cls-9{fill:#8b2240;}.cls-11{fill:#333;}.cls-12,.cls-13,.cls-15{stroke-miterlimit:10;}.cls-12{stroke-width:2px;}.cls-13{stroke-width:2px;}.cls-14,.cls-15,.cls-18{stroke-width:3px;}.cls-15{stroke:#a7412d;}.cls-16{fill:#c83962;}.cls-17{fill:#b12f4f;}</style></defs><title>indian-man</title><path class="cls-1" d="M116,100.16c-1-4.82-4.23-7.81-9-9L78,86V76H50V86L21,91.16c-4.77,1.19-8,4.18-9,9l-1,5c.27.16,22.46,11,53.07,11,30.18,0,52.64-10.76,52.93-11Z"/><polygon class="cls-2" points="50 82 70 94 78 94 78 76 50 76 50 82"/><path class="cls-3" d="M116,100.16c-1-4.82-4.23-7.81-9-9L78,86a19.4,19.4,0,0,1-28,0L21,91.16c-4.77,1.19-8,4.18-9,9l-1,5c.27.16,22.46,11,53.07,11,30.18,0,52.64-10.76,52.93-11Z"/><path class="cls-4" d="M116,100.16c-1-4.82-4.23-7.81-9-9L78,86a8.64,8.64,0,0,0,7,8.49l22,4.18a11.27,11.27,0,0,1,8.5,7.2l1.5-.71Z"/><path class="cls-5" d="M21,91.16c-4.77,1.19-8,4.18-9,9l-1,5,1.51.7A11.12,11.12,0,0,1,21,98.67l22-4.22A8.6,8.6,0,0,0,50,86Z"/><path class="cls-6" d="M82,114.92a138.7,138.7,0,0,0,16-3.15V89.56L82,86.71Z"/><path class="cls-7" d="M98,96.89,82,93.72v21.2c3-.41,5.8-.89,8.47-1.42l.08,0c1.26-.26,2.49-.52,3.67-.79l1-.25c.84-.2,1.69-.4,2.49-.61l.24-.06Z"/><path class="cls-6" d="M30,111.77a137.85,137.85,0,0,0,16,3.15V86.71L30,89.56Z"/><path class="cls-7" d="M46,93.72,30,96.89v14.88l.18,0c.9.23,1.83.45,2.77.67l.77.19c3.74.85,7.85,1.63,12.28,2.24Z"/><path class="cls-8" d="M50,86c-7.3,1.69-26,4.42-29,5.16-4.77,1.19-8,4.18-9,9l-1,5c.27.16,22.46,11,53.07,11,30.18,0,52.64-10.76,52.93-11l-1-5c-1-4.82-4.23-7.81-9-9-2.67-.67-21.42-3.47-29-5.16"/><path class="cls-9" d="M94,46c0,12.24-6,30-30,30S34,58.24,34,46,47.8,20,64,20,94,33.76,94,46Z"/><path class="cls-10" d="M94,46c0,12.24-6,30-30,30S34,58.24,34,46,47.8,20,64,20,94,33.76,94,46Z"/><line class="cls-10" x1="50" y1="78" x2="50" y2="86"/><line class="cls-10" x1="78" y1="78" x2="78" y2="86"/><path class="cls-1" d="M86,46.48v-5C86,28.77,79.44,20,64,20s-22,8.79-22,21.5v5c-1.42,0-2.86,3.74-2,8,.75,3.54,2.73,6.07,4,6.07V68c0,4.6,6.35,11.51,13,15,1.79.94,5,1,7,1s4.71-.1,6.5-1C77.13,79.49,84,72.58,84,68V60.52c.92,0,3.16-2.49,3.91-6C88.79,50.22,87.56,46.48,86,46.48Z"/><path class="cls-2" d="M86,46.48v-5C86,28.77,79.44,20,64,20c-.91,0-1.78,0-2.62.09-3.13,11.39-7.35,27.2-7.4,42.72,0,4,.24,12.11.7,18.83.76.49,1.53.95,2.3,1.36,1.79.94,5,1,7,1s4.71-.1,6.5-1C77.13,79.49,84,72.58,84,68V60.52c1.36,0,3.16-2.49,3.91-6C88.79,50.22,87.41,46.48,86,46.48Z"/><path class="cls-11" d="M80,22c-1.71-3.86-4-6-16-6-18,0-26,11.9-26,22s6,10,6,14h2V46C62,45.66,63.32,34,72,34a11.13,11.13,0,0,1,6,2v4.34a4,4,0,0,0,1.17,2.83L82,46v6h2c0-4,6-4,6-14S84,22,80,22Z"/><circle class="cls-11" cx="54.55" cy="53.4" r="2" transform="translate(-10.81 13.96) rotate(-13.28)"/><circle class="cls-11" cx="73.44" cy="53.4" r="2" transform="translate(4.6 112.61) rotate(-76.72)"/><line class="cls-12" x1="60" y1="72" x2="68" y2="72"/><path class="cls-13" d="M60,63a8.43,8.43,0,0,0,8,0"/><path class="cls-10" d="M86,46.48v-5C86,28.77,79.44,20,64,20s-22,8.79-22,21.5v5"/><path class="cls-10" d="M78,86a19.4,19.4,0,0,1-28,0"/><path class="cls-11" d="M82,58a15.3,15.3,0,0,1-4,10H74l-6-2H60l-6,2H50a15.3,15.3,0,0,1-4-10H44V70.77C46.66,76,56.55,84,62.3,84L64,84l1.7,0c5.75,0,15.64-8,18.3-13.23V58ZM72,74a2,2,0,0,1-2,2H68.83a2,2,0,0,1-1.42-.59l-.82-.82A2,2,0,0,0,65.17,74H62.83a2,2,0,0,0-1.42.59l-.82.82a2,2,0,0,1-1.42.59H58a2,2,0,0,1-2-2V70l4-2h8l4,2Z"/><path class="cls-8" d="M86,46.48v-5C86,28.77,79.44,20,64,20s-22,8.79-22,21.5v5c-1.42,0-2.86,3.74-2,8,.75,3.54,2.73,6.07,4,6.07V68c0,4.6,6.35,11.51,13,15,1.79.94,5,1,7,1s4.71-.1,6.5-1C77.13,79.49,84,72.58,84,68V60.52c.92,0,3.16-2.49,3.91-6C88.79,50.22,87.56,46.48,86,46.48Z"/><path class="cls-11" d="M67.88,65a9.09,9.09,0,0,0-7.81-.11c-.7.32-4.59,2.63-8.49.51a.23.23,0,0,0-.34.28c.75,1.73,3.3,6.34,8.87,5.2A7.29,7.29,0,0,0,64,69.09a7.29,7.29,0,0,0,3.89,1.74C73.47,72,76,67.34,76.76,65.62a.23.23,0,0,0-.32-.29C75.07,66,72,67,67.88,65Z"/><line class="cls-14" x1="64" y1="97.97" x2="64" y2="98.97"/><line class="cls-14" x1="64" y1="105.97" x2="64" y2="106.97"/><line class="cls-14" x1="64" y1="114" x2="64" y2="115"/><line class="cls-15" x1="64" y1="49.08" x2="64" y2="50"/><path class="cls-16" d="M93.33,36.73C93.33,57.83,80.2,40,64,40S34.67,57.83,34.67,36.73C34.67,24.49,47.8,12,64,12S93.33,24.49,93.33,36.73Z"/><path class="cls-17" d="M64,17.52c-15.25,0-27.78,11.07-29.19,22.58C36.25,55.76,48.77,40,64,40s27.75,15.72,29.19.06C91.78,28.59,79.25,17.52,64,17.52Z"/><path class="cls-18" d="M51.49,42.92s48.62-16.31,24.35-28.61"/><path class="cls-18" d="M72.5,33.67S85.8,37.56,91,45.1"/><path class="cls-18" d="M35.14,42.41s46-21.34,32.36-30.21"/><path class="cls-18" d="M80.21,27.31s9.11,3.06,13.11,10.58"/><path class="cls-18" d="M34.94,33.67s30.27-18.13,20.19-20.9"/><path class="cls-8" d="M93.33,36.73c0,8.11-1.94,10.48-5.25,10.31C82.78,46.78,74,40,64,40S45.19,46.8,39.89,47c-3.29.15-5.22-2.22-5.22-10.31C34.67,24.49,47.8,12,64,12S93.33,24.49,93.33,36.73Z"/></svg>