<svg id="Layer_1" data-name="Layer 1" xmlns="http://www.w3.org/2000/svg" viewBox="0 0 128 128"><defs><style>.cls-1{fill:#f5e3bf;}.cls-2{fill:#fc5d4f;}.cls-10,.cls-11,.cls-13,.cls-3,.cls-6,.cls-8{fill:none;}.cls-13,.cls-3,.cls-6,.cls-8{stroke:#333;}.cls-10,.cls-11,.cls-13,.cls-3,.cls-6{stroke-linecap:round;}.cls-10,.cls-11,.cls-3,.cls-6,.cls-8{stroke-linejoin:round;}.cls-3,.cls-8{stroke-width:4px;}.cls-4{fill:#e0b9a0;}.cls-5{fill:#d6b19d;}.cls-10,.cls-11,.cls-6{stroke-width:3px;}.cls-10,.cls-6{stroke-dasharray:0.5 5;}.cls-7{fill:#333;}.cls-9{fill:#face5a;}.cls-10,.cls-11{stroke:#face5a;}.cls-11{stroke-dasharray:0.12 3.02;}.cls-12{fill:#9d0c47;}.cls-13{stroke-miterlimit:10;stroke-width:2px;}</style></defs><title>indian-woman</title><path class="cls-1" d="M109.44,96.78A12.77,12.77,0,0,0,97.08,87H32a12.77,12.77,0,0,0-12.36,9.82l-2.64,14,1.74.74c32.76,12.38,63.38,12.38,92.94-.76Z"/><path class="cls-2" d="M111.18,110.94l-1.74-14a12.73,12.73,0,0,0-12.36-9.66l-13.52-3.6L64.86,96.76l-25.16,21C65.42,122.3,89,120.56,111.18,110.94Z"/><path class="cls-3" d="M111.68,111.46l-2.24-14.84c-.88-5.86-7-9.88-12.88-9.88H32.34c-5.84,0-11.78,4-12.76,9.88L17,111.28"/><path class="cls-4" d="M87.9,87c-3.28-.94-9.1-3.5-10.56-6V52.52H51.8V80.86c-1.64,3-6.86,5.36-10.62,6.1a27.8,27.8,0,0,0,46.74,0Z"/><path class="cls-5" d="M77.34,80.92V52.52H51.8v28.2l18.28,18.4A26.89,26.89,0,0,0,87.9,87C84.62,86,78.78,83.46,77.34,80.92Z"/><path class="cls-3" d="M41.18,87a27.8,27.8,0,0,0,46.74,0"/><path class="cls-3" d="M52.56,74.6v6.14c-1.64,3-7.64,5.48-11.4,6.24"/><path class="cls-3" d="M87.9,87C84.62,86,78,83.46,76.56,81v-6.2"/><path class="cls-1" d="M55,119.9c14.38-12.46,36.66-29.66,41.6-33.08l-12-3.38c-6.8,1.66-31.52,22.7-45.24,34.24A126.88,126.88,0,0,0,55,119.9Z"/><path class="cls-6" d="M48.5,117.9c10-9.28,34.84-29.66,40.58-33.38"/><path class="cls-3" d="M40.64,117.36c10.68-11.16,36.68-31,42.92-34l13,3.38C90.34,89.9,69.12,107,55.4,119.66"/><ellipse class="cls-7" cx="44.9" cy="58.24" rx="7.28" ry="13.68" transform="translate(-13.66 13.76) rotate(-15.15)"/><ellipse class="cls-7" cx="84.19" cy="57.78" rx="13.74" ry="7.31" transform="translate(6.58 124.13) rotate(-75)"/><path class="cls-4" d="M92.62,40.2A2.82,2.82,0,0,0,89.74,39a34.76,34.76,0,0,0-.48-4.66c-1.46-10-8.8-21.86-24.7-21.86S41.32,24.32,39.86,34.4c-.24,1.6-.4,3.12-.48,4.66a2.82,2.82,0,0,0-2.88,1.16,9.2,9.2,0,0,0-1.7,8.24c.82,4.68,3.82,10.28,8.54,10.28,2.92,13.84,13.2,20,21.2,20s18.3-6.14,21.2-20c4.72,0,7.72-5.6,8.54-10.28A9.2,9.2,0,0,0,92.62,40.2Z"/><path class="cls-5" d="M89.74,39.06a34.76,34.76,0,0,0-.48-4.66c-1.46-10-8.8-21.86-24.7-21.86H62.92l-.8,2.9a117.75,117.75,0,0,0-7,41.78c0,5.2.22,13.1.6,19.08a19,19,0,0,0,8.86,2.36c8,0,18.3-6.14,21.2-20,4.72,0,7.72-5.6,8.54-10.28a9.2,9.2,0,0,0-1.7-8.24A2.83,2.83,0,0,0,89.74,39.06Z"/><path class="cls-8" d="M92.62,40.2A2.82,2.82,0,0,0,89.74,39a34.76,34.76,0,0,0-.48-4.66c-1.46-10-8.8-21.86-24.7-21.86S41.32,24.32,39.86,34.4c-.24,1.6-.4,3.12-.48,4.66a2.82,2.82,0,0,0-2.88,1.16,9.2,9.2,0,0,0-1.7,8.24c.82,4.68,3.82,10.28,8.54,10.28,2.92,13.84,13.2,20,21.2,20s18.3-6.14,21.2-20c4.72,0,7.72-5.6,8.54-10.28A9.2,9.2,0,0,0,92.62,40.2Z"/><path class="cls-9" d="M40,76.44a19.52,19.52,0,0,1,1.62-4.7A1,1,0,0,1,43,71.21a1,1,0,0,1,.53.53,19.52,19.52,0,0,1,1.62,4.7,2.53,2.53,0,1,1-5.06,0Z"/><line class="cls-10" x1="42.56" y1="67.96" x2="42.56" y2="54.98"/><path class="cls-9" d="M84,76.44a19.52,19.52,0,0,1,1.62-4.7A1,1,0,0,1,87,71.21a1,1,0,0,1,.53.53,19.52,19.52,0,0,1,1.62,4.7,2.53,2.53,0,0,1-5.06,0Z"/><line class="cls-10" x1="86.56" y1="67.96" x2="86.56" y2="54.98"/><path class="cls-7" d="M95,28.2a11.13,11.13,0,0,0-1-2.3C84,8.72,74.7,4,65.82,8.72a3.07,3.07,0,0,1-2.52,0c-9-4.7-18.12,0-28.2,17.18a11,11,0,0,0-1,2.28A30.65,30.65,0,0,0,35,54.56c.36-.22.66-.44,1-.66l2.62-2a26.78,26.78,0,0,0,4.12-4.26l1.7,4.3a.57.57,0,0,0,.73.31.55.55,0,0,0,.35-.51V43.4c3.14-5.78,4.18-10.76,9.06-10.76a14.17,14.17,0,0,1,7.1,1.68,6,6,0,0,0,5.68,0,14.17,14.17,0,0,1,7.1-1.68c4.88,0,6,5,9.06,10.76v8.5a.56.56,0,0,0,.57.55.55.55,0,0,0,.51-.35l1.7-4.36a27,27,0,0,0,4.12,4.16l2.62,2c.34.22.64.44,1,.66A30.68,30.68,0,0,0,95,28.2Z"/><circle class="cls-11" cx="64.56" cy="31.44" r="5"/><line class="cls-10" x1="64.56" y1="21.56" x2="64.56" y2="9.78"/><path class="cls-12" d="M66.34,46.22a28.08,28.08,0,0,0-1.1-2.94.77.77,0,0,0-1-.46.8.8,0,0,0-.46.46,27.38,27.38,0,0,0-1.12,2.94,2,2,0,1,0,3.68,0Z"/><circle class="cls-9" cx="64.56" cy="31.48" r="2"/><circle class="cls-9" cx="64.56" cy="40.32" r="1.5"/><path class="cls-3" d="M111.68,111.46a123.64,123.64,0,0,1-47.12,9.28A123.61,123.61,0,0,1,17,111.28"/><circle class="cls-7" cx="55.11" cy="50.3" r="2" transform="translate(-10.08 14.01) rotate(-13.28)"/><circle class="cls-7" cx="74.01" cy="50.3" r="2" transform="translate(8.05 110.77) rotate(-76.72)"/><line class="cls-13" x1="60.76" y1="66.95" x2="68.76" y2="66.95"/><line class="cls-13" x1="63.56" y1="70.19" x2="66.16" y2="70.19"/><path class="cls-13" d="M60.76,61l2.2.6a5.55,5.55,0,0,0,3.6,0l2.2-.6"/></svg>