<svg id="Layer_1" data-name="Layer 1" xmlns="http://www.w3.org/2000/svg" viewBox="0 0 128 128"><defs><style>.cls-1{fill:#707756;}.cls-2{fill:#595e49;}.cls-3{fill:#edccc3;}.cls-4{fill:#e5c2ba;}.cls-12,.cls-15,.cls-17,.cls-19,.cls-21,.cls-5,.cls-8,.cls-9{fill:none;}.cls-10,.cls-11,.cls-12,.cls-13,.cls-15,.cls-19,.cls-20,.cls-21,.cls-5,.cls-7,.cls-9{stroke:#333;}.cls-12,.cls-13,.cls-19,.cls-20,.cls-21,.cls-5,.cls-8,.cls-9{stroke-linejoin:round;}.cls-5{stroke-width:3px;}.cls-6{fill:#484c38;}.cls-13,.cls-7{fill:#ffca76;}.cls-12,.cls-15,.cls-19,.cls-20,.cls-21,.cls-7,.cls-8{stroke-linecap:round;}.cls-7{stroke-width:1.91px;}.cls-8{stroke:#454935;}.cls-11,.cls-15,.cls-8{stroke-width:2px;}.cls-10,.cls-20,.cls-21,.cls-9{stroke-width:4px;}.cls-10,.cls-11{fill:#aa4343;}.cls-12{stroke-width:1.99px;}.cls-13{stroke-width:1.58px;}.cls-14{fill:#333;}.cls-15,.cls-17{stroke-miterlimit:10;}.cls-16{fill:#595959;}.cls-17{stroke:#444;}.cls-18{fill:#666;}.cls-19{stroke-width:3.31px;}.cls-20{fill:#808761;}</style></defs><title>joseph-stalin</title><path class="cls-1" d="M116.06,96c-1-4.82-4.24-7.81-9-9-2.67-.67-9.43-2.31-17-4a117,117,0,0,0-52,0c-7.3,1.69-14.07,3.28-17,4C16.29,88.18,12,92.23,11,97.05l-1,5c.27.17,23.52,9.94,54.12,9.94,30.19,0,53.65-9.85,53.94-10.09Z"/><path class="cls-2" d="M118.06,101.9c-1-4.82-6.24-8.72-11-9.91-2.67-.67-9.43-2.31-17-4a117,117,0,0,0-52,0c-7.3,1.69-14.07,3.28-17,4C16.29,93.18,11,97.23,10,102.05c.27.17,23.52,9.94,54.12,9.94C94.31,112,117.77,102.14,118.06,101.9Z"/><path class="cls-3" d="M49.06,77.69C52.68,86.12,60.23,90.79,64,93.48c4.19-3,11.58-7.66,15.07-16.1V73h-30Z"/><path class="cls-4" d="M49.06,75c6,5,9.62,7.62,11,9,2,2.05,3.78,6.45,4,9.46,4.2-3,11.54-7.67,15-16.07V73h-30Z"/><line class="cls-5" x1="49.06" y1="72.99" x2="49.06" y2="79.99"/><line class="cls-5" x1="79.06" y1="72.99" x2="79.05" y2="79.99"/><path class="cls-6" d="M68,92l-4,2,4,2.06,7.18,12.55a1.24,1.24,0,0,0,2,.26L80.06,106Z"/><path class="cls-6" d="M60.07,92l4,2-4,2.06-7.19,12.55a1.24,1.24,0,0,1-2,.26L48.06,106Z"/><circle class="cls-7" cx="64.06" cy="98" r="2"/><circle class="cls-7" cx="64.06" cy="108" r="2"/><line class="cls-8" x1="58.06" y1="94" x2="58.06" y2="112"/><path class="cls-3" d="M64.06,80c2.52,0,9.61.67,12.79-3.64,4.47-6,7.21-3.57,7.21-16.36,3.59-.18,5.51-2.69,6-6,1.76-11.93-3.79-10.09-4-10,0,0-.07-5.26-.07-7.86C86.07,27.85,80.41,16,64.06,16S42,27.85,42.12,36.15c0,2.6-.06,7.86-.06,7.86-1.1-.46-5.56-.56-4,10,.49,3.31,2.4,5.82,6,6,0,12.79,2.73,10.34,7.2,16.36C54.44,80.68,61.54,80,64.06,80Z"/><path class="cls-4" d="M86.06,44S86,38.75,86,36.15C86.07,27.85,80.41,16,64.06,16c-.89,0-1.73.05-2.56.12-3.92,15.53-6.56,32.11-6.35,45.18,0,4.44.44,11.23,1.07,18.16a28.34,28.34,0,0,0,7.84.55c2.52,0,9.61.67,12.79-3.64,4.47-6,7.21-3.57,7.21-16.36,3.59-.18,5.5-2.69,6-6C91.82,42.08,86.27,43.92,86.06,44Z"/><path class="cls-9" d="M64.06,80c2.52,0,9.61.67,12.79-3.64,4.47-6,7.21-3.57,7.21-16.36,3.59-.18,5.51-2.69,6-6,1.76-11.93-3.79-10.09-4-10,0,0-.07-5.26-.07-7.86C86.07,27.85,80.41,16,64.06,16S42,27.85,42.12,36.15c0,2.6-.06,7.86-.06,7.86-1.1-.46-5.56-.56-4,10,.49,3.31,2.4,5.82,6,6,0,12.79,2.73,10.34,7.2,16.36C54.44,80.68,61.54,80,64.06,80Z"/><path class="cls-10" d="M18,84.64l26.65-6,1.6,6.9-26.65,6a1,1,0,0,1-1.2-.75l-1.15-5A1,1,0,0,1,18,84.64Z"/><rect class="cls-11" x="88.03" y="94" width="8.02" height="4" rx="0.5" ry="0.5"/><line class="cls-12" x1="92.06" y1="102" x2="92.06" y2="98"/><polygon class="cls-7" points="92.07 100.6 93.3 103.09 96.06 103.49 94.06 105.44 94.53 108.18 92.07 106.88 89.61 108.18 90.08 105.44 88.09 103.49 90.84 103.09 92.07 100.6"/><polygon class="cls-13" points="27.16 85.86 25.59 87.39 25.96 89.57 24.01 88.54 22.06 89.56 22.43 87.39 20.86 85.86 23.04 85.54 24.01 83.57 24.98 85.54 27.16 85.86"/><polygon class="cls-13" points="100.95 85.86 102.52 87.39 102.15 89.57 104.1 88.54 106.05 89.56 105.68 87.39 107.26 85.86 105.08 85.54 104.1 83.57 103.13 85.54 100.95 85.86"/><circle class="cls-14" cx="55.38" cy="49.03" r="1.5"/><circle class="cls-14" cx="72.74" cy="49.03" r="1.5"/><line class="cls-15" x1="60.06" y1="68" x2="68.06" y2="68"/><path class="cls-15" d="M60.06,59.07l2.2.6a5.55,5.55,0,0,0,3.6,0l2.2-.6"/><line class="cls-15" x1="63.06" y1="71.07" x2="65.06" y2="71.07"/><path class="cls-16" d="M69.65,61.23A3.1,3.1,0,0,0,67,60.72l-2.18.61a3.18,3.18,0,0,1-1.62,0L61,60.72a3.08,3.08,0,0,0-2.67.51l-5.76,3.69A1.35,1.35,0,0,0,52.06,66h8a6.11,6.11,0,0,0,3-.87l1-.43.95.43a6.61,6.61,0,0,0,3.12.87h8a1.36,1.36,0,0,0-.52-1.08Z"/><path class="cls-17" d="M52.06,66h8a6.11,6.11,0,0,0,3-.87l1-.43.95.43a6.61,6.61,0,0,0,3.12.87h8"/><path class="cls-18" d="M88,28.06c-.25-3.68-5.54-8.18-15.54-10.93a31.79,31.79,0,0,0-16.82,0c-10,2.75-15.29,7.25-15.53,10.93-.44,6.69,1.61,16.52,1.93,18l2,2V42l2-2V36c0-3.27,1.92-6,5.91-6,3.35,0,6.44,2,12.09,2s8.64-2,12-2a5.64,5.64,0,0,1,6,6v4l2,2v6l2-2C86.37,44.59,88.46,34.75,88,28.06Z"/><path class="cls-16" d="M84.06,42v6l2-2c.31-1.42,2.4-11.26,2-17.95-.1-1.52-1.07-3.17-2.86-4.78a40.59,40.59,0,0,0-8.69-3.4,31.79,31.79,0,0,0-16.82,0c-10,2.75-15.29,7.25-15.54,10.93a55.36,55.36,0,0,0,.62,10.51L46.06,40V36c0-3.27,1.92-6,5.91-6,3.35,0,6.44,2,12.09,2s8.64-2,12-2a5.64,5.64,0,0,1,6,6v4Z"/><path class="cls-19" d="M88,28.06c-.25-3.68-5.54-8.18-15.54-10.93a31.79,31.79,0,0,0-16.82,0c-10,2.75-15.29,7.25-15.53,10.93-.44,6.69,1.61,16.52,1.93,18l2,2V42l2-2V36c0-3.27,1.92-6,5.91-6,3.35,0,6.44,2,12.09,2s8.64-2,12-2a5.64,5.64,0,0,1,6,6v4l2,2v6l2-2C86.37,44.59,88.46,34.75,88,28.06Z"/><path class="cls-18" d="M64.06,30a4.17,4.17,0,0,1-2.79-2.37A8,8,0,0,1,60.43,24a7.78,7.78,0,0,1,.86-3.62A4.35,4.35,0,0,1,64.06,18,7.22,7.22,0,0,0,62.75,21,14.26,14.26,0,0,0,62.43,24a14.94,14.94,0,0,0,.31,3.07A6.39,6.39,0,0,0,64.06,30Z"/><path class="cls-18" d="M67.06,28a4,4,0,0,1-3-4,4.42,4.42,0,0,1,.81-2.59A3.4,3.4,0,0,1,67.06,20a12.17,12.17,0,0,0-.76,2.11A8.23,8.23,0,0,0,66.08,24a7.81,7.81,0,0,0,.23,1.89A11.86,11.86,0,0,0,67.06,28Z"/><path class="cls-18" d="M60,28a3.44,3.44,0,0,1-2.16-1.43A4.49,4.49,0,0,1,57,24a4.42,4.42,0,0,1,.81-2.59A3.37,3.37,0,0,1,60,20a11.4,11.4,0,0,0-.76,2.11A7.65,7.65,0,0,0,59,24a7.81,7.81,0,0,0,.23,1.89A11.86,11.86,0,0,0,60,28Z"/><path class="cls-20" d="M48.06,74l-6,6c0,7.88,0,14,6,26l12-14"/><path class="cls-20" d="M80.06,74l6,6c0,7.88-1.49,14.2-4,22l-14-10"/><path class="cls-11" d="M45.27,90.14l3.46-2a1,1,0,0,1,1.36.36l5.19,8.94L51,102.32,44.9,91.51A1,1,0,0,1,45.27,90.14Z"/><circle class="cls-7" cx="49.01" cy="92.6" r="2"/><path class="cls-10" d="M110.14,84.64l-26.65-6-1.6,6.9,26.65,6a1,1,0,0,0,1.2-.75l1.15-5A1,1,0,0,0,110.14,84.64Z"/><path class="cls-20" d="M80.06,74l6,6c0,7.88,0,14-6,26l-12-14"/><path class="cls-21" d="M17.79,88.29A13.43,13.43,0,0,0,11,97.05l-1,5c.27.17,23.45,10,54.06,10s53.78-9.78,54.05-10l-1-5a13.43,13.43,0,0,0-6.79-8.76"/><path class="cls-11" d="M82.84,90.14l-3.46-2A1,1,0,0,0,78,88.5l-5.19,8.94,4.25,4.88,6.13-10.81A1,1,0,0,0,82.84,90.14Z"/><circle class="cls-7" cx="79.11" cy="92.6" r="2"/><path class="cls-21" d="M48.06,74c2.52,8.82,7.45,14.79,12,18h8c4.74-3.37,9.5-9.25,12-18"/></svg>