<svg id="Layer_1" data-name="Layer 1" xmlns="http://www.w3.org/2000/svg" viewBox="0 0 128 128"><defs><style>.cls-1{fill:#e4e9ea;}.cls-2{fill:#d3dbdd;}.cls-3{opacity:0.15;}.cls-4{fill:#333;}.cls-16,.cls-18,.cls-5,.cls-8,.cls-9{fill:none;}.cls-16,.cls-5,.cls-8{stroke:#333;}.cls-5,.cls-8{stroke-linejoin:round;stroke-width:4px;}.cls-6{fill:#b58876;}.cls-7{fill:#ad7e6c;}.cls-16,.cls-18,.cls-8,.cls-9{stroke-linecap:round;}.cls-9{stroke:#59402f;opacity:0.24;}.cls-16,.cls-18,.cls-9{stroke-miterlimit:10;stroke-width:2px;}.cls-10{fill:#baaba9;}.cls-11{fill:#bbb0b1;}.cls-12{fill:#b5a5a3;}.cls-13{fill:#b6abab;}.cls-14{fill:#c19485;}.cls-15{fill:#6c7881;}.cls-17{fill:#b2b2b2;}.cls-18{stroke:#a17261;}.cls-19{fill:#ccc;}</style></defs><title>mahatma-gandhi</title><path class="cls-1" d="M116,97c-2-6-5.27-8.81-10-10-16.61-4.14-17.18-4-42-4s-25.5-.11-42,4c-4.73,1.19-8,4-10,10l-2,6c.32.2,23.67,10.12,54,10.12,29.83,0,53.64-9.82,54-10.12Z"/><path class="cls-2" d="M106.88,93.67l-9.73-2.43A137.39,137.39,0,0,0,64,87a137.31,137.31,0,0,0-33.14,4.25l-9.73,2.43a12.64,12.64,0,0,0-9,8.71A130.22,130.22,0,0,0,64,113.11a130.19,130.19,0,0,0,51.92-10.73A12.63,12.63,0,0,0,106.88,93.67Z"/><g class="cls-3"><path class="cls-4" d="M94.68,92.59a27.62,27.62,0,0,1-2.1,5.67,26.74,26.74,0,0,1-3.37,5.09,20.13,20.13,0,0,1-4.69,3.94,18.78,18.78,0,0,1-5.62,2.37.46.46,0,0,1-.55-.34.47.47,0,0,1,.27-.53,23.06,23.06,0,0,0,5-2.87A31.1,31.1,0,0,0,87.7,102a29.12,29.12,0,0,0,3.45-4.55,39.18,39.18,0,0,0,2.67-5.15.46.46,0,0,1,.59-.25A.47.47,0,0,1,94.68,92.59Z"/><path class="cls-4" d="M105.41,95.18A24.92,24.92,0,0,1,101.9,101,27.06,27.06,0,0,1,97,105.74a24.56,24.56,0,0,1-6.08,3.15,26.54,26.54,0,0,1-6.62,1.48.47.47,0,0,1-.5-.42.48.48,0,0,1,.35-.49,33,33,0,0,0,6.14-2.12,35.71,35.71,0,0,0,5.54-3.25,29.75,29.75,0,0,0,4.88-4.16,30.19,30.19,0,0,0,3.92-5.17.46.46,0,0,1,.82.42Z"/><path class="cls-4" d="M111.65,98.12a16.48,16.48,0,0,1-2.35,4.16,18.41,18.41,0,0,1-3.42,3.41,16.19,16.19,0,0,1-4.3,2.2,17.5,17.5,0,0,1-4.67,1,.47.47,0,0,1-.49-.43.48.48,0,0,1,.34-.48,24.21,24.21,0,0,0,4.18-1.6,28.62,28.62,0,0,0,3.76-2.3,20.57,20.57,0,0,0,3.36-2.83,22.07,22.07,0,0,0,2.77-3.51.46.46,0,0,1,.64-.14A.47.47,0,0,1,111.65,98.12Z"/></g><path class="cls-5" d="M116,97c-2-6-5.27-8.81-10-10-16.61-4.14-17.18-4-42-4s-25.5-.11-42,4c-4.73,1.19-8,4-10,10l-2,6c.32.2,23.67,10.12,54,10.12,29.83,0,53.64-9.82,54-10.12Z"/><ellipse class="cls-2" cx="63.93" cy="88.42" rx="30.68" ry="19.43"/><path class="cls-6" d="M78,85V71H50V85l-6,2a42.14,42.14,0,0,0,19.92,17.87C74.59,100.14,79.94,95.52,84,87Z"/><path class="cls-7" d="M69.18,101.74A32.29,32.29,0,0,0,84,87l-6-2V71H50V85Z"/><g class="cls-3"><path class="cls-4" d="M34,92.29a36.69,36.69,0,0,0,3.51,6,32.78,32.78,0,0,0,4.59,5.17,36.82,36.82,0,0,0,5.44,4.25,31.56,31.56,0,0,0,6.28,3,.46.46,0,0,1,.29.58.46.46,0,0,1-.53.3A26.9,26.9,0,0,1,40.75,105a30.29,30.29,0,0,1-4.56-5.74,29.29,29.29,0,0,1-3-6.63A.47.47,0,0,1,33.5,92,.46.46,0,0,1,34,92.29Z"/><path class="cls-4" d="M23.27,94.76a30.24,30.24,0,0,0,3.93,5.17,29.34,29.34,0,0,0,4.88,4.16,35.16,35.16,0,0,0,5.53,3.25,33.5,33.5,0,0,0,6.14,2.12.46.46,0,0,1-.14.91A26.72,26.72,0,0,1,37,108.89a24.91,24.91,0,0,1-6.08-3.15A27.38,27.38,0,0,1,26,101a25.23,25.23,0,0,1-3.5-5.82.46.46,0,0,1,.81-.42Z"/><path class="cls-4" d="M17,97.71a22.65,22.65,0,0,0,2.77,3.51,20.64,20.64,0,0,0,3.37,2.83,29.18,29.18,0,0,0,3.75,2.3,24,24,0,0,0,4.19,1.6.46.46,0,0,1,.32.57.47.47,0,0,1-.47.34,17.66,17.66,0,0,1-4.68-1,16.13,16.13,0,0,1-4.29-2.2,18.77,18.77,0,0,1-3.43-3.41,16.76,16.76,0,0,1-2.34-4.16.45.45,0,0,1,.27-.59A.44.44,0,0,1,17,97.71Z"/></g><path class="cls-1" d="M64,75c15.35,0,28,8.13,29.78,17.76A12.87,12.87,0,0,0,94,90.42C94,79.69,80.57,71,64,71s-30,8.7-30,19.43a12.87,12.87,0,0,0,.22,2.33C36,83.12,48.65,75,64,75Z"/><path class="cls-8" d="M34,89c0-12,13-18,30-18s30,6,30,18"/><path class="cls-8" d="M84,87c-2-.7-3.58-1.28-6-2"/><path class="cls-5" d="M50,85a36.1,36.1,0,0,1-6,2"/><path class="cls-4" d="M45.73,86a40.83,40.83,0,0,0,8.88,10.81,47.11,47.11,0,0,0,12,7.48,54.49,54.49,0,0,0,13.75,3.91,50,50,0,0,0,14.3.16h0a1.16,1.16,0,0,1,.36,2.3,53.09,53.09,0,0,1-15,.27,57.81,57.81,0,0,1-14.6-3.72,50.5,50.5,0,0,1-13.1-7.66A44.48,44.48,0,0,1,42.27,88a2,2,0,0,1,3.43-2.06l0,0Z"/><path class="cls-9" d="M68,87a6.12,6.12,0,0,1-4,2c-1.53,0-2.69-.9-4-2"/><path class="cls-4" d="M63.42,103.81a53.56,53.56,0,0,0,11-7.39A35.18,35.18,0,0,0,82.25,86L85.75,88a43.16,43.16,0,0,1-4.1,5.86,36.25,36.25,0,0,1-5.13,5,55.69,55.69,0,0,1-12.09,7.08Z"/><path class="cls-6" d="M64,83c2.69,0,6.6.61,10-4,4.73-6.38,11.83-7.88,12-18,6,0,8-5.86,8-10,0-7.86-6-6-6-6V37c.08-8.88-6.5-22-24-22S39.92,28.11,40,37v8s-6-1.86-6,6c0,4.14,2,10,8,10,.17,10.12,7.27,11.62,12,18C57.4,83.6,61.3,83,64,83Z"/><path class="cls-7" d="M86,61c6,0,8-5.86,8-10,0-7.86-6-6-6-6V37c.08-8.88-6.5-22-24-22a30.5,30.5,0,0,0-5.41.48,159.08,159.08,0,0,0-5.07,43.28c0,6,0,13,.24,19.92L54,79c3.4,4.61,7.3,4,10,4s6.6.61,10-4C78.73,72.61,85.83,71.11,86,61Z"/><path class="cls-10" d="M59.87,53.38a5.95,5.95,0,1,1-5.95-6A5.95,5.95,0,0,1,59.87,53.38Z"/><path class="cls-11" d="M58.13,49.17l-8.41,8.42a6,6,0,0,0,8.41-8.42Z"/><path class="cls-12" d="M79.94,53.38a5.95,5.95,0,1,1-5.94-6A5.94,5.94,0,0,1,79.94,53.38Z"/><path class="cls-13" d="M78.2,49.17l-8.41,8.42a6,6,0,1,0,8.41-8.42Z"/><path class="cls-14" d="M39.14,60.25a8.38,8.38,0,0,1-.7-2.33c-.59-4-1.45-8.88.66-10.77,1-.94,2.13,0,2.81-.11a1.39,1.39,0,0,0,1.34-1.41c-.06-1.44-.14-3.53-.14-5.17C43,30.93,49.45,17.85,66.61,18a1.42,1.42,0,0,0,.23-2.83c-9-.85-17.46,1.92-22.41,9.5C40,31.49,40.52,37.78,40.88,44.37a2.5,2.5,0,0,0-2.05-.13c-3.46,1.4-3.56,4.94-3.14,8.5C36,55.08,36.19,58.15,39.14,60.25Z"/><circle class="cls-15" cx="53.98" cy="51.65" r="1.52"/><circle class="cls-15" cx="73.94" cy="51.65" r="1.52"/><path class="cls-16" d="M59.87,53.38a5.95,5.95,0,1,1-5.95-6A5.95,5.95,0,0,1,59.87,53.38Z"/><path class="cls-16" d="M79.94,53.38a5.95,5.95,0,1,1-5.94-6A5.94,5.94,0,0,1,79.94,53.38Z"/><path class="cls-16" d="M59.74,55.87a4.22,4.22,0,0,1,8.44,0"/><line class="cls-16" x1="46.69" y1="51.65" x2="47.97" y2="51.65"/><line class="cls-16" x1="79.94" y1="51.65" x2="81.23" y2="51.65"/><path class="cls-17" d="M47.68,46.67a7.63,7.63,0,0,1,2.77-2.21A8.42,8.42,0,0,1,54,43.68a8.67,8.67,0,0,1,3.48.86,7.8,7.8,0,0,1,2.84,2.13.46.46,0,0,1-.07.65.47.47,0,0,1-.54,0l0,0A9.61,9.61,0,0,0,56.9,46.1a15,15,0,0,0-3-.4,8.23,8.23,0,0,0-5.62,1.62h0a.46.46,0,0,1-.62-.66Z"/><path class="cls-17" d="M79.68,47.32a8.23,8.23,0,0,0-5.62-1.62,15,15,0,0,0-3,.4,9.61,9.61,0,0,0-2.78,1.22l0,0a.46.46,0,0,1-.61-.67,7.8,7.8,0,0,1,2.84-2.13A8.67,8.67,0,0,1,74,43.68a8.42,8.42,0,0,1,3.55.78,7.63,7.63,0,0,1,2.77,2.21.46.46,0,0,1-.62.66Z"/><line class="cls-18" x1="60" y1="70.99" x2="68" y2="70.99"/><path class="cls-18" d="M60,63c2,.85,2.28,2,4,2s2-1.18,4-2"/><line class="cls-18" x1="63" y1="74.99" x2="65" y2="74.99"/><path class="cls-5" d="M64,83c2.69,0,6.6.61,10-4,4.73-6.38,11.83-7.88,12-18,6,0,8-5.86,8-10,0-7.86-6-6-6-6V37c.08-8.88-6.5-22-24-22S39.92,28.11,40,37v8s-6-1.86-6,6c0,4.14,2,10,8,10,.17,10.12,7.27,11.62,12,18C57.4,83.6,61.3,83,64,83Z"/><path class="cls-19" d="M55.82,68.66c.62-.35,1.24-.67,1.86-1l.93-.47a9.92,9.92,0,0,1,1-.48,5.18,5.18,0,0,1,2.47-.26c.42,0,.87.2,1.08.23a5.52,5.52,0,0,0,.81.06,5.29,5.29,0,0,0,.8-.09l.44-.11a4.7,4.7,0,0,1,.63-.13,5.33,5.33,0,0,1,2.48.25c.41.15.72.32,1,.46l.94.47c.62.31,1.24.65,1.86,1a.46.46,0,0,1,.19.62.48.48,0,0,1-.53.23c-.68-.19-1.35-.37-2-.58l-1-.31a8.81,8.81,0,0,0-.93-.27,3.71,3.71,0,0,0-1.66,0,2.91,2.91,0,0,0-.39.12,3.37,3.37,0,0,1-.56.18,4.6,4.6,0,0,1-1.27.15,4.53,4.53,0,0,1-1.27-.18c-.47-.14-.66-.25-.94-.31a3.77,3.77,0,0,0-1.67,0,9.1,9.1,0,0,0-.93.28l-1,.34c-.67.2-1.34.42-2,.61a.47.47,0,0,1-.57-.32A.46.46,0,0,1,55.82,68.66Z"/><line class="cls-8" x1="50" y1="74.99" x2="50" y2="84.99"/><line class="cls-8" x1="78" y1="74.99" x2="78" y2="84.99"/></svg>