<svg id="Layer_1" data-name="Layer 1" xmlns="http://www.w3.org/2000/svg" viewBox="0 0 128 128"><defs><style>.cls-1,.cls-11,.cls-15,.cls-17,.cls-2,.cls-20,.cls-21,.cls-7{fill:none;}.cls-1,.cls-2{stroke:#874f2e;}.cls-1,.cls-11,.cls-14,.cls-2,.cls-20,.cls-7{stroke-miterlimit:10;}.cls-1{stroke-width:3.5px;}.cls-2{stroke-width:5px;}.cls-3{fill:#874f2e;}.cls-14,.cls-4{fill:#444;}.cls-5{fill:#fff;}.cls-6{fill:#a0765f;}.cls-17,.cls-21,.cls-7{stroke:#343433;}.cls-15,.cls-16,.cls-7{stroke-width:4px;}.cls-8{fill:#ad8165;}.cls-9{fill:#a37c62;}.cls-10{fill:#343433;}.cls-11,.cls-14,.cls-15,.cls-16{stroke:#333;}.cls-11,.cls-15{stroke-linecap:round;}.cls-11,.cls-21{stroke-width:2px;}.cls-12,.cls-16{fill:#333;}.cls-13{fill:#ccc;}.cls-14{stroke-width:3px;}.cls-15,.cls-16,.cls-17,.cls-21{stroke-linejoin:round;}.cls-17{stroke-width:4.01px;}.cls-18{fill:#753f25;}.cls-19{fill:#b7b1ad;}.cls-20{stroke:#ccc;stroke-width:1.5px;}</style></defs><title>malcolm-x</title><path class="cls-1" d="M70.94,77.7a18.14,18.14,0,0,1-13.88,0A3.49,3.49,0,0,1,55,74.48V67.23A4.27,4.27,0,0,1,59.27,63h9.46A4.27,4.27,0,0,1,73,67.23v7.25A3.49,3.49,0,0,1,70.94,77.7Z"/><polyline class="cls-2" points="55 72.96 58 74.96 69 74.96 73 72.96"/><path class="cls-3" d="M69.73,61H58.27A6.29,6.29,0,0,0,52,67.23v7.25a5.48,5.48,0,0,0,3.27,5.06A22.9,22.9,0,0,0,64,81.1a22.9,22.9,0,0,0,8.74-1.56A5.48,5.48,0,0,0,76,74.48V67.23A6.29,6.29,0,0,0,69.73,61ZM58.27,65H69.73A2.27,2.27,0,0,1,72,67.23v3.93l-2.58,1.3H58.59L56,71.16V67.23A2.27,2.27,0,0,1,58.27,65Z"/><path class="cls-4" d="M116,99c-1-4.83-4.23-7.81-9-9-2.67-.67-9.42-2.32-17-4a117.18,117.18,0,0,0-52,0c-7.3,1.7-14.06,3.28-17,4-4.77,1.19-8,4.17-9,9l-1,5c.27.16,22.46,11,53.07,11,30.18,0,52.64-10.76,52.93-11Z"/><path class="cls-5" d="M76.56,114.34c3.69-7.89,5.47-16.57,5.86-30A139.32,139.32,0,0,0,64,83.1a136.14,136.14,0,0,0-18.39,1.25c.39,13.43,2.17,22.1,5.85,30v0c4.07.39,8.46.61,12.63.61h0c4,0,8.24-.2,12.48-.6h0Z"/><path class="cls-6" d="M78,72H50v8c6,8,8,8,14,12,6-4,8-4,14-12Z"/><line class="cls-7" x1="50" y1="81.96" x2="50" y2="71.96"/><line class="cls-7" x1="78" y1="81.96" x2="78" y2="71.96"/><path class="cls-8" d="M64.06,13c16,0,20,7.16,20,17.94,0,2.49,0,6.12,0,10,3.28-1.56,6.74,2.29,5.34,7.9-2,8-5.34,10.1-7.34,10.1v4c0,6-2.42,6.22-8,12-3.66,3.81-6,4-10,4s-6.36-.16-10-4c-5.55-5.78-8-6-8-12v-4c-2,0-5.34-2.1-7.34-10.1-1.41-5.61,2.06-9.46,5.34-7.9,0-3.88,0-7.51,0-10C44.06,20.16,48.05,13,64.06,13Z"/><path class="cls-9" d="M84.06,40.94c0-3.88,0-7.51,0-10,0-10.78-4-17.94-20-17.94-1.41,0-2.69.07-3.92.18C57.47,26.62,55,46,55,57.62c0,1.65-.08,9.58-.12,18.14,3.19,3,5.49,3.17,9.17,3.15,4,0,6.36-.16,10-4,5.56-5.78,8-6,8-12v-4c2,0,5.34-2.1,7.34-10.1C90.8,43.23,87.34,39.38,84.06,40.94Z"/><path class="cls-10" d="M64.06,25.91h0Z"/><line class="cls-11" x1="59.06" y1="66.94" x2="69.06" y2="66.94"/><line class="cls-11" x1="62" y1="69.96" x2="66" y2="69.96"/><path class="cls-12" d="M30.89,92.94a2.07,2.07,0,0,1,0-.35c-4.33,1-8,1.87-9.92,2.36-4.77,1.2-9,4.18-10,9,.19.11,11,5.38,27.81,8.58A46,46,0,0,1,30.89,92.94Z"/><path class="cls-12" d="M97.11,92.94a46.21,46.21,0,0,1-7.91,19.6c16.72-3.19,27.6-8.42,27.8-8.58-1-4.83-5.23-7.81-10-9-1.79-.44-5.44-1.33-9.92-2.38A2.31,2.31,0,0,1,97.11,92.94Z"/><path class="cls-13" d="M72.94,104.65a1.3,1.3,0,0,0,2.2-.25l1.11-2.91L66.63,90.75a34.08,34.08,0,0,1-3,1.64c-.89-.45-1.71-.91-2.51-1.38l-9.16,11.22.64,1.85a1.29,1.29,0,0,0,2.2.26l8.39-10.55,8.14,20.94c1-.06,2.07-.14,3.11-.22L69,99.86Z"/><path class="cls-12" d="M51.43,114.33c-4-8.53-5.74-18-5.92-33.36"/><path class="cls-13" d="M49.6,83.87q-2,.21-4,.48c.39,13.43,2.17,22.1,5.85,30v0c1.31.12,2.66.22,4,.31C52.08,106.68,50,96.07,49.6,83.87Z"/><polygon class="cls-14" points="62 97.96 60 93.96 62 89.96 66 89.96 68 93.96 66 97.96 62 97.96"/><path class="cls-14" d="M66.84,102.14,66,98H62l-.84,4.18L59,114.84c1.72.07,3.44.12,5.12.12h0c1.61,0,3.29-.06,5-.12Z"/><path id="_Path_8" data-name=" Path 8" class="cls-5" d="M47.8,77.83,45,85.64l7.51,16.51,9.31-12C55.09,87,51.19,83.42,47.8,77.83Z"/><path id="_Path_9" data-name=" Path 9" class="cls-15" d="M61.76,90.14C54,86.52,51,82.73,47.8,77.83L45,85.64l7.51,16.51,9.31-12"/><path id="_Path_10" data-name=" Path 10" class="cls-5" d="M80.22,77.83l2.84,7.76-7.58,16.55-9.32-12C73.16,87.05,76.93,82.92,80.22,77.83Z"/><path id="_Path_12" data-name=" Path 12" class="cls-15" d="M66.15,90.15c7.72-3.62,10.3-6.89,14.06-12.31l2.84,7.76-7.58,16.55-9.32-12"/><path class="cls-15" d="M38.82,85.83C31.51,87.52,24,89.21,21,90c-4.77,1.19-8,4.17-9,9l-1,5c.27.16,22.46,11,53.07,11,30.18,0,52.64-10.76,52.93-11l-1-5c-1-4.83-4.23-7.81-9-9-2.67-.67-10.25-2.43-17.83-4.12"/><path class="cls-16" d="M43.62,113.34c2.5.39,5.11.73,7.81,1-4-8.53-5.74-18-5.92-33.36l-7.93,3.57,2.9,3L35.26,93A43.38,43.38,0,0,0,43.62,113.34Z"/><path class="cls-16" d="M84.38,113.34c-2.5.39-5.11.73-7.81,1,4-8.53,5.74-18,5.92-33.36l7.93,3.57-2.9,3L92.74,93A43.38,43.38,0,0,1,84.38,113.34Z"/><path class="cls-17" d="M64.08,13.08c11.88,0,20,7.19,20,18,0,2.5.05,6.79,0,10.67,3.16-.76,5.4,1.65,4,7.28-2,8-4,10.13-6,10.13v4c0,6-2.43,6.24-8,12-3.67,3.83-6.06,3.75-10.07,3.72S57.7,79,54,75.19c-5.57-5.79-8-6-8-12v-4c-2,0-4.1-2.11-6.1-10.13-1.41-5.63,1.49-8,4.08-7.28,0-3.88,0-8.17,0-10.67C44,20.27,52.2,13.08,64.08,13.08Z"/><path class="cls-3" d="M64,13c-19.1,0-23.95,12.82-22.15,28.9.24.23.41,1.34.55,1.43,1.92.64,3.09,1.41,3.55,3.56v-7.8c.78-1.5,2-4,2-4,0-.37,0-2.72,0-3.12,0-2.78.47-5,2.07-6.39,2.46-2.09,6.29-1.71,14-1.71s11.52-.38,14,1.71c1.6,1.37,2.07,3.61,2.07,6.39,0,.4,0,2.75,0,3.12,0,0,1.24,2.51,2,4v7.8c.46-2.15,1.63-2.92,3.55-3.56.14-.09.31-1.2.55-1.43C88,25.82,83.12,13,64,13Z"/><path class="cls-12" d="M85.26,42.8a48.15,48.15,0,0,0-.36-10.55,23.6,23.6,0,0,0-3.39-9.52A16.07,16.07,0,0,0,74,16.68,27,27,0,0,0,64.17,15a30.15,30.15,0,0,0-9.86,1.6,16,16,0,0,0-7.58,5.86,22.87,22.87,0,0,0-3.48,9.44,47.49,47.49,0,0,0-.31,10.54h0a.92.92,0,0,1-.84,1,.94.94,0,0,1-1-.77,45,45,0,0,1-.54-11.08,24.74,24.74,0,0,1,3.35-10.92,19.1,19.1,0,0,1,8.92-7.62A28.32,28.32,0,0,1,64.19,11a28.93,28.93,0,0,1,11.3,2.29A19.24,19.24,0,0,1,84.28,21a26.58,26.58,0,0,1,3.26,10.93A46,46,0,0,1,87.07,43a.9.9,0,0,1-1,.76.91.91,0,0,1-.77-.95Z"/><path class="cls-18" d="M45.94,39.09c.56-1.36,1.15-2.72,1.75-4.07l0,.15a37.63,37.63,0,0,1-.1-6.21,6.14,6.14,0,0,1,4-5.2,19.57,19.57,0,0,1,6.33-.89H70.08a20.14,20.14,0,0,1,6.33.85,6.25,6.25,0,0,1,2.79,2,6.73,6.73,0,0,1,1.25,3.12,30.68,30.68,0,0,1-.06,6.22l0-.15c.59,1.38,1.16,2.76,1.72,4.16q-1.18-1.91-2.32-3.86l0,0v-.1l-.16-3a14,14,0,0,0-.38-2.92A5.9,5.9,0,0,0,78,26.68a4.86,4.86,0,0,0-2.2-1.36,19.54,19.54,0,0,0-5.76-.53L64,24.86l-6.1-.07a18.78,18.78,0,0,0-5.75.56,4.88,4.88,0,0,0-2.18,1.41,5.41,5.41,0,0,0-1.12,2.42,16.54,16.54,0,0,0-.33,2.94l-.17,3.05v.1l0,.06C47.51,36.59,46.74,37.84,45.94,39.09Z"/><path class="cls-19" d="M61.16,47a16.31,16.31,0,0,0-7.11-1.88,29.76,29.76,0,0,0-6.54.45c-.23,1.64-.8,7.48,2.41,9.25a8.71,8.71,0,0,0,8.76-.13C61.59,52.26,61.16,47,61.16,47Z"/><path class="cls-19" d="M66.84,47A16.31,16.31,0,0,1,74,45.13a29.76,29.76,0,0,1,6.54.45c.23,1.64.8,7.48-2.41,9.25a8.71,8.71,0,0,1-8.76-.13C66.41,52.26,66.84,47,66.84,47Z"/><path class="cls-20" d="M80.42,44.89s1.41,7.62-2.34,9.7-7.71.75-8.76-.14c-2.91-2.44-2.48-7.69-2.48-7.69"/><path class="cls-21" d="M74,44.89a28.72,28.72,0,0,1,8,.73v.79c-1.79-.45-2.19-1-7.94-1a21.14,21.14,0,0,0-7.16,1.39A16.37,16.37,0,0,1,74,44.89Z"/><path class="cls-20" d="M47.58,44.89s-1.41,7.62,2.34,9.7,7.71.75,8.76-.14c2.91-2.44,2.48-7.69,2.48-7.69"/><path class="cls-21" d="M54.05,44.89a28.72,28.72,0,0,0-8,.73v.79c1.79-.45,2.19-1,7.94-1a21.14,21.14,0,0,1,7.16,1.39A16.37,16.37,0,0,0,54.05,44.89Z"/><path class="cls-21" d="M66.68,46.76a5.16,5.16,0,0,0-5.52,0"/><circle class="cls-12" cx="73.68" cy="49.52" r="1.25"/><circle class="cls-12" cx="54.37" cy="49.52" r="1.25"/><path class="cls-3" d="M68.73,61.21H59.27a6,6,0,0,0-6,6v7.25a5.23,5.23,0,0,0,3.11,4.83,20,20,0,0,0,15.28,0,5.23,5.23,0,0,0,3.11-4.83V67.23A6,6,0,0,0,68.73,61.21Zm-9.46,3.5h9.46a2.52,2.52,0,0,1,2.52,2.52V71l-2.84,1.42H58.76l-2-1.34V67.23A2.52,2.52,0,0,1,59.27,64.71Z"/><path class="cls-18" d="M74.75,74.48c-.11-1.78-.16-3.57-.24-5.36-.05-.88,0-1.81-.13-2.63a5.58,5.58,0,0,0-.93-2.33,5.74,5.74,0,0,0-4.14-2.45c-1.69-.05-3.55,0-5.31,0s-3.62-.05-5.31,0a5.77,5.77,0,0,0-4.14,2.45,5.58,5.58,0,0,0-.93,2.33c-.12.82-.08,1.75-.12,2.63-.09,1.79-.14,3.58-.25,5.36-.11-1.78-.16-3.57-.25-5.36,0-.9-.09-1.76,0-2.72a6.54,6.54,0,0,1,.91-2.66,6.43,6.43,0,0,1,4.69-3A13.39,13.39,0,0,1,60,60.72h8a13.39,13.39,0,0,1,1.39.05,6.45,6.45,0,0,1,4.69,3A6.54,6.54,0,0,1,75,66.4c.08,1,0,1.82,0,2.72C74.91,70.91,74.86,72.7,74.75,74.48Z"/><path class="cls-18" d="M56.75,67.23a2.56,2.56,0,0,1,.72-2.1,2.76,2.76,0,0,1,1-.64,3.81,3.81,0,0,1,1.17-.17c1.44-.08,2.89-.1,4.34-.11s2.9,0,4.34.11a3.53,3.53,0,0,1,1.17.17,2.76,2.76,0,0,1,1,.64,2.52,2.52,0,0,1,.72,2.1,2.52,2.52,0,0,0-1-1.73,2.29,2.29,0,0,0-.88-.38,3.57,3.57,0,0,0-1,0c-1.44.08-2.89.1-4.34.11s-2.9,0-4.34-.12a3.54,3.54,0,0,0-1,0,2.29,2.29,0,0,0-.88.38A2.52,2.52,0,0,0,56.75,67.23Z"/><path class="cls-11" d="M59,60l2.82.76a9.1,9.1,0,0,0,4.52,0L69.14,60"/><path class="cls-12" d="M53.25,73.48a5.86,5.86,0,0,0,1.67,2.8,4.51,4.51,0,0,0,1.22.8,5.75,5.75,0,0,0,.66.23l.79.22a25.36,25.36,0,0,0,6.41.8,26.3,26.3,0,0,0,6.41-.8l.79-.22a5.84,5.84,0,0,0,.66-.24,4.43,4.43,0,0,0,1.22-.8,5.78,5.78,0,0,0,1.67-2.79,5,5,0,0,1-.5,3.69,6.08,6.08,0,0,1-1.32,1.55,5.55,5.55,0,0,1-.87.59c-.27.15-.55.3-.83.43a17.18,17.18,0,0,1-14.46,0c-.28-.13-.55-.28-.82-.42a5.57,5.57,0,0,1-2.19-2.14A4.94,4.94,0,0,1,53.25,73.48Z"/></svg>