<svg id="Layer_1" data-name="Layer 1" xmlns="http://www.w3.org/2000/svg" viewBox="0 0 128 128"><defs><style>.cls-1{fill:#378ca4;}.cls-2{fill:#2e7a90;}.cls-3{fill:#fae2da;opacity:0.25;isolation:isolate;}.cls-4{fill:#6b4932;}.cls-10,.cls-12,.cls-13,.cls-5{fill:none;stroke:#333;}.cls-10,.cls-13,.cls-5{stroke-linecap:round;}.cls-13,.cls-5{stroke-miterlimit:10;}.cls-5{stroke-width:3px;}.cls-6{fill:#edccc3;}.cls-7{fill:#e5c4bd;}.cls-8{fill:#ddb9b3;}.cls-9{fill:#333;}.cls-10,.cls-12{stroke-linejoin:round;stroke-width:4px;}.cls-11{fill:#826149;}.cls-13{stroke-width:2px;}.cls-14{fill:#9b7368;}</style></defs><title>mick-jagger</title><path class="cls-1" d="M114.5,97.68c-1-5.08-5.48-8.74-10.5-10-6.32-1.49-18.23-1.28-40.07-1.28S30.31,86.2,24,87.68c-5,1.26-9.49,4.92-10.5,10L12,102.42s20.66,12,52,12,52-12,52-12Z"/><path class="cls-2" d="M102.41,94.21H25.53a10,10,0,0,0-6.28,2.21c-3,2.38-7.25,5.86-7.25,6,4.61,2.4,24.82,12,52,12s47.39-9.6,52-12l-7.23-5.93A10,10,0,0,0,102.41,94.21Z"/><path class="cls-3" d="M60,77.31h8.15a.59.59,0,0,0,.38-1c-2.09-2-6.92-2-9,0A.67.67,0,0,0,60,77.31Z"/><path class="cls-4" d="M92.46,46.63c-2.09-7.2-3.89-10.6-6-17-2.84-8.72-6.82-13.26-12.12-14.3-7.67-1.52-12.69,4.45-12.69,4.45S52,8.28,43.21,24.66c-3.31,6.91-10.32,23.77-9.47,31.73.67,6.81,6.82,11.36,6.82,11.36a5.06,5.06,0,0,1-4.83,2.93s2.46,5.4,8.24,4.65a12.22,12.22,0,0,0,.76,8.42H83.37a12.22,12.22,0,0,0,.75-8.42c5.87.75,8.24-1.9,8.24-1.9a11.09,11.09,0,0,1-3.6-3.31A27.45,27.45,0,0,0,92.46,46.63Z"/><path class="cls-5" d="M92.6,73.86s-2.15,3.78-7.79,2.47a38.38,38.38,0,0,1-1.44,7.42"/><path class="cls-6" d="M50,74.47v8c0,12,5.22,12.51,14,22,8.74-9.44,14-10,14-22v-8Z"/><path class="cls-7" d="M77.9,82.47v-8H50v2l20.48,22C75.21,93.13,77.9,91.05,77.9,82.47Z"/><path class="cls-6" d="M64,82.43c2.46,0,6.92.85,10-3.32,4.26-5.77,8.62-4.35,8.81-16.29a6.69,6.69,0,0,0,6.34-6c.57-3.6,1-6.82-1-8.52-1.51-1.42-2.18-1.52-3.41-1.05,0,0,.19-5.49.19-7.95C85,28.83,79.67,20.12,64,20.12S42.93,28.83,43,39.34c0,2.46.19,7.95.19,7.95-1.23-.47-1.89-.37-3.41,1.05-1.89,1.7-1.51,4.92-1,8.52a6.7,6.7,0,0,0,6.35,6c.19,11.84,4.45,10.42,8.8,16.29C57,83.28,61.49,82.43,64,82.43Z"/><path class="cls-7" d="M88.1,48.34c-1.51-1.42-2.18-1.52-3.41-1.05,0,0,.19-5.49.19-7.95C85,28.83,79.67,20.12,64,20.12a35.47,35.47,0,0,0-5.36.38c-2.8,14.88-4.54,29.8-4.37,42.14,0,4.45.33,10.88.84,17.73,3,2.72,6.72,2.06,8.89,2.06,2.46,0,6.92.85,10-3.32,4.26-5.77,8.62-4.35,8.81-16.29a6.44,6.44,0,0,0,1.55-.27V61.11c1.43,0,3.44-2.16,4.86-4.72C89.74,53,90,50,88.1,48.34Z"/><path class="cls-8" d="M88.2,48.34c-1.52-1.33-2.18-1.52-3.41-1,0,0,.28-5.59.28-8,0-10.6-5.3-19.31-21-19.31S43,28.83,43.12,39.34c0,2.46.19,7.95.19,7.95-1.23-.47-1.9-.37-3.41,1.05-1.8,1.61-1.52,4.64-1,8,10.6-5.21,13.82-6,15.24-21,.29-2.55,2.75-3.69,5.4-3.88a37,37,0,0,1,5.4-.1,4.14,4.14,0,0,1,3.69,3.22c1,4.83,2.28,11,9.28,14.49,8.81,4.45,8.43,7.67,10.23,10,.1.19.28.38.38.57a13.16,13.16,0,0,0,.76-2.94C89.81,53.36,90.09,50,88.2,48.34Z"/><path class="cls-9" d="M45.1,54.15l-.2-4.89,0-1.23a12.32,12.32,0,0,1,0-1.35,13.7,13.7,0,0,1,.53-2.61,19.26,19.26,0,0,0,.81-4.53c0-.77.06-1.56.06-2.35l0-1.21a11.88,11.88,0,0,1,.09-1.45,8.87,8.87,0,0,1,2.68-5.15,14.2,14.2,0,0,1,4.66-2.94A26.4,26.4,0,0,1,58.77,25a30.7,30.7,0,0,1,5.17-.5,29,29,0,0,1,5.18.44,23.8,23.8,0,0,1,5.06,1.44,14.51,14.51,0,0,1,4.68,3,9.05,9.05,0,0,1,2.67,5.19,10.1,10.1,0,0,1,.1,1.45l0,1.21c0,.79,0,1.57.07,2.34a19.29,19.29,0,0,0,.78,4.54A14.33,14.33,0,0,1,83,46.68c0,.45,0,.9,0,1.35L83,49.26l-.21,4.89a.87.87,0,0,1-1.73,0l-.21-4.89,0-1.21c0-.37-.06-.74-.11-1.09a12,12,0,0,0-.6-2.14,21.05,21.05,0,0,1-1.22-5c-.1-.85-.17-1.7-.21-2.54L78.6,36a7.88,7.88,0,0,0-.12-1c-.5-2.56-2.83-4.31-5.61-5.28a29.9,29.9,0,0,0-8.93-1.42,27,27,0,0,0-9,1.36,10.83,10.83,0,0,0-3.66,2.07A6,6,0,0,0,49.37,35a7.87,7.87,0,0,0-.13,1l-.05,1.23c0,.84-.11,1.69-.21,2.54a21.74,21.74,0,0,1-1.19,5A11,11,0,0,0,47.18,47a7.74,7.74,0,0,0-.11,1.09l0,1.21-.2,4.89a.86.86,0,0,1-.9.83A.85.85,0,0,1,45.1,54.15Z"/><path class="cls-10" d="M64,82.43c2.46,0,6.92.85,10-3.32,4.26-5.77,8.62-4.35,8.81-16.29a6.69,6.69,0,0,0,6.34-6c.57-3.6,1-6.82-1-8.52-1.51-1.42-2.18-1.52-3.41-1.05,0,0,.19-5.49.19-7.95C85,28.83,79.67,20.12,64,20.12S42.93,28.83,43,39.34c0,2.46.19,7.95.19,7.95-1.23-.47-1.89-.37-3.41,1.05-1.89,1.7-1.51,4.92-1,8.52a6.7,6.7,0,0,0,6.35,6c.19,11.84,4.45,10.42,8.8,16.29C57,83.28,61.49,82.43,64,82.43Z"/><path class="cls-4" d="M92.84,65.1a34.12,34.12,0,0,0-.38-18.47c-2.09-7.2-3.89-10.6-6-17-2.84-8.72-6.82-13.26-12.12-14.3-7.67-1.52-12.69,4.45-12.69,4.45S52,8.28,43.21,24.66C39.9,31.48,33.08,48,33.65,56l1.42,5.58L36.68,59c3.22-8,12.31-4.55,14.58-21,1-7.76,5.5-9.18,11.65-9.37,0,0,8.14-.66,9.47,9.18,1.8,13.64,18.47,9.47,17.33,28.41Z"/><path class="cls-11" d="M58.93,17.94a11.1,11.1,0,0,0-4.73-2.09c-3.32-.09-7.29,1.71-11.08,8.81C39.8,31.48,33,48,33.55,56l1.33,5.11c1.33-13.16,7.77-29.64,10.42-35C50.22,17.27,55.33,16.71,58.93,17.94Z"/><line class="cls-12" x1="77.95" y1="74.47" x2="77.95" y2="88.39"/><path class="cls-11" d="M62.44,19.45a3.57,3.57,0,0,0,4.07,0,13.86,13.86,0,0,1,10.7-2.65,7.9,7.9,0,0,1,2.08.66,11.54,11.54,0,0,0-6.06-3.22c-6.72-1.32-11.46,3.13-12.5,4.27C61.3,18.79,61.87,19.17,62.44,19.45Z"/><path class="cls-5" d="M61.68,19.55S52,8.09,43.21,24.47C39.9,31.38,32.89,48.24,33.74,56.2c.67,6.81,6.82,11.36,6.82,11.36"/><path class="cls-5" d="M88.76,70.12s9.09-8.43,3.7-23.68c-2.47-7.1-3.89-10.6-6-17-2.84-8.72-6.82-13.26-12.12-14.3-7.67-1.52-12.69,4.45-12.69,4.45"/><path class="cls-9" d="M88.64,48.58a25.57,25.57,0,0,1-8.51-4.88,12.11,12.11,0,0,1-3.06-4.13c-.61-1.53-1.13-3.11-1.6-4.67A31.32,31.32,0,0,0,74,30.48a6,6,0,0,0-2.84-2.89,8.35,8.35,0,0,0-2-.72,5.41,5.41,0,0,0-2,.05,10.63,10.63,0,0,0-3.85,1.73l-.05,0a1.41,1.41,0,0,1-1.63-2.3l0,0a14,14,0,0,1,2.43-1.25,12,12,0,0,1,2.63-.72,7.74,7.74,0,0,1,2.87.09,10.4,10.4,0,0,1,2.56,1.05,8.49,8.49,0,0,1,2.2,1.7,8.13,8.13,0,0,1,1.5,2.33,32.72,32.72,0,0,1,1.48,4.8c.41,1.56.84,3.08,1.38,4.58A10.75,10.75,0,0,0,81,42.86,25,25,0,0,0,88.64,48.58Z"/><path class="cls-9" d="M40.34,48.58a14.05,14.05,0,0,0,6.53-5.35,13.83,13.83,0,0,0,1.71-3.78l1.15-4.17A39.15,39.15,0,0,1,51.11,31a9.07,9.07,0,0,1,2.86-4,8.82,8.82,0,0,1,2.21-1.2,12.68,12.68,0,0,1,2.39-.63,8.53,8.53,0,0,1,2.57.05,8,8,0,0,1,1.26.32,6.47,6.47,0,0,1,1.3.61l0,0a1.42,1.42,0,0,1-1.5,2.4l-.16-.12a4,4,0,0,0-.65-.35,4.5,4.5,0,0,0-.83-.28,5.56,5.56,0,0,0-1.78-.17,7.43,7.43,0,0,0-1.85.38,6.5,6.5,0,0,0-1.65.81c-2,1.35-2.83,4.24-3.72,7-.47,1.39-.83,2.77-1.4,4.19a15.3,15.3,0,0,1-2.42,3.89A14.62,14.62,0,0,1,40.34,48.58Z"/><path class="cls-9" d="M36.91,58.51a10.7,10.7,0,0,1,3.43-4.21c1.44-1.13,3-2.11,4.34-3.28a15.73,15.73,0,0,0,3.43-4,19.41,19.41,0,0,0,2-4.88A36.48,36.48,0,0,0,51,36.84a13.27,13.27,0,0,1,1.77-5.56,9.06,9.06,0,0,1,4.82-3.71,21.45,21.45,0,0,1,5.71-1,1.41,1.41,0,0,1,.19,2.81h-.1a19.67,19.67,0,0,0-5,.53,6.77,6.77,0,0,0-3.84,2.55,11.29,11.29,0,0,0-1.8,4.65,35.64,35.64,0,0,1-1.3,5.4,20.27,20.27,0,0,1-2.43,5,16.76,16.76,0,0,1-3.87,4c-1.47,1.11-3.08,2-4.56,3A10.42,10.42,0,0,0,36.91,58.51Z"/><path class="cls-9" d="M89.6,63.64a14.51,14.51,0,0,0-1.06-5.78,13.87,13.87,0,0,0-3.43-4.67c-2.86-2.65-6.43-4.54-9.3-7.57a15.37,15.37,0,0,1-3.35-5.31,15.61,15.61,0,0,1-.81-3.07A13.54,13.54,0,0,0,71,34.57a7.47,7.47,0,0,0-3.15-3.93,8.51,8.51,0,0,0-2.37-1A9.41,9.41,0,0,0,63,29.39h-.08a1.41,1.41,0,0,1-.13-2.82h.06a11.83,11.83,0,0,1,3.37.49,11.14,11.14,0,0,1,3.06,1.4,10,10,0,0,1,4,5.34A15.07,15.07,0,0,1,73.85,37a13.9,13.9,0,0,0,.52,2.72A13.46,13.46,0,0,0,77,44.55c2.42,3,5.87,5.13,8.66,8.07a14.29,14.29,0,0,1,3.23,5.09A14.79,14.79,0,0,1,89.6,63.64Z"/><path class="cls-5" d="M35.41,70.75s2.78,5.14,8.56,4.39A11.89,11.89,0,0,0,44.54,83"/><path class="cls-9" d="M42.7,65.53a5.1,5.1,0,0,1-.45,2.4,5.93,5.93,0,0,1-1.55,2A11.13,11.13,0,0,1,36,72.25h0a1.52,1.52,0,0,1-.74-3,1.56,1.56,0,0,1,.48,0,9,9,0,0,0,4.15-.53A4.73,4.73,0,0,0,42.7,65.53Z"/><path class="cls-9" d="M86.2,67.28a4.86,4.86,0,0,0,2.48,3.6,10.67,10.67,0,0,0,4.12,1.4,1.52,1.52,0,0,1-.46,3,1.89,1.89,0,0,1-.44-.14h0A12.9,12.9,0,0,1,87.68,72a7.18,7.18,0,0,1-1.31-2.25A4.55,4.55,0,0,1,86.2,67.28Z"/><circle class="cls-9" cx="54.59" cy="53.38" r="1.5"/><circle class="cls-9" cx="72.95" cy="53.38" r="1.5"/><line class="cls-13" x1="59.92" y1="70.42" x2="67.77" y2="70.42"/><path class="cls-13" d="M60,62.42l2.2.6a5.55,5.55,0,0,0,3.6,0l2.2-.6"/><line class="cls-13" x1="62.95" y1="74.42" x2="64.95" y2="74.42"/><path class="cls-14" d="M64,102.42l0,0,0,0Z"/><path class="cls-12" d="M86,86.21c1.71.41,16,1,18,1.47a14.77,14.77,0,0,1,10.5,10l1.5,4.74s-20.66,12-52,12-52-12-52-12l1.5-4.74a14.77,14.77,0,0,1,10.5-10c1.69-.41,18-1.47,18-1.47"/><line class="cls-12" x1="64" y1="102.42" x2="64" y2="114.42"/><path class="cls-1" d="M42,86.21v16.21l14-6c-6-6-6-8.21-6-16.21Z"/><path class="cls-1" d="M86,86.21l0,16.21-14-6c6-6,6-8.21,6-16.21Z"/><path class="cls-12" d="M72,96.42l14,6V86.21l-8-6c0,12-4,14.72-14,24.21h.1C54,94.93,50,92.21,50,80.21l-8,6v16.21l14-6"/><line class="cls-12" x1="49.95" y1="74.42" x2="49.95" y2="82.47"/></svg>