<svg id="Layer_1" data-name="Layer 1" xmlns="http://www.w3.org/2000/svg" viewBox="0 0 128 128"><defs><style>.cls-1{fill:#8c2943;}.cls-2{fill:#a3455d;}.cls-3{fill:#d8ab8d;}.cls-4{fill:#d2a385;}.cls-5{fill:#d5e7e5;}.cls-6{fill:#e6edec;}.cls-7{fill:#edf7f6;}.cls-11,.cls-14,.cls-15,.cls-16,.cls-8,.cls-9{fill:none;stroke:#333;}.cls-11,.cls-15,.cls-16,.cls-8{stroke-linecap:round;}.cls-11,.cls-8,.cls-9{stroke-linejoin:round;}.cls-14,.cls-8,.cls-9{stroke-width:4px;}.cls-10{fill:#333;}.cls-11{stroke-width:3px;}.cls-12{fill:#d05a6b;}.cls-13{fill:#e39ca6;}.cls-14,.cls-15,.cls-16{stroke-miterlimit:10;}.cls-15{stroke-width:4.2px;}.cls-16{stroke-width:2px;}</style></defs><title>muslim-man</title><path class="cls-1" d="M96.45,56.39h.07L93,47.63a75.83,75.83,0,0,1-3.4-13.88C87.52,21.12,78.46,14,64,14S40.48,21.12,38.44,33.75A75.83,75.83,0,0,1,35,47.63l-3.56,8.76h.07a17.59,17.59,0,0,0,.88,16.35l3.06,5.11A17.58,17.58,0,0,1,38,86.9V102H90V86.9a17.58,17.58,0,0,1,2.51-9.05l3.06-5.11A17.59,17.59,0,0,0,96.45,56.39Z"/><path class="cls-2" d="M86.18,98H90s0,0,0,0V94s0,0,0,0h-3.8a.1.1,0,0,0-.1-.1v-3.8a.11.11,0,0,0,.1-.1H90s0,0,0,0V86.9c0-.32,0-.64.07-1,0,0-.09,0-.09.09h-3.8a.1.1,0,0,0-.1-.1v-3.8a.11.11,0,0,0,.1-.1H90a.1.1,0,0,0,.1.1.11.11,0,0,0,.1-.1.1.1,0,0,0-.1-.1v-3.8a.11.11,0,0,0,.1-.1h2.24a1,1,0,0,1,.09-.18l1.57-2.62v-1.1a.11.11,0,0,0,.1-.1h.62l.77-1.29A18.12,18.12,0,0,0,96.86,70H94.18a.1.1,0,0,0-.1-.1v-3.8a.11.11,0,0,0,.1-.1h3.7A17.84,17.84,0,0,0,98,62H94.18a.1.1,0,0,0-.1-.1v-3.8a.11.11,0,0,0,.1-.1h2.9c-.19-.55-.39-1.1-.63-1.64h.07l-1-2.36H94.18a.1.1,0,0,0-.1-.1V50.38L93.93,50H90.18a.1.1,0,0,0-.1-.1V46h-3.9a.1.1,0,0,0-.1-.1V42h-3.9a.1.1,0,0,0-.1-.1V38h-4v3.9a.09.09,0,0,0-.1.1h-3.8a.1.1,0,0,0-.1-.1V38h-3.9a.1.1,0,0,0-.1-.1V34h-4v3.9a.09.09,0,0,0-.1.1h-3.8a.1.1,0,0,0-.1-.1V34h-4v3.9a.09.09,0,0,0-.1.1h-3.9v3.9a.09.09,0,0,0-.1.1h-3.8a.1.1,0,0,0-.1-.1V38h-4v3.9a.09.09,0,0,0-.1.1h-3.9v3.9a.09.09,0,0,0-.1.1h-3.9v3.9a.09.09,0,0,0-.1.1h-3.9v3.9a.09.09,0,0,0-.1.1H32.44l-1,2.36h.07c-.24.54-.44,1.09-.63,1.64H34a.1.1,0,0,0,.1.1v3.8a.09.09,0,0,0-.1.1h-3.9v3.6c0,.13,0,.26,0,.4H34a.1.1,0,0,0,.1.1v3.8a.09.09,0,0,0-.1.1H31.14a18.12,18.12,0,0,0,1.29,2.71L33.2,74H34a.1.1,0,0,0,.1.1v1.36l1.41,2.36a1,1,0,0,1,.09.18H38a.1.1,0,0,0,.1.1v3.8a.09.09,0,0,0-.1.1.1.1,0,0,0,.1.1.11.11,0,0,0,.1-.1H42a.1.1,0,0,0,.1.1v3.8a.09.09,0,0,0-.1.1h-3.8a.1.1,0,0,0-.1-.1.09.09,0,0,0-.1.1.1.1,0,0,0,.1.1v3.8A.09.09,0,0,0,38,90v0s0,.08.08.08a.11.11,0,0,0,.1-.1H42a.1.1,0,0,0,.1.1v3.8a.09.09,0,0,0-.1.1h-3.8a.1.1,0,0,0-.1-.1A.09.09,0,0,0,38,94v0s0,.08.08.08v3.8A.09.09,0,0,0,38,98v0s0,.08.08.08a.11.11,0,0,0,.1-.1H42a.1.1,0,0,0,.1.1V102h4v-3.9a.11.11,0,0,0,.1-.1H50a.1.1,0,0,0,.1.1V102h4v-3.9a.11.11,0,0,0,.1-.1H58a.1.1,0,0,0,.1.1V102h4v-3.9a.11.11,0,0,0,.1-.1H66a.1.1,0,0,0,.1.1V102h4v-3.9a.11.11,0,0,0,.1-.1H74a.1.1,0,0,0,.1.1V102h4v-3.9a.11.11,0,0,0,.1-.1H82a.1.1,0,0,0,.1.1V102h4v-3.9A.11.11,0,0,0,86.18,98Zm-.1-8.1a.09.09,0,0,0-.1.1h-3.8a.1.1,0,0,0-.1-.1v-3.8a.11.11,0,0,0,.1-.1H86a.1.1,0,0,0,.1.1ZM50,70h-3.8a.1.1,0,0,0-.1-.1v-3.8a.11.11,0,0,0,.1-.1H50a.1.1,0,0,0,.1.1v3.8A.09.09,0,0,0,50,70Zm.1,4.1v3.8a.09.09,0,0,0-.1.1h-3.8a.1.1,0,0,0-.1-.1v-3.8a.11.11,0,0,0,.1-.1H50A.1.1,0,0,0,50.08,74.13Zm0-4a.11.11,0,0,0,.1-.1H54a.1.1,0,0,0,.1.1v3.8a.09.09,0,0,0-.1.1h-3.8a.1.1,0,0,0-.1-.1Zm0-4.2v-3.8a.11.11,0,0,0,.1-.1H54a.1.1,0,0,0,.1.1v3.8a.09.09,0,0,0-.1.1h-3.8A.1.1,0,0,0,50.08,65.93Zm4,8.2a.11.11,0,0,0,.1-.1H58a.1.1,0,0,0,.1.1v3.8a.09.09,0,0,0-.1.1h-3.8a.1.1,0,0,0-.1-.1ZM58,70h-3.8a.1.1,0,0,0-.1-.1v-3.8a.11.11,0,0,0,.1-.1H58a.1.1,0,0,0,.1.1v3.8A.09.09,0,0,0,58,70Zm.1.1a.11.11,0,0,0,.1-.1H62a.1.1,0,0,0,.1.1v3.8a.09.09,0,0,0-.1.1h-3.8a.1.1,0,0,0-.1-.1Zm0-4.2v-3.8a.11.11,0,0,0,.1-.1H62a.1.1,0,0,0,.1.1v3.8a.09.09,0,0,0-.1.1h-3.8A.1.1,0,0,0,58.08,65.93Zm4,8.2a.11.11,0,0,0,.1-.1H66a.1.1,0,0,0,.1.1v3.8a.09.09,0,0,0-.1.1h-3.8a.1.1,0,0,0-.1-.1ZM66,70h-3.8a.1.1,0,0,0-.1-.1v-3.8a.11.11,0,0,0,.1-.1H66a.1.1,0,0,0,.1.1v3.8A.09.09,0,0,0,66,70Zm.1-8.1a.09.09,0,0,0-.1.1h-3.8a.1.1,0,0,0-.1-.1v-3.8a.11.11,0,0,0,.1-.1H66a.1.1,0,0,0,.1.1Zm.1.1H70a.1.1,0,0,0,.1.1v3.8a.09.09,0,0,0-.1.1h-3.8a.1.1,0,0,0-.1-.1v-3.8A.11.11,0,0,0,66.18,62Zm-.1,8.1a.11.11,0,0,0,.1-.1H70a.1.1,0,0,0,.1.1v3.8a.09.09,0,0,0-.1.1h-3.8a.1.1,0,0,0-.1-.1Zm4,4a.11.11,0,0,0,.1-.1H74a.1.1,0,0,0,.1.1v3.8a.09.09,0,0,0-.1.1h-3.8a.1.1,0,0,0-.1-.1ZM74,70h-3.8a.1.1,0,0,0-.1-.1v-3.8a.11.11,0,0,0,.1-.1H74a.1.1,0,0,0,.1.1v3.8A.09.09,0,0,0,74,70Zm.1-8.1a.09.09,0,0,0-.1.1h-3.8a.1.1,0,0,0-.1-.1v-3.8a.11.11,0,0,0,.1-.1H74a.1.1,0,0,0,.1.1Zm.1.1H78a.1.1,0,0,0,.1.1v3.8a.09.09,0,0,0-.1.1h-3.8a.1.1,0,0,0-.1-.1v-3.8A.11.11,0,0,0,74.18,62Zm-.1,8.1a.11.11,0,0,0,.1-.1H78a.1.1,0,0,0,.1.1v3.8a.09.09,0,0,0-.1.1h-3.8a.1.1,0,0,0-.1-.1Zm4,4a.11.11,0,0,0,.1-.1H82a.1.1,0,0,0,.1.1v3.8a.09.09,0,0,0-.1.1h-3.8a.1.1,0,0,0-.1-.1ZM82,70h-3.8a.1.1,0,0,0-.1-.1v-3.8a.11.11,0,0,0,.1-.1H82a.1.1,0,0,0,.1.1v3.8A.09.09,0,0,0,82,70Zm.1.1a.11.11,0,0,0,.1-.1H86a.1.1,0,0,0,.1.1v3.8a.09.09,0,0,0-.1.1h-3.8a.1.1,0,0,0-.1-.1ZM86,66h-3.8a.1.1,0,0,0-.1-.1v-3.8a.11.11,0,0,0,.1-.1H86a.1.1,0,0,0,.1.1v3.8A.09.09,0,0,0,86,66Zm.1.1a.11.11,0,0,0,.1-.1H90a.1.1,0,0,0,.1.1v3.8a.09.09,0,0,0-.1.1h-3.8a.1.1,0,0,0-.1-.1ZM90,62h-3.8a.1.1,0,0,0-.1-.1v-3.8a.11.11,0,0,0,.1-.1H90a.1.1,0,0,0,.1.1v3.8A.09.09,0,0,0,90,62Zm-3.9-4.1a.09.09,0,0,0-.1.1h-3.8a.1.1,0,0,0-.1-.1v-3.8a.11.11,0,0,0,.1-.1H86a.1.1,0,0,0,.1.1Zm-4-4a.09.09,0,0,0-.1.1h-3.8a.1.1,0,0,0-.1-.1v-3.8a.11.11,0,0,0,.1-.1H82a.1.1,0,0,0,.1.1ZM78.18,58H82a.1.1,0,0,0,.1.1v3.8a.09.09,0,0,0-.1.1h-3.8a.1.1,0,0,0-.1-.1v-3.8A.11.11,0,0,0,78.18,58Zm-.1-.1a.09.09,0,0,0-.1.1h-3.8a.1.1,0,0,0-.1-.1v-3.8a.11.11,0,0,0,.1-.1H78a.1.1,0,0,0,.1.1Zm-4-4a.09.09,0,0,0-.1.1h-3.8a.1.1,0,0,0-.1-.1v-3.8a.11.11,0,0,0,.1-.1H74a.1.1,0,0,0,.1.1Zm-4-4a.09.09,0,0,0-.1.1h-3.8a.1.1,0,0,0-.1-.1v-3.8a.11.11,0,0,0,.1-.1H70a.1.1,0,0,0,.1.1ZM66.18,54H70a.1.1,0,0,0,.1.1v3.8a.09.09,0,0,0-.1.1h-3.8a.1.1,0,0,0-.1-.1v-3.8A.11.11,0,0,0,66.18,54Zm-.1-.1a.09.09,0,0,0-.1.1h-3.8a.1.1,0,0,0-.1-.1v-3.8a.11.11,0,0,0,.1-.1H66a.1.1,0,0,0,.1.1Zm-4-4a.09.09,0,0,0-.1.1h-3.8a.1.1,0,0,0-.1-.1v-3.8a.11.11,0,0,0,.1-.1H62a.1.1,0,0,0,.1.1ZM58.18,54H62a.1.1,0,0,0,.1.1v3.8a.09.09,0,0,0-.1.1h-3.8a.1.1,0,0,0-.1-.1v-3.8A.11.11,0,0,0,58.18,54Zm-.1-.1a.09.09,0,0,0-.1.1h-3.8a.1.1,0,0,0-.1-.1v-3.8a.11.11,0,0,0,.1-.1H58a.1.1,0,0,0,.1.1ZM54.18,58H58a.1.1,0,0,0,.1.1v3.8a.09.09,0,0,0-.1.1h-3.8a.1.1,0,0,0-.1-.1v-3.8A.11.11,0,0,0,54.18,58Zm-.1-.1a.09.09,0,0,0-.1.1h-3.8a.1.1,0,0,0-.1-.1v-3.8a.11.11,0,0,0,.1-.1H54a.1.1,0,0,0,.1.1Zm-4-4a.09.09,0,0,0-.1.1h-3.8a.1.1,0,0,0-.1-.1v-3.8a.11.11,0,0,0,.1-.1H50a.1.1,0,0,0,.1.1ZM46.18,58H50a.1.1,0,0,0,.1.1v3.8a.09.09,0,0,0-.1.1h-3.8a.1.1,0,0,0-.1-.1v-3.8A.11.11,0,0,0,46.18,58Zm-.1-.1a.09.09,0,0,0-.1.1h-3.8a.1.1,0,0,0-.1-.1v-3.8a.11.11,0,0,0,.1-.1H46a.1.1,0,0,0,.1.1ZM42.18,62H46a.1.1,0,0,0,.1.1v3.8a.09.09,0,0,0-.1.1h-3.8a.1.1,0,0,0-.1-.1v-3.8A.11.11,0,0,0,42.18,62Zm-.1-.1a.09.09,0,0,0-.1.1h-3.8a.1.1,0,0,0-.1-.1v-3.8a.11.11,0,0,0,.1-.1H42a.1.1,0,0,0,.1.1ZM38.18,66H42a.1.1,0,0,0,.1.1v3.8a.09.09,0,0,0-.1.1h-3.8a.1.1,0,0,0-.1-.1v-3.8A.11.11,0,0,0,38.18,66Zm3.9,4.1a.11.11,0,0,0,.1-.1H46a.1.1,0,0,0,.1.1v3.8a.09.09,0,0,0-.1.1h-3.8a.1.1,0,0,0-.1-.1Zm.1,7.9H46a.1.1,0,0,0,.1.1v3.8a.09.09,0,0,0-.1.1h-3.8a.1.1,0,0,0-.1-.1v-3.8A.11.11,0,0,0,42.18,78Zm3.9,4.1a.11.11,0,0,0,.1-.1H50a.1.1,0,0,0,.1.1v3.8a.09.09,0,0,0-.1.1h-3.8a.1.1,0,0,0-.1-.1Zm4,4a.11.11,0,0,0,.1-.1H54a.1.1,0,0,0,.1.1v3.8a.09.09,0,0,0-.1.1h-3.8a.1.1,0,0,0-.1-.1ZM54,82h-3.8a.1.1,0,0,0-.1-.1v-3.8a.11.11,0,0,0,.1-.1H54a.1.1,0,0,0,.1.1v3.8A.09.09,0,0,0,54,82Zm.1.1a.11.11,0,0,0,.1-.1H58a.1.1,0,0,0,.1.1v3.8a.09.09,0,0,0-.1.1h-3.8a.1.1,0,0,0-.1-.1Zm4,4a.11.11,0,0,0,.1-.1H62a.1.1,0,0,0,.1.1v3.8a.09.09,0,0,0-.1.1h-3.8a.1.1,0,0,0-.1-.1ZM62,82h-3.8a.1.1,0,0,0-.1-.1v-3.8a.11.11,0,0,0,.1-.1H62a.1.1,0,0,0,.1.1v3.8A.09.09,0,0,0,62,82Zm.1.1a.11.11,0,0,0,.1-.1H66a.1.1,0,0,0,.1.1v3.8a.09.09,0,0,0-.1.1h-3.8a.1.1,0,0,0-.1-.1Zm4,4a.11.11,0,0,0,.1-.1H70a.1.1,0,0,0,.1.1v3.8a.09.09,0,0,0-.1.1h-3.8a.1.1,0,0,0-.1-.1ZM70,82h-3.8a.1.1,0,0,0-.1-.1v-3.8a.11.11,0,0,0,.1-.1H70a.1.1,0,0,0,.1.1v3.8A.09.09,0,0,0,70,82Zm.1.1a.11.11,0,0,0,.1-.1H74a.1.1,0,0,0,.1.1v3.8a.09.09,0,0,0-.1.1h-3.8a.1.1,0,0,0-.1-.1Zm4,4a.11.11,0,0,0,.1-.1H78a.1.1,0,0,0,.1.1v3.8a.09.09,0,0,0-.1.1h-3.8a.1.1,0,0,0-.1-.1ZM78,82h-3.8a.1.1,0,0,0-.1-.1v-3.8a.11.11,0,0,0,.1-.1H78a.1.1,0,0,0,.1.1v3.8A.09.09,0,0,0,78,82Zm.1.1a.11.11,0,0,0,.1-.1H82a.1.1,0,0,0,.1.1v3.8a.09.09,0,0,0-.1.1h-3.8a.1.1,0,0,0-.1-.1Zm8-.2a.09.09,0,0,0-.1.1h-3.8a.1.1,0,0,0-.1-.1v-3.8a.11.11,0,0,0,.1-.1H86a.1.1,0,0,0,.1.1Zm4-4a.09.09,0,0,0-.1.1h-3.8a.1.1,0,0,0-.1-.1v-3.8a.11.11,0,0,0,.1-.1H90a.1.1,0,0,0,.1.1Zm4-4a.09.09,0,0,0-.1.1h-3.8a.1.1,0,0,0-.1-.1v-3.8a.11.11,0,0,0,.1-.1H94a.1.1,0,0,0,.1.1Zm0-8a.09.09,0,0,0-.1.1h-3.8a.1.1,0,0,0-.1-.1v-3.8a.11.11,0,0,0,.1-.1H94a.1.1,0,0,0,.1.1ZM90.18,54H94a.1.1,0,0,0,.1.1v3.8a.09.09,0,0,0-.1.1h-3.8a.1.1,0,0,0-.1-.1v-3.8A.11.11,0,0,0,90.18,54Zm-4-4H90a.1.1,0,0,0,.1.1v3.8a.09.09,0,0,0-.1.1h-3.8a.1.1,0,0,0-.1-.1v-3.8A.11.11,0,0,0,86.18,50Zm-4-4H86a.1.1,0,0,0,.1.1v3.8a.09.09,0,0,0-.1.1h-3.8a.1.1,0,0,0-.1-.1v-3.8A.11.11,0,0,0,82.18,46Zm-4.1-3.9a.11.11,0,0,0,.1-.1H82a.1.1,0,0,0,.1.1v3.8a.09.09,0,0,0-.1.1h-3.8a.1.1,0,0,0-.1-.1ZM74.18,46H78a.1.1,0,0,0,.1.1v3.8a.09.09,0,0,0-.1.1h-3.8a.1.1,0,0,0-.1-.1v-3.8A.11.11,0,0,0,74.18,46Zm-4-4H74a.1.1,0,0,0,.1.1v3.8a.09.09,0,0,0-.1.1h-3.8a.1.1,0,0,0-.1-.1v-3.8A.11.11,0,0,0,70.18,42Zm-4.1-3.9a.11.11,0,0,0,.1-.1H70a.1.1,0,0,0,.1.1v3.8a.09.09,0,0,0-.1.1h-3.8a.1.1,0,0,0-.1-.1ZM62.18,42H66a.1.1,0,0,0,.1.1v3.8a.09.09,0,0,0-.1.1h-3.8a.1.1,0,0,0-.1-.1v-3.8A.11.11,0,0,0,62.18,42Zm-4.1-3.9a.11.11,0,0,0,.1-.1H62a.1.1,0,0,0,.1.1v3.8a.09.09,0,0,0-.1.1h-3.8a.1.1,0,0,0-.1-.1Zm-4,4a.11.11,0,0,0,.1-.1H58a.1.1,0,0,0,.1.1v3.8a.09.09,0,0,0-.1.1h-3.8a.1.1,0,0,0-.1-.1ZM50.18,46H54a.1.1,0,0,0,.1.1v3.8a.09.09,0,0,0-.1.1h-3.8a.1.1,0,0,0-.1-.1v-3.8A.11.11,0,0,0,50.18,46Zm-4.1-3.9a.11.11,0,0,0,.1-.1H50a.1.1,0,0,0,.1.1v3.8a.09.09,0,0,0-.1.1h-3.8a.1.1,0,0,0-.1-.1Zm-4,4a.11.11,0,0,0,.1-.1H46a.1.1,0,0,0,.1.1v3.8a.09.09,0,0,0-.1.1h-3.8a.1.1,0,0,0-.1-.1Zm-4,4a.11.11,0,0,0,.1-.1H42a.1.1,0,0,0,.1.1v3.8a.09.09,0,0,0-.1.1h-3.8a.1.1,0,0,0-.1-.1Zm-4,4a.11.11,0,0,0,.1-.1H38a.1.1,0,0,0,.1.1v3.8a.09.09,0,0,0-.1.1h-3.8a.1.1,0,0,0-.1-.1Zm0,8a.11.11,0,0,0,.1-.1H38a.1.1,0,0,0,.1.1v3.8a.09.09,0,0,0-.1.1h-3.8a.1.1,0,0,0-.1-.1ZM38,74h-3.8a.1.1,0,0,0-.1-.1v-3.8a.11.11,0,0,0,.1-.1H38a.1.1,0,0,0,.1.1v3.8A.09.09,0,0,0,38,74Zm4,4h-3.8a.1.1,0,0,0-.1-.1v-3.8a.11.11,0,0,0,.1-.1H42a.1.1,0,0,0,.1.1v3.8A.09.09,0,0,0,42,78Zm.1,8.1a.11.11,0,0,0,.1-.1H46a.1.1,0,0,0,.1.1v3.8a.09.09,0,0,0-.1.1h-3.8a.1.1,0,0,0-.1-.1Zm4,11.8a.09.09,0,0,0-.1.1h-3.8a.1.1,0,0,0-.1-.1v-3.8a.11.11,0,0,0,.1-.1H46a.1.1,0,0,0,.1.1ZM50,94h-3.8a.1.1,0,0,0-.1-.1v-3.8a.11.11,0,0,0,.1-.1H50a.1.1,0,0,0,.1.1v3.8A.09.09,0,0,0,50,94Zm4.1,3.9a.09.09,0,0,0-.1.1h-3.8a.1.1,0,0,0-.1-.1v-3.8a.11.11,0,0,0,.1-.1H54a.1.1,0,0,0,.1.1ZM58,94h-3.8a.1.1,0,0,0-.1-.1v-3.8a.11.11,0,0,0,.1-.1H58a.1.1,0,0,0,.1.1v3.8A.09.09,0,0,0,58,94Zm4.1,3.9a.09.09,0,0,0-.1.1h-3.8a.1.1,0,0,0-.1-.1v-3.8a.11.11,0,0,0,.1-.1H62a.1.1,0,0,0,.1.1ZM66,94h-3.8a.1.1,0,0,0-.1-.1v-3.8a.11.11,0,0,0,.1-.1H66a.1.1,0,0,0,.1.1v3.8A.09.09,0,0,0,66,94Zm4.1,3.9a.09.09,0,0,0-.1.1h-3.8a.1.1,0,0,0-.1-.1v-3.8a.11.11,0,0,0,.1-.1H70a.1.1,0,0,0,.1.1ZM74,94h-3.8a.1.1,0,0,0-.1-.1v-3.8a.11.11,0,0,0,.1-.1H74a.1.1,0,0,0,.1.1v3.8A.09.09,0,0,0,74,94Zm4.1,3.9a.09.09,0,0,0-.1.1h-3.8a.1.1,0,0,0-.1-.1v-3.8a.11.11,0,0,0,.1-.1H78a.1.1,0,0,0,.1.1ZM82,94h-3.8a.1.1,0,0,0-.1-.1v-3.8a.11.11,0,0,0,.1-.1H82a.1.1,0,0,0,.1.1v3.8A.09.09,0,0,0,82,94Zm4,4h-3.8a.1.1,0,0,0-.1-.1v-3.8a.11.11,0,0,0,.1-.1H86a.1.1,0,0,0,.1.1v3.8A.09.09,0,0,0,86,98Z"/><path class="cls-3" d="M116,98.18c-1-4.82-4.23-7.8-9-9L78,84V74H50V84L21,89.18c-4.77,1.2-8,4.18-9,9l-1,5c.27.17,22.46,11,53.07,11,30.18,0,52.64-10.77,52.93-11Z"/><polygon class="cls-4" points="50 80.03 70 92.03 78 92.03 78 74.03 50 74.03 50 80.03"/><path class="cls-5" d="M116,98.18c-1-4.82-4.23-7.8-9-9L78,84a19.4,19.4,0,0,1-28,0L21,89.18c-4.77,1.2-8,4.18-9,9l-1,5c.27.17,22.46,11,53.07,11,30.18,0,52.64-10.77,52.93-11Z"/><path class="cls-6" d="M116,98.18c-1-4.82-4.23-7.8-9-9L78,84a8.65,8.65,0,0,0,7,8.49l22,4.18a11.27,11.27,0,0,1,8.5,7.2l1.5-.72Z"/><path class="cls-7" d="M21,89.18c-4.77,1.2-8,4.18-9,9l-1,5,1.51.71A11.1,11.1,0,0,1,21,96.7l22-4.22A8.61,8.61,0,0,0,50,84Z"/><path class="cls-8" d="M50,84c-7.3,1.69-26,4.41-29,5.15-4.77,1.2-8,4.18-9,9l-1,5c.27.17,22.46,11,53.07,11,30.18,0,52.64-10.77,52.93-11l-1-5c-1-4.82-4.23-7.8-9-9-2.67-.66-21.42-3.47-29-5.15"/><line class="cls-9" x1="50" y1="76.03" x2="50" y2="84.03"/><line class="cls-9" x1="78" y1="76.03" x2="78" y2="84.03"/><path class="cls-3" d="M86,44.51v-5C86,26.8,79.44,18,64,18S42,26.8,42,39.51v5c-3.83.1-4.58,3.73-3.67,8C39.1,56.05,41,61,44,61v5c0,4.59,6.35,11.51,13,15,1.79,1,5,1,7,1s4.71-.09,6.5-1C77.13,77.52,84,70.6,84,66V61c3,0,5.22-5,6-8.49C90.9,48.24,89.85,44.61,86,44.51Z"/><path class="cls-4" d="M86,44.51v-5C86,26.8,79.44,18,64,18c-.91,0-1.78,0-2.62.1C58.27,29.49,54.05,45.3,54,60.81c0,4,.24,12.11.7,18.84.76.49,1.53.95,2.3,1.35,1.79,1,5,1,7,1s4.71-.09,6.5-1C77.13,77.52,84,70.6,84,66V61c3,0,5.22-5,6-8.49C90.9,48.24,89.85,44.61,86,44.51Z"/><path class="cls-9" d="M86,44.51v-5C86,26.8,79.44,18,64,18S42,26.8,42,39.51v5c-3.83.1-4.94,3.26-4,7.53.75,3.54,3,9,6,9v5c0,4.59,6.35,11.51,13,15,1.79,1,5,1,7,1s4.71-.09,6.5-1C77.13,77.52,84,70.6,84,66V61c3,0,5.3-5.43,6-9C91,47.77,89.85,44.61,86,44.51Z"/><path class="cls-9" d="M78,84a19.4,19.4,0,0,1-28,0"/><path class="cls-10" d="M82,56c0,9.43-7.73,12.48-10,14v1a2,2,0,0,1-2,2H68.83a2,2,0,0,1-1.42-.59l-.82-.83A2,2,0,0,0,65.17,71H62.83a2,2,0,0,0-1.42.58l-.82.83a2,2,0,0,1-1.42.59H58a2,2,0,0,1-2-2V70c-2-1.33-10-4.45-10-14H44V68.8C46.66,74,56.55,82,62.3,82h3.4C71.45,82,81.34,74,84,68.8V56Z"/><line class="cls-11" x1="64" y1="96" x2="64" y2="97"/><line class="cls-11" x1="64" y1="104" x2="64" y2="105"/><line class="cls-11" x1="64" y1="112.03" x2="64" y2="113.03"/><path class="cls-10" d="M80,20c-1.71-3.86-4-6-16-6C46,14,38,25.9,38,36s6,10,6,14h2V44c15.94-.34,17.3-12,26-12a11.05,11.05,0,0,1,6,2v4.34a4,4,0,0,0,1.17,2.83L82,44v6h2c0-4,6-4,6-14S83.93,20,80,20Z"/><path class="cls-12" d="M93,47.94a75.22,75.22,0,0,1-3.4-13.88c-2-12.64-11.1-19.76-25.56-19.76S40.56,21.42,38.52,34.06a75.24,75.24,0,0,1-3.41,13.88L31.56,56.7a17.74,17.74,0,0,1,2.52-4L44.66,40a4.72,4.72,0,0,1,3.63-1.7h3.26a4.72,4.72,0,0,0,3.93-2.11l1.19-1.78a4.74,4.74,0,0,1,3.94-2.11h6.94a4.72,4.72,0,0,1,3.93,2.11l1.19,1.78a4.74,4.74,0,0,0,3.94,2.11h3.25A4.73,4.73,0,0,1,83.5,40l10.58,12.7a17.7,17.7,0,0,1,2.51,4Z"/><path class="cls-13" d="M86.18,38a.1.1,0,0,0-.1-.1v-3.8a.11.11,0,0,0,.1-.1h3.45a28.19,28.19,0,0,0-.95-4h-2.6v3.9a.09.09,0,0,0-.1.1h-3.8a.1.1,0,0,0-.1-.1v-3.8a.11.11,0,0,0,.1-.1h3.9V26h-3.9a.1.1,0,0,0-.1-.1V22h-3.9a.1.1,0,0,0-.1-.1V18h-3.9a.1.1,0,0,0-.1-.1V15.68a30,30,0,0,0-4-.9v3.15a.09.09,0,0,0-.1.1h-3.8a.1.1,0,0,0-.1-.1V14.37c-.66,0-1.32-.07-2-.07s-1.34,0-2,.07v3.56a.09.09,0,0,0-.1.1h-3.8a.1.1,0,0,0-.1-.1V14.78a30,30,0,0,0-4,.9v2.25a.09.09,0,0,0-.1.1h-3.9v3.9a.09.09,0,0,0-.1.1h-3.9v3.9a.09.09,0,0,0-.1.1h-3.9v3.9a.09.09,0,0,0-.1.1h-2.5a28.19,28.19,0,0,0-1,4H42a.1.1,0,0,0,.1.1v3.8a.09.09,0,0,0-.1.1h-3.9v4h4v-3.9a.11.11,0,0,0,.1-.1h3.9v-3.9a.11.11,0,0,0,.1-.1H50a.1.1,0,0,0,.1.1V38h4v-3.9a.11.11,0,0,0,.1-.1H57a4.41,4.41,0,0,1,1-.93v-3a.11.11,0,0,0,.1-.1h3.9v-3.9a.11.11,0,0,0,.1-.1H66a.1.1,0,0,0,.1.1V30H70a.1.1,0,0,0,.1.1v3a4.62,4.62,0,0,1,1,.93H74a.1.1,0,0,0,.1.1V38h4v-3.9a.11.11,0,0,0,.1-.1H82a.1.1,0,0,0,.1.1V38H86a.1.1,0,0,0,.1.1V42h4V38Zm-12-16H78a.1.1,0,0,0,.1.1v3.8a.09.09,0,0,0-.1.1h-3.8a.1.1,0,0,0-.1-.1v-3.8A.11.11,0,0,0,74.18,22Zm-4.1-3.9a.11.11,0,0,0,.1-.1H74a.1.1,0,0,0,.1.1v3.8a.09.09,0,0,0-.1.1h-3.8a.1.1,0,0,0-.1-.1Zm-16,0a.11.11,0,0,0,.1-.1H58a.1.1,0,0,0,.1.1v3.8a.09.09,0,0,0-.1.1h-3.8a.1.1,0,0,0-.1-.1Zm-4,4a.11.11,0,0,0,.1-.1H54a.1.1,0,0,0,.1.1v3.8a.09.09,0,0,0-.1.1h-3.8a.1.1,0,0,0-.1-.1Zm-4,11.8a.09.09,0,0,0-.1.1h-3.8a.1.1,0,0,0-.1-.1v-3.8a.11.11,0,0,0,.1-.1H46a.1.1,0,0,0,.1.1Zm.1-3.9a.1.1,0,0,0-.1-.1v-3.8a.11.11,0,0,0,.1-.1H50a.1.1,0,0,0,.1.1v3.8a.09.09,0,0,0-.1.1ZM54,34h-3.8a.1.1,0,0,0-.1-.1v-3.8a.11.11,0,0,0,.1-.1H54a.1.1,0,0,0,.1.1v3.8A.09.09,0,0,0,54,34Zm4.1-4.1a.09.09,0,0,0-.1.1h-3.8a.1.1,0,0,0-.1-.1v-3.8a.11.11,0,0,0,.1-.1H58a.1.1,0,0,0,.1.1Zm4-4a.09.09,0,0,0-.1.1h-3.8a.1.1,0,0,0-.1-.1v-3.8a.11.11,0,0,0,.1-.1H62a.1.1,0,0,0,.1.1ZM66,22h-3.8a.1.1,0,0,0-.1-.1v-3.8a.11.11,0,0,0,.1-.1H66a.1.1,0,0,0,.1.1v3.8A.09.09,0,0,0,66,22Zm4,4h-3.8a.1.1,0,0,0-.1-.1v-3.8a.11.11,0,0,0,.1-.1H70a.1.1,0,0,0,.1.1v3.8A.09.09,0,0,0,70,26Zm4,4h-3.8a.1.1,0,0,0-.1-.1v-3.8a.11.11,0,0,0,.1-.1H74a.1.1,0,0,0,.1.1v3.8A.09.09,0,0,0,74,30Zm4.1,3.9a.09.09,0,0,0-.1.1h-3.8a.1.1,0,0,0-.1-.1v-3.8a.11.11,0,0,0,.1-.1H78a.1.1,0,0,0,.1.1ZM82,30h-3.8a.1.1,0,0,0-.1-.1v-3.8a.11.11,0,0,0,.1-.1H82a.1.1,0,0,0,.1.1v3.8A.09.09,0,0,0,82,30Z"/><path class="cls-14" d="M96.52,56.39,93,47.63a75.83,75.83,0,0,1-3.4-13.88C87.52,21.12,78.46,14,64,14S40.48,21.12,38.44,33.75A75.83,75.83,0,0,1,35,47.63l-3.56,8.76"/><line class="cls-15" x1="40" y1="22.03" x2="88" y2="22.03"/><line class="cls-15" x1="38" y1="26.03" x2="90" y2="26.03"/><path class="cls-14" d="M90,86.9a17.58,17.58,0,0,1,2.51-9.05l3.06-5.11A17.59,17.59,0,0,0,94,52.43L83.42,39.73A4.73,4.73,0,0,0,79.78,38H76.53a4.71,4.71,0,0,1-3.93-2.11l-1.2-1.79A4.72,4.72,0,0,0,67.47,32H60.53a4.72,4.72,0,0,0-3.93,2.1l-1.2,1.79A4.71,4.71,0,0,1,51.47,38H48.22a4.73,4.73,0,0,0-3.64,1.7L34,52.43a17.59,17.59,0,0,0-1.57,20.31l3.06,5.11A17.58,17.58,0,0,1,38,86.9"/><circle class="cls-10" cx="54.55" cy="51.42" r="2" transform="translate(-10.36 13.91) rotate(-13.28)"/><circle class="cls-10" cx="73.55" cy="51.42" r="2" transform="translate(-9.85 18.28) rotate(-13.28)"/><path class="cls-9" d="M54,74.53v-7.2a4,4,0,0,1,3-3.87,30.1,30.1,0,0,1,7-1.14,29.93,29.93,0,0,1,7,1.14,4,4,0,0,1,3,3.87v7.2"/><line class="cls-16" x1="60.24" y1="67.63" x2="68.24" y2="67.63"/><path class="cls-16" d="M60.24,60l2.2.6a5.55,5.55,0,0,0,3.6,0l2.2-.6"/></svg>