<svg xmlns="http://www.w3.org/2000/svg" viewBox="0 0 128 128"><defs><style>.cls-1{isolation:isolate;}.cls-14,.cls-15,.cls-2{fill:#333;}.cls-12,.cls-13,.cls-15,.cls-2{stroke:#333;}.cls-13,.cls-2,.cls-7{stroke-miterlimit:10;}.cls-12,.cls-2,.cls-7,.cls-9{stroke-width:4px;}.cls-3{fill:#e4b397;}.cls-4{fill:#39a284;}.cls-5{fill:#2e8d70;}.cls-6{fill:#49b996;}.cls-12,.cls-13,.cls-7,.cls-9{fill:none;}.cls-7,.cls-9{stroke:#343433;}.cls-8{fill:#545d64;opacity:0.3;mix-blend-mode:multiply;}.cls-13,.cls-15,.cls-9{stroke-linecap:round;}.cls-12,.cls-15,.cls-9{stroke-linejoin:round;}.cls-10{fill:#e1ab90;}.cls-11{fill:#d6a28b;}.cls-13,.cls-15{stroke-width:2px;}.cls-16{fill:#444;}</style></defs><title>muslim-woman</title><g class="cls-1"><g id="Layer_1" data-name="Layer 1"><path class="cls-2" d="M90,71V49.16c0-15.57-2-34-26-34s-26,18.43-26,34V85s10,6.29,26,6.29a84.27,84.27,0,0,0,30-6.13C95.25,78.44,90,71,90,71Z"/><path class="cls-3" d="M112.83,95.9a8,8,0,0,0-5.69-6.38L76,81V71H52V81L20.86,89.52a8,8,0,0,0-5.69,6.38l-1.17,7c15.28,6.74,32.23,10,50,10s34.73-3.27,50-10Z"/><path class="cls-4" d="M64,112.91c17.76,0,34.73-3.27,50-10l-1.17-7a8,8,0,0,0-5.69-6.38L79.25,81.89c-2,2.21-7.71,7.79-15.25,7.79S50.73,84.1,48.75,81.89L20.86,89.52a8,8,0,0,0-5.69,6.38l-1.17,7C29.28,109.65,46.23,112.91,64,112.91Z"/><path class="cls-5" d="M59.37,89.06l1.82,1.87A10.57,10.57,0,0,1,64,98v14.89c17.76,0,34.73-3.27,50-10l-1-6.21c-8.1-1.85-26.88-6.14-29-6.6a7.35,7.35,0,0,1-5.84-7c-.58.57-1.29,1.22-2.11,1.88a17.57,17.57,0,0,1-10.59,4.65,13.18,13.18,0,0,1-1.41.07,14.16,14.16,0,0,1-1.86-.13A16.63,16.63,0,0,1,59.37,89.06Z"/><path class="cls-6" d="M48.75,81.89,20.86,89.52a8,8,0,0,0-5.56,5.84C21.87,93.54,43.69,87.5,46,87a10.78,10.78,0,0,0,4.85-3A27.49,27.49,0,0,1,48.75,81.89Z"/><line class="cls-7" x1="76" y1="85" x2="76" y2="71"/><line class="cls-7" x1="52" y1="85" x2="52" y2="71"/><path class="cls-8" d="M80,98.66h0Z"/><path class="cls-9" d="M76,81l31.14,8.52a8,8,0,0,1,5.69,6.38l1.17,7c-15.27,6.73-32.24,10-50,10s-34.72-3.26-50-10l1.17-7a8,8,0,0,1,5.69-6.38L52,81"/><path class="cls-3" d="M64,18c16.08,0,21,9.18,21,20,0,.64.06,3.37,0,4,3.46,0,4.56,3.42,4,8-.48,3.9-2,8-6,8v3c0,6-4.84,8.59-10.42,14.39C68.9,79.19,66.43,79,64,79s-5,.22-8.7-3.61C49.72,69.56,45,67,45,61V58c-4,0-5.52-4.1-6-8-.56-4.58.54-8,4-8-.06-.63,0-3.36,0-4C43,27.15,47.92,18,64,18Z"/><path class="cls-3" d="M64,18.64c16.08,0,21,9.18,21,20,0,.64.06,3.37,0,4,3.46,0,4.56,3.41,4,8-.48,3.9-2,8-6,8v3c0,6-4.84,8.58-10.42,14.39-3.68,3.82-6.15,3.61-8.58,3.61s-5,.21-8.7-3.61C49.72,70.22,45,67.64,45,61.64v-3c-4,0-5.52-4.1-6-8-.56-4.59.54-8,4-8-.06-.63,0-3.36,0-4C43,27.82,47.92,18.64,64,18.64Z"/><path class="cls-10" d="M84.43,42c.06-.63,0-3.36,0-4,0-10.82-4.92-20-21-20s-21,9.18-21,20c0,.64-.06,3.37,0,4a3.54,3.54,0,0,0-2.71,1.12c-.23,2.75-.29,5.53-.29,8.22v2.76c.91,2.22,2.44,3.9,5,3.9v3a9.42,9.42,0,0,0,1,4.34h2V49.93c.18-9.41,3.65-10.89,14.08-15a10.67,10.67,0,0,1,7.84,0c10.82,4.21,14.29,5.66,14.07,15.25,0-.47,0-.9.06-1.31v9c3.2-.67,4.51-4.33,4.94-7.86C89,45.39,87.89,42,84.43,42Z"/><path class="cls-10" d="M85,42V38c0-10.83-4.92-20-21-20-.63,0-1.21,0-1.8.07l-1.27,4.62c-3.25,7.8-6.51,19.52-6.51,35.16,0,2.63.23,10.33.48,17.21l.46.45C59,79.31,61.57,79,64,79s5,.34,8.64-3.49C78.22,69.68,83,67,83,61V58c4,0,5.52-4.11,6-8C89.56,45.39,88.46,42,85,42Z"/><path class="cls-11" d="M84.43,42c.06-.63,0-3.36,0-4,0-10.75-4.87-19.88-20.72-20-.51,0-1,0-1.51.06l-1.27,4.62a81.83,81.83,0,0,0-4.39,14.27c1.45-.64,3.1-1.3,5-2a10.72,10.72,0,0,1,7.84,0c10.82,4.22,14.3,5.67,14.07,15.26,0-.47,0-.9.06-1.31v9c3.2-.67,4.51-4.33,4.94-7.86C89,45.39,87.89,42,84.43,42Z"/><path class="cls-12" d="M64,18c16.08,0,21,9.18,21,20,0,.64.06,3.37,0,4,3.46,0,4.56,3.42,4,8-.48,3.9-2,8-6,8v3c0,6-4.84,8.59-10.42,14.39C68.9,79.19,66.43,79,64,79s-5,.22-8.7-3.61C49.72,69.56,45,67,45,61V58c-4,0-5.52-4.1-6-8-.56-4.58.54-8,4-8-.06-.63,0-3.36,0-4C43,27.15,47.92,18,64,18Z"/><path class="cls-13" d="M60,67a15,15,0,0,0,8,0"/><line class="cls-13" x1="62" y1="71" x2="66" y2="71"/><path class="cls-13" d="M60.2,61.12l2.2.6a5.55,5.55,0,0,0,3.6,0l2.2-.6"/><circle class="cls-14" cx="54.55" cy="50.47" r="2" transform="translate(-10.14 13.88) rotate(-13.28)"/><circle class="cls-14" cx="73.45" cy="50.47" r="2" transform="translate(7.45 110.36) rotate(-76.72)"/><path class="cls-14" d="M66.08,100.1a1.89,1.89,0,1,1-1.88-1.89A1.89,1.89,0,0,1,66.08,100.1Z"/><path class="cls-14" d="M66.08,107.1a1.89,1.89,0,1,1-1.88-1.89A1.89,1.89,0,0,1,66.08,107.1Z"/><path class="cls-15" d="M64,15C40,15,38,33.43,38,49V63h8V47.63c.18-9.41,3.65-10.9,14.08-15.06a10.72,10.72,0,0,1,7.84,0C78.75,36.75,82.22,38.2,82,47.79c0-.47,0-.9.06-1.31V63H90V49C90,33.43,88,15,64,15Z"/><path class="cls-2" d="M90,71s-14,8-26,8-26-8-26-8-4,4-4,14c0,0,14,10,30,10S94,85,94,85C94,75,90,71,90,71Z"/><path class="cls-16" d="M40,85c3.92.94,7.76,1.93,11.61,2.78,1.93.39,3.84.83,5.77,1.09a38.56,38.56,0,0,0,5.72.6,32,32,0,0,0,5.68-.31c1.91-.23,3.82-.63,5.73-1,3.82-.87,7.63-2,11.49-3.12a45.1,45.1,0,0,1-10.84,5.37A41.12,41.12,0,0,1,69.23,92a27,27,0,0,1-6.23.5A43,43,0,0,1,51,90,54.86,54.86,0,0,1,40,85Z"/><path class="cls-16" d="M38,56.06a96.11,96.11,0,0,0,3.77,9.88,47.84,47.84,0,0,0,5.15,8.85,26.42,26.42,0,0,0,7.34,6.76A28.33,28.33,0,0,0,64,85a18.75,18.75,0,0,1-10.81-1.37,22.07,22.07,0,0,1-8.66-7,31.79,31.79,0,0,1-4.94-9.83A32.85,32.85,0,0,1,38,56.06Z"/></g></g></svg>