<svg xmlns="http://www.w3.org/2000/svg" viewBox="0 0 128 128"><defs><style>.cls-1{isolation:isolate;}.cls-2{fill:#333;}.cls-3{fill:#dcb091;}.cls-4{fill:#cba082;}.cls-5{fill:#c09577;}.cls-6{fill:#d5e7e5;}.cls-7{fill:#738380;}.cls-8{fill:#809490;}.cls-13,.cls-9{fill:#ae4355;}.cls-10{fill:#c3576f;}.cls-11,.cls-12,.cls-14,.cls-17,.cls-22,.cls-23{fill:none;}.cls-11,.cls-12,.cls-14,.cls-17,.cls-23{stroke:#333;}.cls-11,.cls-12,.cls-14,.cls-17,.cls-22{stroke-linejoin:round;}.cls-11,.cls-17,.cls-22{stroke-width:3px;}.cls-12,.cls-17,.cls-22,.cls-23{stroke-linecap:round;}.cls-12,.cls-14{stroke-width:4px;}.cls-13{opacity:0.7;mix-blend-mode:multiply;}.cls-15{fill:#993637;}.cls-16{fill:#eee5bc;}.cls-18{fill:#6a807c;}.cls-19{fill:#b9cdca;}.cls-20{fill:#5e463a;}.cls-21{fill:#735343;}.cls-22{stroke:#913124;}.cls-23{stroke-miterlimit:10;stroke-width:2px;}</style></defs><title>native-man</title><g class="cls-1"><g id="Layer_1" data-name="Layer 1"><path class="cls-2" d="M73,16A26,26,0,0,0,37.91,40.36v68h52v-68A26,26,0,0,0,73,16Z"/><path class="cls-3" d="M120.39,110.94a14.58,14.58,0,0,0-10.11-11.41L79.91,92.34v-18h-32v18L17.7,99.53A14.58,14.58,0,0,0,7.59,110.94L7,114.57a140.89,140.89,0,0,0,57,12.11H64a140.89,140.89,0,0,0,57-12.11Z"/><path class="cls-4" d="M110.28,105.58l-30.2-8.9h-32l-30.38,8.9A14.6,14.6,0,0,0,8.08,115,140.92,140.92,0,0,0,64,126.68H64A140.84,140.84,0,0,0,119.89,115,14.56,14.56,0,0,0,110.28,105.58Z"/><path class="cls-5" d="M107.87,104.87c-6.31-1.62-28-8.53-28-8.53v-22h-32v8l39.35,42.33A140.49,140.49,0,0,0,119.89,115C118.87,109.74,113.09,106.22,107.87,104.87Z"/><path class="cls-6" d="M44,18.85a20,20,0,0,0,10.3,10.91A20,20,0,0,0,44.19,3.85,20,20,0,0,0,44,18.85Z"/><path class="cls-7" d="M44,18.85a20,20,0,0,0,10.3,10.91A20,20,0,0,0,44.19,3.85,20,20,0,0,0,44,18.85Z"/><path class="cls-8" d="M54.49,14.76A20,20,0,0,0,44.19,3.85L54.32,29.76A20,20,0,0,0,54.49,14.76Z"/><path class="cls-9" d="M42.81,14l6.44,2.82,2.82-6.44a19.63,19.63,0,0,0-3.61-3.83l-1.71,3.88-3.88-1.7A19.77,19.77,0,0,0,42.81,14Z"/><path class="cls-10" d="M49.25,16.8l2.82-6.44a19.63,19.63,0,0,0-3.61-3.83l-1.71,3.88Z"/><path class="cls-11" d="M44,18.85a20,20,0,0,0,10.3,10.91A20,20,0,0,0,44.19,3.85,20,20,0,0,0,44,18.85Z"/><path class="cls-6" d="M36.56,30.53A20,20,0,0,0,51,34.62,20,20,0,0,0,29,17.56,20,20,0,0,0,36.56,30.53Z"/><path class="cls-7" d="M36.56,30.53A20,20,0,0,0,51,34.62,20,20,0,0,0,29,17.56,20,20,0,0,0,36.56,30.53Z"/><path class="cls-8" d="M43.45,21.65A20,20,0,0,0,29,17.56L51,34.62A20,20,0,0,0,43.45,21.65Z"/><path class="cls-9" d="M33,27l7-.88-.88-7a19.91,19.91,0,0,0-5.07-1.44l.53,4.21-4.21.53A19.55,19.55,0,0,0,33,27Z"/><path class="cls-10" d="M40,26.09l-.88-7a19.91,19.91,0,0,0-5.07-1.44l.53,4.21Z"/><path class="cls-11" d="M36.56,30.53A20,20,0,0,0,51,34.62,20,20,0,0,0,29,17.56,20,20,0,0,0,36.56,30.53Z"/><path class="cls-6" d="M34.08,42.71A20,20,0,0,0,48.83,40a20,20,0,0,0-27.28-5.49A20,20,0,0,0,34.08,42.71Z"/><path class="cls-7" d="M34.08,42.71A20,20,0,0,0,48.83,40a20,20,0,0,0-27.28-5.49A20,20,0,0,0,34.08,42.71Z"/><path class="cls-8" d="M36.3,31.69a20,20,0,0,0-14.75,2.77L48.83,40A20,20,0,0,0,36.3,31.69Z"/><path class="cls-9" d="M29.33,41.09l5.86-3.89-3.9-5.85a20,20,0,0,0-5.18,1l2.35,3.54L24.92,38.2A19.87,19.87,0,0,0,29.33,41.09Z"/><path class="cls-10" d="M35.19,37.2l-3.9-5.85a20,20,0,0,0-5.18,1l2.35,3.54Z"/><path class="cls-11" d="M34.08,42.71A20,20,0,0,0,48.83,40a20,20,0,0,0-27.28-5.49A20,20,0,0,0,34.08,42.71Z"/><path class="cls-6" d="M35.26,55.07a20,20,0,0,0,13.84-5.8,20.05,20.05,0,0,0-27.83.35A20,20,0,0,0,35.26,55.07Z"/><path class="cls-7" d="M35.26,55.07a20,20,0,0,0,13.84-5.8,20.05,20.05,0,0,0-27.83.35A20,20,0,0,0,35.26,55.07Z"/><path class="cls-8" d="M35.11,43.83a20.06,20.06,0,0,0-13.84,5.79l27.83-.35A20,20,0,0,0,35.11,43.83Z"/><path class="cls-9" d="M30.27,54.48l4.92-5-5-4.91a19.89,19.89,0,0,0-4.86,2l3,3-3,3A19.64,19.64,0,0,0,30.27,54.48Z"/><path class="cls-10" d="M35.19,49.45l-5-4.91a19.89,19.89,0,0,0-4.86,2l3,3Z"/><path class="cls-11" d="M35.26,55.07a20,20,0,0,0,13.84-5.8,20.05,20.05,0,0,0-27.83.35A20,20,0,0,0,35.26,55.07Z"/><path class="cls-6" d="M84,18.85A20,20,0,0,1,73.66,29.76,20,20,0,0,1,83.8,3.85,20,20,0,0,1,84,18.85Z"/><path class="cls-7" d="M84,18.85A20,20,0,0,1,73.66,29.76,20,20,0,0,1,83.8,3.85,20,20,0,0,1,84,18.85Z"/><path class="cls-8" d="M73.5,14.76A20,20,0,0,1,83.8,3.85L73.66,29.76A20,20,0,0,1,73.5,14.76Z"/><path class="cls-9" d="M85.17,14,78.73,16.8l-2.82-6.44a19.68,19.68,0,0,1,3.62-3.83l1.7,3.88,3.89-1.7A19.77,19.77,0,0,1,85.17,14Z"/><path class="cls-10" d="M78.73,16.8l-2.82-6.44a19.68,19.68,0,0,1,3.62-3.83l1.7,3.88Z"/><path class="cls-11" d="M84,18.85A20,20,0,0,1,73.66,29.76,20,20,0,0,1,83.8,3.85,20,20,0,0,1,84,18.85Z"/><path class="cls-6" d="M91.43,30.53A20,20,0,0,1,77,34.62,20,20,0,0,1,99,17.56,20,20,0,0,1,91.43,30.53Z"/><path class="cls-7" d="M91.43,30.53A20,20,0,0,1,77,34.62,20,20,0,0,1,99,17.56,20,20,0,0,1,91.43,30.53Z"/><path class="cls-8" d="M84.54,21.65A20,20,0,0,1,99,17.56L77,34.62A20,20,0,0,1,84.54,21.65Z"/><path class="cls-9" d="M95,27l-7-.88.89-7a19.8,19.8,0,0,1,5.07-1.44l-.53,4.21,4.21.53A19.55,19.55,0,0,1,95,27Z"/><path class="cls-10" d="M88,26.09l.89-7a19.8,19.8,0,0,1,5.07-1.44l-.53,4.21Z"/><path class="cls-11" d="M91.43,30.53A20,20,0,0,1,77,34.62,20,20,0,0,1,99,17.56,20,20,0,0,1,91.43,30.53Z"/><path class="cls-6" d="M93.91,42.71A20,20,0,0,1,79.16,40a20,20,0,0,1,27.28-5.49A20,20,0,0,1,93.91,42.71Z"/><path class="cls-7" d="M93.91,42.71A20,20,0,0,1,79.16,40a20,20,0,0,1,27.28-5.49A20,20,0,0,1,93.91,42.71Z"/><path class="cls-8" d="M91.69,31.69a20,20,0,0,1,14.75,2.77L79.16,40A20,20,0,0,1,91.69,31.69Z"/><path class="cls-9" d="M98.66,41.09,92.8,37.2l3.89-5.85a20,20,0,0,1,5.19,1l-2.35,3.54,3.53,2.35A19.81,19.81,0,0,1,98.66,41.09Z"/><path class="cls-10" d="M92.8,37.2l3.89-5.85a20,20,0,0,1,5.19,1l-2.35,3.54Z"/><path class="cls-11" d="M93.91,42.71A20,20,0,0,1,79.16,40a20,20,0,0,1,27.28-5.49A20,20,0,0,1,93.91,42.71Z"/><path class="cls-6" d="M92.73,55.07a20,20,0,0,1-13.84-5.8,20,20,0,0,1,27.82.35A20,20,0,0,1,92.73,55.07Z"/><path class="cls-7" d="M92.73,55.07a20,20,0,0,1-13.84-5.8,20,20,0,0,1,27.82.35A20,20,0,0,1,92.73,55.07Z"/><path class="cls-8" d="M92.87,43.83a20,20,0,0,1,13.84,5.79l-27.82-.35A20,20,0,0,1,92.87,43.83Z"/><path class="cls-9" d="M97.71,54.48l-4.91-5,5-4.91a20.05,20.05,0,0,1,4.86,2l-3,3,3,3A19.56,19.56,0,0,1,97.71,54.48Z"/><path class="cls-10" d="M92.8,49.45l5-4.91a20.05,20.05,0,0,1,4.86,2l-3,3Z"/><path class="cls-11" d="M92.73,55.07a20,20,0,0,1-13.84-5.8,20,20,0,0,1,27.82.35A20,20,0,0,1,92.73,55.07Z"/><path class="cls-3" d="M85.91,50.23v-6c0-9.92-6.12-20-22-20s-22,10-22,20v6c-4.06,0-4.92,3.64-4,8a11.09,11.09,0,0,0,6,8v4c0,4,5.5,11.9,11.28,16.25a8.7,8.7,0,0,0,5.25,1.75h7a8.77,8.77,0,0,0,5.24-1.74c5.8-4.33,11.28-12.25,11.28-16.26v-4a11,11,0,0,0,6-8C90.85,53.87,89.91,50.23,85.91,50.23Z"/><path class="cls-12" d="M85.91,50.23v-6c0-9.92-6.12-20-22-20s-22,10-22,20v6c-4.06,0-4.92,3.64-4,8a11.09,11.09,0,0,0,6,8v4c0,4,5.5,11.9,11.28,16.25a8.7,8.7,0,0,0,5.25,1.75h7a8.77,8.77,0,0,0,5.24-1.74c5.8-4.33,11.28-12.25,11.28-16.26v-4a11,11,0,0,0,6-8C90.85,53.87,89.91,50.23,85.91,50.23Z"/><path class="cls-4" d="M85.91,50.23v-6c0-9.92-6.12-20-22-20a33.22,33.22,0,0,0-5.06.39c-3.75,14.84-7.21,21.65-6.93,40.25,0,4.21.6,12.91,1.24,19.93.66.6,1.34,1.16,2,1.68a8.7,8.7,0,0,0,5.25,1.75h7a8.77,8.77,0,0,0,5.24-1.74c5.8-4.33,11.28-12.25,11.28-16.26v-4a11,11,0,0,0,6-8C90.85,53.87,89.91,50.23,85.91,50.23Z"/><path class="cls-13" d="M63.91,24.23c-15.88,0-22,10-22,20v9.11L62.19,63.48a4.06,4.06,0,0,0,3.61,0l20.11-9.75V44.23C85.91,34.31,79.79,24.23,63.91,24.23Z"/><path class="cls-2" d="M73.91,30.58c3.38.76,8,4.56,8,8,0,3.3,2,4,2,7.92L84,54.61l5.9-6.27v-8a26,26,0,1,0-52,0v8l6,6V46.58c0-3.95,2-4.66,2-8,0-3.47,2.61-7.25,6-8A45.86,45.86,0,0,1,73.91,30.58Z"/><path class="cls-12" d="M85.91,50.23v-6c0-9.92-6.12-20-22-20s-22,10-22,20v6c-4.06,0-4.92,3.64-4,8a11.09,11.09,0,0,0,6,8v4c0,4,5.5,11.9,11.28,16.25a8.7,8.7,0,0,0,5.25,1.75h7a8.77,8.77,0,0,0,5.24-1.74c5.8-4.33,11.28-12.25,11.28-16.26v-4a11,11,0,0,0,6-8C90.85,53.87,89.91,50.23,85.91,50.23Z"/><path class="cls-2" d="M53.31,54.34a2,2,0,1,1-2,2,2,2,0,0,1,2-2"/><path class="cls-2" d="M75,54.34a2,2,0,1,1-2,2,2,2,0,0,1,2-2"/><path class="cls-14" d="M47.45,93s0,0,0-.07L17.7,99.53A14.56,14.56,0,0,0,7.59,110.94L7,114.57a140.89,140.89,0,0,0,57,12.11H64a140.89,140.89,0,0,0,57-12.11l-.59-3.63a14.56,14.56,0,0,0-10.11-11.41L80.53,92.89V93"/><line class="cls-12" x1="79.91" y1="80.34" x2="79.91" y2="90.34"/><line class="cls-12" x1="47.91" y1="90.34" x2="47.91" y2="80.34"/><path class="cls-15" d="M36.65,98.21,64,106.15l27.34-7.94A36.59,36.59,0,0,0,80.48,90.4L64,95.19,47.49,90.4A36.66,36.66,0,0,0,36.65,98.21Z"/><path class="cls-16" d="M64,95.19,47.49,90.4a47.76,47.76,0,0,0-6.32,3.81L64,100.84l22.83-6.63a49.16,49.16,0,0,0-6.34-3.81Z"/><path class="cls-17" d="M36.65,98.21,64,106.15l27.34-7.94A36.59,36.59,0,0,0,80.48,90.4L64,95.19,47.49,90.4A36.66,36.66,0,0,0,36.65,98.21Z"/><path class="cls-17" d="M64,95.19,47.49,90.4a50.32,50.32,0,0,0-6.11,3.66L64,100.63,86.6,94.06a49,49,0,0,0-6.12-3.66Z"/><path class="cls-8" d="M37.69,47.68C42.22,44.53,53.39,42,64,42s21.78,2.53,26.31,5.68c1.91-1.33,1-5.49,1-7.09,0-5.38-12.23-11.13-27.32-11.13S36.68,35.21,36.68,40.59C36.68,42.19,35.78,46.35,37.69,47.68Z"/><path class="cls-18" d="M64,34c-15.08,0-27.31,5.74-27.31,11.13,0,.2,0,.43,0,.7a2.89,2.89,0,0,0,1,1.85C42.22,44.53,53.39,42,64,42s21.78,2.53,26.31,5.68a2.84,2.84,0,0,0,1-1.85c0-.27,0-.5,0-.7C91.31,39.74,79.08,34,64,34Z"/><path class="cls-14" d="M37.69,47.68C42.22,44.53,53.39,42,64,42s21.78,2.53,26.31,5.68c1.91-1.33,1-5.49,1-7.09,0-5.38-12.23-11.13-27.32-11.13S36.68,35.21,36.68,40.59C36.68,42.19,35.78,46.35,37.69,47.68Z"/><path class="cls-6" d="M55.91,22A28.77,28.77,0,0,0,64,42,28.79,28.79,0,0,0,64,2,28.77,28.77,0,0,0,55.91,22Z"/><path class="cls-6" d="M55.91,22A28.77,28.77,0,0,0,64,42,28.79,28.79,0,0,0,64,2,28.77,28.77,0,0,0,55.91,22Z"/><path class="cls-19" d="M72.07,22A28.73,28.73,0,0,0,64,2V42A28.73,28.73,0,0,0,72.07,22Z"/><path class="cls-20" d="M56.85,14.85,64,22l7.15-7.15a28.6,28.6,0,0,0-2.83-7L64,12.13,59.68,7.82A28.21,28.21,0,0,0,56.85,14.85Z"/><path class="cls-21" d="M64,22l7.15-7.15a28.6,28.6,0,0,0-2.83-7L64,12.13Z"/><path class="cls-11" d="M55.91,22A28.77,28.77,0,0,0,64,42,28.79,28.79,0,0,0,64,2,28.77,28.77,0,0,0,55.91,22Z"/><path class="cls-6" d="M31.91,100.34a23.89,23.89,0,0,0,6,16,24.33,24.33,0,0,0,0-32A23.89,23.89,0,0,0,31.91,100.34Z"/><path class="cls-6" d="M31.91,100.34a23.89,23.89,0,0,0,6,16,24.33,24.33,0,0,0,0-32A23.89,23.89,0,0,0,31.91,100.34Z"/><path class="cls-19" d="M43.91,100.34a24,24,0,0,0-6-16v32A24,24,0,0,0,43.91,100.34Z"/><path class="cls-20" d="M32.6,94.62l5.31,5.72,5.3-5.72A23.66,23.66,0,0,0,41.11,89l-3.2,3.45L34.7,89A23.66,23.66,0,0,0,32.6,94.62Z"/><path class="cls-21" d="M37.91,100.34l5.3-5.72A23.66,23.66,0,0,0,41.11,89l-3.2,3.45Z"/><path class="cls-11" d="M31.91,100.34a23.89,23.89,0,0,0,6,16,24.33,24.33,0,0,0,0-32A23.89,23.89,0,0,0,31.91,100.34Z"/><line class="cls-22" x1="37.91" y1="80.55" x2="37.91" y2="64.34"/><path class="cls-15" d="M40.91,121.34a3,3,0,1,1-3-3A3,3,0,0,1,40.91,121.34Z"/><path class="cls-6" d="M95.91,100.34a23.94,23.94,0,0,1-6,16,24.33,24.33,0,0,1,0-32A23.94,23.94,0,0,1,95.91,100.34Z"/><path class="cls-6" d="M95.91,100.34a23.94,23.94,0,0,1-6,16,24.33,24.33,0,0,1,0-32A23.94,23.94,0,0,1,95.91,100.34Z"/><path class="cls-19" d="M83.91,100.34a23.94,23.94,0,0,1,6-16v32A23.94,23.94,0,0,1,83.91,100.34Z"/><path class="cls-20" d="M95.21,94.62l-5.3,5.72L84.6,94.62A23.66,23.66,0,0,1,86.7,89l3.21,3.45L93.11,89A23.66,23.66,0,0,1,95.21,94.62Z"/><path class="cls-21" d="M89.91,100.34,84.6,94.62A23.66,23.66,0,0,1,86.7,89l3.21,3.45Z"/><path class="cls-11" d="M95.91,100.34a23.94,23.94,0,0,1-6,16,24.33,24.33,0,0,1,0-32A23.94,23.94,0,0,1,95.91,100.34Z"/><line class="cls-22" x1="89.91" y1="80.55" x2="89.91" y2="64.34"/><path class="cls-15" d="M86.91,121.34a3,3,0,1,0,3-3A3,3,0,0,0,86.91,121.34Z"/><line class="cls-23" x1="59.91" y1="74.34" x2="67.91" y2="74.34"/><line class="cls-23" x1="63.51" y1="78.34" x2="64.97" y2="78.34"/><path class="cls-23" d="M60.68,68.14l2,.61a5.48,5.48,0,0,0,3.16,0l2-.61"/></g></g></svg>