<svg id="Layer_1" data-name="Layer 1" xmlns="http://www.w3.org/2000/svg" viewBox="0 0 128 128"><defs><style>.cls-1,.cls-4{fill:#444649;}.cls-2{fill:#383838;}.cls-12,.cls-14,.cls-17,.cls-3{fill:none;}.cls-14,.cls-15,.cls-3,.cls-4,.cls-5,.cls-6,.cls-7,.cls-8{stroke:#333;}.cls-15,.cls-3,.cls-4,.cls-5,.cls-8{stroke-linejoin:round;}.cls-15,.cls-3,.cls-4,.cls-5,.cls-6,.cls-8{stroke-width:4px;}.cls-5{fill:#d1d8db;}.cls-6,.cls-9{fill:#edccc3;}.cls-12,.cls-14,.cls-17,.cls-6,.cls-7{stroke-miterlimit:10;}.cls-16,.cls-7{fill:#5e2a2a;}.cls-7{stroke-width:3px;}.cls-8{fill:#ebf0f2;}.cls-12,.cls-14,.cls-8{stroke-linecap:round;}.cls-10{fill:#e5c2ba;}.cls-11{fill:#e0dcd1;}.cls-12{stroke:#ae887b;opacity:0.12;isolation:isolate;}.cls-13,.cls-15{fill:#333;}.cls-14{stroke-width:2px;}.cls-17{stroke:#bfb42b;stroke-width:0.45px;}</style></defs><title>vladimir-lenin</title><path class="cls-1" d="M118,100c-1.59-4.77-5.13-8.8-10-10-11.1-2.78-23.62-6-44-6-18.6,0-30.64,2.62-44,6-4.87,1.23-8.41,5.26-10,10l-2,6c.32.19,24.79,10,56,10a170,170,0,0,0,56-10Z"/><path class="cls-2" d="M108,98c-11.1-2.79-23.62-6-44-6-18.6,0-30.64,2.63-44,6-4.49,1.13-7.83,4.65-9.57,8.93A167.71,167.71,0,0,0,64,116a172.18,172.18,0,0,0,53.55-9.09C115.81,102.63,112.47,99.12,108,98Z"/><path class="cls-3" d="M36,86c-5.64,1-10.45,2.59-16,4-4.87,1.23-8.41,5.26-10,10l-2,6c.32.19,24.79,10,56,10a170,170,0,0,0,56-10l-2-6c-1.59-4.77-5.13-8.8-10-10-5-1.26-9.79-2.87-16-4"/><path class="cls-4" d="M36,94c.84,6.19,2.58,14.38,5.74,20.39A161.12,161.12,0,0,0,64,116a157.89,157.89,0,0,0,22.29-1.65c3.14-6,4.87-14.15,5.71-20.33l-4-4,4-4L80,72H48L36,86l4,4Z"/><path class="cls-5" d="M64,116c4.07,0,8-.18,11.88-.49C80.32,106.31,82,96.88,82,86c-6.18-.83-11.55-2.12-17.8-2.12H64c-6.3,0-11.77,1.28-18,2.12,0,10.88,1.72,20.33,6.15,29.51C55.94,115.8,59.91,116,64,116Z"/><rect class="cls-6" x="50" y="72" width="28" height="18"/><polygon class="cls-7" points="65.18 95.5 62.84 95.5 56 116 72 116 65.18 95.5"/><g id="_Group_" data-name="&lt;Group&gt;"><path id="_Path_" data-name="&lt;Path&gt;" class="cls-7" d="M59.3,90.81l3.45,4.58a1.57,1.57,0,0,0,2.51,0l3.45-4.58a1.57,1.57,0,0,0-1.25-2.51h-6.9A1.57,1.57,0,0,0,59.3,90.81Z"/></g><path class="cls-8" d="M50,78l-4,8,7.08,13.68L62,88C54.69,84.56,52,82,50,78Z"/><path class="cls-8" d="M78,78l4,8L75,99.68,66,88C73.31,84.56,76,82,78,78Z"/><path class="cls-9" d="M64,78c2.66,0,7.63,1.37,11-3.18C79.66,68.47,84,68,84,58c4,0,5.42-2.5,6-6,2-12-3.79-10.1-4-10,0,0,0-5.25,0-8,.08-8.78-4.68-22-22-22S41.92,25.21,42,34c0,2.75,0,8,0,8-.23-.1-6-2-4,10,.58,3.5,2,6,6,6,0,10,4.41,10.48,9.08,16.79C56.45,79.33,61.34,78,64,78Z"/><path class="cls-10" d="M86,42s0-5.25,0-8c.08-8.78-4.68-22-22-22a29.76,29.76,0,0,0-3.49.21c-4,15.92-6.71,32.68-6.49,46,0,4.55.45,11.46,1.1,18.57C58.24,78.86,61.85,78,64,78c2.66,0,7.63,1.37,11-3.18C79.67,68.47,84,68,84,58a6.11,6.11,0,0,0,2.91-.65c0-.27.06-.56.06-.82a6,6,0,0,0,1.31-.22A8.57,8.57,0,0,0,90,52C92,40,86.21,41.89,86,42Z"/><path class="cls-11" d="M42.23,57.56v.3a6.87,6.87,0,0,0,.94.13Z"/><path class="cls-11" d="M85.77,57.56l-.92.42a8.49,8.49,0,0,0,.92-.13Z"/><path class="cls-3" d="M64,78c2.66,0,7.63,1.37,11-3.18C79.66,68.47,84,68,84,58c4,0,5.42-2.5,6-6,2-12-3.79-10.1-4-10,0,0,0-5.25,0-8,.08-8.78-4.68-22-22-22S41.92,25.21,42,34c0,2.75,0,8,0,8-.23-.1-6-2-4,10,.58,3.5,2,6,6,6,0,10,4.41,10.48,9.08,16.79C56.45,79.33,61.34,78,64,78Z"/><line class="cls-12" x1="64" y1="61.47" x2="64" y2="61.53"/><circle class="cls-13" cx="54.4" cy="47.21" r="1.5"/><circle class="cls-13" cx="73.6" cy="47.21" r="1.5"/><path class="cls-14" d="M60,57.21l2.2.6a5.55,5.55,0,0,0,3.6,0l2.2-.6"/><path class="cls-13" d="M73.28,63.6c-2.37-2.07-4.29-4-6.1-4-1.39,0-2.32.59-3.19.59s-1.81-.59-3.2-.59c-1.81,0-3.75,2-6.1,4A1.87,1.87,0,0,0,54,65l6.71-1A4.56,4.56,0,0,0,64,62.63,4.52,4.52,0,0,0,67.29,64L74,65A1.93,1.93,0,0,0,73.28,63.6Z"/><line class="cls-14" x1="60" y1="65.99" x2="68" y2="65.99"/><path class="cls-15" d="M42.56,37c0,1.45,1.41,3.58,1.41,5l0,4-4-4s-2-12,4-18A74.25,74.25,0,0,0,42.56,37Z"/><path class="cls-15" d="M85.44,37c0,1.45-1.41,3.58-1.41,5l0,4,4-4s2-12-4-18A74.25,74.25,0,0,1,85.44,37Z"/><path class="cls-13" d="M71.93,67.24a9,9,0,0,1-1.57,4.31.49.49,0,0,1-.74.06l-3.14-3.14A1.63,1.63,0,0,0,65.32,68H62.68a1.63,1.63,0,0,0-1.16.48l-3.14,3.14a.49.49,0,0,1-.74-.06,9,9,0,0,1-1.57-4.31.49.49,0,0,0-.88-.24c-1.4,2-3.73,6.94.81,13,2.56,3.41,8,4,8,4s5.44-.59,8-4c4.54-6,2.21-10.95.81-13A.49.49,0,0,0,71.93,67.24Z"/><rect class="cls-16" x="96" y="102" width="6" height="4"/><path class="cls-17" d="M99.32,102.58a1.13,1.13,0,0,1,.69.34,1.2,1.2,0,0,1,0,1.68,1.18,1.18,0,0,1-1.68,0l-.94.94"/><line class="cls-17" x1="98.52" y1="103.11" x2="100.62" y2="105.21"/></svg>