<?xml version="1.0" encoding="utf-8"?>
<!-- Generator: Adobe Illustrator 16.0.0, SVG Export Plug-In . SVG Version: 6.00 Build 0)  -->
<!DOCTYPE svg PUBLIC "-//W3C//DTD SVG 1.1//EN" "http://www.w3.org/Graphics/SVG/1.1/DTD/svg11.dtd">
<svg version="1.1" id="Layer_1" xmlns="http://www.w3.org/2000/svg" xmlns:xlink="http://www.w3.org/1999/xlink" x="0px" y="0px"
	 width="4000px" height="4000px" viewBox="0 0 4000 4000" enable-background="new 0 0 4000 4000" xml:space="preserve">
<g>
	<path fill="#6397A3" d="M2292.96,3080.914l8.833-5.16l17.701-10.574c11.801-7.051,21.188-17.592,31.814-26.457
		c8.855-10.434,17.854-21.189,25.383-32.621c6.131-12.117,14.572-23.578,18.613-36.477c20.668-50.48,26.045-104.344,24.417-156.522
		c-0.108-13.168-1.813-26.068-2.706-39.15c-1.882-13.244-3.935-26.957-7.051-40.355c-0.632-2.467-1.493-4.881-2.175-7.32
		c48.745-41.379,97.837-81.715,151.065-112.574c13.432-8.525,27.642-14.34,41.64-21.164c7.082-3.117,14.398-5.107,21.589-7.783
		l10.826-3.756l11.038-2.197c29.401-7.553,59.792-6.193,88.815,1.99c29.632,6.975,56.146,24.75,81.972,42.691
		c11.985,10.486,24.209,20.82,35.986,31.729l33.142,35.432l16.55-13.273l-32.075-38.988c-11.585-12.301-23.863-24.156-36.002-36.111
		c-26.673-21.318-54.861-43.006-89.292-53.836c-33.458-11.932-71.138-15.842-106.354-9.314l-13.354,1.912l-12.79,3.492
		c-8.476,2.439-17.285,4.375-25.491,7.375c-16.157,6.5-32.911,12.377-48.015,20.555c-55.406,27.582-104.892,62.459-152.828,97.838
		c-2.751-4.77-5.555-9.572-8.652-14.191c-33.908-47.697-84.177-76.984-128.542-99.639c-45.004-23.188-67.627-34.434-91.49-65.455
		c-11.931-15.266-22.685-28.924-29.608-46.68c-3.279-9.857-2.599-15.787-3.934-24.674c0.446-4.457-0.423-8.914,0.654-13.139
		c0.866-3.727,1.235-10.432,1.628-10.932l-0.554-0.316v-0.031c2.521-153.27,200.007-118.045,313.893-396.168
		c10.777-26.643,19.19-52.316,25.384-77.277c37.44-152.305-7.557-277.838-75.606-403.916c0,0-0.022-0.055-0.022-0.076
		c37.707-50.506,112.474-146.375,192.871-225.311c133.212-130.979,153.271-199.977,195.228-288.35
		c32.126-67.857,54.676-87.787,63.093-93.24c0.97-0.711,1.836-1.127,2.513-1.42l1.129-0.547
		c-77.538-4.482-140.235,181.352-185.108,234.084c-86.688,101.539-233.8,234.623-280.37,259.01
		c-37.707,19.953-64.194-14.975-72.824-28.82c-0.73-1.234-1.488-2.516-2.251-3.779c-0.445-0.834-0.789-1.467-0.789-1.467
		l0.085,0.293c-12.67-21.635-25.31-43.484-37.66-65.791c-128.781-232.234,4.325-292.15,21.873-364.375
		c17.385-71.791-20.745-140.496-9.966-161.268c11.094-20.766,28.609-4.195,28.609-4.195c1.25-132.814-222.007,6.293-289.161,166.465
		c-67.343,160.326-159.91,207.158-159.91,207.158s13.353,11.746,76.441,9.07c0,0,8.575,19.645,49.223,36.508
		c0,0,212.088,307.668-299.965,34.898c-4.095-2.254-8.128-4.482-11.931-7.158c-87.51-62.25-241.066-288.475-295.927-431.1
		c-16.7-43.346-40.378-70.834-65.499-87.928c-59.61-40.832-127.185-24.123-127.185-24.123l7.713,1.385
		c24.513,5.484,101.271,28.77,131.237,112.916c35.932,100.832,26.938,300.408,219.644,484.127
		c192.846,183.881,457.936,533.641,467.588,686.773h0.281c28.481,5.324,63.099,22.297,44.716,75.184
		c0,0-18.909,137.828-262.357,263.23c0,0,0,0.023-0.031,0.023l-0.339-0.186c-3.226,1.598-6.216,3.434-9.418,5.084
		c-2.198,1.109-4.403,2.283-6.631,3.361c-0.997,0.42-1.968,0.996-2.803,1.389c-12.069,6.063-24.709,11.801-37.898,17.701
		l5.354,0.965l0.154,0.031c-37.422,22.604-72.215,47.803-105.626,76.334c-47.04,41.455-90.489,89.135-120.729,146.451
		c-15.626,28.457-26.772,56.773-37.337,86.852c-10.516,29.74-17.34,61.389-20.664,93.512c-3.118,32.148-1.998,65.344,5.639,97.236
		c7.313,31.859,20.037,62.12,36.108,89.786c16.123,27.771,36.313,52.186,57.271,75.34c11.27,11.096,20.898,22.211,34.328,33.146
		c13.005,10.514,27.272,19.74,42.714,26.324c30.598,13.977,64.51,18.094,96.836,16.127c32.392-2.621,63.65-11.172,92.491-24.123
		c89.685-40.934,159.879-117.559,195.149-207.583c69.147,17.861,142.209,18.016,210.207-1.205
		c35.032-9.834,68.598-24.545,99.227-43.553c13.424-8.287,26.113-17.57,38.36-27.381c1.074,5.033,2.128,10.096,3.125,15.238
		c1.359,11.746,3.587,23.5,4.242,35.246c3.855,46.938,1.127,94.716-13.921,137.507c-1.466,5.563-3.642,10.727-6.37,15.604
		l-7.374,15.133c-5.608,9.541-12.401,18.355-18.982,27.273c-8.313,7.24-15.126,16.357-24.494,22.42l-13.947,9.311l-6.979,4.719
		l-7.867,3.301c-41.04,19.383-89.785,25.623-137.898,21.842l-18.125-0.623l-18.07-2.574l-36.26-5.115
		c-24.024-4.715-47.833-10.932-71.876-16.334l-6.116,20.32c24.259,6.793,48.354,14.398,72.927,20.484l37.423,7.266l18.777,3.564
		l19.167,1.676c50.604,6.377,104.681,3.15,154.973-17.41L2292.96,3080.914z M1805.213,3015.199
		c-26.272,10.754-54.045,17.23-81.579,18.59c-27.481,0.738-54.861-3.641-78.647-15.549c-24.621-10.953-42.506-30.133-62.435-52.287
		c-18.56-21.949-36.106-44.656-49.396-69.389c-26.88-49.212-38.577-104.521-30.394-159.479
		c7.077-54.623,29.361-109.563,57.082-158.652c52.632-89.893,197.069-169.43,297.896-218.674c-2.836,3.648-5.772,7.215-8.552,10.91
		c-22.677,31.1-41.194,66.131-53.125,103.896c-11.963,37.705-16.654,77.965-14.269,117.029c0.862,18.59,3.622,41.09,10.52,61.574
		c6.866,20.352,16.281,39.334,27.666,56.457c23.1,34.012,52.655,60.809,84.72,81.287c26.984,17.594,55.993,30.424,85.702,40.098
		C1954.315,2913.145,1886.664,2981.373,1805.213,3015.199 M2289.707,2736.136c-26.411,14.084-54.599,24.311-83.577,30.449
		c-57.925,12.455-119.209,7.682-174.146-11.408c-54.623-18.963-104.333-54.049-129.532-97.707
		c-6.139-10.834-10.55-22.033-13.56-33.148c-2.836-11.172-3.384-21.711-3.206-36.086c0.216-26.773,4.987-52.832,14.613-77.508
		c9.649-24.676,23.832-47.941,41.452-68.967c8.967-10.439,18.223-20.695,28.559-29.814c5.007-4.727,10.31-9.105,15.549-13.248
		c3.018-2.439,24.891-12.35,41.829-19.979h0.1l8.79,1.521c-0.978,5.955-1.813,11.932-2.097,17.939
		c-0.979,15.832-0.186,31.957,3.249,47.615c5.953,31.652,22.265,60.553,42.249,83.18c20.109,22.762,44.265,39.961,68.043,53.359
		c23.839,13.297,47.362,23.447,69.647,33.805c44.896,20.014,84.046,41.777,110.376,74.844c3.356,4.506,6.45,9.225,9.364,14.078
		l-9.604,7.186C2315.592,2721.081,2302.901,2729.163,2289.707,2736.136"/>
	<path fill="#6397A3" d="M552.417,884.386c0,0-49.646,92.695-296.081,88.211c0,0,131.137,146.848,282.469,149.076
		c0,0-122.017,38.447-232.673,38.447c0,0,212.196,169.266,356.788,131.266c-5.322,3.229-93.695,56.225-203.231,53.996
		c0,0,219.358,104.049,406.88,40.801c0,0-61.022,99.441-167.169,108.406c0,0,176.263,90.469,377.391-45.158
		c0,0-83.723,135.627-239.539,164.943c0,0,203.063,9.127,322.012-66.631c0,0-78.82,147.137-154.558,181.223
		c0,0,175.333-13.344,242.198-78.713c0,0-49.091,126.393-117.373,178.285c0,0,144.042-48.961,191.555-92.152
		c0,0,3.099,47.549-56.381,118.951c0,0,81.633-14.898,139.692-66.924c0,0,1.413,68.445-46.128,118.949
		c0,0,87.634-19.375,136.726-50.504c0,0,10.388,40.092-13.321,99.441c0,0,34.098-44.474,63.802-60.892
		c0,0,34.251,129.328,78.823,173.931c0,0-10.511-108.559,10.389-141.236c0,0,49.927,156.078,104.495,188.783
		c0,0-14.448-78.83,0-114.463c0,0,48.514,102.533,113.886,141.105c0,0-10.38-78.701,10.365-120.338c0,0,14.863,75.734,60.987,93.695
		c0,0-9.232-153.352,43.245-151.545c-9.655-153.14-278.434-464.56-471.255-648.439
		c-192.687-183.719-183.711-383.291-219.612-484.127c-30.024-84.146-106.725-107.432-131.271-112.887l-7.713-1.389
		c0,0-69.987-148.264-177.419-222.869c-107.439-74.475-170.69-158.205-175.174-214.709c0,0-27.059,88.057-0.154,155.814
		c-7.975-4.063-260.576-136.625-313.99-214.455c0,0,31.695,180.783,142.333,302.797c0,0-296.054-108.539-375.166-198.867
		c0,0-24.806,115.299,216.97,341.209c0,0-203.363-2.26-266.585-22.582C188.628,644.838,346.826,864.058,552.417,884.386"/>
	<path fill="#466870" d="M2267.547,2312.091c-29.056,20.133-46.887,33.303-57.482,45.385l87.195,59.818l64.664-43.268
		l-51.556-92.461C2295.315,2292.577,2281.105,2302.777,2267.547,2312.091"/>
	<path fill="#466870" d="M2449.275,2133.532c-29.894,46.656-62.124,81.873-93.307,110.27l127.021,73.82l49.854-62.99
		L2449.275,2133.532z"/>
	<path fill="#466870" d="M2432.225,2448.339l34.405,48.592l19.405-84.725l-14.629-2.129l-88.295-14.863l-64.66,43.268
		l18.197,134.967l103.075-53.203c0,0-45.517,9.389-55.481-0.238c-11.984-11.615-1.866-51.059,11.008-65.898
		C2408.259,2439.136,2421.11,2440.556,2432.225,2448.339"/>
	<path fill="#466870" d="M2630.396,2341.741l24.197,62.883l2.413-117.213l-101.771-14.971l-51.947,56.85l18.231,134.998
		l87.08-64.588c0,0-31.075-0.184-41.04-9.832c-12.009-11.615-0.338-30.109,12.54-44.951
		C2597.874,2324.466,2616.26,2330.388,2630.396,2341.741"/>
	<path fill="#466870" d="M2622.29,1306.549c-80.32,78.797-155.11,174.721-192.844,225.355
		c68.051,126.078,113.047,251.607,75.603,403.912c31.968,22.289,45.573,53.025,45.573,53.025
		c25.121-19.359,44.474-63.832,44.474-63.832c6.843,18.23,0,42.22,0,42.22c29.716-15.972,64.933-75.308,64.933-75.308
		c4.345,21.734-14.16,50.318-14.16,50.318c62.697-37.26,97.174-86.09,97.174-86.09c8.846,22.158-10.638,51.605-10.638,51.605
		c45.308-5.189,91.251-103.076,91.251-103.076c16.862,11.539,16.02,30.99,16.02,30.99c33.646-25.643,58.479-133.791,58.479-133.791
		c12.482,12.332,11.646,66.477,11.646,66.477c35.348-42.637,21.188-125.109,21.188-125.109c21.288,0,49.222,33.805,49.222,33.805
		c19.769-58.033-17.127-135.891-17.127-135.891c84.439,0,137.325-37.029,137.325-37.029
		c-40.955,2.682-101.692-22.439-101.692-22.439c73.896-11.908,154.425-51.48,154.425-51.48c-34.4,2.676-70.01-25.092-70.01-25.092
		c112.208-31.705,225.802-145.146,225.802-145.146c-31.703,10.518-59.445,5.326-59.445,5.326
		c51.471-15.842,166.334-172.943,166.334-172.943c-23.863,25.123-67.315,19.799-67.315,19.799
		c60.707-52.762,75.151-143.883,75.151-143.883c-21.053,50.189-100.272,68.705-100.272,68.705
		c118.785-162.4,121.46-336.602,121.46-336.602c-26.927,79.242-90.887,120.057-94.95,122.596
		c118.635-193.973,26.353-415.713,26.353-415.713c-2.651,159.748-101.662,268.025-101.662,268.025
		c15.834-134.625-93.695-273.186-93.695-273.186c0.315,4.479,0.708,8.832,0.966,13.188
		c17.127,231.803-61.673,287.771-61.673,287.771c0-79.254-84.57-155.797-84.57-155.797
		c27.773,196.598-151.328,375.699-151.328,375.699l-1.131,0.547l-2.541,1.42c-8.421,5.453-30.967,25.383-63.097,93.248
		C2775.585,1106.541,2755.529,1175.539,2622.29,1306.549"/>
	<path fill="#466870" d="M332.408,1854.39c0-120.197,12.798-237.418,37.185-350.359l-146.008-74.994
		c-32.674,136.432-50.059,278.926-50.059,425.354c0,925.908,692.828,1693.055,1587.291,1810.006v-160.588
		C954.279,3387.961,332.408,2692.372,332.408,1854.39"/>
	<path fill="#466870" d="M1130.262,432.857c253.152-155.369,550.626-245,868.842-245c313.989,0,607.978,87.217,858.854,238.961
		l-27.9-197.74c-249.36-128.033-531.828-200.266-830.953-200.266c-368.012,0-710.897,109.401-997.831,297.475
		c13.713,12.027,30.132,25.068,49.77,38.705C1080.051,385.027,1106.423,408.443,1130.262,432.857"/>
	<path fill="#466870" d="M3563.401,914.301c-7.158,21.48-15.703,43.77-25.675,66.639l43.06,12.193
		c-2.963,18.516-17.516,94.818-66.184,168.17c0,0.154,0,0.154,0.154,0.262v0.154c6.008,13.32,12.038,26.641,17.784,40.092
		c15.734,36.768,30.021,74.082,43.054,112.082c4.906,13.867,9.418,27.902,13.897,41.928
		c49.511,157.494,76.156,324.955,76.156,498.57c0,838.113-621.852,1533.723-1428.412,1649.418v160.588
		c894.355-116.949,1587.314-883.968,1587.314-1810.006C3824.551,1510.769,3729.181,1189.045,3563.401,914.301"/>
	<rect x="1914.199" y="3176.867" fill="#6497A4" width="169.682" height="816.764"/>
</g>
</svg>
