<?xml version="1.0" encoding="utf-8"?>
<!-- Generator: Adobe Illustrator 16.0.0, SVG Export Plug-In . SVG Version: 6.00 Build 0)  -->
<!DOCTYPE svg PUBLIC "-//W3C//DTD SVG 1.1//EN" "http://www.w3.org/Graphics/SVG/1.1/DTD/svg11.dtd">
<svg version="1.1" id="Layer_1" xmlns="http://www.w3.org/2000/svg" xmlns:xlink="http://www.w3.org/1999/xlink" x="0px" y="0px"
	 width="4000px" height="4000px" viewBox="0 0 4000 4000" enable-background="new 0 0 4000 4000" xml:space="preserve">
<g>
	<path fill="#664140" d="M2762.876,207.031c-27.688,32.592-67.868,77.955-112.103,124.471
		c-200.358-85.291-420.633-132.48-651.75-132.48c-252.47,0-491.984,56.336-706.647,157.201L1182.212,232.45
		c246.01-123.346,523.468-192.742,816.813-192.742C2271.579,39.708,2530.363,99.538,2762.876,207.031"/>
	<path fill="#664140" d="M1649.367,3500.933v162.674C807.705,3500.07,170.293,2757.318,170.293,1868.439
		c0-323.953,84.72-628.541,233.201-892.656l120.539,111.686c-124.181,233.215-194.44,499.016-194.44,780.971
		C329.594,2669.081,896.188,3339.931,1649.367,3500.933"/>
	<path fill="#664140" d="M3827.784,1868.439c0,888.879-637.267,1631.631-1479.074,1795.168v-162.697
		c753.295-160.994,1319.752-831.828,1319.752-1632.471c0-355.008-111.416-684.463-301.216-955.318
		c1.979-3.357,3.947-6.879,5.757-10.252l77.711-145.42C3687.144,1065.687,3827.784,1451.058,3827.784,1868.439"/>
	<rect x="1795.063" y="3177.386" fill="#995E5E" width="170.659" height="805.349"/>
	<rect x="2032.425" y="3177.386" fill="#995E5E" width="170.683" height="805.349"/>
	<path fill="#664140" d="M1341.64,1637.267c-0.573,4.771-0.954,7.275-0.954,7.275s-202.93-68.275-233.314-118.586
		c-30.606-50.096-68.092-112.646-114.539-152.426c3.046,0.754,28.285,7.082,55.258,7.082c0,0,21.422-73.625-19.896-104.246
		c-41.111-30.395-64.654-105.943-64.654-105.943s30.621,39.584,61.196,43.227c30.423,3.42-7.237-156.271-7.237-183.227
		c0,0,2.275-4.977,6.864-12.049c11.871-18.16,39.401-50.674,83.392-49.721c3.419,0,6.68,0.197,10.33,0.773
		c0,0,55.646,87.951,62.724,125.652c0,0,8.978-14.361,32.309-48.381c0,0,3.643,132.717,7.284,159.691
		c0,0,39.395-41.121,39.395-73.068c0.961,15.115,8.61,99.271,63.869,106.711C1298.812,1371.421,1317.943,1576.267,1341.64,1637.267"
		/>
	<path fill="#664140" d="M2162.126,2296.89c-65.205,13.184-148.611,55.629-148.611,55.629
		c-35.737-71.707-150.123,39.988-155.467,45.332c17.199-41.482-28.118-28.871-49.549-9.93
		c-21.59,18.934-61.968,129.08-61.968,129.08c-62.129-59.494-87.376,112.639-87.376,112.639
		c-19.712-25.629-41.5-49.338-63.334-70.578c-41.295-40.145-82.597-71.504-109.203-90.256
		c-18.346-13.002-29.813-20.078-29.813-20.078s30.216-111.506,35.378-146.861c4.993-35.402-7.65-27.744-43.036-31.563
		c-35.361-3.84-55.639-53.172-55.639-53.172c21.406,13.953,75.908,6.307,117.615,8.795c41.698,2.473,51.822-45.512,27.911-54.32
		c-24.094-8.979-54.501-39.195-54.501-39.195c17.788,3.627,81.085,0,101.172,2.488c20.276,2.469,93.696-61.967,226.636-81.074
		c53.37-7.682,116.081-2.504,172.132,6.105c73.236,39.949,157.384,100.965,157.201,159.871
		C2141.467,2252.14,2150.849,2277.771,2162.126,2296.89"/>
	<path fill="#664140" d="M1412.794,2723.56c13.383,26.771,37.484,92.367-8.056,158.16c0,0-14.719-71.168-49.508-77.848
		c-34.798-6.686-56.22-38.83-58.907-58.893c-2.68-20.092-22.75-50.867-40.18-21.42c-17.383,29.432-12.04,91.031-53.541,103.283
		c-41.691,12.01-36.34,73.604-36.34,73.604s-53.523-48.188-46.853-105.941c6.688-57.578-25.444-56.229,0-77.676
		c25.438-21.375,57.578-61.568,21.422-65.57c-36.141-4-144.571,18.736-167.339-8.016c-22.75-26.787-79.176-32.154-100.598-10.732
		c0,0,20.094-64.252,76.496-80.516c56.234-16.047,24.102-49.523,65.603-44.18c41.5,5.367,74.971,63.129,111.104,60.443
		c36.18-2.682,45.53-44.385,21.414-60.443c-24.087-16.055-84.307-22.748-82.979-49.537c1.352-26.773-74.977-33.463-74.977-33.463
		s101.766-33.453,155.291-14.721c53.548,18.736,60.44-13.396,72.487,26.762c12.041,40.17-26.965,80.344,40.15,73.656
		c47.813-4.797,133.876-16.453,190.875-22.57c26.583,18.729,67.899,50.094,109.226,90.256
		c-33.874,1.916-150.535,11.482-175.592,50.313C1352.534,2674.019,1399.409,2696.784,1412.794,2723.56"/>
	<path fill="#664140" d="M1089.392,778.376c-33.278,52.385-12.812,121.631-0.756,152.021c-43.989-0.939-71.534,31.568-83.391,49.74
		c-11.085-4.199-29.446-3.629-39.202,37.102c-14.734,61.006-8.795,47.623-60.236,103.439
		c-51.456,55.676-132.175-19.088-132.175-19.088s110.18,10.123,86.65-22.199c-23.544-32.133,10.321-49.906,23.528-71.908
		c13.186-22.01,23.521-66.174,45.51-133.695c21.987-67.496-16.063-35.182-16.063-35.182c-64.648,10.318-22.18-66.15-80.91-48.574
		c-58.717,17.803-86.635-33.67-86.635-33.67c19.115,8.787,89.498,5.75,110.18-30.979c20.65-36.723,80.688-20.459,105.76-24.852
		c25.025-4.391-19.14-83.779-26.416-114.537c-7.466-30.996,41.134-16.295,45.524-45.541c4.396-29.428-55.83-63.311-55.83-63.311
		c82.214-8.795,113.02,61.777,113.02,61.777c22.179,0,41.302,24.871,35.362,60.242c-5.917,35.193,8.818,67.52,43.998,26.398
		c35.392-41.115,38.255-30.787,73.436-43.994c35.386-13.191,35.386-60.236,35.386-60.236c24.872,27.934,24.872,88.168,24.872,88.168
		C1272.999,685.814,1133.572,709.329,1089.392,778.376"/>
	<path fill="#995E5E" d="M3196.771,1510.652c2.496-3.818,17.979-30.02,68.281-161.789
		c55.289-144.781-15.102-268.701-102.888-221.078c-87.78,47.615-57.189,76.297-38.059,85.865
		c18.926,9.375,43.791-64.842,79.947,17.002c36.326,82.055-146.702,301.422-181.11,428.992
		c-34.226,127.756,49.524,377.512,49.524,377.512c-18.918-17.002-47.632-13.184-47.632-13.184
		c66.755,49.531,95.453,135.391-22.75,219.17c-118.371,83.957-215.534-83.779-293.741-188.76
		c-78.237-104.809-387.477-285.148-387.477-285.148c-54.686-149.779-174.217-702.271-71.718-833.293
		c72.848-93.322,167.545-167.904,239.628-270.793h0.19c29.056-41.699,54.494-87.986,73.436-142.283
		c0,0-113.601,108.637-210.16,145.328c-227.979,86.844-297.024,202.939-297.024,202.939c3.244-42.072-35.386-115.342-35.386-115.342
		c65.236-15.475,167.155-67.504,142.671-79.539c-19.322-9.568-28.102-8.238-30.979-7.27
		c108.638-58.535,108.638-105.76,95.231-103.484c-12.437,1.916-33.668,10.916-36.332,11.869
		c36.332-57.379,65.229-88.365,76.307-103.824c10.901-15.523,37.508-64.271-17.773-56.447
		c-54.127,7.463-174.416,51.064-180.37,52.982c0.97-2.873,9.765-25.443,41.905-60.807c34.424-37.484,0-26.588-74.215-2.121
		c-74.19,24.277-232.354,198.139-253.4,180.545c-21.041-17.77-70.939-22.197-142.862-22.197c-72.092,0-110.722,36.537-127.35,59.68
		c-16.667,23.342-68.681,23.342-94.125,48.781c-25.422,25.43,9.963,184.92,34.226,84.154
		c24.483-100.795,194.906,84.131,194.906,84.131s-24.301,27.734-80.727,39.777c-56.603,12.236-95.231-33.096-82.031,0
		c13.391,33.291,108.454,70.385,108.454,70.385c-86.841,28.68-161.224,156.445-161.224,156.445
		c36.714,4.592-29.095,50.871-29.095,50.871c-19.688,19.105-32.874,55.072-41.096,99.451
		c-24.873,131.389-5.749,336.213,17.979,397.211c4.39,11.092,8.78,17.406,13.186,17.797c36.896,3.244,96.965,140.172,60.991,136.932
		c-35.752-3.057-178.997,5.363-178.997,5.363s0,0.186,0.207,0.367c11.466,38.242-5.384,83.768-18.385,110.174
		c-6.688,13.764-12.237,22.377-12.237,22.377s44.951-15.117,199.679,26.576c154.52,41.498,232.559-74.035,269.265-73.254
		c15.322,0.398,30.806-23.512,57.762,20.07c25.041,40.936,73.824,80.336,79.765,84.941c-20.468-23.91-1.146-46.494-1.146-46.494
		c21.78,33.461,30.201,15.115,102.125,45.334c19.102,8.023,44.166,19.695,70.564,34.225
		c73.252,39.957,157.368,100.988,157.2,159.896c-0.198,32.299,9.185,57.959,20.468,77.082
		c16.612,28.674,37.668,43.021,37.668,43.021c86.452,96.385,42.088,191.807,42.088,191.807
		c-45.135,44.188-96.407,107.678-99.484,111.715c43.066-37.875,112.867-26.789,112.867-26.789c0,44.174,76.299,99.451,76.299,99.451
		c-13.582-48.01,7.269-88.559,7.269-88.559s47.051,39.031,118.372,53.178c24.299,4.977,51.646,6.893,80.718,3.426
		c38.813-4.574,67.496,4.221,88.536,17.996c41.134,26.588,53.005,71.707,53.005,71.707c44.166-90.826-43.042-307.139-84.917-420.363
		c-41.722-113.029-8.245-211.314-8.245-211.314c49.547,28.666,53.356,143.061,190.479,225.086
		c137.326,81.863,266.967-11.484,341.41-106.904c74.366-95.232,19.125-240.211-19.147-385.18
		c-38.027-144.779-26.575-226.824,42.088-280.166c68.647-53.357,89.499-133.488,89.499-133.488
		C3257.983,1466.284,3201.367,1507.392,3196.771,1510.652 M1738.515,721.185c-8.039-1.33-79.565-6.682-102.316-39.02
		c0,0,103.645-6.689,123.938,0C1780.221,688.872,1746.553,722.513,1738.515,721.185"/>
	<path fill="#995E5E" d="M2751.738,3106.257c0,0-16.666-44.959-54.907-65.031c-38.239-19.896-48.194-23.332-51.638-58.148
		c-3.245-34.982-37.98-14.646-61.304,11.938c-23.324,26.578-8.872,22.979-23.79,71.361c-14.933,48.211-51.257,63.203-36.362,154.609
		c0,0-79.925-43.234-74.962-118.195c4.979-74.787,41.699-81.461,18.361-89.873c-23.323-8.215-89.88,43.4-109.774,41.693
		c-20.063-1.721-33.463,35.012-74.971,9.938c-41.684-25.061-93.346,36.732-93.346,36.732s18.375-98.316,71.732-104.988
		c53.174-6.729,21.612-24.873,63.121-28.34c41.698-3.244,111.676-9.918,73.252-33.279c-38.241-23.309-98.109-3.227-98.109-36.508
		c0-33.275-68.283-49.908-68.283-49.908s108.258-61.783,138.268-1.723c29.851,59.838,59.869,69.779,73.054,51.631
		c13.392-18.369,51.647-198.135,51.647-198.135l1.709-0.186c24.302,4.967,51.662,6.879,80.72,3.43
		c38.827-4.588,67.503,4.191,88.543,17.994l0.573,2.094c0,0-43.228,166.375,28.301,209.617
		C2765.105,2976.38,2751.738,3106.257,2751.738,3106.257"/>
	<path fill="#995E5E" d="M1219.712,2167.407c0,0-2.862-76.299-39.601-76.299c-36.699,0-126.991-117.633-153.367-126.043
		c-26.407-8.404-42.448,36.715-76.299,70.564c-33.866,33.852-37.69,0-67.702,9.369c-30.225,9.383-40.561,51.82-40.561,51.82
		c-20.651-46.09,8.404-82.803,8.404-82.803c-1.9-43.414,107.295-81.861,118.608-96.957c11.452-15.109-75.184-31.18-117.63-29.262
		c-42.264,1.916-19.712-31.918-49.914-33.85c-30.018-1.924-71.534,23.52-71.534,23.52c15.115-75.359,93.33-85.656,93.33-85.656
		s76.116-30.043,102.5,1.916c26.4,31.91,48.952,38.605,74.39,24.459c25.445-14.139-27.338-59.289-34.806-79.953
		c-7.647-20.844,9.368-35.754,9.368-56.596c0-20.65-42.249-78.984-42.249-78.984c52.585,1.916,93.132,47.99,103.461,54.502
		c10.337,6.695,47.051,16.047,29.087,53.729c-17.804,37.686,5.146,80.537,18.734,109.609c13.758,29.057,157.589-4.018,157.589-4.018
		s0,0.186,0.184,0.367c11.476,38.264-5.366,83.783-18.376,110.166c-55.059,5.924-29.805,54.508,10.528,75.74
		c41.333,21.598,10.353,3.641,24.292,58.32C1272.298,2115.572,1219.712,2167.407,1219.712,2167.407"/>
	<path fill="#995E5E" d="M3002.474,910.138c71.726,0,230.086-82.439,230.086-82.439c-67.32,125.855-375.445,351.717-375.445,351.717
		c52.013,19.521,164.873,0,164.873,0c-71.527,104.012-325.508,236.379-325.508,236.379
		c101.927,15.299,288.573-10.699,288.573-10.699c-108.416,125.84-410.021,164.66-410.021,164.66
		c62.916,32.516,216.871,32.898,216.871,32.898c-65.015,50.113-260.271,75.742-260.271,75.742
		c36.896,26.182,65.015,30.383,65.015,30.383c-30.423,23.33-143.443,42.461-214.97,52.607
		c-12.246-7.473-22.369-13.574-29.629-17.777c-64.474-187.824-153.771-681.037-73.069-784.322
		c31.164-39.768,66.357-75.922,103.47-114.373c42.638-43.783,86.643-89.123,125.845-141.889h0.366l11.482-16.08
		c13.023-18.752,24.873-37.473,35.371-56.611c147.466-98.879,351.533-347.287,351.533-347.287
		c-23.91,108.432-232.193,381.916-232.193,381.916c75.947-10.906,212.688-180.17,212.688-180.17
		c-8.597,71.535-80.139,151.102-84.537,156.078c126.037-43.607,451.17-342.541,451.17-342.541
		c0,195.258-164.856,351.518-164.856,351.518c91.216,0,240.965-173.643,240.965-173.643
		C3273.839,654.056,3002.474,910.138,3002.474,910.138"/>
</g>
</svg>
