<?xml version="1.0" encoding="utf-8"?>
<!-- Generator: Adobe Illustrator 16.0.0, SVG Export Plug-In . SVG Version: 6.00 Build 0)  -->
<!DOCTYPE svg PUBLIC "-//W3C//DTD SVG 1.1//EN" "http://www.w3.org/Graphics/SVG/1.1/DTD/svg11.dtd">
<svg version="1.1" id="Layer_1" xmlns="http://www.w3.org/2000/svg" xmlns:xlink="http://www.w3.org/1999/xlink" x="0px" y="0px"
	 width="4000px" height="4000px" viewBox="0 0 4000 4000" enable-background="new 0 0 4000 4000" xml:space="preserve">
<g>
	<path fill="#664157" d="M1553.718,3418.663v157.789C806.409,3379.388,253.894,2697.476,253.894,1889.011
		c0-666.453,375.406-1246.715,925.895-1540.605c-1.196,1.34-2.144,2.543-3.203,3.898c-49.91,64.082-81.938,143.043-95.347,235.148
		c-408.373,288.781-675.453,764.621-675.453,1301.559C405.786,2612.882,891.271,3225.722,1553.718,3418.663"/>
	<path fill="#664157" d="M3744.183,1889.011c0,807.012-550.502,1487.703-1295.533,1686.383v-157.941
		c660.308-194.289,1143.625-806.039,1143.625-1528.441c0-373.234-129.102-717-345.065-988.906c0-0.266,0.112-0.531,0.112-0.789
		c3.338-27.102,4.693-52.035,3.746-75.891c0-4.828,0-9.648-0.135-14.352c0-14.48-0.145-30.719-1.862-49.055
		c-3.088-35.814-9.008-71.211-17.842-105.652C3548.058,970.491,3744.183,1407.163,3744.183,1889.011"/>
	<rect x="1924.114" y="3176.745" fill="#995E7E" width="149.64" height="797.496"/>
	<rect x="1703.226" y="3176.745" fill="#995E7E" width="149.623" height="797.496"/>
	<rect x="2149.444" y="3176.745" fill="#995E7E" width="149.646" height="797.496"/>
	<path fill="#995E7E" d="M1668.601,2312.632c0,0-112.49,200.059-411.705,36.367c-299.272-163.703-231.561-509.223-231.561-509.223
		l102.545,97.477C1237.026,2077.898,1668.601,2312.632,1668.601,2312.632"/>
	<path fill="#995E7E" d="M3089.638,1972.909c0,0-61.266,16.762-144.801,153.242c-260.637,425.688-686.188,246.313-686.188,246.313
		c175.504-263.211,592.068-379.168,605.082-382.68c0.129-0.113,0.266-0.113,0.266-0.113L3089.638,1972.909z"/>
	<path fill="#995E7E" d="M2315.394,1429.613c-24.957-12.102-49.076-21.535-72.776-28.742c-23.498-8.523-46.646-14.648-69.373-19.758
		c-11.31-2.945-22.61-5.051-33.821-7.48c-11.312-1.793-22.461-4.094-33.453-6.289c-22.119-4.316-44.283-7.094-66.109-10.426
		l-65.965-7.953c-43.551-6.375-87.918-13.582-128.691-29.629c-82.453-30.973-154.625-80.039-223.481-136.793
		c-68.685-57.531-133.717-125.066-198.836-206.723l-0.711-0.895c-1.72-2.148-4.226-3.617-7.168-3.996
		c-5.942-0.734-11.371,3.527-12.099,9.484c-6.858,56.488,3.564,110.973,19.734,164.211c17.117,52.84,43.461,102.914,76.08,149.113
		c65.504,93.09,161.545,161.637,262.135,213.137c100.601,50.945,208.525,98.121,320.601,101.355
		c27.873,1.879,55.496-0.863,83.065-3.035c27.449-3.332,54.572-10.039,81.287-17.918c26.525-9.32,52.613-20.645,77.828-35.223
		c25.027-15.77,49.379-33.535,72.09-57.785c0.379-0.391,0.779-0.855,1.09-1.324c4.354-6.031,2.998-14.43-3.026-18.797l-0.362-0.227
		C2366.108,1454.163,2340.437,1440.87,2315.394,1429.613"/>
	<path fill="#995E7E" d="M1316.39,975.995c1.354,1.641,3.148,2.934,5.32,3.633c6.033,1.977,12.492-1.305,14.459-7.328l0.273-0.719
		c10.278-31.41,15.436-60.992,19.477-89.984c1.439-14.445,3.688-28.754,5.725-42.832c1.894-14.043,3.398-27.941,4.396-41.727
		c4.248-55.094,8.857-106.988,11.65-157.148c5.633-49.023,10.168-95.586,21.977-138.031c1.703-5.156,2.703-10.977,4.277-16.406
		c2.028-4.844,4.11-9.832,5.881-15.297l2.815-8.176c1.267-2.379,2.565-4.754,3.717-7.344c2.492-4.98,4.664-10.863,7.729-15.676
		c11.043-21.098,27.752-41.152,49.984-60.379l2.43-2.105c1.394-1.203,2.506-2.801,3.135-4.715
		c1.894-5.648-1.174-11.758-6.828-13.645c-34.604-11.512-71.916-6.586-105.43,8.344c-8.689,3.391-15.979,8.5-24.209,13.012
		c-4.057,2.324-7.947,4.859-11.922,7.426l-10.561,8.609c-7.101,5.789-13.929,12.051-20.804,18.449
		c-6.078,6.652-11.908,13.473-17.463,20.688c-45.013,57.773-63.756,125.883-70.901,190.363
		c-4.353,64.277,1.953,127.426,19.615,186.215C1248.312,870.331,1275.435,925.874,1316.39,975.995"/>
	<path fill="#995E7E" d="M2836.7,483.003c1.666,3.73,6.283,10.113,9.629,15.465c3.709,5.305,6.987,11.52,10.371,17.258
		c6.229,12.039,12.894,23.445,17.845,35.93c11.293,23.836,18.592,48.992,24.867,73.293c10.932,49.477,13.414,98.676,7.018,148.25
		c-1.189,12.309-4.172,24.906-5.996,37.191c-1.195,6.195-1.59,12.266-3.346,18.48c-1.863,6.199-3.513,12.414-5.072,18.645
		c-3.504,12.453-5.549,24.738-9.939,37.117c-4.647,12.391-9.067,24.715-13.088,37.129c-2.166,6.199-3.801,12.414-6.396,18.578
		l-8.235,18.449c-5.572,12.301-10.879,24.602-15.847,37.023c-4.94,12.793-11.06,21.766-16.289,32.871
		c-5.763,10.27-12.265,19.703-17.94,29.719c-12.953,18.355-26.049,36.277-41.658,50.902c-14.597,15.707-31.174,29.066-49.258,40.719
		c-35.854,23.527-77.549,42.469-125.597,57.82c-47.918,15.602-101.703,26.957-159.373,36.508
		c-57.806,9.508-119.196,17.078-185.942,26.875l-0.748,0.113c-2.324,0.313-4.535,1.41-6.314,3.18
		c-4.406,4.406-4.406,11.508-0.016,15.926c25.155,25.246,52.998,45.438,82.658,62.805c29.561,17.477,60.879,31.832,93.551,43.434
		c65.338,23.039,136.524,34.777,210.992,31.063c74.059-3.891,152.271-24.832,221.531-67.109
		c69.946-41.016,128.373-101.84,170.166-168.145c9.934-16.695,19.606-33.734,28.01-50.977c7.389-17.125,16.625-35.25,22.119-51.645
		c5.967-16.527,11.637-33.164,16.987-49.855l8.176-24.977c2.521-8.445,4.237-17.402,6.396-26.047
		c4.172-17.441,7.935-34.957,11.461-52.438c3.451-17.555,4.597-36.23,6.82-54.203c2.309-18.008,3.588-36.145,2.869-54.918
		c-0.477-18.633,0.205-36.898-1.59-55.527c-6.23-74.316-28.963-149.023-67.426-213.059c-10.402-15.641-20.674-31.121-32.135-45.602
		c-12.074-14.148-23.832-28.117-37.48-40.531c-13.096-12.703-27.389-24.211-42.377-34.625c-7.699-5.102-14.973-10.242-23.172-14.852
		c-8.115-5.043-15.479-8.52-26.344-13.871c-11.006-5.32-24.391-6.016-36.42-0.605c-21.537,9.707-31.127,35.027-21.408,56.563
		L2836.7,483.003z"/>
	<path fill="#995E7E" d="M1769.335,471.253c1.734,32.762,6.012,64.625,15.738,94.828l6.949,22.453
		c2.612,7.383,5.979,14.566,8.955,21.734c5.526,14.391,13.719,28.047,21.408,41.332c1.59,2.727,4.405,4.777,7.737,5.27
		c5.903,0.84,11.354-3.219,12.209-9.086l0.062-0.488c8.646-59.383,19.19-113.652,35.867-162.281
		c16.344-48.699,39.6-89.926,68.418-122.855c28.594-33.074,63.377-59.621,106.202-77.484
		c42.135-18.352,88.744-31.629,139.145-38.168c50.35-9.16,97.441-8.707,143.975-6.711c11.439,1.281,22.408,3.855,33.688,5.52
		c5.603,0.879,11.394,1.332,16.935,2.43l16.088,4.703c22.141,4.844,42.127,14.648,63.225,22.93
		c40.295,20.129,78.023,48.555,110.939,84.316c8.547,8.68,15.569,18.734,25.274,27.039c8.51,9.188,18.306,17.895,28.78,26.652
		c21.174,17.625,44.588,35.211,78.14,52.906l1.574,0.813c0.304,0.145,0.562,0.273,0.854,0.402
		c6.654,2.898,14.422-0.137,17.299-6.809c16.101-37.039,16.07-72.156,10.195-105.191c-6.291-33.008-20.453-63.518-39.705-90.629
		c-37.479-54.809-86.223-105.051-145.578-142.531c-59.584-37.09-127.602-59.75-195.898-69.598
		c-33.717-1.871-68.578-7.238-101.379-2.891l-49.795,3.82c-16.383,1.629-31.848,5.711-47.774,8.555
		c-63.074,11.031-127.086,33.969-187.252,67.156c-14.793,9.324-29.856,17.531-43.998,28.008l-41.183,33.455
		c-12.701,12.631-24.836,25.908-36.69,39.143c-11.22,13.898-21.074,29.082-30.826,43.939
		C1782.001,335.452,1766.406,405.999,1769.335,471.253"/>
	<path fill="#664157" d="M2674.239,2749.886c0,0-41.849,4.844-71.938,22.504l-41.149-15.852l-31.362-12.133l-30.326-14.189
		c-20.129-9.621-40.537-18.828-60.517-28.773c-78.78-41.938-153.293-91.395-221.211-149.055
		c-19.623-16.699-38.365-34.375-56.603-52.551c-4.043-16.422-13.276-59.707-5.951-86.563c0,0-62.096-18.215-103.86-42.121
		c-56.54-77.957-103.308-163.445-138.486-254.059c-12.801-32.742-23.746-66.23-33.746-100.078
		c11.074-24.109,30.824-61.043,57.401-85.668c0,0-53.847-20.621-88.41-44.406c-1.908-10.582-4.192-21.074-5.875-31.703
		c-7.563-44.824-12.194-90.168-14.987-135.559c-2.597-45.035-3.293-91.785-0.105-134.98l-60.076-7.027
		c-5.594,49.691-6.42,96.445-5.617,144.559c1.098,47.762,4.148,95.527,10.295,142.953c11.303,94.977,32.613,189.055,64.195,280.086
		c17.381,50.5,38.494,99.91,62.481,148.008c-36.403,63.652-152.953-5.457-152.953-5.457
		c333.711,216.648,417.572,497.957,417.572,497.957c45.836-10.461,161.4,4.566,216.392,12.758c1.649,0.992,3.231,2.051,4.883,3.012
		c21.265,11.668,42.981,22.551,64.549,33.832l32.438,16.652l33.348,14.461l66.857,28.719l68.396,24.156
		c166.26,20.363,83.006,49.23,273.647,63.18l7.845-145.98c-176.813-6.109-73.709-1.984-229.631-32.113
		C2697.078,2801.499,2671.172,2783.452,2674.239,2749.886"/>
	<path fill="#664157" d="M1683.499,2256.468c-77.775,4.965-555.619-319.23-555.619-319.23l-102.545-97.461
		c0,0,74.406-21.59,172-21.59C1799.208,1818.187,1683.499,2256.468,1683.499,2256.468"/>
	<path fill="#664157" d="M3089.638,1972.909l-225.641,16.762c0,0-0.137,0-0.266,0.113
		c-492.576,103.109-648.656,356.391-648.656,356.391c-33.369-64.082-66.76-267.359,80.862-398.336
		c147.617-130.863,504.099-164.242,595.938-94.648C2983.845,1922.757,3089.638,1972.909,3089.638,1972.909"/>
	<path fill="#664157" d="M1441.228,689.14c1.232,18.426,3.271,36.836,5.019,55.324c0.97,9.234,1.908,18.477,3.385,27.676
		l5.912,27.41c4.588,18.145,8.115,36.617,14.004,54.422c23.31,71.59,60.621,138.273,107.845,195.18
		c47.53,56.82,104.813,102.625,164.43,140.484c59.879,37.465,122.891,68.191,190.666,83.48
		c67.191,14.711,139.684,17.578,206.042-8.016c2.09-0.816,3.953-2.227,5.301-4.18c3.572-5.23,2.248-12.32-2.953-15.887l-0.537-0.348
		c-55.557-38.125-101.137-72.945-145.217-108.617c-43.596-35.297-85.633-69.531-120-110.074
		c-34.611-40.023-62.969-82.902-86.314-126.004c-21.885-44.059-40.916-86.939-56.344-131.637
		c-28.434-88.609-46.752-191.379-37.994-289.004c4.406-49.414,15.391-99.719,34.988-151.074
		c4.709-12.988,10.901-25.246,16.336-38.621c6.608-12.289,12.408-25.98,19.979-38.41c13.875-26.094,30.953-51.742,49.637-77.012
		l0.992-1.371c1.656-2.195,2.422-5.039,1.953-7.984c-0.895-5.836-6.383-9.828-12.233-8.902
		c-136.041,21.254-255.133,127.441-315.209,263.52c-31.444,67.898-45.026,142.25-48.668,214.922
		C1441.826,652.577,1441.257,670.823,1441.228,689.14"/>
	<path fill="#664157" d="M2743.233,644.804c1.144,6.988,1.61,13.406,2.271,19.816c0.97,6.293,1.976,12.492,3.383,18.563
		c1.65,6.191,0.894,11.645,1.537,17.383c0.129,5.555,1.228,11.422,0.804,16.602c-2.065,9.832-0.916,20.422-5.117,28.434
		c-1.649,4.176-1.938,8.605-4.021,12.52c-2.34,3.852-4.481,7.66-6.344,11.527c-1.227,3.953-5.293,7.504-8.033,11.234
		c-3.27,3.656-5.078,7.512-9.031,11.152c-4.02,3.656-7.789,7.434-11.498,11.172l-5.594,5.68l-7.131,5.418
		c-36.588,29.336-85.322,56.691-135.785,82.906c-51.613,25.703-104.314,51.758-158.705,77.203l-20.258,9.621l-17.646,7.902
		c-11.528,5.625-23.104,9.445-34.692,13.543c-23.147,7.199-46.237,13.398-69.03,14.859c-45.625,4.996-90.601-3.527-135.564-24.754
		c-44.891-21.152-88.07-55.813-127.557-97.004c-39.771-41.098-76.095-89.16-109.826-139.816l-0.424-0.645
		c-2.066-3.125-5.775-4.996-9.742-4.59c-5.763,0.602-9.939,5.754-9.326,11.5c6.623,64.189,26.533,125.398,55.799,184.559
		c29.742,58.602,71.233,115.051,129.676,158.887c29.037,21.895,62.293,40.023,98.235,52.734
		c35.929,13.027,74.571,18.797,112.506,19.684c38.213,1.051,75.451-4.348,110.899-13.145c17.558-4.652,35.193-9.406,51.689-15.867
		l24.717-9.09l21.438-9.023c57.17-23.445,114.383-49.84,170.91-80.137c28.297-16.305,56.64-32.121,84.375-52.227
		c13.906-8.91,27.806-20.5,41.566-31.379c13.695-10.309,26.949-24.238,40.076-37.313l9.781-9.891l9.362-11.578l18.229-23.555
		c5.883-7.922,10.66-18.047,15.813-27.051c4.83-9.43,10.401-18.016,13.506-28.824c3.588-10.363,6.972-20.734,10.129-31.098
		c2.892-10.402,3.603-21.426,5.086-32.09c3.771-21.773,0.205-42.008-0.97-62.469c-12.574-78.473-44.996-142.309-121.977-169.879
		c-0.332-0.129-0.719-0.234-1.082-0.328c-7.207-1.922-14.604,2.371-16.525,9.563l-0.188,0.879
		c-5.392,20.285-7.106,37.605-7.269,53.73C2741.558,616.241,2741.097,631.042,2743.233,644.804"/>
	<path fill="#664157" d="M2520.582,863.675l-0.076,0.242c-0.734,2.742-0.408,5.762,1.127,8.426c3.059,5.27,9.805,7.043,15.064,3.992
		c53.938-31.371,98.178-76.715,127.836-136.461c15.08-29.398,24.914-63.949,27.057-100.512c2.49-36.551-4.861-75.695-21.076-109.891
		c-16.041-34.395-40.15-63.102-66.555-85.336c-26.58-22.355-55.664-38.773-85.301-50.93c-59.545-23.77-120.916-33.391-182.81-26.316
		c-3.181,0.402-6.179,2.184-7.918,5.121c-3.082,5.031-1.453,11.609,3.604,14.633l0.711,0.438
		c50.205,30.324,98.123,59.25,138.934,90.863c40.695,31.656,73.111,66.23,87.736,102.082c14.692,35.465,15.754,75.723,6.102,124.391
		C2556.394,753.034,2536.698,804.738,2520.582,863.675"/>
	<path fill="#664157" d="M2271.133,293.507c-45.162,3.98-88.522,15.52-131.158,32.832c-42.014,18.031-83.717,41.766-119.069,76.66
		c-17.722,17.301-33.605,37.277-47.079,59.383c-13.437,22.164-23.127,46.965-29.879,72.414c-6.912,25.539-9.213,52-9.03,77.836
		c-0.312,26.125,4.065,50.906,9.471,76.602c12.203,50.93,38.797,100.582,75.413,139.387c36.662,38.941,80.939,67.328,126.352,87.289
		c22.804,9.766,45.763,18.359,69.095,24.598c23.414,6.008,47.19,9.016,70.978,9.188c23.746,0.242,47.471-2.391,70.854-8.441
		c23.347-6.234,46.199-15.012,68.267-30.75c1.137-0.824,2.182-1.867,3.021-3.125c3.746-5.578,2.278-13.133-3.33-16.91l-0.646-0.426
		c-41.969-28.203-80.492-44.422-117.828-58.863c-36.979-14.844-73.619-23.406-107.313-37.488
		c-67.488-28.629-117.352-73.238-139.023-137.117c-22.188-66.855-18.17-136.613,25.563-197
		c42.545-60.965,114.405-109.531,190.078-146.133l0.711-0.348c3.731-1.797,6.146-5.801,5.769-10.184
		C2281.86,297.226,2276.84,292.991,2271.133,293.507"/>
	<path fill="#664157" d="M2256.015,579.769c-9.221-37.508-13.809-80.543-20.258-126.32l-0.143-0.969
		c-0.41-2.773-1.887-5.398-4.301-7.207c-4.814-3.566-11.643-2.543-15.215,2.301c-29.563,40.063-45.762,86.457-50.092,137.883
		c-1.514,25.652,0.113,53.059,8.871,80.727c8.313,27.613,24.498,55.828,48.055,77.586c23.431,22.012,52.953,35.758,81.222,42.352
		c28.539,5.953,55.737,5.707,81.369,2.074c50.851-8.16,95.217-28.703,133.082-59.727c2.082-1.742,3.58-4.23,3.959-7.133
		c0.84-6.094-3.451-11.689-9.562-12.473l-0.25-0.039c-47.518-6.336-90.787-7.344-129.055-13.309
		c-18.818-3.504-36.352-6.957-50.924-12.598c-14.443-5.609-25.646-12.352-35.004-20.566
		C2279.325,646.628,2264.903,617.605,2256.015,579.769"/>
	<path fill="#664157" d="M2313.276,487.468c-3.035,13.543-3.746,25.086-3.535,35.867c-0.267,11.137,1.233,20.809,3.135,30.129
		c3.979,18.461,10.804,34.496,20.09,48.418c9.28,13.914,20.295,26.344,37.828,33.195c17.623,6.781,38.539,10.734,72.228,3.73
		c6.828-1.484,12.93-6.305,15.549-13.332c12.096-32.223,11.36-53.488,7.365-71.939c-4.066-18.387-14.679-31.172-27.01-42.488
		c-12.332-11.297-27.146-20.508-44.771-27.254c-8.94-3.301-18.269-6.223-29.306-7.707c-10.619-1.855-22.119-2.906-36.002-1.984
		C2321.48,474.636,2314.987,479.882,2313.276,487.468"/>
</g>
</svg>
