<?xml version="1.0" encoding="utf-8"?>
<!-- Generator: Adobe Illustrator 16.0.0, SVG Export Plug-In . SVG Version: 6.00 Build 0)  -->
<!DOCTYPE svg PUBLIC "-//W3C//DTD SVG 1.1//EN" "http://www.w3.org/Graphics/SVG/1.1/DTD/svg11.dtd">
<svg version="1.1" id="Layer_1" xmlns="http://www.w3.org/2000/svg" xmlns:xlink="http://www.w3.org/1999/xlink" x="0px" y="0px"
	 width="4000px" height="4000px" viewBox="0 0 4000 4000" enable-background="new 0 0 4000 4000" xml:space="preserve">
<g>
	<rect x="1642.896" y="3134.063" fill="#998B5C" width="152.838" height="814.525"/>
	<polygon fill="#998B5C" points="2390.564,3131.877 2217.302,3517.83 2302.994,3718.78 2561.937,3131.877 	"/>
	<polygon fill="#998B5C" points="2206.992,3635.565 2196.635,3611.565 1992.689,3131.877 1821.517,3131.877 2185.056,3982.555 
		2271.636,3787.174 	"/>
	<path fill="#665C3E" d="M2266.904,2409.899c-25.971,15.119-54.373,29.107-69.311,39.441
		c-63.385,43.303-150.766,18.418-220.047,34.641c-40.734,9.398-116.305,122.014-187.828,115.01
		c-63.219-6.262-79.426,24.875-82.189,32.068c10.125-32.068-53.805-32.068-53.805-32.068s6.801-22.305-11.236-39.09
		c-18.277-16.941-36.313,18.072-54.586,41.115c-18.049,23.039-87.137,30.227-87.137,30.227s-9.611-38.699-35.029-53.27
		c-21.779-12.332-35.414,5.172-39.086,10.684l-0.91,1.48c-16.977-6.07-53.281-61.744-53.281-61.744
		c-28.949-94.91-76.668-19.908-76.668-19.908c-11.244,0-16.6-16.389-16.6-16.389l-10.836-23.039
		c-10.895-23.039,48.434-90.867,64.107-117.416c15.865-26.705,26.717,3.518,37.611,9.596c10.865,6.074,9.564-6.078,40.004-47.184
		c30.205-41.107,86.797,24.148,86.797,24.148c15.477,0,256.189-66.168,278.293-99.348c21.928-32.99-35.385-26.352-92.889-88.283
		c-57.299-61.75-72.799-110.379-72.799-143.572c0-32.99-63.941-112.619,6.623-194.261c55.127-63.586,359.041-39.064,490.274-25.25
		c2.025,5.158,3.867,10.516,5.516,15.842c35.201,108.391,36.682,215.099,35.764,256.001c-1.846,72.266,10.879,95.842,33.545,131.617
		c14.004,22.096,31.33,49.564,53.074,109.658c9.795,27.271,18.807,56.021,27.455,87.365l2.596,10.133
		C2265.263,2402.141,2266.168,2406.014,2266.904,2409.899"/>
	<path fill="#665C3E" d="M1337.433,2629.74c-29.84-37.598-41.643-84.426-41.643-84.426s47.719-74.988,76.668,19.922
		C1335.409,2586.434,1337.433,2629.74,1337.433,2629.74"/>
	<path fill="#665C3E" d="M1489.115,2765.389c-65.602-76.658-63.383-138.418-63.383-138.418l0.918-1.473
		c3.672-5.539,17.307-23.045,39.07-10.697c25.445,14.559,35.014,53.271,35.014,53.271
		C1467.741,2694.992,1487.831,2760.61,1489.115,2765.389"/>
	<path fill="#665C3E" d="M1689.103,2649.463c-46.615,58.234-112.234,47.916-112.234,47.916
		c50.482-24.703,58.422-80.004,58.422-80.004S1699.228,2617.375,1689.103,2649.463"/>
	<path fill="#665C3E" d="M1321.962,1370.913c-0.557,1.107-1.102,2.203-1.84,3.51l-11.426,13.641
		c-11.25,11.594-28.58,25.057-48.668,39.061c-19.711-31.508-75.93-119.254-113.729-152.229
		c-46.246-40.719-45.15-196.096-59.156-248.449c-13.828-52.17-100.992-71.879-115.916-94
		c-15.115-21.902-82.402-69.842-89.029-77.949c-6.611-7.939,21.398-37.428,21.398-37.428c7.184-20.463-57.33-20.463-57.33-20.463
		c-8.83-7.363-14.371-53.621-14.371-53.621c23.396-49.57-37.785-47.734-37.785-47.734c-14.566-56.771,17.508-85.881,17.508-98.244
		c0-7.924,16.207-10.699,34.078-16.402h0.197c9.953-3.126,20.293-7.182,28.555-13.275c22.332-16.396-12.332-36.289-15.818-38.143
		l-0.217-0.191c40.738-60.443,135.85-28.203,170.141,4.611c34.279,32.797,20.828,25.434,77.605,40.354
		c51.939,13.648-19.537,70.059,4.586,104.334c47.75,68.376,239.404,217.105,239.404,217.105
		C1411.712,1118.971,1321.962,1370.913,1321.962,1370.913"/>
	<path fill="#665C3E" d="M837.603,567.337c-8.299,6.086-18.609,10.141-28.57,13.268h-0.18c-31.352-1.088-57.135,3.502-57.135,3.502
		c26.354-30.955,69.859-55.104,69.859-55.104l0.168,0.184C825.255,531.016,859.896,550.932,837.603,567.337"/>
	<path fill="#665C3E" d="M795.013,761.411c-46.992,3.129-64.873,36.314-64.873,36.314c-4.051-51.975,27.104-84.045,27.104-84.045
		S818.441,711.839,795.013,761.411"/>
	<path fill="#665C3E" d="M866.72,835.509c0,0-28.002,29.482-21.391,37.412c-35.385,6.645-58.793,21.748-58.793,21.748
		c-1.641-45.512,22.861-79.639,22.861-79.639S873.913,815.03,866.72,835.509"/>
	<path fill="#998B5C" d="M2713.66,2014.729c-41.293-23.215-42.576-51.602-46.443-102.287c-1.672-21.928-3.689-48.084-9.779-79.809
		c-68.559-359.563-362.146-736.107-393.488-784.576c-31.146-48.477-9.219-61.197,70.588-112.063
		c79.643-50.701,43.879-116.488,43.879-116.488c-89.021,152.414-156.654-72.783-141.373-97.498
		c15.484-24.865,115.205,24.145,115.205,24.145c-5.912-44.793,43.49-101.012-17.141-99.166c-60.824,1.842-82.58-42.383-82.58-42.383
		c16.389-11.799,45.332-1.291,97.334,20.639c35.729,14.936,72.596,42.391,119.795,31.143c44.205-10.498,59.875-45.877,61.729-50.297
		c-37.779,49.215-57.139,41.456-89.584,45.695c-31.496,3.875-128.457-61.365-134.162-65.436c1.838,0.934,14.367,5.92,49.199,1.129
		c38.348-5.372,53.66,6.431,112.818-2.399c96.012-14.385,99.879-76.316,99.879-76.316c-40.354,91.785-150.58,70.596-201.08,71.695
		c-50.498,0.926-123.117-35.383-123.117-35.383s31.344-18.063,68.744-0.922c37.232,17.143,140.262,20.082,145.422-90.867
		c4.979-111.131-182.092-233.314-297.094-265.574c-115.012-32.08-177.301-147.824-177.301-147.824
		c-3.508,99.893-65.064,17.506-65.064,17.506c0,105.068-74.838,86.447-74.838,86.447c7.006,46.812-239.047,387.783-345.949,520.304
		c-107.066,132.492-112.242,249.73-112.242,249.73c61.564,223.553-28.201,475.518-28.201,475.518
		c-0.541,1.1-1.111,2.203-1.842,3.494c-2.566,4.049-6.258,8.66-11.432,13.633c-11.25,11.617-28.557,25.08-48.646,39.084
		c-65.057,45.324-158.311,97.129-171.773,113.168c-19.914,23.561-51.051-22.484-75.936-27.467
		c-24.869-4.979-46.063,48.459-90.875,46.061c-44.779-2.574-62.285,140.637-62.285,140.637
		c12.523-19.902,52.352-11.252,73.521-4.979c21.049,6.277,17.354,65.975,17.354,65.975c22.486,12.363,36.662,45.355,40.902,56.957
		l0.738,2.203c0.205,0.572,0.361,0.922,0.564,1.299l-0.357-1.299c-2.428-9.58-12.371-56.758,27.816-55.473
		c44.777,1.299,47.361,44.805,47.361,44.805c34.828,26.156,58.445-17.338,113.168-39.824c54.918-22.291,71.695,31.717,71.695,31.717
		c41.279-1.668,67.283-44.609,67.283-44.609c62.641-15.664,222.629-128.66,222.629-128.66
		c-3.129,21.936-25.061,50.141-25.061,50.141c115.936-56.41,150.529-129.193,150.529-129.193
		c34.459,12.523,11.469,61.389,11.469,61.389c84.588-15.67,195.813-32.744,195.813-32.744
		c110.219,31.332,78.262,44.617,193.254,97.793c32.879,15.193,31.359,65.053,42.041,98.594
		c33.521,103.396,38.881,208.087,37.398,268.181c-2.758,112.613,30.424,77.965,84.607,227.969
		c8.846,24.695,18.426,54.373,28.371,90.502c0.934,3.502,1.842,7.008,2.775,10.51c61.916,246.951-143.592,295.805-171.77,294.16
		c-28.566-1.672-44.068-70.781-63.596-57.891c-19.529,13.082-31.691,52.15-69.313,34.291
		c-37.396-17.889-98.213,129.57-98.213,129.57c6.631-4.422,12.535-7.742,17.863-9.943c47.373-20.48,48.096,34.283,48.865,62.115
		c0.727,30.945,25.975,73.133,25.975,73.133c48.834-48.818,89.577,32.656,89.577,32.656
		c85.316,45.498,107.813-11.633,159.445-40.383c49.736-27.82,26.883,31.707,25.398,35.582
		c31.162-15.289,42.025,12.344,42.025,12.344c94.563-98.047,122.006-136.941,122.006-136.941
		c13.275,17.703,17.711,75.191,17.711,75.191c35.561-15.471,42.203-57.488,102.086-106.322
		c59.727-48.668,126.264-146.367,156.857-237.779c74.463-222.279-23.77-313.131-23.77-363.068
		C2681.045,2136.186,2773.008,2048.098,2713.66,2014.729 M2189.681,401.118c-17.307-15.107-42.938-79.957-44.424-84.031
		l43.854,22.658l79.273,41.116c0,0-24.346,32.24-36.678,35.574C2221,419.368,2198.154,408.495,2189.681,401.118"/>
	<path fill="#998B5C" d="M1945.292,2878.367c-41.846,25.068-44.975,65.438-44.975,65.438
		c-29.666-90.518-21.746-117.592-21.746-117.592l17.871-9.961C1943.816,2795.789,1944.538,2850.535,1945.292,2878.367"/>
	<path fill="#998B5C" d="M2054.017,3059.176c-50.863-54.57-64.307-107.645-64.307-107.645c48.85-48.85,89.575,32.627,89.575,32.627
		C2042.603,3014.567,2054.017,3059.176,2054.017,3059.176"/>
	<path fill="#998B5C" d="M2287.722,2991.721c-35.561,40.549-66.164,37.588-66.164,37.588c28.566-25.986,24.146-49.951,24.146-49.951
		C2276.849,2964.061,2287.722,2991.721,2287.722,2991.721"/>
	<path fill="#998B5C" d="M968.458,1815.831c-22.277,36.309-16.777,65.602-16.777,65.602
		c-64.502-70.75-74.098-126.604-74.098-126.604c12.553-19.896,52.359-11.236,73.568-4.975
		C972.146,1756.112,968.458,1815.831,968.458,1815.831"/>
	<path fill="#998B5C" d="M1099.368,1914.569c-26.348-10.273-54.629-50.482-54.629-50.482l-0.297-1.029
		c-1.943-7.75-9.994-45.861,22.469-44.797c36.184,1.033,38.279,36.16,38.279,36.16
		C1091.032,1886.143,1099.368,1914.569,1099.368,1914.569"/>
	<path fill="#998B5C" d="M1288.786,1856.198c-37.953,76.668-106.896,54.016-106.896,54.016
		c43.846-30.242,35.217-85.723,35.217-85.723C1272.011,1802.19,1288.786,1856.198,1288.786,1856.198"/>
	<path fill="#998B5C" d="M3062.033,778.219c0,0,14.746,213.783-9.75,363.629c-24.521,149.646,39.064,382.828,93.252,444.561
		c-9.58-8.107-317-270.363-333.973-594.406c0,0-103.223-76.104-50.287-211.201c0,0,79.805,181.727,143.561,56.381
		c63.951-125.138-83.498-166.957-127.742-122.721c-44.234,44.229-117.748,76.121-39.248,292.303
		c78.699,216.195,147.443,338.939,206.441,496.336c58.947,157.207,132.492,186.695,132.492,186.695s-63.773,46.633-115.367,12.18
		c0,0-95.824,163.105-266.492,192.041c-1.684-21.932-3.697-48.115-9.791-79.818c0,0,138.781-45.883,124.064-153.891
		c-14.754-108.182-152.439-83.68-152.439-83.68s53.828-80.891,153.51-73.527c99.543,7.367,51.463-63.955-76.844-265.422
		c-128.279-201.424-160.156-493.742,27.855-619.063c187.785-125.33,502.225-334.14,197.73-520.869
		c0,0,311.871-68.746,250.486,329.166c0,0,68.723,3.691,81.086-128.252C3290.578,298.661,3438.021,589.112,3062.033,778.219"/>
	<path fill="#665C3E" d="M3781.42,1822.3c0,783.974-508.957,1451.429-1213.723,1689.398l88.951-201.305
		c570.529-252.811,969.547-824.846,969.547-1488.093c0-377.979-129.504-726.328-346.732-1002.844
		c42.588-35.014,78.285-73.408,106.871-114.936C3633.33,1010.436,3781.42,1399.468,3781.42,1822.3"/>
	<path fill="#665C3E" d="M2918.181,295.677c-10.502,14.406-28.01,34.783-57.535,60.914c-18.867,16.707-39.602,33.287-61.18,49.443
		c-74.1-42.156-151.869-78.558-232.705-108.594c-71.012-115.205-210.367-198.889-311.018-239.045
		C2495.199,93.016,2719.297,175.485,2918.181,295.677"/>
	<path fill="#665C3E" d="M1688.568,129.675c-13.744,25.457-38.279,64.551-68.869,110.23h-0.129
		c-165.047,39.471-320.563,104.301-461.938,190.129h-0.129c-4.02-1.473-8.205-2.695-12.527-3.777
		c-3.785-1.066-7.287-2.018-10.52-2.824c-0.125,0-0.238-0.15-0.238-0.281c-36.133-34.494-86.926-60.482-139.484-72.75
		c202.26-138.406,434.43-236.34,684.695-281.777L1688.568,129.675z"/>
	<path fill="#665C3E" d="M1487.792,3366.977v162.902C753.245,3309.713,216.658,2627.588,216.658,1822.3
		c0-389.301,125.447-749.908,338.109-1043.389l22.627-4.453c-0.66,11.463-0.535,23.172,0.422,35.178l15.207,194.457v0.129
		C452.478,1244.757,371.89,1524.214,371.89,1822.3C371.89,2540.938,840.187,3152.309,1487.792,3366.977"/>
</g>
</svg>
