<?xml version="1.0" encoding="utf-8"?>
<!-- Generator: Adobe Illustrator 16.0.0, SVG Export Plug-In . SVG Version: 6.00 Build 0)  -->
<!DOCTYPE svg PUBLIC "-//W3C//DTD SVG 1.1//EN" "http://www.w3.org/Graphics/SVG/1.1/DTD/svg11.dtd">
<svg version="1.1" id="Layer_1" xmlns="http://www.w3.org/2000/svg" xmlns:xlink="http://www.w3.org/1999/xlink" x="0px" y="0px"
	 width="4000px" height="4000px" viewBox="0 0 4000 4000" enable-background="new 0 0 4000 4000" xml:space="preserve">
<g>
	<path fill="#54663E" d="M3793.361,1830.436c0,866.331-617.276,1591.246-1434.954,1758.191l79.379-180.035
		c690.854-192.17,1199.257-826.789,1199.257-1578.157c0-441.522-175.64-842.795-460.677-1137.636
		c19.688,1.222,35.96,1.496,46.043,1.496c58.012,0,102.417-12.544,132.731-37.623
		C3628.075,971.515,3793.361,1382.016,3793.361,1830.436"/>
	<path fill="#54663E" d="M1979.855,36.25c-7.843,7.578-14.858,15.308-20.938,22.452c-40.259,47.026-59.005,91.944-56.92,136.61
		c-858.226,50.328-1540.96,764.485-1540.96,1635.125c0,751.108,507.944,1385.604,1198.541,1577.997l76.661,179.508
		C820.061,3419.627,204.717,2695.674,204.717,1830.438C204.716,847.461,999.265,46.594,1979.855,36.25"/>
	<polygon fill="#79995C" points="2189.124,3175.637 2024.034,3543.416 2105.676,3734.871 2352.398,3175.637 	"/>
	<polygon fill="#79995C" points="2014.223,3655.592 2004.334,3632.713 1810.031,3175.637 1646.918,3175.637 1993.299,3986.194 
		2075.79,3800.033 	"/>
	<path fill="#54663E" d="M2275.41,3065.471c-5.792,24.5-152.739,39.74-184.939-16.988c-32.021-56.469,3.861-41.436,134.025-184.717
		c130.172-143.278,137.688-192.263,77.354-280.977c-60.365-88.675-135.787-275.354-135.787-275.354l1.55-1.728
		c3.639-0.213,6.924-0.398,9.834-0.398c72.691-2.498,124.182-86.772,124.182-86.772c21.029,25.83,0,100.664,46.856,229.475
		c17.749,48.409,79.854,90.608,153.709,130.141c12.729,35.501,23.118,63.842,27.748,74.459
		c16.972,37.601-250.873,307.373-262.071,333.789C2256.502,3012.633,2281.002,3040.996,2275.41,3065.471"/>
	<polygon fill="#54663E" points="2761.552,1871.528 3064.08,1856.402 3351.483,2253.042 2953.149,1953.885 2775.005,1958.918 	"/>
	<polygon fill="#54663E" points="3102.656,1856.402 3390.059,2253.035 3461.555,2102.215 	"/>
	<polygon fill="#54663E" points="3515.449,1938.844 3474.188,2070.352 3201.51,1886.952 	"/>
	<path fill="#54663E" d="M1207.734,2078.624c-1.538,6.173-3.66,13.331-6.373,21.031c-14.628-15.225-175.673-16.585-187.443-19.296
		c-11.939-2.498,15.631,36.858,67.117,97.393c51.305,60.572,47.255,5.417,94.704-37.783c4.024-3.659,8.485-6.761,13.114-8.878
		c-24.338,55.348-66.916,131.899-113.981,211.941c-25.272-18.317-204.801-223.309-206.318-309.34
		c-1.377-85.804,112.235-101.984,166.012-109.126c53.993-7.34,77.316-20.458,91.816-99.143
		c14.637-78.668,37.195-106.23,37.195-106.23C1163.577,1841.643,1238.61,1945.397,1207.734,2078.624"/>
	<path fill="#54663E" d="M1413.013,2328.642c-16.38,26.041-57.464,40.67-101.985,47.829
		c43.765-58.99,76.746-113.971,104.702-159.881C1427.09,2244.961,1437.521,2289.476,1413.013,2328.642"/>
	<path fill="#54663E" d="M1673.358,727.504l-1.929-1.345c-25.452-20.849-46.675-35.11-52.838-38.982l-1.734-1.132
		c0,0,35.468-64.993,50.52-43.978C1682.43,663.082,1673.358,727.504,1673.358,727.504"/>
	<path fill="#79995C" d="M2960.177,3076.473c-25.667,0-154.441,21.031-187.241-6.951c-32.805-28.137,121.667-267.074,63.229-365.438
		c-36.632-61.504-192.056-118.386-314.713-183.784c-73.832-39.525-135.94-81.73-153.669-130.142
		c-46.861-128.813-25.844-203.629-46.861-229.481c0,0-51.47,84.284-124.166,86.79c-2.911,0-6.194,0.184-9.862,0.366
		c-71.158,3.285-271.91,16.401-473.981-84.85c0.169-0.366,0.382-0.771,0.563-1.138c4.629-8.878,9.254-17.755,13.69-26.035
		c14.85-27.991,76.738-89.295,113.579-126.139c37.618-37.195,54.554-54.385,63.466-68.646c12.311-20.242,14.629-42.809,6.364-62.679
		c13.47-15.217,26.013-29.104,32.565-35.086c92.755-86.387,153.294-150.417,209.048-220.796
		c10.962-13.866,20.051-27.015,27.563-39.336c211.74,59.992,468.204,120.143,545.933,211.929
		c130.921,154.669-35.862,529.532-14.093,594.526c26.25,77.904,220.613,216.151,220.613,216.151s27.973,313.765,56.123,391.089
		C3016.477,3074.166,2986.021,3076.473,2960.177,3076.473"/>
	<path fill="#79995C" d="M1818.57,1452.58c-41.458,98.704-89.685,206.525-102.408,224.271
		c-14.653,20.053-23.896,49.357-33.729,80.204c-2.697,8.503-6.195,19.511-9.838,29.519c-4.814-0.765-9.456-1.367-14.073-1.367
		c-31.837,0-53.427,19.687-62.097,42.451c-12.146,21.016-23.155,46.468-34.704,73.274c-12.543,28.931-35.313,81.953-50.146,94.886
		c-8.501,0.573-19.097,1.336-31.62,2.498c-155.625,14.661-197.297,43.187-211.946,81.557c-10.015,26.24-3.654,54.391,17.362,76.936
		c14.629,16.217,38.355,31.823,74.423,49.563c-24.112,39.549-52.255,84.274-87.356,131.517c-5.004,6.762-10.007,13.53-15.406,20.45
		c-167.009,215.609-194.785,375.667-194.785,448.743c0,0-99.683,24.3-138.263-4.819c-38.561-28.945-17.326-44.369-25.071-77.134
		c-4.818-20.236,121.501-215.808,226.02-393.602c47.03-79.998,89.688-156.559,113.961-211.92c5-11.374,9.246-21.977,12.531-31.427
		c2.725-7.723,4.834-14.866,6.359-21.009c30.88-133.265-44.15-237.004-44.15-359.454c0-122.464,53.619-150.622,66.344-319.149
		c12.712-168.552,114.911-336.903,102.199-349.821c-12.918-12.727-210.384,85.438-250.88,84.093
		c-40.702-1.383-91.785-24.499-63.442-102.618c0,0-68.271,16.004-63.65-26.988c4.827-43.002,12.741-25.456,20.808-68.447
		c7.902-42.816,112.834-58.813,146.209-82.74c33.558-23.712,100.239-103.351,251.465-119.173c0,0,128.8-117.826,157.34-106.635
		c28.746,11.186,17.559,89.08,17.559,89.08l1.735,1.177c5.571,3.452,23.911,15.813,46.659,33.911l-26.407,48.799
		c54.948,44.743,90.815,90.066,95.835,120.531c3.276,19.679,6.743,51.305,10.587,87.942c1.94,16.387,8.486,75.018,8.486,75.018
		l17.954,14.063c16.384,12.926,32.582,34.332,46.269,58.043c5.021,35.69,10.604,72.129,17.548,107.224l-55.521,7.897l13.489,58.061
		C1786.946,1373.321,1801.581,1417.69,1818.57,1452.58"/>
	<path fill="#79995C" d="M3115.597,546.234c-86.575-22.17-864.48-273.08-864.48-273.08s-19.686,26.822-44.941,23.744
		c-25.28-3.285,20.252,203.623,17.342,258.014c-2.882,54.368-1.521,106.638-16.182,113.961c0,0,11.75,8.099-8.876,36.064
		c0,0-6.545,27.953-22.748,55.921c-16.203,27.95-3.675,172.019-21.399,217.136c-17.934,45.332-17.934,51.686-3.293,82.137
		c14.862,30.486,14.862,152.361,14.862,152.361s-27.396,3.088-27.396,13.691c0,10.428-3.285,126.122,10.422,132.485
		c13.703,6.35,51.55,63.19,20.106,126.237c-12.338,24.666-26.129,61.006-59.666,103.647
		c-52.633,66.537-111.615,129.181-203.408,214.602c-20.655,19.273-75.805,85.047-75.805,85.047s42.421-0.185,27.402,24.285
		c-15.039,24.5-148.479,141.171-178.587,197.472c-4.637,8.68-9.436,17.913-14.081,26.997
		c-25.445,49.755-49.57,100.471-54.19,101.631c-4.224,0.948-136.702-38.387-222.126-78.89
		c-28.372-13.681-51.494-27.371-63.076-39.898c-38.95-42.046,86.024-60.167,159.683-67.103c13.872-1.161,25.845-2.123,34.681-2.689
		h0.217c55.536-3.873,89.865-140.973,126.892-200.164c0,0,1.555-22.214,36.647,0c35.292,22.163,51.104-105.694,76.75-140.805
		c25.643-35.286,118.771-259.373,118.771-259.373c-21.402-35.279-38.371-86.568-51.671-144.021
		c31.436-4.462,61.694-14.683,66.135-37.8c9.854-50.159-48.403-177.81-107.408-224.089c-6.96-60.938-11.956-112.813-16.767-142.707
		c-9.656-57.851-69.045-116.468-115.331-154.271c0,0,70.587,22.756,69.228-32.78c-1.538-55.733-30.083-136.91,0-199.985
		c30.082-63.244,59.992-114.352,93.145-102.191c32.985,11.95,180.307,116.275,207.496,270.956c0,0,38.58-45.339,75.606-62.496
		c0,0-6.952-20.635,4.794-35.109c11.578-14.271-0.547-290.597-8.485-312.017c-8.091-21.404-3.643-52.625-3.643-52.625
		s-50.906-12.538-53.596-29.511c-2.721-16.982,44.735-70.586,55.322-69.617c10.81,0.978,74.246,20.626,84.85,20.626
		c10.809,0,31.625-9.816,43.986,6.959c0,0,26.987-2.14,37.026,11.184c0,0,7.708-31.426,12.33-29.893
		c4.802,1.346,27.2-1.535,25.256,6.159c-1.921,7.531-16.593,54.007-12.918,55.939c3.855,1.918,926.502,319.839,944.532,327.807
		c18.928,8.396,38.652,25.744,37.139,32.146C3264.404,559.74,3171.065,560.458,3115.597,546.234"/>
</g>
</svg>
