<?xml version="1.0" encoding="utf-8"?>
<!-- Generator: Adobe Illustrator 16.0.0, SVG Export Plug-In . SVG Version: 6.00 Build 0)  -->
<!DOCTYPE svg PUBLIC "-//W3C//DTD SVG 1.1//EN" "http://www.w3.org/Graphics/SVG/1.1/DTD/svg11.dtd">
<svg version="1.1" id="Layer_1" xmlns="http://www.w3.org/2000/svg" xmlns:xlink="http://www.w3.org/1999/xlink" x="0px" y="0px"
	 width="4000px" height="4000px" viewBox="0 0 4000 4000" enable-background="new 0 0 4000 4000" xml:space="preserve">
<g>
	<path fill="#664F40" d="M3762.877,1821.915c0,778.054-506.375,1440.009-1206.782,1673.757v-162.895
		c614.11-227.125,1053.14-818.707,1053.14-1510.863c0-456.658-191.192-869.643-497.718-1162.881c-2.69-2.723-5.44-5.434-8.273-8.13
		c-13.017-23.724-23.018-49.875-30.854-76.167l0.782-0.533c-1.075-2.45-2.037-5.021-3.104-7.471
		c-23.175-82.923-24.55-163.794-24.55-163.794C3480.367,724.477,3762.877,1240.868,3762.877,1821.915"/>
	<path fill="#664F40" d="M2424.658,109.969c-64.498,39.435-118.564,82.667-162.479,123.463
		c-85.621-14.39-173.57-21.688-263.152-21.688c-100.793,0-199.158,9.334-294.854,27.227h-0.121
		c-45.125-49.198-94.863-92.977-147.57-124.672c141.453-36.702,289.724-56.225,442.546-56.225
		C2145.778,58.074,2288.344,76.093,2424.658,109.969"/>
	<path fill="#664F40" d="M1582.616,3536.168C810.251,3348.506,235.201,2651.203,235.201,1821.915
		c0-606.002,307.216-1141.615,774.109-1459.368c0,0-25.843,103-28.976,157.311c0,0,53.12-45.246,130.768-40.496
		C676.115,767.844,388.858,1261.9,388.858,1821.915c0,715.6,469.104,1323.625,1116.142,1532.693L1582.616,3536.168z"/>
	<rect x="2296.474" y="3172.998" fill="#99765D" width="148.239" height="790.012"/>
	<polygon fill="#99765D" points="2105.547,3170.955 1943.93,3530.914 2023.871,3718.358 2265.349,3170.955 	"/>
	<polygon fill="#99765D" points="1934.327,3640.733 1924.641,3618.324 1734.463,3170.955 1574.794,3170.955 1913.843,3964.369 
		1994.601,3782.125 	"/>
	<path fill="#99765D" d="M2957.513,1720.851c32.283-37.521,106.602-182.46,43.953-264.001c-4.518-5.852-9.604-11.309-15.458-16.427
		c-19.8-17.153-37.175-31.854-52.437-44.515c-2.652-1.889-5.133-3.946-7.583-6.035c-47.935-39.052-70.929-54.354-70.929-54.354
		s-2.841-30.756-9.656-74.716c-13.022-82.262-40.556-210.984-91.302-271.748c0,0,39.226,191.153,5.269,355.145
		c0,0-103.032-120.759-118.324-172.287c-15.104-51.503-51.512,16.427-37.369,79.624c13.955,63.243,56.253,80.978,36.235,83.224
		c-19.831,2.284-145.106-33.958-204.929,69.073c-59.65,103.03-36.234,192.102-17.547,356.1
		c18.688,163.988,58.869,257.583-88.34,295.131c-146.969,37.401-313.611,48.312-338.342,34.742
		c-24.55-13.784,70.397-200.795,149.848-256.478l-701.415,82.104c0,0,63.926,325.522-55.127,497.431l-12.835,10.377
		c0.563,0.558,0.939,1.338,1.503,1.9c14.346,19.238,29.06,40.188,44.523,62.433c30.396,35.693,62.859,90.399,91.542,134.968
		c1.308,2.248,3.014,4.503,4.517,6.787c67.188-53.211,139.635-114.365,178.906-168.904
		c-13.579,22.07-126.808,206.438-121.141,255.134c6.025,51.722,69.816,92.639,90.182,85.53
		c20.598-7.192,251.768-161.375,356.483-109.675c86.425,42.81,100.762,59.236,103.241,63.76
		c-1.721-9.423-14.917-69.253-68.51-104.503c0,0,55.082-45.508,97.929,22.432c0,0,13.017-44.382-24.91-64.152
		c-6.229-3.411-13.953-5.86-23.182-7.552h-0.218c-6.027-1.143-12.828-1.697-20.562-1.901c-90.197-1.9-251.729,46.974-304.022,16.593
		c0,0,1.878-1.128,5.485-3.367c6.042-3.592,16.238-10.213,29.238-18.893c24.339-16.044,58.307-39.797,90.979-66.232
		c9.032-7.356,18.11-15.089,26.797-22.836c19.808-17.547,37.535-35.845,50.745-53.42c10.378-13.946,21.131-19.401,31.892-18.659
		c15.479,0.744,31.539,14.338,47.567,32.847c12.631,14.894,25.639,33.025,38.488,50.579c6.584,9.033,13.377,18.313,20.185,26.617
		c14.548,18.463,29.065,33.575,43.404,40.166c5.08,2.456,12.256,5.283,20.942,8.874c11.334,4.524,25.084,9.979,40.933,16.427
		c114.964,45.298,331.239,131.316,365.739,200.225c0,0,0-71.14-40.219-108.141c0,0,86.471,19.636,117.762,65.855
		c0,0-3.953-91.697-106.602-119.263c-20.177-5.289-40.383-11.497-59.996-18.5c-62.102-21.499-118.324-49.249-150.23-74.544
		c-9.438-7.552-16.803-14.902-21.521-21.854c0,0,14.367,3.938,37.775,7.905c0.166,0,0.367,0,0.563,0.188
		c7.551,1.144,15.833,2.45,25.068,3.57c24.933,3.051,55.479,5.088,87.979,3.599c8.643-0.382,17.51-1.143,26.571-2.064
		c25.677-2.841,51.708-8.296,76.821-17.397c4.899-1.667,9.822-3.764,14.518-5.604c12.633-5.531,24.73-11.919,36.409-19.666
		c6.244-3.945,12.278-8.296,17.93-13.384c1.525-0.938,3.225-2.45,4.733-3.786c3.014-2.254,5.658-4.908,8.492-7.53
		c50.196-48.311,82.269-127.771,72.252-256.457c-33.561-432.333-238.121-491.983-90.559-673.136
		c0,0,100.574,208.535,127.777,247.228c0,0-4.749,194.167,49.814,271.883c0,0,4.32-56.021,36.032-93.375
		c0,0,139.251-23.048,123.425-122.284C2969.018,1752.586,2922.992,1761.265,2957.513,1720.851 M2860.328,1611.23
		c0,0-127.364-121.149-34.92-153.042c0,0,22.664,49.995,47.002,92.489C2896.555,1593.103,2860.328,1584.064,2860.328,1611.23"/>
	<path fill="#99765D" d="M3214.721,1964.856c0,0-34.334,97.765-65.114,231.553c-16.802,73.808-32.649,158.519-40.938,243.832
		c-23.235,240.23-69.638,333.06-329.677,520.246c-158.692,114.191-584.812,135.895-864.646,125.891
		c-280.082-10.002-425.737-218.738-508.606-296.471c-13.007-12.265-26.015-26.624-39.219-42.66
		c-0.209-0.392-0.578-0.563-0.789-0.908c-43.576-53.608-87.552-124.209-131.339-187.42c-1.69-2.668-3.562-5.271-5.282-7.733
		c-24.709-35.655-49.424-68.494-73.591-94.352c-81.689-86.81-163.988-26.407-207.018,0
		c-42.998,26.607-54.706,137.566,57.944,180.597c57.199,21.918,138.711-16.427,198.323-57.915
		c43.606,62.813,87.185,132.992,130.596,186.421c-264.368,133.984-551.777,27.751-577.447-186.421
		c-1.519-12.835-2.097-26.241-1.519-39.85c9.814-279.85,268.353-283.245,374.412-273.259
		c69.998,6.621,132.865,65.872,214.188,175.922c0.548,0.535,0.924,1.294,1.495,1.871c14.346,19.253,29.066,40.195,44.53,62.433
		c30.396,35.693,62.854,90.399,91.542,134.945c1.309,2.24,3.007,4.546,4.501,6.792c0.595,0.729,0.963,1.512,1.54,2.3
		c162.284,243.614,311.365,286.634,440.638,316.437c129.07,29.801,457.23,8.334,588.021-16.592
		c130.94-24.754,294.968-122.465,380.987-217.037c86.244-94.344,109.456-260.024,127.551-326.251
		c6.838-25.127,14.932-50.608,23.604-75.857v-0.218C3112.621,2146.602,3214.721,1964.856,3214.721,1964.856"/>
	<path fill="#99765D" d="M2333.642,1595.759c-132.294,85.671-193.041,199.841-193.041,199.841l-701.415,82.074
		c-22.304-100.402-126.471-65.07-135.36-62.058c-0.345,0.166-0.532,0.369-0.532,0.369
		c-14.174-364.786,133.231-617.086,276.835-774.846c130.964-143.807,259.102-208.89,259.102-208.89
		c0.744,13.563,2.457,27.532,4.899,41.869c0.933,5.667,2.074,11.529,3.576,17.353c16.428,75.874,55.082,157.798,103.625,237.978
		c142.649,235.529,371.933,456.308,381.934,465.938C2333.642,1595.569,2333.642,1595.759,2333.642,1595.759"/>
	<path fill="#99765D" d="M1822.059,752.799c-15.675,36.033-20.574,60.583-20.574,60.583s-128.131,65.083-259.116,208.888
		c-143.58,157.745-290.979,410.054-276.834,774.839c0,0-69.984-278.337-36.207-449.315
		c33.568-170.972-15.683-248.707-152.882-137.187l0.203-0.346c5.095-16.652,199.083-621.662,743.112-458.235
		C1820.557,752.235,1821.286,752.424,1822.059,752.799"/>
	<path fill="#99765D" d="M1848.473,663.715c-11.129,18.478-19.643,36.055-26.414,51.34c-0.759-0.375-1.502-0.579-2.276-0.759
		c-544.052-163.441-738.041,441.561-743.135,458.168l-0.203,0.384c0,0,15.495-336.838,189.088-492.135
		c173.653-155.521-31.141-404.035-173.594-271.943c0,0,191.733-318.734,398.924-199.473
		C1660.505,306.879,1802.612,571.263,1848.473,663.715"/>
	<path fill="#664F40" d="M3275.289,2363.99c5.492-38.663-57.547-177.765-80.947-216.239c-2.812-4.742-6.418-5.859-10.377-3.975
		c23.596-112.86,58.313-234.009,58.313-234.009c-58.508,70.184-119.654,187.202-160.21,272.304
		c4.518-17.539,5.456-31.508-2.269-39.242c-25.287-25.331-121.36,131.339-121.36,131.339
		c3.411-123.028,84.187-244.185,176.832-323.471c92.669-79.054,163.426-153.206,163.426-153.206
		c5.08,53.773-47.184,121.155-11.685,257.575C3320.587,2185.281,3279.249,2349.464,3275.289,2363.99"/>
	<path fill="#664F40" d="M2929.221,656.547l-0.571-0.188c-7.169-2.646-56.623-20.395-127.197-26.985
		c-124.366-11.489-314.213,11.513-452.144,213.226c-218.711,319.685,13.392,719.576,21.726,733.899
		c-10.025-9.635-239.323-230.41-381.972-465.901c-6.604-10.775-12.827-21.521-19.071-32.484
		c-5.283-9.235-10.379-18.673-15.277-27.933c-0.924-1.472-1.729-2.997-2.457-4.501c-4.531-8.514-8.867-16.99-13.03-25.691
		c-4.914-9.963-9.597-19.981-13.933-29.983c-2.291-4.908-4.357-10.018-6.643-14.924c-6.012-14.135-11.505-28.292-16.209-42.081
		c-0.383-0.925-0.563-1.675-0.766-2.437c-6.801-19.634-12.264-39.09-16.202-57.959c-0.397-1.309-0.579-2.42-0.978-3.756
		c-0.946-4.54-1.855-9.063-2.629-13.58l-4.907-41.901c0,0,4.907-24.534,20.56-60.566c6.824-15.277,15.301-32.847,26.414-51.354
		c42.104-71.108,119.287-157.932,256.471-203.771C2647.833,341.785,2919.58,645.439,2929.221,656.547"/>
	<path fill="#664F40" d="M2966.802,618.539c-9.648-11.122-281.367-314.762-748.814-158.889c0,0,300.985-484.611,912.984-347.592
		C3130.971,112.058,2819.781,266.053,2966.802,618.539"/>
	<path fill="#664F40" d="M2944.883,1371.005c-47.967-39.076-70.976-54.354-70.976-54.354s-2.803-30.764-9.618-74.702
		c6.402-29.284,33.966-137.214,92.474-162.683C2956.762,1079.267,2922.414,1258.701,2944.883,1371.005"/>
	<path fill="#664F40" d="M3094.046,1259.797c-8.333,48.268-38.587,111.336-79.511,160.879c-2.998-3.849-6.357-7.461-10.205-10.82
		c-13.045-11.326-24.498-21.034-34.588-29.374c12.436-22.776,63.955-115.215,83.484-134.247
		C3075.507,1224.35,3103.242,1206.437,3094.046,1259.797"/>
	<path fill="#664F40" d="M2224.178,2608.189c-23.377-1.899-60.943-3.396-98.688,0.759c-6.229-3.411-13.953-5.859-23.211-7.552
		h-0.188c-6.027-1.142-12.828-1.721-20.562-1.9c-90.197-1.901-251.729,46.973-304.022,16.593c0,0,1.893-1.128,5.485-3.367
		c6.042-3.592,16.238-10.213,29.238-18.894c24.339-16.044,58.307-39.797,90.958-66.231c9.053-7.357,18.108-15.089,26.818-22.836
		c19.809-17.547,37.535-35.846,50.745-53.376c10.399-13.991,21.131-19.446,31.892-18.703c15.479,0.744,31.539,14.338,47.544,32.83
		c-23.753,33.402-63.574,85.823-95.48,112.273c5.486-1.667,85.313-28.104,154.176-35.063c14.533,18.463,29.066,33.575,43.404,40.166
		c5.08,2.456,12.256,5.283,20.951,8.874C2194.563,2596.287,2208.315,2601.742,2224.178,2608.189"/>
	<path fill="#664F40" d="M2699.916,2588.554c31.141,29.819,23.024,82.85,23.024,82.85c-4.133-24.536-62.461-82.85-135.675-93.617
		c-35.499-5.29-75.107-18.471-106.781-30.555c8.643-0.382,17.51-1.143,26.571-2.064c25.677-2.841,51.708-8.32,76.821-17.373
		c4.899-1.708,9.822-3.788,14.518-5.646c26.985-5.153,55.098-13.412,100.229,1.309c78.661,25.678,94.901,111.357,94.901,111.357
		C2767.66,2604.793,2699.916,2588.554,2699.916,2588.554"/>
</g>
</svg>
