<?xml version="1.0" encoding="utf-8"?>
<!-- Generator: Adobe Illustrator 16.0.0, SVG Export Plug-In . SVG Version: 6.00 Build 0)  -->
<!DOCTYPE svg PUBLIC "-//W3C//DTD SVG 1.1//EN" "http://www.w3.org/Graphics/SVG/1.1/DTD/svg11.dtd">
<svg version="1.1" id="Layer_1" xmlns="http://www.w3.org/2000/svg" xmlns:xlink="http://www.w3.org/1999/xlink" x="0px" y="0px"
	 width="4000px" height="4000px" viewBox="0 0 4000 4000" enable-background="new 0 0 4000 4000" xml:space="preserve">
<g>
	<polygon fill="#5D6C99" points="1967.264,3163.786 1800.01,3536.25 1882.745,3730.207 2132.602,3163.786 	"/>
	<polygon fill="#5D6C99" points="1790.077,3649.879 1780.068,3626.707 1583.264,3163.771 1418.096,3163.771 1768.909,3984.745 
		1852.46,3796.183 	"/>
	<rect x="2164.621" y="3165.759" fill="#5D6C99" width="167.058" height="788.254"/>
	<rect x="2396.932" y="3165.759" fill="#5D6C99" width="167.056" height="788.254"/>
	<path fill="#3E4B66" d="M1327.452,3332.077l86.82,203.32C704.835,3291.853,193.582,2618.034,193.582,1827.161
		c0-807.356,532.744-1492.658,1265.083-1722.789c-33.569,52.582-52.436,109.025-52.436,160.203c0,8.895-0.705,17.49-1.934,25.535
		C788.462,529.066,350.89,1127.845,350.89,1827.162C350.891,2496.957,752.404,3074.648,1327.452,3332.077"/>
	<path fill="#3E4B66" d="M3804.496,1827.177c0,751.061-461.026,1396.574-1115.021,1668.149v-171.854
		c564.948-261.582,957.729-833.844,957.729-1496.297c0-636.902-362.939-1190.461-893.072-1464.675
		c0.688-5.812,1.227-11.791,1.381-17.892c2.104-68.922-29.412-132.312-88.908-178.508c-19.972-15.671-40.08-28.705-60.051-39.25
		C3304.219,376.939,3804.496,1044.64,3804.496,1827.177"/>
	<path fill="#3E4B66" d="M1583.064,1578.203c0,0,53.619-53.938,50.457-141.526c-3.117-87.597,203.359-170.496,273.738-156.441
		c0,0-106.361-71.924-192.383,0c-86.037,71.97-106.361,57.885-147.023,100.113
		C1527.189,1422.577,1596.741,1539.89,1583.064,1578.203"/>
	<path fill="#3E4B66" d="M1663.253,1666.599c0,0,79.791-15.644,111.06-103.23c31.283-87.596,286.234-211.155,419.185-206.475
		c0,0-92.256-57.885-264.331,17.19c-172.062,75.103-184.57,51.64-187.688,95.426
		C1738.348,1513.32,1722.689,1597.777,1663.253,1666.599"/>
	<path fill="#3E4B66" d="M1891.204,72.445l-73.498,59.873l182.115,69.467c0,0,29.288,145.037-252.465,168.759
		c-281.752,23.701-281.752,72.528-281.752,72.528s58.576-72.528,58.576-178.537C1524.181,158.527,1698.743-43.335,1891.204,72.445"
		/>
	<path fill="#5D6C99" d="M2518.305,2379.138c0,0-126.961-8.541-184.433-78.347c-37.133-45.084-51.332,8.633-188.885,28.75
		c-75.354,11.021-187.777,29.281-361.297-24.637c-211.463-65.691-92.408,236.094,24.607,258.666
		c117.045,22.596,296.258,17.391,287.432,176.543c-6.155,110.881-164.262,145.787-242.258,125.248
		c-78.008-20.521-172.396-127.529-204.908-201.717c-32.512-74.142,18.281-102.615-34.553-121.91
		c-52.836-19.295-87.389-111.771-81.266-185.914c6.08-74.181,57.901-95.5,29.473-135.144c-28.459-39.627-72.145-20.315-77.227,7.115
		c-5.097,27.414-42.58,174.754-164.998,202.308c0,0-109.172,97.065-157.693,137.867c0,0,165.414,155.481,174.256,181.955
		c8.826,26.485-215.057-1.082-254.752-155.482c-39.711-154.393,168.729-188.584,187.473-216.153
		c18.758-27.562,54.031-118.013,103.658-153.295c49.627-35.289-1.104-83.818-49.627-66.189
		c-48.521,17.652-52.574,100.207-124.873,120.99c-72.299,20.808-250.545,60.402-260.432,115.863
		c-9.916,55.475,1.965,163.418,1.965,163.418s-106.945-54.479-95.078-110.92c11.881-56.459,65.361-72.314,86.16-118.857
		c20.783-46.524,147.576-57.408,165.367-93.067c17.838-35.658,79.238-66.357,109.938-84.188
		c30.701-17.828,78.24-55.459,66.345-78.24c-11.865-22.778-91.104-32.68-246.584,40.595
		c-155.498,73.289-250.547,104.987-258.467,169.358c-7.922,64.379-18.836,130.715-18.836,130.715s-71.285-53.487-77.242-107.928
		c-5.924-54.479,37.653-35.666,41.601-85.179c3.961-49.526,148.559-122.803,277.285-178.262
		c128.742-55.445,129.756-61.408,97.061-97.054c-32.666-35.643-168.008-209.268-182.484-455.5
		c-14.49-246.271-22.778-374.545-53.801-459.385c-31.055-84.855,84.855-202.814,177.969-186.252
		c93.101,16.569,163.465,62.084,159.336,173.834c-4.145,111.717-16.563,153.125,28.965,202.783
		c45.515,49.664,49.658,190.381,97.26,229.699c47.584,39.319,201.793,102.838,170.801,142.52
		c-30.977,39.672-148.744-8.688-188.408,68.179c-39.694,76.856-60.74,102.893-131.412,116.522
		c-70.674,13.623-99.178,52.066-83.045,66.935c16.117,14.897,120.254-35.941,168.576-34.707
		c48.353,1.244,83.06-73.135,127.683-121.48c44.653-48.346,125.211-45.875,156.203-32.235c30.992,13.646,61.983,17.354,9.901,47.117
		c-52.037,29.75-95.434,59.49-91.719,114.021c3.715,54.563-3.715,79.369-48.338,95.472c-44.637,16.108-127.682,54.555-107.85,85.516
		c19.832,31.023,60.74-19.815,110.338-38.405c49.563-18.597,128.91-11.158,131.381-40.9c2.473-29.764-53.312-76.865-23.547-116.53
		c29.733-39.681,164.877-68.179,220.645-88.025c55.813-19.832,116.553-111.563,159.934-167.348
		c43.379-55.773,122.726-39.664,214.442-60.726c91.748-21.076,262.826-34.715,330.996,3.707c0,0-163.633,19.832-295.031,85.531
		c-131.396,65.676-128.91,24.799-178.508,63.205c-49.596,38.442-63.227,78.115-135.127,115.311
		c-71.899,37.17-142.557,136.355-145.043,188.422c-2.487,52.068,19.832,58.238-22.319,79.338
		c-42.135,21.076-147.517,74.379-127.683,102.885c19.832,28.527,92.99-54.547,140.101-64.432
		c47.08-9.947,75.601-33.486,75.601-80.611c0-47.096-22.304-95.44,55.799-143.801c78.086-48.321,299.988-204.541,347.083-207.014
		c47.125-2.479,80.604,64.455,105.379,48.346c24.791-16.108,57.026-13.606,58.27-66.949
		c1.244-53.289,386.518,34.191,490.762,112.824c104.242,78.631-40.231,56.703-89.615,102.433
		c-49.396,45.713-151.797,76.813-267.016,43.908c-115.219-32.949-193.873-129.877-267.031-107.929
		c-73.129,21.943-182.883,29.267-193.844,73.146c-10.99,43.895,34.739,32.91,91.442,43.895
		c56.689,10.967,215.809,95.103,265.176,151.806c49.396,56.703,67.662,67.672,115.232,49.381
		c47.555-18.281,155.451,20.108,186.551,64.004C2651.514,2144.55,2180.295,2136.361,2518.305,2379.138"/>
	<path fill="#5D6C99" d="M2764.477,2059.947c0,0-150.877-242.018,91.117-230.621c241.996,11.383,378.658,139.519,392.92,253.388
		c14.213,113.891-25.619,224.934-113.883,279.026C3134.632,2361.74,3126.064,2005.845,2764.477,2059.947"/>
	<path fill="#5D6C99" d="M3023.572,2296.246c0,0-51.483-82.393-57.932-121.006c-6.416-38.621-39.91-92.699-88.816-72.084
		C2827.902,2123.736,2822.73,2203.572,3023.572,2296.246"/>
	<path fill="#5D6C99" d="M3043.082,2696.664c0,0-116.108,224.635-500.17,226.808c-384.016,2.203-386.194-91.642-386.194-159.281
		c0-67.641,96-165.82,253.108-126.547C2566.949,2676.925,2800.641,2833.159,3043.082,2696.664"/>
	<path fill="#5D6C99" d="M2824.266,2601.132c0,0-216.961-26.547-259.633,31.153c-42.722,57.687,42.672,46.144,59.987,38.076
		C2641.935,2662.295,2721.557,2603.427,2824.266,2601.132"/>
	<path fill="#5D6C99" d="M1099.978,749.05c0,0,153.365,101.664,153.365,208.615l287.109-140.853c0,0,22.303-73.844-37.01-118.94
		L1099.978,749.05z"/>
	<path fill="#5D6C99" d="M1583.234,661.685c0,0,35.674,64.178,35.674,178.299l240.721-46.357c0,0,60.388-34.867,112.209-0.481
		l294.817-27.226c0,0,44.117-61.455,208.164-84.625l69.535-135.527c0,0-8.887-78.463,42.797-103.414l7.215-183.004
		c0,0-117.766-98.74-173.043-7.807l44.578,140.877c0,0,73.127,57.064-57.072,90.934l-78.438,112.349
		c0,0,35.658,83.806-149.804,35.666l-201.502,33.863c0,0-53.496,28.528-119.455,5.356L1583.234,661.685z"/>
	<path fill="#5D6C99" d="M2344.68,224.013c0,0,55.106-98.234,203.467-50.119L2367.69,81.668l-400.777,39.581L2344.68,224.013z"/>
</g>
</svg>
