<?xml version="1.0" encoding="utf-8"?>
<!-- Generator: Adobe Illustrator 16.0.0, SVG Export Plug-In . SVG Version: 6.00 Build 0)  -->
<!DOCTYPE svg PUBLIC "-//W3C//DTD SVG 1.1//EN" "http://www.w3.org/Graphics/SVG/1.1/DTD/svg11.dtd">
<svg version="1.1" id="Layer_1" xmlns="http://www.w3.org/2000/svg" xmlns:xlink="http://www.w3.org/1999/xlink" x="0px" y="0px"
	 width="4000px" height="4000px" viewBox="0 0 4000 4000" enable-background="new 0 0 4000 4000" xml:space="preserve">
<g>
	<polygon fill="#9A5C6A" points="1844.439,3174.963 1676.427,3549.297 1759.493,3744.176 2010.619,3174.963 	"/>
	<polygon fill="#9A5C6A" points="1666.384,3663.502 1656.345,3640.22 1458.564,3174.963 1292.552,3174.963 1645.103,4000 
		1729.095,3810.519 	"/>
	<rect x="2042.806" y="3176.958" fill="#9A5C6A" width="172.031" height="811.754"/>
	<rect x="2282.013" y="3176.958" fill="#9A5C6A" width="172.047" height="811.754"/>
	<rect x="2522.299" y="3176.958" fill="#9A5C6A" width="172.064" height="811.754"/>
	<path fill="#663E49" d="M3798.767,1822.249c0,701.697-403.66,1310.851-990.953,1607.478v-177.771
		c497.695-282.627,834.262-817.637,834.262-1429.707c0-248.078-55.332-483.403-154.184-694.453
		c15.645-14.43,34.355-30.385,56.547-47.848c20.234-15.81,44.66-35.082,66.82-57.281
		C3731.24,1263.676,3798.767,1535.2,3798.767,1822.249"/>
	<path fill="#663E49" d="M3174.193,460.247c-5.559,8.578-12.195,19.95-21.773,36.174c-24.133,41.172-44.23,73.767-61.156,99.707
		c-290.535-259.189-673.375-416.846-1092.149-416.846c-905.945,0-1642.988,737.033-1642.988,1642.967
		c0,411.301,151.844,787.651,402.555,1076.078c-16.895,78.36-10.793,169.723,50.203,230.744
		c14.691,14.838,59.785,59.783,207.609,59.783c25.5,0,47.43-1.408,66.141-3.904c37.578,25.533,76.262,49.39,116.039,71.595
		l94.449,221.014C650.513,3202.584,199.31,2564.141,199.31,1822.25c0-992.474,807.312-1799.808,1799.804-1799.808
		C2447.842,22.443,2858.709,187.476,3174.193,460.247"/>
	<path fill="#9A5C6A" d="M3277.484,1422.672c0.199-1.022,0.199-2.848,0.598-5.11
		C3278.08,1419.208,3277.865,1421.034,3277.484,1422.672"/>
	<path fill="#9A5C6A" d="M3551.369,893.299c-5.266-9.717-17.172-63.809-79.727-20.512c-62.555,43.119-140.477,98.166-174.879,71.108
		c-34.512-26.889-30.77-146,38.977-216.737c0,0,21.219-18.166,24.008-25.92c3.035-7.615-8.746-23.584-8.746-23.584
		c-2.48-19.543,10.531-32.863,11.625-47.556c1.25-14.83-31.184-68.092-42.012-77.238c-10.824-9.155-24.531-63.524-46.445-30.076
		c-22.191,33.549-123.137,225.187-196.902,267.743c-73.766,42.442-217.293,96.242-297.59,189.981
		c-80.172,93.615-44.074,91.398-132.16,120.373c-88.043,29.138-158.234,50.342-156.559,84.984
		c1.371,30.399,72.814,40.778,90.539,42.721c1.801,0.291,2.77,2.51,1.676,3.902c-6.914,9.834-32.047,38.547-94.723,56.434
		c-76.125,22.054-170.555,73.904-267.605,109.963c-96.93,36.185-382.196,17.48-613.504,70.871
		c-196.055,45.338-313.125,96.513-342.926,170.008c-5.406,13.313-7.914,27.166-7.762,41.89
		c1.246,72.625,12.488,167.088-4.988,247.791c-5.836,26.881-14.984,52.405-28.566,75.021
		c-54.641,90.121-61.848,109.416-51.176,169.453c10.551,59.892-17.602,155.324-114.543,252.236
		c-97.066,97.065-161.117,152.135-156.957,215.768c4.004,63.379,1.387,195.688-17.617,249.619
		c-18.867,54.068-23.008,121.744,9.426,154.191c32.445,32.324,194.422,30.916,212.18,10.811
		c17.617-20.367,32.43-67.528-16.234-109.53c-48.816-41.767-82.387-72.951-71.563-133.672
		c10.813-60.771,56.441-233.248,216.063-297.189c61.691-24.692,146.992-71.569,234.742-125.776
		c137.859-85.277,282.203-189.013,351.27-254.179c39.52-37.297,74.477-63.369,107.602-78.754
		c62.707-28.721,119.95-19.559,192.208,24.123c0,0,132.564,132.726,278.875,95.533c16.355-4.004,31.172-8.168,44.629-11.778
		c106.939-29.394,128.422-38.709,157.406,56.016c15.523,51.06,37.988,141.465,56.285,232.154
		c19.695,99.131,34.387,198.83,29.551,248.479c-9.16,95.287-19,315.353,22.453,324.631c41.629,8.879,155.465,18.025,185.262,2.642
		c29.676-15.808,25.949-66.289,11.66-75.313c-14.277-9.147-81.543-27.297-91.953-88.033
		c-10.395-60.899-27.168-357.787-32.434-418.641c-5.145-61.029-12.906-281.111-14.277-320.088c-1.262-38.961-6.527-31.187,33.695-61
		c40.348-29.676,148.934-138.814,200.355-266.941c0,0,17.477,17.756,19.711,33.842c0.277,2.349,3.051,3.195,4.559,1.246
		c20.527-29.953,95.695-142.965,101.672-200.375c0,0,13.703,16.631,11.363,28.004c0,0,111.789-198.012,130.469-295.371
		c0,0,11.367,26.773,10.273,50.467c3.465-32.041,16.66-157.365,18.031-211.865c1.523-62.692,87.781-148.94,175.559-218.117
		C3559.56,918.256,3556.927,902.872,3551.369,893.299 M3034.81,932.402c-53.793-0.855-39.52-32.316-39.52-32.316l80.727-32.449
		C3076.017,867.635,3088.478,933.111,3034.81,932.402"/>
	<path fill="#9A5C6A" d="M1215.997,1701.945c1.219,72.748,12.43,167.143-5.098,247.869c-7.945,2.664-70.516-43.222-118.824,133.524
		l-0.199,0.199l-189.992,68.478l-117.406-201.586c5.512-8.592,130.25-195.701,316.777-248.484
		c51.773-14.483,91.719-28.744,122.488-41.797C1218.263,1673.4,1215.798,1687.277,1215.997,1701.945"/>
	<path fill="#9A5C6A" d="M1071.47,2124.301c-2.832,4.281-49.926,74.59-102.102,170.226c-10.41,18.918-22.422,39.737-35.668,60.93
		l-121.305,36.09l-87.441-110.278c26.074-50.56-17.109-196.929-3.063-221.59c14.477-25.287,42.211-68.484,42.211-68.484
		l117.379,201.595L1071.47,2124.301z"/>
	<path fill="#9A5C6A" d="M909.833,2392.554c-51.375,76.854-110.695,150.25-143.113,160.235
		c-46.445,14.263-26.887-26.901-37.5-100.522c-8.746-59.937-25.855-101.908-16.492-141.433l91.539,112.937L909.833,2392.554z"/>
	<path fill="#663E49" d="M1515.65,2701.584c-17.926,30.992,48.926,97.853,75.828,150.644c26.906,52.799,21.824,60.735,78.68,65.85
		c56.887,4.875,53.023,28.938,51.992,81.729c-1.02,53.014-97.637,38.121-161.238,36.705c-63.402-1.433-58.105-43.229-62.172-101.34
		c-3.863-58.097-101.316-136.353-149.809-185.054c-48.742-48.533-5.527-91.754,97.219-226.91
		c102.734-135.135,40.703-93.787,40.703-93.787c0.398-1.223,0.801-2.471,1.23-3.68c137.801-85.207,282.098-188.974,351.211-254.207
		c39.531-37.283,74.398-63.379,107.633-78.662c-6.93,19.141-44.367,37.145-60.078,144.772
		C1866.462,2378.286,1533.591,2670.616,1515.65,2701.584"/>
	<path fill="#663E49" d="M2658.728,2973.34c-20.777,37.922-103.949,15.492-172.449,13.242
		c-68.484-2.217-15.477-59.729-6.715-137.196c8.762-77.23,13.227-258.658-15.492-351.396
		c-28.738-92.961-44.137-292.221-44.137-292.221c106.828-29.375,128.439-38.73,157.402,56.049
		c15.492,50.973,37.883,141.479,56.258,232.19c-28.152,97.222-82.5,336.22-36.84,359.873
		C2651.998,2882.633,2679.334,2935.409,2658.728,2973.34"/>
</g>
</svg>
