<?xml version="1.0" encoding="utf-8"?>
<!-- Generator: Adobe Illustrator 16.0.0, SVG Export Plug-In . SVG Version: 6.00 Build 0)  -->
<!DOCTYPE svg PUBLIC "-//W3C//DTD SVG 1.1//EN" "http://www.w3.org/Graphics/SVG/1.1/DTD/svg11.dtd">
<svg version="1.1" id="Layer_1" xmlns="http://www.w3.org/2000/svg" xmlns:xlink="http://www.w3.org/1999/xlink" x="0px" y="0px"
	 width="4000px" height="4000px" viewBox="0 0 4000 4000" enable-background="new 0 0 4000 4000" xml:space="preserve">
<g>
	<polygon fill="#7F5D9A" points="2164.5,3796.649 2051.617,3985.992 1869.659,3985.992 2068.277,3641.746 	"/>
	<polygon fill="#7F5D9A" points="2516.527,3985.992 2344.375,3985.992 2197.934,3739.813 2101.684,3584.887 1880.284,3183.242 
		2062.941,3183.242 2197.387,3426.86 2284.629,3584.887 	"/>
	<polygon fill="#7F5D9A" points="2505.891,3183.242 2317.699,3522.551 2230.492,3364.569 2324.066,3183.242 	"/>
	<g>
		<g>
			<path fill="#523F67" d="M1478.906,3394.518v165.748C731.972,3336.27,186.16,2642.431,186.16,1823.343
				c0-486.924,192.734-929.536,506.128-1255.432c5.273,11.133,12.099,22.555,20.746,34.258c1.824,3.487,5.152,10.593,7.509,15.457
				c10.594,22.698,27.844,59.335,58.227,88.722c-270.063,294.578-434.832,686.906-434.832,1116.995
				C343.937,2554.265,820.262,3176.137,1478.906,3394.518"/>
			<path fill="#523F67" d="M3811.918,1823.344c0,797.492-517.559,1476.344-1234.551,1718.381l90.556-204.711
				c580.354-257.25,986.202-839.021,986.202-1513.67c0-315.469-88.729-610.571-242.612-861.705
				c-3.634-6.117-7.388-12.113-11.293-18.117c-26.052-41.477-54.048-81.874-83.716-120.745c-3.055-4.179-6.262-8.352-9.469-12.387
				c-16.43-21.323-33.422-42.069-50.977-62.397c38.573-43.172,72.285-86.076,96.117-129.796
				C3637.984,938.657,3811.918,1361.087,3811.918,1823.344"/>
			<rect x="1666.184" y="3183.242" fill="#7F5D9A" width="150.633" height="802.75"/>
			<path fill="#7F5D9A" d="M2607.141,1903.326c-25.531-31.005,9.258-35.923-71.113-137.668
				c-19.668-24.956-46.309-55.771-82.621-94.338c-42.738-45.384-83.026-105.342-115.141-167.93
				c-39.185-75.628-66.207-155.229-70.556-217.073c-0.957-14.742-0.758-28.559,0.941-41.036
				c14.563-107.788,148.646-431.313,148.646-614.729c0-183.605-73.759-454.969-483.696-399.182
				c-43.68,5.874-79.988,13.435-110.234,22.121c-49.729,15.891-153.93-44.235-159.797-47.449
				c1.898,2.629,18.527,26.287,28.738,46.88c10.793,21.765-98.895,13.261-98.895,13.261s51.797,45.74,28.938,56.712
				c-22.906,10.792-477.645-136.337-474.059-123.092c3.77,13.238,382.336,179.822,461.944,211.024
				c64.867,25.541,68.638,74.692,67.892,92.081c-0.199,2.287-0.199,4.347-0.563,6.421
				c-14.559,102.127-62.602,252.075-91.723,281.181c-29.121,29.129-15.32,134.074,20.047,158.658
				c35.535,24.584,65.431-68.082,87.359-79.04c0,0,28.559,21.749-5.484,72.237c0,0,40.853,25.898,80.371-31.398
				c39.517-57.299,104.552-193.615,213.113-188.145c0,0,37.25,148.444-146.758,270.025c0,0-103.41,37.624-184.723,98.707
				c-17.024,12.668-33.091,26.469-47.086,41.232c-49.353,51.979-180.773,128.756-289.884,190.219
				c-68.438,38.573-128.016,71.092-153.172,87.727c-65.215,43.498-95.672,71.669-95.672,167.359
				c0,95.483-20.793,292.124-20.793,292.124s40.095,207.824,74.489,188.538c34.41-19.479,78.105-62.384,73-80.554
				c-5.293-18.337-53.516-112.134-28.772-127.812c24.789-15.519,67.727,14.37,49.762,59.746
				c3.77-5.306,75.065-104.946,47.281-137.473c-28.574-33.475-89.263-39.729-86.785-62.024
				c2.434-22.304,2.434-184.556,84.293-198.158c81.69-13.814,255.289-3.785,308.621-21.18c53.315-17.417,37.238,4.917,66.922,27.221
				c25.729,19.287,355.69,148.064,474.071,248.276c18.348,15.51,31.75,30.449,38.026,44.067
				c46.691,101.725,79.777,318.805,195.105,500.329c7.569,11.915,14.026,23.831,19.315,35.353
				c75.431,166.227-69.047,305.78-113.852,382.548c-54.078,92.081-172.988,287.61-150.512,307.665
				c22.508,20.229,141.422-24.605,150.512-35.945c8.891-11.139,20.047-112.119,51.629-51.598c0,0,31.387-47.109,31.387-116.689
				c0-69.594,300.839-487.485,285.156-500.905c-15.688-13.429-65.051,11.346-71.859-11.156c0,0-28.379-236.748,9.271-230.896
				c37.633,5.669,41.418,43.316,41.418,43.316s5.836-59.776-14.363-89.626c-20.246-29.888,10.578-67.512,10.578-86.799
				c0-19.089,38.754,15.7,27.418,60.323C2618.101,2006.76,2636.445,1939.072,2607.141,1903.326 M1741.461,560.586
				c0,0,15.504-55.041,15.504-92.46C1756.965,468.126,1853.976,494.419,1741.461,560.586"/>
			<path fill="#523F67" d="M1630.848,1053.733c-17.008,12.677-33.074,26.477-47.086,41.233
				c-49.336,51.994-180.773,128.77-289.867,190.226c-2.645-13.998-9.09-58.051-10.594-138.437
				c-1.703-100.007,27.418-114.574,47.479-149.188c20.017-34.593,1.688-45.564-20.063-74.679
				c-21.93-29.311-27.418-82.057-27.418-105.714c0-23.634-23.617-9.065-50.871-12.857c-27.418-3.587-49.152-18.14-74.699-54.639
				c-25.52-36.309-40.078-21.75-40.078,9.263c0,30.815-7.354,56.343-7.354,56.343c3.781-23.635-30.84-40.079-30.84-40.079
				c-103.988,52.951-129.34-40.086-129.34-40.086c153.003-32.716-31.004-118.374-59.91-121.581
				c-28.957-3.216-43.332-65.803-64.309-93.054c-20.789-27.221-11.168-43.294,30.613-27.221
				c41.598,16.08,187.762,40.086,187.762,40.086c45.021,49.737,203.859,145.982,300.109,200.621
				c96.422,54.654,122.715,121.589,131.789,154.136C1488.086,931.392,1550.87,1020.068,1630.848,1053.733"/>
			<path fill="#523F67" d="M2320.664,2365.468c-91.891,2.258-180.211-15.51-180.211-15.51
				c-112.879,36.674-69.772,209.313-69.772,209.313c-106.286-64.472-62.59-157.13-59.945-162.608
				c-44.805,33.109-114.383,33.109-114.383,33.109c107.954-49.935,84.699-146.18,44.789-131.255
				c-39.895,14.955-106.254,10.039-144.461,4.901c-38.195-4.901-295.539,126.354-322.195,212.757
				c-25.729,83.569-93.625,121.977-97.789,124.241c34.441-33.11,1.521-84.534-20.031-89.459
				c-21.75-4.933-54.835,59.746-91.512,68.09c-36.504,8.283-111.19-33.104-99.473-58.051
				c11.535-24.973,150.707-135.776,150.707-135.776c122.73-34.045,386.137-172.261,341.879-216.52
				c-44.44-44.434-49.531-138.429-49.531-138.429s-28.741,0-88.698-5.076c-60.113-5.305-93.957,67.688-93.957,67.688
				c-2.648-83.402,67.875-143.322,67.875-143.322c-60.125-36.689-44.441-91.343-44.441-91.343
				c31.402,28.558,99.082,65.247,211.414-36.683c106.435-96.435,379.689-77.916,407.29-75.833
				c18.375,15.502,31.781,30.458,37.996,44.075c46.738,101.731,79.824,318.797,195.164,500.336
				C2308.93,2342.016,2315.359,2353.94,2320.664,2365.468"/>
			<path fill="#523F67" d="M2807.141,779.955c0,0-38.758,53.315-145.238-20.997c0,0,1.703,159.79,77.527,111.391
				c0,0,38.772,182.276-111.345,53.134c0,0-62.801,130.67,61.25,135.587c0,0,4.923,62.755-61.25,69.191
				c0,0,138.793,140.313-3.223,182.299c-141.832,41.971-72.618,77.528-86.979,109.657c-14.563,32.343-93.609-6.421-101.742-67.688
				c-7.188-55.977-91.508-94.564-123.105-100.605c-0.944-14.743-0.746-28.543,0.957-41.021
				c14.574-107.788,148.609-431.313,148.609-614.743c0-183.605-68.91-463.069-478.86-407.275
				c-43.68,5.858-83.409,13.367-113.684,22.062c18.934-22.89,71.233-83.356,72.555-124.408c0,0,20.978,32.153,20.978,43.506
				c0,0,72.633-62.982,93.605-91.905c0,0,79.05,151.484,54.853-1.688c0,0,38.772,85.462,74.125,100.037
				c0,0,35.551-104.756,187.184-82.254c0,0-83.957,38.764-29.117,141.993c0,0,40.273-135.572,137.105-66.184
				c0,0-95.113,27.425-27.435,111.2c0,0,87.164,30.619,83.974-90.195c0,0,182.272,133.876,53.133,199.861
				c0,0,82.254,161.302,175.863,101.724c0,0,40.262,96.647-69.414,158.08C2697.466,610.711,2747.591,760.668,2807.141,779.955"/>
			<path fill="#523F67" d="M2986.634,1498.861c32.358,126.688,43.137,255.085-37.798,312.938
				c-104.582,74.876-279.319-4.537-356.069-46.128c-19.668-24.971-46.328-55.786-82.652-94.354
				c-42.723-45.383-82.983-105.341-115.145-167.929l0.379-2.455c0,0,192.113,96.063,245.445,149.563
				c53.327,53.332,240.151,138.61,237.508-2.827c-2.66-141.247-129.371-380.26-129.371-443.045
				c0-62.968,24.043-264.722,131.438-370.42c107.392-105.523,268.513-255.465,275.884-312.764
				c7.401-57.504,1.897-177.747-37.07-240.715c0,0,135.223,88.881,131.438,207.438c-3.586,118.374-279.483,325.804-323.926,416.563
				c-1.141,2.258-2.266,4.544-3.207,6.81c-25.897,55.02-42.176,119.127-39.715,194.572c0.777,28.376,4.348,58.438,10.973,90.203
				c4.332,21.18,10.031,42.929,17.207,65.611c5.105,16.065,10.974,33.657,17.388,52.58c1.719,5.092,3.434,10.19,5.104,15.313
				C2951.859,1380.868,2971.695,1439.671,2986.634,1498.861"/>
			<path fill="#523F67" d="M3417.953,1194.427c-24.026,61.63-79.395,97.757-152.395,119.878
				c-25.367,7.744-52.771,13.814-81.892,18.52c-23.069,3.777-43.68,13.815-61.844,27.046
				c-52.934,38.971-84.883,107.606-97.359,138.991c-14.94-59.19-34.788-117.994-52.206-169.046
				c61.065-52.396,199.69-157.32,290.077-123.48C3375.793,1249.073,3414.746,1198.956,3417.953,1194.427"/>
			<path fill="#523F67" d="M3338.344,1535.346c-81.875,66.387-157.517-40.079-155.816-100.22
				c1.141-42.929-26.277-53.688-41.781-56.364c18.133-13.229,38.789-23.253,61.828-27.038c29.137-4.711,56.555-10.768,81.892-18.512
				c51.434,46.516,4.348,106.647,2.844,138.982C3285.789,1507.555,3338.344,1535.346,3338.344,1535.346"/>
			<path fill="#523F67" d="M3036.941,1220.333c-35.367,17.774-63.531,79.981-69.777,94.171c-6.43-18.924-12.293-36.522-17.387-52.58
				c-7.188-22.685-12.871-44.434-17.219-65.612c16.262-9.263,34.973-17.797,48.969-17.797c30.84,0,53.91-98.686,53.91-98.686
				S3077.219,1200.294,3036.941,1220.333"/>
			<path fill="#523F67" d="M3257.23,827.198c-21.734,53.136-100.023,104.938-177.734,144.646
				c-44.059,22.509-4.358-0.54-37.828,12.295c-28.922,10.966-53.526,31.598-73.94,54.67c-19.469,22.113-34.957,46.705-46.113,67.299
				c-2.477-75.445,13.785-139.553,39.684-194.572c43.302-17.957,42.177-2.462,92.47-5.874
				C3181.039,896.975,3252.898,831.348,3257.23,827.198"/>
			<path fill="#523F67" d="M3335.988,951.188c-60.719,81.122-67.602,69.063-152.5,70.772
				c-67.516,1.526-147.883,25.913-177.945,35.747c20.441-23.079,45.017-43.682,73.941-54.646
				c33.479-12.866,77.344-31.591,121.391-54.092C3255.148,975.073,3335.988,951.188,3335.988,951.188"/>
			<path fill="#523F67" d="M3086.625,241.956c0,0,120.359,61.447,174.009,148.025c0,0,4.315-27.699,24.241-53.666
				c19.91-25.989-58.879-43.278-57.129-64.054c1.715-20.776,144.566-6.072,141.953-114.285c0,0-61.449,49.35-118.594,10.403
				c-57.133-38.962-115.129-45.894-161.896-15.593c-46.723,30.297-119.461-62.346-119.461-62.346s-4.332,27.707-17.313,40.703
				c-12.98,12.994-6.047,45.883,11.246,69.252c17.328,23.383-0.853,40.67-59.746,27.707
				c-58.849-12.987-87.422-59.723-71.828-114.286c0,0-166.228,141.104,25.961,239.818c192.184,98.686,59.73,193.037,59.73,193.037
				s141.983-90.88,103.897-184.389c0,0,98.699-15.579,96.082,39.828c-2.598,55.405,17.328,76.183,17.328,76.183
				S3142.023,355.359,3086.625,241.956"/>
		</g>
		<polygon fill="#523F67" points="2547.836,3550.205 2667.923,3337.014 2577.367,3541.725 		"/>
	</g>
</g>
</svg>
