<?xml version="1.0" encoding="utf-8"?>
<!-- Generator: Adobe Illustrator 16.0.0, SVG Export Plug-In . SVG Version: 6.00 Build 0)  -->
<!DOCTYPE svg PUBLIC "-//W3C//DTD SVG 1.1//EN" "http://www.w3.org/Graphics/SVG/1.1/DTD/svg11.dtd">
<svg version="1.1" id="Layer_1" xmlns="http://www.w3.org/2000/svg" xmlns:xlink="http://www.w3.org/1999/xlink" x="0px" y="0px"
	 width="4000px" height="4000px" viewBox="0 0 4000 4000" enable-background="new 0 0 4000 4000" xml:space="preserve">
<g>
	<path fill="#3E665C" d="M3809.143,1852.733c0,894.701-652.326,1639.748-1506.423,1784.679l-19.597-33.943l-0.549-0.832
		l36.264-66.041l39.238-70.932c380.582-84.553,712.248-300.904,944.479-598.352c115.963-18.919,208.315-73.161,263.779-155.471
		c54.929-81.76,67.307-182.31,34.89-283.01c-7.219-22.505-17.354-45.177-29.884-68.115c52-160.049,80.112-330.834,80.112-507.984
		c0-911.106-741.322-1652.413-1652.422-1652.413c-225.41,0-440.381,45.344-636.317,127.539l-76.222-2.105
		c-32.111-6.388-68.131-10.005-108.743-10.005c-7.51,0-14.729,0.13-21.673,0.276l-62.315,2.097l-2.777,2.801h-1.252
		c-19.871,0-39.482,0.962-58.53,2.885c280.049-177.982,612.264-281.171,967.83-281.171
		C2997.188,42.636,3809.143,854.607,3809.143,1852.733"/>
	<path fill="#3E665C" d="M1715.227,3603.469l-19.887,33.775C841.384,3492.512,188.933,2747.434,188.933,1852.733
		c0-303.271,74.953-589.302,207.338-840.589c8.472,33.761,26.282,68.002,52.838,101.801c10.014,25.139,23.077,45.178,32.112,58.813
		c2.382,3.608,4.747,7.082,7.387,10.433c-91.375,204.698-141.97,431.337-141.97,669.543
		c0,787.507,553.854,1448.145,1292.506,1612.786L1715.227,3603.469z"/>
	<polygon fill="#5C9989" points="1977.358,3788.463 1863.273,3979.807 1679.377,3979.807 1880.107,3631.879 	"/>
	<polygon fill="#5C9989" points="2333.139,3979.807 2159.148,3979.807 2011.148,3731 1913.884,3574.424 1690.106,3168.5 
		1874.689,3168.5 2010.599,3414.721 2098.755,3574.424 	"/>
	<polygon fill="#5C9989" points="2322.393,3168.5 2132.179,3511.43 2044.01,3351.717 2138.62,3168.5 	"/>
	<line fill="none" x1="2344.264" y1="3490.115" x2="2318.793" y2="3536.543"/>
	<path fill="#5C9989" d="M1100.354,1007.978c8.287,4.915,16.01,10.173,22.985,15.646
		C1116.18,1018.357,1108.641,1013.078,1100.354,1007.978"/>
	<path fill="#5C9989" d="M984.864,853.31c-8.47-25.839,20.711-51.822,62.18-74.252c17.14-9.218,19.215-30.517,12.973-54.271
		c-1.862-7.509-4.701-15.231-8.089-22.954v-0.213c-11.69-26.565-30.708-52.382-48.046-64.065c-6.593-4.326-15.446-7.165-26.19-8.279
		c-47.847-5.821-130.568,17.163-182.186,43.329c-4.152,2.084-7.907,4.167-11.493,6.235c-60.302,34.646-78.57,70.841-102.884,107.218
		C657,822.2,561.105,930.738,549.629,957.111c-11.675,26.571,44.261,82.53,44.261,82.53c-3.189,11.485,6.029,26.755,19.23,46.719
		c2.626,4.144,7.905,5.259,14.696,4.716c7.524,17.896,21.871,44.086,45.392,55.38c33.348,16.018-16.758-29.556-10.349-65.735
		c23.168-9.064,48.244-20.367,62.544-18.855c28.479,3.021,85.912,15.835,83.653,43.338c-2.258,27.326-26.188,34.659-65.002,69.159
		c-2.641,2.436-5.082,4.327-7.341,6.212c-11.691-9.257-23.733-29.769-23.733-18.101c0,8.485,6.959,19.063,12.806,26.213
		c-11.874,8.472-9.052,6.96,5.279,32.967c15.645,28.25,28.816,36.164,42.963,47.832c25.047,20.56,92.154-4.517,114.927-50.297
		c10.928-21.476,32.218-47.107,51.616-68.192c48.778-85.759,87.423-121.915,109.096-136.803c0.214-0.184,0.58-0.352,0.748-0.573
		h0.198l17.125-24.106C1067.739,989.511,993.518,879.111,984.864,853.31 M825.832,816.162c-3.19,4.145-18.469,9.06-18.469,9.06
		c-25.81-16.568-18.284-33.738-18.284-33.738c5.662-17.293,46.947-24.106,46.947-24.106S833.568,806.372,825.832,816.162"/>
	<path fill="#5C9989" d="M1103.377,478.743l-0.962,0.923l-1.876,2.083c-11.875,12.438-59.723,63.309-98.901,114.354
		c-6.044-2.075-12.637-3.188-19.429-3.938c-6.395-0.762-13.583-1.129-20.895-1.129c-44.657,0-101.921,14.688-147.159,32.417
		C844.665,564.464,921.175,474.004,1103.377,478.743"/>
	<path fill="#5C9989" d="M1380.129,561.625c0,0-138.872,43.146-188.018,79.723c-0.55,0.572-1.327,0.909-1.893,1.297
		c-1.893,1.139-2.823,1.908-2.823,1.908s-53.891-35.82-110.424,23.727c-10.347-18.857-24.847-39.399-42.2-53.892
		c38.264-49.176,83.866-97.588,93.451-107.592l1.527-1.679l31.455-31.495C1229.794,471.371,1340.004,481.557,1380.129,561.625"/>
	<path fill="#5C9989" d="M1732.659,1348.452c-6.396,15.057-15.813,29.944-28.832,44.084
		c-101.737,111.172-320.859,162.604-378.521,241.162c0,0,2.656-45.032,23-92.141c4.899-11.492,10.943-23.168,18.254-34.478
		c76.327-35.034,184.478-101.556,210.284-205.348c6.975-28.479,10.363-55.402,10.563-81.203l16.192-4.906
		c3.39-1.122,55.205-17.354,106.074-52.213C1732.842,1205.267,1762.618,1279.673,1732.659,1348.452"/>
	<path fill="#5C9989" d="M1337.547,1519.719c-6.944,15.819-15.797,30.708-25.793,44.657
		c-74.816,105.516-216.863,160.14-216.863,160.14c4.701-72.343,57.448-126.425,113.415-163.902l80.265-23.564
		C1291.211,1536.285,1310.425,1530.645,1337.547,1519.719"/>
	<path fill="#5C9989" d="M1075.186,1689.068c0,0-184.079,80.182-166.984,253.768c17.094,173.578,104.685,143.213,104.685,143.213
		s1.815-5.174,22.863-41.956c21.03-36.843,44.672-142.008,39.437-211.71C1069.936,1762.685,1056.049,1728.444,1075.186,1689.068"/>
	<path fill="#5C9989" d="M2949.051,2468.92c-68.971,135.477-121.153,280.56-132.096,303.553
		c-10.913,23-100.213,24.861-141.101,16.56c-39.193-7.912-9.417-55.388-7.158-59.148c-28.448,23.74-16.392,62.354-16.392,62.354
		s-33.729,5.267-58.027-5.472c-111.538-49.175,123.029-168.229,123.029-168.229c49.358-92.704,19.597-270.396-106.637-319.746
		c-11.493-4.511-23.353-10.005-35.806-16.407c-123.81-64.422-282.05-214.589-282.05-214.589s-33.546,3.404-95.526,18.254
		c-33.149,7.943-74.602,19.23-123.608,35.073c-140.155,45.413-493.447,104.539-538.486,136.238
		c-44.826,31.426,37.516,273.372,37.516,273.372c-108.714,90.604-115.322,324.231-115.322,324.231
		c-92.703,72.947-263.779,58.242-315.595,51.643c-9.981-1.121-22.971-25.803-21.107-35.807c5.28-28.045,34.874-35.989,45.786-38.057
		c-71.031,8.295-53.677,69.551-53.677,69.551c-2.642,0.938-5.479,1.51-8.686,1.678c-21.458,2.457-47.116-38.254-40.506-58.768
		c31.288-97.794,200.867-99.487,200.867-99.487c61.965-287.526-142.077-550.39-142.077-550.39l6.029-24.077l-81.378-83.096
		c55.936-91.948,54.821-251.371,50.671-324.629l10.546-4.146c4.915-1.914,99.861-39.01,178.798-111.536l-6.379,110.026
		l74.771-102.136c21.854-29.785,83.104-59.699,147.922-91.36c79.686-38.996,169.932-83.104,227.958-146.61
		c15.278-16.583,27.335-35.02,35.623-54.463c2.26-5.066,4.167-9.951,5.678-15.033c111.507,12.05,206.851,128.479,206.851,128.479
		c-47.68-4.7-122.251,24.504-122.251,24.504c188.948,143.559,503.245,134.354,687.308,156.568
		c149.603,18.077,196.533,192.938,207.827,275.081c2.81,19.017,3.754,33.172,3.373,39.199
		c-1.511,31.83,11.126,142.796,82.524,255.677C2909.674,2340.457,2949.051,2468.92,2949.051,2468.92"/>
	<path fill="#5C9989" d="M1763.563,948.083c-41.574-114.025-288.077-178.531-383.436-197.754
		c200.333,18.849,257.339,50.602,257.339,50.602s80.172-151.652-95.665-213.475c-58.043-20.412-108.546-3.22-108.546-3.22
		l-42.001,13.025c-36.157,11.286-136.781,45.947-174.663,72.512l-1.129,0.932l-5.267,3.435l-21.475,21.084l-22.054-19.612
		c-0.183,0-8.272-4.325-19.017-4.325c-14.499,0-29.213,7.555-43.514,22.794l-11.508,12.256c3.954,11.126,6.212,22.039,6.212,22.039
		c6.396,37.66-6.013,68.558-34.081,83.652c-31.104,16.772-40.536,28.09-43.359,32.22c8.104,17.91,45.391,76.708,77.44,124.342
		l14.315,21.488l-12.804,17.903c8.287,4.868,16.009,10.172,22.969,15.621c3.39,2.655,6.793,5.279,9.998,7.943
		c3.221,2.436,6.228,5.074,9.233,8.098c3.007,2.448,5.845,5.265,8.471,8.11c2.474,2.442,4.914,4.877,7.371,7.549
		c0.184,0.541,0.732,1.091,1.297,1.641c2.076,2.487,4.167,4.922,5.846,7.195c4.519,5.434,8.473,11.295,12.059,16.957
		c2.075,3.198,3.77,6.174,5.479,9.409c1.877,3.205,3.372,6.602,4.899,9.997c1.129,2.44,2.244,4.7,3.19,7.165
		c3.77,9.792,6.594,19.384,8.47,28.822c48.229,30.725,80.845,63.11,102.136,95.521c0,0,0,0.168,0.183,0.168
		c15.446,19.04,27.885,43.888,30.724,76.319c0.184,0.184,0.184,0.365,0.184,0.557c18.453,104.96-54.837,192.199-54.837,192.199
		s227.226-66.515,262.466-208.583c65.567-264.513-233.62-410.146-250.592-418.089c295.418,97.609,302.76,305.238,302.76,305.238
		S1822.37,1109.375,1763.563,948.083"/>
	<path fill="#5C9989" d="M1075.934,1039.344c0,0-78.814,63.675-94.154,131.554c-15.322,67.88-42.688,148.938-120.419,222.25
		c-77.745,73.39-198.12,128.64-82.126,431.421c64.621,168.603,96.352,76.633,96.352,76.633s22.984-88.667,59.126-118.23
		c36.126-29.57,51.448-75.563,42.704-122.632c-8.791-47.085-7.28-156.563,43.986-206.928
		c51.267-50.372,163.842-184.354,137.315-309.551C1142.51,1067.419,1075.934,1039.344,1075.934,1039.344"/>
	<path fill="#5C9989" d="M1199.513,1197.469c0,0,8.792,67.444-36.797,137.865c-45.619,70.421-63.385,91.405-94.978,133.377
		c-15.766,20.971-26.557,37.813-33.807,58.438c-7.234,20.59-10.927,44.948-12.53,80.892c-3.205,71.946-10.684,71.946-10.684,71.946
		s62.911-20.993,101.128-91.443c38.217-70.39,120.633-79.388,120.633-79.388S1388.888,1284.226,1199.513,1197.469"/>
	<path fill="#3E665C" d="M1232.983,2710.492c-57.096,5.998-175.027,29.754-204.988,123.205c-4.699,15.094-3.007,31.279,2.076,45.779
		c-42.002,3.969-95.16,7.158-98.717-1.121c-38.445-87.813,35.807-96.475,35.807-96.475c-74.617-2.274-60.118,83.652-60.118,83.652
		c-146.213-163.346,255.674-207.819,255.674-207.819c3.771-144.71-41.65-329.162-76.693-448.239l6.809,8.882
		C1094.708,2220.594,1272.743,2453.657,1232.983,2710.492"/>
	<path fill="#3E665C" d="M2677.731,2410.511c-70.283,70.85-183.132,333.879-199.921,335.946
		c-35.789,3.977-163.886,26.367-171.625,3.977c-16.957-48.633,35.042-92.719,35.042-92.719
		c-62.56,10.745-55.005,81.593-55.005,81.593c-196.518-69.505,140.55-196.343,140.55-196.343
		c55.968-92.313,34.86-189.9-54.455-262.436c-51.801-42.208-92.705-115.141-117.947-168.643c10.546-2.074,19.215-3.57,26.007-4.524
		c41.269,37.874,169.946,152.411,277.331,208.187c13.951,7.182,26.755,13.21,39.393,18.094
		C2637.989,2349.653,2662.85,2381.306,2677.731,2410.511"/>
	<path fill="#3E665C" d="M3242.025,2715.956c-167.137,12.606-236.825-363.465-289.603-551.688
		c-38.019-134.919-119.443-215.549-162.392-250.203c-11.294-82.165-58.226-257.01-207.812-275.089
		c368.906,14.522,480.626,676.404,499.107,765.895c18.453,89.682,117.169,277.912,225.151,243.793
		c107.95-34.265,94.961-176.539,10.531-295.06c-84.203-118.504-240.962-281.872-198.763-441.249
		c42.033-159.201,172.39-143.19,252.639-92.506c80.265,50.688,46.55,152.219,4.166,209.147
		c-42.2,57.089-109.844,33.891-135.271-42.224c-25.228-76.104,145.816,2.076,82.509-93.069
		c-63.491-94.955-152.227-18.842-154.303,105.707c-2.074,124.686,243.038,353.079,283.163,477.803
		C3491.305,2601.763,3408.997,2703.31,3242.025,2715.956"/>
	<path fill="#3E665C" d="M925.89,1229.763c-16.59,44.818-43.162,91.896-90.262,136.193c-7.92,7.555-16.574,15.063-25.244,22.609
		c-20.329,17.697-39.59,35.632-56.349,55.586c0.184-11.492,1.894-24.306,5.479-37.889c9.417-35.768,22.238-64.041,34.676-92.291
		c1.313,0.175,2.81,0.175,4.136,0.175c41.271,0,98.732-27.51,123.977-78.005C923.251,1234.259,924.38,1232.176,925.89,1229.763"/>
</g>
</svg>
