<?xml version="1.0" encoding="utf-8"?>
<!-- Generator: Adobe Illustrator 16.0.0, SVG Export Plug-In . SVG Version: 6.00 Build 0)  -->
<!DOCTYPE svg PUBLIC "-//W3C//DTD SVG 1.1//EN" "http://www.w3.org/Graphics/SVG/1.1/DTD/svg11.dtd">
<svg version="1.1" id="Layer_1" xmlns="http://www.w3.org/2000/svg" xmlns:xlink="http://www.w3.org/1999/xlink" x="0px" y="0px"
	 width="4000px" height="4000px" viewBox="0 0 4000 4000" enable-background="new 0 0 4000 4000" xml:space="preserve">
<g>
	<path fill="#666741" d="M1636.27,3623.598c-340.055-69.225-645.867-234.023-887.988-465.023l33.293-16.287
		c1.238-0.703,47.099-23.42,115.642-61.182c180.131,161.066,395.511,283.244,633.162,353.439l91.688,166.225L1636.27,3623.598z"/>
	<path fill="#666741" d="M343.573,1846.789c0,353.982,111.738,682.511,301.896,951.809
		c-34.271,53.084-61.854,100.994-78.278,139.023l-5.709,13.248c-235.615-305.943-375.902-688.901-375.902-1104.08
		c0-504.999,207.451-962.395,541.658-1291.587l105.893,117.57C530.957,972.854,343.573,1388.292,343.573,1846.789"/>
	<path fill="#666741" d="M1999.054,33.336c-350.399,0-677.901,99.885-955.565,272.927l107.576,119.393
		c28.547-17.281,57.676-33.566,87.324-48.905l0.137-0.138c60.324-31.209,122.746-59.068,187.109-82.893
		c178.735-66.171,371.983-102.417,573.42-102.417c201.436,0,394.668,36.246,573.404,102.417
		c64.365,23.824,126.662,51.684,186.972,82.748l0.262,0.282c29.693,15.338,58.807,31.624,87.354,48.905L2954.76,306.1
		C2677.079,133.22,2349.577,33.336,1999.054,33.336"/>
	<path fill="#666741" d="M3812.499,1846.789c0,415.293-140.285,798.274-375.854,1104.194l-5.726-13.361
		c-16.438-38.029-44.021-85.939-78.309-139.023c190.186-269.467,301.908-597.826,301.908-951.809
		c0-458.497-187.369-873.936-489.539-1174.016l105.877-117.571C3605.063,884.396,3812.499,1341.79,3812.499,1846.789"/>
	<path fill="#666741" d="M3249.809,3158.573c-186.68,178.178-411.26,316.918-660.193,402.902v-168.297
		c189.619-72.568,362.479-179.027,511.275-312.072c68.559,37.762,114.371,60.479,115.627,61.182L3249.809,3158.573z"/>
	<polygon fill="#96995E" points="1874.487,3797.651 1760.347,3989.108 1576.313,3989.108 1777.168,3640.973 	"/>
	<polygon fill="#96995E" points="2230.491,3989.108 2056.407,3989.108 1908.315,3740.153 1810.979,3583.473 1587.059,3177.309 
		1771.78,3177.309 1907.78,3423.678 1995.961,3583.473 	"/>
	<polygon fill="#96995E" points="2219.761,3177.309 2029.423,3520.44 1941.194,3360.645 2035.866,3177.309 	"/>
	<rect x="2274.392" y="3178.364" fill="#96995E" width="151.935" height="809.656"/>
	<polygon fill="#666741" points="2002.681,1661.999 2002.681,2061.068 1867.002,1850.976 	"/>
	<line fill="none" x1="2294.886" y1="3487.246" x2="2269.401" y2="3533.764"/>
	<path fill="#96995E" d="M2817.886,1096.011L2005.222,831.81h-4.836l-573.437,186.42l-124.289,40.349l-115.168,37.434
		c-32.771,323.146,31.931,806.325,91.519,1153.558c8.664,50.734,17.328,98.529,25.563,142.467l9.735,51.163
		c9.733,51.348,18.795,96.371,25.99,132.525c13.53,64.885,21.979,102.716,21.979,102.716
		c141.189,143.079,640.401,258.896,640.401,258.896s499.475-115.817,640.646-258.896
		C2643.327,2678.441,2874.321,1651.031,2817.886,1096.011 M2000.386,2163.155l-211.385-312.179l211.385-312.188l211.125,312.188
		L2000.386,2163.155z M2050.04,2656.652c0,26.22-21.123,47.352-47.358,47.352c-26.206,0-47.329-21.132-47.329-47.352
		c0-26.189,21.123-47.336,47.329-47.336C2028.917,2609.316,2050.04,2630.461,2050.04,2656.652 M2002.681,1028.156
		c26.235,0,47.358,21.338,47.358,47.344c0,26.205-21.123,47.328-47.358,47.328c-26.206,0-47.329-21.123-47.329-47.328
		C1955.352,1049.494,1976.476,1028.156,2002.681,1028.156 M1255.332,1139.948l595.813-152.783
		c-41.437,13.087-489.295,152.99-489.295,162.306c0,9.704-11.418,26.634,14.571,27.482c25.808,0.85,100.812-6.544,100.812-6.544
		s-167.793,41.213-171.188,64.655c-3.154,23.45-14.345,47.558,14.586,50.926c29.176,3.176,135.709-4.845,135.709-4.845
		s-142.888,43.54-142.888,66.171c0,22.601,8.051,41.183,36.354,41.183c27.063,0,120.049-13.294,127.887-14.343
		c-9.521,2.732-161.914,47.535-161.914,71.651c0,25.125,4.01,43.531,38.879,41.205c33.215-2.326,110.529-14.365,117.326-15.199
		c-8.879,2.923-153.021,50.48-151.354,72.477c1.699,22.624,3.184,40.372,41.221,42.897c32.971,2.128,111.801-16.699,131.256-21.346
		c-26.189,7.821-156.373,48.393-156.373,74.604c0,28.938,5.678,47.559,33.154,42.698c27.459-4.854,131.668-12.889,131.668-12.889
		s-167.195,48.406-167.195,65.505c0,16.93-1.684,37.004,35.527,35.512c37.194-1.685,102.508-5.694,102.508-5.694
		s-134.01,41.214-131.469,71.865c2.326,30.629,5.496,39.529,38.666,43.548c33.199,4.01,79.899-4.019,79.899-4.019
		s-108.203,32.351-105.662,54.102c2.312,21.759,7.164,40.371,35.496,40.371c28.315,0,112.229-8.021,112.229-8.021
		s-132.494,34.64-131.668,58.111c0.842,23.474,9.705,48.393,34.67,47.535c23.233-0.827,105.248-15.191,117.905-17.313
		c-17.099,5.296-154.705,48.186-152.576,72.271c2.524,25.815,8.051,38.695,34.67,44.391c26.647,5.702,112.229-5.267,112.229-5.267
		s-121.767,34.44-129.144,50.497c-7.181,16.049,2.541,54.975,27.476,54.103c23.451-0.834,79.703-9.299,86.651-10.362
		c-7.821,2.771-91.274,33.397-103.565,41.014c-12.902,8.036,0,42.912,11.221,54.103c10.561,10.6,103.963-4.003,117.295-6.101
		c-12.26,4.012-91.717,29.167-105.906,34.434c-15.397,5.503-8.021,55.594,5.709,74.176c12.689,17.335,141.203-13.937,158.104-17.947
		c-15.858,5.061-145.612,48.807-154.095,59.161c-8.848,11.196,7.209,45.262,16.088,55.815
		c8.863,10.354,162.328-20.305,162.328-20.305l-172.461,50.092C1255.332,1977.99,1255.332,1139.948,1255.332,1139.948
		 M2002.681,2838.212l-485.896-202.05l483.601,147.305l468.784-147.305L2002.681,2838.212z"/>
	<polygon fill="#96995E" points="1314.492,709.686 1232.647,782.232 1376.162,937.456 1503.744,895.945 	"/>
	<polygon fill="#96995E" points="1125.27,877.737 1225.865,986.385 1350.172,946.013 1207.056,805.062 	"/>
	<path fill="#96995E" d="M1371.463,469.57l-217.018,195.665L849.336,326.819c8.48-16.24,13.349-34.677,13.349-54.27
		c0-64.932-52.653-117.549-117.556-117.549c-64.916,0-117.557,52.617-117.557,117.549c0,64.916,52.641,117.563,117.557,117.563
		c13.898,0,27.185-2.557,39.554-6.988L1090.8,722.627L869.281,922.356l57.369,63.676l502.213-452.811L1371.463,469.57z"/>
	<path fill="#96995E" d="M2723.765,2638.98c203.765,182.188,551.455,356.157,562.229,361.423
		c-79.701-184.095-500.928-687.532-500.928-687.532c-8.662,50.728-17.311,98.483-25.561,142.438l92.131,130.85l-101.867-79.687
		C2740.052,2557.83,2730.958,2602.863,2723.765,2638.98"/>
	<polygon fill="#96995E" points="2683.601,709.686 2765.444,782.232 2621.944,937.456 2494.349,895.945 	"/>
	<polygon fill="#96995E" points="2872.837,877.737 2772.226,986.385 2647.95,946.013 2791.038,805.062 	"/>
	<path fill="#96995E" d="M2626.612,469.57l217.021,195.665l305.106-338.416c-8.465-16.24-13.315-34.677-13.315-54.27
		c0-64.932,52.642-117.549,117.556-117.549c64.916,0,117.541,52.617,117.541,117.549c0,64.916-52.625,117.563-117.541,117.563
		c-13.912,0-27.199-2.557-39.582-6.988l-306.088,339.503l221.518,199.729l-57.385,63.676l-502.213-452.811L2626.612,469.57z"/>
	<path fill="#96995E" d="M1274.326,2638.98c-203.762,182.188-551.453,356.157-562.229,361.423
		c79.703-184.095,500.942-687.532,500.942-687.532c8.648,50.728,17.312,98.483,25.563,142.438l-92.146,130.85l101.865-79.687
		C1258.058,2557.83,1267.134,2602.863,1274.326,2638.98"/>
</g>
</svg>
