<?xml version="1.0" encoding="utf-8"?>
<!-- Generator: Adobe Illustrator 16.0.0, SVG Export Plug-In . SVG Version: 6.00 Build 0)  -->
<!DOCTYPE svg PUBLIC "-//W3C//DTD SVG 1.1//EN" "http://www.w3.org/Graphics/SVG/1.1/DTD/svg11.dtd">
<svg version="1.1" id="Layer_1" xmlns="http://www.w3.org/2000/svg" xmlns:xlink="http://www.w3.org/1999/xlink" x="0px" y="0px"
	 width="4000px" height="4000px" viewBox="0 0 4000 4000" enable-background="new 0 0 4000 4000" xml:space="preserve">
<g>
	<path fill="#5F3E66" d="M3803.771,1834.235c0,339.114-93.988,656.442-257.176,927.659l-102.059-138.236
		c128.797-234.604,202.008-503.537,202.008-789.423c0-908.432-739.098-1647.535-1647.473-1647.535
		c-189.68,0-371.84,32.191-541.551,91.508c-54.527,5.977-101.082,20.375-140.879,43.414c-4.172,0.26-10.664,0.68-20.262,0.68
		c-19.953,0-43.801-1.527-68.871-2.895c-29.398-1.811-59.648-3.621-90.141-3.621c-51.977,0-92.895,5.408-128.66,17.195
		c-5.805,1.939-12.895,4.285-20.93,7.064c288.648-195.889,636.777-310.551,1011.293-310.551
		C2994.213,29.496,3803.771,839.024,3803.771,1834.235"/>
	<path fill="#5F3E66" d="M1497.154,3567.825c-751.734-217.813-1302.847-912.564-1302.847-1733.62
		c0-531.803,231.281-1010.406,598.261-1340.957c-0.137,0.283-0.273,0.428-0.273,0.85c-2.078,3.598-4.02,7.195-5.82,11.068
		c-0.992,1.963-2.109,4.156-3.07,6.531c-1.102,2.186-2.063,4.584-3.059,6.922c-0.121,0.273-0.258,0.701-0.41,1.123
		c-0.672,1.512-1.375,2.879-1.773,4.445c-5.285,12.732-9.715,26.186-13.031,40.607c-1.254,3.873-2.094,7.746-2.813,11.658
		c-0.809,3.438-1.496,6.791-2.168,10.373c-0.168,0.848-0.305,1.529-0.445,2.217c-8.035,42.137-11.367,96.779,0,161.131
		c-254.121,289.871-408.168,669.344-408.168,1084.031c0,691.007,427.727,1284.146,1032.375,1528.151L1497.154,3567.825z"/>
	<path fill="#5F3E66" d="M3257.228,3126.784c-158.16,154.049-344.523,279.391-550.398,367.568v-172.766
		c142.93-68.195,274.488-156.525,391.09-261.211L3257.228,3126.784z"/>
	<rect x="2162.088" y="3186.497" fill="#8F5D99" width="151.117" height="805.396"/>
	<rect x="2380.092" y="3186.497" fill="#8F5D99" width="151.164" height="805.396"/>
	<polygon fill="#8F5D99" points="1747.622,3802.491 1634.075,3992.948 1451.029,3992.948 1650.822,3646.654 	"/>
	<polygon fill="#8F5D99" points="2101.74,3992.948 1928.575,3992.948 1781.263,3745.296 1684.431,3589.46 1461.72,3185.429 
		1645.443,3185.429 1780.716,3430.482 1868.458,3589.46 	"/>
	<polygon fill="#8F5D99" points="2091.047,3185.429 1901.732,3526.757 1813.99,3367.82 1908.134,3185.429 	"/>
	<line fill="none" x1="2233.377" y1="3466.775" x2="2208.013" y2="3513.099"/>
	<line fill="none" x1="1999.13" y1="2778.388" x2="1998.978" y2="2778.243"/>
	<path fill="#5F3E66" d="M2083.513,2769.718h-129.696c-7.777,0-35.371,0.572-67.426,7.951
		c-69.117,15.943-113.773,52.648-128.762,104.877h-211.223c0-93.203,93.93-111.17,93.93-111.17
		c-119.688,0-115.242,94.334-115.242,94.334h-125.832c0-113.41,130.262-122.508,130.262-122.508s116.91,3.545,195.285-22.412
		c78.379-25.736,37.449-32.422,105.422-280.854c44.289-161.574-26.309-418.553-81.328-578.271
		c26.859,37.975,53.734,74.451,80.242,109.483c122.637,162.482,199.715,267.934,234.184,360.748
		c3.547,9.648,6.676,19.266,9.289,28.898c-41.344,77.443-73.395,179.725-73.395,179.725l-78.027-50.57
		c-43.512,157.137-70.402,253.09-72.25,257.695c1.512-0.344,10.742-0.9,55.965-0.9h118.223
		C2023.135,2746.747,2061.834,2740.636,2083.513,2769.718"/>
	<path fill="#5F3E66" d="M1841.171,1139.08l309.231,789.299c-173.422-140.834-314.043-279.606-374.989-395.971
		c-207.324-395.207-10.754-658.68,214.539-542.842c7.242,3.844,11.872,6.455,13.719,7.564c0.367,0.184,0.566,0.373,0.734,0.373
		l0.184,0.184c17.781,10.391,35.766,23.186,53.547,38.355c43.375,37.248,104.32,100.615,176.77,182.146l30.754,87.627
		l270.852,769.677L1841.171,1139.08z"/>
	<path fill="#5F3E66" d="M2910.978,2780.282l-216.766-81.893l-212.887-478.029c8.691,6.324,17.402,12.254,25.926,18.15
		c34.086,23.543,70.586,48.195,113.977,77.102v0.184c0,0,4.262,2.766,10.16,6.66c12.953,8.504,34.465,22.803,40.594,26.691v0.168
		l8.707,5.76l32.254,59.455l81.707,150.826L2910.978,2780.282z"/>
	<line fill="none" x1="2536.51" y1="2075.493" x2="2265.658" y2="1305.817"/>
	<path fill="#8F5D99" d="M2519.474,2929.245H1961.99c0-93.764,94.848-106.543,94.848-106.543
		c-119.125,0-112.083,97.275-112.083,97.275h-156.203c2.797-68.529,59.66-95.777,106.184-106.533
		c32.77-7.586,60.395-7.029,60.395-7.029h168.961c0,0-14.055-104.854-1.648-290.91c4.996-74.291-1.301-133.586-24.66-196.387
		c-35.188-94.662-108.766-197.148-239.364-370.182c-57.262-75.581-112.492-153.958-163.43-230.12
		c-142.484-213.648-251.234-411.686-276.047-496.363c-2.98-10.008-5.395-20.572-7.273-31.719
		c-20.898-115.984,7.273-280.482,7.273-280.482c5.547,54.633,103.387,169.352,103.387,169.352
		c-22.625-84.689,26.309-231.428,26.309-231.428c17.02,54.666,118.574,90.432,118.574,90.432
		c-5.742-94.121,48.906-163.789,48.906-163.789c4.797,16.295,104.871,42.811,172.855,93.389
		c26.508,19.822,46.891,44.467,62.064,66.695c-22.215-6.508-44.262-9.633-66.125-9.633c-76.879,0-145.281,39.998-187.539,109.881
		c-75.168,124.494-58.148,316.793,45.422,514.324c62.426,118.926,208.441,269.377,434.297,447.429l0.199,0.207l7.762,6.117
		c10.953,8.709,22.242,17.219,33.535,26.135l72.648,57.041l-1.117-2.957c46.309,34.65,94.863,69.484,144.867,104.686
		c-64.84-12.787-98.176,1.477-98.176,1.477v372.977c-28.922-68.186-116.941-57.813-116.941-57.813v309.979h194.402
		C2532.095,2814.749,2519.474,2929.245,2519.474,2929.245"/>
	<path fill="#8F5D99" d="M2177.092,1996.902c2.598,1.881,5.195,4.064,7.961,6.324l-7.762-6.117L2177.092,1996.902z"/>
	<path fill="#8F5D99" d="M2651.767,2291.909c-40.93-27.25-82.273-55.057-123.57-83.596c-10.555-7.219-21.113-14.445-31.488-21.834
		c-99.32-68.773-197.531-140.451-288.848-212.174l-231.067-590.485l522.68,703.132l55.797,75.053L2651.767,2291.909z"/>
	<path fill="#8F5D99" d="M3343.974,2716.931c-6.828-3.705-158.051-88.566-364.992-216.072
		c-83.023-51.127-175.09-109.123-270.301-171.357v-0.215c-18.93-12.215-37.832-24.818-56.914-37.416l-52.25-148.404
		l-299.207-849.862L3343.974,2716.931z"/>
	<path fill="#8F5D99" d="M3266.912,2960.556l-279.422-116.357l-242.34-447.262c68.902,44.445,140.848,89.691,214.582,135.268
		c21.832,13.52,42.746,26.293,63.156,38.721L3266.912,2960.556z"/>
	<path fill="#8F5D99" d="M1933.634,774.787c-14.469-28.875-42.441-31.273-44.645-44.637c-2.414-13.152,14.453-38.529,63.742-36.115
		c0,0-163.629-61.344-92.648-128.574c0,0-102.285-13.361-99.871-156.563c0,0-79.293,39.814-137.121,31.313
		c-57.813-8.371-170.813-20.418-234.551,21.658c-63.742,42.084-243.09-8.357-330.91,20.557
		c-87.82,28.738-139.52,66.895-145.633,156.219c0,0,54.469-85.268,145.25-97.107c90.814-11.871,253.465,6.303,253.465,6.303
		s-205.277-10.016-256.215,4.652c-50.785,14.43-97.121,48.857-118.055,79.828c0,0,36.348-20.924,80.793-17.248
		c44.641,3.711,356.117,4.65,377.965,48.209c21.695,43.504,32.621,69.859,0,147.09c-18.348,43.191-30.938,123.793-25.574,208.639
		c4.277-62.801,12.039-111.156,12.969-114.875c16.668-62.066,48.754-83.389,50.602-81.898l22.215,84.326
		c4.262,14.799,12.439,34.445,28.539,59.646c8.359-63.572,26.523-119.879,29.84-129.695l35.949-108.033l33.887,108.76
		c4.629,14.658,25.758,31.525,49.652,45.229c11.871-75.984,51.902-127.678,53.934-130.246l43.91-56.162
		c0,0,7.578,46.514,17.234,58.379c5.727,7.195,23.145,10.916,35.566,16.301c36.516,15.928,86.352,37.791,126.93,68.004
		c10.008,7.416,19.25,15.369,27.594,23.527c19.098-3.926,40.012-10.373,55.965-20.938
		C1994.411,841.332,1947.904,803.709,1933.634,774.787 M1486.532,533.041c-36.852,15.156-53.887-24.49-53.887-24.49
		s24.814-35.186,70.402-30.021C1503.048,478.53,1523.232,517.809,1486.532,533.041"/>
	<path fill="#8F5D99" d="M792.296,494.096c-2.078,3.598-4.035,7.195-5.82,11.068C789.103,499.506,791.193,495.762,792.296,494.096"
		/>
</g>
</svg>
