<?xml version="1.0" encoding="iso-8859-1"?>
<!-- Generator: Adobe Illustrator 16.0.0, SVG Export Plug-In . SVG Version: 6.00 Build 0)  -->
<!DOCTYPE svg PUBLIC "-//W3C//DTD SVG 1.1//EN" "http://www.w3.org/Graphics/SVG/1.1/DTD/svg11.dtd">
<svg version="1.1" id="Layer_1" xmlns="http://www.w3.org/2000/svg" xmlns:xlink="http://www.w3.org/1999/xlink" x="0px" y="0px"
	 width="4000px" height="4000px" viewBox="0 0 4000 4000" style="enable-background:new 0 0 4000 4000;" xml:space="preserve">
<g>
	<path style="fill:#5B986D;" d="M2902.055,2083.915c-22.295-148.683-71.354-190.228-174.345-182.142
		c-60.882,4.744-102.014,45.015-122.897,109.407c0,0,0,0.275-0.152,0.548c-0.141,0.429-0.141,0.846-0.279,1.531
		c-0.977,4.199-3.489,14.777-7.807,30.109v0.153c-6.002,29.529-8.496,63.249-7.381,99.771
		c3.768,138.673-47.684,487.085-534.757,514.96c-487.069,27.587-579.309-261.311-570.273-522.904
		c5.022-143.128,91.428-252.527,202.642-351.057l0.122-0.284c69.855-61.871,149.571-119.429,225.093-178.39l0.154-0.138l0.536-0.547
		c1.667-1.256,3.353-2.647,5.022-4.049c97.001-121.805,120.4-234.408,122.222-244.023c0.141-0.409,0.141-0.693,0.141-0.693
		c9.203-66.342-8.79-116.085-26.203-164.73c-12.537-34.693-25.506-70.663-27.316-109.962
		c-3.354-69.828,36.797-118.89,110.37-134.344c16.173-3.484,33.46-5.162,51.284-5.162c-5.574-10.725-11.545-21.041-17.824-30.939
		v-0.138c-140.2-222.289-440.261-285.7-578.93-240.825c-365.141,118.181-503.792,132.965-495.02,190.106
		c8.775,57.135,37.622,128.491,75.827,91.974c6.954-6.696,14.489-12.258,22.434-17.01c0.134-0.125,0.414-0.272,0.551-0.272
		c9.603-5.583,20.072-9.747,31.067-12.681c6.418-1.68,13.111-2.927,20.079-3.903c24.251-3.486,51.858-2.647,83.224,0
		c46.102,4.041,232.868,12.124,301.282-57.988c0,0,13.951,52.832-27.178,121.953c-16.433,27.604-41.807,57.836-80.268,88.228
		c-3.905,3.066-7.946,6.125-11.714,9.199c-128.209,97.975-217.115,112.743-177.959,67.149c-4.47,3.506-53.93,44.336-8.79,51.441
		c47.099,7.657,148.008-40.131,217.68-91.294c126.695-93.212,138.393-124.723,158.33-243.458c0,0,5.725,57.702-10.72,102.981
		c0,0,253.634-23.129,233.853,194.699c-19.249,211.697-779.619,457.118-825.601,907.409c-1.254,12.82-1.946,25.771-2.097,39.016
		c-0.274,34.977,1.256,69.674,4.87,103.973c44.07,432.588,387.158,801.338,985.181,731.656
		C2692.032,2867.996,2963.93,2498.814,2902.055,2083.915 M1405.146,801.353v-5.018l0.705-0.705L1405.146,801.353z M1446.126,833.824
		c-9.467,0-32.051-13.794-32.051-42.362c0-1.395,0-2.791,0.26-4.329l37.364-37.496c15.188,3.216,26.611,19.929,26.611,41.825
		C1478.311,815.989,1455.741,833.824,1446.126,833.824"/>
	<polygon style="fill:#575657;" points="1405.146,785.243 1405.836,784.553 1405.146,790.261 	"/>
	<path style="fill:#3E684B;" d="M2549.75,2169.785c-3.337,125.701-57.975,423.951-497.531,449.021
		c-20.764,1.118-41.127,1.819-60.758,1.819c-161.668,0-282.788-40.551-359.841-120.264
		c-74.848-77.635-111.353-194.98-108.429-349.135c211.693,100.355,133.233,327.803,541.843,352.183
		C2337.367,2519.854,2480.902,2319.863,2549.75,2169.785"/>
	<path style="fill:#3E684B;" d="M1020.072,2195.277C726.169,2086.29,713.353,1810.78,713.353,1810.78
		c84.171,152.729,191.207,217.118,306.446,248.481c-0.125,1.805-0.398,3.614-0.55,5.416c-1.396,13.967-2.101,28.158-2.219,42.682
		C1016.734,2137.443,1017.853,2166.859,1020.072,2195.277"/>
	<path style="fill:#3E684B;" d="M1214.416,1040.176c-30.376-29.127-48.353-54.072-58.797-73.298
		c1.254-0.992,2.495-1.826,3.752-2.651l1.821-1.132c4.043-2.231,8.364-4.311,12.953-5.969c5.975,11.411,14.776,25.069,27.473,40.539
		C1207.466,1020.938,1213.731,1038.21,1214.416,1040.176"/>
	<path style="fill:#5B986D;" d="M1248.076,1024.757c-12.953-12.543-23.826-24.253-32.616-35.125
		c-12.679-15.476-21.437-29.128-27.438-40.546c2.631-0.985,5.436-1.816,8.358-2.647c3.064-0.849,6.554-1.536,10.444-2.089
		c1.684-0.286,3.37-0.562,5.158-0.841c4.734-0.715,9.91-1.256,15.328-1.54C1232.885,982.655,1247.108,1021.823,1248.076,1024.757"/>
	<path style="fill:#3E684B;" d="M1527.648,965.381c-14.058,22.727-35.678,48.074-68.705,74.153
		c-8.776,6.964-17.29,13.374-25.5,19.367c-39.164-14.489-102.162-19.505-158.326,58.104c-0.676,0.849-1.256,1.82-1.932,2.659
		c-13.258,18.121-28.604,36.657-45.598,54.478c-66.885,70.391-158.881,129.629-252.105,114.575
		c-115.822-18.676-116.925-151.356-116.925-156.232c0.552,3.072,20.764,105.917,105.624,96.448c0,0-43.331-19.523-45.415-168.212
		c0,0,23.154,232.874,191.48,126.533c57.007-36.096,87.111-56.873,118.043-97.274c21.898-28.712,102.026-116.643,202.647-133.097
		c0.272-0.14,0.398-0.14,0.686-0.14c7.121-0.546,14.225-1.395,21.179-2.363h0.581
		C1477.346,953.124,1502.274,956.198,1527.648,965.381"/>
	<polygon style="fill:#575657;" points="1405.852,784.545 1405.146,790.276 1405.146,785.232 	"/>
	<path style="fill:#5B986D;" d="M3527.09,876.848c-347.299-62.375-449.678,387.446-449.678,387.446
		c-289.494-129.15-507.665,200.365-507.665,200.365c-184.359-160.99-410.431-49.503-543.741,45.742
		c123.813-225.699,5.326-317.307,0-430.735c-2.985-62.362,39.873-85.628,79.135-93.93c32.338-6.761,62.106-3.52,62.106-3.52
		c411.595,5.849,625.079-247.895,945.751-256.737C3433.549,716.506,3527.09,876.848,3527.09,876.848"/>
	<path style="fill:#3E684B;" d="M2958.928,707.561c-91.017,22.574-175.743,60.217-263.56,99.228
		c-126.388,56.16-256.267,113.87-417.796,131.006c21.88-4.884,45.983-13.384,72.194-26.896
		C2468.914,849.156,2672.677,701.152,2958.928,707.561"/>
	<path style="fill:#3E684B;" d="M3907.865,1867.366c0,745.515-450.505,1389.962-1098.91,1685.584v-180.413
		c554.324-282.997,933.688-851.456,933.688-1505.171c0-315.229-88.289-610.699-241.982-863.925c1.229,0.152,2.449,0.467,3.663,0.604
		l205.487,36.95C3836.568,1290.097,3907.865,1570.685,3907.865,1867.366"/>
	<path style="fill:#3E684B;" d="M3448.234,655.99c-71.895-32.515-167.334-57.907-291.979-60.04
		c-305.343-264.316-706.314-424.812-1144.949-424.812c-954.665,0-1731.341,760.879-1731.341,1696.228
		c0,697.951,432.573,1298.918,1048.746,1558.832l89.821,163.087l-20.976,36.319C652.025,3375.129,114.748,2681.599,114.748,1867.366
		c0-1024.581,850.844-1858.11,1896.559-1858.11C2585.211,9.256,3100.167,260.199,3448.234,655.99"/>
	<rect x="2073.106" y="3191.229" style="fill:#5B986D;" width="150.609" height="802.721"/>
	<rect x="2290.389" y="3191.229" style="fill:#5B986D;" width="150.609" height="802.721"/>
	<rect x="2507.653" y="3191.229" style="fill:#5B986D;" width="150.627" height="802.721"/>
	<polygon style="fill:#5B986D;" points="1660.007,3805.164 1546.852,3995 1364.387,3995 1563.539,3649.828 	"/>
	<polygon style="fill:#5B986D;" points="2012.941,3995 1840.357,3995 1693.529,3748.181 1597.043,3592.856 1375.042,3190.17 
		1558.182,3190.17 1692.993,3434.433 1780.427,3592.856 	"/>
	<polygon style="fill:#5B986D;" points="2002.286,3190.17 1813.592,3530.363 1726.158,3371.928 1819.977,3190.17 	"/>
</g>
</svg>
