<?xml version="1.0" encoding="utf-8"?>
<!-- Generator: Adobe Illustrator 16.0.0, SVG Export Plug-In . SVG Version: 6.00 Build 0)  -->
<!DOCTYPE svg PUBLIC "-//W3C//DTD SVG 1.1//EN" "http://www.w3.org/Graphics/SVG/1.1/DTD/svg11.dtd">
<svg version="1.1" id="Layer_1" xmlns="http://www.w3.org/2000/svg" xmlns:xlink="http://www.w3.org/1999/xlink" x="0px" y="0px"
	 width="4000px" height="4000px" viewBox="0 0 4000 4000" enable-background="new 0 0 4000 4000" xml:space="preserve">
<g>
	<path fill="#97805C" d="M3078.788,2589.336c-21.789-27.212-77.645-145.749-80.416-181.175c0,0,34.094,31.334,38.215,50.426
		c0,0-9.558-95.218-34.018-119.855c2.669,1.502,44.974,26.232,47.564,39.442c0,0,8.229-51.761-2.668-108.979
		c-10.879-57.219,54.164-322.47-10.879-421.613c-89.258-136.021-161.995-134.061-217.063-236.263
		c-54.984-102.19-209.04-513.559-369.87-660.998c0,0,107.019-20.256,171.446-84.608c-7.671,1.511-223.484,45.786-336.197-23.665
		c0,0,205.88-54.98,251.509-144.591c0,0-348.889,83.289-507.665,14.102c0,0,157.705-43.994,250.24-134.59
		c0,0-232.034,59.626-347.709,40.358c0,0,102.817-55.798,145.216-184.848c-5.365,3.652-177.72,121.815-329.527,148.336
		c0,0,46.217-69.349,61.694-129.153c0,0-121.482,106.039-185.132,129.153c0,0,8.668-122.181,22.675-178.155
		c0,0-96.117,108.365-115.319,178.253c0,0-20.961-129.06-7.14-160.662c-4.734,3.923-155.836,130.745-185.1,228.834
		c0,0-99.62-94.435-55.869-223.659c0,0-108.369,117.01-94.451,258.57c0,0-214.919-19.207-277.75-148.522
		c0,0,29.638,157.268,96.046,211.444c0,0-120.498-22.768-176.461-85.588c0,0,38.464,103.081,94.344,166.001
		c0,0-260.353-47.217-354.678,38.382c0,0,221.873-6.97,295.321,54.167c0,0-143.337-6.959-218.48,59.451
		c0,0,311.045,45.414,344.229,202.691c33.222,157.259-9.71,187.696-21.417,240.712c-11.679,53.015-16.946,79.516-49.798,98.622
		c-32.932,19.101-113.513,98.607-128.352,152.711c-13.204,48.382-43.542,133.25-134.211,138.348
		c138.415,165.198,160.113,212.058,161.535,229.999c32.573-3.218,72.926-9.918,97.546-24.105c0,0,69.096,27.047,143.96-2.755
		c0,0-9.452,53.445-42.028,76.031c0,0,55.147-4.646,72.646-38.016c0,0,0,86.833-81.382,149.583c0,0,103.968-37.669,130.292-62.75
		c0,0,29.376,37.665-55.868,112.385c0,0,99.615-36.704,150.747-87.834c0,0-1.333,114.062,47.224,235.896
		c0,0,18.295-86.486,55.078-121.835c0,0,18.629,89.967,83.441,188.324c64.788,98.358,201.257,226.609,193.657,290.967
		c0,0-46.123,21.331-89.579,67.558c-13.059,13.839-25.817,29.818-36.957,48.21c0,0,14.097,12.121,35.334,7.475
		c2.142-4.366,24.818-48.376,59.791-51.223c-2.485,2.514-44.623,33.742-46.399,65.78c1.149,0,81.304,9.377,126.747-45.771
		c45.59-55.605,95.036-87.752,95.036-87.752s46.399-199.476,134.596-265.609c0,0,14.375,51.59,62.215,74.608
		c0,0-11.524-24.718-11.524-47.749c0,0,130.215,77.475,212.687,75.863c0,0-34.632-16.503-41.223-37.939
		c0,0,270.428,65.965,349.6,46.155c0,0-31.34-14.819-49.449-28.026c0,0,108.977-10.53,174.132-59.066c0,0-30.249,3.014-46.952,1.498
		c0,0,25.25-6.051,64.708-36.333c24.012-18.463,67.653,22.678,113.269,67.298c29.266,28.564,59.27,58.644,85.339,75.145
		c66.652,42.49,120.56,167.986,120.56,167.986s-45.33,4.812-92.549,50.875c-9.815,9.559-19.714,20.889-29.364,34.352
		c0,0,15.261,14.648,34.358,8.23c0,0,40.785-36.774,61.95-35.353c0,0-38.019,23.646-56.24,59.27c0,0,125.759,12.215,177.52-28.563
		c0,0,19.097-62.746,39.549-76.323C3061.12,2808.9,3100.573,2616.566,3078.788,2589.336 M1091.575,1437.112
		c0,0-7.849-58.291,43.563-73.105c51.226-14.819,56.494-2.686,70.424-19.921C1205.563,1347.137,1204.693,1448.175,1091.575,1437.112
		 M1260.804,1018.244c0,0-25.606-119.327,28.281-265.08C1282.687,774.052,1253.327,876.584,1260.804,1018.244 M1502.137,981.824
		c-45.138-159.399-195.547-251.775-204.823-257.407C1518.136,804.491,1502.137,981.824,1502.137,981.824"/>
	<path fill="#66553F" d="M3454.537,2103.018c0,0-25.787,15.965-73.623-18.664c-47.948-34.704-100.415-47.838-100.415-47.838
		s11.342,21.694,29.818,28.287c-4.104-1.151-60.878-18.207-83.558-43.993c-23.475-26.86-97.893-28.727-128.605-40.606
		c-2.223-0.908-4.642-1.612-7.138-2.333c-0.525-22.311-2.145-43.896-5.441-64.082c7.68,3.125,16.503,5.716,26.598,7.604
		c77.032,14.361,121.197,14.185,157.706,39.349c0,0-20.698,5.175-24.896,10.522c0,0,90.776,26.693,126.202,64.454
		C3406.606,2073.457,3429.288,2097.836,3454.537,2103.018"/>
	<path fill="#66553F" d="M793.359,2044.298c-6.531,22.033-96.754,19.188-170.639-44.725
		c-73.824-63.809-86.146-170.461-72.384-217.58c13.837-47.235,72.384,28.819,72.384,28.819s0.152,0.176,0.425,0.631
		C633.429,1823.568,799.702,2022.88,793.359,2044.298"/>
	<path fill="#66553F" d="M1587.918,2743.577c-18.571,10.623-50.87,31.86-81.946,64.971c-3.721,3.938-7.296,7.939-10.883,12.047
		c-27.391-6.958-41.846-17.039-41.846-17.039c40.344-53.19,100.842-86.224,100.842-86.224s-9.103-21.943-58.629-84.354
		c-20.35-25.603-36.681-58.073-48.742-87.542c11.875,14.895,24.288,29.992,36.426,44.88
		C1526.596,2643.244,1579.521,2707.694,1587.918,2743.577"/>
	<path fill="#66553F" d="M2890.28,2780.264c-20.166,7.843-47.298,22.31-74.592,48.894c-2.325,2.33-4.654,4.66-6.879,7.052
		c-17.055-9.812-27.948-20.61-27.948-20.61c32.761-46.229,81.412-61.841,81.412-61.841c-10.727-35.89-68.098-89.706-91.51-114.882
		c-3.372-3.57-6.866-7.937-10.252-12.749c10.616,9.104,21.164,17.212,31.243,23.648
		C2831.033,2674.747,2869.228,2738.75,2890.28,2780.264"/>
	<path fill="#66553F" d="M728.866,696.927c0,0-84.725,12.417-195.615,68.692c46.534-63.813,97.097-124.418,151.299-181.535
		C701.972,645.933,728.866,696.927,728.866,696.927"/>
	<path fill="#66553F" d="M1151.487,3433.947c-573.727-304.979-965.141-908.934-965.141-1602.758
		c0-303.645,75.006-589.99,207.415-841.748l64.664-1.793l-81.643,71.999l147.454,21.482
		c-114.982,225.32-179.908,480.39-179.908,750.06c0,533.741,253.873,1009.326,647.095,1312.2L1151.487,3433.947z"/>
	<path fill="#66553F" d="M3813.648,1831.189c0,681.658-377.897,1276.587-935.238,1586.374l116.194-263.343l0.157-0.149
		c401.152-302.431,660.906-782.823,660.906-1322.881c0-816.782-594.776-1497.698-1374.14-1631.484
		c11.274-52.75,15.169-86.864,15.169-86.864c-19.09,26.303-45.387,52.751-74.53,77.698c-63.587-8.701-128.233-13.52-194.05-14.57
		c7.647-32.327,10.065-52.163,10.065-52.163c-21.804,17.143-44.205,34.726-66.453,52.163
		c-218.231,3.45-426.27,49.597-616.105,130.166c8.856-36.823,18.476-63.434,18.476-63.434
		c-93.484,50.964-157.369,105.973-200.672,154.381c-53.204,30.658-104.441,64.331-153.613,100.7
		c-45.84-39.077-73.777-93.64-88.674-130.921c299.857-219.455,669.466-349.166,1068.842-349.166
		C3000.01,17.695,3813.648,831.324,3813.648,1831.189"/>
	<rect x="1881.599" y="3151.51" fill="#97805C" width="157.264" height="838.079"/>
	<polygon fill="#97805C" points="2657.223,3151.51 2486.521,3531.748 2570.954,3729.725 2826.015,3151.51 	"/>
	<polygon fill="#97805C" points="2476.379,3647.745 2466.157,3624.1 2265.26,3151.51 2096.611,3151.51 2454.771,3989.589 
		2540.062,3797.1 	"/>
	<polygon fill="#97805C" points="1481.763,3791.904 1363.911,3989.57 1173.918,3989.57 1381.302,3630.169 	"/>
	<polygon fill="#97805C" points="1849.283,3989.589 1669.562,3989.589 1516.666,3732.574 1416.177,3570.827 1185.043,3151.51 
		1375.723,3151.51 1516.109,3405.855 1607.162,3570.827 	"/>
	<polygon fill="#97805C" points="1838.174,3151.51 1641.7,3505.746 1550.623,3340.78 1648.336,3151.51 	"/>
</g>
</svg>
