<?xml version="1.0" encoding="utf-8"?>
<!-- Generator: Adobe Illustrator 16.0.0, SVG Export Plug-In . SVG Version: 6.00 Build 0)  -->
<!DOCTYPE svg PUBLIC "-//W3C//DTD SVG 1.1//EN" "http://www.w3.org/Graphics/SVG/1.1/DTD/svg11.dtd">
<svg version="1.1" id="Layer_1" xmlns="http://www.w3.org/2000/svg" xmlns:xlink="http://www.w3.org/1999/xlink" x="0px" y="0px"
	 width="2000px" height="2000px" viewBox="0 0 2000 2000" enable-background="new 0 0 2000 2000" xml:space="preserve">
<g>
	<path fill="#476870" d="M619.787,1788.391C296.02,1643.002,69.943,1317.456,69.943,940.165
		c0-157.548,39.409-306.077,108.895-436.165c12.395,7.24,37.019,22.016,69.043,42.542
		c-61.947,117.699-97.029,251.673-97.029,393.623c0,301.76,158.454,567.304,396.46,717.62l67.997,123.366L619.787,1788.391z"/>
	<path fill="#476870" d="M1812.226,490.791c-37.985-7.164-73.513-13.439-106.275-18.959
		C1553.992,243.004,1293.876,91.941,999.151,91.941c-260.548,0-494.083,118.071-649.77,303.538
		c-31.947-5.521-63.217-9.552-93.669-12.092c169.649-226,439.75-372.422,743.439-372.422
		C1348.592,10.966,1653.631,204.865,1812.226,490.791"/>
	<path fill="#476870" d="M1928.361,940.165c0,420.576-280.932,776.802-665.004,890.919l44.488-100.748
		c315.479-123.67,539.542-431.255,539.542-790.171c0-95.014-15.676-186.438-44.638-271.749
		c26.048-31.195,40.531-58.436,48.215-76.641l7.016-6.35C1903.355,694.768,1928.361,814.626,1928.361,940.165"/>
	<path fill="#476870" d="M891.765,1160.051l-19.179,8.138l11.257,20.761c-35.336,147.063-22.421,363.221-22.421,363.221
		c-137.913-194.028-30.617-360.072-130.346-387.982c-115.137-32.274-162.895-85.873-181.529-116.14
		c124.21,23.118,241.065,34.906,347.503,34.906c10.92,0,22.2-0.137,33.767-0.427C914.398,1101.16,901.689,1128.217,891.765,1160.051
		"/>
	<path fill="#476870" d="M1552.113,1224.19c-98.155-70.604-240-133.784-355.001-178.683c79.31-21.688,158.19-55.104,227.932-105.509
		C1548.469,1072.353,1552.113,1224.19,1552.113,1224.19"/>
	<path fill="#6394A0" d="M980.27,491.391c-75.529,15.591-143.223,38.877-201.216,69.326c-3.208,1.643-6.494,3.361-9.629,5.08
		l-12.987,7.096c-0.595-0.229-1.262-0.525-1.939-0.83c-3.58-1.71-7.238-3.354-10.896-4.996
		c-2.685-20.524-6.859-41.712-12.907-63.066c0,0,39.104-30.221,78.36-39.561c0,0-39.63,5.826-82.541,26.054
		c-5.303-16.35-11.797-32.692-19.779-48.663c14.766-8.95,35.079-19.407,55.452-24.258c0,0-26.343,3.885-59.484,16.266
		c-20.595-38.587-49.858-74.848-90.899-104.703C611.803,329.135,828.089,305.918,980.27,491.391"/>
	<path fill="#979797" d="M746.961,602.695c0.068-0.076,0.068-0.076,0.153-0.076c-0.085,0.076-0.085,0.145-0.153,0.145V602.695z"/>
	<path fill="#6394A0" d="M834.912,633.525c-23.562-12.063-49.334-24.762-76.955-37.613c-3.928-1.932-7.921-3.719-11.924-5.507
		c-50.465-23.263-106.573-46.754-166.322-67.88c-4.93-1.779-9.857-3.56-14.853-5.202c-113.929-39.339-239.925-69.751-363.565-73.675
		c0,0,117.436,66.74,242.715,162.758c17.988,13.841,36.192,28.268,54.251,43.256c36.764,30.344,72.809,62.824,105.436,96.444
		c33.193,34.191,62.816,69.53,85.873,105.084c75.956-56.55,166.324-106.728,268.624-149.132
		C931.918,686.211,889.3,661.519,834.912,633.525"/>
	<path fill="#476870" d="M673.005,862.886c-33.049,24.351-64.032,53.75-89.38,80.17c-0.707,0.79-1.422,1.566-2.203,2.281
		c-17.987,18.996-33.053,36.336-43.689,49.036c-0.352,0.441-0.709,0.928-1.143,1.353v-0.136c0.076-0.062,0.076-0.062,0.147-0.137
		v-0.077c-0.071-2.646-0.147-5.414-0.147-8.35c0-2.357,0.076-4.563,0.076-6.646c0-2.479,0-5.141,0.138-7.848
		c0.076-2.418,0.143-3.848,0.143-3.848c1.432-38.48,8.427-92.81,31.128-151.123c0-0.077,0.069-0.077,0.069-0.138
		c6.785-17.49,14.988-35.346,24.914-53.263c32.691,34.19,59.462,67.103,79.521,98.01L673.005,862.886z"/>
	<polygon fill="#6394A0" points="1209.182,1572.932 1124.426,1761.742 1166.344,1860.043 1293.002,1572.932 	"/>
	<polygon fill="#6394A0" points="1119.376,1819.342 1114.305,1807.585 1014.551,1572.932 930.816,1572.932 1108.646,1989.065 
		1150.996,1893.488 	"/>
	<polygon fill="#6394A0" points="741.828,1890.919 683.318,1989.065 588.979,1989.065 691.939,1810.611 	"/>
	<polygon fill="#6394A0" points="924.321,1989.065 835.079,1989.065 759.16,1861.458 709.271,1781.136 594.5,1572.932 
		689.174,1572.932 758.879,1699.232 804.104,1781.136 	"/>
	<polygon fill="#6394A0" points="918.809,1572.932 821.246,1748.83 776.027,1666.912 824.539,1572.932 	"/>
	<path fill="#476870" d="M990.696,680.395c-4.929-13.195-8.365-27.036-8.914-41.074c-0.943-13.979,0.784-28.085,5.171-41.432
		c2.748,6.707,4.075,13.232,6.191,19.605c2.143,6.357,3.527,12.685,5.719,18.814c3.564,12.396,8.046,24.267,12.41,36.107
		c0.932,2.502,1.906,4.986,2.905,7.463c5.263-1.973,10.532-3.915,15.808-5.834c-0.652-1.539-1.279-3.09-1.866-4.656
		c-4.937-13.193-8.373-27.043-8.921-41.081c-0.937-13.978,0.784-28.077,5.172-41.415c2.744,6.691,4.084,13.225,6.19,19.59
		c2.144,6.373,3.528,12.685,5.733,18.814c3.559,12.403,8.039,24.273,12.395,36.115c0.653,1.754,1.329,3.5,2.017,5.241
		c5.311-1.858,10.624-3.691,15.941-5.498c-0.374-0.925-0.764-1.844-1.114-2.778c-4.928-13.186-8.355-27.042-8.918-41.08
		c-0.937-13.979,0.789-28.077,5.178-41.416c2.736,6.691,4.078,13.232,6.189,19.598c2.155,6.351,3.529,12.685,5.729,18.813
		c3.559,12.404,8.036,24.267,12.403,36.116c0.47,1.264,0.954,2.521,1.442,3.777c250.311-81.818,502.877-107.688,628.168-115.813
		c-318.447-61.461-551.371-62.465-721.553-29.126c-82.461,16.069-150.279,40.261-205.877,69.463
		c-3.072,1.565-6.138,3.209-9.135,4.852c21.264,9.992,43.186,20.776,64.951,31.978c54.899,28.199,98.02,53.189,124.5,69.174
		l12.923,7.779c4.064-1.619,8.135-3.221,12.21-4.808C992.658,685.285,991.623,682.861,990.696,680.395z M1315.186,535.445
		l68.604,19.568C1310.258,602.771,1315.186,535.445,1315.186,535.445z"/>
	<path fill="#6394A0" d="M1095.388,672.845c1.897,4.22,3.853,8.435,5.839,12.669c5.51,11.695,11.427,23.264,18.066,35.637
		c-13.012-5.797-23.66-15.499-32.609-26.274c-3.977-4.896-7.627-10.085-10.915-15.498c-5.722,1.939-11.442,3.907-17.159,5.907
		c1.693,3.742,3.428,7.483,5.191,11.24c5.521,11.688,11.431,23.256,18.078,35.637c-13.016-5.795-23.67-15.506-32.619-26.283
		c-3.547-4.369-6.837-8.971-9.844-13.755c-5.75,2.085-11.495,4.2-17.233,6.349c1.378,3.016,2.782,6.031,4.202,9.057
		c5.512,11.689,11.431,23.263,18.066,35.637c-13-5.795-23.656-15.506-32.602-26.268c-2.945-3.623-5.703-7.414-8.281-11.329
		c-5.485,2.127-10.963,4.28-16.431,6.468c-2.505,1.004-5.075,2-7.567,3.072c-99.082,40.047-194.881,90.375-279.188,153.252
		c-3.645,2.654-7.279,5.36-10.853,8.138l-0.135,0.152c-56.612,43.469-107.654,92.732-150.631,148.688
		c79.957,15.499,153.899,25.628,222.223,31.423c16.494,1.414,32.623,2.555,48.471,3.422c53.112,2.996,102.582,3.27,148.698,1.217
		h0.069c485.132-21.567,595.418-297.257,595.418-297.257c206.299-85.439,241.71-203.732,243.283-209.154l0.07-0.068
		C1796.996,554.922,1445.816,558.32,1095.388,672.845z"/>
</g>
</svg>
