<?xml version="1.0" encoding="utf-8"?>
<!-- Generator: Adobe Illustrator 19.0.0, SVG Export Plug-In . SVG Version: 6.00 Build 0)  -->
<svg version="1.1" id="Layer_1" xmlns="http://www.w3.org/2000/svg" xmlns:xlink="http://www.w3.org/1999/xlink" x="0px" y="0px"
	 viewBox="0 0 2072.6 2006.9" style="enable-background:new 0 0 2072.6 2006.9;" xml:space="preserve">
<style type="text/css">
	.st0{fill:#976E61;}
	.st1{fill:#674A44;}
</style>
<g id="XMLID_2_">
	<rect id="XMLID_23_" x="1350" y="1578.3" class="st0" width="78.3" height="417.3"/>
	<polygon id="XMLID_22_" class="st0" points="1252,1578.3 1167,1767.7 1209,1866.3 1336,1578.3 	"/>
	<polygon id="XMLID_21_" class="st0" points="1161.9,1825.4 1156.8,1813.7 1056.8,1578.3 972.8,1578.3 1151.1,1995.6 1193.6,1899.8 
			"/>
	<polygon id="XMLID_20_" class="st0" points="782.3,1897.2 723.7,1995.6 629.1,1995.6 732.3,1816.7 	"/>
	<polygon id="XMLID_19_" class="st0" points="965.3,1995.6 875.8,1995.6 799.7,1867.7 749.7,1787.1 634.6,1578.3 729.5,1578.3 
		799.4,1705 844.8,1787.1 	"/>
	<polygon id="XMLID_18_" class="st0" points="959.8,1578.3 862,1754.7 816.6,1672.6 865.3,1578.3 	"/>
	<path id="XMLID_17_" class="st1" d="M1447.9,852.2c-1.5,45.7-10.7,156-62.1,229.5c-53.2,76-109.3,209.3-135.7,265.4
		c-6.1-28.7-3.1-59-1.2-78.5c1.2-12.4,1.5-28.4,1.7-45.4c0.4-28.5,1.1-71.6,8.2-84.6c8-14.5,14-25.5,23.1-42.6l8.2,25.3
		c1.4-4.1,52.4-133.3,60.5-202.3c4.5-38.7,34.9-49.1,84.1-63C1439,854.7,1443.5,853.5,1447.9,852.2"/>
	<path id="XMLID_16_" class="st1" d="M722.9,1425.1c0,16.2-16.9,21.8-16.9,21.8c8-37.1-23-37.8-25-37.8c16.8,0.8,33.2,38.1,7.2,42.4
		c-20.1,3.2-93.9-1-126.8-3c1-7.3,0.8-15.7-0.6-24.8l-0.2-1.1c-4.6-21.4-25.5-37.5-55.6-43.3c-2.9-0.6-5.9-1-8.9-1.3
		c-0.2-2-0.4-4-0.6-6v-0.1c2.3-9.3,7.9-22.4,10.4-28.4c1.4-3.4,2.8-6.6,3.8-9.4l0.3-0.6l1.7-5.6c2.2-7.2,4.4-15,6.7-23.1
		c16.2-57,38.5-135,78.1-166.8c11.4-9.1,21.5-18.8,30.2-28.2l1.8,0.4c1.3,0.3,29.9,8,71.3,15.5c-18.3,31.5-52.6,96.4-51,136.6
		c2.1,54.6-28.5,110,10.4,113.6C709.1,1380.4,722.9,1408.9,722.9,1425.1"/>
	<path id="XMLID_15_" class="st1" d="M1311.3,446.3c2.8,24.8,16.1,65,51.3,91.6c0,0,57.6-66.4,51.6-116.4c0,0-10-6-22.6-11.7
		c-14.5-6.6-32.6-12.8-42.4-8.9c-5.7,2.3-11.7,5.1-17.3,8.7C1319.4,417.5,1309.3,429.1,1311.3,446.3"/>
	<path id="XMLID_14_" class="st1" d="M1760,401.5c0,0-23.8,29.4-39.4,30c-15.7,0.6-16-6.1-15.5-11.2c0.1-1.4,2-7.2,5.2-13.8
		C1718.5,389.5,1736.4,367.3,1760,401.5"/>
	<path id="XMLID_11_" class="st0" d="M1758.4,664c-5-1.4-10.2-3.5-15.4-5.9c-5.6-2.6-11.3-5.7-16.7-9.2
		c-44-27.8-48.1-71.4-51.4-94.9c-2.5-17.8,11.9-34.1,30.1-48.3c17.2-13.5,37.7-25.2,50-34.4c1.5-1.1,3-2.3,4.2-3.3
		c22-18.9,49.8-43,32.3-51c-3.6-1.6-13.1-8.1-21.3-12.2l-2.4,3c-4.4,5.5-27.7,33-46.9,33.7c-0.8,0.1-1.5,0.1-2.2,0.1
		c-9,0-15.2-2.3-19.3-6.8c-5.2-5.8-4.5-12.8-4.2-15.5c0.3-2.6,1.9-7.4,4-12.4c-15.8-1.3-26.6-11.1-41-25.5
		c-16.4-16.4-70-12.4-147.2-14.4c-55.7-1.6-83.8,14.1-102.4,28.8c9.1,4.5,15.6,8.4,16,8.6l8.4,5l1.2,9.7c7,57.3-49.8,124.6-56.3,132
		l-12.3,14.2l-14.9-11.3c-48-36.3-57.4-89.8-59.1-105.4c-1.2-10.9-0.1-30.1,18.3-47.1c-3.1-1-5.5-1.6-6.2-1.8
		c-52.4-9.2-108-19.7-154.9,7.9c-46.9,27.5-40.2,45.7-185.1,14.1c-144.9-31.6-260.2-21.5-443.8,57.2
		C335.9,557.4,329.5,662.7,330,701.9c0.6,39.2-22.4,115.5-37.6,138.5c-13.2,20.1-16.2,43.7-16.7,49.3c1.3-7.8,13.9-24,13.9-24
		c-18.5,59.4,4.4,145,9.8,179.3c5.4,34.3,40.3,91.5,31.6,123.1c-8.7,31.6-4.7,43.8-4.7,43.8c0.6-12.8,9.2-16.9,9.2-16.9
		s17.6,41.7,6.2,101.6c-11.4,59.8-26,165.1,19.5,168.8c60.4,4.9,119.8,13.1,134.9,5.3c14.4-7.3,3.2-32.9-4.7-38.4
		c4.6,2.9,21.8,17.7,18,36.8c0,0,13.8-6.6,11.2-21.3c-1.8-10.5-5.2-19.8-11.4-20.3c0,0,20.5-2.3,20,35.7c0,0,17.1-2.5,11.7-36.3
		c-3.2-15.2-22.2-24.5-40-27.9c-3.8-0.7-7.4-1.1-10.9-1.3c-1.4-0.1-2.7-0.3-4-0.7c-24.8-7.7-3.3-49,5-70c0.5-1.5,0.9-3,1.3-4.6
		c18-60.4,40.9-159.2,91.5-199.9c50.2-40.4,73.2-90.9,74.5-94c-4.7,25.5-24.8,62.5-24.8,62.5s32,8.5,77.2,16.3
		c33.3,5.8,73.7,11,113.8,12.1c94.1,2.6,197.5-65.3,197.5-65.3c-21.9-37.3-25.5-66.5-25.5-66.5c5.1,19.6,22.9,46.4,35.3,64.9
		c12.4,18.5-12.9,102.5-12.9,102.5c-7.3-7.3-22.4-6.7-22.4-6.7c18.4,25,27.5,55.2,27.9,57.1c-11.2-6.1-19.6-3.3-19.6-3.3
		c55,40.9,89.9,271.2,139.8,270.7c70.6-0.7,104.7,1.8,130.4-0.7c25.8-2.5,6.5-39-19.8-41c0,0,37.1-5,41.1,36.1
		c0,0,32.8-43-31.5-52.2c-18.2-2.6-22.7-27-28.4-42.6c-14.3-37.7-10-80.2-7.6-105.7c3.5-35.9-1.8-112.3,12.3-137.7
		c14-25.5,41.2-76.4,41.2-76.4c6.1,17.6,5.3,29,5.3,29s35.1-97.4,43-164.9c7.1-61.3,66.5-69.9,117.4-85.4c5.1-1.6,10.2-3.2,15-4.9
		c53.6-19.3,185.1-142.1,200-150c14.9-7.8,43.9,27.2,92.1,25.5c48.3-1.8,27.2-35.9,27.2-35.9C1775.8,667.5,1767.5,666.6,1758.4,664z
		 M1597.6,461.6c-9.2,10.2-33.3-12.7-30.8-25.3c2.5-12.7,33.9,0.8,33.9,0.8S1606.8,451.3,1597.6,461.6z"/>
	<path id="XMLID_10_" class="st1" d="M1711.9,519.8c9.7,6.4,16-0.6,16-0.6c11.6,2.7,17-4.8,17-4.8c9.3-1.3,8.6-7.5,8.6-7.5
		c9.5,3.8,20.5,24.2,20.5,24.2c-4.1-27.3-12-45.8-12-45.8C1749.7,494.7,1729.2,506.3,1711.9,519.8"/>
	<path id="XMLID_9_" class="st1" d="M1750.1,644c5.2,2.4,10.4,4.4,15.4,5.9c0,0,7.1-9.7,7.4-21.8
		C1772.9,628.1,1760.8,642.2,1750.1,644"/>
	<path id="XMLID_8_" class="st1" d="M612.4,1710.7c-2-1-4-2.1-6.1-3.2c-4-2.2-8-4.4-12-6.6c-15.9-9-31.4-18.3-46.5-28.1
		c-11.5-7.4-22.7-15-33.8-22.9c-17.6-12.6-34.8-25.7-51.4-39.4c-0.1-0.1-0.1-0.1-0.2-0.2c-5.6-4.6-11.1-9.3-16.5-14
		c-10.9-9.5-21.6-19.2-32.1-29.2c-5.2-4.9-10.4-10-15.5-15.1c-5.1-5.1-10.2-10.3-15.1-15.5c-1.8-2-3.6-3.8-5.4-5.8
		c5.9,0.6,11.8,1.1,17.5,1.6c12.6,1.2,24.6,2.3,35.9,3.2l60.2-3.9c1.8,1.6,3.7,3.2,5.5,4.8l0.4,0.4c5.7,4.9,11.5,9.8,17.3,14.5
		c5.9,4.9,12,9.7,18,14.4L612.4,1710.7z"/>
	<path id="XMLID_7_" class="st1" d="M1717.2,322.1c-6.3,1.6-13.4,4-20.7,8.1c-25.5-20.9-59.5-24.8-106.3-25.8
		c-0.4-0.5-0.8-0.8-1.3-1.2c-4.2-3.8-8.4-7.6-12.6-11.2c-0.7-0.7-1.5-1.3-2.2-1.9c-4.2-3.7-8.5-7.2-12.7-10.7
		c-0.7-0.6-1.5-1.2-2.2-1.9c-4.5-3.7-9-7.3-13.5-10.9c-0.4-0.3-0.8-0.6-1.2-0.9c-4.6-3.7-9.4-7.4-14.2-10.9
		c-0.8-0.7-1.6-1.3-2.4-1.9c-4.9-3.7-9.9-7.3-14.8-10.8c-5.4-3.9-10.8-7.6-16.3-11.3c-5.5-3.7-11-7.4-16.6-10.9
		c-5.1-3.4-10.2-6.6-15.4-9.7c-0.8-0.5-1.6-1-2.3-1.4c-5.4-3.3-10.8-6.5-16.2-9.6c-10.5-6.1-21.3-12-32.3-17.7
		c-1.5-0.7-3-1.5-4.5-2.3c-5.3-2.8-10.7-5.4-16.2-8c-6-2.9-12.1-5.8-18.1-8.5c-6.1-2.8-12.2-5.5-18.3-8
		c-11.8-5.1-23.8-9.8-35.9-14.3c-0.5-0.1-1-0.3-1.5-0.5c-5.8-2.2-11.7-4.2-17.6-6.2c-1.7-0.6-3.4-1.1-5-1.6
		c-4.6-1.6-9.4-3.1-14.1-4.6c-1.2-0.4-2.3-0.8-3.4-1c-4.1-1.4-8.3-2.6-12.6-3.8c-3.1-0.9-6.3-1.8-9.4-2.7c-1.8-0.5-3.5-1-5.3-1.4
		c-4.3-1.2-8.6-2.3-13-3.4C1174.1,98.7,1106.2,90,1036.3,90c-110.8,0-216.6,22-313.2,61.9c-0.5,0.1-1,0.4-1.6,0.7
		c-3.7,1.4-7.3,3-10.9,4.6c-9.8,4.2-19.5,8.6-29.1,13.2c-4.6,2.1-9.1,4.3-13.5,6.7c-4.2,2-8.3,4.1-12.4,6.4
		c-9.3,4.8-18.4,9.8-27.5,15c-4.3,2.4-8.5,4.9-12.7,7.4c-0.1,0-0.2,0.1-0.3,0.2c-4.3,2.5-8.6,5.1-12.8,7.8c-4.3,2.5-8.5,5.2-12.6,8
		c-4.3,2.7-8.4,5.5-12.6,8.3c-3.5,2.3-7,4.6-10.4,7.1c-0.9,0.6-1.9,1.3-2.8,1.9c-3.1,2.1-6.1,4.3-9.1,6.4c-1.5,1.1-3.1,2.3-4.6,3.4
		c-3.2,2.3-6.4,4.7-9.7,7.2c-7.9,6-15.9,12.1-23.6,18.5c-3.2,2.5-6.4,5.2-9.6,7.9c-1.4,1.1-2.6,2.2-4,3.4c-3.1,2.6-6.2,5.2-9.3,8
		c-7.6,6.5-14.9,13.2-22.2,20.1c-3.7,3.4-7.3,6.8-10.8,10.4c-3.6,3.4-7.1,7-10.6,10.5c-7,7.1-14,14.4-20.7,21.7
		c-3.1,3.3-6.1,6.6-8.9,9.9c-0.7,0.7-1.4,1.4-2,2.2c-3,3.4-6,6.9-8.9,10.3c-3.3,3.8-6.5,7.6-9.7,11.5c-3.4,4.1-6.7,8.2-10,12.3
		c-2,2.5-3.9,4.9-5.8,7.3c-5.4,7-10.7,14-15.8,21.1c-1.7,2.2-3.4,4.6-4.9,6.8c-16.2,22.7-31.3,46.4-45.1,70.8
		c-1.7,2.8-3.3,5.8-4.9,8.7c-1.7,3.1-3.4,6.2-5.1,9.4c-7.3,13.5-14.1,27.2-20.5,41.2c-1.7,3.6-3.4,7.2-4.9,10.8
		c-2.2,4.9-4.3,9.7-6.4,14.7c-4.5,10.4-8.7,21-12.6,31.7c-1.2,2.9-2.2,5.9-3.3,8.8c-1.4,3.8-2.8,7.6-4,11.5
		c-4.4,12.7-8.5,25.7-12.3,38.7c-1,3.1-1.9,6.4-2.8,9.5c-0.8,2.6-1.4,5.2-2.1,7.9c-0.9,3.3-1.8,6.6-2.6,10
		c-2.7,10.6-5.2,21.4-7.5,32.3c-0.8,3.6-1.5,7.2-2.2,10.8c-0.4,1.6-0.7,3.3-1,5c-0.7,3.8-1.5,7.7-2.2,11.6c-1,5.7-2,11.5-2.8,17.3
		c-1.1,6.8-2,13.7-2.8,20.5c-0.8,6-1.5,12-2.1,18c-1.1,9.7-1.9,19.5-2.5,29.3c-0.4,4.3-0.6,8.7-0.8,13c-0.1,1.7-0.2,3.5-0.2,5.2
		c0,0.6-0.1,1.2-0.1,1.8c-0.4,2.6-0.6,4.9-0.8,6.7l0.6,0.1c-0.2,3.2-0.3,6.2-0.4,9.4c-0.2,7-0.3,14.1-0.3,21.3
		c0,7.1,0.1,14.1,0.3,21.2c0.1,5.3,0.3,10.6,0.5,15.8c0,0.6,0.1,1.2,0.1,1.9c0.2,3.5,0.4,7,0.6,10.4c0.7,12.2,1.6,24.4,2.9,36.4
		c0.7,6.1,1.3,12.3,2.2,18.3c0.2,2,0.5,3.9,0.7,5.8c0.6,4.8,1.3,9.7,2,14.4c0.2,1,0.3,2.1,0.5,3.1c0.8,5.3,1.6,10.6,2.6,15.9
		c2.3,13,4.9,25.8,7.8,38.5c0.6,2.8,1.3,5.7,2,8.5c2.1,8.8,4.3,17.5,6.7,26.1c0.9,3.4,1.9,6.8,2.8,10.3c3.9,13.5,8.1,26.9,12.6,40
		c1.8,5.1,3.6,10.2,5.4,15.2c0.3,0.8,0.5,1.4,0.8,2.2c2.2,5.9,4.4,11.8,6.7,17.7c2.5,6.2,5,12.4,7.6,18.6c1.4,3.4,2.8,6.8,4.4,10.2
		c-0.1,0.1-0.1,0.1,0,0.1c0.8,10.8,0.7,24.3-2.3,39.9c-7.4,38.8-11.6,72.2-12.5,100.6c-1.3-1.9-2.4-3.9-3.6-5.8
		c-3.3-5.5-6.6-10.9-9.7-16.5c-2.4-4.1-4.7-8.2-7-12.4l-2.7-4.9c-1.6-2.8-3.1-5.7-4.6-8.6c-1.5-2.8-3-5.5-4.3-8.3
		c-1.5-2.8-2.9-5.6-4.3-8.4c-2.6-5.2-5.2-10.5-7.8-15.8c-2.9-6-5.8-12.1-8.5-18.1c-6.6-14.3-12.7-28.8-18.4-43.5
		c-2.5-6.2-4.9-12.5-7.2-18.9c-2.5-6.9-5-13.8-7.3-20.8c-2.2-6.4-4.3-12.8-6.3-19.2c-0.3-1-0.6-2-0.9-2.9c-1.7-5.5-3.4-11.1-5-16.7
		c-2.7-9.3-5.2-18.7-7.6-28.1c-0.9-3.6-1.8-7.1-2.6-10.7c-1.7-7-3.4-14.1-4.9-21.3c-0.2-0.7-0.4-1.5-0.5-2.2
		c-0.8-3.7-1.6-7.5-2.3-11.2c-1.1-5.3-2-10.6-3-15.9c-0.2-1-0.4-2-0.5-2.9c-1.1-6.1-2.1-12.3-3.1-18.5c-0.4-2-0.7-4-0.9-6.1
		c-0.9-5.5-1.7-10.9-2.3-16.5c-0.2-0.9-0.3-1.8-0.4-2.7c-0.8-6.1-1.5-12.3-2.2-18.4c-0.7-6.7-1.3-13.6-1.9-20.4
		c-0.3-2.9-0.5-5.8-0.7-8.8c-0.5-6.1-0.9-12.2-1.2-18.3c0-0.6-0.1-1.2-0.1-1.8c-0.3-6.1-0.6-12.3-0.7-18.5c-0.1-2.6-0.2-5.3-0.2-8
		c-0.1-6.6-0.2-13.2-0.2-19.9c0-7.6,0.1-15.2,0.3-22.8c0-0.8,0-1.6,0.1-2.4c0.2-7,0.4-13.8,0.8-20.8c0.2-6,0.6-12,1-18
		c0.3-4.3,0.6-8.7,1-13c0.2-3.3,0.5-6.5,0.8-9.7c0.3-3.3,0.7-6.5,1-9.7c0.4-4.4,1-8.8,1.6-13.1c0.4-3.4,0.7-6.7,1.3-10
		c0.2-2.4,0.6-4.8,1-7.1c0.6-4.9,1.4-9.7,2.1-14.4c4.3-27.3,9.8-54.1,16.5-80.5c0.9-3.6,1.8-7.2,2.8-10.7c0.9-3.4,1.8-6.9,2.8-10.3
		c1.1-3.8,2.1-7.6,3.2-11.3c0.7-2.7,1.6-5.4,2.4-8c1-3.6,2.2-7.2,3.4-10.8c1.3-4.3,2.7-8.7,4.3-13c0.5-1.6,1-3.2,1.6-4.8
		c1.6-5.1,3.4-10.1,5.3-15.1c8.6-24,18.3-47.5,28.9-70.5c1.8-4.1,3.7-8.2,5.8-12.3c2.6-5.5,5.3-11,8.1-16.5
		c2.1-4.3,4.3-8.5,6.5-12.7c0.9-1.7,1.8-3.4,2.7-5.2c2.4-4.5,4.9-9,7.3-13.5c0.7-1.3,1.4-2.5,2.2-3.8c2.4-4.3,4.9-8.7,7.4-13
		l2.2-3.8c2.8-4.6,5.5-9.3,8.3-13.8c6.5-10.6,13.2-21,20.1-31.4c7.6-11.4,15.6-22.6,23.8-33.6c2.6-3.7,5.3-7.3,8.2-10.9
		c1.3-1.9,2.7-3.7,4.3-5.5c2.7-3.6,5.5-7.2,8.4-10.7c1.2-1.6,2.5-3.3,3.9-4.9c3-3.7,6.1-7.4,9.1-11.1c1-1.3,2.2-2.7,3.4-4
		c2.9-3.5,5.9-7,8.8-10.4c1.2-1.3,2.4-2.7,3.6-4c7.6-8.6,15.3-17,23.2-25.3c5.8-6.1,11.7-12.2,17.8-18.1c3.9-4,7.9-7.8,11.9-11.6
		c4.5-4.3,8.9-8.5,13.5-12.6c2.5-2.4,5.2-4.8,7.8-7.1c3.2-2.9,6.5-5.8,9.8-8.7l3.6-3.1c4-3.4,8.2-7,12.3-10.3c1.5-1.3,3-2.5,4.5-3.7
		c4.4-3.7,8.9-7.3,13.5-10.9c0.7-0.5,1.3-1,1.9-1.6c5-4,10.2-7.9,15.3-11.8c6.3-4.8,12.6-9.4,19.1-14c5.8-4.2,11.8-8.2,17.7-12.3
		c4.7-3.2,9.5-6.4,14.3-9.4c3.8-2.5,7.7-5,11.6-7.4c4.5-2.9,9-5.7,13.7-8.5c5.2-3.1,10.5-6.3,15.8-9.3c4.9-2.9,10-5.8,15-8.5
		c2.4-1.4,4.9-2.8,7.4-4c2.8-1.6,5.5-3.1,8.4-4.4c3.9-2.1,7.7-4.1,11.7-6.1c5.8-2.9,11.5-5.8,17.4-8.6c11.7-5.6,23.5-11,35.5-16
		c5-2.2,10.1-4.3,15.3-6.4c1.1-0.5,2.2-1,3.3-1.4c4.3-1.7,8.6-3.4,12.9-5c2.5-1,4.9-1.9,7.4-2.8c4.8-1.8,9.5-3.5,14.3-5.2
		c0.9-0.4,1.9-0.7,2.8-1c4.5-1.7,9-3.1,13.5-4.6c3-1,6.1-2,9.1-3l12.1-3.8c1-0.3,2-0.7,3.1-0.9c24.5-7.4,49.5-13.8,74.9-19
		c6.1-1.3,12.4-2.5,18.6-3.7c0.3-0.1,0.6-0.1,0.9-0.1c53.6-10,108.9-15.3,165.4-15.3c54.8,0,108.5,4.9,160.6,14.4
		c7.6,1.3,15,2.8,22.5,4.3c11.7,2.5,23.2,5.1,34.7,7.9c0.7,0.1,1.3,0.3,1.9,0.5c6.2,1.6,12.4,3.2,18.6,4.9
		c5.7,1.5,11.2,3.1,16.8,4.8c1.6,0.4,3.3,0.9,4.9,1.4c5.5,1.6,10.9,3.3,16.2,5.1c5.7,1.8,11.3,3.7,16.9,5.6c2.2,0.7,4.4,1.5,6.6,2.3
		c4.6,1.6,9.1,3.2,13.7,4.9c6.1,2.2,12.3,4.6,18.3,7c12.1,4.8,24.1,9.8,36,15.2c5,2.3,10,4.5,14.8,6.8c1.4,0.6,2.8,1.3,4.1,1.9
		c3.5,1.6,7,3.4,10.5,5.1c3.6,1.7,7.2,3.5,10.8,5.4c1.9,0.9,3.9,1.9,5.8,3c4,2,8.1,4.1,12,6.4c2.2,1.1,4.5,2.3,6.7,3.6
		c5.2,2.8,10.2,5.7,15.3,8.6c0.6,0.3,1.2,0.6,1.7,1c4.4,2.5,8.8,5.1,13,7.7c4.5,2.6,8.9,5.2,13.2,8.1c3.9,2.3,7.7,4.8,11.5,7.3
		c5.7,3.6,11.4,7.3,16.9,11.1c6.1,4,12,8.2,17.9,12.4l0.1,0.1c5.8,4.1,11.7,8.4,17.4,12.7c5.8,4.3,11.5,8.7,17.2,13.2
		c5.7,4.5,11.4,9,16.9,13.6c5.6,4.6,11.1,9.3,16.5,14c5.1,4.4,10.1,8.9,15.1,13.4c0.5,0.4,1,0.8,1.4,1.3c5.2,4.8,10.4,9.6,15.6,14.5
		c5.6,5.3,11.2,10.7,16.5,16.2c4.8,4.7,9.5,9.5,14.1,14.4c4.7,4.9,9.4,9.9,13.8,14.9c1,1,1.9,2,2.8,3
		C1709.8,313.6,1713.5,317.8,1717.2,322.1"/>
	<path id="XMLID_6_" class="st1" d="M210.6,882.2c0.2-1.9,0.4-4.1,0.8-6.7c-0.1,2.2-0.2,4.6-0.2,6.8L210.6,882.2z"/>
	<path id="XMLID_5_" class="st1" d="M1939,914c0,6.4-0.1,12.8-0.2,19.2c0,2.5-0.1,5-0.2,7.6c-0.1,6.6-0.4,13.1-0.7,19.7
		c-0.3,6.1-0.7,12.1-1.1,18.1c-0.2,3.2-0.5,6.4-0.7,9.5c-1.2,14.4-2.7,28.6-4.6,42.7c-0.7,6-1.6,12-2.5,18c-0.3,1.9-0.5,3.7-0.9,5.5
		c-1,6.5-2,12.9-3.2,19.4c-1.1,6.3-2.3,12.6-3.6,18.8c-0.3,1.7-0.7,3.4-1.1,5.2c-1,5.1-2.1,10.2-3.3,15.3c-0.5,2.5-1.1,4.9-1.6,7.3
		c-1.2,5.1-2.4,10.2-3.7,15.2c-0.8,3.5-1.7,7-2.7,10.5c-1.6,5.9-3.2,11.8-4.9,17.7c-1.6,5.8-3.4,11.4-5.2,17.1
		c-4.8,15.7-10.1,31.1-15.8,46.4c-1.8,4.9-3.7,9.9-5.6,14.8c-2.5,6.6-5.2,13.2-8,19.7c-1,2.5-2,4.9-3.1,7.3
		c-3.1,7.2-6.2,14.3-9.5,21.3c-2.1,4.7-4.3,9.2-6.4,13.8c-0.3,0.6-0.6,1.2-0.8,1.8c-6.3,12.9-12.9,25.7-19.7,38.3
		c-7,12.8-14.2,25.4-21.8,37.8c-3.7,6.2-7.6,12.3-11.5,18.5c-15.6,24.4-32.5,48-50.4,70.7c-2.8,3.6-5.6,7.1-8.5,10.6
		c-4.3,5.2-8.6,10.5-13,15.6c-4.3,5.2-8.8,10.3-13.3,15.3c-4,4.6-8.2,9.1-12.3,13.6c-0.1,0.2-0.3,0.3-0.4,0.5
		c-0.3,0.3-0.6,0.7-0.9,1c-0.7,0.8-1.4,1.4-2,2.2c-4,4.3-7.9,8.5-12,12.6c-3.1,3.2-6.3,6.4-9.5,9.7c-3.8,3.8-7.6,7.6-11.5,11.4h-0.1
		c-3.9,3.7-7.8,7.5-11.7,11.2h-0.1c-7.9,7.3-15.9,14.6-24.2,21.7c-5.2,4.6-10.6,9.1-16,13.6c-0.1,0.1-0.4,0.2-0.5,0.4
		c-4.8,4-9.7,7.9-14.5,11.7c-0.2,0.1-0.4,0.3-0.5,0.4c-0.3,0.2-0.5,0.4-0.7,0.6c-1.8,1.4-3.6,2.8-5.4,4.2c-1,0.8-2,1.6-3,2.3
		c-2.6,2-5.2,4-7.8,5.9c-4.6,3.4-9.2,6.9-13.9,10.3c-0.8,0.7-1.6,1.2-2.4,1.8c-5.5,4-11.1,7.9-16.7,11.7c-7.5,5-15,10.1-22.7,15
		c-5.2,3.4-10.5,6.7-15.8,9.9v-93.9c0.2-0.1,0.4-0.3,0.7-0.4c3.1-2.2,6.2-4.3,9.3-6.6c7.6-5.5,15.2-11.2,22.7-16.9
		c2.2-1.6,4.3-3.4,6.5-5.1c3.6-2.8,7.2-5.7,10.8-8.7c2.8-2.2,5.5-4.4,8.2-6.7c4.6-3.8,9.2-7.8,13.8-11.7c3.1-2.7,6.1-5.4,9.1-8.1
		c4.8-4.3,9.5-8.7,14.2-13.1c2.2-2,4.3-4.1,6.5-6.2c3.4-3.4,6.9-6.7,10.3-10.2l6-6c1.3-1.3,2.6-2.8,4.1-4.1c2.2-2.2,4.3-4.6,6.5-6.9
		c3.7-4,7.5-8,11.2-12.1c4-4.3,7.9-8.8,11.8-13.2c0.6-0.8,1.2-1.5,1.9-2.2c3.6-4.2,7.2-8.5,10.7-12.7c5.2-6.2,10.2-12.4,15.1-18.7
		c3.6-4.6,7.1-9.1,10.5-13.8c31.7-42.3,59.4-87.7,82.6-135.8c8.8-18,16.8-36.4,24.1-55.1c2.5-6.2,4.9-12.5,7.2-18.8
		c11.7-31.6,21.3-64,29-97.2c4.6-19.9,8.5-40.1,11.6-60.5c4.3-27.2,7.1-54.9,8.5-82.9c0.8-14.1,1.1-28.1,1.1-42.4
		c0-14.2-0.4-28.4-1.1-42.4c-0.3-7-0.7-14-1.3-21c-0.4-7-1.1-13.9-1.9-20.8c-3.4-34.6-9.1-68.6-16.8-101.7c-0.3-1.2-0.5-2.5-0.8-3.7
		c1.1-1.7,2-3.4,2.8-4.9c16.8-31.4,8.7-65.6-4.6-87.1l-24.2-39.4c0,0-1-51.5-11.7-76.9c10.2-8.8,21.2-18.2,30.9-28.7
		c2.8,5.2,5.7,10.6,8.4,15.9c3.3,6.4,6.5,12.8,9.6,19.2c0.1,0.2,0.2,0.4,0.3,0.5c2.4,5,4.7,10,7,15c7.3,15.9,14.1,32,20.5,48.3
		c2.3,5.8,4.5,11.6,6.7,17.5c2.5,6.8,4.9,13.6,7.2,20.5c0.2,0.3,0.2,0.5,0.3,0.8c1.9,5.7,3.8,11.4,5.6,17.1c1,3,2,6,2.8,9
		c0.9,2.7,1.7,5.4,2.5,8.2c1.1,3.4,2.1,7,3.1,10.5c1.2,4.3,2.3,8.5,3.4,12.9c0.8,3,1.6,5.9,2.3,8.9c0.5,1.9,1,3.7,1.4,5.6
		c1.3,5,2.5,10,3.6,15.1c0.4,1.7,0.8,3.4,1.1,5.2c1.1,4.8,2.2,9.6,3.1,14.5c1.6,7.3,3,14.7,4.3,22.1c1.1,6.4,2.2,12.7,3.2,19.2
		c0.7,4.8,1.5,9.7,2.1,14.5c0.3,1.6,0.5,3.3,0.7,5c0.6,4.3,1.1,8.7,1.6,13c0.4,3.5,0.8,7,1.2,10.6c0.4,3.1,0.7,6.3,1,9.5
		c0.5,4.3,0.8,8.5,1.1,12.8c0.3,3.3,0.6,6.6,0.8,9.9c0.5,6.2,0.8,12.5,1.1,18.7c0.4,7.3,0.7,14.5,0.8,21.8c0.1,0.6,0.1,1.2,0.1,1.8
		C1938.9,898.7,1939,906.3,1939,914"/>
	<path id="XMLID_4_" class="st1" d="M1585.9,1629.5c1-0.8,2-1.5,3-2.3v0.1C1588,1628,1586.9,1628.7,1585.9,1629.5"/>
	<path id="XMLID_3_" class="st1" d="M1650.9,1574.6c4-3.7,7.8-7.5,11.7-11.2v0.1C1658.7,1567.2,1654.9,1570.8,1650.9,1574.6"/>
</g>
</svg>
