<?xml version="1.0" encoding="utf-8"?>
<!-- Generator: Adobe Illustrator 19.0.0, SVG Export Plug-In . SVG Version: 6.00 Build 0)  -->
<svg version="1.1" id="Layer_1" xmlns="http://www.w3.org/2000/svg" xmlns:xlink="http://www.w3.org/1999/xlink" x="0px" y="0px"
	 viewBox="0 0 2000 2000" style="enable-background:new 0 0 2000 2000;" xml:space="preserve">
<style type="text/css">
	.st0{fill:#3F4C66;}
	.st1{fill:#5E6C97;}
</style>
<g id="XMLID_2_">
	<path id="XMLID_20_" class="st0" d="M483.1,1605.5c-223.5-160-369.4-421.8-369.4-717c0-6.5,0.1-13,0.2-19.6
		c35.8,50.4,75.8,78.9,78.8,81h0.1c11.9,157,69,301.4,158.3,420.5L462.9,1573L483.1,1605.5z"/>
	<path id="XMLID_19_" class="st0" d="M1876.2,888.5c0,283.3-134.3,535.7-342.6,697v-100c163.1-147.2,265.8-360.3,265.8-597
		C1799.5,444.9,1438.6,84,995,84c-395.6,0-725.6,287-792.2,663.9c-15.9-20.8-29.2-45.3-34.5-64.9c-3.3-12.1-9.2-33.6-15.3-55.1
		C264.4,268.9,599.8,7.2,995,7.2C1480.9,7.2,1876.2,402.6,1876.2,888.5"/>
	<path id="XMLID_18_" class="st1" d="M225.7,902.6c0,0-108.4-75.6-110.9-198.4c0,0,47.5,119.8,123.1,141.5
		C237.9,845.7,261.7,856.5,225.7,902.6"/>
	<path id="XMLID_17_" class="st0" d="M1047.8,1279.3c-14.2,13.5-75.9,7.7-75.9,7.7c-1.3-4.1,4.2-11.1,4.8-11.9
		c-6.2,1.9-6.7,8.1-6.7,8.1c-11.1,0.9-21.7-1.5-21.7-1.5c1.9-16.4,24.6-17.9,33.7-24.6c9.2-6.7,2.3-11-0.9-21.2
		c-4.1-13.1-29.9-58-35.2-76.3c-1.7-5.7-5.6-13.1-10.3-20.7c-0.1,0-0.1,0,0-0.1c-0.5-3.5-1.2-7.7-2-12.7c-1.1-7-2.5-15.2-3.7-24.2
		v-0.2l-0.1-1.3c-1.6-11.7-2.7-22.5-3.2-32.4c21.5,7,61.4,18.7,86.3,18.7c1.1,0,2.1,0,3.1-0.1h0.7c0.2,0,0.5,0,0.7,0.1
		c5.4,24.3,18.7,50.7,18.7,50.7c1.3,23.2,9.6,49,18.3,89.4C1063.2,1267.1,1059.3,1268.4,1047.8,1279.3"/>
	<path id="XMLID_16_" class="st0" d="M1673.3,1125.1c9.2,27.7,22.7,65.5,0,75.6c-22.7,10.1-36.3,74-55.8,82.1
		c-10.3,4.3-23.7,4.9-34,4.6c19.9-28.1,58.3-90.2,72-100.9c17.1-13.3,9.5-25.4,2.7-44.3c-6.8-19-36.7-91.6-16.7-122.7
		c20.1-30.9,48.6-54.4,63.2-109.2c-0.7,4.4-11,67.5-26.4,98.3C1662.4,1040.3,1664,1097.4,1673.3,1125.1"/>
	<path id="XMLID_15_" class="st1" d="M1737.5,831.9c-2.7,26.4,3,105-4,126.1c-7,20.9-34.4,46.4-29.6,77.1c0,0-8.5-18.2-5.7-32.4
		c0,0-5.8,11.7-4.1,23.3c0,0-10.1-12.3,2.7-44.2c12.9-31.7,23.8-24.1,24.1-55.6c0.3-31.5,5.5-66.3-6.5-72.3l-0.1-0.1
		c4.1-36.6,1.1-69.8-11.1-93.6c-14.6-28.7-72.5-135.3-128.6-173.3c11.8,3.9,107.1,36.7,130.3,90.5
		C1729.5,734.8,1740.1,805.4,1737.5,831.9"/>
	<path id="XMLID_14_" class="st1" d="M554.1,696.9c0.3,22.2-12,40.6-34.3,39.2c-22.2-1.4-17.6-27.5-17.6-27.5
		c-3.4-14.8-16-19.2-22.9-25.9c-1.8-1.7-3.2-3.6-3.9-5.9c-11.9-36.8,19.4-56.1,19.4-56.1c0.7,45.5,18,12,18,12s10.5,10.7,20.9,24.2
		C543.9,670.1,553.9,685.9,554.1,696.9"/>
	<path id="XMLID_13_" class="st0" d="M455.4,674.8c-14.3,8.1-31.1,21.4-36.3,40.1c-0.1,0.2-0.1,0.5-0.2,0.7
		c-7.9-1.3-21.7-3.9-22.1-7.3c-0.7-4.8,17.3-19.1,6-23.7c-11.3-4.6-21-43.5-20.5-56.6c0.5-13.1-12.9-44.9-5.1-38.2
		c7.7,6.7,15.9,30.7,21.9,39.9c4.3,6.7,37.2,25.5,55,35.2C454.2,668,454.6,671.3,455.4,674.8"/>
	<path id="XMLID_10_" class="st1" d="M1683.1,766.9c-14.6-28.7-72.5-135.3-128.6-173.3c-10.7-7.2-21.2-12-31.4-13.3
		c-64-8.1-124.7-39.6-179-22.7c-54.2,16.8-201.2,34.7-307.5,4.9c-106.3-29.9-214.3-37.4-335.7,17.3
		c-68.1,30.7-116.5,53.2-149.6,68.8c14.7,19.7,21.6,35,21.8,48c0.3,17.7-5.4,33.5-16.1,44.2c-9.1,9.3-21.1,14.3-34.7,14.3
		c-1.1,0-2.3-0.1-3.5-0.1c-14.3-0.9-22.7-7.9-27.1-13.6c-8.3-10.5-8.9-23.4-8.5-30.8c-1.2-2.3-3.5-4.1-8.1-7.4
		c-2.8-1.9-5.9-4.2-8.7-7c-1.4-1.3-2.7-2.7-3.7-4.2c-12.6,8.2-25.7,20.2-30.1,36.3c-0.1,0.2-0.1,0.5-0.2,0.7
		c-8.8,31.9-9.3,43.5-31.5,62.8c-5.1,4-10.5,7.8-16.1,11.4c-6.3-0.5-49.1-4.5-61.3-25.5c-13.2-22.7-20.9-6.2-18.7,3.3
		c1.8,7.7-0.3,47-1.1,61.9c-11.8,4.5-19.4,6.9-19.4,6.9c-7.3-0.1-14.8-0.5-21.6-1.1c0.3,0.8,0.5,1.6,0.7,2.4
		c4.3,17.5-3.1,38.2-22.8,63.3l-3.3,4.3c7,8.6,17.1,19.3,29.5,28.4c0,0-6.5,28.5,14.5,63.5c21,35,41.5,13.5,41.5,13.5
		s61.6,28.4,137.7-6.5c76-35,108.7-82.2,126.9-74.2c18.1,7.9,13.1,23.3,25.6,24.7c12.6,1.4,12.6-10.7,24.3-7
		c11.7,3.7,45.3,39.2,61.6,41.5c16.3,2.3,20.9,1.9,33.1,6.5c12.1,4.7,14.9,5.5,14.9,5.5s-12.1-24.6-8.8-71.2
		c0,0,7.4,65.2,42.8,119.1c35.4,54,42.6,68.4,42.6,99.4c0,31,13.1,60.8,0.7,82.5c-12.4,21.7-29.1,22.5-29.1,22.5
		c-14,3.4-24.7,9.1-21.5,18.9c0,0,22.4,2.4,31.1,0.3c0,0-2.1-9.3,6.9-10.4c0,0-9,7.4-2.4,13.4c6.5,6,75.2,7.5,84.8-2.1
		c9.6-9.6-4.5-33.1-4.5-41.8c0-8.7,24.9-82.6,28.1-92.4c1.3-3.9-3.1-23.9-6.5-49.7v-0.2c-2.6-19.4-4.7-42-3.5-63.7
		c1.1-22.1,5.5-43,16.1-58.6c0,0-12.6,32.5-6.7,59.2c0.4,1.9,0.9,3.7,1.5,5.5c0,0,66.4,23.6,96.7,22.4
		c30.3-1.3,106.6,37.1,133.8,34.7c27.3-2.5,162.3-4.9,267.7-117.1c0,0-44-74.3-12.4-206.9c0,0-15.7,164.3,55.2,233
		c40.2,39,33.3,51.1,44.6,85.4c11.1,34,32.9,70,29.7,82.2c-6.2,23.3-45.8,90.4-45.8,90.4s-30.9,8.8-29,21.3
		c1.9,12.5,28.1,7.5,28.1,7.5s-1.1-11.7,7.9-14.7c-0.8,0.7-8.5,7.7-5.6,18.1c0,0,53,7.2,63.6-1.2c2.1-1.6,5.8-6.3,10.6-13.1
		c19.9-28.1,58.3-90.2,72-100.9c17.1-13.3,9.5-25.4,2.7-44.4c-6.8-18.9-36.7-91.6-16.7-122.7c20.1-30.9,48.6-54.4,63.2-109.2
		c0.1-0.2,0.1-0.3,0.1-0.3c4.4-16.7,7.6-33.3,9.4-49.3C1698.3,823.9,1695.2,790.6,1683.1,766.9 M406.8,890.4c0,0,22.7-0.9,27.6-7.5
		c4.9-6.6,8.5-8.6,8.5-8.6S458.9,907.3,406.8,890.4"/>
	<rect id="XMLID_9_" x="1269.9" y="1572.8" class="st1" width="78.2" height="416.9"/>
	<rect id="XMLID_8_" x="1377.2" y="1572.8" class="st1" width="78.2" height="416.9"/>
	<polygon id="XMLID_7_" class="st1" points="1171.9,1572.8 1087,1762 1129,1860.5 1255.9,1572.8 	"/>
	<polygon id="XMLID_6_" class="st1" points="1081.9,1819.7 1076.8,1807.9 976.9,1572.8 893,1572.8 1071.2,1989.7 1113.6,1894 	"/>
	<polygon id="XMLID_5_" class="st1" points="702.7,1891.4 644.1,1989.7 549.6,1989.7 652.7,1811 	"/>
	<polygon id="XMLID_4_" class="st1" points="885.5,1989.7 796.1,1989.7 720.1,1861.9 670.1,1781.4 555.1,1572.8 649.9,1572.8 
		719.8,1699.4 765.1,1781.4 	"/>
	<polygon id="XMLID_3_" class="st1" points="880,1572.8 782.3,1749.1 737,1667 785.6,1572.8 	"/>
</g>
</svg>
