<?xml version="1.0" encoding="utf-8"?>
<!-- Generator: Adobe Illustrator 19.0.0, SVG Export Plug-In . SVG Version: 6.00 Build 0)  -->
<svg version="1.1" id="Layer_1" xmlns="http://www.w3.org/2000/svg" xmlns:xlink="http://www.w3.org/1999/xlink" x="0px" y="0px"
	 viewBox="0 0 2000 2000" style="enable-background:new 0 0 2000 2000;" xml:space="preserve">
<style type="text/css">
	.st0{fill:#88975D;}
	.st1{fill:#5E6640;}
</style>
<path class="st0" d="M951.5,1087c-8.7,40.9-35,64.1-35,64.1c-11.6-25.5-25.3-35.5-25.3-35.5c27.4,45.3,22.5,95.5,0,118.3
	c-60.2,60.7-56.6,126.5-52.5,126.5h0.1c0.3-0.1,0.4,0.1,0.2,0.4c-2,3.2-40.1,28.6-92.6-0.4c0,0,17.5-43.9-1.8-87.2
	c-12.5-28.1-22.9-57-25.5-83c-1.5-14-0.7-27.1,3-38.7c6.8-21.2,18.6-34.7,18.6-34.7s-3.1-0.7-17.3,18.1c0,0-29.8-14.5-59.6-53.9
	c-36.8-48.7,1-153.7,47-173.5c35.9-15.5,143.4-33.6,205.8,52.1C954.1,1011.1,958.4,1054.6,951.5,1087"/>
<path class="st0" d="M833.6,1445.8c-17.1,3.9-38.9,4.5-38.9,4.5l-2.3-49.8l-6.9,50.2c0,0-14.6,2.7-46.4-4.9
	c-29.8-7.1-30.1-20.4-19.8-36.7c5.7-9,13.3-22.9,19-33.5c19,10.4,38.4,15.6,57.5,15.6c22.3,0,41.2-7.4,51.3-15.1
	c6.1,12.1,13.8,28.8,17,41.6C869.6,1440.5,850.7,1441.8,833.6,1445.8"/>
<path class="st1" d="M706.2,1216.7c-4.1,15.2-4.2,29.3-4.2,30.7c-13-42.4-1.7-79.5-1.7-79.5s-10.3,16.1-13.6,55.3
	c-3.1,38.1-26.9,74.5-28.4,76.7c10.9-48.2,7.5-86.5,7.5-86.5c-12.4,33.8-32.2,49.3-32.2,49.3s37.6-56.7,17.3-106.6
	c-19-46.4-33.6-143.8-4.9-195.8c-3.3,8.1-6.2,16.5-8.5,25.3c-11.1,42.1-6.5,80.6,12.4,105.6c21.9,28.8,44,45.5,56.2,53.4
	c-0.2,0.5-0.4,1-0.5,1.5c-4.3,13.5-5.6,28.9-3.8,45.8C702.7,1199.7,704.1,1208,706.2,1216.7"/>
<path class="st1" d="M751,879.3c-19.7,2.7-36.3,7.6-47.1,12.3c-3.1,1.3-6.1,2.9-9.1,4.8c7.1-10.5,10.3-18.2,10.7-27.6
	c0.4-8.1,2.8-16.4,5.6-23.3C721.2,859.3,734.6,870.6,751,879.3"/>
<path class="st1" d="M1016.3,1175.2l-5.3,6.2l1.5,8.1c0.8,4.8,1.8,9.7,2.8,14.5c-0.3,0.4-0.5,0.8-0.7,1.2
	c-12.5,21.6-9.3,60.7-9.3,60.7c-8.9-11.5-10.2-28.3-10.3-34.7c-0.4,27.5-24.2,72.4-25.8,75.2c14.2-50.6,1.3-92.7,1.3-92.7
	c-12.7,23.2-8.8,63.1-8.8,63.1c-17.7-37.3-16.1-63.1-16.1-63.1c-7.4,19.5,3,54.6,3,54.6s-30.7-40.8-3-103.4
	c7.1-16,10.4-29.7,11.4-41.2c0,0,0.1,0,0.1-0.1c4.6-9.5,8.7-20.5,11.3-33c9.8-45.7-3-93.2-37.9-141.1
	c-16.4-22.5-35.3-38.3-54.9-49.3c51.7-3.2,101.2-16.2,130.4-27.6c9.8-3.9,19.2-6.8,28.3-8.8c-17.6,25.8-23.8,62.9-23.4,89.5
	c0.3,21.9,4.6,34.2,10.6,51.3c5.2,15,12.4,35.6,20.2,73.6C1051.9,1128.6,1033.9,1154.7,1016.3,1175.2"/>
<path class="st1" d="M1266.8,1113.8c-19.8,10.4-52.6,40-158,35.6c0,0-41.8,32.1,30.3,75.7c72.1,43.6,65.8,46.1,65.8,46.1
	s-25.9,47.5-143.7,35.1c0,0-21.2-60.1-31.9-119.9c18-20.8,41.3-51.9,29.1-111.6c-16.4-80.1-29.8-84.3-30.4-121.8
	c-0.5-37.4,14.9-116.2,75.3-100.3c0,0,94.2,17.4,142.1,136.3c0,0,36.7,35.6,37.7,54.1C1284.2,1061.6,1286.6,1103.5,1266.8,1113.8"/>
<path class="st1" d="M1204.1,1360.4c0.7-25.8-15.7-42.8-15.7-42.8c12.1,23.7,3.4,50.4,3.4,50.4c-42.7,10.2-100-1.5-106.7-7.6
	c-13.9-12.8-19.9-26.4-22.4-36.7c12.4,1.3,24.4,1.9,35.6,1.9c76.7,0,107.6-27.8,117.7-40.4l2.2-0.9
	C1271.9,1341.9,1204.1,1360.4,1204.1,1360.4"/>
<path class="st0" d="M1186.5,609.3c3.3-0.5,13.2-2.6,22-6.3c0,0,12.2,13.8,1,30.2c-6.5,9.7-21.1,17.8-40.6,26.3v0.1
	c-13.5,5.9-29.3,12.1-46.4,19.2c-1.2,0.5-2.4,1.1-3.6,1.7c-1.2,0.6-2.3,1.3-3.4,2c-1.2,0.7-2.2,1.5-3.3,2.3
	c-1.1,0.8-2.1,1.6-3.2,2.6c-0.8,0.8-1.7,1.6-2.5,2.4c-2.2,2.1-4.2,4.4-6.2,6.8c-1,1.2-1.9,2.4-2.8,3.6c-1,1.2-1.9,2.5-2.8,3.8
	c-2.8,3.9-5.6,8.1-8.5,12.5c-0.2,0.3-0.4,0.6-0.6,0.9c-8.4,13-17.9,27.9-30.8,43.1c-1.3,1.5-2.6,3-4,4.5
	c-12.7,14.3-28.7,28.7-50.1,41.8c-1.6,1-3.3,2.1-5,3c-1.7,1-3.4,2-5.2,3c-1.8,1-3.6,1.9-5.4,2.9c-93.1,48.7-72.3,44.9-104.5,22.2
	c-32.2-22.7-110-117.3-116-179.1c0,0-21-26.4-36.6-66.6l-0.1-0.2c-5.3-13.7-10-29-12.9-45.3c8.1,10.6,22.1,15.7,22.1,15.7
	c-1.2-40.4,49.5-95.2,49.5-95.2c2.1,7.4,0,16.5,0,16.5c26.4-5,55.3-35.5,55.3-35.5c-1.7,4.5,4.9,9.1,16.1,23.9
	c11.2,14.8,19.6,45.3,19.6,45.3c0.6-14.7,16.8-43.7,30.7-60.4c10.1,12.1,20.9,29.3,20.9,47.5c-0.1,33.8-8.8,52.2-8.8,52.2
	s37,31.6,57.8,62.6c0,0-130.5,41.9-120.2,119.5c-0.6-10.2,2.6-48.4,79.2-89.5c20.7-11.2,35.6-19.5,46.3-25.9
	c35.6-21.6,25.6-23.3,32.7-40.8c9.3-22.8,20.3-49.9,20.9-63.2c0.6-13.3,12.4-16.7,12.4-16.7s25.2,4.1,39.2,2.9
	c0,0-21.5,22.6-29.8,36.2c3.8-3.9,35.2-36.2,50.3-44.7c16-9,42.3,4.6,45.6,11.5l-0.2,0.2c-1.9,1.6-15.9,13.6-26.9,26.1
	c2.7-2.5,23.9-23,35.2-26.2c12-3.5,36.6,23.2,35.9,33.8c0,0-8.5,10.5-20.6,20.3c6.2-4.5,13.8-10.1,17.3-12.9
	c6.5-5.2,25.4,26.6,21.6,40.1C1216.9,590,1205.3,604.8,1186.5,609.3"/>
<path class="st0" d="M1164.8,680c-13.1,36.2-52.7,56.7-52.7,56.7c-8.8,14.3-21.6,29-32.3,40.4c-11.1,11.8-20,19.9-20,19.9
	c-3,14.5-11.5,14.5-11.5,14.5c13.2,22.1,2,32.4,2,32.4c-14,1.2-30.9,4.8-50.7,12.6c-69.6,27.2-230.8,54.6-279.6-28.8
	c0,0,45.1-53.8,30.6-100.4c-7.1-22.9-12.7-55.9-16.5-83.5c5.9,10,11,17.4,14.1,21.6c10,68.6,90.1,163.6,122.6,186.5
	c4.1,2.9,7.3,5.5,10.1,7.8c7,5.7,14.2,11.5,25.4,11.5c11.5,0,22.3-5.8,51.2-21.3c9.6-5.1,21.2-11.4,35.8-19c1.9-1,3.8-2,5.5-2.9
	c1.4-0.8,2.8-1.6,4.1-2.4l1.3-0.7c2.1-1.2,4-2.3,5.7-3.4c20.5-12.6,38.2-27.3,53.7-44.8c1.6-1.7,3.1-3.4,4.5-5.1
	c12.8-15,22.2-29.5,30.5-42.3l1.6-2.4l0.6-0.9c2.8-4.3,5.4-8.2,8.2-12.1c0.7-1,1.4-1.9,2.1-2.9l0.4-0.5c0.7-0.9,1.4-1.8,2.2-2.8
	c1.4-1.7,3.1-3.6,5.1-5.6c0.7-0.7,1.3-1.3,2.1-2.1c0.5-0.4,1-0.8,1.9-1.5c0.6-0.5,1.2-0.9,2.2-1.6c0.6-0.4,1.2-0.8,1.9-1.1
	c0.7-0.4,1.3-0.7,2.2-1c6.3-2.7,12.5-5.2,18.4-7.5C1153.6,684.6,1159.3,682.3,1164.8,680"/>
<path class="st1" d="M1335.1,694.8c-16.6,2.8-33.7-10.4-35-11.5c0.4,0.6,2.8,3.9,7.3,7.4l-0.5,4.3c-1,9.2-0.1,16.3,3,22.1
	c-11.8,8.9-11,30.7-6.9,41c1.4,3.5,3.3,6.4,5.6,8.6c0.1,0.1,0.2,0.2,0.3,0.3l0.4,0.2l-0.5,1.9c-1.8,7.1-2.5,17.7,4.4,28.2
	c1.6,2.6,3.9,5,6.4,6.9c0.6,0.5,1.6,1.3,2.9,2.1l-0.4,2.1c-0.7,3.9-0.8,7.8-0.3,11.6c-20.9-3.6-73.2-14.2-98.8-34.3
	c0,0-79.3-0.7-122.8-5.5c9.9-11,18-21.3,24.2-30.8c11.8-7,44.1-28.9,56.7-63.8l4.9-13.4c10.5,2.9,27,7.8,53,15.9
	c0,0-9,9.2-10.5,30.3c0,0,9.2-37.8,37.6-51.1c28.5-13.3,25.7-19.9,39.7-18.1c13.9,1.9,28.2,13.1,47.3,19.6
	C1372.2,675.5,1352.4,691.9,1335.1,694.8"/>
<path class="st1" d="M1375.8,744.7c-0.3,6.4-5,17-10.7,18.9c-0.5,0.2-1.4,0.4-2.6,0.5c-10.4,1.1-42.7-0.5-42.7-0.5c0.3-0.7,0,0,0,0
	s-2.4-0.3-5.4-3.1c-1.2-1.2-2.5-2.9-3.5-5.5c-3.6-9-3.5-27.7,5.8-32c1.1-0.6,3-0.9,5.3-1h0.1c0.2,0,0.6,0.1,1.3,0.1
	c5.7,0.3,27.4,1.6,41,4.2c2.1,0.4,3.9,0.9,5.4,1.5C1379.2,731.6,1376,739.2,1375.8,744.7"/>
<path class="st1" d="M1371.6,719.3L1371.6,719.3c-1.6-0.5-3.4-1-5.6-1.5c-14-2.7-35.9-4-42.2-4.3l-1.6-0.1l-0.5,0.1
	c-1.5,0-2.7,0.1-3.9,0.4c-2-3.4-3.5-8.5-2.5-17.9c22.6,9.9,36.1-3.6,36.1-3.6s18.1,3.1,20.1,12.8
	C1372.5,709.7,1372.2,715,1371.6,719.3"/>
<path class="st1" d="M1353.4,811.9c-0.7,5.1-2.5,9.1-4.7,10.5c-3.5,2.4-18-0.9-18-0.9c-1-4.4-0.9-8.3-0.2-11.5
	c0.9,0.2,1.8,0.3,2.6,0.3h0.9c3.4,0.5,11.6,1.5,17.9,1.5H1353.4z"/>
<path class="st1" d="M1364.1,772.6c0,11.4-3.1,29.6-7.6,30.5c-0.8,0.2-1.9,0.2-3,0.2c-7.3,0.3-19.9-1.6-19.9-1.6
	c-0.7,0.7-4.9-1-8.6-4.1c-1.8-1.4-3.4-3.1-4.6-5c-5-7.7-4.7-15.6-3.3-21.4l2.4,1c0.7,0,18.3,0.8,31.8,0.8c5.5,0,9.6-0.1,12.3-0.4
	C1363.7,772.7,1363.9,772.6,1364.1,772.6"/>
<path class="st1" d="M1058.3,291.3c1.2,3.7,2.7,7.2,4.4,10.6c-1.2,1.9-2.4,3.8-3.7,5.9c-1.1,1.8-2.2,3.7-3.5,5.7
	c0,0.1-0.1,0.2-0.2,0.4c-1.1,1.8-2.2,3.6-3.3,5.6c-3.5,5.9-7,12.2-10.3,18.6c-1.4,2.5-2.7,5.2-3.9,7.8c-2.7,5.6-5.3,11.1-7.5,16.5
	c-0.6,1.5-1.1,3-1.6,4.4c-0.8,2.2-1.6,4.5-2.3,6.6c0,0-3.5-33.6,5.7-56.2c0,0-44.6,42.4-69.2,98.9c0,0-8.9-9.3-5.5-32
	c0,0-3.7,9.1-35.2,34.5c-16.1,13-22.6,5.2-30.7,21.6c-16.4,27.3-14.1,47.8-14.1,47.8c-3.2-31.2-21.4-35.3-20.9-48.4
	c0.1-2.8,1.3-6.7,3.2-10.8v-0.1c6.5-14.9,20.9-34.5,20.9-34.5s-39.8,29.6-53.7,43.6c-13.9,14.1-23.9,21.8-23.9,21.8
	c8.9-19.6,2.3-36.1,2.3-36.1c-12.7,20.8-27.9,24.7-46.7,43.9c-18.8,19.2-30.2,65.8-30.2,65.8C716.7,518.4,713,488,713,488
	s0,0.2-0.1,0.5c0,0.1-0.1,0.3-0.1,0.5c-1.5,8.4-10.5,66.3-5.4,94.2c0,0-27.6-74.5-15.5-112.8c12.1-38.3,40.5-41,54.7-58.8
	c0,0-15.5,10.4-42.3,3.8c0,0,62.4-21.1,93.2-57.5c29.9-35.1,100.2-72.6,105.8-74.9c-5.8,1.7-92.3,23.8-141.5,41.4
	c2.7-1.9,89-65.3,210-84.1c0,0-48.8,5.2-73.3-3c0,0,106-7.8,129.7-17.5c11.2-4.5,25.8-7.8,38.1-9.9c-8.3,15.9-12.6,32.2-12.8,48.6
	c-0.2,10.1,1.1,20.3,4.2,30.3C1057.9,289.7,1058.1,290.5,1058.3,291.3"/>
<path class="st0" d="M1291.8,173.3c-0.6,10.4-3.6,20-8.1,29.5c-1.7,3.6-3.6,7.2-5.6,10.7c-3.6,6.4-7.7,12.9-11.8,19.5
	c-9.5,15.2-19.3,31.5-25,50.9c-15,51.2-146.3,65.5-166.7,2c-0.2-0.5-0.3-1-0.4-1.5c-2.7-8.8-3.8-17.3-3.6-25.4
	c0.2-20.3,8.1-38.1,17.2-51.9c13.2-20.1,29.2-32.2,29.2-32.2c74.1,12,111.3,3.3,111.3,3.3s-64.2,4.6-148.8-20.1
	c-84.7-24.7-260.6-61.4-260.6-61.4c65.8-20,123-32.4,172.4-38.9c224.5-29.7,291.3,60.3,299.2,98.8
	C1291.8,162.4,1292.1,167.9,1291.8,173.3"/>
<path class="st1" d="M1315,558.7c-1.3-1.1-2-1.9-2-1.9s-2.4-11.9,0.7-1.9C1314.1,556.2,1314.6,557.4,1315,558.7"/>
<path class="st0" d="M1420,414c-1.6-15.6-49.7-65.5-49.7-75.8c0-10.2,12.7-13.8,7.4-24.4c-4.5-9.1-27.7-47.8-73.5-82.6
	c-1.9-1.4-3.8-2.8-5.8-4.2l-0.1,0.1l-0.2-0.2c-1.8-1.3-3.7-2.6-5.6-3.9c-2.9,5.1-6,10.1-9.2,15.3l-2.4,3.9
	c-9.8,15.6-18.2,29.9-23.2,46.6c-10.9,37.2-61.3,56.7-105.6,56.7c-32,0-58.3-9-75.5-25.1l-2.3,1.7c0,0-35.9,42.1-53.2,91.2
	c0,0-12.4-25.6-12.8-35.5c0,0-33.9,40.8-43.9,67.6c0,0-14.2-12.7-17.1-24.7c0,0-13.2,18.5-26.4,24.7c-0.1,0-0.1,0.1-0.2,0.1l0.5,0.7
	c11.3,13.6,24.9,34.9,24.8,58.6c-0.1,21.1-3.1,36.9-6,46.9c11.2,10.3,30.8,29.4,46,49.6c8.9-6.1,9.3-8.3,9.9-11.4
	c0.7-3.3,1.6-7.9,4.1-13.7c6.7-16.4,19.2-46.8,19.6-57.5c0.9-20.2,16-29.9,24.7-32.4l3.7-1.1l3.8,0.6c0.2,0.1,18.1,2.9,30.8,2.9
	c1.5,0,2.9-0.1,4.2-0.2l4.5-0.4c3.2-2.4,6.2-4.5,9-6c6.1-3.4,13.1-5.1,20.9-5.1c14.1,0,30.1,6.1,40.2,14.3c1.1-0.2,2.1-0.2,3.2-0.2
	c9.6-14.1,25.3-32.1,44.5-35.6c32.4-5.9,47.2,10.7,49.9,31.1c2.6,20.4,8.2,62.7,31.9,80.6c0,0-4.5-13.3-4.4-20.4
	c0,0,11.3,16.5,35.8,29.6c0,0-4.5-8.7-7.7-17.6c4.5,4.1,16.7,13.9,38.7,23.1c-1-2.1-23-48.7-3.5-73c19.9-25,25.6-14.7,18.4-26.8
	c0,0,11.5-2.9,13.9-7.9c0,0-1.5-14.9,6.8-33C1389.4,441.1,1421.6,429.7,1420,414z M1313,556.8c0,0-2.4-11.9,0.7-1.9
	c0.4,1.2,0.8,2.5,1.3,3.8C1313.7,557.5,1313,556.8,1313,556.8z M1330.2,334.3c-13.7-5.2-6.2-26.5-6.2-26.5
	c5.5,6.5,27.2,22.8,28.1,23.4C1352.1,331.3,1343.9,339.5,1330.2,334.3z"/>
<path class="st1" d="M1328,184c-10,9.1-17.2,19.2-21.9,27.3c-0.5-0.4-1.2-0.8-1.7-1.2l-3.9-2.7c5-11.5,7.8-22.3,8.4-32.9
	c0.5-7-0.1-14.2-1.5-21.5c-1-4.8-26.8-118.4-232.1-118.4c-26.8,0-55.9,2.1-86.3,6.1c-15.2,2-30.7,4.5-46.8,7.5
	c-28.4-4.4-48.4-5.8-48.4-5.8s146.7-54.4,338.9-5.3C1424.9,86.2,1349.3,164.7,1328,184"/>
<path class="st0" d="M1298.4,226.9L1298.4,226.9l-0.1,0.1l-0.2-0.2C1298.2,226.8,1298.4,226.9,1298.4,226.9"/>
<path class="st1" d="M439.2,1536.5l42.4,71.3c-217.7-157.3-359.7-413.5-359.7-702.1c0-387.9,256.5-717.2,608.9-826.8
	c-44.7,29.4-81.9,62.5-81.9,62.5c34.3,1.1,66.9,6.5,94.1,12.9C426.5,257.3,197.3,555.2,197.3,905.6c0,149.8,41.9,290,114.6,409.5
	l0.2,0.4l79.4,144.1L439.2,1536.5z"/>
<path class="st1" d="M1853.4,905.6c0,275.1-129,520.7-329.6,679.3v-99.1C1680,1341.4,1778,1134.7,1778,905.6
	c0-277.7-143.9-522.3-361-663.2c25.2-19.8,37.4-44.7,43.3-61.9C1696.8,335.2,1853.4,602.5,1853.4,905.6"/>
<rect x="1191.6" y="1583.5" class="st0" width="74.7" height="398.1"/>
<rect x="1294.1" y="1583.5" class="st0" width="74.7" height="398.1"/>
<rect x="1396.8" y="1583.5" class="st0" width="74.7" height="398.1"/>
<polygon class="st0" points="1098,1583.5 1016.9,1764.1 1057,1858.2 1178.2,1583.5 "/>
<polygon class="st0" points="1012.1,1819.2 1007.3,1808 911.8,1583.5 831.7,1583.5 1001.8,1981.6 1042.4,1890.2 "/>
<polygon class="st0" points="650,1887.7 594,1981.6 503.8,1981.6 602.3,1810.9 "/>
<polygon class="st0" points="824.6,1981.6 739.2,1981.6 666.6,1859.5 618.9,1782.7 509.1,1583.5 599.6,1583.5 666.3,1704.4 
	709.6,1782.7 "/>
<polygon class="st0" points="819.3,1583.5 726,1751.8 682.7,1673.4 729.1,1583.5 "/>
</svg>
