<?xml version="1.0" encoding="utf-8"?>
<!-- Generator: Adobe Illustrator 19.0.0, SVG Export Plug-In . SVG Version: 6.00 Build 0)  -->
<svg version="1.1" id="Layer_1" xmlns="http://www.w3.org/2000/svg" xmlns:xlink="http://www.w3.org/1999/xlink" x="0px" y="0px"
	 viewBox="0 0 2000 2000" style="enable-background:new 0 0 2000 2000;" xml:space="preserve">
<style type="text/css">
	.st0{fill:#995D89;}
	.st1{fill:#674060;}
</style>
<g id="XMLID_2_">
	<path id="XMLID_56_" class="st0" d="M805.5,1123.3c0.2-2.6,0.4-5.1,0.5-7.7C806,1115.6,806.2,1118.4,805.5,1123.3"/>
	<path id="XMLID_50_" class="st0" d="M1826.9,902.9c-6.3-2.5-13-4.7-20.1-6.6c-143.1-38.1-174.9,25.9-174.9,25.9
		c30.2,12,51,25.6,64.7,40.2c67.1,71.4-41.1,163.7-77.4,175.3c-40.9,13.1-99.1,30.5-64.7-126.8c2.3-10.3,4.9-21.4,8-33.3
		c7.4-28.3,9.3-55.7,7.5-81.7c-10-151.5-145.5-259.9-77.1-265.8c80.2-6.9,93-52.3,111.6-98.5c18.6-46,19.3-80.6-52.9-106.1
		c-72.2-25.5-85.2-39-120.9-97c-35.7-58-144.4-111.2-290-183.6c-145.6-72.5-285.1-6.5-390.6-16.3c-105.6-9.7-128.8,36.4-148.8,61.7
		c-20,25.3-6.4,48.6-46.5,68.7c-40.1,20.1-49.1,45-62,76c-13,31.1-8,26.8-52.9,88.8c-44.8,62-5.7,132.5-5.7,132.5
		s44.9-33.6,165.1-12.1c133.9,24,72.6,198.6,46.8,248.8C583.7,914.1,653.9,988,657,991.2c-1.7-1-61.3-37.3-51.1-125.4
		c10.5-89.4,123.3-258.1-18.5-295.4c-141.9-37.4-223.8,88.9-223.8,88.9c242.6-78.7,230.1,81.4,178.6,176
		c-51.4,94.7,47.3,200.1,78,214.7c139,65.7,185.2,73.4,185.2,73.4c70,43-97.8,145.7-156.9,158.4c-59.1,12.7-66.3-150.9-304-202.7
		c-237.6-51.7-308.4,68.6-308.4,68.6s128.9-51.8,212.4,15c83.4,66.8,199.3,483.1,577.1,252.1c65.6-40.1,122.8-81.1,172.4-122
		c166.9-137.8,247.9-276.1,273.7-385.9c20.6-87.2,108.7-20.9,111.7,108.2v0.1c0.2,5.6,0.2,11.3-0.1,17.1
		c-0.6,18.5-2.5,38.3-5.8,59.4c-28.3,180.5,189.3,174.4,368.1,86.2C1915.7,1094.1,1946.9,949.7,1826.9,902.9 M1301.2,527.3
		c-91.5,7.7-115.2-93.8-115.2-93.8C1314.9,442.8,1301.2,527.3,1301.2,527.3 M941.4,959.4c-3.9,0.5-7.7,1.1-11.7,1.6l-11.9,0.1
		c-15.8,0.2-31.9-2.8-47-9.3c-7.5-3.2-14.5-7.7-21.1-12.7c-6.4-5.2-12.2-11.1-17.2-17.5c-9.9-13-17-27.8-21.3-43
		c-4.3-15.3-6.2-30.9-6.7-46.3c-0.4-15.5,0.7-30.9,3.3-46c2.5-15.1,6.3-30,11.1-44.4c2.6-7.3,4.9-14.3,8.3-21.5
		c3.3-7.4,7.4-14.3,12.3-20.7c9.9-12.8,23-23.1,37.5-29.4c14.5-6.4,29.8-9.5,45-10.6c30.4-1.7,60.5,3.3,88.3,13.3
		c-29-5.5-58.7-7.3-87.2-3c-28.2,4.2-55.1,17-70.1,39.4c-3.7,5.5-6.8,11.5-9.3,17.9c-2.5,6.3-4.8,13.3-6.9,20.1
		c-4,13.7-7,27.8-9,41.8c-3.9,28.1-3.7,57,4,83.4c3.6,13.3,9.4,25.6,17.3,36.2c4,5.2,8.6,9.9,13.6,14.1c5.2,4,10.7,7.6,16.6,10.4
		c11.8,5.6,25.3,8.8,39.1,9l10.2,0.3l10.3-1.1c6.9-0.3,13.7-2.2,20.5-3.7c27.3-6.9,52.9-21.2,76.6-37.9c12-8.3,23.4-17.5,34.4-27.2
		c11-9.7,21.7-19.9,31.8-30.7c-8.3,12.3-17.6,24-27.6,35c-9.9,11.2-20.6,21.5-32.1,31.3c-22.9,19.2-48.5,36.6-78.4,45.7
		C956.7,956,949.3,958.6,941.4,959.4 M916.2,752c-2.6-4.5-5.5-8.7-8.5-13.2c-2.9-4.2-5.6-7.3-9.8-6.7c-4.2,0.7-8.4,4.1-11.9,7.8
		c-3.6,3.8-6.8,8-9.7,12.4c1.9-4.9,4.3-9.8,7.4-14.3c3.2-4.4,6.9-8.9,13.1-11c3.2-0.8,7.1-0.5,9.8,1.4c1.6,0.8,2.7,1.8,3.8,2.9
		c1.1,1.1,2.1,2.2,3,3.2c3.4,4,6.8,8.3,9.9,12.8c6.4,8.9,11.4,19,14.8,29.6c3.4,10.7,4.9,21.9,5,32.9c-0.1,11-1.1,22-3.4,32.7
		c-2.4,10.6-4.9,21.2-9.7,31.4c-2.6,4.9-5.1,10.2-9.9,14.3c-2.3,2-5.4,3.7-8.8,4.2c-1.7,0.5-3.3-0.2-5-0.2c-1.5-0.4-3-1.1-4.4-1.7
		c-5.2-3-8.7-7.4-11.9-11.9c-3.2-4.4-5.5-9.3-7.9-14c3.3,4.2,6.5,8.4,10.2,12.1c3.6,3.7,7.5,7.3,11.8,9c9,3.9,14.7-5.9,18.2-15.1
		c3.4-9.4,5.7-19.7,7.4-30c1.9-10.2,2.8-20.5,2.7-30.7C932.5,789.5,927.1,769.6,916.2,752 M1421.7,491
		c-33.5,159-165.8,128.9-165.8,128.9s114.6-6.4,142.2-121c26.9-111.5-60.1-156.1-64.8-158.5C1339.4,342.4,1445.7,377.3,1421.7,491"
		/>
	<path id="XMLID_49_" class="st1" d="M583.2,1043.8c5.9,17.1-6.9,37.2-28.6,44.7c-21.7,7.5-44.2-0.2-50.1-17.4
		c-5.9-17.1,6.9-37.2,28.6-44.7C554.8,1018.9,577.3,1026.7,583.2,1043.8"/>
	<path id="XMLID_48_" class="st1" d="M469.5,1101.1c-19.6-10.5-41.9-20.2-67.1-28.5c5-5.2,11.6-9.5,19.3-12.1
		c21.8-7.6,44.2,0.2,50.1,17.4C474.5,1085.4,473.5,1093.6,469.5,1101.1"/>
	<path id="XMLID_47_" class="st1" d="M680.3,1089.9c8.8,15.9-0.4,37.8-20.5,49c-20.1,11.2-43.6,7.4-52.4-8.5
		c-8.8-15.9,0.4-37.8,20.5-49C648.1,1070.2,671.5,1074,680.3,1089.9"/>
	<path id="XMLID_46_" class="st1" d="M570.3,1179.8c-13.3-14.6-29-29.9-48.2-44.7c0.6-0.4,1.3-0.8,2-1.1
		c20.1-11.2,43.5-7.4,52.4,8.5C582.9,1153.8,579.9,1168.4,570.3,1179.8"/>
	<path id="XMLID_45_" class="st1" d="M774.2,1144.4c13.1,15.2,8.1,40.9-11.1,57.5c-19.2,16.6-45.4,17.8-58.5,2.6
		c-13.1-15.2-8.1-40.9,11.1-57.5C734.9,1130.4,761.1,1129.2,774.2,1144.4"/>
	<path id="XMLID_44_" class="st1" d="M678.9,1248.9c-12,5.3-23.8,9.4-34.8,11.8c-0.7,0.1-1.3,0.2-1.9,0.2
		c-7.7,0-21.3-17.8-34.5-35.1c2.3-2.8,4.8-5.5,7.7-8c19.2-16.6,45.4-17.8,58.6-2.7C681.5,1224.1,683,1236.7,678.9,1248.9"/>
	<path id="XMLID_43_" class="st1" d="M531.4,967c4,15-8.8,31.5-28.6,36.9c-19.8,5.3-39.2-2.6-43.2-17.6c-4-15,8.8-31.5,28.6-36.9
		C508,944,527.4,951.9,531.4,967"/>
	<path id="XMLID_42_" class="st1" d="M513.1,891.5c0.9,13.2-12,24.9-29,26.1c-17,1.2-31.5-8.5-32.4-21.7c-0.9-13.2,12-24.9,29-26.1
		C497.6,868.6,512.2,878.3,513.1,891.5"/>
	<path id="XMLID_41_" class="st1" d="M525.9,826c-3.8,9.5-17.1,13.1-29.6,8c-12.5-5.1-19.6-16.8-15.7-26.3c3.8-9.5,17.1-13.1,29.6-8
		C522.6,804.8,529.7,816.5,525.9,826"/>
	<path id="XMLID_40_" class="st1" d="M550.4,759c-0.5,8.1-9.6,14.1-20.3,13.4c-10.7-0.7-19-7.8-18.4-15.9
		c0.5-8.1,9.6-14.1,20.3-13.4C542.7,743.8,550.9,750.9,550.4,759"/>
	<path id="XMLID_39_" class="st1" d="M549.9,693.9c1.8,5.5-3.6,12.2-11.9,14.8c-8.3,2.6-16.5,0.3-18.3-5.3
		c-1.7-5.5,3.6-12.2,11.9-14.8C540,686,548.2,688.3,549.9,693.9"/>
	<path id="XMLID_38_" class="st1" d="M520.4,647.3c4.4,3.2,4.6,10.3,0.5,15.7c-4.1,5.4-10.9,7.2-15.2,4c-4.3-3.3-4.6-10.3-0.5-15.7
		C509.2,645.8,516,644,520.4,647.3"/>
	<path id="XMLID_37_" class="st1" d="M397,1014.1c-11.2,2.6-22-0.2-29-6.5c-1.8-1.6-3.2-3.4-4.4-5.4c-1.4-11.7-0.3-20.9,1.6-27.8
		c1.9-2.8,4.2-5.3,7-7.4c4.2-3.3,9.2-5.8,14.8-7.2c17.3-4.1,33.6,4.8,36.5,19.8C426.2,994.6,414.4,1010.1,397,1014.1"/>
	<path id="XMLID_36_" class="st1" d="M432.4,889.3c-1.4,11.6-15.2,19.2-31,17c-7.3-1-13.8-4-18.5-8.2c-0.7-0.5-1.3-1.2-1.8-1.8
		c2-7.5,6.3-19.7,15.7-32.1c1.6-0.2,3.3-0.3,5.1-0.3c1.4,0.1,2.9,0.1,4.4,0.3C422.1,866.6,433.7,877.7,432.4,889.3"/>
	<path id="XMLID_35_" class="st1" d="M466.4,806.9c-1.2,8.2-12.6,13.6-25.7,12.1c-6.1-0.7-11.5-2.9-15.3-5.8
		c-0.6-0.4-1.1-0.8-1.5-1.3c1.6-5.3,5.2-14,13-22.8c1.4-0.1,2.8-0.2,4.2-0.2c1.2,0,2.4,0.1,3.7,0.2
		C457.8,790.7,467.5,798.6,466.4,806.9"/>
	<path id="XMLID_34_" class="st1" d="M502.1,745.4c-1.1,8.2-12.6,13.7-25.7,12.1c-1.3-0.2-2.5-0.4-3.6-0.7c4-4.2,9.3-9.7,15-15.9
		c2.5-2.7,4.4-5.8,5.8-9C499.4,735.4,502.8,740.3,502.1,745.4"/>
	<path id="XMLID_33_" class="st1" d="M1435.3,1268.7c-1,1.1-2,2-3.3,2.8c-26.8-15.4-40.1-36.9-46.5-56.9c9.7-3.2,24.4,1.3,36.6,12.1
		C1437.7,1240.4,1443.6,1259.2,1435.3,1268.7"/>
	<path id="XMLID_32_" class="st1" d="M1538.8,1276c-0.6,7-6.3,12.8-14.7,16.2h-0.1c-19.2-0.1-35.8-2-50.2-5.2h-0.1
		c-6.7-4.8-10.5-10.9-10-17.4c1.1-12.7,18.7-21.4,39.5-19.6C1523.9,1251.7,1539.8,1263.4,1538.8,1276"/>
	<path id="XMLID_31_" class="st1" d="M1612,1282.7c-17.4,3.5-33.4-2.3-35.5-12.9c-2.1-10.6,10.3-22.1,27.8-25.6
		c17.5-3.5,33.5,2.3,35.6,12.9C1641.9,1267.7,1629.5,1279.2,1612,1282.7"/>
	<path id="XMLID_30_" class="st1" d="M1935.9,1023.9c-1.8,1.4-3.9,2.3-6,2.3c-7.6,0-13.8-10.2-13.8-22.7c0-3.3,0.5-6.4,1.3-9.3
		C1924.4,1004.5,1930.5,1014.4,1935.9,1023.9"/>
	<path id="XMLID_29_" class="st1" d="M1958.5,1135.6c-0.3,0-0.6,0-0.9-0.1c-9.1-2-13.8-15.7-10.5-30.6c2.1-9.3,6.8-16.9,12.2-20.8
		C1963.1,1103.1,1962.6,1120.2,1958.5,1135.6"/>
	<path id="XMLID_28_" class="st1" d="M1933.4,1085.2c-5.6,14.2-17.1,23-25.8,19.6c-8.6-3.4-11.1-17.7-5.5-31.9
		c5.6-14.2,17.2-23,25.9-19.6C1936.6,1056.7,1939,1070.9,1933.4,1085.2"/>
	<path id="XMLID_27_" class="st1" d="M1880.2,1160.4c-11.5,10-25.8,12.4-31.9,5.5c-6.1-7.1-1.7-20.9,9.9-30.9
		c11.5-10,25.9-12.4,31.9-5.5C1896.1,1136.6,1891.7,1150.4,1880.2,1160.4"/>
	<path id="XMLID_26_" class="st1" d="M1916.7,1195.5c-8.5,6.8-18,13.1-28.5,19c-2.4-0.2-4.6-1-6.4-2.5c-7.1-5.9-4.9-20.3,4.9-32
		c9.9-11.7,23.6-16.4,30.7-10.4C1923.2,1174.6,1922.7,1185.3,1916.7,1195.5"/>
	<path id="XMLID_25_" class="st1" d="M1848,1233.3c-5.5,2.1-11.1,4.2-16.7,6.2c-11.1,3.9-22.7,7.5-34.7,10.8c3.4-5.5,9-10.8,16-14.9
		c7.8-4.5,16-6.6,22.8-6.4C1840.6,1229,1845,1230.5,1848,1233.3"/>
	<path id="XMLID_24_" class="st1" d="M1803,1218.7c-15.4,8.9-32.3,8.5-37.8-0.9c-5.4-9.4,2.7-24.2,18.1-33.2
		c15.5-8.9,32.4-8.5,37.8,0.8C1826.6,1194.9,1818.4,1209.8,1803,1218.7"/>
	<path id="XMLID_23_" class="st1" d="M1708,1259.7c-17.2,4.7-33.5,0.1-36.3-10.4c-2.9-10.5,8.7-22.8,25.9-27.5
		c17.1-4.8,33.4-0.2,36.3,10.3C1736.8,1242.7,1725.2,1255,1708,1259.7"/>
	<path id="XMLID_22_" class="st1" d="M335.8,1317.2c9.5,13.3,10.7,28.8,2.6,34.7c-8.1,5.8-22.4-0.3-32-13.6
		c-9.5-13.3-10.7-28.9-2.6-34.7C311.9,1297.8,326.2,1303.9,335.8,1317.2"/>
	<path id="XMLID_21_" class="st1" d="M289,1242.8c7.2,13.6,6.4,28.2-1.9,32.6c-8.3,4.4-20.9-3.1-28.1-16.7
		c-7.2-13.6-6.4-28.3,1.9-32.6C269.2,1221.7,281.7,1229.1,289,1242.8"/>
	<path id="XMLID_20_" class="st1" d="M248.2,1181c8,10.9,9.1,23.6,2.5,28.5c-6.7,4.8-18.5-0.1-26.5-10.9c-8-10.9-9.1-23.7-2.5-28.5
		C228.4,1165.2,240.2,1170.1,248.2,1181"/>
	<path id="XMLID_19_" class="st1" d="M178.5,1141.3c11.2,2.4,19.2,9.8,17.8,16.7c-1.5,6.8-11.8,10.5-23,8.1s-19.2-9.9-17.8-16.7
		C157,1142.5,167.2,1138.9,178.5,1141.3"/>
	<path id="XMLID_18_" class="st1" d="M293.9,1366.3c-15-12.4-27.3-25.1-37.8-37.6c4.5-1.9,10.3-0.9,16,2.3
		c4.9,2.6,9.7,6.9,13.8,12.5c4.4,6.2,7.1,12.9,7.8,18.9C293.9,1363.8,293.9,1365.1,293.9,1366.3"/>
	<path id="XMLID_17_" class="st1" d="M245,1288.7c-0.6,5.2-2.8,9.4-6.6,11.4c-0.8,0.4-1.6,0.7-2.4,0.9
		c-11.1-17.1-19.2-33.6-25.7-48.8v-0.1c0.5-0.5,1.2-0.9,1.9-1.3c2.3-1.2,5-1.5,7.7-1c7.2,1.3,15.3,7.9,20.4,17.8
		C244.2,1274.9,245.7,1282.5,245,1288.7"/>
	<path id="XMLID_16_" class="st1" d="M207.9,1232.7c-0.5,0.6-0.9,1.1-1.5,1.5c-0.9,0.6-1.9,1.2-3,1.4c-1.9-4.7-3.8-9.3-5.6-13.6
		c-4.8-11.7-9.3-21.6-14.5-29.1c6.5-0.2,14.6,4.6,20.6,12.8C211.3,1215.6,212.8,1227.2,207.9,1232.7"/>
	<path id="XMLID_15_" class="st1" d="M128.4,1153c0.1,1.5-0.4,3-1.1,4.3c-13.2-4-26.6-6.6-39-8.1c3.1-4.5,10.4-8,18.9-8.2
		C118.7,1140.7,128.2,1146,128.4,1153"/>
	<path id="XMLID_14_" class="st1" d="M1383.4,1015v0.1c0,0-23.7-54.9-66.7,32.3c-42.5,86.1-195.6,256.2-318.7,245.2
		c166.9-137.8,247.9-276.1,273.7-385.9C1292.3,819.6,1380.4,885.9,1383.4,1015"/>
	<path id="XMLID_13_" class="st1" d="M579.9,1699.1c-160.2-85-291.6-217.3-375.7-378.1c73,97.1,133.6,98.2,133.6,98.2
		c33.3,38.6,73,75.1,120.6,101.5c13.7,12.2,27.9,23.9,42.4,35L579.9,1699.1z"/>
	<path id="XMLID_12_" class="st1" d="M546.1,134.2c-0.5,0.8-1.1,1.5-1.6,2.2c-1.5,2-2.9,3.9-4.2,5.6c-15.3,19.2-21.7,37.8-25.5,50.1
		c-60.2,32.1-78.7,76.5-92.3,109.2l-1.6,3.8c-2,4.8-3.6,8.8-5,12.4c-4.9,12.2-6,14.9-32.7,51.9C283,483.7,214.1,626.4,190.2,783.5
		c-0.8,4.8-1.4,9.7-2,14.6c-4.8,35.7-7.3,72.2-7.3,109.2c0,28.2,1.4,56.1,4.3,83.5c-28.9,3.1-54.4,8.9-76.8,16.3
		c-3.7-32.7-5.5-66-5.5-99.8C102.9,578.1,281.1,289.9,546.1,134.2"/>
	<path id="XMLID_11_" class="st1" d="M1893.2,849.3c-11.5-7.2-24.1-13.5-37.5-18.8c-9.2-3.7-18.9-6.9-28.8-9.5
		c-5-1.3-9.9-2.6-14.7-3.7c-13.7-125.5-55.9-242.5-120.1-344.4c-23.4-37.3-49.8-72.5-78.9-105.4c-64.6-73.7-142.4-135.6-229.6-182.1
		c-0.2-0.2-0.2-0.2-0.4-0.2c-52.1-32.5-118.4-65.3-197.9-105l-9.9-5c-57.6-28.7-119.8-42.6-190.2-42.6c-46.1,0-89.6,5.8-128,11.1
		c-30.7,4.2-59.7,8.1-83.8,8.1c-5.9,0-11.1-0.2-16.2-0.7c-6.5-0.6-12.8-1-19-1.3C820.7,24.5,908.4,11,999,11
		C1473.7,11,1863.4,382,1893.2,849.3"/>
	<path id="XMLID_10_" class="st1" d="M1788.6,1330.7c-85.2,158.2-216.5,287.9-375.8,371.1l78.6-141.8
		c73.1-55.3,136.7-122.5,187.8-198.7C1725.3,1352.3,1762.6,1340.5,1788.6,1330.7"/>
	<rect id="XMLID_9_" x="957.2" y="1589.8" class="st0" width="74.8" height="398.7"/>
	<polygon id="XMLID_8_" class="st0" points="752,1894.7 695.8,1989 605.2,1989 704.1,1817.6 	"/>
	<polygon id="XMLID_7_" class="st0" points="927.3,1989 841.6,1989 768.7,1866.5 720.8,1789.3 610.5,1589.3 701.5,1589.3 
		768.4,1710.6 811.8,1789.3 	"/>
	<polygon id="XMLID_6_" class="st0" points="922,1589.3 828.3,1758.3 784.9,1679.6 831.5,1589.3 	"/>
	<polygon id="XMLID_5_" class="st0" points="1217.5,1894.7 1161.3,1989 1070.7,1989 1169.6,1817.6 	"/>
	<polygon id="XMLID_4_" class="st0" points="1392.8,1989 1307.1,1989 1234.1,1866.5 1186.2,1789.3 1076,1589.3 1166.9,1589.3 
		1233.9,1710.6 1277.3,1789.3 	"/>
	<polygon id="XMLID_3_" class="st0" points="1387.5,1589.3 1293.8,1758.3 1250.3,1679.6 1296.9,1589.3 	"/>
</g>
</svg>
