<?xml version="1.0" encoding="utf-8"?>
<!-- Generator: Adobe Illustrator 19.0.0, SVG Export Plug-In . SVG Version: 6.00 Build 0)  -->
<svg version="1.1" id="Layer_1" xmlns="http://www.w3.org/2000/svg" xmlns:xlink="http://www.w3.org/1999/xlink" x="0px" y="0px"
	 viewBox="0 0 2000 2000" style="enable-background:new 0 0 2000 2000;" xml:space="preserve">
<style type="text/css">
	.st0{fill:#9A7E71;}
	.st1{fill:#675349;}
</style>
<g>
	<path class="st0" d="M1777.423,582.755c-6.438-10.518-21.336-18.354-62.583-21.906c-21.756-1.855-57.477-8.252-88.613-14.801
		h-0.052c-27.789-5.822-51.966-11.85-59.235-14.84c-15.465-6.449-26.391-7.117-26.391-7.117l-0.059,0.102
		c-0.824,1.756-14.274,28.67-43.299,37.836c-1.596,0.52-3.303,0.979-5.003,1.395c-2.678,0.625-5.201,1.137-7.578,1.502
		c-27.781,4.738-38.715-3.559-52.326-5.367c-14.847-1.959-58.661-26.4-81.241-23.195c-22.528,3.193,36.758,80.523,62.531,83.1
		c0,0-16.341,1.961-34.389-3.193c-18.041-5.154-94.492-12.02-149.909-26.656c-55.417-14.586-132.332-45.522-238.838-12.012
		c-76.657,24.125-112.436,38.455-151.049,44.902C724.017,732.464,660.61,702.774,660.61,702.774
		c18.658-10.316,94.337-75.371,94.337-75.371l1.288-0.055c-42.019,1.438-64.334,4.176-101.761,6.963
		c-46.396,3.451-117.69-9.439-218.223,45.522c-100.525,55.004-146.097,80.777-133.207,136.605
		c12.89,55.889,42.997,166.721,61.862,207.08c18.923,40.367,28.355,86.771-10.308,153.787
		c-38.664,67.016-33.514,46.395-32.631,85.059c0.876,38.664,12.883,179.35,7.733,200.639c-4.849,19.949-11.397,25.723-12.169,26.395
		c1.081-0.309,9.999-2.994,16.444-6.188c0,0,0.875,18.045,7.32,28.359c6.445,10.305,73.31,14.223,69.903,5.975
		c-12.316-30.055-34.227-33.047-34.227-44.641c0-11.604-0.876-144.602,19.74-172.287c2.84-3.814,7.887-10.775,14.487-20.006
		c41.452-57.736,145.531-205.482,171.105-245.488c14.222-22.217,43.814-19.898,77.997-11.699
		c37.17,8.867,79.799,24.644,114.034,23.301c65.724-2.574,215.228,28.354,273.882,22.58c0,0,3.414-16.139-15.716-53.514
		c0,0,11.191,11.187,22.374,26.656c11.14,15.457,23.198,85.059,30.931,103.924c3.863,9.539,18.511,73.314,31.806,139.041
		c13.045,64.545,24.854,130.941,24.022,149.648c0,0-1.288,42.125-5.769,56.295c0,0,4.481-1.287,10.308-5.822
		c0,0,1.236,14.232,7.733,20.619c6.394,6.496,60.677,0.824,64.179-0.203c24.39-6.863-18.658-30.063-28.348-39.078
		c-9.697-9.021-17.165-100.525-8.814-148.879c8.402-48.303-21.241-146.926-16.084-173.941c5.15-27.117,9.69-97.951,9.69-97.951
		s3.811,22.537,3.811,30.936c0,0,69.595-29.021,82.485-54.795c12.89-25.781,48.971-26.451,63.201-32.84
		c0,0-3.245,9.635-11.39,16.959c0,0,52.378-17.629,76.04-36.549c0,0-3.046,12.063-7.733,17.217c0,0,70.006-35.262,87.635-56.297
		c0,0,2.995,6.857,1.7,12.891c0,0,19.328-20,23.868-32.221c0,0,6.394,4.484,7.056,12.221c0,0,9.653-22.537,11.61-32.172
		c0,0,3.193,6.398,10.308,12.221c0,0,7.733-30.264,17.43-54.133c0,0,2.575,19.951,6.386,28.354c0,0,13.56-43.148,24.545-56.705
		c0,0,2.575,32.219,5.15,37.986c0,0,35.419-58.606,61.861-74.074c0,0-6.497,20.623-5.15,26.445c0,0,48.302-66.396,69.595-77.992
		c21.233-11.604,59.897-12.221,66.342-21.918c6.445-9.685,11.809-33.918,4.076-35.004c-7.732-1.076-26.663-8.807-28.974-12.467
		c0,0,38.458-25.986,40.363-32.435C1786.657,625.284,1783.868,593.272,1777.423,582.755 M1551.27,576.313
		c5.981,1.287,21.241-2.17,26.847,5.356c5.577,7.527,13.508,11.809,13.508,11.809C1541.167,607.655,1551.27,576.313,1551.27,576.313
		"/>
	<path class="st0" d="M1654.576,335.308c-9.175,31.76-82.632,105.01-112.069,129.497c-0.824,0.724-1.597,1.341-2.377,1.96
		c-8.659,7.016-12.883,14.283-14.582,20.883c-3.664,14.48,4.687,26.127,4.687,26.127l-0.052,0.107
		c-0.824,1.754-14.281,28.668-43.306,37.844l-12.574,2.887c0,0-9.072-35.209-239.714-74.182c-11.654-1.965-23.868-3.969-36.655-5.93
		c0,0-0.051-0.053-0.206-0.103c-2.119-0.928-21.138-7.891-132.802-11.5c-119.802-3.862-142.382,5.154-214.559,112.125
		c-9.793,14.537-19.74,27.27-29.585,38.406c-62.641,70.988-121.869,78.205-121.869,78.205
		c24.383-15.877,58.455-45.877,86.193-75.469c44.182-47.225,72.118-93.514,18.246-80.42
		c-85.472,20.717-135.473-15.572-137.85-17.371c132.751,37.941,238.375-56.146,221.57-69.654
		c-16.701-13.5-75.37,1.957-125.629-19.332c-50.266-21.285-66.357-88.307-75.421-97.274c-8.608-8.715-32.064-0.725-34.021-0.051
		c1.7-1.596,21.285-19.184,38.56-15.418c18.041,3.815,29.644,31.549,38.046,8.969c8.042-21.701,25.052-45.777,26.339-47.525
		c-1.03,2.373-22.786,53.199-8.969,98.461c14.178,46.397,86.347,41.242,94.08,30.316c7.733-10.984-7.115-41.248-3.863-61.869
		c3.142-20.049-8.351-105.881-8.976-110.623c1.449,4.537,24.596,77.941,28.922,123.514c4.539,47.015,39.333,28.353,53.511,19.951
		c14.178-8.399,3.201-32.215-16.083-113.108c-19.38-80.889,26.398-140.781,52.172-158.207
		c25.773-17.375,52.841-90.832,52.841-90.832s-16.753,80.516-47.065,112.794c-30.262,32.163-50.215,119.187,5.15,191.357
		c55.468,72.178,146.612,80.523,146.612,80.523c4.849,12.582,15.156,16.139,15.156,16.139
		c-66.291-153.211-38.664-230.074-38.664-230.074c-3.193,72.838,63.157,199.141,81.19,224.252
		c8.564,11.905,43.365,25.824,85.222,36.234c10.668,2.631,21.756,5.051,33.042,7.166c37.84,7.115,77.224,10.574,105.992,6.91
		c20.255-2.576,35.161-18.916,46.028-40.934c27.384-54.953,30.011-145.322,30.011-145.322c2.892,2.785,5.364,5.927,7.372,9.326
		c10.882,17.584,12.118,42.846,9.072,67.736c-3.767,31.395-14.281,62.227-21.028,76.352c-1.192,2.426-2.273,4.387-3.149,5.725
		c-10.926,16.801-19.328,41.912,15.465,35.471c9.072-1.656,18.254-6.809,27.12-13.719c6.497-4.951,12.832-10.877,18.916-17.109
		c17.842-18.095,33.874-38.719,45.727-46.498c21.499-14.182,64.187-54.133,77.063-71.561c12.383-16.648,1.397-31.184,0.471-32.371
		C1639.574,288.81,1663.758,303.554,1654.576,335.308"/>
	<path class="st1" d="M1844.031,359.794c0,0-25.773-15.465-67.689-9.018c-41.187,6.344-112.378,83.877-114.6,86.297
		c2.17-1.141,70.838-37.686,86.509-61.402c0,0,12.007-11.026,22.94-12.011c0,0-15.465,68.312-111.149,100.215
		c-93.977,31.299-35.934,65.475-33.866,66.711c-27.782-5.828-51.966-11.854-59.235-14.844c-9.741-4.076-17.68-5.83-22.227-6.549
		l-2.465-3.766c-0.059-0.053-4.437-6.695-2.583-14.119c1.192-4.545,4.429-8.973,9.594-13.152c0.927-0.717,1.854-1.494,2.575-2.111
		c1.442-1.191,3.142-2.682,5.106-4.385c7.115,1.961,14.376,1.913,21.594-1.031c33.514-13.555,135.326-145.016,180.435-143.051
		C1804.08,329.532,1838.866,330.773,1844.031,359.794"/>
	<path class="st1" d="M1506.006,426.813c-0.463,0.516-0.979,0.982-1.441,1.494c-6.394,6.543-12.066,11.697-17.423,15.773
		c-0.831,0.674-1.655,1.291-2.479,1.81c-4.79-3.867-9.896-7.476-15.156-10.676c0.103-0.258,0.206-0.512,0.36-0.77
		c5.003-10.418,10.83-26.604,15.466-44.806c1.913,6.907,3.973,12.327,6.239,15.884
		C1495.853,412.124,1500.694,419.437,1506.006,426.813"/>
	<path class="st1" d="M1485.332,389.644c-4.636,18.201-10.463,34.385-15.466,44.799c-0.154,0.254-0.258,0.52-0.36,0.778
		c-4.172-2.631-8.454-5.004-12.832-7.069c6.747-14.125,17.268-44.949,21.028-76.344
		C1480.027,366.597,1482.499,379.642,1485.332,389.644"/>
	<path class="st1" d="M1424.654,398.663c-2.016,5.205-4.171,10.209-6.489,14.902c-0.985,2.014-2.016,3.918-3.046,5.774
		c-1.604,0.05-3.193,0.201-4.79,0.414c-69.602,8.965-65.68-6.496-88.878,3.813c0,0-9.432,7.779-24.795,18.713
		c-4.848-0.77-9.748-1.652-14.744-2.574c-6.497-1.236-13.045-2.586-19.593-4.025c4.23-3.193,8.049-6.396,11.396-9.538
		c40.621-37.995,61.862-36.708,42.578-66.343c-19.38-29.641-100.533-188.838-89.592-241.626c0,0,47.014,176.518,140.476,255.185
		C1394.386,396.247,1412.588,402.273,1424.654,398.663"/>
	<path class="st1" d="M1465.334,258.341l-17.739-17.064l-0.927,33.045c0,0.203-0.206,5.054-0.772,13.04
		c-0.875-33.248-2.575-86.912-18.144-110.574c-18.048-27.48-53.769-112.385-55.932-117.639c3.142,5.355,49.59,85.008,72.008,110.578
		C1453.319,180.548,1459.765,216.997,1465.334,258.341"/>
	<path class="st1" d="M1211.494,491.407c-29.747,12.939-61.244,21.346-88.518,17.217c0,0,23.816-9.582,53.408-23.76
		c0,0,0,0.051,0.052,0c7.372,1.029,11.551,1.904,13.611,2.416l0.92,0.936l4.753,0.713
		C1201.076,489.761,1206.329,490.581,1211.494,491.407"/>
	<path class="st1" d="M642.459,1034.556c-4.326,3.715-8.969,8.869-13.758,16.035c-20.623,30.924-73.465,105.006-107.64,162.387
		c-34.131,57.381-37.325,116.664-18.048,164.965c19.379,48.303,17.422,70.266,30.313,77.332
		c12.89,7.059,21.241,12.883,33.513,26.441c12.265,13.51-45.109,10.934-52.172,9.639c-6.401-1.184-16.496-26.957-18.409-31.961
		c0.567,2.223,1.45,8.402-5.047,14.594c-8.145,7.729-1.081-14.232-2.995-21.293c-1.494-5.469-48.971-110.424-70.058-156.775
		c1.545-2.109,3.142-4.375,4.9-6.795c39.642-55.162,145.531-205.385,171.561-246.115c3.201-5.047,9.064-10.818,25.935-10.818
		C626.736,1032.19,633.852,1032.958,642.459,1034.556"/>
	<path class="st1" d="M1126.795,1440.938v-0.053c-6.857-7.324-17.327-15.256-23.824-21.291c-9.69-8.967-4.79-57.371,5.981-102.74
		c-1.802-9.127-3.657-18.662-5.672-28.563c-14.737-72.996-28.246-129.551-31.034-136.404c-3.45-8.453-7.159-23.867-11.492-41.752
		c-1.854-7.635-4.23-17.332-6.703-26.709l-0.979,0.104c2.781,10.625,5.054,26.189,1.802,43.096
		c-6.033,30.936,8.557,182.135,8.557,218.223c0,36.09-15.208,91.086-15.208,91.086s11.809-5.154,15.208-9.432
		c0,0-2.575,12.891,5.15,24.9c6.71,10.412,41.504,12.475,57.072,7.836c2.428-0.725,4.385-1.652,5.673-2.682
		C1135.815,1452.948,1132.666,1447.229,1126.795,1440.938"/>
	<path class="st1" d="M1870.378,943.753c0,358.246-217.509,666.69-527.458,799.967l66.07-118.963
		c230.922-139.156,385.598-392.297,385.598-681.004c0-52.588-5.128-103.969-14.995-153.693
		c18.607-5.728,38.421-15.596,52.437-36.691c3.768-5.652,8.057-13.789,11.758-23.504
		C1861.188,798.347,1870.378,869.995,1870.378,943.753"/>
	<path class="st1" d="M861.874,84.345c-17.415,22.602-32.851,51.535-41.364,85.287c-351.989,81.518-615.085,397.725-615.085,774.125
		c0,93.047,16.054,182.398,45.66,265.424c-4.223,12.432-5.65,25.539-4.819,44.451c0.147,2.787,0.302,6.176,0.375,10.473
		c0.301,14.164,1.81,38.273,3.613,66.225c1.059,16.572,2.486,39.477,3.546,61.174c-78.887-130.941-124.238-284.109-124.238-447.746
		C129.563,510.851,447.339,150.647,861.874,84.345"/>
	<path class="st1" d="M692.88,1758.185c-100.201-37.895-191.588-93.797-270.32-163.715c17.18-3.84,37.14-12.732,51.156-33.676
		c3.237-4.822,5.879-10.02,7.909-15.295c45.881,39.553,96.287,73.986,150.379,102.313L692.88,1758.185z"/>
	<path class="st1" d="M1159.918,165.413c-1.884-0.375-3.693-0.75-5.577-1.129c-22.146-4.443-44.674-7.91-67.505-10.322
		c-19.137-2.186-38.501-3.617-58.014-4.221c14.318-23.883,24.788-51.23,31.946-74.207c8.741,0.525,17.408,1.279,26.067,2.186
		c22.227,2.186,44.226,5.197,65.923,9.039C1150.574,108.456,1153.664,135.958,1159.918,165.413"/>
	<polygon class="st0" points="833.188,1897.767 777.05,1991.929 686.553,1991.929 785.319,1820.716 	"/>
	<polygon class="st0" points="1008.251,1991.929 922.64,1991.929 849.808,1869.499 801.947,1792.448 691.836,1592.716 
		782.671,1592.716 849.543,1713.87 892.915,1792.448 	"/>
	<polygon class="st0" points="1002.961,1592.712 909.366,1761.452 865.994,1682.874 912.53,1592.712 	"/>
	<polygon class="st0" points="1168.453,1897.767 1112.315,1991.929 1021.818,1991.929 1120.585,1820.716 	"/>
	<polygon class="st0" points="1343.517,1991.929 1257.905,1991.929 1185.073,1869.499 1137.213,1792.448 1027.101,1592.716 
		1117.937,1592.716 1184.809,1713.87 1228.181,1792.448 	"/>
	<polygon class="st0" points="1338.227,1592.712 1244.632,1761.452 1201.26,1682.874 1247.796,1592.712 	"/>
</g>
</svg>
