<?xml version="1.0" encoding="utf-8"?>
<!-- Generator: Adobe Illustrator 19.0.0, SVG Export Plug-In . SVG Version: 6.00 Build 0)  -->
<svg version="1.1" id="Layer_1" xmlns="http://www.w3.org/2000/svg" xmlns:xlink="http://www.w3.org/1999/xlink" x="0px" y="0px"
	 viewBox="0 0 2000 2000" style="enable-background:new 0 0 2000 2000;" xml:space="preserve">
<style type="text/css">
	.st0{fill:#039A72;}
	.st1{fill:#048461;}
	.st2{fill:#04674B;}
	.st3{fill:#045E44;}
</style>
<g id="XMLID_2_">
	<path id="XMLID_32_" class="st0" d="M1528.209,1446.587c-3.945,5.116-35.04,17.042-47.864,12.816
		c-12.742-4.294-123.534,8.049-134.251-17.939c-10.629-25.964,11.396-37.759-8.175-57.132
		c-19.631-19.283-135.272-113.86-152.855-155.916c0,0-61.501,19.158-98.796,4.429c12.948-24.546,23.932-53.121,32.727-85.028
		c8.322-30.266,22.292-54.537,40.503-70.081l3.881-3.35c34.493,13.646,61.915,26.327,67.295,34.295
		c14.931,21.694,35.049,48.692,35.049,48.692s15.95-2.261,34.693,51.745c18.752,53.933,98.25,155.104,136.913,174.407
		c38.655,19.293,69.329,40.896,81.257,46.557C1530.531,1435.812,1532.23,1441.464,1528.209,1446.587"/>
	<path id="XMLID_31_" class="st1" d="M1077.405,1082.31l0.273,0.806C1077.679,1083.115,1076.585,1083.396,1077.405,1082.31"/>
	<path id="XMLID_30_" class="st1" d="M1103.385,1051.763c-9.89,6.466-16.777,11.183-21.611,14.655l-9.756-25.905
		C1082.187,1044.12,1092.75,1047.867,1103.385,1051.763"/>
	<path id="XMLID_29_" class="st0" d="M1153.223,1070.374c-15.137,12.956-32.794,35.661-43.563,74.922
		c-10.304,37.643-22.3,64.916-32.049,83.313c-10.502,19.78-18.543,29.321-19.431,30.423l-0.073,0.065
		c0,0-52.906-13.236-64.769-40.917c-2.653-6.127-12.069-15.204-25.64-26.244c-47.377-38.516-145.014-101.244-179.781-149.309
		l-2.453,287.034l-0.207,25.225l-0.747,84.888c0,0-227.519,17.864-323.855-59.663c0,0,138.065-369.872,178.155-402.26
		c0,0,3.681-17.051,0.266-31.226c-3.192-13.431-103.356-344.78-112.219-424.073c14.11,8.391,31.227,15.884,52.292,22.772l0.34,0.2
		l0.621,0.207c31.966,10.437,66.136,17.392,98.449,23.592l6.341,1.227c19.565,3.674,41.649,7.769,46.358,10.563
		c5.728,6.142,11.662,9.202,17.664,9.202c1.435,0,2.794-0.199,4.021-0.539c17.31,13.636,36.261,20.524,56.321,20.524
		c13.909,0,24.951-3.34,31.759-6.142c7.635-3.141,12.004-7.701,13.09-13.429c0.206-0.954,0.28-1.841,0.28-2.72
		c2.107-2.528,3.274-5.19,3.888-7.444c5.787,1.162,12.609,2.396,18.951,3.215l60.133,164.585
		c-18.751-0.954-29.593-1.775-29.593-1.775s-20.726,138.945-41.997,171.607c0,0,16.157,0,13.63,39.468
		c0,0,30.349,11.258,35.936,26.602c0,0,14.043,5.919,21.271,18.336c0,0,20.045-6.002,59.247,10.223
		c8.736,3.687,24.554,9.274,43.91,16.231l19.697,53.998c-16.97,14.725-40.695,37.082-43.282,49.092
		c-1.027,4.768,0.88,8.041,2.107,9.542c1.988,2.455,4.982,3.822,8.257,3.822c6.681,0,13.569-5.181,41.714-27.281
		c18.08-14.11,40.57-31.7,65.87-49.284c1.848-1.3,3.614-2.528,5.454-3.82C1144.229,1066.9,1148.788,1068.599,1153.223,1070.374"/>
	<path id="XMLID_28_" class="st0" d="M1412.776,594.549c0,2.321-1.359,4.775-4.967,7.429c-0.887,0.68-2.188,1.234-3.754,1.633
		h-0.074c-0.059,0-0.133,0.075-0.199,0.075c-1.16,0.34-2.454,0.612-3.954,0.879c-12.004,1.989-31.981,0.887-38.315,2.121
		c0,0,0.813,28.567-12.61,43.704c-8.396,9.401-9.689,16.431-9.481,20.377c0.066,2.461,0.745,3.688,0.745,3.688
		s-4.22,0.547-9.881,0.954c-6.822,0.68-15.685,1.227-21.826,0.746c0,0,12.831,3.282,19.919,3.407c0,0,0.953,26.667-15.277,41.531
		c0,0-106.765-7.443-135.257-2.735c-28.574,4.701-82.233,8.522-108.279,5.935c0,0-11.448,26.859-67.77,26.047
		c-14.39-0.207-27.539-0.547-39.202-0.954l-1.427-3.829l-61.508-163.357c2.247-1.219,4.227-3.127,5.454-6.067
		c0.207-0.467,0.34-0.881,0.48-1.354l20.317,1.162l-18.204,23.317l52.026-10.369c3.88,2.04,7.436,4.161,10.155,6.274
		c0,0,24.686-5.927,37.503,11.116c0,0,43.43-15.35,61.767,5.927c0,0,10.636-5.927,24.272-4.634c0,0,79.292,4.221,128.724,12.743
		c49.424,8.521,99.27,2.121,103.091-10.63c1.087-3.555,2.587-7.094,4.494-10.294c2.181-3.549,4.841-6.749,7.974-9.204
		c4.154-3.207,9.135-5.114,14.798-4.774c2.926,0.2,6.961,0.2,11.522,0.2c4.235,0.072,8.928,0,13.71,0.072l26.578,1.494l2.527,0.14
		c1.168,0.274,1.982,0.689,2.389,1.029c0.953,0.812,1.773,1.69,2.313,2.645c0.34,0.555,0.621,1.035,0.82,1.574
		c0,0.074,0.066,0.074,0,0.142C1412.643,593.257,1412.776,593.937,1412.776,594.549"/>
	<path id="XMLID_27_" class="st1" d="M1406.848,587.32l-2.52-0.14l-26.586-1.494c9.882,0.067,19.838,0.267,25.905,1.089
		c1.087,0.132,1.974,0.273,2.787,0.472C1406.574,587.247,1406.715,587.32,1406.848,587.32"/>
	<path id="XMLID_26_" class="st0" d="M936.952,1180.418c-28.366-11.463-51.878-22.778-51.878-22.778
		c-24.679,23.864-46.439,25.158-46.439,25.158c-2.106,28.152-27.605,89.521-43.282,124.97l1.966-239.102
		c29.114,30.266,73.704,63.135,114,92.721C920.248,1167.944,928.91,1174.271,936.952,1180.418"/>
	<path id="XMLID_25_" class="st2" d="M1062.475,1268.366c-51.678,66.202-156.129,79.358-156.129,79.358l-10.223-33.268
		c-28.846,38.184-73.098,42.884-101.183,41.251v-0.754l0.206-21.679l9.062-21.611c17.384-39.351,38.256-90.615,43.164-120.689
		c8.722-2.24,23.378-7.836,39.469-21.803c8.803,4.087,26.593,12.135,46.505,20.177l34.088,14.997
		c13.229,11.248,16.29,16.016,17.043,17.664c13.363,31.145,65.382,44.99,71.316,46.497l5.316,1.227L1062.475,1268.366z"/>
	<path id="XMLID_24_" class="st0" d="M894.55,557.868c-0.141,0.065-0.34,0.2-0.54,0.272c0,0,1.768,2.72,2.587,6.409
		c0.267,1.159,0.407,2.453,0.407,3.819c0,1.501-0.348,2.92-0.887,4.361c-0.747,1.768-4.428,2.32-9.543,2.107
		c-0.754,0-1.5,0-2.32-0.067c-14.59-1.011-37.222-6.541-37.222-6.541s7.088,9.889-3.681,16.705c0,0,5.646,5.453-6.002,10.296
		c-11.662,4.766-46.911,15.002-83.254-17.045c0,0-5.38,7.628-16.155-4.027c-4.229-4.56-27.208-8.581-57.606-14.309
		c-28.914-5.604-64.569-12.685-97.223-23.32c-0.207-0.067-0.34-0.132-0.481-0.215c-20.799-6.806-40.297-15.054-56.047-25.35
		c-0.066,0-0.207-0.067-0.266-0.148c0,0-8.115-71.576,26.378-76.285c34.495-4.633,75.885,9.006,97.569,20.867
		c4.155,2.313,11.582,6.466,20.858,11.722c39.409,22.15,112.492,63.747,112.492,63.747s9.409,1.701,23.867-5.105
		c6.001-2.803,15.815-1.576,26.319,0.739c0.059,0.065,0.059,0.065,0.059,0c14.871,3.415,31.161,8.935,40.17,8.181
		c4.295-0.332,9.476,0.555,14.243,2.247c0.68,0.28,1.293,0.487,1.907,0.762C901.297,542.316,908.939,551.252,894.55,557.868"/>
	<path id="XMLID_21_" class="st0" d="M860.602,404.053c-17.25-31.494-71.796-61.568-103.57-58.154
		c-30.681,3.268-84.133,3.607-85.907,110.172c1.508,0.827,3.135,1.716,4.774,2.668c35.655,20.038,98.923,55.965,110.586,62.647
		h0.141c2.786,0,8.655-0.539,16.763-4.353c3.614-1.714,7.908-2.528,13.164-2.528c2.313,0,4.841,0.14,7.634,0.474v-0.614
		l10.504,2.395l-2.32-11.39c0,0,14.25-5.107,15.75-6.341c1.5-1.302,2.653-4.087,2.446-4.841c-0.2-0.747-12.262-26.802-12.403-29.993
		c-0.065-3.208,6.416-7.021,7.909-9.757c1.501-2.652,5.056-16.091,1.708-23.725c1.16,2.038,7.295,13.776,2.993,30.481
		C850.772,461.193,877.846,435.626,860.602,404.053 M813.624,467.193c0,0-9.682-8.943-10.376-11.596
		c-0.665-2.735,10.783,0.273,10.783,0.273S816.078,461.393,813.624,467.193"/>
	<path id="XMLID_20_" class="st2" d="M1462.688,448.378c-31.566-4.437-44.109,12.194-41.59,18.128
		c2.587,5.935-3.133,15.344-18.677,39.195c-15.618,23.874-2.181,22.78-2.181,22.78c-14.863,13.91-0.827,18.958-0.827,18.958
		c-2.72,3.332-2.927,8.181-2.114,12.809c1.367,7.782,5.529,15.35,5.529,15.35c0.413,0.539,0.819,1.154,1.16,1.841l-25.699-1.367
		l-13.71-0.814l-1.634-0.073c-0.273-1.294-0.614-2.587-1.02-3.896c-11.53-37.901-3.828-66.394,6.408-80.917
		c10.223-14.524,5.041-39.623,9.336-54.952c4.294-15.343,27.679-10.23,27.679-10.23c11.929-75.005-40.91-157.297-96.742-209.241
		c-55.772-51.952-135.892-136.366-135.892-136.366L895.304,529.441c-0.407-0.208-0.747-0.421-1.168-0.547
		c-0.14-0.065-0.48-0.213-0.82-0.34c42.417-70.295,272.31-452.039,269.375-454.484c-3.192-2.795-1.907-10.703-13.422-25.16
		C1137.738,34.453,1129.697,11,1129.697,11c39.616,28.981,34.916,35.788,39.616,48.132
		c4.701,12.342,144.474,144.467,199.019,205.841c54.539,61.361,50.245,148.495,50.245,148.495
		c12.129-24.272,36.002-32.595,36.002-32.595c-10.843,6.342-15.137,31.982-15.137,42.81
		C1439.443,434.531,1494.189,452.87,1462.688,448.378"/>
	<path id="XMLID_19_" class="st2" d="M1402.96,819.062c-19.024,23.318-14.797,12.477-7.36-6.269
		c7.36-18.757-9.684-35.188-9.684-35.188s-1.707,32.934-31.22,98.869c-29.594,65.862-142.914,129.188-209.995,173.515
		c-5.455,3.607-10.843,7.294-16.156,11.041c-59.389,41.324-105.206,84.059-102.892,73.091c2.594-11.93,45.211-48.07,45.211-48.07
		l-19.299-52.833l-103.77-284.446l-59.993-164.244h0.68c0.473,0,1.02,0,1.7-0.067l61.915,164.511l107.991,287.241l17.317,46.09
		c-0.82,1.094,0.273,0.821,0.273,0.821l-0.273-0.821c1.427-1.914,8.655-7.833,37.362-26.377
		c21.346-13.778,54.546-34.569,106.084-65.738c161.111-97.554,146.994-211.347,146.994-211.347
		c-32.795-10.231-13.489-34.229-16.564-40.497c-3.134-6.207,4.228-30.953-4.834-42.011c-3.556-4.286-5.263-8.588-6.075-12.194
		c0.68,0,1.02-0.067,1.02-0.067l9.002-1.988l-1.359-11.515c0.06,0,0.06-0.067,0-0.267c0-1.234,0.266-5.876,7.088-13.504
		c10.769-12.135,13.91-30.134,14.73-41.109c1.773,0,3.606-0.081,5.388-0.081c6.401-0.127,13.489-0.192,19.831-0.873
		c-0.059,0.267-0.199,0.406-0.267,0.614c-0.613,1.146-0.206,2.652,1.094,3.881c0.681,0.745,1.7,1.359,2.928,1.698
		c-0.059,0.34-0.141,0.614-0.2,0.954c-2.934,2.94-7.295,8.183-6.201,12.417c0.34,1.501,0.945,2.595,1.7,3.407
		c0.208,0.199,0.474,0.414,0.68,0.606c-0.273,1.227-0.547,2.453-0.753,3.68c-0.474,2.196-0.887,4.236-1.287,6.15
		c-1.301,6.682-2.188,12.062-2.188,14.657c0,10.488-3.681,18.479-3.681,18.479c-1.16,8.795-4.834,13.361-4.834,13.361
		s11.649,48.265,13.356,56.24C1398.119,758.86,1421.984,795.75,1402.96,819.062"/>
	<path id="XMLID_18_" class="st1" d="M1077.679,1083.123c0,0-1.094,0.265-0.273-0.813L1077.679,1083.123z"/>
	<path id="XMLID_17_" class="st2" d="M1331.311,582.961c-2.246,1.833-4.434,4.012-6.341,6.467l-323.375-18.818l-56.66,11.323
		l-13.57,2.728l4.835-6.208l8.735-11.109h-0.074l-38.374-2.246c-0.141-0.954-0.281-1.849-0.481-2.662c0-0.133,0-0.272-0.066-0.413
		c1.286-1.086,2.313-2.247,3.06-3.334l34.021,1.974l-12.809-15.477l70.488,18.818L1331.311,582.961z"/>
	<path id="XMLID_16_" class="st2" d="M1583.909,614.801l0.82-10.236l-162.331-9.409c0.06-0.199,0.06-0.399,0.06-0.612
		c0-2.04-0.474-4.088-1.02-5.39c-0.132-0.34-0.266-0.68-0.473-0.952h0.547l163.905,9.409l0.946-9.261l18.004,13.635
		L1583.909,614.801z"/>
	<path id="XMLID_15_" class="st2" d="M1417.965,578.253l-10.569-0.614l-3.415-0.2c-0.34-0.687-0.739-1.301-1.152-1.846
		c0,0-4.162-7.571-5.529-15.339C1400.166,562.162,1411.83,570.345,1417.965,578.253"/>
	<path id="XMLID_14_" class="st3" d="M1416.258,607.505c-0.407,2.587-1.087,5.115-2.247,7.295c-0.067,0.127-0.208,0.34-0.273,0.467
		c-1.095,1.986-2.528,3.555-4.509,4.434c-3.533,1.714-6.534,1.906-8.789,1.367c-0.207,0-0.406-0.065-0.612-0.141
		c-1.228-0.339-2.247-0.954-2.928-1.698c-1.3-1.229-1.707-2.735-1.094-3.881c0.073-0.208,0.207-0.355,0.267-0.614
		c1.914-0.141,3.755-0.421,5.454-0.695c1.302-0.192,2.528-0.465,3.622-0.68l0.953-0.06l1.16-0.553
		c2.588-0.738,4.701-1.768,6.268-2.994C1414.55,608.998,1415.437,608.252,1416.258,607.505"/>
	<path id="XMLID_13_" class="st3" d="M1410.943,633.752c0,2.38-0.074,8.722-2.388,11.729c-2.86,3.747-6.482,7.021-9.897,6.807
		c-2.039-0.125-3.945-2.032-4.901-4.153c0.408-1.914,0.821-3.947,1.295-6.135c0.206-1.227,0.473-2.453,0.753-3.68
		c2.321,1.841,5.455,1.227,7.022,0.14C1404.602,637.151,1407.669,636.347,1410.943,633.752"/>
	<path id="XMLID_12_" class="st3" d="M1410.943,633.752c-3.274,2.595-6.342,3.399-8.115,4.708c-1.567,1.087-4.701,1.701-7.022-0.14
		c-0.206-0.208-0.479-0.407-0.68-0.622c-0.755-0.804-1.368-1.898-1.707-3.407c-1.087-4.221,3.274-9.474,6.2-12.401
		c0.074-0.34,0.142-0.614,0.208-0.954c0.206,0.06,0.413,0.127,0.612,0.127c2.255,0.545,5.256,0.353,8.797-1.354
		c1.973-0.894,3.414-2.461,4.501-4.435C1414.276,617.588,1416.397,628.097,1410.943,633.752"/>
	<path id="XMLID_11_" class="st2" d="M1866.574,924.672c0,322.644-175.598,605.021-436.252,756.546v-89.69
		c216.766-142.738,360.109-388.409,360.109-666.855c0-261.414-126.396-493.924-321.283-639.616
		c-10.141-23.762-24.443-48.056-44.273-70.386c-22.328-25.205-57.215-60.548-91.879-95.212
		C1646.327,252.587,1866.574,563.433,1866.574,924.672"/>
	<path id="XMLID_10_" class="st2" d="M1075.964,74.964c-8.249,14.228-18.84,32.38-31.25,53.356
		c-17.339-1.212-34.893-1.819-52.528-1.819c-440.183,0-798.245,358.061-798.245,798.17c0,253.7,118.975,480.148,304.025,626.359
		l78.708,142.892c-273.064-148.028-458.876-437.375-458.876-769.251c0-482.121,392.2-874.393,874.388-874.393
		c24.598,0,48.893,0.99,72.957,3.104C1068.026,59.827,1071.573,67.306,1075.964,74.964"/>
	<polygon id="XMLID_9_" class="st0" points="746.025,1883.067 689.631,1977.658 598.729,1977.658 697.954,1805.67 	"/>
	<polygon id="XMLID_8_" class="st0" points="921.889,1977.658 835.894,1977.658 762.73,1854.671 714.658,1777.271 604.028,1576.626 
		695.286,1576.626 762.463,1698.336 806.034,1777.271 	"/>
	<polygon id="XMLID_7_" class="st0" points="916.583,1576.626 822.561,1746.126 778.989,1667.196 825.739,1576.626 	"/>
	<polygon id="XMLID_6_" class="st0" points="1082.823,1883.067 1026.429,1977.658 935.526,1977.658 1034.751,1805.67 	"/>
	<polygon id="XMLID_5_" class="st0" points="1258.687,1977.658 1172.691,1977.658 1099.527,1854.671 1051.455,1777.271 
		940.825,1576.626 1032.083,1576.626 1099.26,1698.336 1142.831,1777.271 	"/>
	<polygon id="XMLID_4_" class="st0" points="1253.38,1576.626 1159.357,1746.126 1115.787,1667.196 1162.536,1576.626 	"/>
	<rect id="XMLID_3_" x="1279.818" y="1576.626" class="st0" width="75.249" height="401.032"/>
</g>
</svg>
