<?xml version="1.0" encoding="utf-8"?>
<!-- Generator: Adobe Illustrator 19.0.0, SVG Export Plug-In . SVG Version: 6.00 Build 0)  -->
<svg version="1.1" id="Layer_1" xmlns="http://www.w3.org/2000/svg" xmlns:xlink="http://www.w3.org/1999/xlink" x="0px" y="0px"
	 viewBox="0 0 2000 2000" style="enable-background:new 0 0 2000 2000;" xml:space="preserve">
<style type="text/css">
	.st0{fill:#955F60;}
	.st1{fill:#666767;}
	.st2{fill:#684342;}
</style>
<g id="XMLID_2_">
	<path id="XMLID_31_" class="st0" d="M1381.023,1145.636c16.472,8.779,41.63,6.224,41.63,6.224l1.613-20.949l-9.225-15.941
		c-0.047,0-1.882-2.647-4.832-2.647c-1.704,0-3.849,0.726-6.273,2.065c-5.675,3.274-10.919,4.839-15.938,4.839
		c-1.472,0-2.903-0.143-4.337-0.4L1381.023,1145.636z"/>
	<path id="XMLID_30_" class="st0" d="M1325.646,1138.836c20.545,27.218,53.72,23.86,53.72,23.86l1.658-17.061l2.643-26.81
		c-0.944-0.182-1.883-0.417-2.828-0.728c-7.745-2.638-11.81-8.771-14.459-12.795c-0.311-0.454-0.712-1.081-1.066-1.565
		c-1.078-0.144-2.513-0.235-4.215-0.235c-9.035,0-14.86,2.684-15.974,4.522l-7.08,14.595l-11.104-10.7
		C1321.707,1121.994,1320.14,1131.538,1325.646,1138.836"/>
	<path id="XMLID_29_" class="st0" d="M1194.521,1090.48c3.399,5.242,12.49,9.22,20.329,15.496
		c6.037,4.832,18.036,8.146,29.535,9.211c13.39,1.262,26.152-0.529,27.939-6.571c0.488-1.61,0.762-3.221,0.9-4.795
		c-4.439-1.526-8.514-3.624-11.639-6.36c-2.465-0.438-7.527-0.802-14.999-1.111l-5.688-0.19
		C1223.843,1095.532,1206.338,1094.958,1194.521,1090.48"/>
	<path id="XMLID_28_" class="st0" d="M1131.847,1081.754c0,10.3,5.011,19.429,9.037,22.469c7.08,5.286,32.595-3.305,42.044-8.319
		l-12.313-18.982c-7.342-3.638-16.246-7.479-25.79-11.063c-2.189-0.848-4.428-1.656-6.667-2.414
		c-0.627,0.801-1.205,1.656-1.749,2.511c-0.44,0.62-0.851,1.295-1.161,1.967c-0.356,0.673-0.712,1.384-0.982,2.05
		c-1.388,3.19-2.1,6.413-2.33,9.543C1131.893,1080.279,1131.847,1081.028,1131.847,1081.754"/>
	<path id="XMLID_27_" class="st0" d="M1096.703,1242.875c0.448,0.045,0.945,0.045,1.388,0.045l5.457,0.122l3.721,3.772
		c0.445,0.44,1.702,1.701,3.584,3.389c5.41,4.758,14.14,11.382,24.844,15.994c3.491,1.469,6.667,2.595,9.718,3.351l3.444,0.9
		l2.512,2.511l0.037,0.044c1.479-1.346,3.222-2.864,5.29-4.612c0.443-0.363,0.937-0.772,1.426-1.211
		c0.495-0.4,0.989-0.816,1.523-1.254c3.99-3.313,6.406-7.881,7.698-13.069c1.302-4.93,1.611-10.397,1.34-15.804
		c-0.621-13.031-4.469-25.789-5.948-30.138c-2.816-8.139-17.912-12.033-27.136-11.497c-2.052,0.138-4.426,1.25-7.021,3.004
		c-6.938,4.645-15.266,13.953-21.621,21.743c-2.06,2.555-3.944,4.937-5.509,6.904c-0.852,1.119-1.607,2.328-2.189,3.63
		c-0.272,0.536-0.495,1.112-0.724,1.685c-0.399,1.083-0.708,2.164-0.933,3.23c-0.188,0.59-0.272,1.173-0.367,1.702
		c-0.177,0.891-0.26,1.753-0.354,2.646c-0.038,0.529-0.084,1.027-0.134,1.558
		C1096.748,1241.975,1096.703,1242.413,1096.703,1242.875"/>
	<path id="XMLID_26_" class="st0" d="M1161.168,1281.284c8.55,6.489,21.799,14.764,36.134,17.003
		c2.499,0.354,4.869,0.582,7.108,0.582h3.315l2.863,1.61c0.047-0.039,0.047-0.13,0.096-0.176c0.31-0.664,0.576-1.392,0.849-2.064
		c0.451-1.02,0.806-2.05,1.161-3.078c0.359-1.165,0.722-2.285,0.984-3.448c0.095-0.271,0.181-0.546,0.227-0.817
		c0.318-1.194,0.576-2.405,0.76-3.621c0.223-1.158,0.363-2.368,0.445-3.541c0.095-0.354,0.095-0.703,0.133-1.112
		c0.094-1.126,0.141-2.282,0.141-3.447c0-1.119-0.047-2.246-0.141-3.358c-0.486-7.07-2.595-14.097-6.444-21.137
		c-0.71-1.375-1.516-2.768-2.415-4.159c-6.583-10.347-16.743-13.521-25.03-14.195v0.099c0.366,7.29-0.214,13.878-1.691,19.519
		c-2.063,8.235-6.05,14.899-11.912,19.739l-1.343,1.127c-0.624,0.529-1.207,1.028-1.523,1.247
		C1163.496,1279.259,1162.29,1280.34,1161.168,1281.284"/>
	<path id="XMLID_25_" class="st0" d="M1216.188,1242.382c0.317,0.401,0.584,0.803,0.851,1.242c1.118,1.753,2.147,3.493,2.905,4.976
		c4.663,8.5,7.35,17.371,7.979,26.189c0.084,1.483,0.131,2.911,0.131,4.386c0,1.519-0.047,3.003-0.181,4.788
		c-0.045,0.498-0.089,0.937-0.184,1.391c-0.084,1.347-0.262,2.724-0.489,4.023c-0.267,1.482-0.578,2.956-0.934,4.44
		c-0.093,0.393-0.235,0.854-0.367,1.299c-0.259,1.166-0.628,2.324-1.066,3.761l-0.139,0.446c-0.489,1.338-0.938,2.638-1.472,3.933
		c-0.271,0.544-0.449,1.127-0.724,1.71c5.151,1.434,11.69,2.638,19.03,2.638c1.882,0,3.754-0.091,5.682-0.219
		c5.06-0.445,10.115-1.574,15.041-3.313l4.082-1.443l2.856,0.899c0.541-1.694,1.122-3.396,1.797-5.059
		c0.312-0.848,0.672-1.701,1.021-2.504c0.673-1.656,1.44-3.318,2.247-4.975c0.4-0.795,0.804-1.656,1.255-2.451
		c4.205-8.205,9.438-16.078,14.814-23.413c1.385-1.891,2.462-3.774,3.267-5.598c5.729-13.083-2.154-23.95-12.222-24.941
		c-0.139,0-0.27-0.044-0.399-0.044c-11.688-1.203-38.91-6.663-49.426-5.823C1226.443,1229.125,1220.711,1235.713,1216.188,1242.382"
		/>
	<path id="XMLID_24_" class="st0" d="M1281.681,1306.173c1.574,0.173,3.228,0.265,4.926,0.265c1.976,0,3.802-0.174,5.412-0.445
		c5.822-0.946,7.657-3.267,8.24-4.022l9.531-11.912l3.634,4.159c0.938-1.52,2.013-3.223,3.128-5.097
		c0.59-0.9,1.167-1.884,1.751-2.868c1.255-2.017,2.51-4.121,3.755-6.366c0.672-1.112,1.3-2.239,1.928-3.349
		c1.928-3.412,3.813-6.899,5.46-10.34c0.317-0.582,0.591-1.165,0.852-1.754c3.044-6.398,5.378-12.485,5.918-17.227
		c0.085-0.401,0.085-0.764,0.133-1.073c0.132-1.793,0-3.32-0.451-4.577c-0.177-0.529-0.45-1.065-0.717-1.557
		c-0.36-0.728-0.808-1.444-1.389-2.147c-0.532-0.818-1.256-1.574-2.012-2.33c-0.36-0.409-0.811-0.816-1.257-1.165
		c-0.403-0.399-0.854-0.764-1.293-1.12c-0.723-0.582-1.525-1.163-2.333-1.709c-0.804-0.573-1.654-1.11-2.556-1.656
		c-3.71-2.236-7.922-4.121-12.217-5.541c-8.504-2.913-17.23-4.086-22.654-2.33c-0.805,0.271-1.516,0.529-2.189,0.847
		c7.021,1.875,13.157,6.541,16.922,12.985c4.967,8.461,5.329,18.928,1.028,28.791c-1.211,2.775-2.822,5.459-4.654,7.963
		c-5.909,8.107-10.435,15.224-13.97,22.075c-0.227,0.438-0.449,0.892-0.675,1.377l-0.263,0.498
		c-0.672,1.392-1.349,2.768-2.061,4.569c-0.223,0.58-0.494,1.162-0.851,2.147C1282.354,1304.199,1281.998,1305.19,1281.681,1306.173
		"/>
	<path id="XMLID_23_" class="st0" d="M1324.749,1299.996c1.34-0.674,2.998-1.709,4.974-3.225l17.771-14.058l1.472,12.349
		c15.807-16.554,42.221-45.744,39.842-54.026c-1.921-6.716-25.16-9.399-44.63-10.481c0.9,1.127,1.61,2.292,2.239,3.532
		c0.441,0.862,1.031,2.026,1.432,3.23c1.029,2.956,1.436,6.132,1.161,9.762v0.092l-0.044,0.392
		c-0.038,0.501-0.134,0.984-0.215,1.529c-0.724,5.633-2.913,12.266-6.947,20.729c-0.31,0.665-0.67,1.384-1.033,2.101
		c-1.565,3.275-3.436,6.808-5.814,10.975c-0.628,1.156-1.302,2.374-1.834,3.221c-1.343,2.374-2.69,4.659-3.945,6.664
		c-0.626,1.027-1.207,2.063-1.833,3.055c-0.851,1.384-1.656,2.684-2.416,3.895L1324.749,1299.996z"/>
	<path id="XMLID_22_" class="st0" d="M1046.832,1223.484c0.356,0.09,0.674,0.22,1.028,0.318l3.139,0.937l2.321,2.284
		c0.133,0.136,11.285,10.746,30.761,14.505v-0.538l0.18-2.281c0.131-1.339,0.27-2.55,0.485-3.577
		c0.141-0.819,0.317-1.71,0.541-2.557c0.361-1.566,0.807-3.132,1.388-4.742c0.357-0.862,0.719-1.702,1.079-2.565
		c0.933-1.96,2.151-3.976,3.761-6.134c0,0,3.852-4.785,5.59-6.971c9.354-11.428,17.417-19.521,24.086-24.043
		c-5.326-6.321-12.576-12.811-20.497-13.877c-16.033-2.238-31.344-11.728-34.479-2.593c-0.133,0.308-0.265,0.702-0.448,1.11
		c-1.2,3.223-3.484,8.781-6.18,15.398c-1.07,2.737-2.238,5.602-3.4,8.561c-0.532,1.384-1.07,2.812-1.609,4.203
		C1051.626,1208.624,1048.761,1216.632,1046.832,1223.484"/>
	<path id="XMLID_21_" class="st0" d="M1016.166,1199.896l2.2,2.185l0.572,0.856c0.045,0.038,5.15,7.079,13.744,13.249
		c4.616,3.365,9.354,5.778,14.149,7.299c1.921-6.844,4.794-14.86,7.745-22.56c0.539-1.382,1.077-2.819,1.609-4.203
		c1.162-2.959,2.334-5.823,3.4-8.561c2.695-6.617,4.979-12.168,6.18-15.391c-4.525-4.394-20.945-20.011-26.051-20.328
		c-1.207-0.1-2.595,0.574-4.123,1.829c-0.756,0.59-1.56,1.392-2.366,2.331c-5.421,6.087-11.201,17.953-12.36,28.473
		C1020.238,1190.851,1018.319,1195.858,1016.166,1199.896"/>
	<path id="XMLID_20_" class="st0" d="M954.433,1166.765l1.883,0.719l1.517,1.565c8.643,6.98,35.104,25.924,52.648,28.654
		l4.159,0.674l1.529,1.512c2.153-4.023,4.074-9.045,4.7-14.822c1.161-10.512,6.938-22.37,12.349-28.465
		c-5.993,0.664-21.302,1.701-27.755-4.56c-8.1-7.79-26.01-11.731-35.225-7.525C964.865,1146.975,958.683,1157.984,954.433,1166.765"
		/>
	<path id="XMLID_19_" class="st1" d="M1133.681,1048.537L1133.681,1048.537c2.889,0.962,5.801,1.922,8.549,2.913L1133.681,1048.537z
		"/>
	<path id="XMLID_18_" class="st2" d="M1034.208,1140.667c1.746-0.629,3.496-0.938,5.285-0.938l0.982,0.045
		c3.313,0.174,8.596,0.537,25.835,16.117c1.88-0.546,3.932-0.818,6.088-0.818c5.233,0,10.737,1.61,16.562,3.32
		c4.477,1.301,9.088,2.692,13.431,3.275c9.801,1.338,19.384,7.472,28.511,18.256l2.512,3.003c0.45-0.092,0.945-0.137,1.432-0.176
		c0.806-0.043,1.656-0.089,2.508-0.089c10.52,0,31.877,4.203,37.381,20.183c0.983,2.821,3.54,10.792,5.189,20.633l2.461,0.189
		c9.723,0.801,18.141,3.939,24.899,9.219c11.546-15.896,20.01-16.562,23.231-16.834c1.066-0.045,2.239-0.084,3.541-0.084
		c8.595,0,21.754,2.003,33.343,3.804c1.396,0.226,2.783,0.438,4.076,0.674c2.956-4.833,7.79-8.56,14.101-10.527
		c0.721-0.22,1.434-0.438,2.2-0.628c-20.377-14.006-39.937-32.276-42.493-51.614c-1.244-9.356-1.611-19.558-1.339-29.813
		c-0.224,0-0.488,0-0.712-0.045c-5.693-0.545-25.075-2.949-36.311-11.948c-2.504-2.019-5.415-3.849-8.193-5.695
		c-2.371-1.52-4.7-3.04-6.849-4.651l-2.994,1.572c-8.735,4.651-27.756,11.497-40.968,11.497c-6.087,0-10.833-1.385-14.683-4.243
		c-6.981-5.286-14.055-18.181-14.055-32.595c0-0.945,0.046-1.968,0.082-3.14c0.365-4.786,1.479-9.4,3.223-13.332
		c0.411-1.027,0.9-2.065,1.434-3.101c0.495-0.984,1.078-2.012,1.706-2.949c-5.329-1.74-10.697-3.313-16.071-4.794
		c-2.557-0.721-5.104-1.385-7.885-2.096c-2.321-0.582-4.655-1.172-7.152-1.747c-2.866-0.727-5.779-1.354-8.735-1.975
		c-12.444-2.549-24.039-5.95-34.425-9.975C1044.194,1063.309,1033.004,1107.671,1034.208,1140.667"/>
	<path id="XMLID_13_" class="st0" d="M1541.293,524.225c0.532-43.703-15.677-53.943-15.677-53.943
		c5.955-29.11-17.902-86.547-37.288-142.494c-19.429-55.963-46.293-77.586-94.771-144.741
		c-48.488-67.153-157.452-153.724-355.902-164.161C839.205,8.45,751.908,30.843,628.801,99.465
		c-123.107,68.623-189.546,187.266-187.309,303.66c2.239,116.39-11.817,247.523,14.19,296.756
		c26.01,49.256,51.209,108.887,64.064,139.637c12.895,30.794,34.154,45.609,56.804,43.37c19.838-1.968,25.742-12.478,26.91-15.08
		c-2.283,6.541-6.762,12.841-6.762,12.841c13.027,22.522,40.733,41.822,42.439,43.033c-7.521-1.929-15.845-7.215-15.845-7.215
		s-18.399,142.501-9.448,214.882c8.953,72.397,148.493,131.302,200.732,159.685c52.205,28.337,261.134,167.889,332.758,199.939
		c71.633,32.088,113.396-2.238,158.164-41.005c40.742-35.332,33.933-124.903,32.372-140.846c-0.096-0.627-0.139-1.11-0.187-1.52
		l-0.086-0.893l-0.046,0.046c-1.526,1.21-3.044,2.238-4.521,3.131c-0.49,0.317-0.946,0.574-1.436,0.848
		c-0.096,0.044-0.178,0.044-0.223,0.135c-0.76,0.41-1.527,0.756-2.238,1.081c-0.629,0.265-1.21,0.493-1.838,0.704
		c-0.449,0.189-0.888,0.362-1.346,0.454h-0.088c-3.799,1.112-6.984,0.991-9.4,0.363c-2.91-0.817-4.831-2.239-5.682-3.011
		c-0.096-0.09-0.178-0.129-0.225-0.211l-0.358-0.363c-1.123,1.393-2.416,2.646-3.85,3.713c-0.444,0.356-0.896,0.666-1.345,0.938
		c-0.534,0.354-1.116,0.718-1.695,1.027c-0.627,0.312-1.302,0.629-1.978,0.901c-0.533,0.227-1.067,0.454-1.611,0.629
		c-0.981,0.354-1.966,0.665-3.04,0.898c-0.854,0.212-1.705,0.401-2.547,0.529c-2.513,0.408-5.018,0.583-7.53,0.583
		c-1.028,0-2.061-0.047-3.083-0.083c-1.569-0.092-3.087-0.235-4.566-0.401c-0.404-0.045-0.806-0.099-1.171-0.143
		c-2.051-0.274-3.979-0.628-5.722-1.029c-0.724-0.128-1.347-0.318-1.93-0.4c-0.354-0.129-0.76-0.227-1.122-0.311
		c-0.31-0.092-0.583-0.189-0.843-0.233l-0.723-0.212l-0.262-0.099l-0.234-0.046c-0.216-0.039-0.354-0.084-0.393-0.127h-0.05
		c-1.428,0.483-2.863,0.982-4.259,1.345c-0.177,0.083-0.308,0.128-0.441,0.128c-1.346,0.409-2.647,0.764-3.94,1.028
		c-0.223,0.054-0.45,0.099-0.627,0.137c-1.302,0.271-2.557,0.544-3.8,0.675c-1.705,0.315-3.41,0.536-5.149,0.671
		c-1.079,0.085-2.155,0.183-3.223,0.228c-0.096-0.045-0.181,0-0.272,0c-2.192,0.09-4.383,0.09-6.489,0
		c-4.167-0.143-8.06-0.627-11.64-1.302c-0.047-0.045-0.093-0.045-0.132-0.045c-1.617-0.265-3.184-0.583-4.707-0.982
		c-0.183-0.053-0.357-0.099-0.491-0.144c-0.851-0.174-1.656-0.393-2.412-0.629c-2.023-0.582-3.9-1.156-5.555-1.738
		c-0.896-0.311-1.701-0.628-2.461-0.939c-0.141-0.045-0.275-0.089-0.406-0.143c-0.401-0.167-0.805-0.31-1.168-0.484
		c-1.339-0.545-2.455-1.029-3.354-1.481c-0.496-0.265-0.889-0.439-1.161-0.575l-0.401-0.226h-0.854
		c-1.074-0.046-2.188-0.092-3.407-0.182c-0.756-0.047-1.561-0.129-2.32-0.221c-0.723-0.053-1.434-0.18-2.106-0.272
		c-0.133,0-0.273-0.038-0.405-0.038c-2.144-0.37-4.295-0.816-6.35-1.352c-0.991-0.22-1.974-0.484-2.912-0.803
		c-7.077-2.108-13.66-5.233-19.477-8.598c-0.851-0.439-1.656-0.893-2.461-1.431c-0.139-0.081-0.272-0.181-0.405-0.226
		c-2.235-1.385-4.39-2.768-6.312-4.168c-0.672-0.483-1.336-0.982-2.01-1.42c-0.854-0.628-1.705-1.257-2.463-1.846l-1.481-1.158
		c-5.774-4.574-9.128-7.964-9.128-7.964c-0.406-0.089-0.807-0.233-1.169-0.36c-3.671-0.939-7.12-2.195-10.426-3.624
		c-12.806-5.513-22.838-13.386-28.25-18.143c-2.509-2.238-4.026-3.796-4.344-4.107l-0.046-0.054h-1.343
		c-4.604-0.088-8.948-0.482-12.977-1.2l-0.589-0.099c-2.012-0.31-3.933-0.756-5.779-1.247c-2.771-0.627-5.41-1.43-7.828-2.33
		c-1.209-0.399-2.377-0.847-3.493-1.3c0,0,0-0.045-0.045-0.045c-1.122-0.439-2.191-0.938-3.268-1.423
		c-10.114-4.666-16.247-9.945-17.903-11.427c-0.096-0.128-0.178-0.22-0.273-0.265c-0.085-0.09-0.133-0.129-0.177-0.175l-0.045-0.045
		c-0.403-0.142-0.806-0.226-1.213-0.399l-0.176-0.054h-0.045c-1.565-0.483-3.091-1.028-4.521-1.655
		c-2.373-0.985-4.565-2.059-6.717-3.267c0-0.039,0-0.039-0.038,0h-0.047c-1.431-0.9-2.866-1.74-4.214-2.687
		c-0.712-0.498-1.384-0.982-2.1-1.481c-0.046,0-0.046-0.037-0.092-0.037c-0.981-0.719-1.921-1.43-2.818-2.154
		c-0.943-0.72-1.791-1.424-2.641-2.187c-0.983-0.854-1.884-1.664-2.734-2.429c-0.667-0.627-1.303-1.247-1.835-1.83
		c-2.642-2.691-4.57-4.961-5.683-6.352c-0.182-0.227-0.311-0.401-0.449-0.583c-0.095-0.136-0.227-0.273-0.274-0.401l-0.167-0.227
		l-0.049-0.045h-0.047c-13.699-2.157-30.13-11.466-42.126-19.384c-1.302-0.892-2.595-1.755-3.757-2.503
		c-0.674-0.454-1.263-0.908-1.882-1.347c-2.779-1.967-5.149-3.721-7.03-5.104c-0.488-0.354-0.939-0.719-1.342-1.028
		c-0.676-0.545-1.208-0.982-1.701-1.347c-0.45-0.309-0.723-0.536-0.808-0.621l-0.272-0.225c-0.082-0.092-0.223-0.181-0.261-0.233
		l-0.095-0.077h-0.096l-1.065-0.407c-7.528-2.595-50.593-16.699-93.97-16.032c-47.771,0.771-66.387-70.863-33.577-129.064
		c32.815-58.193,31.339-98.481,31.339-98.481c51.487,38.804,95.484-49.254,95.484-49.254s8.242,11.955,33.58,23.859
		c25.387,11.956,22.785,45.535,25.387,70.521c1.967,18.756,19.243,35.453,48.702,46.948c9.802,3.85,20.955,7.178,33.351,9.771
		c3.046,0.629,6.088,1.301,9.087,2.012c2.509,0.583,4.975,1.21,7.386,1.838c2.734,0.674,5.378,1.385,8.017,2.102
		c13.165,3.623,25.472,7.7,36.435,11.821c18.814,7.071,33.625,14.36,41.951,19.965c1.162,0.765,2.193,1.468,3.09,2.186
		c0.722,0.583,1.572,1.081,2.549,1.567c10.255,5.065,32.913,5.293,50.188,5.965c11.105,0.447,19.965,1.074,21.895,3.267
		c0,0,0,0.046,0.038,0.092c5.24,5.898,24.628,9.983,35.366,5.498c9.718-4.022,26.06,6.406,29.282,8.599
		c0.399,0.22,0.579,0.363,0.579,0.363c6.724-11.201,27.982-11.911,36.172-9.673c5.731,1.565,7.483,11.866,14.504,14.232
		c3.045,1.028,7.027,0.583,12.766-2.684c19.016-10.837,28.335,5.241,28.335,5.241c13.427-16.789,19.381-54.845,12.669-68.675
		c-6.722-13.796-1.123-39.53,11.189-55.556c12.313-16.078,15.311-48.528,15.311-48.528s-27.221,3.001-33.57-2.958
		c-6.358-5.997-1.891-34.334,0-50.761c1.789-15.85,52.681-107.486,55.774-113.135c-4.121,4.832-71.358,85.41-68.845,105.701
		c2.631,20.865-2.962,48.832-15.675,55.199c-12.671,6.352-29.46,3.351-42.887-10.072c-13.429-13.44-10.078-12.313-8.954-48.484
		c1.114-36.225,44.227-83.582,67.147-102.344c22.927-18.71,66.035-62.09,78.885-65.712c12.891-3.677,17.368,24.624,17.368,24.624
		s13.166-22.703-6.983-37.783c-16.828-12.63-31.118-40.694-35.366-49.565c7.162,13.748,21.666,24.087,21.666,24.087
		c1.656-36.399,38.59-58.193,48.082-68.805C1551.36,585.194,1540.749,567.824,1541.293,524.225 M807.639,621.01
		c0,0-28.513-41.994-43.606-35.815c-15.126,6.178-85.054,106.315-134.878,110.209c0,0,25.198-20.685,3.894-31.339
		c-21.217-10.604-113.576-50.89-125.888-67.686c-12.313-16.788,16.788,135.424,58.198,204.811
		c41.405,69.387-14.188,60.077-14.188,60.077s15.667-11.949-2.239-34.327c-17.903-22.385-60.441-101.496-70.865-139.544
		c-10.432-38.048-27.624-287.233,32.811-365.567c0,0-24.626,114.875-11.188,141.736c13.427,26.855,3.764,67.904,11.947,86.57
		c8.192,18.633,78.347,78.349,124.595,73.114c46.286-5.248,79.864-49.248,105.965-49.248c26.094,0,40.282-9.709,40.282-11.948
		c0-2.245-26.189-32.156-29.589-45.617c2.282,2.496,63.664,70.543,100.903,97.625c-18.71-10.376-45.977-24.925-51.7-24.925
		C793.134,589.136,810.468,614.831,807.639,621.01 M967.145,713.903c-24.619,80.571-144.373,29.1-144.373,29.1
		s118.63-21.267,124.229-54.844c5.602-33.579,15.668-95.131-31.338-123.118c-44.772-26.63-22.523-77.66-32.942-95.971
		c7.198,9.84,35.272,45.755,61.68,44.498c0,0,45.489-42.531,92.495-55.199c46.96-12.72,57.478-54.435,39.975-130.46
		c0.945,3.183,16.162,54.313,32.41,75.981c16.789,22.376-35.808,73.863-49.236,106.313
		C1046.609,542.67,991.772,633.324,967.145,713.903 M1411.462,613.531c0,0,3-32.814-14.194-40.286
		c-17.137-7.434-35.048,37.33-2.276,97.724c-1.08-0.982-18.363-17.243-34.255-43.242c0,0,29.815,132.058-51.482,132.058
		c-81.336,0-90.286,2.238-113.434,8.191c-23.102,6.003-105.915-41.013-117.114-41.013c0,0-18.662-46.993-26.865-58.187
		c-8.231-11.201,60.445-136.542,123.827-143.258c63.444-6.716,72.394-14.189,98.5-14.189
		C1300.304,511.33,1430.845,522.523,1411.462,613.531"/>
	<path id="XMLID_12_" class="st2" d="M513.062,1665.984c-249.206-158.986-414.775-437.926-414.775-754.82
		c0-263.76,114.691-501.27,296.831-665.13c-19.358,45.762-30.126,94.624-30.976,144.501
		c-117.401,141.48-187.95,322.928-187.95,520.629c0,224.503,91.069,428.172,238.367,576.013L513.062,1665.984z"/>
	<path id="XMLID_11_" class="st2" d="M1887.636,911.173c0,293.571-142.104,554.548-361.185,717.786v-99.886
		c173.391-149.86,283.28-371.331,283.28-617.9c0-223.264-90.063-425.849-235.73-573.457c-0.93-2.631-1.861-5.339-2.865-8.054
		c-3.178-9.06-6.504-18.12-9.682-27.256c-17.965-51.962-42.047-82.628-69.852-118.172c-7.2-9.294-15.178-19.52-23.854-31.054
		C1719.821,311.542,1887.636,592.113,1887.636,911.173"/>
	<rect id="XMLID_10_" x="1265.364" y="1575.824" class="st0" width="77.44" height="412.691"/>
	<rect id="XMLID_9_" x="1371.603" y="1575.824" class="st0" width="77.439" height="412.691"/>
	<polygon id="XMLID_8_" class="st0" points="703.931,1891.184 645.894,1988.516 552.345,1988.516 654.451,1811.535 	"/>
	<polygon id="XMLID_7_" class="st0" points="884.904,1988.522 796.397,1988.522 721.117,1861.955 671.641,1782.313 
		557.812,1575.832 651.71,1575.832 720.84,1701.076 765.678,1782.313 	"/>
	<polygon id="XMLID_6_" class="st0" points="879.438,1575.832 782.685,1750.264 737.845,1669.033 785.948,1575.832 	"/>
	<polygon id="XMLID_5_" class="st0" points="1051.073,1891.184 993.039,1988.516 899.491,1988.516 1001.596,1811.535 	"/>
	<polygon id="XMLID_4_" class="st0" points="1232.052,1988.522 1143.543,1988.522 1068.265,1861.955 1018.786,1782.313 
		904.955,1575.832 998.852,1575.832 1067.985,1701.076 1112.823,1782.313 	"/>
	<polygon id="XMLID_3_" class="st0" points="1226.584,1575.832 1129.827,1750.264 1084.988,1669.033 1133.1,1575.832 	"/>
</g>
</svg>
