<?xml version="1.0" encoding="utf-8"?>
<!-- Generator: Adobe Illustrator 19.0.0, SVG Export Plug-In . SVG Version: 6.00 Build 0)  -->
<svg version="1.1" id="Layer_1" xmlns="http://www.w3.org/2000/svg" xmlns:xlink="http://www.w3.org/1999/xlink" x="0px" y="0px"
	 viewBox="0 0 2000 2000" style="enable-background:new 0 0 2000 2000;" xml:space="preserve">
<style type="text/css">
	.st0{fill:#694F43;}
	.st1{fill:#977561;}
</style>
<g id="XMLID_2_">
	<path id="XMLID_28_" class="st0" d="M405.373,1523.404l-47.532,17.665c34.493,35.404,72.024,67.849,112.203,97.042l-12.355-19.865
		L405.373,1523.404z"/>
	<path id="XMLID_27_" class="st0" d="M184.831,903.015c-8.566-14.178-13.948-26.231-18.045-35.709
		c-4.473-2.355-11.748-5.308-16.91-7.426c-11.217-4.552-24.483-9.854-37.373-18.279c-2.955,28.891-4.398,58.149-4.398,87.793
		c0,66.65,7.507,131.618,21.687,194.008l29.792-11.134c13.711-5.08,27.979-10.544,42.307-16.23
		c-11.535-53.75-17.52-109.545-17.52-166.644C184.37,920.598,184.527,911.81,184.831,903.015"/>
	<path id="XMLID_26_" class="st0" d="M1048.358,55.871c-18.574-1.376-37.381-2.126-56.262-2.288
		c-2.723-0.075-5.383-0.075-8.105-0.075c-104.483,0-204.698,18.347-297.647,52.092c-11.906,4.324-23.736,8.863-35.41,13.719
		c-235.025,96.959-418.949,293.395-499.08,536.543c4.62-0.541,9.314-0.846,13.949-0.846c21.758,0,44.199,5.08,62.998,11.611
		C303.934,451.09,468.903,277.325,678.68,190.442c30.182-12.587,61.334-23.278,93.258-32.074
		c67.549-18.649,138.659-28.578,212.053-28.578c2.723,0,5.383,0,8.105,0.073c45.49,0.445,90.074,4.702,133.438,12.498l3.488-4.309
		l5.529-6.67c10.922-13.431,29.193-34.954,66.643-50.19c0.231-0.082,0.459-0.163,0.609-0.23
		C1152.218,68.145,1100.895,59.66,1048.358,55.871"/>
	<path id="XMLID_25_" class="st0" d="M1656.686,368.982c-19.256,3.102-49.279,9.476-81.271,22.818
		c-19.708-21.692-40.638-42.303-62.62-61.635c2.273-1.075,5.457-1.97,8.262-2.272l60.351,2.717l6.669-34.866
		C1612.341,318.792,1635.231,343.268,1656.686,368.982"/>
	<path id="XMLID_24_" class="st0" d="M1854.716,834.478c-7.121,2.725-13.947,5.16-20.01,7.054c-4.021,1.208-8.043,2.2-12.048,2.947
		l-1.983,3.946c-9.092,18.657-22.658,33.354-37.908,44.963c0.531,11.898,0.838,23.959,0.838,36.013
		c0,222.512-91.358,424.102-238.586,569.215v102.874c192.348-160.719,314.859-402.34,314.859-672.089
		C1859.878,897.327,1858.128,865.633,1854.716,834.478"/>
	<path id="XMLID_20_" class="st1" d="M139.934,746.447c-7.991,43.757,54.818,36.168,86.551,72.402
		c15.045,17.176,11.846,63.901,116.259,131.846c104.417,67.907,123.652,84.641,84.139,121.148
		c-39.569,36.462-240.786,111.477-240.786,111.477s76.525,60.979,52.691,151.725c-23.84,90.741-9.297,116.307,25.02,116.307
		c34.309,0,129.121,15.132,135.494-15.088c6.426-30.26-17.457-34.316-17.457-34.316s35.552-1.688,24.067,41.748
		c0,0,28.439-2.376,30.401-21.7c1.963-18.872-25.751-27.608-27.164-28.074c1.504,0,38.877,0.362,32.31,35.145
		c0,0,23.244-8.654,9.891-33.554c-11.083-20.508-33.541,2.111-78.205-28.438c-32.365-22.1-42.617-34.308-22.887-81.299
		c15.188-36.139,54.426-50.774,98.129-58.52c13.126-2.333,26.66-4.005,40.061-5.471c1.054-0.089,2.097-0.223,3.147-0.37
		c28.297-2.821,72.143-5.058,114.253-19.407c3.194-1.102,6.386-2.28,9.577-3.509c42.933-16.724,82.631-47.265,100.45-105.414
		c0,0,3.14,28.438-15.407,59.606c0,0,123.738-69.646,199.214-79.159c0,0-6.292-34.82,23.653-72.788
		c-2.369,4.377-29.303,55.647,3.373,98.159c34.182,44.534,37.322,41.344,23.838,101.728c0,0,63.805,25.307,58.927,99.226
		c-4.87,73.927-50.495,98.086-27.298,130.484c23.193,32.361,183.709,35.686,198.982,19.82c15.266-15.897,26.255-31.71-4.828-51.901
		c1.861,0.503,35.183,10.158,28.352,38.1c0,0,23.285-0.414,29.111-19.419c5.654-18.362-33.676-40.017-36.322-41.47
		c2.738,0.549,46.813,9.795,47.174,37.596c0,0,17.371-4.011,18.008-22.885c0.086-1.449,0.043-3.041-0.141-4.686
		c-2.326-22.885-36.871-27.535-65.946-31.043c-25.476-3.043-53.327-8.471-61.204-22.79c-0.689-1.273-1.192-2.545-1.559-3.952
		c-0.229-0.868-0.405-1.778-0.496-2.741c-1.325-12.942,2.055-52.499,18.143-97.987c2.227-6.382,4.736-12.853,7.559-19.421
		c7.069-16.724,15.996-33.857,27.029-50.449c46.262-69.365,94.164-90.007,133.764-180.844c4.926-11.306,10.98-23.426,17.953-35.922
		c49.133-87.676,144.391-194.29,223.187-181.245c90.017,14.86,112.302,99.077,112.302,99.077s63.584-10.758,79.248-42.935
		c0,0-46.443-1.044-53.359-19.686c-6.886-18.599-20.188-60.111-48.406-70.773c0,0,47.355-29.808,85.678,1.592
		c10.764,8.797,19.518,16.593,27.127,23.101c4.828,4.146,9.16,7.751,13.26,10.757c1.963,1.423,3.828,2.74,5.693,3.88
		c4.615,2.917,8.982,4.878,13.455,5.834c5.19,1.096,10.564,0.866,16.576-0.956c24.484-7.485,75.578-31.407,78.223-43.126
		c2.686-11.713-129.299-88.364-131.99-105.918c-2.641-17.54,26.069-17.54,20.785-27.12c-5.338-9.602-82.494-43.653-93.668-59.111
		c-11.209-15.4-43.109-3.185-41.017-23.922c2.148-20.73,0.542-53.225,37.782-67.582c0,0-66.492,4.782-118.128,41.512
		c-38.2,27.166-114.579,19.924-186.179,36.191c-25.121,5.699-49.586,14.266-71.693,28.214
		c-85.143,53.817-110.838,105.229-110.838,105.229s5.602-51.412-76.298-114.025c-36.96-28.311-65.352-50.544-86.728-69.233
		c-25.978-22.7-41.795-40.149-50.59-56.882c-16.088-30.534-98.81-73.104-98.81-73.104s-26.476-40.92-97.944-84.321
		c0,0,16.045,45.808-4.057,81.954c-20.05,36.137-159.791,56.201-164.618,71.467c-4.831,15.26,5.607,14.445,0,23.284
		c-5.61,8.849-149.353,55.419-168.635,64.258c-19.279,8.803,61.022,103.6,89.151,103.6c28.072,0,42.563,12.024,65.032,5.604
		c0,0-10.749,9.388-21.781,8.523c-11.032-0.866-22.065-5.923-22.931-2.548c-0.814,3.413,74.661,41.558,95.443,44.934
		c0,0-14.861-19.916,18.637-29.666c33.502-9.757,133.127-19.05,143.289-11.854c10.168,7.198,94.35,115.255,89.557,177.565
		c0,0-16.037-52.454-41.572-66.581c0,0-152.396,139.686-368.293,160.877c-215.892,21.143-196.125-94.799-268.621-139.339
		C209.27,737.578,145.469,716.121,139.934,746.447 M704.616,456.057c-10.348,4.338-31.99-6.877-38.01-13.8
		c-6.063-6.931,56.195-8.67,56.195-8.67S715.011,451.779,704.616,456.057 M1665.134,607.464c1.822-1.051,25.7-11.491,34.23-12.802
		c9.289-1.414,17.811,25.647,17.811,25.647C1695.803,633.852,1667.274,606.783,1665.134,607.464"/>
	<path id="XMLID_19_" class="st0" d="M660.964,1364.431c-1.287-18.954-21.145-22.598-23.647-22.908
		c1.897,0.763,17.363,7.278,17.363,16.615c0,23.351-13.955,24.246-13.955,24.246c6.291-31.006-20.999-32.058-20.999-32.058
		s27.446,12.045,13.72,35.471c-13.72,23.426-33.963,16.993-101.817,17.829c-67.857,0.756-70.053-20.242-55.5-59.829
		c8.951-24.476-5.531-66.945-18.264-96.278c9.246-1.6,19.633-2.963,32.515-4.316c1.298-0.163,2.659-0.305,3.341-0.378
		c3.863-0.394,8.033-0.771,12.512-1.214c23.953-2.126,55.271-4.939,87.564-13.571c-12.963,31.377-25.777,73.008-19.184,84.61
		c9.855,17.575,41.319,0.911,75.061,17.131C683.489,1345.929,660.964,1364.431,660.964,1364.431"/>
	<path id="XMLID_18_" class="st0" d="M1399.778,1352.978c-4.242-17.585-29.111-20.168-30.402-20.168
		c1.594,0.756,23.123,6.899,23.123,20.168c0,14.095-16.678,18.797-16.678,18.797c-4.475-18.494-17.513-21.907-19.103-22.204
		c14.79,11.595,16.903,19.702,4.544,37.221c-8.262,11.593-49.959,9.173-77.248,6.143c0-0.458,0.074-0.917,0.074-1.444
		c0.153-2.657,0.07-5.463-0.15-8.188c-4.174-40.484-52.686-46.318-84.838-50.19c-34.348-4.094-42.839-9.854-44.507-11.29
		c-0.606-9.936,2.199-45.49,17.134-87.726c2.125-6.132,4.479-12.203,7.055-18.191c7.051-16.533,15.467-32.377,25.166-46.86
		c17.059-25.624,34.045-43.897,52.014-63.227c27.289-29.261,55.416-59.505,80.286-113.722c-2.728,26.009-9.175,55.572-22.978,81.5
		c-33.813,63.612-39.341,132.452-40.631,159.816c-1.369,27.453,28.277,60.89,58.682,72.024
		c30.402,11.067,69.743,8.123,74.445,24.795C1410.468,1346.906,1399.778,1352.978,1399.778,1352.978"/>
	<path id="XMLID_15_" class="st0" d="M1514.565,190.293c-14.482-9.707-39.655,35.781-76.502,38.729
		c-36.842,2.88-54.279,21.317-54.279,21.317c4.852-28.661,48.591-74.993,75.816-107.281c6.209-7.279,11.521-13.875,15.31-19.405
		c2.806-3.879,4.776-7.279,5.761-9.944c8.723-23.271-16.451-103.705-34.871-102.72c-18.422,0.986-122.061,120.155-134.725,124.035
		c-12.582,3.865-14.475-32.991-22.289-23.276c-7.734,9.706-18.417,23.276-59.057,39.728c-40.713,16.524-32.979,39.72-75.584,60.119
		c-42.686,20.308-86.205-23.284-86.205-23.284c0,45.577,41.395,100.617,41.395,100.617c-10.016,18.487,14.254,54.202,2.881,105.606
		c-6.595,29.645-35.479,51.634-58.758,64.976c20.243,17.361,46.549,37.833,79.075,62.776c40.029,30.539,61.331,59.355,72.556,82.323
		c18.504-20.769,47.229-47.607,90.066-74.669c21.99-13.873,47.611-24.032,78.392-31.005c5.61-1.289,11.296-2.43,16.985-3.34
		c2.428-4.774,5.004-10.017,7.81-15.614c36.843-73.616,2.341-83.928,41.614-177.342c21.006-49.887,79.229-50.635,79.229-50.635
		S1529.118,199.918,1514.565,190.293 M1251.11,180.209c10.387-8.655,33.73-15.548,33.73-15.548
		c13.877,7.805,18.125,25.098,18.125,25.098C1277.95,200.148,1251.11,180.209,1251.11,180.209"/>
	<path id="XMLID_14_" class="st0" d="M1491.368,179.298c0,0-10.529-17.91-24.166-28.667c6.205-7.292,11.494-13.853,15.32-19.367
		C1487.446,139.555,1494.421,155.962,1491.368,179.298"/>
	<path id="XMLID_13_" class="st1" d="M1774.909,771.694c-2.145,1.688-5.331,3.962-9.844,6.381
		c-7.203,3.874-17.725,8.16-32.365,11.121c0,0,17.328-13.867,23.249-32.139c4.827,4.144,9.159,7.751,13.259,10.757
		C1771.171,769.237,1773.036,770.553,1774.909,771.694"/>
	<path id="XMLID_12_" class="st0" d="M1788.356,777.529c-4.06,4.694-13.903,13.578-32.592,16.946c0,0,5.11-7.885,9.301-16.407
		c4.513-2.405,7.699-4.686,9.852-6.382C1779.516,774.604,1783.884,776.573,1788.356,777.529"/>
	<rect id="XMLID_11_" x="1193.989" y="1590.045" class="st1" width="73.947" height="394.094"/>
	<rect id="XMLID_10_" x="1295.435" y="1590.045" class="st1" width="73.948" height="394.094"/>
	<rect id="XMLID_9_" x="1397.141" y="1590.045" class="st1" width="73.956" height="394.094"/>
	<polygon id="XMLID_8_" class="st1" points="673.003,1891.185 617.587,1984.139 528.255,1984.139 625.766,1815.134 	"/>
	<polygon id="XMLID_7_" class="st1" points="845.829,1984.139 761.316,1984.139 689.418,1863.28 642.173,1787.215 533.471,1590.045 
		623.138,1590.045 689.15,1709.645 731.973,1787.215 	"/>
	<polygon id="XMLID_6_" class="st1" points="840.612,1590.045 748.202,1756.622 705.395,1679.039 751.335,1590.045 	"/>
	<polygon id="XMLID_5_" class="st1" points="1000.976,1891.185 945.552,1984.139 856.216,1984.139 953.723,1815.134 	"/>
	<polygon id="XMLID_4_" class="st1" points="1173.794,1984.139 1089.278,1984.139 1017.391,1863.28 970.138,1787.215 
		861.436,1590.045 951.11,1590.045 1017.124,1709.645 1059.938,1787.215 	"/>
	<polygon id="XMLID_3_" class="st1" points="1168.573,1590.045 1076.183,1756.622 1033.356,1679.039 1079.3,1590.045 	"/>
</g>
</svg>
