<?xml version="1.0" encoding="utf-8"?>
<!-- Generator: Adobe Illustrator 19.0.0, SVG Export Plug-In . SVG Version: 6.00 Build 0)  -->
<svg version="1.1" id="Layer_1" xmlns="http://www.w3.org/2000/svg" xmlns:xlink="http://www.w3.org/1999/xlink" x="0px" y="0px"
	 viewBox="0 0 2000 2000" style="enable-background:new 0 0 2000 2000;" xml:space="preserve">
<style type="text/css">
	.st0{fill:#685F30;}
	.st1{fill:#989642;}
	.st2{fill:#8F885E;}
</style>
<g id="XMLID_2_">
	<path id="XMLID_27_" class="st0" d="M595.696,990.509c-35.117,47.596-48.496,100.118-49.838,96.31
		c-17.48-52.749-26.08-100.199-27.494-142.557c29.66,5.449,54.764,20.015,74.867,43.327L595.696,990.509z"/>
	<path id="XMLID_26_" class="st1" d="M959.477,672.828l-0.073,0.073c-4.553-3.51-10.154-5.758-16.811-5.758
		c-23.984,0-36.092,27.422-46.844,68.816c-0.234,0.898-0.451,1.795-0.602,2.692c-0.299,1.125-0.525,2.242-0.67,3.292
		c-1.494-0.154-2.916-0.379-4.035-0.525c-0.824-0.073-1.494-0.227-2.093-0.299c-1.422-0.227-2.241-0.374-2.241-0.374
		c-5.232,13.894-14.045,28.093-25.472,42.14v0.072c-3.146,3.89-6.511,7.853-10.021,11.734c-2.02,2.239-4.108,4.406-6.2,6.646
		c-1.721,1.948-3.592,3.816-5.529,5.758c-3.51,3.583-7.246,7.099-11.057,10.682c-12.557,11.661-26.453,23.169-41.021,34.295
		c-4.787,3.591-9.643,7.255-14.582,10.69c-1.414,1.044-2.904,2.088-4.398,3.138c0,0-0.072,0-0.072,0.073
		c-5.086,3.663-10.316,7.246-15.463,10.835c-5.238,3.583-10.469,7.101-15.7,10.536c-10.45,6.875-20.995,13.449-31.304,19.724
		c-2.541,1.569-5.158,3.139-7.699,4.633c-3.51,2.095-7.02,4.183-10.539,6.204c-4.777,2.838-9.556,5.602-14.189,8.216
		c-5.533,3.137-10.99,6.203-16.213,9.04c-0.824,0.452-1.725,0.972-2.541,1.424c-3.364,1.941-6.729,4.035-9.936,6.202
		c-2.703,1.796-5.236,3.662-7.771,5.677c-4.27,3.209-8.369,6.574-12.26,10.163c-2.912,2.687-5.752,5.451-8.441,8.291
		c-2.25,2.239-4.334,4.56-6.424,6.872c-30.705-35.711-66.5-47.144-91.012-51.033c0.074-3.882,0.227-7.772,0.453-11.58
		c0.146-3.282,0.371-6.501,0.67-9.713c0.373-4.033,0.744-7.995,1.277-11.877c0.436-3.891,1.037-7.699,1.635-11.435
		c0.453-3.211,1.051-6.42,1.641-9.566c0.824-4.254,1.717-8.361,2.768-12.478c0.67-2.837,1.348-5.602,2.164-8.369
		c0.752-2.684,1.498-5.378,2.242-7.989c1.195-4.035,2.545-7.998,3.882-11.88c0.679-2.167,1.43-4.189,2.318-6.283
		c0.603-1.642,1.2-3.209,1.87-4.778c0.977-2.466,1.947-4.934,3.066-7.319c0.832-2.021,1.793-4.035,2.697-6.057
		c2.387-5.077,4.924-10.084,7.61-14.943c2.55-4.852,5.308-9.566,8.224-14.119c0.816-1.351,1.717-2.692,2.613-4.035
		c5.303-8.143,10.982-15.915,17.11-23.24c1.421-1.868,2.993-3.663,4.562-5.451c1.869-2.167,3.735-4.334,5.678-6.428
		c8.066-8.815,16.586-16.959,25.48-24.511c2.164-1.867,4.406-3.736,6.645-5.523c3.436-2.767,6.955-5.459,10.465-7.998
		c2.016-1.569,4.107-3.066,6.199-4.488c4.113-2.912,8.375-5.75,12.627-8.441c4.408-2.84,8.822-5.523,13.301-8.071
		c2.017-1.117,4.027-2.24,6.048-3.356c3.292-1.796,6.584-3.591,9.94-5.233c3.291-1.721,6.652-3.362,10.018-4.932
		c2.613-1.271,5.309-2.466,7.908-3.591c2.105-0.97,4.189-1.868,6.285-2.685c2.02-0.898,4.107-1.795,6.128-2.619
		c5.308-2.088,10.619-4.107,15.915-5.976c2.314-0.746,4.705-1.569,7.019-2.315c12.857-4.261,25.705-7.769,38.256-10.609
		c7.625-1.723,15.244-3.218,22.643-4.407c8.217-1.351,16.215-2.393,24.059-3.144c2.617-0.293,5.158-0.446,7.699-0.673
		c7.326-0.598,14.343-0.896,21.145-0.969c4.48-0.073,8.814,0,13.076,0.227c2.241,0.072,4.406,0.225,6.574,0.371
		c7.627,0.452,14.72,1.343,21.3,2.466c14.792,2.613,26.591,6.801,34.515,12.404c6.799,4.854,12.857,9.486,18.008,13.974
		c2.54,2.24,5.004,4.407,7.174,6.502c1.131,1.116,2.237,2.167,3.291,3.356c1.043,1.05,2.012,2.094,2.981,3.144
		c0.978,1.044,1.87,2.088,2.694,3.139C958.661,671.776,959.024,672.303,959.477,672.828"/>
	<path id="XMLID_25_" class="st2" d="M941.995,655.118c2.54,2.24,5.004,4.407,7.174,6.502
		C946.999,659.452,944.616,657.285,941.995,655.118"/>
	<path id="XMLID_22_" class="st1" d="M1483.74,660.102c-0.603-2.628-1.273-5.306-2.178-7.933
		c-6.717,5.166-13.592,7.707-20.548,7.707c-11.128,0-20.766-6.576-25.1-17.112c-5.303-13.011-1.494-29.66,9.412-40.425l2.322-2.313
		c-42.146-32.055-97.508-3.516-97.508-3.516s0.89-90.408-153.627-79.135l12.551,18.542l-29.435,4.633
		c6.422,5.977,9.937,9.26,9.937,9.26l12.703,12.033l-9.42,14.709c-15.543,24.517-40.643,33.624-52.901,36.768
		c-15.689,13.229-35.413,19.869-58.577,19.869c-14.573,0-30.334-2.532-48.123-7.836c-1.645-0.525-3.358-1.044-5.078-1.569
		c-14.492,27.275-18.681,49.013-18.681,49.013l-38.931,18.234l-17.853,8.369c0,0-14.197-43.496-36.389,41.695
		c-0.153,0.598-0.299,1.195-0.371,1.793c-20.621,83.681,54.541,103.784,54.541,103.784c-27.346,24.583-68.889,80.169-86.525,104.452
		c18.311-3.281,36.835-0.743,32.202,25.409c39.228-33.996,80.033-120.967,80.033-120.967c47.888-28.406,35.488-83.388,35.488-83.388
		c18.827-16.367,53.577-14.499,53.577-14.499s-13.678,23.912-23.994,43.862c-10.23,20.014,12.559,60-14.791,86.451
		c-6.273,6.049-13.075,16.585-19.797,29.662c10.982-2.999,23.379-2.84,33.243,6.049c2.84-3.357,5.534-6.122,7.852-8.151
		c15.987-13.586-1.793-29.509,20.096-57.827c21.818-28.398,41.32-92.121,41.32-92.121s23.605,11.799,100.944,14.79
		c24.583,0.963,42.892-8.515,56.493-21.891c-1.276-3.137-2.768-6.501-4.343-9.938c-4.026-8.813-8.587-17.337-12.769-24.882
		c-6.059,3.364-13.6,5.976-22.869,7.4c-1.414,0.218-2.908,0.371-4.334,0.371c-11.881,0-26.82-8.305-29.741-31.53
		c-3.357-26.378,9.192-67.334,41.402-75.616c2.315-0.598,4.706-0.97,7.165-0.97c14.198,0,32.508,8.28,60.827,65
		c11.806,21.817,84.133,131.583,109.466,151.087c25.4,19.424,40.788,2.912,33.098-34.82
		C1457.957,772.253,1497.558,720.622,1483.74,660.102 M1401.994,637.687c1.422-1.198,33.994-6.875,34.592,22.86
		c0.671,29.743,8.07,74.275,8.07,74.275S1340.647,685.953,1401.994,637.687"/>
	<path id="XMLID_21_" class="st0" d="M1047.673,941.195c-13.373,22.19-26.82,55.143-30.33,93.545
		c-5.534,59.33-62.023,277.214-86.678,297.31c-24.583,20.014-12.709-25.555,0.969-59.324
		c13.672-33.711,49.238-169.54,50.135-208.768c0.525-24.956,15.543-78.69,33.324-121.192l17.191-4.634
		c2.387-0.672,4.629-1.058,6.649-1.058c3.736,0,5.529,1.196,6.802,2.4L1047.673,941.195z"/>
	<path id="XMLID_20_" class="st0" d="M860.132,976.988c-42.363,44.605-42.072,99.812-45.809,130.298
		c-4.108,33.858-39.973,101.544-42.065,131.293c-2.016,29.727-80.996,148.767-73.826,179.552
		c7.174,30.771-25.624,112.823-13.373,134.34c12.332,21.583,27.721,15.397,26.68,1.036c-0.975-14.345,11.277-90.247,6.199-121.032
		c-5.158-30.785,48.195-149.738,77.93-194.949c29.744-45.122,50.065-161.462,51.786-186.578
		c1.269-19.117,19.57-34.893,43.409-53.938v-0.072C891.063,996.938,905.739,962.327,860.132,976.988"/>
	<path id="XMLID_19_" class="st0" d="M1315.393,780.251c6.505,38.33,78.458,271.965,61.643,153.246
		c-9.565-67.699-37.132-154.517-64.405-215.269c-20.547-45.722-40.873-76.669-53.35-73.449
		c-28.917,7.471-33.105,68.063-15.838,65.379c29.885-4.627,28.016-24.284,28.016-24.284s16.961,25.474,30.108,53.88
		C1307.847,753.42,1313.228,767.774,1315.393,780.251"/>
	<path id="XMLID_18_" class="st0" d="M1564.475,564.068c-18.078,5.146-59.933,39.899-82.65,59.776
		c-4.471,3.948-8.208,7.247-10.824,9.712c-16.218,14.644-21.295-5.764-10.756-16.213c3.663-3.664,7.318-7.174,10.756-10.472
		C1555.437,527.301,1585.173,558.077,1564.475,564.068"/>
	<path id="XMLID_17_" class="st0" d="M1670.908,629.016c-48.793,5.605-116.042,17.556-166.322,27.124
		c-0.089-0.227-0.089-0.452-0.153-0.671c-1.418-6.204-3.284-12.259-5.38-17.71c63.585-12.404,196.213-36.39,228.196-28.771
		C1769.749,618.999,1758.929,618.999,1670.908,629.016"/>
	<path id="XMLID_16_" class="st0" d="M1174.997,565.215c-15.398,24.203-45.057,28.617-45.057,28.617
		c-21.748,21.299-53.274,22.335-90.637,11.207c-74.281-22.116-171.555-92.347-260.175-146.519
		c-133.072-81.374-104.45-98.936-104.45-98.936s-239.777-290.356-128.674-287c35.121,1.053,111.035,50.735,198.387,118.283
		c142.863,110.363,316.36,268.323,392.12,338.402c3.065,2.84,5.97,5.538,8.668,8.078
		C1164.159,554.984,1174.997,565.215,1174.997,565.215"/>
	<path id="XMLID_15_" class="st0" d="M1172.827,520.149c-4.26,0.671-8.441,1.489-12.477,2.467l-0.67-0.679
		c-2.468-2.386-8.822-8.208-8.822-8.208c-87.125-80.623-254.119-231.931-393.545-339.608c-8.668-6.648-16.885-13.001-24.883-19.045
		c-10.529-33.259-22.037-76.367-22.635-106.708c-1.051-56.113,9.94-57.231,136.363,59.411
		C972.655,224.33,1172.827,520.149,1172.827,520.149"/>
	<path id="XMLID_14_" class="st0" d="M1863.229,949.063c0,216.086-79.872,413.932-211.6,565.538h-103.408
		c147.788-143.302,239.774-343.848,239.774-565.538c0-88.693-14.729-174.109-41.924-253.746c0.372,0,0.824-0.087,1.2-0.154
		c8.515-1.271,14.787-2.474,20.321-4.043c21.598-6.041,36.239-18.219,45.429-32.12
		C1845.528,749.699,1863.229,847.367,1863.229,949.063"/>
	<path id="XMLID_13_" class="st0" d="M1759.975,540.121c-4.633-1.271-9.715-2.466-15.405-3.817
		c-10.002-2.385-21.146-3.502-34.96-3.502c-11.205,0-24.655,0.818-39.524,2.167c-138.977-224.31-387.346-373.976-670.08-373.976
		h-2.539c-21.97-26.152-43.789-50.808-64.637-72.553c22.191-1.721,44.605-2.611,67.176-2.611
		C1328.097,85.829,1614.045,269.863,1759.975,540.121"/>
	<path id="XMLID_12_" class="st0" d="M451.79,1514.609H348.297C216.569,1363.002,136.77,1165.143,136.77,949.063
		c0-289.691,143.461-546.582,363.063-703.193c7.768,12.34,16.285,25.334,25.625,39.082c5.457,7.997,10.914,15.768,16.294,23.393
		C342.177,451.428,211.937,685.297,211.937,949.063C211.937,1170.745,303.917,1371.291,451.79,1514.609"/>
	<rect id="XMLID_11_" x="1109.856" y="1589.494" class="st1" width="74.879" height="399.092"/>
	<polygon id="XMLID_10_" class="st1" points="1479.208,1589.502 1397.923,1770.565 1438.116,1864.846 1559.589,1589.502 	"/>
	<polygon id="XMLID_9_" class="st1" points="1393.083,1825.809 1388.216,1814.544 1292.546,1589.502 1212.239,1589.502 
		1382.787,1988.594 1423.402,1896.924 	"/>
	<polygon id="XMLID_8_" class="st1" points="919.456,1894.458 863.335,1988.594 772.864,1988.594 871.61,1817.432 	"/>
	<polygon id="XMLID_7_" class="st1" points="1094.464,1988.594 1008.876,1988.594 936.069,1866.203 888.216,1789.179 
		778.151,1589.502 868.952,1589.502 935.806,1710.622 979.163,1789.179 	"/>
	<polygon id="XMLID_6_" class="st1" points="1089.181,1589.502 995.61,1758.182 952.245,1679.631 998.763,1589.502 	"/>
	<polygon id="XMLID_5_" class="st1" points="586.954,1894.458 530.833,1988.594 440.363,1988.594 539.11,1817.432 	"/>
	<polygon id="XMLID_4_" class="st1" points="761.962,1988.594 676.375,1988.594 603.567,1866.203 555.716,1789.179 445.65,1589.502 
		536.452,1589.502 603.306,1710.622 646.663,1789.179 	"/>
	<polygon id="XMLID_3_" class="st1" points="756.679,1589.502 663.11,1758.182 619.745,1679.631 666.269,1589.502 	"/>
</g>
</svg>
