<?xml version="1.0" encoding="utf-8"?>
<!-- Generator: Adobe Illustrator 19.0.0, SVG Export Plug-In . SVG Version: 6.00 Build 0)  -->
<svg version="1.1" id="Layer_1" xmlns="http://www.w3.org/2000/svg" xmlns:xlink="http://www.w3.org/1999/xlink" x="0px" y="0px"
	 viewBox="0 0 2000 2000" style="enable-background:new 0 0 2000 2000;" xml:space="preserve">
<style type="text/css">
	.st0{fill:#6A4D31;}
	.st1{fill:#989898;}
	.st2{fill:#CECCCC;}
	.st3{fill:#9A7146;}
	.st4{fill:#695643;}
</style>
<g id="XMLID_2_">
	<g id="XMLID_21_">
		<path id="XMLID_44_" class="st0" d="M1112.431,1454.022c-29.582,33.983-71.548,8.905-71.548,8.905s2.968-45.037-19.141-47.187
			c-22.212-2.252-70.832-94.476-93.76-114.333c-10.133-8.803-17.094-18.936-21.7-27.329c1.842-2.252,3.89-4.709,5.937-7.165
			l3.992-5.015c62.847-76.666,68.272-85.673,69.91-88.642c9.826-16.172,9.826-26.408,9.929-37.258c0-2.047,0-4.196,0.102-6.653
			c0-2.457,0.409-7.165,0.921-12.692c0.922-11.157,2.252-26.511,2.866-43.809c2.661-1.637,9.928-5.425,21.392-5.425
			c4.299,0,8.803,0.614,13.409,1.637c6.244,1.536,12.692,2.457,19.141,2.968c-3.173,14.74-10.338,35.928-26.306,52.305
			c-27.329,28.046-62.643,113.617-62.643,113.617c2.969,89.256,102.46,168.89,120.168,176.976
			c17.708,8.189,9.622,14.024,9.622,14.024L1112.431,1454.022z"/>
		<path id="XMLID_43_" class="st0" d="M1516.949,625.335c-16.48,8.291-38.589,24.565-71.958,55.887
			c-1.637,1.536-3.276,3.071-5.016,4.709c-6.858,6.449-14.228,13.614-22.11,21.495c-3.275-2.866-7.063-6.244-11.259-10.133
			c-0.103-0.102-0.103-0.102-0.103-0.102c24.464-15.763,63.769-42.478,73.493-56.194c14.433-20.369,13.921-20.881,31.015-17.094
			C1512.24,624.106,1514.287,624.618,1516.949,625.335z"/>
		<path id="XMLID_42_" class="st0" d="M1750.427,744.786c0,0-5.834,43.809-71.549,37.872l-6.449-18.117
			c0,0-3.787-7.472,2.661-20.369c6.449-12.795-36.848-17.708-35.825-41.25c0,0-14.33-2.047-31.731-5.834v-4.197
			c0-2.354,0.205-4.811,0.307-7.063c1.229-15.251,0.819-27.227-1.535-36.849c39.715,12.487,77.689,26.715,76.871,34.801
			C1681.54,699.851,1718.901,738.849,1750.427,744.786z"/>
		<path id="XMLID_41_" class="st0" d="M769.43,940.289c-9.008,13-14.842,24.157-17.401,33.983l-36.644-12.795l-286.806,82.808
			l66.737-27.228l223.754-91.405L769.43,940.289z"/>
		<polygon id="XMLID_40_" class="st0" points="699.315,925.652 428.579,1024.53 417.422,988.807 		"/>
		<polygon id="XMLID_39_" class="st0" points="665.947,925.652 417.422,975.091 417.422,913.881 		"/>
		<path id="XMLID_38_" class="st1" d="M1102.4,649.798c-2.15-0.716-8.496-2.968-17.708-6.346c-9.417-3.48-21.802-8.291-35.313-13.92
			L1102.4,649.798z"/>
		<path id="XMLID_37_" class="st1" d="M1377.128,358.385c-1.126-2.354-2.251-4.709-3.582-6.755h0.512L1377.128,358.385z"/>
		<path id="XMLID_36_" class="st2" d="M1330.248,291.648c-0.409,0.103-0.717,0.205-1.023,0.307c0.205-0.205,0.307-0.41,0.307-0.512
			L1330.248,291.648z"/>
		<path id="XMLID_35_" class="st2" d="M1365.766,324.3c-0.819-0.307-1.331-0.512-1.331-0.512c0.205-0.512,0.512-1.023,0.819-1.638
			C1365.459,322.868,1365.562,323.584,1365.766,324.3z"/>
		<path id="XMLID_34_" class="st2" d="M1377.128,358.385c-1.126-2.354-2.251-4.709-3.582-6.755h0.512L1377.128,358.385z"/>
		<path id="XMLID_29_" class="st3" d="M1589.669,692.861c0-2.866,0.205-5.63,0.409-8.496c1.843-23.645-0.921-35.825-6.449-42.274
			c-5.936-6.96-15.251-7.063-25.282-7.369h-1.842c-20.165-0.717-40.943-1.433-137.466,97.24c0,0-9.724-7.882-24.464-21.495
			c-18.424-16.787-44.73-42.479-70.217-72.367c-27.33-32.243-33.471-118.019-33.471-118.019s-27.739-16.377-28.66-31.526
			c-0.922-15.149-1.842-35.006-1.842-35.006s3.685,31.321,7.779,38.179c4.196,6.858,90.177,67.045,117.302,71.344
			c27.125,4.095,19.755,33.983,40.022,26.613c15.968-5.834,11.567-12.385,9.109-14.944c2.969,2.559,10.85,8.393,14.33,3.89
			c5.118-6.448,9.213-23.338,9.213-23.338s10.542-9.008,2.354-28.558c-8.086-19.346-61.62-83.524-63.155-90.894
			c-1.638-7.37-2.866-23.338-12.795-29.172c-7.165-4.196-10.85-27.432-18.118-43.092c-2.764-6.039-6.039-10.952-10.236-13.306
			c0,0-0.205,3.685-1.331,8.598c-1.536,7.063-4.913,16.889-11.976,23.235c0.409-0.819,5.732-11.669,7.677-25.487
			c1.023-7.37,1.023-15.559-1.024-23.645c-2.047-7.779-3.173-14.125-3.685-19.039c-0.921-8.803-0.307-13.613,0-14.841
			c-0.717,1.331-3.48,6.96-6.96,13.102c-2.661,4.606-5.732,9.417-8.598,13c-1.842,2.149-3.582,3.89-5.22,4.606
			c-7.268,3.685-16.378,19.857-17.503,21.802c0.307-2.15,3.378-17.197,13.204-24.566c-16.377-0.614-24.463,13.716-24.463,13.716
			c-2.661-12.999-18.015-14.637-18.015-14.637c4.913,7.677-1.638,23.338-1.638,23.338c-4.913-14.228-46.368-12.078-46.368-12.078
			c5.425,5.015,4.811,20.267,4.811,20.267c-13.613-14.74-44.116-4.401-44.116-4.401c-5.63,4.606-11.259,9.622-16.889,15.456
			c-69.501,72.367-70.934,281.279-70.934,281.279l-0.717-0.205l-53.021-20.267l-0.41-0.205
			c-26.818-11.259-57.832-25.896-79.122-41.25c-13.409-9.622-19.551-17.094-20.881-24.566c-0.204-1.023-0.307-2.149-0.307-3.173
			c0-16.479,22.621-33.266,42.069-70.934c27.842-53.943-86.287-139.718-98.98-149.033c9.11,7.779,73.8,63.462,85.776,113.208
			c12.692,53.635-64.69,78.406-57.935,126.924c6.859,48.517,171.143,127.742,171.143,127.742s-11.055,28.353-29.274,30.605
			c0,0-57.423,73.493-104.098,79.839c0,0-42.683,41.762-72.265,42.581c0,0-9.928,5.937-22.314,5.425
			c-13.92,12.591-27.023,25.18-38.691,37.258c-14.637,14.944-27.125,29.274-36.542,42.171h-0.102
			c-9.724,13.102-16.173,24.566-18.424,33.778c-17.094,70.525,27.637,94.579,54.556,131.018
			c27.125,36.439,31.22,44.628,31.22,53.533c0,8.803,5.22,45.242-27.534,86.39c-33.062,41.148-24.157,67.556-4.811,95.704
			c19.346,28.251,59.572,126.924,78.815,128.766c8.496,0.819,12.078,10.133,13.409,20.267c1.842,13.102,0,27.534,0,27.534
			s31.526,30.503,69.399,2.456l-15.252-26.51c0,0,1.638-1.433,1.74-3.48c0.204-1.74-0.614-3.89-4.197-5.936
			c-7.881-4.401-109.625-99.287-94.476-202.055c0,0,11.464-13.818,26.511-32.037c13.613-16.684,30.297-37.156,44.32-54.659
			c13.921-17.503,25.283-32.038,28.148-36.849c8.803-14.74,6.858-21.086,7.268-35.313c0.614-14.228,8.291-74.517,1.535-124.672
			c1.331,5.425,8.393,37.053,7.882,55.58c0,0,18.527-15.558,51.281-7.984c5.937,1.331,11.771,2.15,17.605,2.559
			c25.999,1.74,50.872-5.732,80.044-14.637c35.621-10.952,113.413-12.692,147.293-51.793
			c33.983-39.101,102.255-96.114,102.255-96.114s20.165,12.693,38.282-20.062c18.117-32.857,83.831-154.97,126.719-179.126
			c0,0,6.142,74.414,18.22,100.617c0,0-23.542,20.062-20.779,57.013c0,0-23.542-18.833-43.706,8.701c0,0-7.268,50.257,21.495,71.036
			c0,0,60.391-46.88,68.477-68.989c7.984-22.11,16.684-26.204,16.07-49.746C1610.243,788.975,1588.646,741.174,1589.669,692.861z
			 M1451.794,531.136c9.314,7.472,2.354,15.149,2.354,15.149S1442.581,523.561,1451.794,531.136z M1384.442,426.219
			c0,0-0.717,18.527-6.96,27.841l-19.551-41.352L1384.442,426.219z"/>
		<path id="XMLID_28_" class="st4" d="M1065.756,715.716c-2.456,2.969-4.811,5.118-6.551,5.323l-7.268,1.024l-4.606,5.732
			c-13.716,17.605-60.186,68.682-92.429,73.083l-5.835,0.922l-4.299,3.992c-15.661,15.456-44.628,37.156-60.186,37.565l-4.709,0.103
			l-3.991,2.354c0,0.102-5.323,2.968-11.362,2.968l-0.921-0.102l-7.37-0.307l-5.527,5.015c-2.354,2.15-4.606,4.299-6.96,6.346
			c-1.945-1.432-3.89-3.276-5.834-5.322c0,0-60.801,23.542-46.368-15.968c0,0-61.516,31.219-53.942,2.354
			c0,0-46.368,16.684-45.652-1.638c0,0-71.343,31.22-72.162-15.865c0,0-63.564,3.685-61.415-30.4c0,0-165.82,62.234-22.314-90.382
			c-5.118,2.968-191.409,111.673-221.093,82.091c-28.763-28.763,153.537-134.498,169.914-144.017
			c-15.251,6.96-172.575,79.02-247.603,91.713c-0.102,0-0.307,0-0.41,0.102c-19.141,3.173-32.856,2.559-37.463-4.196
			c-9.008-13,17.708-35.825,54.147-59.367c0.102-0.102,0.307-0.205,0.41-0.307h0.103c55.478-35.518,133.269-72.265,144.017-77.28
			c-9.621,3.685-71.548,27.841-133.986,46.778c-0.102,0-0.307,0.102-0.409,0.102c-31.936,9.724-63.872,17.913-89.154,21.392h-0.307
			c-25.282,3.583-43.706,2.252-48.517-7.369c-7.779-15.559,26.818-38.998,71.855-61.926c0.103-0.102,0.205-0.102,0.307-0.205
			c34.085-17.299,74.209-34.29,106.247-47.187c0.205-0.102,0.307-0.102,0.512-0.205c20.472-8.188,37.668-14.637,47.698-18.424
			c-9.724,3.173-25.897,8.393-45.754,14.432c-0.103,0-0.307,0.102-0.41,0.102c-28.251,8.598-63.974,18.732-98.468,26.818
			c-0.102,0-0.307,0.102-0.409,0.102c-59.982,13.716-116.995,21.086-128.664,2.866c-18.629-28.865,99.594-70.013,171.552-91.918
			c0.102,0,0.204-0.102,0.307-0.102c23.747-7.37,42.479-12.487,49.439-14.33c-6.756,1.638-24.464,5.936-47.494,10.85
			c-0.102,0-0.205,0-0.307,0.102c-66.635,13.921-177.489,31.731-196.425,1.228c-11.874-19.243,102.46-58.446,253.95-91.713
			c0.102-0.102,0.204-0.102,0.307-0.102c38.077-8.393,78.406-16.275,119.759-23.542c0.102-0.103,0.307-0.103,0.409-0.103
			c157.324-27.329,327.852-43.297,433.69-24.975c5.425,5.015,11.771,10.747,18.732,17.196l-2.354,2.969
			c31.833,27.124,71.957,70.626,79.839,103.79c4.299,17.913-6.654,31.424-24.975,51.794c-17.605,19.652-37.668,41.864-33.164,73.288
			c2.354,16.582,14.842,44.424,96.421,94.886C1024.301,693.914,1049.686,707.425,1065.756,715.716z"/>
		<path id="XMLID_27_" class="st0" d="M1065.756,715.716c-2.456,2.969-4.811,5.118-6.551,5.323l-7.268,1.024l-4.606,5.732
			c-13.716,17.605-60.186,68.682-92.429,73.083l-5.835,0.922l-4.299,3.992c-15.661,15.456-44.628,37.156-60.186,37.565l-4.709,0.103
			l-3.991,2.354c0,0.102-5.323,2.968-11.362,2.968l-0.921-0.102l-7.37-0.307l-5.527,5.015c-2.354,2.15-4.606,4.299-6.96,6.346
			c-1.945-1.432-3.89-3.276-5.834-5.322c0,0-60.801,23.542-46.368-15.968c0,0-61.516,31.219-53.942,2.354
			c0,0-46.368,16.684-45.652-1.638c0,0-71.343,31.22-72.162-15.865c0,0-63.564,3.685-61.415-30.4c0,0-165.82,62.234-22.314-90.382
			c-5.118,2.968-191.409,111.673-221.093,82.091c-28.763-28.763,153.537-134.498,169.914-144.017
			c-15.251,6.96-172.575,79.02-247.603,91.713c-0.102,0-0.307,0-0.41,0.102c-19.141,3.173-32.856,2.559-37.463-4.196
			c-9.008-13,17.708-35.825,54.147-59.367c0.102-0.102,0.307-0.205,0.41-0.307h0.103c55.478-35.518,133.269-72.265,144.017-77.28
			c-9.621,3.685-71.548,27.841-133.986,46.778c-0.102,0-0.307,0.102-0.409,0.102c-31.936,9.724-63.872,17.913-89.154,21.392h-0.307
			c-25.282,3.583-43.706,2.252-48.517-7.369c-7.779-15.559,26.818-38.998,71.855-61.926c0.103-0.102,0.205-0.102,0.307-0.205
			c34.085-17.299,74.209-34.29,106.247-47.187c0.205-0.102,0.307-0.102,0.512-0.205c20.472-8.188,37.668-14.637,47.698-18.424
			c-9.724,3.173-25.897,8.393-45.754,14.432c-0.103,0-0.307,0.102-0.41,0.102c-28.251,8.598-63.974,18.732-98.468,26.818
			c-0.102,0-0.307,0.102-0.409,0.102c-59.982,13.716-116.995,21.086-128.664,2.866c-18.629-28.865,99.594-70.013,171.552-91.918
			c0.102,0,0.204-0.102,0.307-0.102c23.747-7.37,42.479-12.487,49.439-14.33c-6.756,1.638-24.464,5.936-47.494,10.85
			c-0.102,0-0.205,0-0.307,0.102c-66.635,13.921-177.489,31.731-196.425,1.228c-11.874-19.243,102.46-58.446,253.95-91.713
			c0.102-0.102,0.204-0.102,0.307-0.102c38.077-8.393,78.406-16.275,119.759-23.542c0.102-0.103,0.307-0.103,0.409-0.103
			c157.324-27.329,327.852-43.297,433.69-24.975c5.425,5.015,11.771,10.747,18.732,17.196l-2.354,2.969
			c31.833,27.124,71.957,70.626,79.839,103.79c4.299,17.913-6.654,31.424-24.975,51.794c-17.605,19.652-37.668,41.864-33.164,73.288
			c2.354,16.582,14.842,44.424,96.421,94.886C1024.301,693.914,1049.686,707.425,1065.756,715.716z"/>
		<path id="XMLID_26_" class="st0" d="M1411.93,368.621c0,0-11.055,0.819-24.566-0.717c-1.331-3.992-2.866-8.086-4.709-11.873
			l-4.811-10.441h-1.126c-2.457-3.48-5.22-6.346-8.291-8.598c-0.307-2.968-0.922-5.732-1.638-8.495
			c-0.409-1.433-0.717-2.764-1.023-4.197c5.22,2.15,24.771,10.952,27.637,24.669C1396.679,364.732,1411.93,368.621,1411.93,368.621z
			"/>
		<path id="XMLID_25_" class="st0" d="M1371.293,316.726c0,0-3.992,2.661-6.039,5.425c-0.307-1.638-0.717-3.378-0.922-4.913
			l2.968-2.252C1368.632,315.497,1369.963,316.009,1371.293,316.726z"/>
		<path id="XMLID_24_" class="st1" d="M1377.128,358.385c-1.126-2.354-2.251-4.709-3.582-6.755h0.512L1377.128,358.385z"/>
		<path id="XMLID_23_" class="st0" d="M1332.807,291.034c-0.921,0.103-1.74,0.205-2.559,0.614l-0.717-0.204
			c0,0.102-0.102,0.307-0.307,0.512v0.102c-6.96,3.173-10.645,13.818-10.645,13.818c0.716,0.512,1.432,1.023,2.149,1.536
			c-0.307,0.614-0.717,1.228-1.023,1.74c-8.393,0-15.559,2.354-21.393,5.732c-6.244-4.094-13.101-6.039-18.015-6.653l-37.155-4.094
			l10.236,16.07c-5.22-0.512-11.055-0.819-17.197-0.819c-4.196,0-6.858,0.102-6.858,0.102l-42.478,2.457l12.18,11.055
			c-7.574,1.228-12.999,3.071-13.921,3.276l-2.968,1.023l-2.559,2.047c-6.142,5.015-12.385,10.747-18.424,16.991
			c-59.266,61.62-72.265,208.298-75.131,267.972l-30.196-11.464c-0.818-0.409-1.74-0.818-2.559-1.126
			c7.984-30.298,21.291-71.855,21.291-71.855c-6.039,2.764-18.936,20.779-18.936,20.779c2.661-22.724,26.818-72.162,28.25-75.233
			c-8.495,4.299-21.392,18.117-22.211,19.039c10.952-34.393,43.604-85.059,43.604-85.059c-19.55,0.102-35.006,10.133-35.928,10.747
			c21.188-29.377,79.021-69.706,79.021-69.706c-9.519,0-25.692,7.881-26.716,8.393c27.842-41.762,58.958-50.462,58.958-50.462
			c-6.551-2.661-23.542-2.661-23.542-2.661c28.967-14.228,65.509-13.716,65.509-13.716c0-3.787-7.063-13.614-7.063-13.614
			c24.565,0,28.353,10.543,28.353,10.543c7.575-10.441,28.047-14.33,31.22-14.842c-6.039,1.638-2.866,14.842-2.866,14.842
			C1303.328,285.404,1332.807,291.034,1332.807,291.034z"/>
		<path id="XMLID_22_" class="st1" d="M1330.248,291.648c-0.409,0.103-0.717,0.205-1.023,0.307c0.205-0.205,0.307-0.41,0.307-0.512
			L1330.248,291.648z"/>
	</g>
	<g id="XMLID_6_">
		<g id="XMLID_16_">
			<polygon id="XMLID_20_" class="st3" points="1390.025,1822.715 1421.653,1896.822 1420.63,1898.972 1363.412,1764.781 
				1364.436,1762.529 1385.01,1810.944 			"/>
			<polygon id="XMLID_19_" class="st3" points="1563.726,1576.135 1519.201,1677.163 1437.007,1863.453 1395.143,1765.088 
				1408.04,1736.223 1408.143,1736.223 1459.628,1621.378 1479.895,1576.135 			"/>
			<polygon id="XMLID_18_" class="st3" points="1420.63,1898.972 1420.63,1899.074 1379.278,1992.527 1288.384,1779.725 
				1257.165,1706.744 1201.38,1576.135 1285.211,1576.135 1330.658,1682.997 1361.468,1755.466 1364.436,1762.529 
				1363.412,1764.781 			"/>
			<polygon id="XMLID_17_" class="st3" points="1421.653,1896.822 1420.63,1898.972 1363.412,1764.781 1364.436,1762.529 
				1385.01,1810.944 1390.025,1822.715 			"/>
		</g>
		<g id="XMLID_12_">
			<polygon id="XMLID_15_" class="st3" points="997.688,1894.263 939.139,1992.527 844.765,1992.527 855.82,1973.386 
				947.84,1813.912 			"/>
			<polygon id="XMLID_14_" class="st3" points="1180.294,1992.527 1091.038,1992.527 1015.089,1864.784 982.232,1811.865 
				965.138,1784.433 934.124,1728.239 850.293,1576.135 945.076,1576.135 1014.781,1702.547 1032.796,1735.199 1060.024,1784.433 
				1076.606,1813.196 			"/>
			<polygon id="XMLID_13_" class="st3" points="1174.766,1576.135 1087.251,1733.971 1077.117,1752.19 1067.496,1734.79 
				1031.875,1670.202 1080.495,1576.135 			"/>
		</g>
		<g id="XMLID_7_">
			<polygon id="XMLID_11_" class="st3" points="650.843,1894.297 592.301,1992.496 497.922,1992.496 600.931,1813.949 			"/>
			<polygon id="XMLID_10_" class="st3" points="866.875,1992.527 844.765,1992.527 855.82,1973.386 			"/>
			<polygon id="XMLID_9_" class="st3" points="833.404,1992.527 744.148,1992.527 668.198,1864.784 618.247,1784.433 
				556.219,1671.942 503.403,1576.135 598.186,1576.135 618.35,1612.677 622.649,1620.456 667.891,1702.547 689.898,1742.466 
				690,1742.466 713.133,1784.433 			"/>
			<polygon id="XMLID_8_" class="st3" points="827.877,1576.135 766.052,1687.705 762.163,1694.665 730.329,1752.19 
				685.087,1670.202 691.843,1657.203 733.605,1576.135 			"/>
		</g>
	</g>
	<g id="XMLID_3_">
		<path id="XMLID_5_" class="st4" d="M461.278,1495.55H354.109c-134.293-157.733-215.361-362.039-215.361-584.872
			c0-38.487,2.354-76.257,7.063-113.515c15.149,12.59,38.179,24.054,72.06,24.054c1.433,0,2.866,0,4.401-0.102
			c-3.275,29.377-4.913,59.265-4.913,89.563C217.359,1139.14,310.812,1346.108,461.278,1495.55z"/>
		<path id="XMLID_4_" class="st4" d="M1945.157,910.678c0,222.935-81.17,427.139-215.668,584.872h-106.963
			c150.568-149.442,243.918-356.41,243.918-584.872c0-454.673-369.819-824.492-824.491-824.492
			c-186.803,0-359.275,62.439-497.663,167.56c-44.423,5.528-86.083,11.976-121.704,18.117l-18.424,0.103
			C567.628,108.501,793.224,7.473,1041.953,7.473C1539.924,7.473,1945.157,412.708,1945.157,910.678z"/>
	</g>
</g>
</svg>
