<?xml version="1.0" encoding="utf-8"?>
<!-- Generator: Adobe Illustrator 19.0.0, SVG Export Plug-In . SVG Version: 6.00 Build 0)  -->
<svg version="1.1" id="Layer_1" xmlns="http://www.w3.org/2000/svg" xmlns:xlink="http://www.w3.org/1999/xlink" x="0px" y="0px"
	 viewBox="0 0 2000 2000" style="enable-background:new 0 0 2000 2000;" xml:space="preserve">
<style type="text/css">
	.st0{fill:#839A6C;}
	.st1{fill:#576947;}
	.st2{fill:#D3CC28;}
	.st3{fill:#5F694B;}
	.st4{fill:#7C9B60;}
</style>
<g>
	<path class="st0" d="M952.598,800.916c0.116,1.736,0.116,3.587,0,5.496v0.521c-0.116,1.041-0.173,2.083-0.289,3.124
		c-0.058,1.099-0.231,2.256-0.405,3.414c-0.116,1.099-0.347,2.256-0.521,3.413c-0.868,5.034-2.083,10.472-3.471,16.373l-0.578,2.43
		c-0.405,1.562-0.752,3.182-1.099,4.744c-0.232,1.041-0.463,2.083-0.694,3.182c-0.232,0.984-0.463,2.025-0.694,3.008
		c-0.521,2.025-1.042,4.108-1.562,6.19c-3.703,14.58-8.215,29.101-12.786,40.036c-0.636,1.562-1.331,3.009-1.967,4.397
		c-0.058,0.289-0.232,0.521-0.347,0.81c-0.463,0.868-0.868,1.678-1.273,2.43c-2.314,4.455-4.57,7.753-6.769,9.372
		c-0.058,0.058-0.174,0.174-0.231,0.174c-0.868,0.636-1.736,0.983-2.604,0.983c-9.083,0-9.083,0-9.083,0s-0.116,11.108-0.868,27.713
		c0,0.232,0,0.463-0.058,0.695c-0.115,1.446-0.173,2.893-0.231,4.397v0.405c-0.116,2.546-0.289,5.207-0.463,8.042
		c-0.115,1.909-0.231,3.818-0.405,5.844c-0.231,3.066-0.405,6.248-0.694,9.488l-0.463,6.133v0.231
		c-3.992,47.557-13.017,105.528-32.977,110.85c0,0,3.587,128.497-45.243,162.863c0,0,18.051,137.58-52.533,137.58
		c-34.366,0-19.902-133.935,16.315-135.728c0,0-33.787-45.532-1.678-84.469c32.11-38.937,33.093-85.683,33.093-85.683
		s-25.746-98.933,21.696-161.763c3.066-3.992,6.364-7.868,10.009-11.513c0,0-16.778-10.067-12.034-47.036
		c1.504-11.745,5.207-26.209,12.265-43.97c0,0-1.62-18.282,14.175-30.663c2.546-1.967,5.496-3.76,8.91-5.323l1.794-0.752
		c0.983-0.405,2.025-0.752,3.067-1.157c1.099-0.347,2.198-0.636,3.298-0.983c1.099-0.289,2.256-0.578,3.413-0.868
		c0.174,0,0.347-0.058,0.463-0.115c1.099-0.174,2.199-0.405,3.356-0.579c1.157-0.173,2.314-0.405,3.529-0.521
		c0.926-0.116,1.851-0.174,2.777-0.29c0.81-0.057,1.62-0.115,2.488-0.173c1.099-0.058,2.256-0.116,3.414-0.174
		c1.157-0.057,2.372-0.057,3.587-0.057c0.868,0,1.967,0,3.24,0.057c1.736,0,3.818,0.116,6.075,0.29
		c0.926,0.057,1.851,0.115,2.777,0.231c2.719,0.289,5.265,0.694,7.579,1.157c1.446,0.289,2.893,0.694,4.339,1.157
		c0.232,0.058,0.521,0.115,0.752,0.231c0.058,0,0.058,0,0.116,0.058c0.81,0.173,1.62,0.463,2.372,0.81
		c0.232,0.057,0.405,0.173,0.637,0.231c0.694,0.289,1.388,0.636,2.083,0.925c0.868,0.463,1.736,0.926,2.604,1.446
		c0.058,0.058,0.115,0.058,0.231,0.116c0.752,0.463,1.446,0.983,2.141,1.504c0.405,0.289,0.752,0.578,1.157,0.925
		c0.347,0.29,0.694,0.637,1.041,0.984c0.347,0.289,0.694,0.636,1.041,1.041c0.289,0.347,0.636,0.752,0.926,1.099
		c0.463,0.578,0.925,1.215,1.331,1.851c0.578,0.868,1.099,1.794,1.504,2.777c0.231,0.405,0.405,0.868,0.578,1.331
		c0.174,0.463,0.347,0.926,0.463,1.388c0.116,0.29,0.231,0.521,0.289,0.81c0.116,0.521,0.232,0.983,0.347,1.504
		c0.058,0.173,0.058,0.347,0.116,0.578c0.058,0.289,0.116,0.579,0.173,0.868c0.116,0.521,0.174,1.041,0.232,1.62
		C952.482,799.238,952.54,800.048,952.598,800.916z"/>
	<path class="st0" d="M835.245,771.491c0,0.103,0,0.103,0,0.103c-0.412,0.411-0.72,0.926-1.029,1.44
		c-9.464,13.064-12.241,26.642-12.858,35.489c-3.6,9.567-6.378,18.413-8.435,26.539c-28.7-4.011-94.02-81.985-94.02-81.985
		c22.322-22.22,16.973-38.164,16.973-38.164c-27.671,37.135-99.884,58.531-99.884,58.531c-3.807,4.938-7.613,9.67-11.213,14.093
		c-7.612,9.258-14.71,17.488-21.5,24.894c-54.725,60.075-81.985,62.852-81.985,62.852s-1.131,27.671-14.916,79.722
		c-13.784,52.051-61.617,80.339-61.617,80.339c-21.294,45.261-125.292,82.191-123.235,50.302
		c2.16-31.889,97.724-74.271,97.724-74.271s-6.275-13.887,29.728-53.182c36.107-39.295,39.295-116.549,39.295-116.549
		c5.04-18.208,17.179-36.724,31.992-53.696c9.361-10.802,19.853-21.088,30.242-30.243c4.424-3.909,8.744-7.715,13.064-11.213
		c5.246-4.32,10.287-8.332,14.916-11.83c4.012-3.086,7.818-5.863,11.11-8.229c1.234-0.925,2.366-1.749,3.497-2.572
		c0.412-0.308,0.823-0.617,1.234-0.926c1.44-1.029,2.881-1.954,4.115-2.778c4.937-3.395,7.818-5.246,7.818-5.246
		c16.458-24.483,32.506-40.941,47.216-52.051c0.103,0,0.103,0,0.103,0c1.029-0.72,2.057-1.543,2.984-2.16
		c1.131-0.822,2.057-1.44,3.086-2.16c0.926-0.617,1.955-1.234,2.88-1.852c1.131-0.617,2.16-1.234,3.189-1.955l0.412-0.206
		c3.909-2.263,8.023-4.32,12.138-5.967c0.205-0.102,0.411-0.205,0.617-0.308c0.72-0.206,1.44-0.514,2.16-0.823
		c0.72-0.206,1.44-0.514,2.16-0.72c0.103-0.103,0.309-0.205,0.411-0.205c0.823-0.309,1.543-0.617,2.366-0.72
		c1.028-0.309,2.057-0.617,3.189-0.926c1.543-0.411,3.086-0.823,4.834-1.131c0-0.103,0.103-0.103,0.103-0.103
		c1.234-0.206,2.366-0.411,3.601-0.617c0.411,0,0.823-0.103,1.234-0.206c1.337-0.205,2.88-0.308,4.217-0.411
		c0.206-0.103,0.309-0.103,0.514-0.103h0.309c1.543-0.103,3.086-0.103,4.526-0.103c0.103,0,0.103,0,0.103,0h0.823
		c1.029,0,1.955,0,2.984,0.103c1.234,0,2.366,0.206,3.6,0.309c1.028,0.102,2.16,0.205,3.292,0.411c0.103,0,0.206,0.103,0.308,0.103
		c1.646,0.206,3.189,0.514,4.526,0.925c0.72,0.103,1.337,0.309,1.955,0.515c1.234,0.308,2.469,0.72,3.395,1.028
		c0.514,0.206,1.029,0.411,1.543,0.617c0.308,0.103,0.514,0.206,0.823,0.309c1.955,0.823,2.984,1.44,2.984,1.44
		c1.131,0.103,2.16,0.309,3.292,0.412l0.822,0.205c0.206,0,0.412,0,0.617,0.103c0.103,0,0.103,0,0.206,0
		c1.028,0.103,1.954,0.412,2.88,0.514c0.102,0,0.205,0.103,0.308,0.103c2.881,0.617,5.658,1.337,8.332,2.16
		c0.72,0.308,1.543,0.514,2.263,0.823c1.029,0.308,1.954,0.617,2.88,1.028c1.029,0.411,1.955,0.823,2.881,1.234
		c0.925,0.309,1.852,0.72,2.777,1.131c0.823,0.412,1.749,0.926,2.675,1.337c0.926,0.514,1.852,0.926,2.675,1.44
		c0.823,0.514,1.748,1.028,2.572,1.543c0.926,0.411,1.749,1.029,2.572,1.543c1.646,1.029,3.292,2.16,4.835,3.292
		c0.822,0.617,1.646,1.131,2.366,1.852c1.646,1.131,3.086,2.366,4.629,3.703c0.72,0.515,1.44,1.132,2.16,1.852
		c1.44,1.337,2.881,2.674,4.218,4.011c0.617,0.617,1.337,1.337,1.955,2.057c1.337,1.337,2.675,2.778,3.909,4.218
		c1.234,1.337,2.469,2.777,3.703,4.217c2.366,2.983,4.629,5.966,6.686,9.052c0.72,1.029,1.44,2.057,2.16,3.189
		c1.852,2.572,3.498,5.246,5.04,7.921c0.309,0.72,0.72,1.44,1.234,2.16c1.132,2.057,2.16,4.012,3.189,5.966
		c1.029,1.852,2.057,3.703,2.881,5.555c0.926,1.749,1.749,3.601,2.572,5.246l0.206,0.514l0.617,1.44
		c0.102,0.206,0.205,0.412,0.205,0.617c1.646,3.498,2.984,6.687,4.012,9.566c0,0,0,0.103,0.103,0.206
		c0.103,0.514,0.308,0.926,0.514,1.44c0.103,0.411,0.309,0.925,0.514,1.44c0.206,0.514,0.412,1.028,0.514,1.543
		c1.132,3.086,1.852,5.452,2.263,6.687c0.103,0.308,0.206,0.411,0.206,0.617c0.102,0.308,0.102,0.411,0.205,0.617l0.103,0.514
		c0,0,0,0.103,0,0.411v0.103c0.206,0.72,0.412,2.675,0.617,5.246c0.103,0.72,0.103,1.337,0.206,2.16v0.617
		c0.103,0.617,0.103,1.234,0.206,1.954c0.102,0.72,0.102,1.543,0.205,2.366c0,0.823,0.103,1.646,0.103,2.469
		C835.039,767.89,835.142,769.742,835.245,771.491z"/>
	<path class="st0" d="M782.966,857.787c-35.407-1.678-91.469-7.405-146.779-25.63c-1.62-0.52-3.24-1.157-4.86-1.736h-0.058
		c5.959-6.711,12.265-14.117,18.861-22.101c1.793-2.199,3.587-4.455,5.438-6.769c10.529-3.587,27.308-10.009,45.127-19.15
		C722.45,807.627,754.502,841.299,782.966,857.787z"/>
	<path class="st1" d="M615.108,652.679c-11.11,10.801-21.911,23.659-32.3,38.369c-2.675,1.852-6.172,4.321-10.287,7.201
		c-4.114,2.881-8.846,6.481-13.99,10.287c-1.337,1.131-2.675,2.16-4.012,3.189c-4.217-11.727-3.497-23.351-3.497-23.351
		s-12.755-5.349-36.107,8.435c-23.454,13.887-74.373,25.511-74.373,25.511c-36.106,23.351-177.446,22.322-177.446,22.322
		c-11.316,11.624-27.671,23.042-44.851,33.432c-39.398,23.453-83.631,40.941-83.631,40.941s-0.411-0.103-1.234-0.308
		c-14.093-2.778-143.088-30.038-122-59.149c22.219-30.86,111.508,20.162,111.508,20.162c3.6-5.04,9.875-10.492,17.796-15.944
		c23.453-16.458,61.411-34.049,89.494-45.878c20.779-8.95,36.107-14.711,36.107-14.711c56.371-52.051,167.879-40.324,167.879-40.324
		c58.737-40.324,118.297-16.561,133.419-9.361c2.366,1.131,3.6,1.955,3.6,1.955c3.086-0.72,5.966-1.234,8.847-1.646
		c7.92-1.234,15.327-1.749,22.219-1.749c2.263,0,4.423,0,6.584,0.206C610.994,652.37,613.154,652.473,615.108,652.679z"/>
	<path class="st1" d="M615.108,652.679c-11.11,10.801-21.911,23.659-32.3,38.369c-2.675,1.852-6.172,4.321-10.287,7.201
		c-4.114,2.881-8.846,6.481-13.99,10.287c-1.337,1.131-2.675,2.16-4.012,3.189c-4.217-11.727-3.497-23.351-3.497-23.351
		s-12.755-5.349-36.107,8.435c-23.454,13.887-74.373,25.511-74.373,25.511c-36.106,23.351-177.446,22.322-177.446,22.322
		c-11.316,11.624-27.671,23.042-44.851,33.432c-39.398,23.453-83.631,40.941-83.631,40.941s-0.411-0.103-1.234-0.308
		c-14.093-2.778-143.088-30.038-122-59.149c22.219-30.86,111.508,20.162,111.508,20.162c3.6-5.04,9.875-10.492,17.796-15.944
		c23.453-16.458,61.411-34.049,89.494-45.878c20.779-8.95,36.107-14.711,36.107-14.711c56.371-52.051,167.879-40.324,167.879-40.324
		c58.737-40.324,118.297-16.561,133.419-9.361c2.366,1.131,3.6,1.955,3.6,1.955c3.086-0.72,5.966-1.234,8.847-1.646
		c7.92-1.234,15.327-1.749,22.219-1.749c2.263,0,4.423,0,6.584,0.206C610.994,652.37,613.154,652.473,615.108,652.679z"/>
	<path class="st0" d="M615.108,652.679c-11.11,10.801-21.911,23.659-32.3,38.369c-2.675,1.852-6.172,4.321-10.287,7.201
		c-4.114,2.881-8.846,6.481-13.99,10.287c-1.337,1.131-2.675,2.16-4.012,3.189c-4.217-11.727-3.497-23.351-3.497-23.351
		s-12.755-5.349-36.107,8.435c-23.454,13.887-74.373,25.511-74.373,25.511c-36.106,23.351-177.446,22.322-177.446,22.322
		c-11.316,11.624-27.671,23.042-44.851,33.432c-39.398,23.453-83.631,40.941-83.631,40.941s-0.411-0.103-1.234-0.308
		c-14.093-2.778-143.088-30.038-122-59.149c22.219-30.86,111.508,20.162,111.508,20.162c3.6-5.04,9.875-10.492,17.796-15.944
		c23.453-16.458,61.411-34.049,89.494-45.878c20.779-8.95,36.107-14.711,36.107-14.711c56.371-52.051,167.879-40.324,167.879-40.324
		c58.737-40.324,118.297-16.561,133.419-9.361c2.366,1.131,3.6,1.955,3.6,1.955c3.086-0.72,5.966-1.234,8.847-1.646
		c7.92-1.234,15.327-1.749,22.219-1.749c2.263,0,4.423,0,6.584,0.206C610.994,652.37,613.154,652.473,615.108,652.679z"/>
	<path class="st2" d="M680.447,647.657c0.173-0.058,0.405-0.116,0.578-0.173c-0.694,0.231-1.446,0.52-2.141,0.81
		C679.406,648.062,679.926,647.831,680.447,647.657z"/>
	<path class="st2" d="M685.984,645.787c-0.926,0.308-1.852,0.617-2.778,0.925c0.103-0.103,0.309-0.205,0.411-0.205
		C684.441,646.198,685.161,645.89,685.984,645.787z"/>
	<path class="st2" d="M824.969,727.729c1.678,3.761,3.067,7.174,4.166,10.183c-0.637-1.678-1.389-3.471-2.198-5.38l-0.058-0.116
		c-2.141-5.207-4.86-11.166-8.158-17.415c2.083,3.761,3.819,7.406,5.38,10.819l0.232,0.463L824.969,727.729z"/>
	<path class="st2" d="M959.714,651.342c-6.687,0.206-12.138,0.617-17.076,1.131c-7.715,0.823-14.505,1.749-20.676,2.984
		c-3.086,0.514-6.172,1.131-9.155,1.852c-2.778,0.514-5.349,1.131-7.818,1.852l-4.938,1.337c-5.864,1.646-11.418,3.497-16.664,5.657
		c0,0-2.881,1.131-3.704,1.44c-5.76,2.366-10.904,4.835-15.841,7.612c-1.44,0.72-2.778,1.543-4.629,2.572l-4.114,2.572
		c-4.526,2.88-8.847,5.966-12.961,9.258c-18.516-31.066-49.582-65.629-97.93-73.447c-1.646-0.72-3.6-1.44-5.761-2.16
		c-7.406-2.366-17.487-4.629-29.729-4.629c-9.464,0-19.133,1.337-28.494,3.909c-10.287,2.778-20.574,7.098-30.552,12.858
		c-11.521-3.6-27.568-6.892-47.422-6.892c-5.143,0-10.39,0.206-15.636,0.72c6.893-9.155,15.225-17.899,25.1-25.923
		c26.437-22.116,63.675-40.324,114.286-51.537c151.317-33.432,206.557,33.329,226.719,85.997c1.44,3.806,2.675,7.406,3.806,11.006
		c0.308,0.926,0.617,1.955,0.823,2.984C958.273,645.478,958.993,648.462,959.714,651.342z"/>
	<path class="st0" d="M959.714,651.342c-6.687,0.206-12.138,0.617-17.076,1.131c-7.715,0.823-14.505,1.749-20.676,2.984
		c-3.086,0.514-6.172,1.131-9.155,1.852c-2.778,0.514-5.349,1.131-7.818,1.852l-4.938,1.337c-5.864,1.646-11.418,3.497-16.664,5.657
		c0,0-2.881,1.131-3.704,1.44c-5.76,2.366-10.904,4.835-15.841,7.612c-1.44,0.72-2.778,1.543-4.629,2.572l-4.114,2.572
		c-4.526,2.88-8.847,5.966-12.961,9.258c-18.516-31.066-49.582-65.629-97.93-73.447c-1.646-0.72-3.6-1.44-5.761-2.16
		c-7.406-2.366-17.487-4.629-29.729-4.629c-9.464,0-19.133,1.337-28.494,3.909c-10.287,2.778-20.574,7.098-30.552,12.858
		c-11.521-3.6-27.568-6.892-47.422-6.892c-5.143,0-10.39,0.206-15.636,0.72c6.893-9.155,15.225-17.899,25.1-25.923
		c26.437-22.116,63.675-40.324,114.286-51.537c151.317-33.432,206.557,33.329,226.719,85.997c1.44,3.806,2.675,7.406,3.806,11.006
		c0.308,0.926,0.617,1.955,0.823,2.984C958.273,645.478,958.993,648.462,959.714,651.342z"/>
	<path class="st0" d="M1271.322,1452.191c-29.738,40.383-97.775-49.929-93.494-86.031c0,0-43.565-58.434-30.837-110.503
		c12.786-52.07,10.645-73.302,10.645-73.302s-57.74-81.055-45.011-177.673c0.752-5.786,1.736-11.629,3.066-17.472
		c0.116-0.81,0.347-1.678,0.521-2.488c0,0-3.414-5.265-7.869-13.712c-6.827-12.902-16.083-33.151-19.323-53.053
		c-0.232-1.388-0.405-2.719-0.579-4.05c-0.057-0.405-0.115-0.81-0.115-1.215c-0.116-1.157-0.232-2.314-0.289-3.413
		c-0.116-1.678-0.174-3.356-0.174-4.976c0-1.562,0.058-3.067,0.174-4.513c0-0.231,0-0.463,0.057-0.694
		c0-0.521,0.058-1.041,0.116-1.504c0.058-0.578,0.116-1.099,0.231-1.62c0.116-1.099,0.29-2.199,0.579-3.298
		c0.289-1.678,0.694-3.24,1.157-4.744c0.289-0.984,0.636-1.967,0.983-2.893c0-0.058,0.058-0.058,0.058-0.116
		c0.405-1.041,0.868-2.025,1.331-2.951c0.463-0.983,0.926-1.909,1.446-2.777c0.058-0.116,0.116-0.231,0.231-0.347
		c0.521-0.868,1.042-1.678,1.62-2.43c0.636-0.868,1.33-1.736,2.083-2.604c0.694-0.81,1.504-1.678,2.314-2.43
		c0.81-0.81,1.678-1.562,2.604-2.314c0.694-0.636,1.446-1.215,2.256-1.736c0.289-0.231,0.579-0.405,0.868-0.578
		c0.694-0.463,1.389-0.926,2.083-1.331c0.347-0.231,0.752-0.463,1.157-0.636c0.81-0.463,1.62-0.925,2.488-1.331
		c0.694-0.347,1.388-0.637,2.083-0.926c0.81-0.405,1.62-0.694,2.488-1.041c1.389-0.521,2.719-0.983,4.108-1.388
		c0.289-0.116,0.579-0.174,0.868-0.231c0.81-0.289,1.62-0.463,2.43-0.637c0.231-0.058,0.463-0.058,0.694-0.115
		c0.231-0.058,0.463-0.116,0.694-0.116c0.694-0.174,1.388-0.289,2.083-0.347c0.579-0.058,1.157-0.116,1.678-0.174
		c1.099-0.116,2.198-0.173,3.24-0.173c0.058,0,0.058,0,0.115,0h0.058c0.926,0,1.851,0.058,2.719,0.116
		c0.463,0.057,0.926,0.115,1.446,0.173c0.81,0.058,1.562,0.174,2.314,0.347c0.521,0.116,0.984,0.231,1.446,0.347
		c0.116,0,0.174,0,0.232,0.058c0.81,0.174,1.62,0.405,2.372,0.694c1.099,0.347,2.198,0.81,3.298,1.331
		c0.694,0.29,1.389,0.637,2.025,1.042c1.099,0.578,2.141,1.273,3.182,1.967c1.157,0.752,2.198,1.62,3.24,2.488l0.058,0.058
		l0.058,0.058c2.083,1.736,3.992,3.76,5.786,5.959c0,0,23.489,30.837,22.101,78.22c0.058,1.735,0.058,3.414,0,4.975v0.058
		c-0.173,12.555-1.851,22.911-4.686,28.523c0,0,43.565,177.442,26.556,193.41c0,0-9.546,65.839,10.645,90.254
		c20.134,24.473,0,79.724,0,79.724S1301.06,1411.808,1271.322,1452.191z"/>
	<path class="st0" d="M1276.008,833.777c-15.852-15.795-34.887-24.936-53.458-24.936c-13.596,0-26.267,5.091-35.755,14.348
		c-5.323,5.207-9.893,10.761-13.654,16.604c-11.918-9.315-25.861-14.29-40.961-14.29c-9.083,0-18.398,1.794-27.713,5.381
		c-22.563,8.678-38.242,24.646-45.301,46.226c-10.992,33.614,2.314,72.782,14.695,98.701c-49.524,5.265-95.577,3.182-121.149-3.529
		c-4.86-1.273-9.662-2.546-14.348-3.877c0.984-12.265,1.562-23.489,1.967-32.688c15.621-12.67,27.365-40.614,37.953-88.171
		c0.521-2.314,1.041-4.629,1.562-6.885c5.091-21.812,12.091-51.607-6.827-75.385c-19.497-24.646-53.574-24.646-64.798-24.646
		c-10.356,0-19.96,1.041-28.696,3.182c-4.628,1.099-8.968,2.545-13.133,4.223l-0.058-2.43l-1.273-3.934
		c-0.81-2.893-3.298-10.992-7.868-21.869c4.628-4.223,9.778-8.158,15.447-11.745c1.157-0.694,2.314-1.446,3.471-2.141
		c1.099-0.636,2.199-1.273,3.298-1.851c4.05-2.256,8.273-4.281,12.844-6.19c1.099-0.463,2.198-0.868,3.356-1.331
		c4.223-1.678,8.736-3.182,13.422-4.513c1.446-0.405,2.95-0.81,4.455-1.215c2.083-0.578,4.166-1.099,6.306-1.504
		c2.604-0.636,5.323-1.157,8.042-1.62c5.728-1.099,11.802-1.909,18.109-2.546c5.843-0.636,11.976-0.984,18.398-1.215
		c10.24-0.347,21.117-0.173,32.804,0.579c20.365,1.215,42.928,4.108,67.98,8.91h0.058c11.224,2.141,22.968,4.744,35.234,7.695
		c3.645,0.868,7.406,1.851,11.166,2.95c27.713,7.637,58.607,19.729,86.089,35.755l0.347,0.173c3.703,2.141,7.348,4.397,10.877,6.711
		c24.589,15.852,45.417,35.118,57.335,57.392c1.851,3.529,3.529,7.116,4.918,10.819
		C1273.521,820.991,1275.198,827.24,1276.008,833.777z"/>
	<path class="st0" d="M1343.526,1225.92c-54.152,23.374-80.708-89.271-72.203-131.736c0,0-56.293-60.575-45.706-136.018
		c0,0-4.57-4.628-10.24-12.323c-0.231-35.407-11.339-62.715-19.786-78.336c0-0.115,0.058-0.289,0.116-0.405
		c0.983-2.488,2.198-4.918,3.645-7.348c0.405-0.752,0.868-1.446,1.389-2.199c1.157-1.909,2.488-3.761,4.05-5.554
		c0.752-0.926,1.562-1.851,2.372-2.719c0.752-0.868,1.62-1.736,2.546-2.604v-0.058c0.868-0.81,1.735-1.562,2.719-2.141
		c2.43-1.562,5.091-2.488,8.042-2.719c0.694-0.058,1.331-0.116,2.083-0.116c0.231,0,0.463,0,0.752,0.058
		c0.695-0.058,1.446,0,2.198,0.116c0.752,0.116,1.562,0.232,2.372,0.405c0.926,0.174,1.851,0.405,2.777,0.694
		c0.926,0.289,1.909,0.637,2.835,0.984c0.926,0.347,1.909,0.752,2.835,1.215c1.215,0.579,2.488,1.215,3.703,1.967
		c0.521,0.289,1.099,0.636,1.678,1.041c0.173,0.058,0.347,0.174,0.578,0.347c1.851,1.157,3.703,2.546,5.496,4.05
		c0.926,0.752,1.851,1.504,2.719,2.314c0.116,0.116,0.232,0.174,0.289,0.29c5.496,4.975,10.646,11.224,14.985,18.456
		c1.33,2.141,2.546,4.397,3.645,6.711c2.43,4.918,4.455,10.125,5.959,15.679h0.058c2.893,10.645,3.876,22.332,2.141,34.597
		c0,0,50.045,100.899,37.317,139.2C1314.887,1069.769,1397.736,1202.546,1343.526,1225.92z"/>
	<path class="st0" d="M1538.239,1131.012c-42.792,39.912-108.834-107.188-108.834-107.188
		c-52.668-28.083-77.253-116.549-77.253-116.549c-16.253-5.349-28.494-15.533-37.135-25.511l-6.481-52.051
		c-1.028-7.818-2.88-15.739-5.555-23.145c2.778-2.778,6.275-5.658,10.698-7.818c0.103,0,0.103-0.103,0.206-0.103
		c0.514-0.309,1.029-0.617,1.543-0.823c1.748-0.823,3.703-1.44,5.76-1.955c0.514-0.205,1.131-0.308,1.646-0.411
		c0.412-0.206,0.926-0.309,1.44-0.309c0.72-0.205,1.44-0.308,2.263-0.411c5.452-0.617,11.624-0.206,18.517,1.852
		c14.401,4.423,25.1,20.779,32.712,38.267c10.39,23.659,15.018,49.273,15.018,49.273c3.601,3.292,7.098,6.481,10.39,9.669
		c66.967,64.806,62.029,108.731,62.029,108.731S1581.032,1091.202,1538.239,1131.012z"/>
	<path class="st3" d="M1988.695,1127.823c-10.184,18.619-42.279,2.983-72.007-17.488c-30.243-20.676-58.12-46.496-58.12-46.496
		s-4.012,1.954-12.755-0.102c-17.693-4.115-55.343-24.688-119.429-111.611c0,0-31.375,10.184-65.424-25.203
		c-34.049-35.489-113.154-79.002-113.154-79.002s-25.82,0-56.474-36.107c-30.654-36.106-55.137-32.095-55.137-32.095
		s2.366,25.203-27.877,43.204c-0.205-0.411-0.308-0.925-0.514-1.337c-13.579-30.757-31.375-49.787-53.285-56.371
		c-7.818-2.366-15.636-3.498-23.248-3.498c-2.778,0-5.452,0.103-8.126,0.412c-1.646,0.205-3.292,0.411-4.938,0.822
		c-0.925,0.103-1.851,0.309-2.777,0.515c-1.029,0.205-2.057,0.514-2.984,0.72c-3.6,0.925-6.995,2.16-10.184,3.6
		c-1.646,0.72-2.88,1.337-3.703,1.852c-0.411,0.206-0.72,0.411-1.131,0.617c19.75-19.03,47.113-41.455,77.562-54.828
		c31.066-13.579,65.32-17.59,97.313,1.646c0,0,84.454,32.712,104.925,72.932c0,0,6.378,2.469,16.767,6.995
		c28.803,12.55,88.363,39.81,125.704,67.584c21.294,15.842,35.386,31.786,32.609,45.262c0,0,65.115,43.719,104.101,79.619
		c17.179,15.739,29.318,29.935,28.7,38.267c0,0,20.059,10.081,42.689,24.585C1961.435,1074.023,2000.833,1105.398,1988.695,1127.823
		z"/>
	<path class="st2" d="M1203.747,669.353c-4.744,9.199-9.199,19.034-13.365,29.564L1203.747,669.353z"/>
	<path class="st2" d="M1737.287,836.812c-39.295-28.7-98.341-55.96-130.23-69.847c-2.88-1.234-5.349-2.366-7.612-3.292
		c-28.906-40.53-93.815-68.612-112.743-76.224c-19.03-10.801-39.81-16.356-61.617-16.356c-0.411,0-0.823,0-1.131,0.103
		c-14.916-4.937-29.523-13.578-39.809-20.367h-0.103c-8.332-5.555-13.578-9.773-13.578-9.773c0.823,4.423,1.44,8.846,1.954,13.064
		c1.337,9.361,2.057,18.207,2.469,26.128c-4.32,1.543-8.744,3.292-13.167,5.143c-22.528,9.979-59.561,37.958-88.466,63.058
		c-1.646,1.44-3.292,2.778-4.834,4.217c-11.624-11.829-25.511-23.042-41.559-33.432c-2.469-1.543-4.937-3.086-7.406-4.629
		c23.968-62.646,59.252-98.033,84.557-116.755c18.105-13.373,30.963-18.207,30.963-18.207c13.064-5.246,25.203-8.024,36.518-8.95
		c70.875-5.863,109.245,61.72,109.245,61.72c140.413,30.141,136.196,92.169,136.196,92.169
		c13.373,6.378,18.824,17.899,23.145,29.215c2.057,5.452,3.806,10.801,6.069,15.635
		C1650.981,779.617,1707.455,811.712,1737.287,836.812z"/>
	<path class="st3" d="M1737.287,836.812c-39.295-28.7-98.341-55.96-130.23-69.847c-2.88-1.234-5.349-2.366-7.612-3.292
		c-28.906-40.53-93.815-68.612-112.743-76.224c-19.03-10.801-39.81-16.356-61.617-16.356c-0.411,0-0.823,0-1.131,0.103
		c-14.916-4.937-29.523-13.578-39.809-20.367h-0.103c-8.332-5.555-13.578-9.773-13.578-9.773c0.823,4.423,1.44,8.846,1.954,13.064
		c1.337,9.361,2.057,18.207,2.469,26.128c-4.32,1.543-8.744,3.292-13.167,5.143c-22.528,9.979-59.561,37.958-88.466,63.058
		c-1.646,1.44-3.292,2.778-4.834,4.217c-11.624-11.829-25.511-23.042-41.559-33.432c-2.469-1.543-4.937-3.086-7.406-4.629
		c23.968-62.646,59.252-98.033,84.557-116.755c18.105-13.373,30.963-18.207,30.963-18.207c13.064-5.246,25.203-8.024,36.518-8.95
		c70.875-5.863,109.245,61.72,109.245,61.72c140.413,30.141,136.196,92.169,136.196,92.169
		c13.373,6.378,18.824,17.899,23.145,29.215c2.057,5.452,3.806,10.801,6.069,15.635
		C1650.981,779.617,1707.455,811.712,1737.287,836.812z"/>
	<path class="st3" d="M1329.756,546.642c-2.256,0.752-4.512,1.62-6.769,2.546c-4.05,1.562-18.861,7.81-38.474,22.274
		c-3.24,2.372-6.596,5.033-10.067,7.868c-23.547,1.273-58.896-9.025-58.896-9.025c-2.719-7.695,0-20.77,0-20.77
		s-7.174,12.902-6.654,35.176c0.232,10.992-2.372,49.003-5.149,84.642c-4.744,9.199-9.199,19.034-13.365,29.564
		c-21.985-10.703-45.995-19.787-69.6-26.324c-4.281-1.273-8.562-2.372-12.67-3.355c-0.116,0-0.231-0.058-0.347-0.058
		c-8.968-133.009,41.482-141.629,41.482-141.629s23.431-31.531,87.072-31.531C1287.059,496.019,1318.937,532.062,1329.756,546.642z"
		/>
	<path class="st2" d="M1203.747,669.353c-4.744,9.199-9.199,19.034-13.365,29.564L1203.747,669.353z"/>
	<path class="st3" d="M1072.474,661.427c-0.405-0.057-0.752-0.173-1.157-0.231l-3.124-0.578c-26.787-5.033-51.896-8.1-74.865-9.199
		c-2.025-10.183-5.149-22.101-10.009-34.655c-6.133-16.026-16.315-36.159-32.804-55.078c2.372-50.449,13.828-77.931,13.828-77.931
		s-33.325-73.071,31.126-73.071c64.508,0,56.756,66.186,56.756,66.186C1088.789,533.798,1080.689,616.473,1072.474,661.427z"/>
</g>
<g>
	<path class="st3" d="M453.607,1497.939H346.111c-135.476-158.21-217.359-363.532-217.359-587.68
		c0-11.007,0.206-21.911,0.618-32.815l10.698,2.057l15.944-6.275c7.509-2.983,28.7-11.624,53.799-24.071
		c-1.543,20.162-2.263,40.53-2.263,61.103C207.549,1139.961,301.775,1348.061,453.607,1497.939z"/>
	<path class="st3" d="M1901.052,1169.895c-36.621,122.104-98.341,233.509-179.297,328.044h-107.599
		c103.793-102.455,180.738-232.068,218.902-377.317c0.617,0.206,1.337,0.411,1.954,0.514
		C1860.316,1143.15,1882.227,1158.889,1901.052,1169.895z"/>
	<path class="st3" d="M1939.01,910.258c0,26.437-1.131,52.566-3.498,78.385c-1.543-0.926-3.086-1.749-4.526-2.572
		c-11.315-17.282-32.3-39.707-70.875-70.258c0.102-1.852,0.102-3.704,0.102-5.555c0-455.599-370.733-826.229-826.332-826.229
		c-361.27,0-669.152,232.995-781.174,556.615c-5.658,3.497-11.213,7.406-16.562,11.624c-25.819,9.978-53.799,21.808-79.516,34.872
		C256.205,295.627,611.714,5.13,1033.881,5.13C1532.992,5.13,1939.01,411.249,1939.01,910.258z"/>
</g>
<g>
	<rect x="1533.463" y="1576.467" class="st4" width="78.51" height="418.403"/>
	<g>
		<polygon class="st4" points="1428.328,1576.467 1343.108,1766.299 1385.254,1865.141 1512.602,1576.467 		"/>
		<polygon class="st4" points="1338.036,1824.211 1332.933,1812.405 1232.637,1576.467 1148.442,1576.467 1327.243,1994.87 
			1369.828,1898.771 		"/>
	</g>
	<g>
		<polygon class="st4" points="940.856,1896.183 882.022,1994.87 787.173,1994.87 890.696,1815.435 		"/>
		<polygon class="st4" points="1124.337,1994.87 1034.609,1994.87 958.28,1866.557 908.12,1785.809 792.715,1576.467 
			887.915,1576.467 958,1703.447 1003.46,1785.809 		"/>
		<polygon class="st4" points="1118.795,1576.467 1020.701,1753.319 975.241,1670.957 1024.015,1576.467 		"/>
	</g>
	<g>
		<polygon class="st4" points="592.264,1896.183 533.43,1994.87 438.581,1994.87 542.103,1815.435 		"/>
		<polygon class="st4" points="775.745,1994.87 686.017,1994.87 609.688,1866.557 559.528,1785.809 444.123,1576.467 
			539.323,1576.467 609.408,1703.447 654.868,1785.809 		"/>
		<polygon class="st4" points="770.202,1576.467 672.109,1753.319 626.649,1670.957 675.423,1576.467 		"/>
	</g>
</g>
</svg>
