<?xml version="1.0" encoding="utf-8"?>
<!-- Generator: Adobe Illustrator 19.0.0, SVG Export Plug-In . SVG Version: 6.00 Build 0)  -->
<svg version="1.1" id="Layer_1" xmlns="http://www.w3.org/2000/svg" xmlns:xlink="http://www.w3.org/1999/xlink" x="0px" y="0px"
	 viewBox="0 0 2000 2000" style="enable-background:new 0 0 2000 2000;" xml:space="preserve">
<style type="text/css">
	.st0{fill:#985D5E;}
	.st1{fill:#683F3F;}
	.st2{fill:#604A35;}
</style>
<g>
	<g>
		<path class="st0" d="M1792.217,442.809c-21.122-7.835-38.508-11.244-51.512-21.328c-13.004-10.011-18.895-15.959-56.182-17.193
			c-37.215-1.233-40.592-0.29-55.535-10.011c-14.872-9.721-40.305-2.539-40.305-2.539s-166.031-65.798-216.609,216.98
			c-5.029,28.075-102.808,2.829-236.366,43.164c-133.486,40.335-252.316,50.999-303.828,31.847
			C780.368,664.65,271.857,576.29,0,781.228c3.377-1.306,67.749-26.334,156.907-47.081c0,0,0.072,0,0.215-0.073h0.216
			c75.939-17.701,169.839-32.21,259.356-26.479c197.786,12.768,557.652,152.053,557.652,152.053s-14.225-47.009-12.285-70.513
			c0,0,16.021,94.96,162.511,189.921c13.004,8.415,27.085,16.903,42.244,25.245c0,0-43.178,29.163-48.495,85.022
			c-5.316,55.932-34.916,67.394-37.215,80.452c-2.227,12.985,26.582,150.094,45.549,157.784
			c15.59,6.311,57.906,20.458,79.603,21.546c-2.155-3.41-3.233-7.835-3.233-14.074v-1.741l0.575-1.596
			c0.862-2.684,3.017-6.239,6.466-9.141c-2.514-0.725-5.316-1.451-8.406-2.104c-33.623-7.109-31.468-16.395-31.468-16.395
			s53.811,11.97,76.37,9.866c-0.215-0.217-0.359-0.435-0.575-0.653c-3.161-3.99-4.526-9.141-3.807-14.364
			c0.072-2.684,0.862-7.834,4.957-12.333c0.575-0.58,1.149-1.233,1.94-1.886c-8.19-1.596-24.068-1.524-40.161-4.788
			c-0.072,0-0.144-0.073-0.215-0.073c-0.36-0.073-0.791-0.145-1.15-0.217c-13.291-2.829-26.582-8.052-35.706-18.209
			c-5.029-5.659-9.914-12.187-14.369-19.079c-14.153-22.053-23.637-47.662-18.68-58.108
			c6.466-13.638,114.304-122.528,116.459-150.965c2.155-28.437,8.118-41.568,2.155-58.543c-1.221-3.409-2.443-8.27-3.807-14.291
			v-0.073c-5.532-23.795-13.004-66.451-27.588-117.667c1.724,3.41,15.518,31.484,19.972,49.403c0,0,49.86-15.235,72.563-34.676
			c-3.951,4.57-39.442,47.299-29.528,82.846c0.718,2.539,1.58,4.933,2.73,7.182c14.44,30.687,59.415,32.282,80.321,35.765
			c22.415,3.699,44.974,13.275,41.31,22.779c-3.664,9.576-17.243,45.993-57.475,60.212c-16.74,5.948-28.019,11.389-35.419,15.669
			c-0.431,0.29-0.863,0.508-1.222,0.87c2.299,0.798,4.311,2.176,5.963,3.99c3.448,3.772,4.167,8.488,4.31,11.099
			c0.288,1.596,0.288,3.192,0.072,4.788c17.458-6.021,44.687-16.395,53.667-25.463c13.65-13.783,23.277-21.908,23.277-21.908
			s-9.124,21.981-22.631,39.101c-3.951,5.006-8.765,10.592-13.722,16.178c-3.161,3.482-6.394,6.964-9.483,10.301
			c-8.621,9.358-16.596,17.701-20.188,22.344c0,0-5.173,3.192-11.064,8.125c0,0-0.072,0-0.144,0.145
			c-4.454,3.772-9.268,8.488-12.501,13.566c-2.73,4.135-4.311,8.56-3.808,12.913c0.144,1.016,0.288,1.959,0.647,2.902
			c1.796,5.078,4.526,6.964,7.687,6.819l0.071-0.073c7.544-0.363,17.315-12.333,22.2-17.991
			c6.897-8.125,61.857-54.699,71.844-76.825c9.986-22.053,39.945-93.075,29.959-105.479c-0.718-0.87-1.724-2.031-3.017-3.265
			c-16.093-16.468-72.922-61.59-95.337-63.404c0,0,29.312-20.095,54.314-48.75c0-0.073,0-0.073,0-0.073
			c20.548-23.504,38.006-52.74,33.982-81.322c0,0,42.963-69.208,64.3-118.32c21.266-49.113,49.428-99.023,96.342-99.023
			c46.339,0,53.165-13.711,59.199-15.742c-5.172,1.088-90.523,19.369-116.171-23.939c2.011,1.668,42.963,35.837,120.913,16.975
			c79.818-19.297,143.113,0.218,151.015-52.812c0,0,7.4-0.145,6.61-3.772C1816.787,490.253,1813.267,450.643,1792.217,442.809z
			 M1609.733,425.616c20.691-15.161,23.78,24.665,23.78,24.665C1605.351,472.769,1589.042,440.778,1609.733,425.616z"/>
		<path class="st1" d="M1112.59,1000.095c-5.223,12.768-15.452,27.059-35.547,29.816c-37.505,5.078-143.42,77.985-169.754,89.084
			c-26.334,11.172-21.038,78.711-21.038,78.711c1.161,0.363,2.684,1.234,4.425,2.539c8.995,6.529,23.649,23.65,17.628,32.79h-0.073
			c-1.016,1.596-2.757,2.974-5.296,3.99c-1.886,0.725-3.627,1.378-5.296,1.958c-0.508,0.145-1.161,0.363-1.161,0.363
			c-0.145,0.072-0.29,0.072-0.435,0.145c-1.524,0.508-3.119,0.87-4.57,1.234c-5.949,1.451-11.099,1.958-15.525,1.668
			c-32.427-2.467-28.147-46.573-28.147-46.573c-8.633,42.366,13.494,50.998,26.044,52.667c0.217,0,0.435,0.073,0.581,0.073
			c4.28,0.435,7.254,0.073,7.254,0.073c-0.073,0.145-0.145,0.29-0.145,0.435c-0.218,0.435-0.363,0.943-0.508,1.451
			c-0.145,0.508-0.29,1.016-0.363,1.451c-0.073,0.363-0.145,0.725-0.145,1.16c-0.145,1.741-0.073,3.555,0.291,5.224
			c0.145,0.653,0.29,1.233,0.507,1.886c0.363,1.233,0.871,2.394,1.451,3.627c0.29,0.58,0.581,1.161,1.016,1.741
			c0.218,0.435,0.508,0.871,0.798,1.306c0.218,0.363,0.435,0.725,0.726,1.088c0.653,0.943,1.378,1.886,2.249,2.757
			c0.871,0.943,1.741,1.959,2.757,2.829c0.072,0.145,0.217,0.218,0.363,0.363c0.725,0.653,1.596,1.378,2.394,2.031
			c2.249,1.741,4.642,3.337,7.109,4.643c0.073,0.072,0.145,0.072,0.217,0.145c0.653,0.291,1.378,0.726,2.249,1.234v0.072
			c-0.725,0.726-1.523,1.596-2.176,2.539c-6.601,8.778-6.239,19.152,0.798,27.349c-25.318,0.58-70.586-72.98-66.958-93.074
			c3.918-22.054,3.627-111.138,10.156-127.171c6.601-16.105,60.72-33.951,60.72-33.951c37.505-63.041,98.225-91.551,98.225-91.551
			s-67.031-44.325-103.448-49.04c-36.49-4.715-47.154-42.801-102.215-76.462c-28.8-17.628-58.108-32.79-87.634-45.848
			c133.409,40.045,246.651,83.208,248.682,84.007l24.665,9.431c25.826,32.718,64.782,70.513,123.253,108.091
			C1108.673,997.629,1110.632,998.862,1112.59,1000.095z"/>
		<path class="st1" d="M933.188,1266.188c0,0,2.394-26.624-14.074-32.282c4.135-13.348-7.544-28.946-17.338-37.796
			c11.607-3.119,29.671-4.425,40.553,12.477C959.232,1234.994,933.188,1266.188,933.188,1266.188z"/>
		<path class="st1" d="M928.182,1329.374c0,0-6.384-12.768-17.266-22.344h-0.073c-7.327-6.529-4.715-12.84-2.176-16.177
			c1.088-1.596,2.249-2.539,2.249-2.539h0.073c0.073,0,0.218,0,0.29,0.072c0.798,0.145,1.596,0.29,2.321,0.508h0.073
			c0.435,0.145,0.798,0.218,1.233,0.435c0.653,0.218,1.233,0.435,1.814,0.726c0.435,0.217,0.798,0.435,1.161,0.725
			c0.435,0.218,0.725,0.508,1.088,0.726c0.726,0.507,1.306,1.015,1.886,1.596l0.145,0.145c0.508,0.508,1.016,1.088,1.524,1.741
			c0.29,0.363,0.507,0.725,0.798,1.088C931.374,1308.119,928.182,1329.374,928.182,1329.374z"/>
		<path class="st2" d="M880.811,1258.353c-0.435-1.741-0.508-3.482-0.291-5.224C880.376,1254.871,880.448,1256.684,880.811,1258.353
			z"/>
		<path class="st1" d="M927.602,1279.899c-0.217,1.233-1.306,2.249-2.829,3.119c-0.943,0.508-2.031,0.943-3.192,1.378l-3.482-3.482
			c-0.653-0.653-1.378-1.306-2.176-2.031c0,0,0,0-0.073,0c-0.073-0.145-0.217-0.217-0.363-0.363l-0.725-0.508
			c-2.176-1.814-4.426-3.409-6.674-4.715c-1.015-0.653-2.176-1.306-3.337-1.886c-9.213-4.933-15.742-13.856-13.638-18.717
			l0.653-1.451c2.539-0.58,5.223-1.233,7.907-2.104c0.29-0.073,0.581-0.218,0.871-0.29c3.7,7.182,10.229,17.048,21.038,23.794
			C926.369,1275.619,927.965,1278.013,927.602,1279.899z"/>
		<path class="st1" d="M955.459,1300.356c-1.088-0.29-9.939-2.974-20.385-3.99c0,0,0,0-0.073,0c-0.798-2.031-1.814-3.99-2.974-5.803
			c2.104-1.524,4.063-3.627,5.078-6.602C942.619,1287.008,949.583,1292.159,955.459,1300.356z"/>
		<path class="st2" d="M881.682,1248.632c-0.073,0.145-0.145,0.29-0.145,0.435c-3.409,0-6.021-0.363-7.109-0.508
			C878.707,1248.995,881.682,1248.632,881.682,1248.632z"/>
		<path class="st0" d="M1246.834,1299.813c-1.078,5.389,2.515,10.419,10.06,10.06c7.545-0.359,16.886,13.652,16.886,13.652
			s-1.796-34.131-14.73-33.772C1246.115,1290.113,1246.834,1299.813,1246.834,1299.813z"/>
		<path class="st0" d="M1207.314,1335.022c0,8.623,2.156,10.778,9.7,14.73c7.545,3.952,11.856,15.449,11.856,15.449
			s6.826-35.209-5.748-37.364C1210.547,1325.681,1207.314,1335.022,1207.314,1335.022z"/>
		<path class="st0" d="M1202.11,1269.162c-13.203-2.975-22.634-7.835-28.945-14.654c-3.047-3.409-6.094-7.255-9.068-11.39
			c3.409,0.363,6.457,0.943,9.286,1.596C1193.405,1249.503,1200.079,1260.53,1202.11,1269.162z"/>
		<path class="st0" d="M1202.11,1269.162c-13.203-2.975-22.634-7.835-28.945-14.654c-3.047-3.409-6.094-7.255-9.068-11.39
			c3.409,0.363,6.457,0.943,9.286,1.596C1193.405,1249.503,1200.079,1260.53,1202.11,1269.162z"/>
		<path class="st0" d="M1249.699,1268.944c0,0-21.546-23.722-38.231-4.498c-2.611-8.705-9.938-21.473-29.961-28.075
			c7.327-6.311,19.079-13.421,34.459-13.421C1243.605,1222.952,1256.156,1249.14,1249.699,1268.944z"/>
		<path class="st1" d="M1274.002,943.075c0.87,3.192,1.959,6.021,3.12,8.343c-7.11,2.757-13.929,4.933-19.079,6.384
			c-1.451-6.456-3.12-14.219-5.005-23.214c-2.104-9.794-4.498-21.038-7.255-33.443c5.658-1.741,20.385-6.674,36.127-13.638
			C1274.074,904.119,1268.633,924.141,1274.002,943.075z"/>
		<path class="st1" d="M1494.827,1175.652c-3.337-2.104-6.529-2.612-8.995-2.612c-5.586,0-10.301,2.684-13.783,5.658
			c0.653-7.254,1.668-15.524,2.249-22.996c0.29-3.773,0.508-7.327,0.58-10.446c0-1.741-0.072-3.337-0.145-4.788
			c-0.653-10.592-3.337-17.048-3.337-17.048s0,8.053-2.031,16.323c-2.539-1.596-6.094-2.757-10.954-2.757
			c-1.596,0-3.265,0.145-4.861,0.291c-2.757,0.363-5.441,1.015-7.544,1.596c1.451-8.125,4.353-16.975,4.643-22.198
			c0.653-11.607,2.031-52.087,4.715-75.519c0.145-1.161,0.291-2.394,0.435-3.555c15.162-47.082,6.602-57.6,1.741-63.549
			c-1.016-1.306-2.539-2.975-4.426-4.788c-4.063-4.062-19.732-17.991-38.811-32.427c22.706,9.503,53.61,19.369,64.202,23.577
			c17.701,7.037,17.701,20.24,15.235,38.231c-2.394,17.991-3.337,61.518-0.943,85.022c2.394,23.432,0.363,33.298-0.363,50.636
			C1491.925,1146.925,1495.625,1163.755,1494.827,1175.652z"/>
		<path class="st1" d="M1465.519,1149.899c0,0-4.208,13.493-16.105,21.981c0,0,0,0,0,0.073c-7.472,5.368-17.991,8.705-32.5,5.441
			c0,0,26.334-9.721,28.437-27.494c0,0,4.643-1.741,9.576-2.394C1459.135,1146.925,1463.56,1147.142,1465.519,1149.899z"/>
		<path class="st1" d="M1453.042,1225.418c0,0,16.902-12.84,21.038-33.878c0,0,9.721-14.364,17.701-5.151
			C1499.76,1195.602,1471.83,1225.708,1453.042,1225.418z"/>
		<path class="st1" d="M1463.851,1185.591c0,0,0,0,0,0.073c-0.508,1.451-6.456,17.773-34.386,23.722c0,0,18.716-19.66,20.965-28.51
			C1452.678,1172.098,1463.851,1185.591,1463.851,1185.591z"/>
		<path class="st0" d="M1337.115,1126.25c-3.337,3.627-6.166,6.674-8.198,9.141c-1.668,1.088-4.57,3.12-7.907,5.658l-2.757,0.073
			l-1.886,3.772c-3.555,3.12-6.601,6.166-9.141,9.213c-0.217,0-0.508-0.145-0.725-0.218c-1.234-0.508-2.249-1.378-3.047-2.612
			c-2.249-3.482-1.741-7.182,0.653-9.939c2.829-3.41,8.27-5.513,14.509-4.57C1318.617,1136.769,1327.177,1130.82,1337.115,1126.25z"
			/>
		<path class="st0" d="M1292.646,1152.293c-5.296-2.322-11.317-7.254-16.54-17.193c0.725,0.725,6.094,5.658,16.25,6.674
			C1291.412,1145.184,1291.485,1148.811,1292.646,1152.293z"/>
		<path class="st0" d="M1300.48,1187.477c-12.188-4.643-22.996-16.54-22.996-16.54c6.239,3.99,14.146,5.731,20.312,6.457
			c0,0.653,0.073,1.306,0.145,1.959c0.217,1.596,0.507,3.265,1.16,4.933C1299.537,1185.446,1299.973,1186.534,1300.48,1187.477z"/>
		<path class="st0" d="M1311.362,1106.953c-3.119,2.611-8.343,3.772-14.364,1.886c-11.027-3.555-21.111-15.161-20.893-28.583
			c0,0,15.96,16.323,27.639,12.55c1.378-0.508,2.612-0.726,3.7-0.798h0.072c7.618-0.726,6.965,6.891,6.965,6.891
			C1315.279,1101.875,1314.046,1104.849,1311.362,1106.953z"/>
	</g>
	<g>
		
			<rect x="1357.28" y="1747.328" transform="matrix(0.0065 -1 1 0.0065 -231.0143 3340.282)" class="st0" width="416.443" height="78.143"/>
		
			<rect x="1467.641" y="1747.329" transform="matrix(0.0065 -1 1 0.0065 -121.3694 3450.6404)" class="st0" width="416.443" height="78.142"/>
		<g>
			<polygon class="st0" points="1420.16,1577.231 1334.114,1765.619 1375.425,1864.269 1504.037,1577.775 			"/>
			<polygon class="st0" points="1328.693,1823.227 1323.69,1811.443 1225.389,1575.968 1141.59,1575.424 1316.849,1993.013 
				1359.853,1897.64 			"/>
		</g>
		<g>
			<polygon class="st0" points="943.642,1895.144 885.084,1993.369 790.679,1993.369 893.716,1814.774 			"/>
			<polygon class="st0" points="1126.263,1993.369 1036.956,1993.369 960.985,1865.657 911.059,1785.287 796.195,1576.926 
				890.949,1576.926 960.706,1703.311 1005.953,1785.287 			"/>
			<polygon class="st0" points="1120.747,1576.926 1023.113,1752.949 977.866,1670.973 1026.412,1576.926 			"/>
		</g>
		<g>
			<polygon class="st0" points="596.682,1895.144 538.124,1993.369 443.72,1993.369 546.757,1814.774 			"/>
			<polygon class="st0" points="779.304,1993.369 689.996,1993.369 614.025,1865.657 564.1,1785.287 449.236,1576.926 
				543.99,1576.926 613.746,1703.311 658.993,1785.287 			"/>
			<polygon class="st0" points="773.788,1576.926 676.154,1752.949 630.906,1670.973 679.452,1576.926 			"/>
		</g>
	</g>
	<g>
		<path class="st1" d="M1809.527,360.986c-3.274-1.092-6.471-2.105-9.59-3.119c-6.55-2.105-15.516-5.068-17.699-6.315l-1.793-1.403
			c-25.34-19.414-46.313-28.926-97.227-30.642l-11.384-0.312c-1.325-0.078-2.573-0.078-3.898-0.156
			c-148.296-145.177-351.248-234.763-574.705-234.763c-338.695,0-630.219,205.836-756.06,498.998
			c-27.99,1.169-57.151,3.118-87.013,6.159C378.651,248.711,708.145,5.762,1093.231,5.762
			C1385.067,5.762,1644.858,145.247,1809.527,360.986z"/>
		<path class="st1" d="M523.127,1498.545h-108.22c-138.472-158.432-222.444-365.516-222.444-592.014
			c0-43.272,3.041-85.843,9.045-127.478c20.428-1.56,40.232-2.339,59.334-2.339c6.861,0,13.645,0.078,20.272,0.312
			c-6.705,42.181-10.214,85.454-10.214,129.505C270.899,1138.798,367.736,1348.923,523.127,1498.545z"/>
		<path class="st1" d="M1994,906.53c0,226.499-83.894,433.583-222.365,592.014h-108.298
			c155.469-149.621,252.228-359.746,252.228-592.014c0-120.617-26.119-235.23-72.9-338.461
			c13.333-9.746,24.716-22.845,32.435-40.699c0.702-0.78,1.403-1.56,2.027-2.417c8.187-10.37,13.099-22.689,14.268-35.632
			C1956.965,614.071,1994,756.051,1994,906.53z"/>
	</g>
</g>
</svg>
