<?xml version="1.0" encoding="utf-8"?>
<!-- Generator: Adobe Illustrator 19.0.0, SVG Export Plug-In . SVG Version: 6.00 Build 0)  -->
<svg version="1.1" id="Layer_1" xmlns="http://www.w3.org/2000/svg" xmlns:xlink="http://www.w3.org/1999/xlink" x="0px" y="0px"
	 viewBox="0 0 2000 2000" style="enable-background:new 0 0 2000 2000;" xml:space="preserve">
<style type="text/css">
	.st0{fill:#676766;}
	.st1{fill:#9A813B;}
	.st2{fill:#665C3F;}
	.st3{fill:#484D4D;}
</style>
<g id="XMLID_106_">
	<g id="XMLID_126_">
		<path id="XMLID_144_" class="st0" d="M1753.503,1012.378c-19.522-15.915-28.547-33.409-26.891-51.905
			c2.512-27.672,28.648-42.918,31.636-44.574l1.378-0.723l1.485-0.582c1.439-0.53,2.884-0.962,4.283-1.343
			c-13.3-42.295-37.913-93.85-82.674-149.214c-115.271-142.496-261.115-215.222-296.08-246.127
			c-34.964-30.904-89.613-23.857-192.931-1.89c-103.269,21.964-478.724,0.816-620.819,32.678
			c-16.693,3.727-31.458,7.678-44.593,11.823c-83.105,26.018-101.817,59.839-129.492,104.218
			c-5.217,8.464-10.85,17.346-17.292,26.621c-45.454,65.487-78.71,114.821,16.856,148.513
			c61.672,21.753,115.267,39.001,145.526,48.466c16.605,5.206,26.198,8.048,26.198,8.048s19.674-15.045,19.031-53.313
			c0,0-134.001-19.845-144.606-81.289c-10.56-61.495,53.306-102.023,53.306-102.023s-56.857,57.95-42.369,99.632
			c14.488,41.682,107.371,70.831,158.708,75.318c0,0-0.901,68.137-82.13,117.436c-81.231,49.25-83.878,47.697-66.864,61.117
			c16.965,13.424,328.717,105.598,279.426,128.747c0,0,29.437,37.523,87.044,6.848c0,0,2.021-23.718-22.101-45.823
			c-24.076-22.158-34.217-44.243-67.009-51.835c-32.844-7.638-235.831-23.084-54.415-116.474
			c181.368-93.388,297.64-122.431,78.433-259.354c239.946,104.154,121.111,191.088-68.265,268.341c0,0,146.529,8.233,208.11,35.682
			c61.536,27.5,100.282,46.547,118.508,52.584c0,0,23.711-50.609,23.329-129.212c0,0,153.197-37.157,150.786-221.091
			c0,0,44.622,129.487-124.714,238.221c0,0-10.926,170.483-94.96,344.542c0,0,47.971,23.873,50.718,39.792
			c2.27,12.956,3.053,40.768,14.859,43.719c2.742,0.714,6.037,0.069,10.058-2.337c17.453-10.493,53.504-43.911,53.281-61.065
			c-0.002-4.022-2.01-7.136-6.677-8.859c-24.701-9.219-55.878-36.776-21.404-86.234c34.471-49.507,21.926-64.429,88.61-125.291
			c115.495-105.317,312.719-92.655,283.33-219.305c46.388,122.315-107.007,118.871-213.212,199.826
			c1.198-0.466,11.453-4.385,27.527-10.183c30.087-10.831,80.557-28.362,130.545-42.578c32.876-9.335,65.599-17.189,92.109-20.785
			c0,0,31.975,23.78,33.332,61.71c1.406,37.927,18.124,47.344,33.916,56.867c15.789,9.474,23.893,32.715,25.64,45.949
			c1.794,13.182,35.352,49.127,66.289,57.667c0,0,28.598-2.352,39.016-17.169c10.417-14.818,46.34-76.578,57.97-81.268
			c11.199-4.516,21.346-17.355,32.796-65.541C1769.657,1024.576,1761.508,1018.898,1753.503,1012.378z M1636.361,1030.488
			c4.215,27.797,24.879,29.613,18.122,71.182c0,0-2.647-22.253-13.564-37.815c-10.962-15.511-34.233-50.078,21.479-90.791
			C1659.21,976.253,1632.395,1004.343,1636.361,1030.488z M1704.984,1098.165l18.758-47.41l5.323,39.402
			C1729.064,1090.156,1719.064,1103.771,1704.984,1098.165z"/>
		<path id="XMLID_139_" class="st1" d="M1753.503,1012.378c-19.522-15.915-28.547-33.409-26.891-51.905
			c2.512-27.672,28.648-42.918,31.636-44.574l1.378-0.723l1.485-0.582c1.439-0.53,2.884-0.962,4.283-1.343
			c-13.3-42.295-37.913-93.85-82.674-149.214c-115.271-142.496-261.115-215.222-296.08-246.127
			c-34.964-30.904-89.613-23.857-192.931-1.89c-103.269,21.964-478.724,0.816-620.819,32.678
			c-16.693,3.727-31.458,7.678-44.593,11.823c-83.105,26.018-101.817,59.839-129.492,104.218
			c-5.217,8.464-10.85,17.346-17.292,26.621c-45.454,65.487-78.71,114.821,16.856,148.513
			c61.672,21.753,115.267,39.001,145.526,48.466c16.605,5.206,26.198,8.048,26.198,8.048s19.674-15.045,19.031-53.313
			c0,0-134.001-19.845-144.606-81.289c-10.56-61.495,53.306-102.023,53.306-102.023s-56.857,57.95-42.369,99.632
			c14.488,41.682,107.371,70.831,158.708,75.318c0,0-0.901,68.137-82.13,117.436c-81.231,49.25-83.878,47.697-66.864,61.117
			c16.965,13.424,328.717,105.598,279.426,128.747c0,0,29.437,37.523,87.044,6.848c0,0,2.021-23.718-22.101-45.823
			c-24.076-22.158-34.217-44.243-67.009-51.835c-32.844-7.638-235.831-23.084-54.415-116.474
			c181.368-93.388,297.64-122.431,78.433-259.354c239.946,104.154,121.111,191.088-68.265,268.341c0,0,146.529,8.233,208.11,35.682
			c61.536,27.5,100.282,46.547,118.508,52.584c0,0,23.711-50.609,23.329-129.212c0,0,153.197-37.157,150.786-221.091
			c0,0,44.622,129.487-124.714,238.221c0,0-10.926,170.483-94.96,344.542c0,0,47.971,23.873,50.718,39.792
			c2.27,12.956,3.053,40.768,14.859,43.719c2.742,0.714,6.037,0.069,10.058-2.337c17.453-10.493,53.504-43.911,53.281-61.065
			c-0.002-4.022-2.01-7.136-6.677-8.859c-24.701-9.219-55.878-36.776-21.404-86.234c34.471-49.507,21.926-64.429,88.61-125.291
			c115.495-105.317,312.719-92.655,283.33-219.305c46.388,122.315-107.007,118.871-213.212,199.826
			c1.198-0.466,11.453-4.385,27.527-10.183c30.087-10.831,80.557-28.362,130.545-42.578c32.876-9.335,65.599-17.189,92.109-20.785
			c0,0,31.975,23.78,33.332,61.71c1.406,37.927,18.124,47.344,33.916,56.867c15.789,9.474,23.893,32.715,25.64,45.949
			c1.794,13.182,35.352,49.127,66.289,57.667c0,0,28.598-2.352,39.016-17.169c10.417-14.818,46.34-76.578,57.97-81.268
			c11.199-4.516,21.346-17.355,32.796-65.541C1769.657,1024.576,1761.508,1018.898,1753.503,1012.378z M1636.361,1030.488
			c4.215,27.797,24.879,29.613,18.122,71.182c0,0-2.647-22.253-13.564-37.815c-10.962-15.511-34.233-50.078,21.479-90.791
			C1659.21,976.253,1632.395,1004.343,1636.361,1030.488z M1704.984,1098.165l18.758-47.41l5.323,39.402
			C1729.064,1090.156,1719.064,1103.771,1704.984,1098.165z"/>
		<path id="XMLID_138_" class="st2" d="M822.016,1175.745c-2.937,31.131-17.102,43.237-17.102,43.237
			c-63.407-14.093-91.302-66.377-91.302-66.377c4.249-1.096,7.826-1.954,10.776-2.626l3.832,4.865
			c8.569,10.9,32.09,28.825,65.952,26.738C803.26,1181.021,812.558,1179.075,822.016,1175.745z"/>
		<path id="XMLID_137_" class="st2" d="M1073.313,1358.219c15.16-11.088,44.479-35.948,53.194-60.078
			c8.21,13.031,23.833,38.114,31.105,51.056C1165.492,1363.229,1101.935,1360.231,1073.313,1358.219z"/>
		<path id="XMLID_136_" class="st1" d="M433.722,585.872c-22.27,19.08-35.52,40.448-49.847,63.453l-2.813,4.49
			c-3.211,5.201-7.226,11.678-11.896,18.686c-2.904-4.137-5.42-7.563-7.803-10.408l-0.003-0.049
			c-25.077-30.434-26.404,7.71-167.599-59.613c-131.643-62.762-97.514-241.15-35.448-276.663
			c13.41-7.645,24.402-12.344,33.679-15.417c-55.201,42.643-86.606,98.925-47.501,194.614
			C196.409,631.844,364.819,617.882,433.722,585.872z"/>
		<path id="XMLID_135_" class="st2" d="M253.301,271.304c0,0,3.078,14.917-14.601,25.719c-12.43,7.633-24.934,6.099-46.708,13.327
			C210.343,296.123,231.389,283.446,253.301,271.304z"/>
		<path id="XMLID_134_" class="st3" d="M531.56,906.267c-64.579,82.264-227.679,150.54-227.679,150.54
			c-87.02,137.553,32.473,220.439,32.473,220.439s-11.224,4.91-27.47,14.299c-16.196,9.386-33.041-8.46-33.041-8.46
			c-75.635-103.443-72.702-294.575-72.702-294.575c59.429-22.596,121.374-73.601,121.374-73.601s-40.782-138.014-1.51-177.271
			c4.251-4.235,8.023-8.293,11.416-12.132c-14.824,26.076-23.226,51.315-15.343,75.747c8.056,24.862,31.695,43.908,72.36,58.274
			C451.354,880.653,502.999,897.286,531.56,906.267z"/>
		<path id="XMLID_133_" class="st2" d="M303.88,1056.807c-87.02,137.553,32.473,220.439,32.473,220.439s-11.224,4.91-27.47,14.299
			c-16.196,9.386-33.041-8.46-33.041-8.46c-75.635-103.443-72.702-294.575-72.702-294.575
			c59.429-22.596,121.374-73.601,121.374-73.601s-40.782-138.014-1.51-177.271c4.251-4.235,8.023-8.293,11.416-12.132
			c-14.824,26.076-23.226,51.315-15.343,75.747c8.056,24.862,31.695,43.908,72.36,58.274
			c59.917,21.126,111.561,37.758,140.122,46.739C466.98,988.531,303.88,1056.807,303.88,1056.807z"/>
		<path id="XMLID_132_" class="st0" d="M1976.157,993.551c-93.807,48.946-152.337,41.567-195.649,12.894
			c-4.804-3.137-9.428-6.531-13.871-10.181c-44.628-36.489,1.711-62.154,1.711-62.154c0.959-0.353,1.824-0.652,2.694-0.853
			c20.511-5.434,22.935,20.364,44.871,34.07C1873.612,1003.404,1976.157,993.551,1976.157,993.551z"/>
		<path id="XMLID_131_" class="st2" d="M1976.157,993.551c-93.807,48.946-152.337,41.567-195.649,12.894
			c-4.804-3.137-9.428-6.531-13.871-10.181c-44.628-36.489,1.711-62.154,1.711-62.154c0.959-0.353,1.824-0.652,2.694-0.853
			c20.511-5.434,22.935,20.364,44.871,34.07C1873.612,1003.404,1976.157,993.551,1976.157,993.551z"/>
		<path id="XMLID_130_" class="st0" d="M1407.671,1077.105c-20.949,17.429-32.438,57.033-49.057,96.954
			c-16.619,39.921-38.278,33.898-38.278,33.898c-19.288-39.179-40.899-44.419-40.899-44.419
			c83.995-42.603,73.716-113.876,73.716-113.876c-24.107,6.783-45.255,3.476-61.2-2.162c31.159-10.946,71.337-24.361,110.72-35.568
			c4.869-1.379,9.643-2.704,14.274-3.97c3.322,3.768,6.336,8.095,8.552,13.011
			C1434.819,1041.685,1428.62,1059.676,1407.671,1077.105z"/>
		<path id="XMLID_129_" class="st2" d="M1407.671,1077.105c-20.949,17.429-32.438,57.033-49.057,96.954
			c-16.619,39.921-38.278,33.898-38.278,33.898c-19.288-39.179-40.899-44.419-40.899-44.419
			c83.995-42.603,73.716-113.876,73.716-113.876c-24.107,6.783-45.255,3.476-61.2-2.162c31.159-10.946,71.337-24.361,110.72-35.568
			c4.869-1.379,9.643-2.704,14.274-3.97c3.322,3.768,6.336,8.095,8.552,13.011
			C1434.819,1041.685,1428.62,1059.676,1407.671,1077.105z"/>
		<path id="XMLID_128_" class="st2" d="M1304.424,1222.771c-15.536,32.84-48.213,42.212-48.213,42.212
			c-24.818-29.42-18.748-85.319-18.748-85.319c1.814-0.014,3.573-0.122,5.232-0.273l31.313,4.299
			c2.625,1.212,15.168,8.139,27.667,33.463L1304.424,1222.771z"/>
		<path id="XMLID_127_" class="st3" d="M346.295,1335.885c-28.411,8.569-69.848-13.548-69.848-13.548l0.38-12.924
			c6.688,3.463,15.096,6.181,24.527,5.6c6.352-0.392,12.37-2.234,17.961-5.423c8.57-4.992,15.704-8.62,20.18-10.809
			C359.431,1319.821,346.295,1335.885,346.295,1335.885z"/>
	</g>
	<g id="XMLID_122_">
		<path id="XMLID_125_" class="st2" d="M1853.693,1095.294c-32.163,151.624-102.64,289.23-200.763,402.15h-107.858
			c78.577-76.163,142.045-167.9,185.267-270.151c3.971-3.894,7.71-8.177,11.136-13.006c3.66-5.218,8.333-12.616,14.251-22.038
			c6.542-10.358,20.637-32.63,28.503-43.143c21.104-13.005,34.265-33.253,43.455-55.681
			C1836.249,1094.592,1844.893,1095.294,1853.693,1095.294z"/>
		<path id="XMLID_124_" class="st2" d="M402.012,1497.444h-107.78C157.015,1339.512,73.843,1133.375,73.843,908.236
			c0-96.41,15.264-189.316,43.455-276.459c14.251,11.837,30.293,22.039,47.971,30.45c7.476,3.582,14.719,6.931,21.572,10.046
			c-22.506,74.76-34.577,153.96-34.577,235.963c0,9.579,0.156,19.08,0.545,28.58l-15.186,5.763l-0.701,44.934
			c0,2.181-0.701,53.734,8.645,118.916c11.759,81.614,33.642,148.198,65.104,198.349l-1.635,56.616l36.212,19.391
			c6.541,3.505,37.925,19.313,73.515,22.584C344.072,1436.856,371.874,1468.318,402.012,1497.444z"/>
		<path id="XMLID_123_" class="st2" d="M1873.24,908.236c0,4.05,0,8.099-0.156,12.071c-8.099-2.336-15.03-5.062-20.481-8.177
			c-0.934-1.09-2.258-2.959-3.349-4.361c-4.672-6.23-12.46-16.666-24.375-25.466c-9.423-27.568-21.805-54.746-36.991-81.458
			c-52.721-402.384-397.789-713.964-814.346-713.964c-314.695,0-588.662,177.946-726.424,438.596
			c-17.444-9.423-32.474-23.83-41.352-45.558c-3.66-9.033-6.775-17.444-8.878-25.388C353.106,187.963,642.803,8.538,973.541,8.538
			C1469.688,8.538,1873.24,412.09,1873.24,908.236z"/>
	</g>
	<g id="XMLID_107_">
		<rect id="XMLID_121_" x="1346.26" y="1575.514" class="st1" width="78.05" height="415.948"/>
		<rect id="XMLID_120_" x="1460.425" y="1575.514" class="st1" width="78.05" height="415.948"/>
		<rect id="XMLID_119_" x="1574.59" y="1575.514" class="st1" width="78.049" height="415.948"/>
		<g id="XMLID_116_">
			<polygon id="XMLID_118_" class="st1" points="1243.738,1575.514 1159.017,1764.232 1200.917,1862.494 1327.518,1575.514 			"/>
			<polygon id="XMLID_117_" class="st1" points="1153.976,1821.804 1148.902,1810.068 1049.195,1575.514 965.494,1575.514 
				1143.246,1991.462 1185.581,1895.926 			"/>
		</g>
		<g id="XMLID_112_">
			<polygon id="XMLID_115_" class="st1" points="768.797,1893.354 710.308,1991.462 616.016,1991.462 718.931,1813.079 			"/>
			<polygon id="XMLID_114_" class="st1" points="951.201,1991.462 862,1991.462 786.119,1863.902 736.253,1783.627 
				621.526,1575.514 716.167,1575.514 785.84,1701.749 831.034,1783.627 			"/>
			<polygon id="XMLID_113_" class="st1" points="945.691,1575.514 848.174,1751.328 802.98,1669.449 851.468,1575.514 			"/>
		</g>
		<g id="XMLID_108_">
			<polygon id="XMLID_111_" class="st1" points="422.25,1893.354 363.761,1991.462 269.469,1991.462 372.384,1813.079 			"/>
			<polygon id="XMLID_110_" class="st1" points="604.654,1991.462 515.453,1991.462 439.572,1863.902 389.706,1783.627 
				274.979,1575.514 369.62,1575.514 439.293,1701.749 484.487,1783.627 			"/>
			<polygon id="XMLID_109_" class="st1" points="599.144,1575.514 501.627,1751.328 456.433,1669.449 504.921,1575.514 			"/>
		</g>
	</g>
</g>
</svg>
