<?xml version="1.0" encoding="utf-8"?>
<!-- Generator: Adobe Illustrator 19.0.0, SVG Export Plug-In . SVG Version: 6.00 Build 0)  -->
<svg version="1.1" id="Layer_1" xmlns="http://www.w3.org/2000/svg" xmlns:xlink="http://www.w3.org/1999/xlink" x="0px" y="0px"
	 viewBox="0 0 2000 2000" style="enable-background:new 0 0 2000 2000;" xml:space="preserve">
<style type="text/css">
	.st0{fill:#61A4A0;}
	.st1{fill:#466F6C;}
</style>
<g>
	<g>
		<path class="st0" d="M1854.45,950.309c0,213.372-78.619,408.698-208.343,558.613h-102.138
			c145.552-141.78,236.078-339.843,236.078-558.613c0-372.015-261.816-684.048-610.903-761.41c-0.518-0.887-0.962-1.479-1.183-1.849
			l-19.451-29.879c-6.878-12.055-9.171-18.416-9.763-20.265c-0.962-9.245-2.515-19.599-5.029-30.545
			C1541.602,170.705,1854.45,524.674,1854.45,950.309z"/>
		<path class="st0" d="M764.069,128.992c-8.061,23.297-17.232,43.858-26.921,60.203c-6.065,10.132-10.798,20.931-14.496,32.173
			c-293.618,111.974-502.7,396.495-502.7,728.942c0,218.771,90.526,416.834,236.152,558.613H353.966
			c-129.799-149.915-208.417-345.241-208.417-558.613C145.549,560.988,407.29,231.647,764.069,128.992z"/>
		<path class="st0" d="M1169.144,188.899c-0.296-0.148-0.592-0.222-0.962-0.222l-13.017-20.56
			c-2.588-4.068-4.807-7.692-6.656-10.946l19.451,29.879C1168.182,187.42,1168.626,188.012,1169.144,188.899z"/>
	</g>
	<g>
		<path class="st0" d="M1001.283,1359.934c0,17.01,12.203,31.655,12.203,31.655c3.624-14.644,23.149-24.333,23.149-24.333
			c1.183,12.129,12.203,24.333,12.203,24.333c4.882-7.322,7.322-31.655,7.322-31.655c13.387,0,34.096,23.149,34.096,23.149
			c3.698-13.387-1.184-34.169-1.184-34.169c17.085,2.441,26.182,25.59,26.182,25.59c6.656-20.708,6.064-56.061,6.064-56.061
			c14.052,0,27.883,15.753,29.732,17.972l0.222,0.296c-1.258-31.654-13.461-113.379-13.461-113.379
			c14.644,3.624,15.901,26.847,15.901,26.847c3.624-47.556-49.996-206.124-49.996-206.124c13.83,1.036,16.937,7.766,17.528,9.393
			c-4.512-32.912-28.622-88.899-44.819-152.06c-13.535-52.659-4.659-161.897-1.184-197.619c0.74-7.396,1.184-11.612,1.184-11.612
			c0.813,12.351,9.097,28.4,10.132,30.323l0.074,0.222c-5.695-40.012,9.984-117.152,28.622-159.974
			c5.103-11.76,9.541-23.741,13.387-35.057v-0.074c10.132-30.027,15.679-54.878,15.679-54.878
			c7.692,12.869,12.351,31.433,12.351,31.433c8.579-17.159,2.81-31.433,14.274-90.008c11.39-58.576-20.043-95.703-28.548-129.946
			c-8.58-34.317-27.143-62.865-27.143-62.865c-51.476,95.038-106.575,17.898-124.991-9.763
			c-18.416-27.661,10.354-87.567,10.354-116.412c0-28.844,31.359-37.201,31.359-37.201c-65.38-84.24-184.085,1.775-190.963,30.989
			c-6.878,29.214-22.336,86.015-49.848,132.387c-27.587,46.373-15.532,129.059-15.532,165.225c0,36.092-1.701,32.69-6.878,79.136
			c-5.177,46.446,24.111,99.771,36.166,132.387c2.588,7.1,3.698,13.978,3.846,21.226c0.444-0.665,0.887-1.257,1.331-1.923
			c1.849-2.736,4.142-5.325,6.286-7.913l5.917-6.879c7.322-9.318,12.943-19.895,16.715-31.359
			c7.544-22.927,9.097-48.148,11.094-73.219c1.923-25.146,4.438-50.588,10.872-75.217c6.212-24.702,16.936-48.073,30.989-69.004
			c-63.975,102.064-13.609,195.918-69.374,258.413c-54.878,61.608-96.591,307.744-97.848,315.436
			c14.689-22.734,35.279-27.069,35.279-27.069c0,17.75,8.135,33.725,8.135,33.725c8.136-11.612,17.75-16.049,24.185-17.75
			c4.29-1.036,7.1-0.961,7.1-0.961c0,17.676,9.541,43.488,9.541,43.488c14.94-28.548,46.224-51.697,46.224-51.697
			c1.405,17.676,0,62.57,0,62.57c7.618-6.878,16.049-19.969,24.85-37.35c4.512-8.801,9.023-18.785,13.609-29.51
			c6.434-15.087,12.943-31.95,19.377-49.774c13.756-38.163,27.143-81.059,38.755-122.328c28.548-101.62,0-121.441,24.48-152.726
			s40.826-66.637,40.826-66.637c6.657,15.827,11.907,16.049,12.203,16.049c10.872-49.183,6.804-131.721,6.804-131.721
			c1.553,21.966,2.588,44.08,2.219,66.12c-0.37,22.114-1.405,44.302-5.473,66.416l-0.592,3.106l-2.958-0.296
			c-2.663-0.222-3.254-0.962-4.438-1.553c-1.036-0.666-1.849-1.405-2.588-2.145c-1.479-1.479-2.663-3.033-3.772-4.659
			c-0.444-0.666-0.813-1.331-1.184-2.071c-7.84,16.345-16.567,32.172-26.699,47.26c-2.958,4.364-5.991,8.653-9.097,12.869
			c-2.959,3.92-5.325,7.692-6.878,11.907c-3.254,8.136-3.033,17.75-2.662,27.957c0.517,10.206,0.887,20.782,0.591,31.359
			c-0.296,10.576-1.183,21.078-2.662,31.581c-2.81,20.782-7.914,41.417-13.461,61.238c-10.872,39.938-23.075,79.432-37.054,118.557
			c-6.582,18.342-13.608,36.61-21.522,54.582c11.315,41.491,33.873,126.84,33.873,147.844c0,19.229,10.872,71.74,17.75,114.637
			c3.106,19.673,5.399,37.275,5.399,48.739c0,36.61,10.946,106.132,10.946,106.132c-1.184-12.203,8.579-32.912,8.579-32.912
			S1001.283,1342.85,1001.283,1359.934z"/>
		<path class="st1" d="M1134.483,571.086c-10.946,25.22-20.043,60.573-24.703,92.301c0,0,0,0,0,0.074s-0.073,0.296-0.073,0.518
			c-0.37,1.701-1.332,7.174-2.071,16.788c-0.148,0.887-0.148,1.775-0.222,2.736c-1.11,12.425-1.332,23.593-0.444,32.542
			c0,0.074,0,0.222,0.073,0.296c0,1.11,0,2.293,0.074,3.476c0.296,8.209,0.813,17.38,1.701,27.587
			c0.296,0.813,0.665,1.701,0.961,2.589c2.071,5.547,3.92,12.277,5.473,20.339c8.801,46.372,90.674,163.967,90.674,163.967
			c6.731-15.827,7.692-46.372,7.692-46.372c12.277-2.293,22.78,12.425,22.78,12.425s16.197-5.399,7.469-30.989
			c0,0,12.13-4.363,30.989,7.248c2.293-18.12-15.827-46.373-15.827-46.373c11.316-4.511,32.764,0,32.764,0
			c-1.11-19.229-30.471-40.678-30.471-40.678c6.73-1.11,37.275,0,37.275,0c-11.316-24.85-94.964-117.595-125.213-152.652
			c-16.419-19.082-28.252-49.774-35.574-73.737C1136.702,565.909,1135.593,568.497,1134.483,571.086z"/>
		<path class="st0" d="M718.611,1091.758c17.232-0.665,20.043-4.955,20.043-4.955s2.145,27.956,33.725,20.043
			c0,0,1.258,8.209,8.875,13.016c5.473,3.476,14.348,5.103,28.475,0.592c0,0,32.246,28.03,55.913-11.464
			c23.667-39.42-3.55-48.073-3.55-48.073s58.132-13.091-0.222-83.278l-17.454,16.641l0.665-24.629
			c0.222-10.354,0.444-20.783,0.444-31.063c0.074-2.959,0-5.991,0-8.949c-2.81,2.736-5.695,5.473-8.357,8.357
			c-7.47,8.061-13.978,16.862-18.934,25.96l-11.168,20.708l-7.914-21.966c-1.405-3.92-2.514-7.469-3.624-11.241
			c-1.109-3.772-2.145-7.544-3.032-11.39c-0.887-3.772-1.701-7.618-2.293-11.538c-1.036,0.444-2.071,0.814-3.106,1.405
			c-3.994,2.515-7.544,6.065-10.503,10.28l-10.132,14.126l-7.47-15.383c-1.627-3.476-2.662-6.213-3.846-9.319
			c-1.036-3.033-1.923-6.139-2.736-9.319c-0.444-1.627-0.666-3.328-0.961-5.029c-1.849,1.11-3.624,2.219-5.251,3.55
			c-5.029,3.994-9.393,8.801-13.017,14.274l-27.069,41.048l3.846-21.079c-10.502,19.895-22.779,48.073-22.779,70.779
			C687.178,1063.506,701.378,1092.498,718.611,1091.758z"/>
		<path class="st1" d="M776.003,1353.056c0,0,18.934-21.522,36.166-25.812c0,0,6.878,21.522,14.57,37.867
			c0,0,15.531-4.29,24.998-27.587c9.466-23.223,12.869-49.034,36.166-72.258c13.165-13.165,31.137-38.459,44.302-57.984
			c0-0.074,0-0.074,0-0.074c-0.887-6.656-1.997-14.348-3.402-23.297c-2.145-13.313-4.659-27.735-7.174-41.713
			c-5.843-32.838-10.798-61.164-10.798-76.178c0-3.994-1.257-12.055-3.476-22.928c-0.37,1.332-0.739,2.663-1.183,3.994
			c-2.81,8.209-7.248,14.496-12.277,19.377c5.251,15.236,1.849,33.208-10.28,53.325c-15.458,25.812-35.131,31.285-48.813,31.285
			c-11.833,0-21.966-4.142-28.992-8.062c-3.994,0.814-7.914,1.184-11.612,1.184c-8.505,0-16.049-1.923-22.557-5.695
			c-1.11,2.441-2.293,5.103-3.476,7.988c-7.692,18.12-32.616,32.69-32.616,32.69s24.924,0.887,42.157-11.168
			c0,0-5.991,22.41-27.513,43.044c-21.152,20.339-49.922,78.175-50.736,79.95c1.923-1.109,33.208-19.008,54.064-25.664
			c-0.888,2.071-16.937,38.385-13.164,58.427c0,0,23.593-23.223,36.462-24.111C776.817,1299.657,772.527,1339.3,776.003,1353.056z"
			/>
		<path class="st1" d="M1076.278,144.415c-1.923-20.413-8.135-49.849-24.48-70.04l-14.422,3.846
			c-1.405,0.444-15.827,4.955-15.827,16.936c0,12.647-3.846,27.883-7.914,44.006c-5.029,20.117-12.721,50.514-5.917,60.794
			c25.59,38.385,42.675,46.447,52.585,46.447c15.236,0,29.436-21.966,36.536-35.057l5.177-9.615
			C1091.291,184.797,1077.757,160.613,1076.278,144.415z M1049.356,144.193c5.991-5.547,20.561,8.505,20.561,8.505
			C1036.783,184.797,1043.366,149.74,1049.356,144.193z"/>
		<path class="st1" d="M1366.789,903.088c0,0,26.329-22.114,17.159-39.864c-7.026-13.535-39.864-30.472-64.936-51.919l-11.242-0.444
			c2.736,5.769,4.585,11.833,4.955,18.194l1.553,27.365l-22.04-4.659c2.811,8.949,4.511,18.564,3.402,27.513l-4.068,32.246
			l-25.886-15.901c-0.665,2.219-1.479,4.364-2.514,6.435c-6.361,12.721-17.011,17.158-20.117,18.194l-12.499,4.142
			c-1.331,6.434-3.032,12.795-5.325,18.12l-14.866,34.909l-10.798-15.532c-0.74,8.136-0.148,16.567,3.402,23.001
			c9.91,17.824,42.822,44.154,52.659,26.329c0,0,17.75,4.659,32.912-19.747c0,0,30.249,3.328,44.745-23.667
			c0,0,33.503,17.75,40.752-18.416C1381.285,913.221,1366.789,903.088,1366.789,903.088z"/>
		<path class="st1" d="M897.075,1441.141c0,0-26.182-33.356-53.991-60.794c-5.547,3.402-9.762,4.659-10.724,4.955l-17.085,4.734
			l-7.47-15.975c-2.441-5.177-4.808-10.798-6.878-16.123c-3.624,3.107-6.879,6.361-9.171,9.023l-26.329,29.658l-9.762-38.385
			c-1.184-4.882-1.775-11.316-1.923-18.194l-26.7,26.181l-7.322-38.607c-1.331-7.322-1.035-15.605,0.222-23.963
			c-4.216,2.219-7.692,4.216-9.985,5.547l-41.787,24.037c-5.769,19.377-0.74,42.896,36.092,64.418
			c82.834,48.517,60.202,92.005,104.578,92.005c44.302,0,125.879,11.76,133.423-7.469c7.544-19.304,0-35.205,0-35.205
			L897.075,1441.141z"/>
		<path class="st0" d="M1272.195,1438.775c0,0-44.745-22.335-78.545-35.352c-7.766-2.959-14.052-6.804-19.229-11.168l0.444,10.65
			l-34.687-46.076c-1.036,8.357-2.589,16.788-4.956,24.111l-17.972,55.913l-11.833-30.027l-5.177,18.859l-25.59-28.622
			c-1.183-1.258-2.44-2.589-3.698-3.846c-1.331,3.772-2.81,7.248-4.659,9.984l-14.94,22.41l-18.046-19.969
			c-0.37-0.37-0.887-0.961-1.479-1.701l-8.653,31.285l-17.159-20.117c-9.984,35.574-22.114,98.883,17.972,98.883
			c55.617,0,184.528,23.149,197.545,5.473c12.351-16.789-4.734-31.063-6.361-32.394c1.997,0.444,22.706,5.991,17.898,29.953
			c0,0,39.198-22.78-0.444-43.932c0,0,36.462,10.502,20.857,33.504c0,0,48.443-28.326-0.074-42.305c0,0,48.665,6.656,18.712,36.906
			c0,0,48.147-26.773,4.511-40.825c0,0,32.69,1.109,19.378,26.033c0,0,39.346,0,31.58-36.018L1272.195,1438.775z"/>
		<path class="st0" d="M882.504,969.874c4.511,5.695,8.357,11.242,11.76,16.715c-1.997-7.618-4.142-15.901-6.434-24.777
			C886.054,964.696,884.279,967.359,882.504,969.874z"/>
	</g>
	<g>
		<rect x="1122.496" y="1583.041" class="st1" width="74.124" height="395.029"/>
		<g>
			<polygon class="st1" points="936.938,1884.896 881.391,1978.07 791.841,1978.07 889.58,1808.659 			"/>
			<polygon class="st1" points="1110.169,1978.07 1025.453,1978.07 953.389,1856.925 906.031,1780.688 797.073,1583.041 
				886.955,1583.041 953.124,1702.927 996.045,1780.688 			"/>
			<polygon class="st1" points="1104.936,1583.041 1012.323,1750.013 969.402,1672.252 1015.452,1583.041 			"/>
		</g>
		<g>
			<polygon class="st1" points="1364.074,1884.896 1308.527,1978.07 1218.976,1978.07 1316.715,1808.659 			"/>
			<polygon class="st1" points="1537.305,1978.07 1452.589,1978.07 1380.525,1856.925 1333.166,1780.688 1224.209,1583.041 
				1314.091,1583.041 1380.26,1702.927 1423.18,1780.688 			"/>
			<polygon class="st1" points="1532.072,1583.041 1439.458,1750.013 1396.538,1672.252 1442.587,1583.041 			"/>
		</g>
		<g>
			<polygon class="st1" points="607.82,1884.896 552.273,1978.07 462.723,1978.07 560.462,1808.659 			"/>
			<polygon class="st1" points="781.051,1978.07 696.335,1978.07 624.271,1856.925 576.913,1780.688 467.955,1583.041 
				557.837,1583.041 624.006,1702.927 666.927,1780.688 			"/>
			<polygon class="st1" points="775.818,1583.041 683.204,1750.013 640.284,1672.252 686.334,1583.041 			"/>
		</g>
	</g>
</g>
</svg>
