<?xml version="1.0" encoding="utf-8"?>
<!-- Generator: Adobe Illustrator 19.0.0, SVG Export Plug-In . SVG Version: 6.00 Build 0)  -->
<svg version="1.1" id="Layer_1" xmlns="http://www.w3.org/2000/svg" xmlns:xlink="http://www.w3.org/1999/xlink" x="0px" y="0px"
	 viewBox="0 0 2000 2000" style="enable-background:new 0 0 2000 2000;" xml:space="preserve">
<style type="text/css">
	.st0{fill:#664A40;}
	.st1{fill:#996B5F;}
	.st2{fill:#6676B7;}
</style>
<g id="XMLID_55_">
	<g id="XMLID_77_">
		<path id="XMLID_79_" class="st0" d="M441.116,1489.984H332.228c-140.666-158.814-226.109-367.476-226.109-595.844
			c0-317.394,165.2-597.012,414.209-757.228c-57.092,47.59-104.448,101.956-141.523,162.241l-21.029,34.271l11.371,18.849
			l-24.612,9.191l-11.138,26.482c-6.932,16.668-13.241,33.882-18.771,51.095l-1.013,3.194l-1.947,0.078l-4.984,21.341
			C229.26,588.897,184.552,736.417,184.552,894.14C184.552,1128.506,283.159,1340.284,441.116,1489.984z"/>
		<path id="XMLID_78_" class="st0" d="M1905.88,894.14c0,228.368-85.443,437.031-226.109,595.844h-108.888
			c157.957-149.701,256.564-361.479,256.564-595.844c0-264.742-125.946-500.665-320.977-650.911
			c17.836-7.555,29.519-11.294,31.623-11.917l56.78-17.058C1785.31,379.378,1905.88,622.934,1905.88,894.14z"/>
	</g>
	<path id="XMLID_76_" class="st1" d="M891.465,942.82c0,19.706-16.045,35.751-35.75,35.751c-19.706,0-35.673-16.045-35.673-35.751
		c0-19.705,15.967-35.672,35.673-35.672C875.42,907.148,891.465,923.115,891.465,942.82z"/>
	<path id="XMLID_75_" class="st1" d="M1430.451,1406.645c-5.218,3.115-10.437,6.153-15.5,8.879
		c-4.518-1.557-8.957-2.959-13.163-4.128c-2.103-0.467-51.796-13.63-47.901-112.393l0.156-4.751l-3.193-3.35
		c-0.467-0.467-44.474-46.888-56.002-115.43c-8.801-52.263,0.389-102.19,0.467-102.734l-2.103-81.861l-136.304-44.318
		c0,0,27.728,105.149,116.676,122.129c-0.389,2.181-9.969,54.132-0.467,110.445c10.905,65.036,47.356,110.757,58.572,123.531
		c-2.181,89.649,37.542,118.468,55.768,126.958c-158.191,73.838-246.594-10.047-296.754-96.036
		c-54.522-93.466-128.515-118.157-128.515-118.157c92.142-129.761-29.597-194.72-29.597-194.72
		c-3.739,0.857-7.322,1.558-10.593,2.181c22.977-19.005,37.308-47.668,37.62-79.29v-0.779c0-0.935,0-1.791-0.078-2.726
		c32.869-7.711,83.808-31.077,151.727-95.724c69.165-65.816,140.354-118.312,188.1-150.947c0.701,1.013,1.013,1.48,1.013,1.48
		c54.522,28.585,42.994,436.641,42.994,436.641l-28.273,30.221c12.229,72.981,58.961,121.194,58.961,121.194
		C1369.621,1393.481,1430.451,1406.645,1430.451,1406.645z"/>
	<path id="XMLID_74_" class="st1" d="M1286.047,675.742C1237.522,709,1165.71,762.12,1096.078,828.403
		c-63.946,60.831-110.679,82.483-139.42,89.727c-0.233-0.779-0.389-1.558-0.623-2.414c-12.151-45.175-53.432-76.72-100.32-76.72
		c-57.248,0-103.825,46.577-103.825,103.825c0,37.153,20.017,71.735,52.419,90.273c0.078,0.078,0.156,0.078,0.234,0.156
		l-71.19,128.983H601.955c0,0,59.429-87.624,84.664-124.621c25.392-36.997,25.392-56.469,8.801-93.466
		c-16.59-36.997-105.149-295.975,176.261-386.481C1102.075,483.514,1242.585,622.856,1286.047,675.742z"/>
	<path id="XMLID_71_" class="st0" d="M936.908,932.459c-0.467-3.738-1.246-7.399-2.181-10.982
		c-9.347-34.816-41.203-60.441-78.979-60.441c-45.175,0-81.783,36.607-81.783,81.783c0,30.454,16.668,57.014,41.281,71.111
		c11.917,6.777,25.781,10.671,40.502,10.671c4.751,0,9.347-0.39,13.864-1.169c38.399-6.543,67.607-39.801,67.919-79.991v-0.623
		C937.532,939.313,937.298,935.808,936.908,932.459z M855.749,1000.611c-31.856,0-57.715-25.937-57.715-57.793
		c0-31.856,25.859-57.715,57.715-57.715c31.856,0,57.793,25.859,57.793,57.715C913.542,974.674,887.605,1000.611,855.749,1000.611z"
		/>
	<line id="XMLID_70_" class="st2" x1="1292.901" y1="684.466" x2="1292.901" y2="684.388"/>
	<path id="XMLID_69_" class="st0" d="M1519.088,167.833c0,0-292.937,87.78-357.74,382.743
		c-44.474-21.185-98.139-36.296-160.839-36.296c-43.929,0-89.571,7.555-135.603,22.354
		c-96.114,30.921-161.54,83.963-194.331,157.646c-26.248,58.961-26.482,120.415-19.394,168.706
		c-197.057,69.866-190.047,235.612-190.047,235.612c-18.615-28.429-42.683-77.265-63.946-139.342l22.042-36.452l-35.127-4.674
		c-33.726-115.274-54.132-264.742-19.55-411.405l128.36-4.595l-115.196-42.916c4.907-15.344,10.515-30.61,16.824-45.72
		l72.358-26.949l-31.623-52.73c45.02-73.293,109.978-141.679,201.107-199.705C808.515,24.441,976.831,2.71,1119.6,17.976
		l-3.972,104.214l40.579-99.385C1370.789,55.908,1519.088,167.833,1519.088,167.833z"/>
	<g id="XMLID_56_">
		<g id="XMLID_65_">
			<polygon id="XMLID_68_" class="st1" points="985.182,1885.937 926.684,1984.061 832.377,1984.061 935.308,1805.649 			"/>
			<polygon id="XMLID_67_" class="st1" points="1167.616,1984.061 1078.4,1984.061 1002.507,1856.48 952.633,1776.193 
				837.887,1568.046 932.544,1568.046 1002.228,1694.301 1047.429,1776.193 			"/>
			<polygon id="XMLID_66_" class="st1" points="1162.105,1568.046 1064.571,1743.888 1019.371,1661.996 1067.867,1568.046 			"/>
		</g>
		<g id="XMLID_61_">
			<polygon id="XMLID_64_" class="st1" points="1343.792,1885.937 1285.294,1984.061 1190.986,1984.061 1293.918,1805.649 			"/>
			<polygon id="XMLID_63_" class="st1" points="1526.225,1984.061 1437.009,1984.061 1361.117,1856.48 1311.243,1776.193 
				1196.497,1568.046 1291.153,1568.046 1360.838,1694.301 1406.038,1776.193 			"/>
			<polygon id="XMLID_62_" class="st1" points="1520.714,1568.046 1423.181,1743.888 1377.98,1661.996 1426.476,1568.046 			"/>
		</g>
		<g id="XMLID_57_">
			<polygon id="XMLID_60_" class="st1" points="638.58,1885.937 580.082,1984.061 485.774,1984.061 588.706,1805.649 			"/>
			<polygon id="XMLID_59_" class="st1" points="821.013,1984.061 731.797,1984.061 655.905,1856.48 606.031,1776.193 
				491.285,1568.046 585.941,1568.046 655.626,1694.301 700.826,1776.193 			"/>
			<polygon id="XMLID_58_" class="st1" points="815.503,1568.046 717.969,1743.888 672.768,1661.996 721.264,1568.046 			"/>
		</g>
	</g>
</g>
</svg>
