<?xml version="1.0" encoding="utf-8"?>
<!-- Generator: Adobe Illustrator 19.0.0, SVG Export Plug-In . SVG Version: 6.00 Build 0)  -->
<svg version="1.1" id="Layer_1" xmlns="http://www.w3.org/2000/svg" xmlns:xlink="http://www.w3.org/1999/xlink" x="0px" y="0px"
	 viewBox="0 0 2000 2000" style="enable-background:new 0 0 2000 2000;" xml:space="preserve">
<style type="text/css">
	.st0{fill:#634457;}
	.st1{fill:#C07863;}
	.st2{fill:#93617F;}
</style>
<g>
	<g>
		<path class="st0" d="M432.853,1495.05H326.698v0.385c-77.939-89.735-138.225-195.196-175.461-310.911
			c33.612,51.266,80.561,93.204,137.994,123.424C327.931,1377.177,376.422,1440.161,432.853,1495.05z"/>
		<path class="st0" d="M1882.715,1026.025c-22.742,178.005-98.292,339.743-210.306,469.026h-106.618
			c114.327-111.166,196.121-255.636,229.733-417.528C1832.451,1065.65,1864.367,1049.075,1882.715,1026.025z"/>
		<path class="st0" d="M1889.962,909.694c-8.018-15.418-20.352-29.912-37.852-41.552c-2.93-1.927-11.101-9.097-17.114-14.262
			c-7.941-6.938-16.883-14.725-26.674-22.434c-40.704-410.513-388.002-732.139-808.999-732.139
			c-328.795,0-612.647,196.121-740.619,477.582c-67.146,58.513-115.406,132.521-142.311,218.555
			c57.356-436.107,431.404-773.768,882.93-773.768C1489.471,21.676,1888.497,419.777,1889.962,909.694z"/>
	</g>
	<path class="st1" d="M776.759,993.646c0.463,5.782-0.771,9.02-0.771,9.02S776.296,999.274,776.759,993.646z"/>
	<path class="st2" d="M1815.786,922.71c-26.643-17.736-81.822-82.768-134.005-74.412c-24.988,4.02-67.633,10.957-116.269,10.957
		c-23.096,0-47.611-1.577-72.126-5.755c-4.651-0.867-9.38-1.734-14.031-2.68v-0.079c-13.007-2.759-26.013-6.385-38.704-10.878
		c-13.716-4.966-27.116-10.957-40.043-18.288c-99.164-56.518-117.53-117.609-350.068-199.746
		c-32.397-11.429-61.563-22.859-88.286-33.816c0,0,0,0-0.078,0c-32.792-13.401-61.958-26.249-89.232-37.837
		c-3.547-1.498-7.016-2.917-10.405-4.335c-22.229-9.38-43.197-17.736-64.086-24.752c0-0.079,0-0.079,0-0.079
		c-77.013-26.17-150.795-34.526-269.507-6.227c-225.995,53.838-384.278,214.802-371.115,480.21
		c13.007,263.201,300.092,361.025,571.491,267.694c0.867-0.316,0.552-1.656-0.315-1.577c-53.76,5.281-404.379,31.373-467.44-182.089
		c-68.264-231.197,84.108-404.615,237.188-422.982c153.002-18.446,208.89,2.601,241.051,34.132c0,0-5.912-23.648,10.484-43.985
		c0,0-7.883,43.985,17.105,66.293c24.988,22.387,13.164,26.959-15.135,27.589c-28.22,0.71-50.528,9.223-58.411,49.266
		c0,0-108.701,10.563-121.865,35.787c0,0,20.022-9.538,27.195-8.119c7.095,1.498,23.097,4.73,66.451,4.493
		c43.354-0.315,64.322,23.333,35.472,59.829c-28.772,36.497-36.182,51.473-74.097,69.919c-37.915,18.524-32.555,22.938-36.26,26.88
		c-3.705,3.941-22.86,8.592-22.86,8.592s67.475,9.38,120.683-57.07c53.208-66.529,56.676-83.792,59.12-52.735
		c2.444,30.979,17.105,96.089,21.677,108.544c1.498,4.099,2.207,7.646,2.444,10.642c1.656-18.761,4.966-61.879,4.414-92.464
		c-0.631-40.043-2.601-48.557,10.563-36.418c13.085,12.14,49.266,30.506,56.439,31.846c7.252,1.34,14.189,12.77,14.189,12.77
		s5.912-11.43-21.677-35.078c-27.589-23.648-45.719-30.27-29.56-32.24c16.002-1.971,40.832-1.971,49.188,7.489
		c-0.473-1.103-4.493-9.695-8.198-13.401c-3.941-3.941-14.74-9.538-40.044-9.144c-25.303,0.315-31.531-16.79-14.425-17.421
		c16.947-0.709,82.216-40.359,71.338-88.443c1.261,4.178,11.745,44.537-23.254,81.822c0,0,111.855,109.411,178.226,127.777
		c66.293,18.446,141.887,36.182,141.887,36.182s37.048-31.846,74.018-21.047c0,0-41.384,6.385-63.061,30.506
		c-21.677,24.2-30.033,53.287-30.506,86.236c-0.473,33.028-17.736,68.027-35.472,79.299c-17.736,11.351-5.754,26.643-5.754,26.643
		s0.946-12.455,5.912-12.455c4.887,0,22.307-14.819,32.476-29.245c10.168-14.425,18.445-24.278,15.45,4.887
		c-2.917,29.245-20.337,74.255-7.883,106.1c0,0-0.946-17.736,2.995-23.963c0,0,6.543,1.025,14.11-19.707
		c7.567-20.652,17.026-89.31,40.359-79.772c23.332,9.459,52.262,41.384,60.46,41.699c8.198,0.315,9.853,13.795,9.853,13.795
		s5.281-14.504-23.963-46.981c-29.245-32.555,7.173-21.047,13.795-21.992c6.542-1.025,14.425,0.946,14.425,0.946
		s-19.391-13.085-45.325-17.421c-25.934-4.256-25.934-16.711-17.42-24.594c8.592-7.883,17.105-39.413,6.227-69.603
		c0,0,14.819,12.77,15.45,28.535c0,0,41.778,22.15,82.137,0.473c0,0,208.89,46.192,339.584,15.292
		c0,0,190.996-18.761,176.729-70.471C1835.492,966.538,1842.429,940.446,1815.786,922.71z M1685.407,944.072
		c7.567,6.543,24.594,14.425,24.594,14.425C1672.243,971.661,1685.407,944.072,1685.407,944.072z"/>
	<path class="st0" d="M1554.555,836.79c-20.18-0.473-39.413-2.286-57.07-5.281c0,0-6.306-1.183-8.592-1.577l-4.888-1.025
		c-2.049-0.394-4.099-0.867-6.069-1.419c-3.232-6.858-6.07-14.583-7.489-22.308c0,0-0.788,7.725,1.734,20.889
		c-8.198-2.05-16.238-4.493-23.884-7.173c-3.311-1.182-6.543-2.444-9.695-3.784c-0.473-24.988,4.177-60.223,33.974-61.248
		C1505.21,752.682,1538.002,805.496,1554.555,836.79z"/>
	<path class="st0" d="M959.968,562.947c-18.367-7.646-35.551-15.056-52.341-22.229c-8.829-3.784-17.499-7.489-26.013-11.114
		l-10.405-4.336c-0.394-0.157-0.788-0.315-1.182-0.473c-0.631-11.272-0.237-24.672,2.838-36.733
		c-0.946,1.734-6.622,13.322-9.144,34.053c-16.238-6.779-30.111-12.218-42.96-16.869v-0.236l-5.676-1.892
		c21.993-21.677,61.879-53.996,94.828-42.566C943.494,472.218,955.712,529.209,959.968,562.947z"/>
	<g>
		<rect x="1480.204" y="1572.318" class="st2" width="77.246" height="411.746"/>
		<g>
			<polygon class="st2" points="943.204,1886.977 885.304,1984.098 791.961,1984.098 893.84,1807.511 			"/>
			<polygon class="st2" points="1123.738,1984.064 1035.468,1984.064 960.381,1857.788 923.377,1798.35 910.965,1778.384 
				875.426,1713.935 797.409,1572.318 891.076,1572.318 960.073,1697.283 974.874,1724.188 1004.786,1778.384 1018.662,1802.359 			
				"/>
			<polygon class="st2" points="1118.341,1572.318 1033.849,1724.574 1021.746,1746.391 1009.951,1724.959 977.033,1665.291 
				1025.061,1572.318 			"/>
		</g>
		<g>
			<polygon class="st2" points="1285.403,1886.977 1227.503,1984.098 1134.16,1984.098 1236.039,1807.511 			"/>
			<polygon class="st2" points="1465.992,1984.064 1377.645,1984.064 1302.558,1857.788 1253.219,1778.384 1232.327,1740.532 
				1194.552,1671.997 1139.586,1572.318 1233.33,1572.318 1269.948,1638.694 1302.25,1697.283 1307.415,1706.689 1347.04,1778.384 
							"/>
			<polygon class="st2" points="1460.518,1572.318 1426.136,1634.3 1364,1746.391 1334.242,1692.504 1319.21,1665.291 
				1360.299,1585.809 1367.238,1572.318 			"/>
		</g>
		<g>
			<polygon class="st2" points="600.146,1886.977 542.246,1984.098 448.903,1984.098 550.782,1807.511 			"/>
			<polygon class="st2" points="780.68,1984.064 692.41,1984.064 617.323,1857.788 567.908,1778.384 488.349,1634.068 
				454.351,1572.318 548.018,1572.318 556.035,1586.811 617.015,1697.283 627.73,1716.711 661.728,1778.384 			"/>
			<polygon class="st2" points="775.284,1572.318 720.009,1671.843 682.08,1740.378 678.688,1746.391 673.446,1736.831 
				633.975,1665.291 647.08,1639.85 682.003,1572.318 			"/>
		</g>
	</g>
</g>
</svg>
