<?xml version="1.0" encoding="utf-8"?>
<!-- Generator: Adobe Illustrator 19.0.0, SVG Export Plug-In . SVG Version: 6.00 Build 0)  -->
<svg version="1.1" id="Layer_1" xmlns="http://www.w3.org/2000/svg" xmlns:xlink="http://www.w3.org/1999/xlink" x="0px" y="0px"
	 viewBox="0 0 2000 2000" style="enable-background:new 0 0 2000 2000;" xml:space="preserve">
<style type="text/css">
	.st0{fill:#5B9977;}
	.st1{fill:#3D6850;}
</style>
<g>
	<g>
		<rect x="1432.683" y="1571.068" class="st0" width="77.481" height="413.001"/>
		<rect x="1533.648" y="1571.068" class="st0" width="77.481" height="413.001"/>
		<g>
			<polygon class="st0" points="894.045,1886.686 835.969,1984.103 742.342,1984.103 844.531,1806.978 			"/>
			<polygon class="st0" points="1075.13,1984.069 986.591,1984.069 911.275,1857.408 874.158,1797.789 861.709,1777.762 
				826.061,1713.117 747.806,1571.068 841.758,1571.068 910.966,1696.414 925.812,1723.401 955.815,1777.762 969.734,1801.81 			"/>
			<polygon class="st0" points="1069.717,1571.068 984.967,1723.788 972.827,1745.671 960.996,1724.174 927.978,1664.324 
				976.152,1571.068 			"/>
		</g>
		<g>
			<polygon class="st0" points="1237.287,1886.686 1179.211,1984.103 1085.584,1984.103 1187.773,1806.978 			"/>
			<polygon class="st0" points="1418.427,1984.069 1329.81,1984.069 1254.495,1857.408 1205.005,1777.762 1184.05,1739.794 
				1146.16,1671.051 1091.026,1571.068 1185.055,1571.068 1221.786,1637.646 1254.185,1696.414 1259.366,1705.848 
				1299.112,1777.762 			"/>
			<polygon class="st0" points="1412.937,1571.068 1378.449,1633.238 1316.124,1745.671 1286.276,1691.62 1271.197,1664.324 
				1312.412,1584.6 1319.372,1571.068 			"/>
		</g>
		<g>
			<polygon class="st0" points="549.942,1886.686 491.866,1984.103 398.239,1984.103 500.428,1806.978 			"/>
			<polygon class="st0" points="731.027,1984.069 642.488,1984.069 567.172,1857.408 517.606,1777.762 437.804,1633.006 
				403.703,1571.068 497.655,1571.068 505.697,1585.605 566.862,1696.414 577.611,1715.901 611.712,1777.762 			"/>
			<polygon class="st0" points="725.614,1571.068 670.171,1670.896 632.126,1739.64 628.724,1745.671 623.466,1736.083 
				583.874,1664.324 597.02,1638.806 632.049,1571.068 			"/>
		</g>
	</g>
	<g>
		<g>
			<path class="st1" d="M1733.171,1437.602c-14.151,19.254-29.075,37.967-44.772,55.984h-15.388
				C1694.739,1476.961,1714.844,1458.248,1733.171,1437.602z"/>
			<path class="st1" d="M1840.422,1232.223c31.085-117.382,25.75-244.197-11.212-340.392c0-0.077,0-0.077,0-0.077
				c-1.469-71.991-12.295-141.74-31.395-208.008c0.386-0.387,0.773-0.774,1.16-1.16l45.004,6.882l17.011-53.665
				c0.31-1.005,0.928-2.938,1.624-5.722c28.92,87.688,44.54,181.253,44.54,278.53c0,135.167-30.235,263.452-84.209,378.282
				C1829.597,1269.262,1835.474,1251.013,1840.422,1232.223z"/>
			<path class="st1" d="M1762.864,422.304c-4.485-1.314-9.202-2.551-14.073-3.634c-30.853-6.882-61.706-10.516-91.941-11.058
				c-149.318-191.306-382.071-314.564-643.048-314.564c-357.094,0-661.296,230.665-771.41,550.874
				c-34.333,7.733-65.264,20.182-92.637,37.426C250.511,298.427,599.641,15.258,1013.802,15.258
				C1327.206,15.258,1603.339,177.489,1762.864,422.304z"/>
			<path class="st1" d="M446.148,1493.587h-107.02c-101.452-116.918-173.211-260.436-203.137-418.569
				c21.883-1.778,46.241-8.815,75.47-20.105C242.392,1225.418,326.601,1377.674,446.148,1493.587z"/>
		</g>
		<path class="st0" d="M1461.368,737.797c-0.773,2.629-1.547,5.258-2.32,7.81c-1.624,5.103-3.325,10.13-5.181,15.078
			c0,0-0.077,0.077-0.077,0.155c-0.541,1.314-1.005,2.552-1.469,3.866c-0.773,1.856-1.469,3.634-2.242,5.413
			c-1.701,4.098-3.48,8.119-5.336,12.063c-0.851,1.933-1.779,3.866-2.784,5.799c-1.856,3.866-3.866,7.578-5.8,11.212
			c-2.01,3.634-4.021,7.191-6.031,10.671c-1.933,3.248-3.866,6.418-5.8,9.511c-0.232,0.387-0.464,0.696-0.619,1.005
			c-2.01,3.17-4.021,6.186-6.031,9.124c-2.784,4.175-5.645,8.197-8.429,11.986c-9.975,13.455-19.409,24.358-26.755,32.245
			c-8.815,9.511-14.614,14.615-14.614,14.615c-64.336,94.261-207.931,92.792-207.931,92.792
			c-140.657,38.896-287.191-29.925-287.191-29.925c-50.881,3.016-178.083-61.32-178.083-61.32
			c-26.059-1.392-51.113-8.97-73.383-18.945c0,0,0,0-0.077,0c-50.572-22.502-86.606-56.835-86.606-56.835
			c-32.941-10.981-62.712-32.632-87.302-57.918c-15.774-16.161-29.384-33.792-40.287-51.036
			c-10.13-15.929-17.94-31.549-22.966-45.313c-8.506-22.966-9.356-40.829-0.541-46.705
			c552.034-371.013,937.971-258.812,1050.172-70.29c3.944,6.573,7.501,13.146,10.671,19.641
			C1476.446,626.911,1475.596,687.148,1461.368,737.797z"/>
		<path class="st0" d="M1555.938,1482.838c-194.476,88.075-139.961-8.661-101.375-92.405c12.991-28.224,24.126-54.979,23.353-72.687
			c-3.016-70.367-16.78-110.113,22.966-253.863c30.39-110.036-39.436-181.95-73.847-209.555c2.938-4.021,5.877-8.274,8.738-12.45
			c2.165-3.17,4.253-6.341,6.418-9.743l0.696-1.16c2.011-3.248,4.099-6.496,6.187-10.13c2.088-3.635,4.175-7.269,6.418-11.367
			l0.696-1.314c1.856-3.48,3.789-7.036,5.258-10.052c1.16-2.397,2.32-4.717,3.093-6.573c2.01-4.253,3.943-8.583,5.645-12.681
			c0.541-1.315,2.474-5.954,2.474-5.954l0.077-0.077l1.624-4.485c0.077,0,1.315-3.17,1.315-3.17v-0.387
			c1.546-4.099,2.938-8.351,4.33-12.836c0.851-2.629,1.624-5.258,2.475-8.197c0.696-2.32,1.314-4.717,1.856-7.036
			c3.944-0.077,8.274,0,13.068,0.232c1.701,0.077,3.479,0.155,5.258,0.232c2.861,0.155,5.877,0.387,8.892,0.619
			c1.701,0.154,3.402,0.309,5.104,0.464c1.778,0.154,3.557,0.309,5.336,0.541c57.685,6.495,144.601,31.549,206.694,117.149
			C1829.674,995.062,1815.91,1365.147,1555.938,1482.838z"/>
		<path class="st1" d="M1479.771,1058.006c-33.792,122.253-30.003,172.825-25.982,226.412c0.85,10.98,1.701,22.27,2.242,34.256
			c0.619,14.769-14.769,48.252-21.342,62.557c-2.242,4.794-4.484,9.588-6.727,14.383c-1.933,4.098-3.789,8.119-5.645,12.063
			c-23.894,11.444-47.943,19.641-66.656,18.635c-56.603-3.093,24.435-93.333,15.233-146.843
			c-9.125-53.51,24.513-165.092,38.354-252.239c9.202-57.686-5.567-106.324-16.548-132.538c1.856-1.778,3.712-3.789,5.799-6.031
			c5.104-5.413,10.13-11.135,15.001-17.089C1449.537,900.492,1505.985,963.204,1479.771,1058.006z"/>
		<path class="st0" d="M1734.64,482.851c-92.096-20.337-200.74-12.14-274.664,62.248c1.469,2.552,2.784,5.181,4.099,7.81
			c26.059,52.118,34.41,106.479,24.899,161.844c2.938,0,6.109,0.077,9.511,0.31l5.104,0.232c3.093,0.155,6.109,0.387,9.124,0.619
			l5.954,0.541c2.01,0.155,4.021,0.309,6.109,0.619c1.392,0.154,2.784,0.309,4.253,0.541c9.743-22.734,30.622-54.051,69.13-41.601
			c58.227,18.867,129.754-3.789,162.463-50.262c0,0,12.991-13.61,37.658-9.821C1798.279,615.93,1833.463,504.735,1734.64,482.851z
			 M1718.788,540.846c-9.589-11.367-14.847-17.553-14.847-17.553c22.734-12.218,34.952,0,34.952,8.815
			C1738.893,540.846,1728.454,552.213,1718.788,540.846z"/>
		<path class="st0" d="M580.541,874.665c-36.189,3.866-92.483,10.903-152.024,22.657c-101.143,19.95-273.427,131.068-317.58,109.726
			c-28.997-14.073-48.87-161.845,43.69-247.213l0.077-0.077c44.772-41.292,115.835-67.892,224.943-57.763
			c2.707,4.949,5.645,9.898,8.815,14.847c12.295,19.409,27.219,38.354,43.148,54.67c28.224,28.997,59.773,50.34,91.554,61.861
			C531.207,840.486,552.008,858.04,580.541,874.665z"/>
		<path class="st1" d="M368.202,679.106c-11.444-0.773-22.657-1.16-33.405-1.16c-37.348,0-71.295,4.562-101.684,13.764
			c51.731-30.544,99.674-34.874,127.047-34.178c0.928,3.093,2.011,6.418,3.325,9.82
			C364.877,671.219,366.424,675.085,368.202,679.106z"/>
	</g>
</g>
</svg>
