<?xml version="1.0" encoding="utf-8"?>
<!-- Generator: Adobe Illustrator 19.0.0, SVG Export Plug-In . SVG Version: 6.00 Build 0)  -->
<svg version="1.1" id="Layer_1" xmlns="http://www.w3.org/2000/svg" xmlns:xlink="http://www.w3.org/1999/xlink" x="0px" y="0px"
	 viewBox="0 0 2000 2000" style="enable-background:new 0 0 2000 2000;" xml:space="preserve">
<style type="text/css">
	.st0{fill:#684145;}
	.st1{fill:#9B6066;}
</style>
<g id="XMLID_134_">
	<g id="XMLID_166_">
		<path id="XMLID_170_" class="st0" d="M153.348,1019.393c-1.697,6.559-2.932,13.581-3.781,20.912
			c-1.775,9.491-12.115,40.976-20.14,65.36c-14.276-63.122-21.761-128.791-21.761-196.235c0-9.414,0.154-18.829,0.54-28.243
			l25.156,21.992l3.781,115.287c2.469,0.309,7.717,0.926,14.739,0.926H153.348z"/>
		<path id="XMLID_169_" class="st0" d="M432.924,1493.506H326.202c-27.394-31.484-52.551-64.897-75.315-100.008
			c15.665-4.476,32.178-13.504,43.676-31.639c5.556-8.72,8.952-18.366,10.186-28.32
			C340.71,1392.186,383.846,1445.894,432.924,1493.506z"/>
		<path id="XMLID_168_" class="st0" d="M1890.682,909.43c0,223.244-82.491,427.504-218.459,584.075h-106.876
			c146.463-141.833,239.835-338.222,247.166-555.987c5.942-8.874,9.8-18.443,11.652-27.857l3.627-18.443
			c1.543-1.775,3.087-3.55,4.553-5.016l-2.932-2.856l0.231-1.234c8.18-3.473,15.511-7.485,21.453-11.266l-4.167-9.8l17.131-2.701
			c0.463-5.17,0.54-10.186,0.232-15.048l23.073-10.572C1889.601,858.038,1890.682,883.58,1890.682,909.43z"/>
		<path id="XMLID_167_" class="st0" d="M1742.213,417.415l-64.82-3.087l-36.731-5.17C1491.575,218.402,1259.457,95.63,999.174,95.63
			c-337.759,0-628.137,206.807-751.064,500.426l-4.862-4.63c-27.703,19.137-45.992,44.834-53.091,74.388
			c-2.701,11.729-5.093,25.388-7.871,41.207c-4.399,25.619-16.051,93.14-29.786,108.959l-42.673,31.793
			C141.542,384.851,528.302,17.923,999.174,17.923C1309.076,17.923,1582.478,176.809,1742.213,417.415z"/>
	</g>
	<path id="XMLID_161_" class="st1" d="M1658.178,1015.381l13.581-11.652c-17.131-9.723-22.224-43.136,0-60.344
		c22.301-17.131,64.743,4.784,64.743,4.784l2.238-39.432c18.443,1.312,21.066-11.884,21.066-11.884
		c-18.443-10.495,25.079-56.023,25.079-56.023c8.566-0.617,13.813,11.498,13.813,11.498c1.312-14.276-6.559-27.934-6.559-27.934
		c6.791,1.234,22.379-8.026,24.23-9.183c-19.523,5.016-9.723-25.774-9.723-25.774c10.495,3.318,26.314-3.936,26.314-3.936
		c-23.69-2.006-14.662-79.79-14.662-79.79c20.372,6.173,26.005-11.344,26.005-11.344c-26.005,15.279-33.336-24.847-33.336-24.847
		c10.726,1.157,20.372-10.186,20.372-10.186c-31.099,9.028-56.486-16.359-56.486-16.359c12.424,0,20.295-12.964,20.295-12.964
		c-25.388,7.871-37.812-14.122-37.812-14.122c8.489-1.697,12.424-12.424,12.424-12.424c-7.331,6.173-31.639,1.697-33.876-7.948
		c-2.084-8.565,3.164-11.343,4.244-11.806c-21.915,9.183-47.921-45.606-46.3-61.888c1.621-16.359-15.511-27.857-15.511-27.857
		c15.511,33.567-48.306,0.849-48.306,0.849c1.235-8.565,14.353-16.359,14.353-16.359c-17.98-0.849-29.863,11.035-29.863,11.035
		c-11.421-12.655-30.713-11.421-30.713-11.421c8.643,0.771,7.794,15.587,7.794,15.587c-37.966-9.491-88.973,9.723-88.973,9.723
		c-0.927-11.421-11.807-33.645-11.807-33.645c0,6.173-7.099,17.517-7.099,17.517c-2.855-18.983-21.375-45.529-21.375-45.529
		c0,8.565-8.488,22.301-8.488,22.301c-1.466-27.934-25.619-63.971-25.619-63.971c0.926,12.809-4.862,19.755-4.862,19.755
		c-6.096-24.925-24.925-53.091-24.925-53.091c1.62,6.096-1.621,17.517-1.621,17.517c-6.945-17.517-27.857-37.966-27.857-37.966
		c3.704,6.096,0,14.276,0,14.276c-10.186-16.745-34.339-28.938-34.339-28.938c5.787,5.093,8.874,13.736,9.183,14.816
		c-50.004-20.372-280.424-17.672-309.593-4.476c-29.169,13.118-85.809,0-85.809,0c4.553,5.093,10.263,5.093,10.263,5.093
		c-17.671,2.315-43.985-5.093-43.985-5.093c4.553,4.013,13.735,6.868,13.735,6.868c-42.905,4.553-90.979,33.722-105.256,46.3
		c-14.353,12.578-36.037,13.735-36.037,13.735c6.868,1.158,17.671,0,17.671,0c-55.406,40.05-176.712,59.496-176.712,59.496
		c17.748,3.395,41.979,2.547,41.979,2.547s-24.539,12.269-123.699,50.853c-99.082,38.583-120.997,64.048-120.997,64.048
		c-40.358,9.106-70.916,22.533-93.526,38.892c0,0,0,0-0.077,0.077c-15.665,11.343-27.549,24.153-36.191,37.966h-0.077
		c-33.104,52.705-19.446,119.531,6.714,175.014c0,0,0,0,0,0.077c17.208,36.5,39.895,68.061,58.184,87.43
		c15.819,16.668,27.471,34.262,36.037,51.933c26.237,54.248,23.459,109.5,20.14,141.91c-4.398,42.982-3.549,35.96,39.433,80.639
		c42.982,44.757,78.093,122.85,92.677,149.781c10.109,18.597,34.494-1.235,34.494-1.235s-2.392,27.317,9.491,27.317
		c11.884,0,52.319,9.569,65.361-8.257c13.118-17.826-46.3-51.162-46.3-51.162s-35.728-46.3-60.653-67.753
		c-24.925-21.375-52.319-80.793-42.751-127.171c9.491-46.3,14.199-141.37,14.199-141.37c45.22-73.694,35.651-208.041,35.651-208.041
		c16.668,111.737-5.247,200.556-5.247,200.556s45.914,33.259,81.797,41.284c35.883,8.026,56.409,72.537,56.409,72.537
		c0.463-22.687-15.125-56.641-16.051-58.724c7.717,4.012,20.141,18.057,20.141,18.057c0-7.254-5.556-21.066-5.556-21.066
		s80.948,9.26,126.013-10.263c30.481-13.118,92.755-18.829,129.949-21.066c17.826-1.158,29.941-1.466,29.941-1.466
		s33.413-44.448,7.176-94.221c-5.788-11.035-9.954-21.915-12.964-32.178c-10.649-36.346-6.559-65.206-6.559-65.206
		c-0.386,15.511,6.096,36.732,14.276,58.493c13.427,35.728,31.484,72.923,31.484,88.665c0,25.156,6.714,61.348,6.714,61.348
		c5.865-12.655,18.443-17.672,18.443-17.672c4.244,26.932,43.753,46.223,49.618,74.003c2.392,11.189,6.405,23.304,10.341,33.876
		c5.942,15.51,11.652,27.471,11.652,27.471c-2.083-15.742,10.726-27.163,10.726-27.163c2.855,28.552,14.276,48.538,14.276,48.538
		c1.466-18.52,17.131-28.551,17.131-28.551c7.871,24.307,0.695,60.73,0.695,60.73c11.421-6.482,19.986-23.613,19.986-23.613
		c0,13.581-12.115,49.309-12.115,49.309c27.163-7.871,57.104-44.988,57.104-44.988c0,12.809-11.421,38.506-11.421,38.506
		c19.292-9.26,27.085-38.506,27.085-38.506c0.772,20.681,8.566,47.072,8.566,47.072c9.337-22.842,17.903-28.552,17.903-28.552
		c2.855,23.613,0.694,52.088,0.694,52.088c13.581-10.649,24.23-47.072,24.23-47.072c0.308,2.392,1.312,4.399,2.855,6.096
		c6.096,7.254,19.986,9.646,19.986,9.646c-7.794-9.337,11.421-35.034,11.421-35.034c6.559,12.656,18.597,23.227,28.32,30.327
		c7.871,5.71,14.276,9.183,15.125,9.569c-24.153-24.23-21.993-77.012-21.993-77.012c2.855,15.048,27.086,30.018,27.086,30.018
		c-17.826-34.957-11.652-107.185-11.652-107.185c0.463,8.565,16.128,14.739,16.128,14.739c0-17.054,18.906-29.401,18.906-29.401
		c1.466,6.637,11.884,16.128,11.884,16.128c-1.389-13.273,19.446-26.545,19.446-26.545c0,14.661,13.272,43.599,13.272,43.599
		c0-15.202,13.736-31.33,13.736-31.33c2.855,32.719,28.397,66.364,28.397,66.364c-1.852-11.807,12.346-18.906,12.346-18.906
		c0.463,17.054,13.273,39.741,13.273,39.741c-8.026-22.224,3.781-62.042,3.781-62.042s15.665,61.116,18.983,95.687
		c3.318,34.648,28.397,58.338,28.397,58.338c-5.71-11.884-0.463-28.012-0.463-28.012c6.405,26.7,36.885,41.284,38.815,42.133
		c-28.397-20.372-26.005-64.82-26.005-64.82c2.315,22.532,27.703,35.651,29.323,36.423c-21.761-17.594-13.195-37.889-13.195-37.889
		c0,12.887,8.72,16.205,9.877,16.514c-0.231-0.772-3.473-12.347,15.665-39.741c19.909-28.397,11.498-100.008,11.498-100.008
		C1667.91,1020.957,1658.178,1015.381,1658.178,1015.381z M1594.13,622.91c-12.887,20.681-15.896,39.896-15.356,54.403
		c15.587,7.176,28.706,25.696,30.712,44.448c2.238,20.835-8.411,39.355-29.401,50.93c-11.112,6.096-22.301,9.183-33.336,9.183
		c-15.588,0-29.555-6.173-40.358-17.826c-17.903-19.446-25.234-51.47-21.684-95.301c6.714-83.803,83.571-152.404,106.721-152.404
		h7.254l6.096,4.399C1615.659,528.998,1636.494,555.312,1594.13,622.91z M1630.737,781.874c0,0,25.975-3.395,30.837,5.325
		C1666.512,795.918,1643.233,825.75,1630.737,781.874z"/>
	<path id="XMLID_160_" class="st0" d="M276.97,651.076c-18.443,29.323-25.697,64.743-21.53,103.944v0.386
		c-1.157,15.511-1.234,32.487,0.154,50.467c5.865,76.473-21.144,114.438-22.687,116.522c7.563-20.449,6.328-44.602,6.328-44.602
		c-30.018,84.806-92.677,75.701-92.677,75.701c71.148-15.125,68.138-64.357,68.138-64.357
		c-16.205,21.838-44.216,37.117-47.998,39.124c46.455-31.021,44.988-65.592,44.988-65.592c-12.887,10.572-18.983,5.247-18.983,5.247
		c41.67-31.021,50.775-142.296,61.347-186.975c3.704-15.588,14.276-27.086,26.468-35.497L276.97,651.076z"/>
	<path id="XMLID_159_" class="st0" d="M380.373,994.7c-27.008,28.938-80.562,84.112-101.86,90.362
		c-29.015,8.565-54.789,101.011-69.605,145.46c-14.816,44.525,23.845,78.016,30.249,91.52c6.405,13.581-38.043,10.958-61.887,7.717
		c-23.845-3.164-9.646-32.178-9.646-32.178c-9.029-7.717-7.563-33.413-7.563-33.413c-22.687,3.627,51.007-182.885,54.634-215.681
		c3.627-32.796,16.359-45.529,49.155-53.708c32.796-8.18,36.423-48.229,34.571-81.025c-0.617-11.421-0.309-24.153,0.309-35.805
		c13.735,23.459,29.864,45.528,45.76,62.35c13.195,13.89,24.076,29.478,32.256,46.377
		C378.058,989.376,379.216,991.999,380.373,994.7z"/>
	<path id="XMLID_158_" class="st1" d="M1083.748,1130.822c-1.466,7.563-2.16,15.665-1.697,23.922
		c2.083,38.12-21.916,58.955-21.916,58.955c2.392-13.195,0-15.279,0-15.279c-4.013,9.183-10.109,17.594-16.9,25.156
		c-19.909,22.07-46.146,36.268-47.766,37.117c4.09-10.958-2.855-15.356-2.855-15.356c-2.932,3.55-6.096,6.328-9.183,8.411
		c-0.077,0.077-0.077,0.077-0.077,0.077c-9.491,6.405-18.443,6.945-18.443,6.945c1.389-22.842-23.536-36.037-23.536-36.037
		c0,11.806-11.112,25.696-11.112,25.696c5.556-41.593-31.175-60.344-31.175-60.344c-9.723,5.556-11.112,18.752-11.112,18.752
		c-15.974-48.538,18.674-100.471,18.674-100.471c-23.922,4.552-43.985,18.211-45.605,19.292c1.157-2.161,20.295-36.5,50.467-53.939
		c31.176-18.057,28.475-44.371,28.475-44.371c-9.028,5.556-17.363,4.862-17.363,4.862c5.556-5.093,10.109-11.884,13.659-18.52
		c3.549-0.231,7.099-0.463,10.726-0.695c17.131-1.157,29.014-1.466,29.092-1.466l10.572-0.232l6.174-8.257
		c0.771,4.399,1.234,7.099,1.312,7.562l12.578,67.444l23.459-50.776c4.09,4.862,8.488,9.414,12.656,13.813
		c8.797,9.183,17.903,18.675,19.523,26.391c2.238,10.572,6.019,22.996,11.266,37.117c3.936,10.263,7.794,19.06,10.109,24.153
		V1130.822z"/>
	<path id="XMLID_157_" class="st0" d="M1083.748,1130.822c-1.466,7.563-2.16,15.665-1.697,23.922
		c2.083,38.12-21.916,58.955-21.916,58.955c2.392-13.195,0-15.279,0-15.279c-4.013,9.183-10.109,17.594-16.9,25.156
		c-19.909,22.07-46.146,36.268-47.766,37.117c4.09-10.958-2.855-15.356-2.855-15.356c-2.932,3.55-6.096,6.328-9.183,8.411
		c-0.077,0.077-0.077,0.077-0.077,0.077c-9.491,6.405-18.443,6.945-18.443,6.945c1.389-22.842-23.536-36.037-23.536-36.037
		c0,11.806-11.112,25.696-11.112,25.696c5.556-41.593-31.175-60.344-31.175-60.344c-9.723,5.556-11.112,18.752-11.112,18.752
		c-15.974-48.538,18.674-100.471,18.674-100.471c-23.922,4.552-43.985,18.211-45.605,19.292c1.157-2.161,20.295-36.5,50.467-53.939
		c31.176-18.057,28.475-44.371,28.475-44.371c-9.028,5.556-17.363,4.862-17.363,4.862c5.556-5.093,10.109-11.884,13.659-18.52
		c3.549-0.231,7.099-0.463,10.726-0.695c17.131-1.157,29.014-1.466,29.092-1.466l10.572-0.232l6.174-8.257
		c0.771,4.399,1.234,7.099,1.312,7.562l12.578,67.444l23.459-50.776c4.09,4.862,8.488,9.414,12.656,13.813
		c8.797,9.183,17.903,18.675,19.523,26.391c2.238,10.572,6.019,22.996,11.266,37.117c3.936,10.263,7.794,19.06,10.109,24.153
		V1130.822z"/>
	<path id="XMLID_156_" class="st0" d="M1078.115,1364.561c-17.98,0-61.425,4.861-63.663-3.318
		c-2.161-8.103,3.318-36.423-2.701-42.905c-3.318-3.627-18.288-12.27-26.159-27.78l19.986-10.495
		c0.772-0.386,10.418-5.479,22.919-14.507l-1.003,5.402l18.057-15.665c0.54,9.106,1.003,18.057,1.003,23.305
		c0,14.122,37.966,61.502,47.535,66.903C1103.658,1350.979,1096.095,1364.561,1078.115,1364.561z"/>
	<path id="XMLID_153_" class="st1" d="M1736.503,948.168c0,0-42.442-21.916-64.743-4.784c-22.224,17.208-17.131,50.621,0,60.344
		c17.208,9.723,54.711,5.556,60.344-13.041C1737.66,972.167,1736.503,948.168,1736.503,948.168z M1707.137,991.067
		c-6.713,7.485-30.925,3.313-20.888-15.059c0,0,1.108,5.62,10.522,6.16C1706.263,982.708,1713.851,983.505,1707.137,991.067z"/>
	<path id="XMLID_152_" class="st0" d="M1564.573,713.593c0,0-23.517-47.034,11.046-102.264s18.885-70.908,16.034-73.046
		s-78.747,52.023-85.161,132.195c-6.414,80.172,28.149,102.264,63.069,83.023c34.919-19.241,11.725-53.033-1.936-57.074
		C1567.626,696.427,1564.792,704.976,1564.573,713.593z"/>
	<path id="XMLID_151_" class="st1" d="M1347.813,1229.596c0,0-8.827-6.542-13.603-11.318c0,0-1.281,4.811,0.977,9.15l-35.449-6.088
		c-0.54-0.077-1.157-0.232-1.929-0.386l5.325,11.498c0,0-4.321,4.784-25.311,28.088c-21.067,23.305,8.565,51.316,24.385,61.811
		c15.742,10.495,26.314-2.855,37.735-27.24c11.498-24.385,5.788-55.02,5.788-55.02
		C1346.964,1237.081,1347.659,1233.454,1347.813,1229.596z"/>
	<g id="XMLID_135_">
		<rect id="XMLID_150_" x="1359.236" y="1570.851" class="st1" width="77.321" height="412.148"/>
		<rect id="XMLID_149_" x="1459.992" y="1570.851" class="st1" width="77.321" height="412.148"/>
		<rect id="XMLID_148_" x="1557.007" y="1570.851" class="st1" width="77.321" height="412.148"/>
		<g id="XMLID_144_">
			<polygon id="XMLID_147_" class="st1" points="821.711,1885.818 763.755,1983.033 670.321,1983.033 772.299,1806.274 			"/>
			<polygon id="XMLID_146_" class="st1" points="1002.422,1982.999 914.065,1982.999 838.905,1856.6 801.865,1797.104 
				789.441,1777.118 753.867,1712.607 675.774,1570.851 769.532,1570.851 838.597,1695.938 853.412,1722.87 883.353,1777.118 
				897.243,1801.117 			"/>
			<polygon id="XMLID_145_" class="st1" points="997.02,1570.851 912.445,1723.256 900.33,1745.094 888.523,1723.641 
				855.573,1663.915 903.648,1570.851 			"/>
		</g>
		<g id="XMLID_140_">
			<polygon id="XMLID_143_" class="st1" points="1164.244,1885.818 1106.288,1983.033 1012.854,1983.033 1114.832,1806.274 			"/>
			<polygon id="XMLID_142_" class="st1" points="1345.009,1982.999 1256.576,1982.999 1181.416,1856.6 1132.029,1777.118 
				1111.117,1739.229 1073.305,1670.628 1018.285,1570.851 1112.12,1570.851 1148.774,1637.292 1181.107,1695.938 
				1186.277,1705.353 1225.941,1777.118 			"/>
			<polygon id="XMLID_141_" class="st1" points="1339.53,1570.851 1305.114,1632.893 1242.918,1745.094 1213.131,1691.154 
				1198.084,1663.915 1239.214,1584.356 1246.159,1570.851 			"/>
		</g>
		<g id="XMLID_136_">
			<polygon id="XMLID_139_" class="st1" points="478.319,1885.818 420.363,1983.033 326.929,1983.033 428.907,1806.274 			"/>
			<polygon id="XMLID_138_" class="st1" points="659.029,1982.999 570.673,1982.999 495.513,1856.6 446.049,1777.118 
				366.413,1632.662 332.382,1570.851 426.14,1570.851 434.165,1585.358 495.204,1695.938 505.93,1715.385 539.961,1777.118 			"/>
			<polygon id="XMLID_137_" class="st1" points="653.628,1570.851 598.299,1670.474 560.333,1739.075 556.938,1745.094 
				551.69,1735.525 512.181,1663.915 525.299,1638.449 560.256,1570.851 			"/>
		</g>
	</g>
</g>
</svg>
