<?xml version="1.0" encoding="utf-8"?>
<!-- Generator: Adobe Illustrator 19.0.0, SVG Export Plug-In . SVG Version: 6.00 Build 0)  -->
<svg version="1.1" id="Layer_1" xmlns="http://www.w3.org/2000/svg" xmlns:xlink="http://www.w3.org/1999/xlink" x="0px" y="0px"
	 viewBox="0 0 2000 2000" style="enable-background:new 0 0 2000 2000;" xml:space="preserve">
<style type="text/css">
	.st0{fill:#444066;}
	.st1{fill:#F08539;}
	.st2{fill:#665E9A;}
</style>
<g>
	<path class="st0" d="M628.501,1442.267c-6.886,4.487-115.208,12.612-139.426,0.696c7.118-18.183-2.476-33.812-9.981-44.335
		c0.464-1.702,1.006-3.482,1.548-5.416c7.273-25.766,14.391-93.157,10.058-149.33c1.47-7.815,2.399-15.165,2.399-22.129
		c0,0,0.697-4.72,7.815-15.862c22.903-36.288,68.707-74.588,89.134-74.588c0.464,0,0.928,0,1.393,0.077
		c10.832,1.47,24.45,2.322,39.77,2.399c-4.488,15.087-9.13,37.371-9.13,64.993c0,53.62-5.184,73.04-9.053,102.752
		c-3.869,29.711-8.356,56.792,7.119,89.134C635.62,1422.924,635.62,1437.779,628.501,1442.267z"/>
	<g>
		<path class="st0" d="M1410.079,112.917c-8.588,21.819-16.403,47.739-21.046,76.986c-115.982-63.523-248.987-99.579-390.271-99.579
			c-450.003,0-816.055,366.13-816.055,816.056c0,80.159,11.606,157.609,33.27,230.804v0.077
			c-8.202,33.658-17.409,98.342,17.796,141.439c-7.118,17.022-13.463,37.217-18.028,58.494
			C145.104,1209.373,104.87,1062.519,104.87,906.38c0-492.868,400.948-893.893,893.893-893.893
			C1147.01,12.486,1286.901,48.774,1410.079,112.917z"/>
		<path class="st0" d="M1892.656,906.38c0,223.454-82.403,427.951-218.425,584.787h-106.93
			c152.657-148.324,247.517-355.685,247.517-584.787c0-209.372-79.23-400.484-209.372-545.095
			c-3.25-29.557-8.666-55.864-13.463-79.23c-4.024-19.576-7.583-36.83-8.976-51.608
			C1772.573,394.478,1892.656,636.657,1892.656,906.38z"/>
	</g>
	<path class="st1" d="M850.593,603.308l0.077,0.077c-0.155,0-0.31,0-0.155-0.077H850.593z"/>
	<path class="st2" d="M1584.711,72.76c-10.291-12.612-3.095-17.1,1.779-26.075c4.952-8.976-7.582-23.289-40.312-10.755
		c-32.806,12.534-103.526,109.638-95.246,230.572c8.356,120.934,6.731,151.42-33.812,163.876
		c-40.466,12.534-71.493-9.517-114.976-17.022c-43.484-7.505-51.995-11.451-63.524-22.438c-11.451-11.064-20.504-18.57-93.002-3.559
		c-72.499,15.01-64.916,35.205-99.193,36.52c-34.276,1.315-92.539,10.987-131.38,45.959c-38.841,34.973-41.472,25.224-55.012,58.881
		c-5.416,13.308-10.291,28.396-20.349,40.234c1.857,7.118,4.488,17.177,5.803,20.659c1.702,4.72,3.869,9.672,5.88,12.921
		c0.155,0.309,0.309,0.387,0.464,0.619c0.387-0.155,0.928-0.31,1.47-0.542c1.161-0.387,2.012-1.006,4.952-1.934
		c0.464-0.077,1.16-0.232,1.702-0.387l0.928-0.077c0.387-0.077,1.161-0.077,1.78,0c1.47,0.155,2.166,0.077,4.255,1.083
		c1.779,0.851,3.791,2.785,4.178,3.714c0.774,1.161,1.316,2.553,1.625,3.869c0.077,0.619,0.155,1.161,0.232,1.779
		c0.077,1.47,0,2.089-0.077,2.708l-0.232,1.934l-0.077,1.16c0,0.851,0,1.78,0.155,2.786c0.464,4.023,2.089,8.433,4.178,11.993
		c1.006,1.779,2.244,3.404,3.559,4.72c0.697,0.697,1.238,1.083,2.166,1.857c1.47,1.161,2.94,2.244,4.101,3.404
		c4.72,4.565,8.124,9.053,11.683,13.308c3.404,4.255,6.886,8.433,9.981,11.219c1.006,1.006,2.089,1.548,2.399,1.78
		c1.316,0.154,2.708,0.464,4.024,0.774c1.238,0.309,1.702,0.619,2.553,0.928c1.702,0.697,3.095,1.315,4.41,2.012
		c5.338,2.631,10.136,5.494,15.01,8.279c9.595,5.571,19.034,11.219,28.551,16.481c4.798,2.63,9.595,5.106,14.392,7.427
		c4.642,2.089,9.826,4.333,13.695,4.798h0.851l0.387,0.077c0.232,0,0.696-0.077,1.083-0.154c1.47-0.31,2.94-0.542,4.41-0.697
		c3.095-0.387,6.267-0.619,9.517-0.387c6.499,0.232,14.391,3.714,18.415,9.827c1.006,1.47,1.779,3.017,2.553,4.565l0.928,2.244
		c0,0,0,0.077,0.078,0.154c0.774,1.006,3.172,2.631,5.261,3.946c4.488,2.631,9.362,5.106,14.237,7.351
		c9.904,4.565,20.117,8.743,30.408,12.689c20.504,7.814,41.472,14.933,62.673,20.968c10.523,2.785,21.355,5.958,31.8,6.654
		c4.875,0.077,9.13-2.785,10.832-7.814c1.934-4.797,2.244-10.291,2.089-15.707c-0.309-10.909-2.708-21.742-5.726-32.342
		c-3.095-10.6-6.964-20.968-11.374-31.104c4.797,9.982,9.13,20.195,12.689,30.717c3.482,10.523,6.422,21.355,7.196,32.651
		c0.31,5.571,0.31,11.374-1.625,17.022c-0.464,1.393-1.316,2.708-1.934,4.101c-1.006,1.16-1.934,2.553-3.173,3.481
		c-2.553,1.934-5.803,3.095-8.898,3.095c-11.683-0.309-22.361-3.018-33.271-5.494c-21.664-5.184-42.942-11.451-64.065-18.492
		c-10.6-3.559-21.046-7.351-31.491-11.606c-5.184-2.167-10.368-4.488-15.552-7.273c-2.63-1.625-5.106-2.786-8.047-5.803
		c-0.697-0.619-1.857-2.708-2.167-3.404l-0.696-1.47c-0.464-1.006-1.006-1.857-1.625-2.631c-2.398-3.095-5.726-4.488-10.213-4.642
		c-2.244-0.077-4.565,0.154-7.041,0.542c-1.238,0.232-2.398,0.464-3.637,0.773c-0.387,0.077-0.542,0.155-1.006,0.232l-1.702,0.154
		c-1.083,0.077-2.167,0.077-3.25,0.077c-7.273-0.774-12.303-3.095-17.873-5.184c-5.262-2.244-10.446-4.643-15.475-7.196
		c-10.059-5.029-19.808-10.368-29.557-15.475c-4.797-2.553-9.749-5.107-14.392-7.119c-1.16-0.619-2.321-1.083-3.25-1.393
		c-0.387-0.077-1.006-0.387-1.238-0.387c0,0,0,0,0-0.077c-6.422-0.309-9.827-3.172-12.534-5.184
		c-5.261-4.333-8.976-8.743-12.689-12.921c-3.637-4.101-7.196-8.279-10.6-11.142c-0.851-0.774-1.625-1.316-2.399-1.857
		c-1.316-0.929-3.018-2.167-4.255-3.404c-2.708-2.476-4.952-5.184-6.886-8.125c-3.482-5.571-5.958-11.451-7.196-17.95
		c-1.857,0.309-3.869,0.541-6.113,0.232l-2.166-0.309c-0.928-0.31-2.012-0.697-2.94-1.161c-2.244-1.083-2.94-1.857-4.101-2.785
		c-1.16-1.006-1.702-1.779-2.399-2.553c-0.774-0.851-1.393-1.625-1.857-2.321c-4.024-5.958-6.345-11.297-8.743-16.79
		c-1.934-4.643-3.636-9.207-5.261-13.928c-17.1,7.737-42.71,9.362-83.099-0.541c-98.573-24.141-183.22-44.258-289.531,44.257
		C341.4,715.655,331.728,765.019,328.324,849.665s-4.024,220.05-7.428,271.503c-3.404,51.375,8.821,122.482-18.26,166.507
		c-27.081,44.025-41.318,153.664-12.921,157.068c28.473,3.404,139.504,16.249,153.044-6.808c13.54-22.98-34.509-36.52-25.069-91.378
		c9.517-54.858,29.092-96.794,29.092-125.267c0-6.5,4.178-16.171,11.142-27.158c23.444-37.062,78.688-89.212,112.114-84.492
		c11.219,1.548,26.848,2.399,44.954,2.244c51.685-0.464,124.107-8.898,175.715-30.021c0,0,0-78.534-9.44-103.603
		c-9.517-24.991-21.664-106.93,8.356-134.32c0,0-22.129,52.923,0,130.219c22.051,77.296,8.821,118.071,39.693,179.893
		c30.949,61.821-44.103,273.747-16.558,283.728c27.622,9.904,162.329,18.182,166.275,4.178c3.946-14.005,7.815-36.443-10.136-49.364
		c-17.951-12.921-30.872-34.818-21.278-65.69c9.517-30.872,16.79-79.694,26.926-144.224c1.934-12.38,4.256-24.605,6.731-36.597
		c10.601-50.448,24.528-95.556,27.313-120.315c3.404-30.64,25.146-39.461,34.044-57.179c6.963-14.005,57.72-32.806,102.906-89.598
		c11.76-14.778,23.057-32.11,33.193-52.691c49.055-99.347,96.717-95.246,140.278-105.46c43.561-10.213,95.324-49.751,95.324-49.751
		s58.494,1.393,53.078-15.629c-2.244-7.119-5.88-12.612-10.136-17.1c-12.457-1.779-24.527-4.565-36.133-8.279
		c-17.022-5.494-33.27-13.076-48.281-22.67l-12.534-8.047l2.863-14.546c3.172-16.635,19.575-48.358,58.881-49.055l6.422-0.155
		l5.571,3.404c0.31,0.232,2.553,1.548,6.345,3.404c5.803,2.94,15.088,7.196,27.003,10.987c0.31,0.154,0.697,0.232,1.083,0.387
		c4.952,1.625,9.904,3.018,14.856,4.101c6.19-5.571,12.457-11.838,18.26-18.802c19.421-22.748,35.669-53.542,39.306-94.163
		c10.213-112.733-35.901-187.398-21.664-255.951c14.237-68.553,33.89-97.722,50.215-95.633
		C1585.716,95.353,1595.078,85.295,1584.711,72.76z M1250.071,497.772c0,0-1.238-29.247,27.235-12.148
		C1277.306,485.624,1276.068,496.688,1250.071,497.772z"/>
	<path class="st0" d="M1177.031,1431.357c-13.093,8.622-169.912,12.921-166.043-4.565c3.869-17.409,20.04-129.833,5.803-176.334
		c-5.494-17.951-13.385-39.383-21.045-61.125c0,0,0,0,0-0.078l0.464-3.173c1.702-10.755,3.791-22.36,6.499-35.514
		c4.565-21.51,9.749-42.401,14.391-60.815c6.19-24.76,11.529-46.115,13.308-61.589c1.393-12.612,7.273-19.034,15.475-27.854
		c5.261-5.803,11.297-12.225,15.784-20.736c2.476-2.553,10.368-7.892,16.79-12.225c15.784-10.678,37.448-25.456,59.964-47.74
		c0,0.232-0.077,0.542-0.155,0.851c-5.803,25.842,19.963,187.243,18.028,247.981c-1.934,60.738-17.486,187.94-9.362,204.111
		C1155.057,1388.724,1197.846,1417.649,1177.031,1431.357z"/>
	<path class="st1" d="M1652.335,561.218c-14.856,24.14-124.726,80.081-224.46,47.971c-14.701-4.72-29.247-11.374-43.174-20.272
		c0,0,5.88-30.64,37.758-31.259c0,0,2.863,1.779,8.124,4.41c6.809,3.404,17.641,8.279,31.259,12.612
		c30.098,9.672,73.736,16.558,117.375-1.393c2.785-1.161,5.494-2.244,8.124-3.404
		C1664.482,538.16,1667.035,537.309,1652.335,561.218z"/>
	<path class="st2" d="M1587.341,569.884c-2.63,1.16-5.339,2.244-8.124,3.404c-43.639,17.95-87.277,11.064-117.375,1.393
		c-13.618-4.333-24.45-9.207-31.259-12.612c-5.261-2.631-8.124-4.41-8.124-4.41c-31.878,0.619-37.758,31.259-37.758,31.259
		c13.927,8.898,28.473,15.552,43.174,20.272c99.734,32.11,209.604-23.831,224.46-47.971
		C1667.035,537.309,1664.482,538.16,1587.341,569.884z"/>
	<path class="st0" d="M1627.42,522.376c-4.565,3.714-12.302,9.594-20.968,16.016c-7.892,3.172-17.1,6.963-28.009,11.451
		c-1.625,0.697-3.328,1.393-5.03,2.089l-2.553,1.083c-15.32,6.268-32.032,9.517-49.596,9.517c-3.559,0-7.196-0.155-10.833-0.464
		c2.863-2.94,5.494-5.88,7.892-8.743c5.03-5.88,9.672-11.993,13.85-18.337c27.003-4.41,58.958-12.303,78.147-25.843
		C1648.698,482.142,1642.508,510.074,1627.42,522.376z"/>
	<path class="st2" d="M314.087,776.857c-4.72,21.974-6.577,45.418-7.66,71.957c-1.625,39.151-2.553,88.592-3.482,136.409
		c-1.083,55.167-2.166,107.239-3.946,134.475c-1.006,15.475-0.696,31.8-0.387,49.054c0.387,23.599,0.851,47.739-2.244,68.862
		c-4.72,3.946-9.517,1.934-9.517,1.934c-26.075-25.997-3.869-97.877-3.869-97.877c0-25.224-2.321-233.203,0-294.405
		C284.453,808.038,301.862,786.915,314.087,776.857z"/>
	<g>
		<rect x="1284.954" y="1568.682" class="st2" width="77.546" height="413.264"/>
		<g>
			<polygon class="st2" points="1667.424,1568.682 1583.249,1756.183 1624.878,1853.811 1750.662,1568.682 			"/>
			<polygon class="st2" points="1578.24,1813.384 1573.199,1801.723 1474.135,1568.682 1390.974,1568.682 1567.58,1981.947 
				1609.641,1887.027 			"/>
		</g>
		<g>
			<polygon class="st2" points="1087.787,1884.471 1029.676,1981.947 935.992,1981.947 1038.243,1804.715 			"/>
			<polygon class="st2" points="1269.015,1981.947 1180.389,1981.947 1104.998,1855.209 1055.453,1775.453 941.466,1568.682 
				1035.497,1568.682 1104.721,1694.103 1149.622,1775.453 			"/>
			<polygon class="st2" points="1263.54,1568.682 1166.652,1743.362 1121.75,1662.012 1169.925,1568.682 			"/>
		</g>
		<g>
			<polygon class="st2" points="743.476,1884.471 685.365,1981.947 591.681,1981.947 693.932,1804.715 			"/>
			<polygon class="st2" points="924.704,1981.947 836.078,1981.947 760.687,1855.209 711.142,1775.453 597.155,1568.682 
				691.186,1568.682 760.41,1694.103 805.312,1775.453 			"/>
			<polygon class="st2" points="919.229,1568.682 822.341,1743.362 777.439,1662.012 825.614,1568.682 			"/>
		</g>
		<g>
			<polygon class="st2" points="398.658,1884.471 340.547,1981.947 246.863,1981.947 349.114,1804.715 			"/>
			<polygon class="st2" points="579.886,1981.947 491.26,1981.947 415.869,1855.209 366.324,1775.453 252.337,1568.682 
				346.368,1568.682 415.592,1694.103 460.494,1775.453 			"/>
			<polygon class="st2" points="574.411,1568.682 477.523,1743.362 432.621,1662.012 480.796,1568.682 			"/>
		</g>
	</g>
</g>
</svg>
