<?xml version="1.0" encoding="utf-8"?>
<!-- Generator: Adobe Illustrator 19.0.0, SVG Export Plug-In . SVG Version: 6.00 Build 0)  -->
<svg version="1.1" id="Layer_1" xmlns="http://www.w3.org/2000/svg" xmlns:xlink="http://www.w3.org/1999/xlink" x="0px" y="0px"
	 viewBox="0 0 2000 2000" style="enable-background:new 0 0 2000 2000;" xml:space="preserve">
<style type="text/css">
	.st0{fill:#675B4A;}
	.st1{fill:#99804E;}
	.st2{fill:#907F67;}
	.st3{fill:#9C824F;}
</style>
<g>
	<path class="st0" d="M1668.502,1287.539c-33.57,12.522-40.024-8.297-69.445,0c-29.422,8.297-57.615,1.306-76.82-25.581
		c-19.205-26.887-94.413-99.559-105.936-124.526c0,0-1.613,6.376,0,10.217c0,0-56.079-51.162-74.592-81.583
		c-15.288-24.967-36.49-48.627-45.785-79.586c29.883-3.303,78.28-25.504,125.064-47.014c28.884-13.29,56.156-25.812,72.979-30.882
		c3.303-0.999,6.683-1.844,10.294-2.381c-1.69,13.751-3.226,31.804-2.228,48.167c1.921,31.957-5.07,65.912,9.603,98.561
		c14.749,32.649,71.059,129.98,78.741,152.334c7.682,22.432,40.023-1.613,57.615,14.442c0,0-15.364,0-25.274,4.456
		c0,0,56.386-6.069,57.923,14.749c0,0-11.831-3.533-37.411-2.919c0,0,36.797,3.841,44.172,9.91
		C1694.774,1252.048,1702.149,1275.094,1668.502,1287.539z"/>
	<path class="st1" d="M1865.085,934.934c-24.429,62.531-84.733,99.252-84.733,99.252c9.142-12.061,16.824-23.815,23.123-35.107
		c18.821-33.186,26.656-61.917,29.806-80.354c0.384,0.077,0.768,0.077,1.152,0.077c2.228,0.154,4.302,0.231,5.992,0.231
		c7.375,5.608,14.135,10.14,20.588,13.751C1862.396,933.55,1863.779,934.242,1865.085,934.934z"/>
	<path class="st2" d="M1833.282,918.724c-3.15,18.437-10.985,47.168-29.806,80.354c-19.589,14.596-37.949,16.44-37.949,16.44
		c30.958-25.735,43.404-71.981,48.167-98.407c0.845,0.153,1.69,0.23,2.535,0.307
		C1821.605,918.033,1827.289,918.417,1833.282,918.724z"/>
	<path class="st1" d="M1902.343,845.975c-5.301-38.41-41.79-49.78-41.79-49.78c-0.615-13.444-12.138-32.649-12.138-32.649
		c0-13.444-17.285-32.649-17.285-32.649c-5.762-15.978-138.968-108.777-205.495-120.3c-66.603-11.523-100.711-52.929-195.892-99.867
		c-45.554-22.431-112.695-0.692-186.981,2.535c-72.057,3.073-189.439-37.104-384.102-7.682
		c-194.586,29.422-340.545,49.933-396.854,187.902c-56.386,137.97-190.13,205.725-274.633,201.961
		c-84.502-3.764-83.273-133.821-22.431-162.475c29.96-14.135,56.233-95.488-37.795-49.395S41.83,998.541,241.563,937.391
		c154.179-47.244,200.348-114.001,230.461-175.995c8.911-18.36,16.44-36.259,24.967-53.16
		c32.188-64.068,57.922-81.583,59.459-82.582c-109.93,144.422,11.6,288.998,22.508,320.341
		c10.832,31.42-58.921,58.922-85.194,111.39c-2.689,5.454-3.918,11.754-3.918,18.898c-0.077,61.84,91.724,178.377,97.408,184.062
		c6.376,6.376-1.921,14.749,5.147,26.887c6.991,12.137,106.243,23.66,109.469-0.615c2.996-22.892-28.5-32.726-32.265-33.878
		c43.788,3.917,41.176,33.186,41.176,33.186s33.954-2.535,30.113-27.501c-3.841-24.967-42.251-26.273-75.515-29.422
		c-33.34-3.226-96.717-102.479-28.193-133.207c68.524-30.728,142.732-90.264,142.732-90.264c-1.153,8.451-5.224,17.361-5.685,18.514
		c2.228-0.999,42.404-20.358,71.673-85.732c30.037-67.218,7.682-160.631,7.682-160.631c35.184,60.765,9.603,144.038,9.603,144.038
		s28.117-12.829,67.833,12.752c39.716,25.658,142.348,39.102,142.348,39.102c5.3-16.67-9.833-12.215,14.519-90.956
		c24.276-78.741,65.912-85.117,65.912-85.117c-38.41,17.899-67.833,106.934-64.683,133.129c3.226,26.273,3.226,65.989-10.217,79.432
		c-13.06,13.06-24.275,43.096-24.89,45.017c4.917-3.764,19.359-0.23,19.359-0.23c-11.984,7.067-9.219,18.59-32.879,82.582
		c-23.661,63.991-9.142,96.025,6.222,117.151c15.364,21.126,1.921,29.806,13.905,46.092c12.061,16.286,38.948,8.604,51.931,16.286
		c12.906,7.682,56.617,13.751,57.077-5.685c0.538-19.513-28.347-33.647-28.347-33.647c34.108-0.461,39.409,33.647,39.409,33.647
		s22.047,1.383,19.666-30.267c-2.381-31.727-58.691-20.665-60.611-52.699c-1.536-24.89,71.674-154.255,97.101-195.584
		c22.508-36.413,14.596-78.511,70.06-110.237c7.298-4.302,15.748-8.296,25.504-12.137c52.008-20.281,83.888-54.62,100.558-77.589
		c8.68-11.984,13.29-20.895,14.442-23.123c-2.151,8.988-5.608,17.746-9.987,26.119c-20.972,39.409-63.607,70.675-100.711,86.116
		c-45.094,18.667-45.094,43.173-45.094,43.173c42.712-3.303,150.261-63.377,195.892-77.281c6.683-2.074,13.444-3.303,20.204-3.918
		c39.409-3.764,77.742,13.136,82.659,16.44c5.762,3.841,2.305,12.752,2.305,12.752c8.604-2.228,16.901-9.603,16.901-9.603
		c4.225,7.989,3.533,22.431,3.533,22.431c6.76-7.682,13.136-20.204,13.136-20.204c5.147,8.988,2.535,27.195,2.535,27.195
		c8.681-9.219,12.214-19.82,12.214-19.82s24.967,23.046,21.126,34.569c-3.841,11.523-12.829,30.882-8.988,65.451
		c3.841,34.569,53.313,30.267,53.313,30.267s16.516,1.46,24.199-3.38c0,0-22.509,0.615-32.111-8.527
		c-4.993-11.831-10.14-34.723-7.989-77.896c3.841-77.742,71.136-77.742,91.724-66.757c9.295,4.993,23.507,7.605,36.336,8.988
		c6.223,0.692,12.138,1.076,16.978,1.306c7.451,0.384,12.445,0.308,12.445,0.308c1.076,0.845,2.074,1.613,3.073,2.381
		c7.835,6.146,14.596,10.678,20.511,13.981c45.478,25.274,38.871-23.968,38.871-23.968
		C1943.596,875.013,1902.343,845.975,1902.343,845.975z M1706.758,725.674c-8.757-6.76-18.667-11.83-29.038-15.364
		c-10.447-3.457-21.279-5.608-32.188-6.146c-9.833-0.384-19.974,0.154-29.499,2.074c0.692,9.142,6.53,18.59,13.213,26.119
		c1.921,2.074,3.918,4.149,5.992,5.838c1.997,1.613,4.763,3.457,4.994,2.766c1.536-0.231,3.995-1.997,5.992-3.841
		c2.151-1.844,4.225-3.841,6.222-5.992l3.227-3.226c0.538-0.538,1.152-1.152,1.767-1.69c0.307-0.23,0.922-0.691,1.383-0.999
		c0.154-0.153,1.306-0.538,1.921-0.538c0.768,0,1.383,0.231,1.921,0.615c2.228,1.844,1.767,3.226,1.997,4.149
		c0,0.998-0.077,1.844-0.231,2.689c-0.23,1.613-0.537,3.073-0.845,4.609c-0.768,2.996-1.536,5.838-2.381,8.758l-1.306,4.302
		c-0.154,1.152-0.461,2.381-0.231,3.534c0.538,5.07,5.224,9.449,9.833,12.752c4.84,3.303,10.14,6.069,15.671,8.374
		c-5.762-1.536-11.446-3.611-16.747-6.683c-5.07-2.996-10.831-6.76-12.522-13.828c-0.461-1.69-0.23-3.457,0-5.224l1.076-4.379
		c0.615-2.842,1.229-5.761,1.767-8.604c0.154-1.075,0.308-2.151,0.385-3.149l-2.228,2.612c-1.997,2.228-3.995,4.532-6.222,6.76
		c-2.458,2.074-4.609,4.456-8.988,5.685c-0.999,0.307-2.381,0.307-3.764,0.076c-0.999-0.384-2.151-0.768-2.842-1.229
		c-1.613-0.845-2.919-1.767-4.225-2.765c-2.612-1.997-4.84-4.149-6.99-6.453c-4.225-4.609-7.989-9.679-10.908-15.287
		c-2.842-5.685-5.147-12.138-4.609-19.282l0.231-2.765l2.612-0.538c11.754-2.612,23.2-3.226,34.8-2.381
		c11.523,0.922,23.046,3.457,33.724,7.913c10.678,4.302,20.818,10.217,29.345,17.899c8.757,7.375,15.748,16.593,21.894,26.042
		C1723.429,740.347,1716.054,731.897,1706.758,725.674z M1815.459,793.43c0,0-16.593-11.753-19.512-22.585
		c0,0,26.656-0.23,35.337,5.531C1831.284,776.376,1828.135,788.59,1815.459,793.43z"/>
	<path class="st0" d="M474.252,1047.782c-4.071,8.297-6.146,17.899-6.146,28.501c0,10.14,1.844,21.202,5.147,32.725
		c-11.753,38.333-20.28,96.87-16.286,103.323c5.762,9.295,15.364-3.841,49.319,4.763c33.878,8.681,28.116,45.478,28.116,45.478
		c-17.592-45.094-56.617-36.797-56.617-36.797c32.188,0.461,52.776,24.506,45.094,44.172
		c-7.682,19.666-124.295,26.887-130.595-2.381c-6.222-29.269-25.888-29.269-38.41-49.011
		c-12.445-19.666-6.222-75.822-15.364-125.294c-9.065-49.472,30.728-82.121,72.058-100.788
		c41.329-18.744,58.076-72.979,54.696-117.228c-1.306-17.822-0.461-39.793,0.922-59.613c0.077-0.077,0.077-0.154,0.077-0.231
		c9.065-13.52,16.593-26.887,23.353-40.484c5.685,68.293,39.102,125.832,57.923,158.25c4.532,7.913,9.756,16.901,10.755,19.359
		c-0.768,5.685-16.9,20.05-27.578,29.499C511.74,998.925,488.157,1019.897,474.252,1047.782z"/>
	<g>
		<path class="st0" d="M1846.725,655.691c-14.673-11.523-34.339-25.351-60.765-41.944c-13.981-8.757-29.96-18.283-46.783-27.424
			c-125.064-286.387-410.989-487.041-742.93-487.041c-348.764,0-646.751,221.473-760.676,531.136
			c-15.517-16.44-37.872-26.196-63.223-26.196c-3.149,0-6.376,0.154-9.679,0.461C287.272,264.983,613.911,22,996.247,22
			C1397.403,22,1737.333,289.642,1846.725,655.691z"/>
		<path class="st0" d="M437.532,1495.722H330.368c-119.763-135.895-198.657-308.741-217.325-498.948
			c22.201,9.756,46.937,14.98,73.67,14.98c1.921,0,3.841,0,5.762-0.077C216.366,1201.039,305.939,1370.275,437.532,1495.722z"/>
		<path class="st0" d="M1876.148,1025.966c-23.508,178.684-100.404,340.775-214.099,469.757h-107.088
			c44.556-42.482,84.272-89.957,118.227-141.503c5.915-1.306,11.907-3.149,17.976-5.378c15.287-5.685,27.117-13.059,36.259-20.972
			l13.597-13.751c43.788-43.788,8.297-94.028,5.378-98.023c-0.077-0.154-0.154-0.231-0.154-0.231
			c17.822-43.173,31.881-88.266,41.867-134.82L1876.148,1025.966z"/>
	</g>
	<g>
		<g>
			<polygon class="st3" points="1605.371,1571.709 1521.798,1757.87 1563.13,1854.8 1688.015,1571.709 			"/>
			<polygon class="st3" points="1516.826,1814.662 1511.82,1803.084 1413.464,1571.709 1330.897,1571.709 1506.241,1982.021 
				1548.002,1887.779 			"/>
		</g>
		<g>
			<polygon class="st3" points="1139.376,1885.242 1081.68,1982.021 988.665,1982.021 1090.185,1806.055 			"/>
			<polygon class="st3" points="1319.308,1982.021 1231.315,1982.021 1156.463,1856.189 1107.273,1777.002 994.1,1571.709 
				1087.459,1571.709 1156.188,1696.233 1200.769,1777.002 			"/>
			<polygon class="st3" points="1313.873,1571.709 1217.677,1745.14 1173.096,1664.371 1220.927,1571.709 			"/>
		</g>
		<g>
			<polygon class="st3" points="797.525,1885.242 739.829,1982.021 646.815,1982.021 748.335,1806.055 			"/>
			<polygon class="st3" points="977.458,1982.021 889.465,1982.021 814.612,1856.189 765.422,1777.002 652.249,1571.709 
				745.608,1571.709 814.337,1696.233 858.918,1777.002 			"/>
			<polygon class="st3" points="972.022,1571.709 875.826,1745.14 831.245,1664.371 879.076,1571.709 			"/>
		</g>
		<g>
			<polygon class="st3" points="455.171,1885.242 397.475,1982.021 304.461,1982.021 405.981,1806.055 			"/>
			<polygon class="st3" points="635.104,1982.021 547.111,1982.021 472.259,1856.189 423.068,1777.002 309.895,1571.709 
				403.254,1571.709 471.983,1696.233 516.564,1777.002 			"/>
			<polygon class="st3" points="629.668,1571.709 533.472,1745.14 488.891,1664.371 536.722,1571.709 			"/>
		</g>
	</g>
</g>
</svg>
