<?xml version="1.0" encoding="utf-8"?>
<!-- Generator: Adobe Illustrator 19.0.0, SVG Export Plug-In . SVG Version: 6.00 Build 0)  -->
<svg version="1.1" id="Layer_1" xmlns="http://www.w3.org/2000/svg" xmlns:xlink="http://www.w3.org/1999/xlink" x="0px" y="0px"
	 viewBox="0 0 2000 2000" style="enable-background:new 0 0 2000 2000;" xml:space="preserve">
<style type="text/css">
	.st0{fill:#523F66;}
	.st1{fill:#7F5D9A;}
</style>
<g id="XMLID_200_">
	<g id="XMLID_218_">
		<g id="XMLID_257_">
			<path id="XMLID_258_" class="st0" d="M304.68,1337.154c-2.387,24.637-4.081,32.798,17.091,30.796
				c0.847-0.077,1.771-0.154,2.694-0.231C317.614,1357.71,310.992,1347.47,304.68,1337.154z M1650.841,1424.075
				c-2.387,0.077-9.316,0.385-13.935,1.232l-12.318,2.155c-19.324,23.482-39.881,45.886-61.669,67.058h106.323
				c19.709-22.789,38.341-46.579,55.663-71.292L1650.841,1424.075z M372.815,1432.005v-0.077c-0.847-0.231-1.694-0.462-2.541-0.77
				c-1.078-0.077-3.388-0.308-7.391-0.308c-11.087,0-25.484,1.386-34.954,2.31c-4.157,0.385-7.93,0.539-11.625,0.539
				c-26.253,0-43.73-10.163-54.431-20.171c19.247,28.178,40.111,55.278,62.438,80.993h106.4
				C410.386,1474.734,390.985,1453.87,372.815,1432.005z M996.815,23.559c-490.5,0-889.537,399.036-889.537,889.46
				c0,172.61,49.504,333.673,135.039,470.252c-6.159-18.093-4.388-36.031-3.156-49.427l0.616-6.236
				c1.54-17.169,6.775-56.511,10.702-84.612l1.001-7.853c-0.847-2.002-1.694-3.927-2.541-5.928v-0.077
				c-2.31-5.312-4.542-10.702-6.621-16.091v-0.077c-0.308-0.154-0.616-0.385-0.924-0.539c-2.233-1.463-4.466-2.926-6.621-4.389
				c-4.85-3.233-9.547-6.775-14.474-10.855l-1.309-1.155c-2.464-2.079-4.543-3.927-6.467-5.697c-0.924-0.847-2.387-2.156-4.08-3.849
				c-1.386-1.309-2.772-2.695-4.081-4.081c-0.77-0.847-1.617-1.694-2.387-2.617c-1.078-1.078-2.079-2.233-3.08-3.388
				c-2.849-3.233-5.543-6.467-7.93-9.701c-0.539-0.616-1.001-1.232-1.463-1.848l-3.695-3.696l-1.848-3.695l-0.385-0.462
				l-1.386-2.617c-0.308-0.616-1.386-2.31-1.386-2.31c-2.464-3.926-4.696-7.699-6.621-11.548c-0.924-1.616-1.771-3.388-2.618-5.081
				l-1.155-2.079c0,0-2.464-5.851-2.618-6.159c-1.155-2.387-1.848-4.311-2.155-5.158l-1.386-3.696c-1-2.54-1.771-4.927-2.54-7.314
				c0,0-0.539-1.617-0.693-2.233c-0.77-2.31-1.463-4.696-2.079-7.083c-0.77-3.003-1.539-6.005-2.155-9.085
				c-0.693-3.003-1.309-6.082-1.848-9.239c-0.616-3.388-1.155-7.237-1.54-11.241c-0.308-3.079-0.616-5.928-0.77-8.931
				c-0.231-2.771-0.308-5.697-0.462-8.7c-0.539-20.325,1.771-40.804,6.852-61.515c4.235-17.169,12.164-35.877,26.177-54.739
				c-0.231-8.392-0.385-16.784-0.385-25.253c0-73.14,9.701-144.124,28.024-211.567c0,0,0,0,0-0.077
				c-16.63-44.269-22.173-91.079-14.243-134.27c11.933-64.979,52.738-112.636,112.02-130.728
				c11.548-3.542,23.174-6.005,34.722-7.468C448.65,290.097,595.238,185.391,765,134.808c3.08-1.077,5.928-2.001,9.085-2.925h0.693
				c70.599-20.095,145.048-30.873,222.038-30.873c266.769,0,503.896,129.342,651.947,328.591c0.077,0.077,0.154,0.154,0.154,0.231
				c17.4,18.246,40.958,48.657,60.052,93.62c0.077,0.154,0.154,0.308,0.231,0.385c13.396,24.406,25.637,49.504,36.493,75.45
				c18.324,27.639,26.792,50.197,30.18,67.751c0.385,0.385,0.77,0.77,1.155,1.155c15.783,15.783,45.116,45.039,41.497,90.155
				c-1.309,16.475-7.006,32.104-17.015,46.656v0.077c4.773,35.338,7.237,71.292,7.237,107.939
				c0,147.05-39.265,285.092-107.939,404.118l54.432,60.052c83.072-135.194,131.036-294.177,131.036-464.17
				C1886.275,422.595,1487.239,23.559,996.815,23.559z"/>
		</g>
		<path id="XMLID_253_" class="st1" d="M1186.133,1390.431c8.084-20.787-7.16-31.874-25.638-31.874s-168.222-85.381-194.399-165.681
			c-25.252-77.76-133.731-114.869-140.506-117.101c74.295,15.398,94.62,38.726,94.62,38.726
			c28.717-11.471,53.046-38.803,53.046-38.803c232.277-7.622,101.241-307.188,18.708-380.482
			c-82.61-73.294-214.723-175.613-204.792-258.839c6.082-51.583,39.342-69.83,67.135-75.681c17.015-3.618,32.028-2.541,37.571-1.694
			c14.551,2.31,27.331,5.235,29.102,39.572c0.308,6.005,1.001,10.933,2.156,15.09c5.389,19.94,19.94,22.635,39.111,36.108
			c23.251,16.245,43.653,97.7,77.374,97.7s18.632-25.561,18.632-25.561c1.155,30.257-47.734-22.096-72.14-53.508
			c-24.406-31.412,0-43.653,10.702-43.653c10.625,0,8.469,29.641,46.887,41.882c11.086,3.541,20.248,8.7,27.639,14.32
			c18.246,13.473,25.869,29.333,25.869,29.333s3.772-1.617,10.855-14.628c3.849-7.083,8.623-17.477,14.243-32.721
			c4.927-13.242,2.541-23.174-3.233-31.412c-9.008-12.857-26.33-21.865-38.264-33.491c-5.851-5.62-10.471-11.933-12.165-19.555
			c-3.465-15.398-8.7-28.409-14.32-39.573c-6.544-13.088-13.704-23.867-19.17-33.336c-2.31-4.004-6.082-6.16-10.625-7.237h-0.077
			c-1.694-0.385-3.465-0.539-5.312-0.616c-13.088-0.616-29.179,5.62-32.798,7.16l-0.154,0.077c-0.385,0.154-0.616,0.231-0.616,0.231
			c6.313,4.543,10.701,12.472,11.163,13.473c-5.928-4.311-11.933-8.546-17.938-12.472h-0.077v-0.077
			c-13.55-8.931-27.408-16.63-41.882-22.404c11.933,12.934,19.401,22.327,20.402,23.636l5.466,6.852l-5.62,6.775
			c-3.465,4.311-9.239,9.315-15.013,13.781c-8.161,6.467-16.322,11.933-17.785,12.857l-9.239,6.082l-6.005-9.239
			c-18.401-28.563-36.647-51.429-53.662-69.675c-17.477,3.233-36.031,9.854-56.048,20.71c-8.161,4.465-16.63,9.547-25.253,15.474
			c-96.699,65.749-36.878,244.134,85.689,335.828c104.475,78.145,101.549,166.298,98.393,190.549
			c-0.539,4.235-1.078,6.544-1.078,6.544c-13.781,0.154-27.1,5.697-39.419,14.397c-27.408,19.478-49.966,54.971-61.669,84.457
			c-1.694,4.388-4.081,9.085-7.006,14.089c-6.159,10.779-14.782,22.789-24.406,35.107c0,0,0,0-0.077,0
			c-5.389,6.852-11.086,13.781-16.938,20.556c-3.387,3.927-6.852,7.853-10.239,11.703v0.077c-8.7,9.701-17.323,18.94-25.253,27.331
			c0,0,0,0-0.077,0c-13.242,13.935-24.636,25.253-31.027,31.72l-2.31,2.31c-20.171,19.786-36.185,31.181-21.788,65.98
			c0.462,1.155,1.078,2.387,1.771,3.619v0.077c3.465,6.005,9.085,12.395,16.553,19.17c0,0,0,0,0,0.077
			c37.494,34.029,120.258,75.373,180.925,99.932c75.219,30.488,87.46,75.296,101.472,113.637
			c14.012,38.418,45.193,38.88,45.193,38.88c13.088,1.771,23.482,17.169,23.482,17.169c2.695-12.626,1.309-15.398,1.309-15.398
			c30.719-32.027-21.634-50.582-21.634-50.582c41.112-0.924,39.264,45.655,39.264,45.655c12.241,7.237,19.016,2.694,19.016,2.694
			c10.394,0.462,24.791,17.63,24.791,17.63c3.618-11.779-0.847-23.944-0.847-23.944c15.321-38.88-37.494-45.655-37.494-45.655
			c57.357-5.389,45.578,38.418,45.578,38.418c13.55,3.619,18.554-5.389,18.554-5.389c6.775,0.385,18.478,12.626,18.478,12.626
			C1195.602,1401.209,1186.133,1390.431,1186.133,1390.431z M974.411,354.614c0.693,0.077,1.386,0.154,2.078,0.308
			c6.39,1.155,12.01,3.927,16.784,7.391c15.244,11.087,22.789,29.487,22.789,29.487c-22.789-2.155-34.953-7.468-41.189-13.319
			c-11.471-10.932-2.695-24.098-2.695-24.098c0.77,0.077,1.463,0.154,2.156,0.231H974.411z"/>
		<path id="XMLID_252_" class="st1" d="M914.822,276.469c-35.492-35.877-93.003-83.842-142.97-78.837
			c0,0,42.806,15.013,96.699,75.296c15.86,17.708,32.721,39.265,49.658,65.595c0,0,22.789-15.013,30.488-24.406
			C948.697,314.117,935.455,297.334,914.822,276.469z"/>
		<path id="XMLID_251_" class="st0" d="M1013.137,275.93c-11.933,0.77-23.636,4.466-30.334,6.929
			c-5.235-3.234-10.316-6.159-15.321-8.854c-25.252-62.131-63.054-104.244-63.054-104.244
			C958.32,189.317,995.584,244.595,1013.137,275.93z"/>
		<path id="XMLID_250_" class="st0" d="M1398.547,628.08c-15.167,7.237-28.486,19.709-38.495,39.419
			c-12.934,25.561-17.323,64.44-19.94,108.709c-3.849,64.441-3.849,140.044-20.787,202.098
			c-20.787,76.528-67.443,132.345-178.847,120.874c0,0,34.26-10.393,44.192-23.867c0,0-17.015,7.16-42.421,13.781
			c-35.569,9.393-87.614,17.939-132.114,4.62c66.288-12.319,94.466-50.967,106.322-83.842
			c38.957-107.862-50.351-278.009-110.018-330.978c-9.777-8.7-20.248-17.785-31.104-27.178
			c-73.371-63.67-173.92-150.822-166.528-212.799c3.31-27.562,16.091-42.806,31.72-50.813
			c-17.091,17.785-26.023,44.808-0.462,83.765c31.951,48.734,149.283,111.096,241.285,204.176
			c4.388,4.465,8.854,9.008,13.088,13.627c3.157,3.388,6.313,6.852,9.316,10.24c0.539,0.616,1.078,1.232,1.617,1.848
			c2.849,3.233,5.62,6.467,8.314,9.701c6.083,7.314,11.934,14.705,17.4,22.019c2.618,3.619,5.235,7.237,7.776,10.933
			c2.541,3.618,5.005,7.314,7.391,11.009c2.387,3.618,4.696,7.314,6.852,10.932c2.156,3.542,4.235,7.083,6.16,10.625
			c0.077,0.154,0.154,0.231,0.231,0.385l2.31,4.234c24.944,46.194,39.804,98.162,37.571,157.059c0,0,7.93-41.728-4.389-97.546
			l5.389-73.063c0.462-7.314,0.616-16.475,0-27.254c0-0.077,0-0.077,0-0.077c-1.309-24.945-6.621-58.281-21.557-96.776
			c-5.389-14.012-12.087-28.717-20.325-43.961c-3.618-6.698-6.852-13.396-9.701-20.171c-1.155-2.695-2.31-5.466-3.311-8.161
			l-0.616-1.463c-1.001-2.464-1.848-5.005-2.695-7.391l-0.385-1.155c-0.924-2.849-1.848-5.697-2.849-8.931
			c-0.308-1.155-0.616-2.232-1.001-3.695c-0.462-1.617-0.924-3.234-1.309-4.85l-0.385-1.848c-0.77-3.003-1.463-6.005-2.078-8.7
			c-0.616-3.31-1.232-6.544-1.694-9.624l-3.388-21.403c4.466-8.7,9.008-19.478,13.704-32.027
			c5.081-13.781,5.312-27.255,0.616-39.496l5.081-7.237c0.462-0.693,1.001-1.232,1.54-1.848l0.385-0.385l0.308-0.462l0.77-0.693
			c1.925-2.156,4.08-4.004,6.236-5.466l1.078-0.77l0.693-0.385c1.463-0.924,3.003-1.694,4.465-2.31l1.232-0.462l0.693-0.154
			l1.386-0.462l0.308-0.077l1.386-0.385c0.616-0.154,1.232-0.308,1.848-0.385c9.854-1.616,19.478-2.463,28.717-2.463h2.233
			c-8.776,3.079-16.861,9.085-23.559,18.939c-31.643,46.656-10.932,104.706,17.785,176.306
			c7.468,18.554,15.475,37.956,23.251,58.358l2.771,7.391c1.617,4.234,3.157,8.623,4.773,13.011
			c2.002,5.697,4.081,11.394,6.005,17.168c2.617,7.853,5.851,17.554,9.008,28.794c2.771,9.393,5.312,18.939,7.622,28.64
			c0.077,0.154,0.077,0.308,0.077,0.462c0.77,3.31,1.54,6.698,2.31,10.086c0.462,2.079,0.847,4.157,1.309,6.313l0.77,3.849
			c0.385,1.848,0.693,3.772,1.078,5.62c8.776,48.118,11.009,100.241,0.462,156.597c0,0,15.937-38.264,15.629-122.029
			c2.464-11.394,5.466-22.866,8.931-34.106C1302.079,709.767,1343.268,643.709,1398.547,628.08z"/>
		<path id="XMLID_249_" class="st0" d="M1567.923,1374.263c0,0,6.39,9.777-10.239,10.316c-6.083,0.308-15.244-0.693-29.025-3.927
			c-51.121-11.856-122.953,0.385-126.032-42.19c-3.003-42.498-146.973-65.595-185.853-93.542
			c-33.798-24.328-66.288-74.295-74.372-123.645c8.931,0.847,17.708,1.232,26.023,1.232c81.532,0,136.81-38.957,164.757-115.793
			c3.003,14.705,2.464,35.338-8.623,62.439c-25.638,62.669-41.036,85.228-44.115,120.181c0,0,5.928-24.252,13.319-28.871
			c0,0,79.146,41.266,130.42,97.161c34.491,37.648,60.206,56.587,82.302,63.671c10.702,3.541,20.633,4.234,30.18,2.926
			c11.78-1.617,19.094,0.847,23.559,4.388c6.698,5.159,7.16,12.781,7.16,12.781s25.253,7.853,38.341,28.409
			c0.847,1.463,1.693,2.926,2.464,4.465C1608.189,1374.263,1581.859,1367.257,1567.923,1374.263z"/>
		<path id="XMLID_248_" class="st0" d="M1605.726,1369.798c0.847,1.463,1.693,2.926,2.464,4.465c0,0-26.331-7.006-40.266,0
			c0,0,6.39,9.777-10.239,10.316c-0.231-0.077-0.385-0.231-0.616-0.308l-23.328-10.932l-7.853-19.556l-19.401-32.489
			c10.702,3.541,20.633,4.234,30.18,2.926c11.78-1.617,19.094,0.847,23.559,4.388c6.698,5.159,7.16,12.781,7.16,12.781
			S1592.637,1349.242,1605.726,1369.798z"/>
		<path id="XMLID_247_" class="st0" d="M1650.072,1358.634c0,0-12.781,0.154-24.329,2.156c-0.385-0.616-0.77-1.309-1.155-1.925
			l-0.462-0.77c-11.164-17.553-28.101-27.87-39.265-33.105c-0.154-0.385-0.385-0.77-0.616-1.155
			c7.083,0.308,14.474,2.464,20.941,8.238c2.002,1.771,3.927,3.927,5.697,6.544
			C1610.884,1338.617,1634.288,1341.234,1650.072,1358.634z"/>
		<path id="XMLID_246_" class="st0" d="M1650.072,1358.634c0,0-12.781,0.154-24.329,2.156c-0.385-0.616-0.77-1.309-1.155-1.925
			l-0.462-0.77c-11.164-17.553-28.101-27.87-39.265-33.105c-0.154-0.385-0.385-0.77-0.616-1.155
			c7.083,0.308,14.474,2.464,20.941,8.238c2.002,1.771,3.927,3.927,5.697,6.544
			C1610.884,1338.617,1634.288,1341.234,1650.072,1358.634z"/>
		<path id="XMLID_245_" class="st1" d="M1178.587,766.739c-17.323-31.104-40.034-61.669-68.135-91.926
			c-4.466-4.773-9.008-9.47-13.55-14.089c0.154-23.25-2.772-60.591-16.552-112.635c2.54-5.466,3.31-11.01,3.079-16.091l3.157,6.544
			l19.247-8.161c1.693-0.77,3.388-1.771,5.081-3.002c0.539,3.388,1.155,6.852,1.848,10.393c0.693,3.31,1.463,6.621,2.31,9.931
			c0.077,0.385,0.154,0.847,0.308,1.309c0.462,2.001,1.001,4.003,1.54,6.005c0.385,1.386,0.77,2.771,1.232,4.234
			c0.924,3.157,1.925,6.313,3.003,9.47c1.078,3.079,2.156,6.236,3.388,9.393c0.154,0.462,0.308,0.924,0.539,1.386
			c1.155,3.003,2.387,6.005,3.695,9.008c3.08,7.314,6.621,14.628,10.547,21.865C1177.587,680.818,1180.281,738.791,1178.587,766.739
			z"/>
		<path id="XMLID_241_" class="st1" d="M1463.988,454.7c-17.553-13.011-36.57-23.174-39.496-39.496
			c-3.156-17.631-18.554-37.109-34.26-53.046l-1.694-1.694c-16.861-16.86-33.721-29.41-35.646-30.796
			c-0.077-0.077-0.154-0.077-0.154-0.154c0.385,4.003-1.617,6.39-4.697,7.776c-8.469,3.849-24.868,0.385-24.868,0.385
			s0,0,0.077,0.077c6.775,13.627,1.616,33.567,1.616,33.567c0.385-15.937-7.468-22.25-7.468-22.25s-38.88-24.945-88.23-37.263
			c-22.019-5.543-46.117-8.469-69.753-5.621c-16.245,2.002-30.334,9.701-42.19,21.634c-2.31,2.31-4.543,4.773-6.698,7.468
			c-8.315,10.24-15.321,22.635-21.018,36.647c0.154,0.539,0.308,1.155,0.462,1.771c0.539,2.387,2.54,5.312,5.928,8.623
			c3.849,3.695,8.777,7.391,13.935,11.318c6.852,5.158,14.397,10.778,20.787,17.63c0.924-1.309,1.925-2.464,2.926-3.619
			c0.539-0.693,1.155-1.309,1.771-1.925c3.157-3.464,6.621-6.467,10.317-8.931c0.77-0.616,1.617-1.155,2.464-1.617
			c2.387-1.463,4.927-2.772,7.545-3.849c1.078-0.462,2.079-0.847,3.157-1.155c0.385-0.154,0.77-0.308,1.232-0.385
			c1.001-0.385,2.002-0.693,3.08-0.847c1.386-0.385,2.772-0.693,4.157-0.924c61.669-10.163,119.18,7.622,139.428,60.899
			c-0.847,12.934,5.543,24.79,17.785,33.182c7.314,5.158,16.784,8.931,28.101,11.009c29.025,5.158,46.656,16.63,64.44,37.032
			c0.693,0.693,1.309,1.463,1.925,2.155c14.782,17.477,36.416,6.313,44.346,1.155c3.465,0.539,6.929,1.155,10.547,1.771
			c7.853,5.159,10.009,10.625,10.009,10.625c1.309-2.694,2.464-5.235,3.465-7.776C1506.332,492.81,1486.315,471.407,1463.988,454.7z
			 M1368.674,374.939c0,0,26.946,7.776,36.032,36.955C1404.706,411.894,1349.889,417.437,1368.674,374.939z"/>
		<path id="XMLID_237_" class="st1" d="M1463.988,454.7c-17.553-13.011-36.57-23.174-39.496-39.496
			c-3.156-17.631-18.554-37.109-34.26-53.046l-1.694-1.694c-16.861-16.86-33.721-29.41-35.646-30.796
			c-0.077-0.077-0.154-0.077-0.154-0.154c0.385,4.003-1.617,6.39-4.697,7.776c-8.469,3.849-24.868,0.385-24.868,0.385
			s0,0,0.077,0.077c6.775,13.627,1.616,33.567,1.616,33.567c0.385-15.937-7.468-22.25-7.468-22.25s-38.88-24.945-88.23-37.263
			c-22.019-5.543-46.117-8.469-69.753-5.621c-16.245,2.002-30.334,9.701-42.19,21.634c-2.31,2.31-4.543,4.773-6.698,7.468
			c-8.315,10.24-15.321,22.635-21.018,36.647c0.154,0.539,0.308,1.155,0.462,1.771c0.539,2.387,2.54,5.312,5.928,8.623
			c3.849,3.695,8.777,7.391,13.935,11.318c6.852,5.158,14.397,10.778,20.787,17.63c0.924-1.309,1.925-2.464,2.926-3.619
			c0.539-0.693,1.155-1.309,1.771-1.925c3.157-3.464,6.621-6.467,10.317-8.931c0.77-0.616,1.617-1.155,2.464-1.617
			c2.387-1.463,4.927-2.772,7.545-3.849c1.078-0.462,2.079-0.847,3.157-1.155c0.385-0.154,0.77-0.308,1.232-0.385
			c1.001-0.385,2.002-0.693,3.08-0.847c1.386-0.385,2.772-0.693,4.157-0.924c61.669-10.163,119.18,7.622,139.428,60.899
			c-0.847,12.934,5.543,24.79,17.785,33.182c7.314,5.158,16.784,8.931,28.101,11.009c29.025,5.158,46.656,16.63,64.44,37.032
			c0.693,0.693,1.309,1.463,1.925,2.155c14.782,17.477,36.416,6.313,44.346,1.155c1.925-1.232,3.079-2.079,3.079-2.079
			c2.926,1.155,5.389,2.541,7.468,3.849c7.853,5.159,10.009,10.625,10.009,10.625c1.309-2.694,2.464-5.235,3.465-7.776
			C1506.332,492.81,1486.315,471.407,1463.988,454.7z M1368.674,374.939c0,0,26.946,7.776,36.032,36.955
			C1404.706,411.894,1349.889,417.437,1368.674,374.939z"/>
		<path id="XMLID_236_" class="st1" d="M1352.584,493.118c-11.318-2.079-20.787-5.851-28.101-11.009
			c17.246-6.852,35.646-11.703,54.817-14.474l29.487-4.234l22.558,19.478c4.234,3.619,8.392,7.622,12.626,12.087l16.168-7.468
			l8.854-22.866l-5.005-9.931c22.327,16.707,42.344,38.109,23.328,83.379c-1.001,2.541-2.156,5.082-3.465,7.776
			c0,0-2.155-5.466-10.009-10.625c-3.619-0.616-7.083-1.232-10.547-1.771c-7.93,5.158-29.564,16.322-44.346-1.155
			c-0.616-0.693-1.232-1.463-1.925-2.155C1399.24,509.747,1381.609,498.276,1352.584,493.118z"/>
		<path id="XMLID_232_" class="st1" d="M1712.202,686.131c0.462-13.319-9.315-32.028-19.94-48.35
			c-12.395-19.17-26.1-35.03-26.1-35.03c-24.098,17.4-44.346-8.469-48.888-14.936c-0.616-0.924-0.924-1.463-0.924-1.463
			c-5.62-2.849-11.164-5.543-16.63-8.084c4.234,8.392,6.698,13.858,7.083,14.705l1.925,4.466l-2.002,4.466
			c-4.62,10.009-15.475,14.936-25.253,17.246c-7.93,1.925-15.167,2.233-17.708,2.233l-8.931,0.077l-1.848-8.7
			c-3.926-18.554-13.242-41.42-23.173-62.823c-7.237-2.387-14.243-4.543-21.172-6.467c-0.385,1.001-0.77,2.079-1.232,3.08
			c-1.001,2.54-2.387,5.62-3.927,8.854l-16.861,34.799l-21.711-32.798c-7.006,3.233-16.168,6.159-26.099,6.159
			c-14.397,0-27.023-5.928-36.493-17.169l-0.538-0.539l-0.539-0.539l-0.693-0.847c-4.08-4.619-8.007-8.623-11.933-12.01
			c-91.926,13.165-130.651,83.226-146.203,127.957c3.772,10.009,7.468,20.325,11.086,30.95c7.237,21.557,15.09,47.425,21.018,76.912
			c16.091-66.519,84.688-269.001,295.871-99.393c-13.55,23.328-6.698,32.951,32.49,53.2c39.11,20.248,56.664,40.958,78.76,62.593
			c22.019,21.557,35.492-4.543,35.492-4.543c6.313,2.31,9.008,8.546,9.008,8.546
			C1795.042,739.176,1711.278,714.925,1712.202,686.131z M1608.882,642.092c0,0,28.794,10.547,34.722,37.494
			C1643.604,679.586,1586.016,669.501,1608.882,642.092z"/>
		<path id="XMLID_231_" class="st0" d="M1660.08,580.27l-6.698,4.773c-1.155,0.847-2.772,1.771-4.004,1.771
			c-3.387,0-12.78-3.388-17.091-9.47l-14.628-14.705c-0.924-12.395-3.927-30.026-11.703-53.661
			c-4.542-13.704-10.625-29.41-18.786-47.272c0,0,25.253,18.016,48.966,61.361h0.077
			C1644.759,538.696,1653.151,557.635,1660.08,580.27z"/>
		<path id="XMLID_230_" class="st1" d="M1596.794,597.362c-3.695,8.161-16.09,11.241-24.636,12.395
			c-4.85,0.616-8.469,0.693-8.469,0.693c-0.847-3.927-1.925-8.084-3.156-12.318c-2.079-6.929-4.62-14.243-7.545-21.711
			c-10.547-27.562-25.637-56.741-36.339-76.143v-0.077c-0.308-5.543-1.309-10.779-2.695-15.552
			c6.698,5.005,13.088,10.702,19.171,16.784C1572.158,540.852,1596.794,597.362,1596.794,597.362z"/>
		<path id="XMLID_229_" class="st1" d="M464.279,1050.291c7.083,5.389,13.704,10.625,19.324,15.244
			c-12.319,8.854-28.486,13.396-46.887,13.396c-20.479,0-43.345-5.697-64.825-16.245c0,0-6.39-3.311-7.468-3.927l0.231-0.693
			c0.308-0.924,0.616-1.771,1.001-2.695c0.847-2.233,1.771-4.311,2.694-6.39c0.539-1.386,1.155-2.772,1.848-4.081
			c0.539-1.232,1.155-2.464,1.771-3.618c0.616-1.232,1.232-2.464,1.925-3.619c0.924-1.617,1.848-3.156,2.772-4.696
			c3.003-4.696,6.236-8.931,9.855-12.164c0.462-0.462,0.924-0.924,1.462-1.309c0.616-0.539,1.309-1.001,1.925-1.463
			c0.539-0.385,1.155-0.77,1.694-1.078c1.54-0.924,3.156-1.616,4.85-2.155c0.539-0.154,1.001-0.308,1.54-0.385
			c0.462-0.077,1.001-0.154,1.463-0.231c0.693-0.077,1.386-0.154,2.078-0.154c2.079,0,4.158,0.385,6.313,1.155
			c6.698,2.387,14.782,6.698,23.328,12.01c2.464,1.54,5.004,3.156,7.545,4.85c1.617,1.078,3.31,2.233,4.927,3.388
			c0.154,0.077,0.231,0.154,0.385,0.231c3.003,2.002,5.928,4.158,8.854,6.236c0.462,0.385,0.924,0.693,1.386,1.001
			c0.077,0.154,0.231,0.231,0.385,0.308c1.771,1.309,3.542,2.54,5.235,3.849C461.353,1048.135,462.816,1049.213,464.279,1050.291z"
			/>
		<path id="XMLID_228_" class="st1" d="M618.797,993.935c2.771,14.705,3.541,29.564,2.155,44.038
			c-0.308,2.31-0.539,4.62-0.847,6.929c-1.232,9.085-3.388,18.092-6.39,26.792c-0.77,2.31-1.616,4.543-2.54,6.775
			c-1.54,3.772-3.234,7.468-5.082,11.087c-0.616,1.309-1.309,2.541-2.002,3.849c-1.848,3.388-3.849,6.698-6.005,9.932
			c-2.618,4.003-5.466,7.853-8.623,11.702c-6.159,7.622-13.32,14.782-21.403,21.48c-5.851,4.85-12.241,9.392-19.093,13.627
			c-0.847,0.616-1.848,1.155-2.771,1.694c-3.542,2.079-7.237,4.157-11.087,6.082c-0.77,0.385-1.54,0.77-2.31,1.155
			c-2.464,1.232-5.005,2.387-7.622,3.541c-2.54,1.155-5.235,2.31-7.93,3.388c-0.154,0-0.308,0.077-0.462,0.154
			c-2.387,1.001-4.927,1.925-7.468,2.849c-2.002,0.693-4.08,1.386-6.159,2.079c-1.694,0.539-3.465,1.078-5.235,1.616
			c-3.618,1.078-7.314,2.156-11.009,3.08c-1.617,0.462-3.31,0.847-5.082,1.232c-1.386,0.385-2.849,0.693-4.311,1
			c-2.849,0.616-5.697,1.232-8.546,1.694c-0.077,0.077-0.154,0.077-0.231,0.077c-3.388,0.693-6.775,1.232-10.24,1.771
			c-3.619,0.616-7.237,1.078-11.009,1.54c-5.851,0.693-11.703,1.309-17.477,1.693c-6.852,0.616-13.627,1.078-20.325,1.232
			c-4.542,0.231-9.085,0.308-13.55,0.308h-1.694c-4.004,0-8.007-0.077-11.856-0.308c-2.618-0.077-5.005-0.231-7.391-0.462
			c-1.386,0-2.772-0.154-4.157-0.231h-0.462c-2.079-0.154-4.158-0.308-6.236-0.539l-3.003-0.308l-2.002-0.231
			c-1.309-0.154-2.541-0.308-3.849-0.539l-1.617-0.154l-1.155-0.231c-3.08-0.385-6.159-0.924-9.316-1.463h-0.077
			c-2.926-0.538-5.851-1.077-8.7-1.693c-2.387-0.539-5.004-1.232-7.776-1.925l-2.849-0.693l-4.773-1.463
			c-1.001-0.231-1.925-0.538-2.849-0.847l-1.463-0.462c-4.157-1.309-7.93-2.617-11.779-4.157l-1.463-0.539
			c-0.308-0.154-0.539-0.231-0.847-0.385c-0.616-0.231-1.309-0.539-2.156-0.924c-1.54-0.616-3.08-1.309-4.542-2.002
			c-0.154,0-0.231-0.077-0.385-0.154c-0.616-0.308-1.232-0.616-1.848-0.924c-1.309-0.693-2.694-1.309-4.004-2.002
			c-0.308-0.154-0.539-0.308-0.847-0.462c-1.771-0.924-3.465-1.848-5.158-2.849c-1.848-1.001-3.619-2.079-5.389-3.233
			c-1.616-1.001-3.233-2.079-4.773-3.157c-2.849-1.925-5.543-3.849-8.084-5.928c-0.539-0.462-1.155-0.924-1.694-1.386
			c-1.771-1.54-3.464-3.003-5.081-4.543c-0.847-0.77-1.771-1.54-2.541-2.387c-0.847-0.77-1.694-1.617-2.464-2.464
			c-0.924-0.924-1.771-1.925-2.617-2.849c-0.231-0.231-0.462-0.385-0.616-0.616c-2.002-2.232-3.927-4.542-5.697-6.929
			c-1.155-1.463-2.31-3.003-3.31-4.543c-0.154-0.154-0.231-0.231-0.308-0.385c-0.154-0.231-0.385-0.462-0.539-0.77v-0.077
			c-0.77-1.078-1.54-2.156-2.233-3.387c-0.154-0.231-0.308-0.462-0.462-0.693c-1.463-2.31-2.849-4.696-4.08-7.16
			c-0.77-1.309-1.386-2.771-2.079-4.157c-0.154-0.385-0.385-0.693-0.539-1.078c-0.154-0.308-0.308-0.616-0.385-0.924
			c-0.308-0.693-0.616-1.309-0.847-1.925c-0.308-0.616-0.539-1.232-0.77-1.848l-0.077-0.077c-0.231-0.385-0.385-0.847-0.539-1.232
			c-0.077-0.308-0.231-0.539-0.308-0.847l-1.155-3.003c-0.385-1.001-0.693-2.001-1.001-3.002c-0.308-1.078-0.693-2.079-1.001-3.157
			c-0.385-1.078-0.693-2.156-0.924-3.233c-0.616-2.156-1.155-4.311-1.617-6.467c-0.462-2.155-0.924-4.388-1.309-6.621
			c-0.385-2.155-0.693-4.388-0.924-6.698c-0.231-2.233-0.462-4.466-0.616-6.775c-0.154-2.233-0.231-4.542-0.308-6.852
			c-0.385-14.012,1.386-28.64,5.004-43.345c19.556-78.837,154.826-112.405,215.109-123.568
			c59.898,50.813,85.459,105.553,69.368,152.208c-11.856-3.619-23.251-6.159-34.183-7.776c-9.778-7.237-20.248-14.628-30.18-20.864
			c-10.779-6.621-19.786-11.24-27.562-14.012c-4.466-1.617-9.008-2.387-13.627-2.387c-18.092,0-33.798,11.702-46.733,34.799
			c-4.234,7.622-7.776,15.86-10.548,23.251c-7.006,3.695-10.701,6.39-10.701,6.39c-17.862-5.928-41.882-33.491-44.808-36.878
			c13.011,19.017,30.18,35.492,49.427,48.503c6.236,4.235,12.78,8.084,19.401,11.548v0.077
			c49.35,25.792,106.862,29.795,143.277-0.077c5.543-4.542,10.548-9.777,14.936-15.936c3.465-4.697,6.544-9.932,9.239-15.629
			c0.693-1.309,1.232-2.694,1.848-4.08c24.251-57.973-7.237-111.558-60.283-163.757c-3.542-3.465-7.16-6.929-10.855-10.47
			c-30.95-28.871-67.905-57.511-104.937-86.228C246.09,702.452,227.998,541.39,320.078,502.51c3.079-1.309,6.313-2.54,9.7-3.541
			c33.953-10.394,63.748-6.313,90.386,5.697c31.258,14.012,58.05,38.88,81.917,63.901c17.554,18.401,33.491,36.878,48.427,51.198
			c52.507,50.505,107.169,65.21,107.169,65.21c-52.045-2.617-86.767-28.024-122.49-60.283l-0.077-0.154
			c-21.249-19.17-42.806-40.728-68.675-61.515c-16.784-13.473-35.338-23.174-53.507-28.409c-0.539-0.231-1.078-0.385-1.617-0.539
			c-1.001-0.308-1.925-0.539-2.926-0.77c-0.308-0.154-0.616-0.231-1.001-0.308c-3.388-0.847-6.852-1.54-10.24-2.002
			c-1.077-0.154-2.233-0.308-3.388-0.462c-0.924-0.154-1.848-0.231-2.771-0.308c-1.386-0.154-2.772-0.231-4.234-0.308
			c-1.771-0.077-3.542-0.154-5.312-0.154c-6.775,0-13.165,0.693-19.247,2.155c-1.232,0.231-2.387,0.539-3.542,0.924
			c-2.001,0.539-3.926,1.232-5.774,1.925c-1.155,0.385-2.233,0.847-3.31,1.386c-2.155,0.924-4.234,2.002-6.236,3.157
			c-1.001,0.616-2.002,1.232-2.926,1.848c-2.001,1.309-3.849,2.694-5.697,4.234c-1.616,1.309-3.156,2.771-4.696,4.311
			c-0.462,0.462-0.924,1.001-1.386,1.463c-0.539,0.616-1.078,1.232-1.54,1.848c-0.77,0.924-1.54,1.848-2.31,2.849
			c-0.462,0.616-0.924,1.155-1.309,1.771c-0.616,0.847-1.232,1.771-1.771,2.694c-0.462,0.77-0.924,1.463-1.386,2.233
			c-0.616,1.001-1.155,2.079-1.694,3.08c-1.54,3.08-2.926,6.236-4.235,9.701c-0.462,1.155-0.847,2.31-1.155,3.542
			c-0.462,1.386-0.924,2.772-1.232,4.157c-0.462,1.386-0.77,2.849-1.078,4.311c-0.693,2.926-1.232,5.928-1.617,9.085
			c-0.385,2.772-0.693,5.62-0.924,8.546c-0.616,8.546-0.462,17.708,0.385,27.485c0.154,1.771,0.385,3.619,0.616,5.389
			c0.154,1.309,0.385,2.618,0.616,3.927c0.385,2.464,0.924,4.927,1.463,7.391l1.155,4.388c0.462,1.694,1.001,3.388,1.54,5.082
			c0.462,1.694,1.001,3.388,1.694,5.081c9.855,26.561,28.486,50.043,51.814,71.985c1.463,1.463,2.926,2.849,4.465,4.157
			c1.463,1.309,3.003,2.694,4.543,4.004c1.54,1.463,3.08,2.771,4.619,4.08c2.926,2.464,5.851,4.927,8.854,7.468
			c4.234,3.464,8.546,6.852,12.934,10.239c2.079,1.617,4.157,3.234,6.236,4.773c14.859,11.318,30.411,22.404,46.194,33.645
			c8.7,6.159,17.477,12.395,26.177,18.785c3.31,2.387,6.544,4.85,9.854,7.237c3.619,2.618,7.16,5.312,10.702,8.007
			c2.772,2.079,5.543,4.234,8.238,6.313c6.313,4.927,12.549,9.931,18.554,15.013c2.31,1.848,4.466,3.772,6.698,5.697
			c8.084,7.006,15.937,14.243,23.251,21.711c1.463,1.463,2.926,2.925,4.234,4.388c2.31,2.31,4.466,4.697,6.544,7.083
			c2.771,3.079,5.466,6.236,8.084,9.392c8.931,11.009,16.553,22.558,22.866,34.492c2.464,4.773,4.773,9.624,6.852,14.474
			c0.924,2.464,1.925,4.927,2.926,7.391c3.695,9.778,6.467,19.709,8.315,29.718C618.72,993.858,618.72,993.858,618.797,993.935z"/>
		<path id="XMLID_227_" class="st0" d="M497.076,1218.975c-23.944,2.695-50.659,3.465-80.223,2.31
			c-38.648-1.54-69.829-7.622-95.082-16.553c-16.322-5.774-30.18-12.781-41.882-20.633c1.617,0.847,3.157,1.616,4.85,2.387
			c1.848,0.847,3.695,1.693,5.543,2.464c1.232,0.539,2.463,1.078,3.695,1.54l0.385,0.154l1.001,0.385
			c4.157,1.617,8.392,3.157,13.088,4.62c1.771,0.539,3.618,1.155,5.466,1.616l4.235,1.309l1.001,0.231
			c0.693,0.154,1.539,0.385,2.463,0.616c2.618,0.693,5.389,1.386,8.007,2.002c3.465,0.77,7.006,1.463,10.316,2.002
			c3.157,0.539,6.467,1.078,9.778,1.539l1.617,0.308h0.616c2.31,0.385,4.697,0.616,7.083,0.924l3.31,0.308
			c2.31,0.231,4.542,0.462,6.852,0.616h0.847c7.545,0.616,15.475,0.924,24.56,1.001h1.54c16.784,0,34.876-1.078,53.969-3.388
			c90.54-10.932,154.98-52.892,181.311-118.102c24.56-60.899,10.548-134.732-36.647-192.705
			c-33.876-41.497-80.993-75.142-126.571-107.631c-67.982-48.427-132.114-94.081-137.734-155.827
			c-2.618-29.179,2.387-51.506,14.32-64.671c10.856-11.78,25.868-14.243,36.647-14.243c7.699,0,15.783,1.155,23.944,3.465
			c-70.753-14.166-84.611,45.963-68.29,98.239c16.245,51.737,151.362,126.032,244.519,211.644
			c41.882,38.418,75.219,79.145,85.535,121.104c0.231,0.77,0.462,1.54,0.616,2.31c1.309,5.851,2.464,11.625,3.465,17.4
			C690.32,1115.886,646.744,1202.653,497.076,1218.975z"/>
		<path id="XMLID_226_" class="st1" d="M1339.727,317.12c-0.385,0.077-1.232,0.154-2.618,0.154c-3.849,0-8.161-0.693-9.47-0.924
			l-18.632-3.849c-16.475-27.023-46.732-70.137-87.46-100.779c0,0,64.132,30.796,120.489,103.397
			C1340.189,316.273,1339.111,317.12,1339.727,317.12z"/>
		<path id="XMLID_225_" class="st1" d="M885.103,857.74c-22.866,23.097-39.958,53.2-49.504,77.144
			c-1.155,3.002-3.003,6.698-5.543,11.086c-4.311,7.622-10.47,16.552-18.632,27.254l-4.08,5.235
			c-3.08,3.927-6.236,7.776-9.47,11.625c-9.162-0.385-20.171-0.693-31.951-0.539c-1.848,0-3.772,0-5.697,0.077
			c-2.926,0.077-5.928,0.154-8.931,0.308c-3.002,0.077-6.082,0.231-9.162,0.462c-3.156,0.231-6.313,0.462-9.47,0.77
			c-0.616,0.077-1.232,0.077-1.848,0.154c-3.156,0.308-6.236,0.693-9.316,1.078c-3.464,0.462-6.852,0.924-10.163,1.463
			c-6.698,1.155-13.242,2.541-19.401,4.234c-0.77-4.85-1.771-9.547-2.771-14.089c-0.231-1.155-0.539-2.387-0.924-3.696
			c-9.238-37.032-34.337-75.373-76.604-117.024C662.065,860.82,769.85,856.432,885.103,857.74z"/>
		<path id="XMLID_224_" class="st1" d="M687.009,1118.196c0.077-0.077,0.077-0.077,0.077-0.154
			c-0.077,0.308-0.154,0.693-0.154,1.001c-1.309,7.006-2.771,14.166-4.542,21.403c-0.693,2.772-1.386,5.62-2.156,8.392
			c-0.231,0.693-0.385,1.463-0.616,2.156c-0.847,3.156-1.771,6.313-2.771,9.469c-0.231,0.616-0.385,1.232-0.539,1.771
			c-1.078,3.311-2.233,6.544-3.388,9.855c-0.308,0.847-0.616,1.694-0.924,2.54c-1.155,3.003-2.31,6.005-3.541,8.931
			c-3.234,7.622-6.775,15.09-10.779,22.327c-5.543,10.009-11.317,19.016-17.4,26.946c-35.954,47.348-80.454,56.895-130.574,6.544
			c70.83-9.393,122.49-35.261,153.748-76.835C673.613,1149.145,681.389,1134.364,687.009,1118.196z"/>
		<path id="XMLID_223_" class="st0" d="M779.551,1011.411l-0.462,0.539c-5.621,6.159-11.164,12.164-16.476,17.861l-6.39,6.775
			c-7.776,8.084-14.859,15.398-20.71,21.249c-10.855,1.309-22.943,2.387-34.722,2.464c0,0,0.154-3.388-0.385-8.469
			c-0.077-1.078-0.231-2.31-0.462-3.542c-0.154-1.386-0.462-2.772-0.77-4.157c-0.154-0.77-0.308-1.463-0.539-2.233
			c-0.462-2.002-1.155-4.08-1.925-6.159c-0.308-5.235-0.77-10.547-1.386-15.937l2.387-0.693c5.081-1.386,10.932-2.618,17.169-3.696
			c3.08-0.539,6.236-0.924,9.316-1.386c2.926-0.308,5.774-0.693,8.931-1.001c0.693-0.077,1.463-0.077,1.694-0.154
			c2.771-0.231,5.62-0.462,8.931-0.693c2.695-0.231,5.466-0.385,8.7-0.462c2.618-0.154,5.158-0.231,7.776-0.231l0.847-0.077
			c1.617-0.077,3.31-0.077,5.082-0.077h6.082C774.701,1011.334,777.164,1011.334,779.551,1011.411z"/>
		<path id="XMLID_222_" class="st0" d="M774.392,1309.746c0,0,7.468-0.924,18.093-0.924c19.555,0,49.966,3.079,64.748,20.71
			c0,0,20.248-3.619,36.493,23.482c0,0-17.476,0-26.561,3.772c-0.077,0.077-0.077,0.077-0.154,0.077
			c0.231,20.633-27.023,6.39-55.817,4.773c-33.952-1.848-51.891,15.167-83.072-10.317c-26.254-21.557-40.497-77.99-69.83-106.168
			c6.313-8.392,12.549-17.939,18.477-28.717c4.158-7.468,8.007-15.398,11.78-24.406c1.309-3.079,2.541-6.236,3.927-9.932
			l1.771-5.005c1.001-2.694,1.925-5.389,2.849-8.084l0.539-1.925c0.308-1.078,0.693-2.079,0.924-3.156
			C698.558,1163.928,731.069,1209.052,774.392,1309.746z"/>
		<path id="XMLID_221_" class="st1" d="M483.603,1065.535c-12.319,8.854-28.486,13.396-46.887,13.396
			c-20.479,0-43.345-5.697-64.825-16.245c0,0-6.39-3.311-7.468-3.927l0.231-0.693c0.308-0.924,0.616-1.771,1.001-2.695
			c0.847-2.233,1.771-4.311,2.694-6.39c0.539-1.386,1.155-2.772,1.848-4.081c0.539-1.232,1.155-2.464,1.771-3.618
			c0.616-1.232,1.232-2.464,1.925-3.619c0.924-1.617,1.848-3.156,2.772-4.696c3.003-4.696,6.236-8.931,9.855-12.164
			c0.462-0.462,0.924-0.924,1.462-1.309c0.616-0.539,1.309-1.001,1.925-1.463c0.539-0.385,1.155-0.77,1.694-1.078
			c1.54-0.924,3.156-1.616,4.85-2.155c0.539-0.154,1.001-0.308,1.54-0.385c0.462-0.077,1.001-0.154,1.463-0.231
			c0.693-0.077,1.386-0.154,2.078-0.154c2.079,0,4.158,0.385,6.313,1.155c6.698,2.387,14.782,6.698,23.328,12.01
			c2.464,1.54,5.004,3.156,7.545,4.85c1.617,1.078,3.31,2.233,4.927,3.388c0.154,0.077,0.231,0.154,0.385,0.231
			c2.849,2.002,5.774,4.081,8.854,6.236c0.462,0.385,0.924,0.693,1.386,1.001c0.077,0.154,0.231,0.231,0.385,0.308
			c1.771,1.309,3.542,2.54,5.235,3.849c1.463,1.078,2.926,2.156,4.388,3.233C471.362,1055.68,477.983,1060.916,483.603,1065.535z"/>
		<path id="XMLID_220_" class="st1" d="M495.382,1373.493c0.231,6.313-1.386,10.779-1.386,10.779
			c-14.474-17.477-38.725-17.554-39.111-17.554c-7.545-28.717-29.102-30.642-29.102-30.642
			c-10.779-29.795-59.205-19.709-59.205-19.709c57.203-4.311,52.122,22.25,52.122,22.25c19.401,3.233,27.408,29.102,27.408,29.102
			c-15.09-12.165-36.185,0.231-36.185,0.231c-5.004,5.851-6.082,5.235-21.48,0.308c-14.782-4.696-42.268-2.541-63.979-0.539
			c-0.924,0.077-1.848,0.154-2.694,0.231c-21.172,2.002-19.478-6.159-17.091-30.796c-0.077-0.077,0-0.077,0-0.154
			c0.077-1.155,0.231-2.31,0.308-3.542c1.078-11.856,4.388-37.494,7.776-62.823c1.232-9.469,2.541-18.863,3.695-27.485
			c0.847-5.928,1.617-11.548,2.31-16.476c27.562,9.316,59.436,14.705,95.082,16.245c-0.231,2.694-0.539,5.62-0.693,8.546
			c-0.77,11.625-0.693,24.713,1.694,35.261c2.617,11.548,8.084,20.094,18.246,20.633c9.701,0.539,16.707,3.695,21.788,8.007
			c12.01,9.931,13.088,25.791,13.088,25.791C490.301,1349.472,495.152,1363.716,495.382,1373.493z"/>
		<path id="XMLID_219_" class="st0" d="M506.315,1374.648v-1.386c-0.231-10.317-4.466-28.563-28.563-39.88
			c-1.232-5.159-3.772-12.319-8.854-19.017c12.703,0.539,30.18,5.466,34.26,27.793c0,0,21.634,14.551,20.402,37.725
			C523.561,1379.883,518.787,1376.65,506.315,1374.648z"/>
	</g>
	<g id="XMLID_201_">
		<rect id="XMLID_217_" x="1661.366" y="1571.676" class="st1" width="77.161" height="411.215"/>
		<g id="XMLID_214_">
			<polygon id="XMLID_216_" class="st1" points="1369.521,1571.676 1453.278,1758.246 1411.855,1855.391 1286.695,1571.676 			"/>
			<polygon id="XMLID_215_" class="st1" points="1458.262,1815.164 1463.278,1803.56 1561.851,1571.676 1644.6,1571.676 
				1468.87,1982.891 1427.017,1888.442 			"/>
		</g>
		<g id="XMLID_210_">
			<polygon id="XMLID_213_" class="st1" points="1091.779,1885.899 1033.956,1982.891 940.737,1982.891 1042.481,1806.538 			"/>
			<polygon id="XMLID_212_" class="st1" points="1272.108,1982.891 1183.922,1982.891 1108.905,1856.782 1059.606,1777.421 
				946.184,1571.676 1039.748,1571.676 1108.629,1696.474 1153.308,1777.421 			"/>
			<polygon id="XMLID_211_" class="st1" points="1266.661,1571.676 1170.253,1745.489 1125.574,1664.542 1173.51,1571.676 			"/>
		</g>
		<g id="XMLID_206_">
			<polygon id="XMLID_209_" class="st1" points="749.176,1885.899 691.353,1982.891 598.134,1982.891 699.877,1806.538 			"/>
			<polygon id="XMLID_208_" class="st1" points="929.505,1982.891 841.318,1982.891 766.301,1856.782 717.003,1777.421 
				603.581,1571.676 697.145,1571.676 766.025,1696.474 810.705,1777.421 			"/>
			<polygon id="XMLID_207_" class="st1" points="924.057,1571.676 827.649,1745.489 782.97,1664.542 830.907,1571.676 			"/>
		</g>
		<g id="XMLID_202_">
			<polygon id="XMLID_205_" class="st1" points="406.068,1885.899 348.245,1982.891 255.026,1982.891 356.77,1806.538 			"/>
			<polygon id="XMLID_204_" class="st1" points="586.397,1982.891 498.21,1982.891 423.193,1856.782 373.895,1777.421 
				260.473,1571.676 354.037,1571.676 422.918,1696.474 467.597,1777.421 			"/>
			<polygon id="XMLID_203_" class="st1" points="580.95,1571.676 484.542,1745.489 439.862,1664.542 487.799,1571.676 			"/>
		</g>
	</g>
</g>
</svg>
