<?xml version="1.0" encoding="utf-8"?>
<!-- Generator: Adobe Illustrator 19.0.0, SVG Export Plug-In . SVG Version: 6.00 Build 0)  -->
<svg version="1.1" id="Layer_1" xmlns="http://www.w3.org/2000/svg" xmlns:xlink="http://www.w3.org/1999/xlink" x="0px" y="0px"
	 viewBox="0 0 2000 2000" style="enable-background:new 0 0 2000 2000;" xml:space="preserve">
<style type="text/css">
	.st0{fill:#3A5B62;}
	.st1{fill:#3A838F;}
</style>
<g id="XMLID_252_">
	<g id="XMLID_274_">
		<path id="XMLID_277_" class="st0" d="M1938.487,916.982c0,95.175-15.096,186.901-43.066,272.88
			c-16.092-25.211-36.169-51.036-58.162-76.86c9.808-39.081,16.705-79.236,20.537-120.386h0.077
			c20.766,0,40.537-8.812,54.178-23.985c35.556-39.158,17.625-79.772-7.127-135.942l-2.911-6.743
			c-6.667-15.173-7.816-45.595-7.433-70.576v-0.23l2.452-57.473l0.306-6.513c0.153-4.291,0.307-8.046,0.307-11.495
			c0-52.415-60.538-174.794-173.951-213.339c-145.291-215.561-391.657-357.557-670.592-357.557
			c-445.605,0-808.143,362.538-808.143,808.22c0,11.571,0.23,23.066,0.767,34.484v0.077c-12.797,29.273-14.177,65.442,8.429,110.118
			c-10.958-3.295-23.219-6.59-37.013-9.502c-15.019-3.218-28.046-4.828-39.694-4.981c-6.36-42.53-9.655-85.979-9.655-130.195
			c0-488.211,397.175-885.31,885.31-885.31C1541.312,31.672,1938.487,428.771,1938.487,916.982z"/>
		<path id="XMLID_276_" class="st0" d="M1740.397,1474.315c-5.747,7.28-11.725,14.406-17.855,21.456h-105.903
			c10.039-9.732,19.771-19.771,29.273-30.039c25.748,4.981,54.714,8.813,84.217,8.813
			C1733.654,1474.544,1737.026,1474.468,1740.397,1474.315z"/>
		<path id="XMLID_275_" class="st0" d="M489.638,1495.771H383.811c-35.479-40.921-67.281-85.136-94.715-132.111
			c33.258,16.629,76.247,27.893,114.869,34.024C429.789,1432.628,458.525,1465.425,489.638,1495.771z"/>
	</g>
	<path id="XMLID_273_" class="st0" d="M1863.772,924.876c-7.396,8.234-22.259-5.792-22.259-5.792s0,7.466-9.071,13.188
		c-4.745,3-27.911-25.189-51.006-57.147c-0.07-0.07-0.07-0.14-0.07-0.209c-21.003-45.076-30.562-83.731-30.562-83.731
		c-0.907-2.442-1.814-6.908,2.303-10.327c14.792-12.629,34.958-58.612,36.354-91.895c5.791,3.14,11.652,5.303,16.746,7.257
		c3.629,1.326,9.001,3.35,10.746,4.675l13.746,17.653c-2.163,41.447-3.838,98.524,11.653,133.691
		C1863.772,900.943,1871.238,916.642,1863.772,924.876z"/>
	<path id="XMLID_272_" class="st1" d="M1859.446,1353.929c-72.079,96.71-231.447,39.842-280.779,28.469
		s-195.373,34.121-275.057,18.979c-79.685-15.211-157.485,7.536-261.8,7.536c-22.468,0-43.052-2.721-61.543-7.047
		c-67.473-15.63-107.106-51.983-107.106-51.983c-97.268,6.699-151.903-51.983-151.903-51.983
		c-193.21-31.958-306.526-171.859-306.526-171.859s-49.262,0-98.594-86.662c-49.332-86.592,42.633-102.571,117.294-167.881
		c74.591-65.31,216.585-34.888,216.585-34.888c-31.538-54.007,94.198-39.423,94.198-39.423s188.256-108.432,463.942,26.585
		c271.429,132.923,392.072,444.124,395.77,453.823c-62.45-199.559-199.35-331.715-199.35-331.715s-70.265-70.265-18.979-229.633
		c51.285-159.438,167.183-204.025,277.569-196.21c110.316,7.815,169.277,126.644,169.277,159.648c0,2.582-0.07,5.443-0.209,8.652
		c-8.792-11.304-36.354-11.234-46.89-28.957c-10.466-17.723-27.352-20.165-27.352-20.165s0,18.56,9.629,33.841
		c9.699,15.351-11.234,78.987-27.353,92.733c-15.141,12.769-8.722,30.492-7.815,32.725
		c-13.606-29.166-104.525-76.335-148.065-85.825c-43.61-9.49-85.406,93.011,15.141,229.563
		C1700.078,1078.872,1931.525,1257.149,1859.446,1353.929z"/>
	<path id="XMLID_271_" class="st0" d="M925.144,1404.377c-32.306,0.977-70.823,1.117-91.407-2.512
		c-39.842-7.047-203.676-9.978-219.865-23.235c-16.258-13.328-87.08-47.239-128.388-41.308
		c-41.308,5.861-145.134-13.327-183.232-41.377c-38.168-28.05-156.229-87.011-176.883-104.734c0,0-64.892-8.861-76.754-54.634
		l66.427,8.861c0,0-16.188-29.515,44.308-8.861c0,0-25.12-35.377,44.238-20.654c69.357,14.792,95.942,38.377,134.319,32.446
		c16.118-2.442,32.237-6.768,45.564-11.025c8.512,4.047,15.769,6.14,21.142,7.257c24.701,28.05,133.552,140.808,307.294,171.789
		c15.63,14.235,66.217,53.797,145.902,53.797c2.861,0,5.792-0.07,8.652-0.14C876.231,1377.723,896.327,1391.957,925.144,1404.377z"
		/>
	<g id="XMLID_253_">
		<rect id="XMLID_270_" x="1636.641" y="1572.541" class="st1" width="76.801" height="409.296"/>
		<rect id="XMLID_269_" x="1734.745" y="1572.541" class="st1" width="76.801" height="409.296"/>
		<g id="XMLID_266_">
			<polygon id="XMLID_268_" class="st1" points="1346.157,1572.541 1429.523,1758.241 1388.294,1854.932 1263.717,1572.541 			"/>
			<polygon id="XMLID_267_" class="st1" points="1434.484,1814.893 1439.477,1803.344 1537.589,1572.541 1619.952,1572.541 
				1445.042,1981.838 1403.385,1887.829 			"/>
		</g>
		<g id="XMLID_262_">
			<polygon id="XMLID_265_" class="st1" points="1069.711,1885.298 1012.158,1981.838 919.373,1981.838 1020.642,1806.307 			"/>
			<polygon id="XMLID_264_" class="st1" points="1249.198,1981.838 1161.423,1981.838 1086.756,1856.317 1037.688,1777.326 
				924.795,1572.541 1017.923,1572.541 1086.482,1696.757 1130.953,1777.326 			"/>
			<polygon id="XMLID_263_" class="st1" points="1243.777,1572.541 1147.818,1745.543 1103.348,1664.974 1151.06,1572.541 			"/>
		</g>
		<g id="XMLID_258_">
			<polygon id="XMLID_261_" class="st1" points="728.706,1885.298 671.153,1981.838 578.368,1981.838 679.637,1806.307 			"/>
			<polygon id="XMLID_260_" class="st1" points="908.194,1981.838 820.418,1981.838 745.751,1856.317 696.683,1777.326 
				583.79,1572.541 676.918,1572.541 745.477,1696.757 789.948,1777.326 			"/>
			<polygon id="XMLID_259_" class="st1" points="902.772,1572.541 806.813,1745.543 762.343,1664.974 810.055,1572.541 			"/>
		</g>
		<g id="XMLID_254_">
			<polygon id="XMLID_257_" class="st1" points="387.199,1885.298 329.646,1981.838 236.862,1981.838 338.13,1806.307 			"/>
			<polygon id="XMLID_256_" class="st1" points="566.687,1981.838 478.911,1981.838 404.244,1856.317 355.176,1777.326 
				242.283,1572.541 335.411,1572.541 403.97,1696.757 448.441,1777.326 			"/>
			<polygon id="XMLID_255_" class="st1" points="561.265,1572.541 465.306,1745.543 420.836,1664.974 468.549,1572.541 			"/>
		</g>
	</g>
</g>
</svg>
