<?xml version="1.0" encoding="utf-8"?>
<!-- Generator: Adobe Illustrator 19.0.0, SVG Export Plug-In . SVG Version: 6.00 Build 0)  -->
<svg version="1.1" id="Layer_1" xmlns="http://www.w3.org/2000/svg" xmlns:xlink="http://www.w3.org/1999/xlink" x="0px" y="0px"
	 viewBox="0 0 2000 2000" style="enable-background:new 0 0 2000 2000;" xml:space="preserve">
<style type="text/css">
	.st0{fill:#4E5261;}
	.st1{fill:#5F7491;}
	.st2{fill:none;}
</style>
<g>
	<g>
		<g>
			<path class="st0" d="M1906.214,924.742c0,219.602-80.914,420.631-214.502,574.923h-105.196
				c149.878-145.843,243.123-349.689,243.123-574.923c0-85.786-13.549-168.451-38.592-246.015
				c7.384-17.812,11.342-35.091,11.723-50.847c0.532-19.943,4.034-30.904,7.916-40.724c7.536-9.971,12.484-19.638,15.376-29.001
				C1877.517,669.821,1906.214,793.971,1906.214,924.742z"/>
			<path class="st0" d="M1288.283,85.002l-43.921,44.834c-9.743-22.379-30.066-41.028-60.514-54.121
				c-32.046-13.777-59.677-20.171-86.928-20.171c-26.641,0-52.598,6.089-79.468,18.649c-18.04,7.459-51.38,24.053-73.15,51.989
				h-0.076C615.699,159.827,345.25,392.521,255.658,701.258c-8.754-9.896-18.725-15.909-26.642-19.487
				c-14.006-6.318-28.393-9.515-42.855-9.515c-0.609,0-1.218,0-1.751,0.076C293.032,310.085,629.553,45.344,1026.816,45.344
				C1117.777,45.344,1205.618,59.274,1288.283,85.002z"/>
			<path class="st0" d="M346.924,1351.311c-0.305,4.872-1.066,7.84-1.751,9.743l-31.056,78.478
				c-64.32-88.983-112.58-190.373-140.058-299.984c16.974,8.982,36.08,13.777,56.252,13.777c8.982,0,17.66-0.837,26.109-2.436
				C277.352,1222.29,308.104,1289.655,346.924,1351.311z"/>
		</g>
		<path class="st1" d="M1364.402,1132.317c-8.145,9.211-12.712,41.79-14.767,76.5c-2.055,34.634-10.2,56.099-34.634,80
			c-24.51,23.978-27.022,51.532-27.022,51.532c-2.36-9.362-0.381-16.137-0.076-17.203c-10.2,19.03-28.088,75.281-49.401,44.225
			c-21.465-31.132-11.723-94.844-9.21-102.988c2.588-8.145,19.41-8.678,23.445-9.667c4.11-1.066,6.622-23.445,29.077-30.6
			c22.455-7.155,15.832-60.21,22.455-91.799c6.623-31.589-27.022-73.911-59.677-92.256c-32.655-18.344-57.622-45.366-57.622-45.366
			c-9.134,0.99-22.912-6.698-22.912-6.698c-7.155,4.643-22.683,6.013-22.683,6.013c0.457,59.449-34.863,106.566-29.991,159.164
			c4.796,52.598-17.431,69.953-17.05,120.115c0.457,48.564,21.313,100.629,22.607,103.826c-2.816-3.958-6.013-7.155-6.013-7.155
			c2.055,19.791,23.445,38.059,23.445,38.059c-8.45-4.11-11.266-6.47-11.266-6.47c3.578,16.974,36.385,42.017,37.222,58.23
			c0.761,16.137-95.529,19.41-113.264,9.667c-17.812-9.667-10.961-80.458-10.961-80.458c-3.654,7.308-9.667,5.633-9.667,5.633
			c13.321-37.603,14.387-153.455,7.612-174.997c-6.774-21.618,7.46-53.055,3.73-77.032c-3.73-24.054,4.338-67.137-7.384-96.747
			c-11.722-29.61-16.822-89.516-16.822-89.516c-8.677,32.503,2.055,66.68,2.055,66.68c-52.75,32.579-173.246-2.512-201.181-16.822
			c-27.859-14.235-67.137-22.303-67.137-22.303c-11.113-146.604-94.615-190.068-99.868-192.58
			c4.719,3.654,80.457,62.798,84.949,159.773c4.567,100.172,14.919,102.456-8.069,153.075
			c-23.064,50.619-10.352,80.533,24.13,104.739c34.558,24.13,93.702,48.488,105.653,74.52
			c12.026,26.032,22.759,38.059,40.114,40.723c0,0-4.034,7.384-20.019,4.719c0,0,31.361,36.689,36.004,56.708
			c4.643,20.019-14.006,18.725-46.052,15.376c-32.046-3.349-66.071-10.048-64.777-29.382c1.37-19.334,0-30.752-3.273-40.724
			c0,0-10.657,7.308-17.051,7.308c0,0,5.633-9.287,2.969-19.334c0,0-37.374-46.052-103.445-73.378
			c-66.071-27.403-65.386-28.088-58.078-49.401c4.871-14.082,26.032-57.622,21.694-99.259
			c-2.283-21.617-11.494-42.779-33.492-59.068c-57.546-42.474-179.868-142.341-175.758-233.303v-0.076
			c0.533-10.733,2.74-21.313,7.079-31.666c0,0,0-0.076,0.076-0.304c14.463-34.406,28.24-62.189,43.844-83.121
			c0.076,0,0.076-0.076,0.076-0.076v-0.076c28.849-38.668,63.863-54.044,120.039-45.595
			c86.699,13.016,162.209,73.911,254.693,67.365c92.408-6.47,120.039-54.273,154.901-63.255c0,0,1.675-26.185,6.698-43.159
			c0,0-11.342-19.486-12.559-30.219c0,0-50.923-43.693-67.289-92.18c21.009,4.263,38.288,7.917,47.27,10.048
			c12.483,2.969,29.305,4.948,41.941,4.948c7.992,0,32.426,0,37.983-20.248c0.38-1.294,0.685-2.588,0.913-3.73
			c2.74-2.436,5.176-5.48,7.155-9.058c1.979-0.228,3.806-0.533,5.48-0.837l105.348,120.039c-1.142,13.929-2.055,29.153-0.685,40.419
			c2.512,21.085,11.951,42.55,26.87,63.178c14.843,20.628,9.895,100.324,9.895,100.324c27.022,24.51,9.211,80.077,9.211,80.077
			c10.656,14.767,10.2,43.312,10.2,43.312c28.544,14.843,51.989,66.832,60.134,82.589c8.145,15.833,41.332,66.832,62.189,83.121
			C1385.334,1092.584,1372.546,1123.184,1364.402,1132.317z"/>
		<path class="st1" d="M1228.834,424.186c-8.145,14.691-8.297,49.781-10.505,58.763c-2.436,9.591-20.856,15.605-20.856,15.605
			c2.969,22.531-7.003,37.526-8.525,51.304l-91.571-104.283l59.601-3.121l19.258-16.213
			C1192.145,425.633,1209.805,424.947,1228.834,424.186z"/>
		<path class="st1" d="M1680.674,460.723c-0.076,0.229-0.152,0.457-0.228,0.609c0.076-0.229,0.152-0.38,0.152-0.609H1680.674z"/>
		<path class="st1" d="M1309.749,370.827c-49.781,1.599-96.366,3.045-135.415,4.339l-22.988-15.68l-24.891,1.446l23.064-23.521
			c4.415,1.142,8.297,1.675,8.297,1.675c94.54,0.837,60.819,25.88,113.265,27.098
			C1283.944,366.488,1297.037,368.315,1309.749,370.827z"/>
		<path class="st1" d="M1160.316,227.268c0.38-6.166,7.459-4.643,6.546-9.667c-0.913-5.024-8.525-27.479-8.525-27.479
			s11.646,15.757,32.731,3.806c-1.903,0.304-13.854,2.055-10.276-11.494c3.806-14.767,18.344-29.61-22.531-47.27
			c-40.952-17.583-73.607-21.389-114.711-1.674c0,0-48.868,19.563-55.034,45.443c-6.166,25.881-15.452,42.17-27.784,48.107
			c-12.255,5.861-1.065,34.025-4.186,42.474c-3.121,8.449-13.016,39.962-25.5,45.9c0,0,5.633,2.055,10.048-0.305
			c0,0,3.577,16.67-7.688,23.521c-11.342,6.85-15.757,10.123-23.825,9.21c-6.318-0.761-37.603-18.801-70.943-16.974
			c9.743,9.058,22.455,22.303,30.067,35.623c29.686,9.515,72.997,21.998,91.723,23.825c12.179-13.092,30.295-21.161,49.248-21.389
			c8.069,0,14.996,1.827,20.704,4.415c5.785,2.664,10.352,6.089,13.854,9.286c9.591,0.838,17.888,1.751,24.891,2.816l89.363-91.114
			c-3.273-3.73-6.394-5.937-6.394-5.937s6.089-3.73,7.231-11.57l8.373-5.785l-0.837-13.016c0,0,13.168-3.349,11.646-8.601
			C1176.985,244.166,1159.859,233.357,1160.316,227.268z M1147.451,231.606c-6.698-2.512-9.895-10.2-9.895-10.2l11.418,1.218
			C1150.192,229.323,1147.451,231.606,1147.451,231.606z"/>
		<path class="st2" d="M1191.308,193.852c-0.076,0.076-0.152,0.076-0.228,0.076"/>
		<line class="st2" x1="1287.979" y1="1322.995" x2="1287.902" y2="1323.147"/>
		<path class="st2" d="M1117.016,1377.267c0,0,0-0.076-0.076-0.152"/>
		<line class="st2" x1="647.441" y1="791.306" x2="647.212" y2="791.154"/>
		<path class="st0" d="M615.623,1144.953c0,0,0,0,0,0.076c-40.799,51.761-107.784,85.633-125.215,100.401
			c-22.303,19.03-14.234,108.393-4.719,139.754s40.876,60.819,40.876,60.819c-10.504-3.349-15.68-6.698-15.68-6.698
			s11.874,17.127,24.206,35.623c12.407,18.497-21.389,20.019-51.304,20.476c-29.915,0.457-56.099-9.515-56.099-25.652
			c0-16.137-12.179-93.55-12.179-93.55c-4.719,7.383-10.124,8.678-10.124,8.678c16.365-41.333-4.11-117.832-6.166-133.36
			c-2.055-15.452,26.794-41.18,56.708-85.481c29.915-44.301,71.095-62.874,12.331-182.456
			c-18.725-38.059-29.077-70.029-34.482-95.985c34.177,63.331,101.999,123.007,162.057,167.461
			c14.767,10.885,22.911,25.348,24.89,43.921C622.322,1114.354,619.657,1130.491,615.623,1144.953z"/>
		<path class="st1" d="M444.28,712.219c-6.775,12.94-13.854,27.86-21.389,45.367c-18.116,13.245-37.907,43.997-23.749,103.141
			c15.604,65.69,3.349,90.201-15.909,112.047c-19.258,21.922-48.107,66.528-11.342,93.702c0,0-31.513,0.837-47.269-28.925
			c0,0-44.53,51.075-94.311,51.075c-28.24,0-45.975-18.04-55.566-38.287c-7.384-15.376-10.048-31.97-9.134-42.855
			c2.055-25.195,2.74-44.301-15.68-59.982s-32.046-54.501-11.57-71.552c7.688-6.394,9.82-15.68,7.917-23.064
			c-3.121-12.331-17.66-19.41-37.222,0.533c0,0,7.459-66.756,52.446-42.246c2.055,1.142,3.882,2.36,5.557,3.578
			c34.177,26.642-17.507,84.796,30.6,120.496c50.39,37.526,73.607,13.397,73.607-15.072c0-28.544,14.995-98.041,38.744-115.776
			c-2.588,0.99-49.325,18.877-35.395-31.742c0,0-1.294,46.737,35.471,9.896c36.842-36.765,29.458-53.131,89.059-59.982
			C417.258,720.516,432.177,716.634,444.28,712.219z"/>
		<path class="st0" d="M149.016,1043.487c-22.912-8.601-52.522-27.326-50.239-66.147c0.913-15.452,5.633-32.807,12.484-50.847
			c5.1,14.539,13.854,28.24,24.662,37.45c9.439,7.993,10.276,16.518,8.221,41.713
			C143.155,1016.998,144.982,1030.471,149.016,1043.487z"/>
		<path class="st0" d="M200.624,834.846c-1.674-13.473-7.079-26.794-20.856-37.526c-0.913-0.685-1.903-1.294-2.816-1.903
			c2.512-5.177,4.567-9.82,5.937-13.777c12.788-36.537-23.597-28.088-37.146-11.646c0.913-2.36,19.867-45.824,56.632-29.23
			C221.329,749.289,211.053,791.535,200.624,834.846z"/>
		<path class="st1" d="M1085.122,427.84c0,0,2.969,8.678,0,11.646c-3.045,3.044-26.565,4.491-26.565,4.491
			c0.761,14.539-10.276,15.985-10.276,15.985s0.609,3.882-1.371,11.113c-1.979,7.155-35.7,4.415-54.12,0
			c-12.864-3.044-39.886-8.601-66.223-13.777c-11.494-2.283-22.836-4.491-32.883-6.318c-32.731-6.166-22.378,4.796-92.103,11.722
			c-69.724,7.003-82.437-67.137-91.951-82.36c-9.515-15.224,24.739-20.324,49.477-39.353c24.739-19.03,53.588-4.186,53.588-4.186
			l0.076,0.076c2.055,1.675,34.558,28.697,40.419,47.194c0,0,111.513,37.146,119.125,25.88
			c7.536-11.342,22.227-19.258,37.679-19.486c15.528-0.229,24.053,12.94,24.053,12.94s42.246,3.349,50.239,7.079
			C1092.201,414.291,1085.122,427.84,1085.122,427.84z"/>
		
			<rect x="1239.957" y="-24.241" transform="matrix(0.714 0.7002 -0.7002 0.714 514.0158 -803.9699)" class="st1" width="2.155" height="502.781"/>
		<g>
			
				<rect x="984.443" y="647.839" transform="matrix(0.6596 0.7516 -0.7516 0.6596 916.5814 -726.1889)" class="st1" width="551.287" height="2.154"/>
		</g>
		<path class="st1" d="M1740.656,417.868c-12.027,15.452-36.156-1.218-36.156-1.218c-1.827,1.903-5.556,4.339-9.058,6.394
			c-4.186,2.512-7.916,4.491-7.916,4.491c-0.076,1.066-0.076,2.207-0.229,3.425c-0.304,3.425-0.837,7.079-1.598,10.733
			c-0.838,4.11-1.827,8.221-2.893,11.798c-0.305,0.99-0.533,1.979-0.837,2.893c-0.457,1.599-0.914,3.045-1.294,4.339h-0.076
			c0,0.229-0.076,0.38-0.152,0.609c-1.142,3.654-1.979,5.937-1.979,5.937c2.36,24.434-16.29,31.666-16.29,31.666
			s-35.852-21.694-88.678-7.992c-52.826,13.625-142.266,1.979-155.434-4.796c-13.245-6.851-38.059-20.4-55.643-15.605
			c-17.66,4.796-60.438-6.394-80.838-7.992c-20.476-1.598-52.903-22.836-52.903-22.836c-1.065-4.947,0.305-11.722,1.294-15.528
			c91.57-3.578,213.36-8.373,319.089-12.712c36.613,4.643,76.423,8.83,91.418,9.286c4.567,0.152,8.449-0.228,11.798-1.066
			c0.99-0.228,1.979-0.457,2.893-0.837c0.609-0.152,1.218-0.38,1.75-0.609c6.927-2.74,10.809-7.383,13.397-11.95
			c1.751-2.893,2.969-5.709,4.11-7.917c4.035-7.764,18.878-2.436,29.763-6.775c10.809-4.338,17.279,3.654,18.497,8.601
			c0.457,1.675,2.664,4.339,5.405,7.003c0.228,0.152,0.457,0.38,0.685,0.609C1734.033,412.769,1740.656,417.868,1740.656,417.868z"
			/>
		<path class="st0" d="M1687.525,323.938l24.739,35.243c-11.723,0.304-24.815,0.609-39.049,0.989
			c11.037-32.883,17.736-110.981-21.161-143.483c-44.377-37.07-188.85-103.141-209.326-128.641
			c-20.476-25.5-35.928-49.02-30.143-59.449c5.785-10.428,13.092,8.45,16.974,19.106c3.882,10.657,61.428,63.178,157.642,98.726
			c96.138,35.547,129.782,85.329,139.449,135.567c5.861,30.599,7.459,49.553,10.885,61.199L1687.525,323.938z"/>
		<path class="st0" d="M1752.302,558.84c-6.166,15.148-13.321,34.101-14.234,67.289c-0.913,33.112-41.485,104.968-131.533,139.069
			c-89.972,34.177-138.156,70.105-150.791,90.886c-12.712,20.78-11.113,29.458-17.355,21.998
			c-6.242-7.536-3.73-32.579,25.347-53.588c29.001-21.008,209.25-102.151,221.277-159.24c12.027-57.089,1.522-82.589-17.05-99.639
			c-13.093-12.103-23.749-22.455-19.486-40.267l21.542-6.318c11.037-4.263,30.599-19.715,30.219-48.412l1.142-3.806l0.761-2.36
			v-0.304l1.37-4.491c1.142-3.958,2.36-8.753,3.273-13.549c0.076-0.229,0.076-0.38,0.152-0.609l3.654-2.131
			c1.142,0.38,2.284,0.685,3.425,0.99c0.38,2.36,0.913,4.567,1.675,6.622c-1.066,6.394-0.076,12.788,2.36,18.497
			c-0.685,5.557,0.304,11.113,2.36,16.213c-0.685,11.037,4.415,21.237,14.234,27.098c4.947,2.893,10.581,4.339,16.822,4.339
			c1.446,0,2.969-0.076,4.567-0.229C1775.138,540.952,1758.315,543.845,1752.302,558.84z"/>
		<path class="st1" d="M1761.665,478.763c0,0,8.525,13.473-5.252,16.213c-5.1,1.066-8.601,0.533-10.961-0.837
			c-3.958-2.36-4.339-7.384-2.283-12.027v-0.076c0,0-7.536-8.297-1.218-15.3c0,0-9.667-8.297-2.512-17.811
			c0,0-14.006-12.331,8.373-28.849c0,0,14.767,3.197,10.352,19.41c0,0,11.342,6.927,4.872,23.14
			C1763.035,462.626,1767.678,467.955,1761.665,478.763z"/>
		<path class="st0" d="M1776.964,379.352l-17.05-7.536l-38.135-16.822l20.471,25.07c-106.338,2.436-415.831,11.696-574.234,16.872
			h-0.076l-30.752,0.99c-5.785,0.152-11.266,0.304-16.442,0.533l-7.459,0.229c-2.055,0.076-4.11,0.152-6.013,0.152
			c-1.294,0.076-2.588,0.152-3.806,0.152c1.979,2.436,3.501,5.252,4.491,8.297c0.38-0.076,0.837-0.076,1.218-0.076l28.316-1.066
			c4.415-0.229,8.982-0.381,13.701-0.533c152.922-5.861,481.831-18.649,591.137-24.206l-14.234,25.804l-0.761,1.446l1.446-0.838
			l31.057-18.344L1776.964,379.352z"/>
		<polygon class="st0" points="1168.011,396.944 1145.257,381.452 1092.427,384.543 1107.331,398.918 		"/>
		<path class="st0" d="M1168.016,405.004l-19.41,16.289l-39.429,2.055c0.685-4.567,0.761-9.743-0.838-14.919l0.838-1.218
			l28.316-1.066l13.701-0.533l14.082-0.533L1168.016,405.004z"/>
	</g>
	<g>
		<g>
			<polygon class="st1" points="1088.252,1886.583 1031.083,1982.478 938.918,1982.478 1039.511,1808.12 			"/>
			<polygon class="st1" points="1266.541,1982.478 1179.352,1982.478 1105.183,1857.796 1056.442,1779.333 944.303,1575.915 
				1036.81,1575.915 1104.911,1699.302 1149.084,1779.333 			"/>
			<polygon class="st1" points="1261.155,1575.915 1165.838,1747.762 1121.664,1667.731 1169.058,1575.915 			"/>
		</g>
		<g>
			<polygon class="st1" points="1525.124,1886.583 1467.955,1982.478 1375.791,1982.478 1476.383,1808.12 			"/>
			<polygon class="st1" points="1703.413,1982.478 1616.224,1982.478 1542.056,1857.796 1493.315,1779.333 1381.176,1575.915 
				1473.682,1575.915 1541.783,1699.302 1585.957,1779.333 			"/>
			<polygon class="st1" points="1698.027,1575.915 1602.71,1747.762 1558.536,1667.731 1605.93,1575.915 			"/>
		</g>
		<g>
			<polygon class="st1" points="749.524,1886.583 692.355,1982.478 600.19,1982.478 700.783,1808.12 			"/>
			<polygon class="st1" points="927.813,1982.478 840.624,1982.478 766.456,1857.796 717.715,1779.333 605.576,1575.915 
				698.082,1575.915 766.183,1699.302 810.357,1779.333 			"/>
			<polygon class="st1" points="922.427,1575.915 827.11,1747.762 782.936,1667.731 830.33,1575.915 			"/>
		</g>
		<g>
			<polygon class="st1" points="410.298,1886.583 353.129,1982.478 260.964,1982.478 361.557,1808.12 			"/>
			<polygon class="st1" points="588.587,1982.478 501.398,1982.478 427.229,1857.796 378.488,1779.333 266.349,1575.915 
				358.855,1575.915 426.957,1699.302 471.13,1779.333 			"/>
			<polygon class="st1" points="583.201,1575.915 487.883,1747.762 443.71,1667.731 491.104,1575.915 			"/>
		</g>
		<rect x="1285.747" y="1575.915" class="st1" width="76.289" height="406.563"/>
	</g>
</g>
</svg>
