<?xml version="1.0" encoding="utf-8"?>
<!-- Generator: Adobe Illustrator 19.0.0, SVG Export Plug-In . SVG Version: 6.00 Build 0)  -->
<svg version="1.1" id="Layer_1" xmlns="http://www.w3.org/2000/svg" xmlns:xlink="http://www.w3.org/1999/xlink" x="0px" y="0px"
	 viewBox="0 0 2000 2000" style="enable-background:new 0 0 2000 2000;" xml:space="preserve">
<style type="text/css">
	.st0{fill:#96955A;}
	.st1{fill:none;stroke:#8963AA;stroke-width:0.2835;stroke-miterlimit:10;}
	.st2{fill:#66653C;}
</style>
<g>
	<path class="st0" d="M1520.673,465.314c0.768,0.23,1.383,0.384,1.844,0.461C1522.133,465.621,1521.442,465.544,1520.673,465.314z
		 M1851.673,643.681c-25.042,1.767-76.125-48.317-88.876-74.512c-12.828-26.271-19.204-36.872-121.369-107.849
		c-40.559-28.191-90.336-31.571-138.807-24.197c17.898,10.908,27.73,20.587,28.268,21.048l26.732,26.425l-36.718-8.066
		c-0.461-0.077-34.644-7.528-59.148-11.829l0.077,0.23l-14.288,3.303c-1.152,0.308-2.381,0.615-3.688,0.922l-6.606,9.448
		c-0.999,1.46-1.997,2.919-2.919,4.455h8.987l-6.606,15.209c-1.075,2.611-2.151,5.684-2.996,8.603
		c1.997,0.845,3.841,2.074,5.761,3.687c1.767,1.076,11.138,2.842,25.503,2.842l20.126-0.307l-8.757,16.362
		c-0.615,1.229-16.055,29.267-44.4,29.267c-15.363,0-30.88-8.296-46.013-24.658c-14.595-15.747-21.739-34.797-20.433-54.309
		c-15.977,6.76-29.343,12.675-39.022,16.362c-52.465,19.819-111.921,12.598-174.372,24.427
		c-62.375,11.753-152.556-25.887-204.791-51.466c-52.235-25.503-199.261-55.231-199.261-55.231
		c13.98,6.683,18.205,21.201,18.205,21.201c-130.049-29.114-202.333,7.297-202.333,7.297c12.752,3.073,22.2,16.592,22.2,16.592
		c-86.034,13.443-148.025,64.372-148.025,64.372c8.757-3.534,34.49,5.838,34.49,5.838
		c-111.69,56.152-172.605,156.781-172.605,156.781c11.138-6.376,22.661-4.456,22.661-4.456
		C283.245,742.773,257.05,845.86,257.05,845.86c13.75-30.573,55.615-71.823,55.615-71.823c0.384,3.764,0.615,9.372,0.768,16.285
		c1.076,43.401-0.768,137.423-0.768,137.423c5.608-4.379,11.907-11.215,11.907-11.215c3.149,37.102,1.844,79.581,0.845,101.167
		v0.077c-0.461,8.91-0.845,14.288-0.845,14.288c8.526-8.066,13.981-13.904,13.981-13.904c6.836,31.341,0.537,66.062,0.076,68.904
		c4.455-4.532,8.834-16.438,8.834-16.438c0.461,21.124-3.995,35.489-3.995,35.489c4.455,0,12.137-7.682,12.137-7.682
		c-12.137,63.757,121.139,169.61,140.496,179.442c19.281,9.833,65.524-2.535,101.935,9.833c36.411,12.367,57.535,5.838,57.535,5.838
		c11.983,0,26.578,10.601,26.578,10.601c-0.768-10.601-12.367-25.349-12.367-25.349c-4.379-21.585-29.882-40.251-29.882-40.251
		c25.503,10.985,34.26,34.26,34.26,34.26c6.914-0.385,27.961,5.991,27.961,5.991c-3.226-11.753-14.902-24.965-14.902-24.965
		c-1.075-9.448-17.207-21.969-38.561-41.557c-21.278-19.665-61.837-16.362-86.726-15.671c-24.888,0.615-56.383-52.465-56.383-57.074
		c0-4.532,36.103-51.697,56.69-50.775c10.831,0.461,49.546-2.458,83.883-5.377c31.187-2.611,58.841-5.224,58.841-5.224
		c-1.767,8.68-23.659,19.204-23.659,19.204c24.504,0.845,131.97-17.514,131.97-17.514c-4.071,8.219-27.346,17.13-30.266,18.282
		l-0.308,0.077c47.165,3.534,144.798-18.282,144.798-18.282c-4.532,3.995-18.205,13.059-18.205,13.059
		c21.048,0.615,43.478-4.762,86.956-28.037c43.478-23.276,108.387-11.599,124.134,4.532c15.67,16.132,23.352,17.437,23.352,17.437
		c-1.69-4.302,0-10.217,0-10.217c13.597,17.437,29.267,23.352,29.267,23.352c-4.225-3.841-6.913-16.131-6.913-16.131
		c46.243,2.458,92.794,76.662,94.484,110.308c1.69,33.646,27.039,35.873,27.039,35.873c2.919,11.522-1.383,32.186-1.383,32.186
		c22.737-14.979,25.195-29.114,25.195-29.114c7.067-8.45,6.145-28.96,6.145-28.96c5.915,11.907-2.228,29.805-2.228,29.805
		c0,3.303-2.074,6.76-2.074,6.76c0.692,3.918,5.3,3.995,5.3,3.995c5.3,12.137,1.229,34.029,1.229,34.029
		c21.969-19.127,24.735-37.486,24.735-37.486c6.299-10.063,3.995-25.195,3.995-25.195c5.684,14.442-0.768,26.963-0.768,26.963
		c0,7.605-2.304,8.757-2.304,8.757c3.841,7.605,1.152,22.738,1.152,22.738c13.673-7.144,12.214-35.182,12.214-35.182
		c2.842-5.07,12.214-28.729,4.993-52.465c-2.228-7.605-4.379-19.127-6.606-33.261c-4.609-29.881-9.449-71.208-16.285-110.692
		c-9.756-56.306-86.265-80.734-91.027-82.193c89.952,18.359,99.17,73.666,99.17,73.666c31.725-21.815,68.904-81.118,68.904-81.118
		c0,5.147-1.383,12.367-1.613,13.673c1.844-2.996,25.195-41.481,36.027-78.429c3.072-10.217,5.07-20.356,5.454-29.574
		c1.844-43.862,47.703-69.365,74.512-86.034c26.809-16.746,84.574-10.14,120.294-15.517c35.797-5.377,104.239,2.996,125.748,3.534
		c21.432,0.614,33.338-18.436,33.338-18.436c16.669-1.767,30.342-21.432,30.342-21.432c19.665-6.53,29.19-13.136,34.029-27.423
		c4.763-14.288-1.844-11.292,6.529-21.432C1890.926,662.117,1876.639,641.837,1851.673,643.681z M1642.811,601.893
		c-8.757-6.222,2.535-31.725,10.678-23.583c8.142,8.066,19.972,13.904,19.972,13.904S1651.644,608.192,1642.811,601.893z
		 M1857.588,683.855c-7.528,13.827-18.897-1.075-22.2-7.912c0,0,9.448-2.612,13.596-5.915
		C1853.133,666.725,1865.039,670.028,1857.588,683.855z"/>
	<path class="st1" d="M1508.075,459.851c-0.153,0-0.307,0-0.538-0.076c-0.461-0.077-1.075-0.231-1.844-0.461
		c-0.538-0.077-1.229-0.231-1.997-0.384c-0.845-0.153-1.767-0.384-2.842-0.614c-1.306-0.231-2.765-0.538-4.302-0.922
		c-1.613-0.308-3.303-0.692-5.07-1.076c-3.611-0.692-7.528-1.536-11.753-2.381c-2.074-0.384-4.225-0.845-6.375-1.306
		c-1.076-0.153-2.151-0.384-3.303-0.614c-1.69-0.308-3.457-0.692-5.147-0.999c-0.461-0.077-0.999-0.154-1.459-0.308
		c-1.075-0.23-2.151-0.461-3.226-0.614c-1.844-0.308-3.687-0.692-5.454-0.999c-2.227-0.384-4.378-0.768-6.452-1.152
		c-1.076-0.153-2.151-0.384-3.15-0.538c-3.072-0.538-5.915-0.922-8.526-1.306c-0.845-0.154-1.69-0.307-2.535-0.384
		c-0.614-0.077-1.229-0.154-1.767-0.231c-1.69-0.23-3.226-0.384-4.532-0.461c-0.999,0.308-1.997,0.538-2.919,0.845
		c1.383,1.229,4.071,3.764,5.223,5.761c0,0-23.199,5.3-30.803,14.518c0,0,11.522-0.691,14.057,0.231
		c0,0-12.444,17.744-12.675,27.116c0,0,6.683-5.531,11.062-5.531c0,0-6.914,15.901-5.07,24.658c0,0,3.687-5.761,10.754,0.231
		c7.144,5.992,34.337,5.454,34.337,5.454s-27.5,51.236-72.822,2.381c-15.286-16.516-19.665-35.028-16.976-51.697
		c5.3-32.877,38.024-58.995,69.979-50.161c14.902,4.148,27.884,9.602,38.715,15.286c14.211,7.375,24.658,14.979,30.88,20.049
		c1.076,0.845,2.074,1.69,2.842,2.304c0.615,0.538,1.152,0.999,1.613,1.46c0.538,0.461,0.999,0.845,1.306,1.229
		C1507.691,459.39,1507.922,459.621,1508.075,459.851z"/>
	<path class="st2" d="M1523.075,465.851c-0.153,0-0.307,0-0.538-0.076c-0.461-0.077-1.075-0.231-1.844-0.461
		c-0.538-0.077-1.229-0.231-1.997-0.384c-0.845-0.153-1.767-0.384-2.842-0.614c-1.306-0.231-2.765-0.538-4.302-0.922
		c-1.613-0.308-3.303-0.692-5.07-1.076c-3.611-0.692-7.528-1.536-11.753-2.381c-2.074-0.384-4.225-0.845-6.375-1.306
		c-1.076-0.153-2.151-0.384-3.303-0.614c-1.69-0.308-3.457-0.692-5.147-0.999c-0.461-0.077-0.999-0.154-1.459-0.308
		c-1.075-0.23-2.151-0.461-3.226-0.614c-1.844-0.308-3.687-0.692-5.454-0.999c-2.227-0.384-4.378-0.768-6.452-1.152
		c-1.076-0.153-2.151-0.384-3.15-0.538c-3.072-0.538-5.915-0.922-8.526-1.306c-0.845-0.154-1.69-0.307-2.535-0.384
		c-0.614-0.077-1.229-0.154-1.767-0.231c-1.69-0.23-3.226-0.384-4.532-0.461c-1.69-0.153-2.996-0.153-3.918-0.077
		c0,0,0.384,0.308,0.999,0.922c1.383,1.229,4.071,3.764,5.223,5.761c0,0-23.199,5.3-30.803,14.518c0,0,11.522-0.691,14.057,0.231
		c0,0-12.444,17.744-12.675,27.116c0,0,6.683-5.531,11.062-5.531c0,0-6.914,15.901-5.07,24.658c0,0,3.687-5.761,10.754,0.231
		c7.144,5.992,34.337,5.454,34.337,5.454s-27.5,51.236-72.822,2.381c-15.286-16.516-19.665-35.028-16.976-51.697
		c5.3-32.877,38.024-58.995,69.979-50.161c14.902,4.148,27.884,9.602,38.715,15.286c14.211,7.375,24.658,14.979,30.88,20.049
		c1.076,0.845,2.074,1.69,2.842,2.304c0.615,0.538,1.152,0.999,1.613,1.46c0.538,0.461,0.999,0.845,1.306,1.229
		C1522.691,465.39,1522.922,465.621,1523.075,465.851z"/>
	<path class="st2" d="M1535.904,1239.849c5.915,1.69,37.64,12.06,43.401,45.936c0,0,7.221,8.526,8.296,19.434
		c0,0-17.591-8.757-32.57-10.678c0,0-6.914,3.995-50.391-2.381c-43.555-6.375-70.748,0.538-85.419-14.672
		c-6.53-6.76-19.588-32.109-31.956-58.15c1.613-11.522,1.536-25.042-2.535-38.562c-1.69-5.838-3.688-15.824-5.992-30.419
		c-1.69-11.062-3.457-23.736-5.3-37.256c-2.688-19.511-5.684-41.173-9.141-62.759c16.669-12.29,33.645-31.955,46.934-49.393
		c1.076,8.603-2.458,18.666-2.842,19.742c10.294-11.522,24.888-37.717,35.336-57.535c0.153-0.384,0.384-0.692,0.538-1.076
		c3.303-5.915,7.067-13.213,10.908-21.278c0.153-0.461,0.384-0.845,0.538-1.229c0.23-0.461,0.461-0.922,0.691-1.383
		c0.077-0.077,0.077-0.154,0.077-0.154c1.613,28.038,2.535,64.602-0.077,100.936c-5.3,74.819,31.725,136.963,36.411,162.773
		c0,0,76.97,19.588,100.552,53.003c0,0,20.126,10.985,24.12,31.034c0,0-21.355-8.834-32.801-5.608
		C1584.682,1280.178,1577.615,1248.837,1535.904,1239.849z"/>
	<path class="st2" d="M887.807,1192.761c0,0-13.289-11.292-25.503-11.522c0,0-1.383,2.305-4.609,1.844
		c0,0-6.375-31.417-43.324-37.64c0,0,40.405,16.054,36.257,39.714c0,0,4.148,12.137,0.231,21.585c0,0-5.992-13.289-16.977-12.828
		c0,0-8.066,3.841-33.953-5.07c-25.964-8.987-77.815,2.766-91.872-15.593c-7.221-9.525-23.583-33.338-37.716-54.002l10.216-0.153
		c0.768,0.077,1.613,0.077,2.535,0.077c12.214,0,36.564-2.919,61.299-6.453h0.154c-11.522,7.298-27.27,14.211-27.27,14.211
		c38.254,0,77.892-6.529,77.892-6.529s0,0,0.076,0c16.593,3.918,83.576,21.431,81.732,45.936
		C876.976,1166.336,886.885,1177.552,887.807,1192.761z"/>
	<path class="st2" d="M303.698,1016.699v0.307c-0.461,8.373-0.845,13.366-0.845,13.52l-0.692,9.449
		c-25.733,15.593-61.76,24.811-61.76,24.811c4.609-6.683,3.303-14.672,3.303-14.672c-12.137,18.052-42.326,18.052-42.326,18.052
		c9.218-10.063,5.07-15.978,5.07-15.978c-23.045,18.897-59.916,11.369-59.916,11.369c7.067-3.38,11.292-16.361,11.292-16.361
		c-16.746,11.292-30.189,1.69-30.189,1.69c39.407-25.196,84.267-80.503,84.267-80.503c-10.524,4.609-21.739,3.456-21.739,3.456
		c40.866-24.965,79.12-90.335,101.858-135.426c-0.154,42.633-1.076,90.182-1.076,90.873l-0.922,45.782l14.749-11.522
		C305.004,983.361,304.313,1003.64,303.698,1016.699z"/>
	<g>
		<g>
			<g>
				<g>
					<polygon class="st0" points="836.721,1886.473 779.486,1982.478 687.215,1982.478 787.924,1807.919 					"/>
					<polygon class="st0" points="1015.215,1982.478 927.926,1982.478 853.672,1857.652 804.875,1779.099 692.606,1575.447 
						785.219,1575.447 853.399,1698.975 897.623,1779.099 					"/>
					<polygon class="st0" points="1009.823,1575.447 914.396,1747.491 870.171,1667.368 917.62,1575.447 					"/>
				</g>
			</g>
		</g>
	</g>
	<rect x="1061.755" y="1575.447" class="st0" width="86.88" height="407.031"/>
	<rect x="1175.566" y="1908" class="st0" width="139.219" height="74.478"/>
	<path class="st2" d="M206.504,811.071c49.871-399.514,390.686-708.649,803.711-708.649c249.081,0,471.894,112.434,620.479,289.311
		l165.112,109.961C1647.684,218.888,1351.382,25.918,1010,25.918c-489.079,0-885.646,396.055-886.494,884.935L206.504,811.071z"/>
	<g>
		<path class="st2" d="M587.705,1603.618c-167.196-102.426-294.363-263.811-352.565-455.229l-83.602-13.915
			c62.065,240.641,222.648,441.686,436.167,557.586V1603.618z"/>
		<path class="st2" d="M1890.895,812.216l-74.642,19.697c2.613,26.483,3.962,53.338,3.962,80.509
			c0,340.382-209.961,631.714-507.43,751.582v81.856c340.504-123.732,583.719-450.178,583.719-833.439
			C1896.504,878.542,1894.595,845.108,1890.895,812.216z"/>
	</g>
</g>
</svg>
