<?xml version="1.0" encoding="utf-8"?>
<!-- Generator: Adobe Illustrator 19.0.0, SVG Export Plug-In . SVG Version: 6.00 Build 0)  -->
<svg version="1.1" id="Layer_1" xmlns="http://www.w3.org/2000/svg" xmlns:xlink="http://www.w3.org/1999/xlink" x="0px" y="0px"
	 viewBox="0 0 2000 2000" style="enable-background:new 0 0 2000 2000;" xml:space="preserve">
<style type="text/css">
	.st0{fill:#4E6940;}
	.st1{fill:#6F975B;}
</style>
<g>
	<path class="st0" d="M1238.429,217.536V1480.65h-78.762V217.536c0-98.36-74.134-180.221-172.151-197.765
		c12.72-2.291,25.917-3.484,39.374-3.484c58.427,0,111.308,22.525,149.598,58.919
		C1214.743,111.653,1238.429,161.951,1238.429,217.536"/>
	<path class="st1" d="M1159.667,217.536V1480.65H815.344V217.536c0-88.643,60.221-163.854,143.874-190.705
		c9.152-2.96,18.613-5.319,28.298-7.06C1085.533,37.315,1159.667,119.176,1159.667,217.536"/>
	<path class="st0" d="M1760.525,725.087v164.289c0,64.25-25.421,122.631-66.791,165.52c-0.986,1.097-2.012,2.122-3.057,3.147
		c-43.196,43.181-102.799,69.868-168.695,69.868h-283.553v-66.813h236.84c91.104,0,170.766-48.999,214.108-122.034
		c22.056-37.13,34.703-80.485,34.703-126.803V639.258C1746.575,660.948,1760.525,691.388,1760.525,725.087"/>
	<path class="st0" d="M1363.868,1061.099h-125.419V907.371h63.354v0.641C1301.803,967.5,1325.54,1021.527,1363.868,1061.099"/>
	<path class="st1" d="M1724.08,639.258v173.004c0,46.317-12.647,89.673-34.703,126.803
		c-43.343,73.035-123.004,122.034-214.108,122.034h-111.4c-38.328-39.591-62.047-93.599-62.047-153.097v-0.631h132.629
		c48.342,0,87.531-39.217,87.531-87.505v-94.779c0-32.957,13.33-62.794,34.926-84.348c21.62-21.553,51.402-34.923,84.344-34.923
		C1673.433,605.817,1702.595,618.565,1724.08,639.258"/>
	<path class="st0" d="M815.344,809.33v44.516H531.81c-65.895,0-125.478-26.688-168.69-69.859
		c-19.807-19.815-36.153-43.069-48.013-68.86c46.674,57.483,117.918,94.203,197.704,94.203H815.344z"/>
	<path class="st1" d="M815.344,633.305V809.33H512.811c-79.786,0-151.03-36.72-197.704-94.212
		c-14.02-30.357-21.838-64.176-21.838-99.804V451.022c0-65.886,53.374-119.262,119.271-119.262
		c32.947,0,62.729,13.364,84.345,34.917c21.601,21.552,34.925,51.397,34.925,84.345v94.788c0,48.279,39.211,87.495,87.532,87.495
		H815.344z"/>
	<path class="st1" d="M1102.576,1945.729c-35.496,25.375-79.25,40.57-127.419,40.57c-121.696,0-221.847-99.522-221.847-221.826
		c0-122.341,100.151-221.863,221.847-221.863c48.169,0,91.923,14.589,127.419,39.946l-27.896,58.289
		c-27.894-22.815-60.85-34.204-99.523-34.204c-88.102,0-158.461,69.697-158.461,157.832c0,88.097,70.359,158.442,158.461,158.442
		c38.673,0,73.524-13.301,101.419-36.138L1102.576,1945.729z"/>
	<rect x="1127.258" y="1542.611" class="st1" width="77.57" height="444.956"/>
	<rect x="1228.913" y="1542.611" class="st1" width="77.571" height="444.956"/>
	<g>
		<path class="st0" d="M415.451,244.918c25.547,0,49.753,5.732,71.415,15.964c73.052-57.705,156.022-103.409,245.941-134.125
			c10.793-37.282,33.681-71.126,65.41-99.036C640.07,63.886,497.654,141.324,382.896,248.092
			C393.428,246.017,404.311,244.918,415.451,244.918z"/>
		<path class="st0" d="M1268.495,44.718c27.4,29.317,45.831,63.791,52.277,101.125c300.553,125.134,511.854,421.644,511.854,767.52
			c0,329.096-191.297,613.5-468.759,748.109v85.248c321.456-139.936,546.216-460.387,546.216-833.357
			C1910.084,504.498,1639.99,158.731,1268.495,44.718z"/>
		<path class="st0" d="M695.01,1755.202c0-22.752,4.055-44.556,11.476-64.733c-313.291-119.034-535.945-422.063-535.945-777.107
			c0-104.103,19.167-203.721,54.124-295.553V442.218C141.176,579.593,93.084,740.857,93.084,913.362
			c0,394.353,251.268,729.999,602.432,855.627C695.185,1764.436,695.01,1759.839,695.01,1755.202z"/>
	</g>
</g>
</svg>
