<?xml version="1.0" encoding="utf-8"?>
<!-- Generator: Adobe Illustrator 23.0.1, SVG Export Plug-In . SVG Version: 6.00 Build 0)  -->
<svg version="1.1" id="Layer_1" xmlns="http://www.w3.org/2000/svg" xmlns:xlink="http://www.w3.org/1999/xlink" x="0px" y="0px"
	 viewBox="0 0 2000 2000" style="enable-background:new 0 0 2000 2000;" xml:space="preserve">
<style type="text/css">
	.st0{fill:#61985E;}
	.st1{fill:#426640;}
</style>
<g>
	<polygon class="st0" points="1410.8,933.1 1549.6,933.1 1229.2,510.9 1375.3,510.9 1000,16.3 624.7,510.9 770.8,510.9 450.4,933.1 
		589.2,933.1 256.8,1371.2 926.3,1371.2 926.3,1496 1073.7,1496 1073.7,1371.2 1743.2,1371.2 	"/>
	<polygon class="st1" points="1743.2,1371.2 1410.8,933.1 1549.6,933.1 1229.2,510.9 1375.3,510.9 1000,16.3 1202.2,508.9 
		1109.7,508.9 1256,930.5 1184.6,930.5 1344.9,1371.2 	"/>
	<polyline class="st1" points="1073.7,1496 1073.7,1371.2 1032.4,1371.2 1032.4,1496 1079.3,1496 	"/>
</g>
<rect x="1129.7" y="1542.6" class="st0" width="77.6" height="445"/>
<rect x="1231.3" y="1542.6" class="st0" width="77.6" height="445"/>
<rect x="1028" y="1542.6" class="st0" width="77.6" height="445"/>
<path class="st0" d="M1003.3,1945.7c-35.5,25.4-79.3,40.6-127.4,40.6c-121.7,0-221.8-99.5-221.8-221.8
	c0-122.3,100.2-221.9,221.8-221.9c48.2,0,91.9,14.6,127.4,39.9l-27.9,58.3c-27.9-22.8-60.8-34.2-99.5-34.2
	c-88.1,0-158.5,69.7-158.5,157.8c0,88.1,70.4,158.4,158.5,158.4c38.7,0,73.5-13.3,101.4-36.1L1003.3,1945.7z"/>
<path class="st1" d="M1739.2,1442.1c-91.5,127.7-215.3,230.8-359.5,297.2v-86.8c100.8-51.9,189.6-123.8,261.1-210.4H1739.2z"/>
<path class="st1" d="M1908.8,913.4c0,152.4-37.5,295.9-103.8,422.1l-52.6-69.3c50.3-107.1,78.4-226.6,78.4-352.7
	c0-407.8-293.8-747-681.3-817.4l-66.5-87.6C1546,50.2,1908.8,439.4,1908.8,913.4z"/>
<path class="st1" d="M917.1,8.3L850.5,96C463,166.4,169.2,505.6,169.2,913.4c0,126.1,28.1,245.7,78.4,352.7l-52.6,69.3
	c-66.3-126.1-103.8-269.7-103.8-422.1C91.2,439.4,454,50.2,917.1,8.3z"/>
<path class="st1" d="M608.3,1646.2c-0.6,1.4-1.3,2.8-1.9,4.3c-9.9,23.3-16.7,47.4-20.2,72.2c-129.6-66.4-241.2-163-325.4-280.6h98.4
	C427.8,1525.3,512.4,1594.8,608.3,1646.2z"/>
</svg>
