<?xml version="1.0" encoding="utf-8"?>
<!-- Generator: Adobe Illustrator 23.0.1, SVG Export Plug-In . SVG Version: 6.00 Build 0)  -->
<svg version="1.1" id="Layer_1" xmlns="http://www.w3.org/2000/svg" xmlns:xlink="http://www.w3.org/1999/xlink" x="0px" y="0px"
	 viewBox="0 0 2000 2000" style="enable-background:new 0 0 2000 2000;" xml:space="preserve">
<style type="text/css">
	.st0{fill:#988F33;}
	.st1{fill:#CDC33F;}
</style>
<path class="st0" d="M798.2,612.2c1.8-36.6,4.4-73.4,7.9-110.5C802.6,538.7,800,575.5,798.2,612.2z"/>
<path class="st0" d="M814.2,427.3c-3.1,24.9-5.7,49.7-8.1,74.4C808.4,476.9,811.1,452.2,814.2,427.3z"/>
<path class="st0" d="M658.2,693c0-24.7,0.4-49.5,1.1-74.4C658.6,643.5,658.2,668.3,658.2,693z"/>
<path class="st0" d="M1503.4,172.5c22.7-11.9,45.6-23.5,68.7-34.7C1549,149,1526.1,160.6,1503.4,172.5z"/>
<path class="st0" d="M1641.9,105c-23.5,10.6-46.8,21.5-69.8,32.7C1595.2,126.5,1618.5,115.6,1641.9,105z"/>
<path class="st0" d="M538.9,984.2L538.9,984.2c-3.8-29.5-7.1-59.2-9.9-89.1C531.7,925,535,954.7,538.9,984.2z"/>
<path class="st0" d="M529,895.1c-2.2-24.5-4.2-49.1-5.7-73.9C524.8,846,526.7,870.6,529,895.1z"/>
<path class="st0" d="M1195.5,382.2c0.9-2,2-4,2.9-6c-3.4,2.4-6.7,4.8-10.1,7.3C1190.7,383,1193.1,382.6,1195.5,382.2z"/>
<path class="st0" d="M555.4,1048.5c-0.3-0.6-0.5-1.2-0.8-1.8c-0.2,0.2-0.3,0.5-0.5,0.8C554.6,1047.8,555,1048.2,555.4,1048.5z"/>
<path class="st0" d="M541.4,1004.3c-1.2-6.6-2.1-13.3-2.6-20c-3.8-29.5-7.1-59.2-9.9-89.1c-2.2-24.5-4.2-49.1-5.7-73.9
	c-1.6-24.8-2.7-49.7-3.6-74.8c-45.3,42.7-72,105.8-65.5,167.2c5.8,55.5,36.8,97.3,78.6,119.7c3.5-5.3,7-10.5,10.6-15.8
	C542.7,1013.2,542,1008.7,541.4,1004.3z"/>
<path class="st1" d="M529,895.1c2.8,30,6.1,59.6,9.9,89.1c-0.4-4.9-0.6-9.9-0.7-15c-0.2-50.5,19.3-102,52.9-143.5
	c-14.1-35.1-39-63-71.4-79.3c0.8,25.1,2,50,3.6,74.8C524.8,846,526.7,870.6,529,895.1z"/>
<path class="st0" d="M544.1,1016.5c-1-4-1.9-8.1-2.7-12.3c0.6,4.5,1.3,8.9,1.9,13.4C543.6,1017.2,543.8,1016.9,544.1,1016.5z"/>
<path class="st0" d="M631.9,785.7l16.6-12.8l11.1,7.1c-0.6-16.6-1-33.3-1.3-50c-0.2-12.3-0.3-24.6-0.2-36.9
	c0-24.7,0.4-49.5,1.1-74.4c0.4-12.5,0.8-25,1.4-37.5c-48.5,39-79.9,99.8-78.2,161.4c0.7,26.7,7.5,50.8,18.7,71.4
	C610.6,803.7,620.9,794.2,631.9,785.7z"/>
<path class="st1" d="M658.2,693c0,12.4,0.1,24.6,0.2,36.9c0.2,16.8,0.7,33.4,1.3,50l6.6,4.2c6.4,4.1,12.5,8.5,18.2,13.3
	c5.2-38.5,21.8-76.2,46.8-108.3c-7.8-46.7-33.1-85.5-70.6-108.1c-0.6,12.5-1,25-1.4,37.5C658.6,643.5,658.2,668.3,658.2,693z"/>
<path class="st0" d="M790.9,634.1l6.6-4.3c0.2-5.9,0.4-11.8,0.7-17.7c1.8-36.6,4.4-73.4,7.9-110.5c2.3-24.7,5-49.5,8.1-74.4
	c-51.4,35.2-87.5,93.3-90.5,154.8c-1.7,34.2,6.7,64.8,22.3,90C759.2,657.8,774.3,644.9,790.9,634.1z"/>
<path class="st1" d="M798.2,612.2c-0.3,5.9-0.5,11.8-0.7,17.7l11-7.2l16.8,12.6c5.9,4.5,11.5,9.3,16.8,14.4c0.2-0.2,0.3-0.4,0.5-0.6
	c6-26.9,17.5-53,33.6-76.6c0-0.4,0.1-0.9,0.1-1.3c4.6-60-18.9-113.2-62.1-144c-3.1,24.9-5.7,49.7-8.1,74.4
	C802.6,538.7,800,575.5,798.2,612.2z"/>
<path class="st0" d="M944.5,505.5c1.4-12.2,2.8-24.4,4.4-36.6c6.2-48.5,13.9-97.3,23.3-146.4c2.3-12.3,4.7-24.5,7.3-36.9
	c-54.1,31.1-94.7,86.3-102.6,147.5c-5.4,41.4,4.7,78.5,24.9,107.8C914.6,527.6,928.9,515.7,944.5,505.5z"/>
<path class="st1" d="M948.9,468.9c-1.6,12.2-3,24.4-4.4,36.6c5.4-3.6,10.9-7,16.7-10.1l18.4-10l15.7,13.9c1.1,0.9,2,1.9,3.1,2.9
	c4.8-4.2,9.6-8.3,14.4-12.5c8.2-17.4,14.1-36,17.2-55.5c9.3-59.5-9.9-114.4-50.6-148.5c-2.5,12.3-4.9,24.6-7.3,36.9
	C962.9,371.5,955.2,420.4,948.9,468.9z"/>
<path class="st0" d="M1099.4,394.8c1.3-7.1,2.6-14.3,4-21.4c11.6-59.8,25.7-119.9,42.2-180.2c3.3-12.1,6.7-24.2,10.2-36.2
	c-56.5,27-101.5,78.9-114.2,139.3c-10.2,48,1.5,91.8,26.7,125C1077.8,411.7,1088.3,402.8,1099.4,394.8z"/>
<path class="st1" d="M1103.4,373.4c-1.4,7.1-2.7,14.3-4,21.4c13.3-9.6,27.5-17.9,42.6-24.6l19.1-8.6l5.7,5.8c2-1.5,4-2.8,6-4.3
	c9.6-16.7,17-34.9,21.6-54.1c14.1-58.7-0.8-114.9-38.6-152.1c-3.5,12.1-6.9,24.2-10.2,36.2C1129.1,253.5,1115,313.6,1103.4,373.4z"
	/>
<path class="st0" d="M1260.4,300c22.1-85.7,49.5-171.9,82.3-258c-58.8,22.6-108,71.1-125.6,130.4c-16,53.7-3.3,104.1,26.8,140.8
	c1.9-1.3,3.9-2.7,5.8-4C1253.2,306,1256.8,303,1260.4,300z"/>
<path class="st1" d="M1316.1,265.9c8.9-5.6,17.9-11.2,26.8-16.7c10.9-16,19.8-33.5,26-52.4c18.8-57.5,8.6-114.8-26.3-154.8
	c-32.8,86.1-60.1,172.3-82.3,258C1277.2,286.4,1296,274.8,1316.1,265.9z"/>
<path class="st1" d="M554.1,1047.5c0.2-0.2,0.3-0.5,0.5-0.8c-4.4-9.7-7.9-19.7-10.6-30.2c-0.2,0.3-0.5,0.7-0.7,1.1
	c-3.5,5.3-7.1,10.5-10.6,15.8c-120.4,182.2-218.5,380.4-290.6,590.7c7,2.4,13.9,4.8,20.9,7.2c4.9-10.5,9.8-20.9,14.8-31.2
	C348.1,1403.8,441.2,1218.5,554.1,1047.5z"/>
<path class="st0" d="M842.4,650c0.1-0.3,0.1-0.6,0.2-0.8c-0.2,0.2-0.3,0.4-0.5,0.6C842.2,649.8,842.3,649.9,842.4,650z"/>
<path class="st1" d="M1011.2,515.3c3.9-12.9,9.1-25.4,15.5-37.5c-4.7,3.9-9.3,8-13.9,11.9c-4.8,4.1-9.6,8.3-14.4,12.5
	C1002.9,506.3,1007.3,510.7,1011.2,515.3z"/>
<path class="st1" d="M1175.8,376.6c3,3.1,5.9,6.4,8.7,9.7c1.3-0.9,2.6-1.9,3.9-2.8c3.4-2.5,6.7-4.8,10.1-7.3
	c12.5-24.9,30-47.7,51.3-67.1c-1.9,1.3-3.9,2.7-5.8,4c-24,16.3-47.7,33-71.1,50c-2,1.5-4,2.8-6,4.3L1175.8,376.6z"/>
<path class="st1" d="M1332.7,259.2l19.8-7.1l11.7,14c7.3-4.5,14.7-8.8,22.1-13.3c-5.5-1.5-11-3.3-16.4-5.3c0.7-5.5,1.7-11,3-16.5
	c-10,6-20,12-30,18.1c-9,5.5-17.9,11.1-26.8,16.7C1321.5,263.4,1327,261.2,1332.7,259.2z"/>
<path class="st0" d="M1503.4,172.5c-1.4,0.7-2.7,1.5-4.1,2.2c10.7-4.6,21.7-8.6,33.1-11.7l20.2-5.5l12.1,17.1
	c6.6,9.3,12.1,19.3,16.6,29.6c30.2-27.4,51.1-62.1,60.6-99.2c-23.5,10.6-46.8,21.5-69.8,32.7C1549,149,1526.1,160.6,1503.4,172.5z"
	/>
<path class="st0" d="M1369.9,247.6c5.4,2,10.8,3.7,16.4,5.3c3.8,1,7.6,2,11.5,2.8c16.8-23.4,38.4-44.1,63.4-60.5
	C1430.3,212.1,1399.9,229.5,1369.9,247.6z"/>
<path class="st1" d="M1461.1,195.2c12-7.9,24.8-14.8,38.2-20.6c1.4-0.7,2.7-1.5,4.1-2.2c22.7-11.9,45.6-23.5,68.7-34.7
	s46.4-22.1,69.8-32.7c-48.7-25.3-113.7-26-171.6,4.4c-52,27.2-86.2,73.2-97.5,121.6c-1.3,5.5-2.3,11-3,16.5
	C1399.9,229.5,1430.3,212.1,1461.1,195.2z"/>
<g>
	<path class="st0" d="M650.2,809.5c-3.4,50-5.3,99.6-5.8,148.8C644.9,909.1,646.8,859.5,650.2,809.5z"/>
	<path class="st0" d="M787,843.7c2.7-36.5,6.1-73.3,10.5-110.3C793.2,770.4,789.7,807.1,787,843.7z"/>
	<path class="st0" d="M644.4,966.3L644.4,966.3c0-2.7,0-5.3,0-8C644.4,960.9,644.4,963.6,644.4,966.3z"/>
	<path class="st0" d="M618.3,1052.1c2.4-29.6,11.5-58.9,26.1-85.9c0-2.7,0-5.3,0-8c0.5-49.1,2.4-98.8,5.8-148.8
		c-49.4,37.9-82.3,98-82.1,159.6c0.1,47.9,19.8,87.6,50.1,114.7C617.5,1073.5,617.4,1062.9,618.3,1052.1z"/>
	<path class="st1" d="M644.4,966.3c16.1-29.8,38.9-56.6,66.6-77.8c-11.2-33.2-32.2-60.8-60.7-79c-3.4,50-5.3,99.6-5.8,148.8
		C644.4,960.9,644.4,963.6,644.4,966.3z"/>
	<path class="st0" d="M744.7,865.7l16.7,12.7c6,4.6,11.7,9.5,17,14.8c1.8-8.1,4.2-16.2,6.9-24.1c0.5-8.4,1-16.9,1.7-25.4
		c2.7-36.5,6.1-73.3,10.5-110.3c2.9-24.6,6.2-49.4,9.8-74.2c-52.2,34-89.6,91.2-94.1,152.6c-1.8,24.7,1.8,47.7,9.5,68.1
		c1.5-1,2.9-2,4.4-3L744.7,865.7z"/>
	<path class="st1" d="M787,843.7c-0.6,8.5-1.1,16.9-1.7,25.4c14.8-41.8,43-80.2,79.8-108.5c-5.8-41.6-26.3-77.5-57.9-101.3
		c-3.6,24.8-6.9,49.5-9.8,74.2C793.2,770.4,789.7,807.1,787,843.7z"/>
	<path class="st0" d="M916.5,729.3l15.7,13.9c1,0.9,1.9,1.8,2.8,2.7c9.9-74.1,23.4-148.9,40.5-224.2c-54.7,29.8-96.5,84-105.8,144.9
		c-4.7,30.6-0.8,59.1,9.5,84c6.1-4,12.3-7.9,18.8-11.3L916.5,729.3z"/>
	<path class="st1" d="M948,759.3c13-42.8,40.7-82,77.4-111.4c2.7-50.2-15.4-95.8-49.9-126.2C958.3,597,944.9,671.8,935,745.9
		C939.6,750.2,943.9,754.6,948,759.3z"/>
	<path class="st0" d="M1098.5,606.7L1098.5,606.7c15.4-69.4,33.9-139.2,55.8-209.2c-57,25.5-103,76.3-117,136.4
		c-8.5,36.1-4.4,70.2,8.7,99.2c10.6-6.8,21.7-12.8,33.3-18L1098.5,606.7z"/>
	<path class="st0" d="M1342.8,287.4c-59,21.1-109,68.2-127.8,127c-13.2,41.2-9.2,80.9,6.8,114.1c13.8-8.6,28.6-15.9,44.1-21.6
		C1287.7,433.8,1313.2,360.6,1342.8,287.4z"/>
	<path class="st1" d="M1269.9,505.4l19.8-7l13.3,16.2c0.2,0.2,0.3,0.4,0.5,0.6c11.7-7.1,23.5-14.1,35.3-21
		c11.2-15.6,20.4-32.9,27-51.6c19.9-57,10.9-114.4-23-155.3c-29.6,73.2-55.1,146.5-76.9,219.6
		C1267.3,506.4,1268.6,505.9,1269.9,505.4z"/>
	<path class="st0" d="M1540.3,191.9c-60.8,16.5-114.6,59.7-138.1,117c-18.8,45.7-15.2,91.2,4,128.5c10.7-6.4,21.9-12,33.5-16.8
		C1468.7,344.2,1502.2,267.8,1540.3,191.9z"/>
	<path class="st1" d="M1469.1,410.6l20.3-5.4l4,5.7c8.7-4.3,17.4-8.6,26.2-12.8c12.5-14.8,23.1-31.3,31.2-49.5
		c24.6-55.3,20.1-113.3-10.5-156.7c-38.1,75.9-71.5,152.2-100.6,228.7C1449.3,416.7,1459.1,413.3,1469.1,410.6z"/>
	<path class="st1" d="M631.8,1140c-3.9-9.4-7.1-19.2-9.4-29.3c-133.1,165.3-246.7,347.6-337.1,543.8c6.2,2.9,12.5,5.7,18.7,8.6
		c8.5-14.5,17.2-28.9,26-43.2C413.3,1448,514.8,1287.3,631.8,1140z"/>
	<path class="st1" d="M1154.3,397.6c-21.9,70-40.4,139.8-55.7,209.3l14.4,15c3.8,4,7.4,8.2,10.8,12.6l0,0c1.2,1.6,2.5,3.1,3.7,4.7
		c1.4-3.7,3-7.3,4.6-10.8l0,0c12.9-28.1,32.5-53.7,56.5-75c0.3-1,0.6-1.9,0.9-2.9C1204.9,492.1,1191.3,435.6,1154.3,397.6z"/>
	<path class="st1" d="M1316.2,533.1c7-14.5,15.9-28.2,26.2-40.9c-1.2,0.7-2.4,1.4-3.6,2.1c-11.8,6.9-23.6,13.9-35.3,21
		C1308.2,521,1312.4,527,1316.2,533.1z"/>
	<path class="st1" d="M1501.4,422.4c2.2,3.2,4.4,6.5,6.4,9.9c5.8-2.9,11.7-5.8,17.7-8.7c6.4-8.6,13.5-16.7,21.1-24.4l0,0
		c1.2-5.4,2.8-10.8,4.7-16.2c-10.6,4.9-21.1,9.9-31.7,15c-8.8,4.2-17.5,8.5-26.2,12.8L1501.4,422.4z"/>
	<path class="st0" d="M1707.5,345.7c9.6,16.3,16.2,33.9,20,52.2c50.1-24.3,86.9-65.6,104.2-113c-44.5,14.8-88.4,30.9-131.7,48
		L1707.5,345.7z"/>
	<path class="st0" d="M1546.6,399.2L1546.6,399.2L1546.6,399.2L1546.6,399.2z"/>
	<path class="st1" d="M1546.6,399.2c34.1-34.1,79.9-58.7,129.5-67.8l20.6-3.8l3.1,5.3c43.4-17.1,87.3-33.2,131.7-48
		c-45.9-30.1-110.4-37.4-171.2-13c-54.5,21.8-93.2,64.1-109.3,111.1c-1.8,5.3-3.4,10.7-4.7,16.2
		C1546.6,399.2,1546.6,399.2,1546.6,399.2z"/>
</g>
<path class="st0" d="M852.3,1260.1c-57.9,1-109.6-24.5-140.1-67.8c96.2-6.5,190.9-7,283.2-1.9C961.4,1232,910.3,1258.9,852.3,1260.1
	z"/>
<path class="st1" d="M995.4,1190.4c-92.3-5.1-186.9-4.6-283.2,1.9c33.5-47.7,89.3-79.5,148.4-79
	C920,1113.6,968.3,1145.3,995.4,1190.4z"/>
<path class="st0" d="M993.2,1130.8c-57.7-3.5-107.3-33.1-134.2-78.6c96.3,1.1,190.6,8.1,282.2,20.3
	C1104,1111.3,1051,1134.2,993.2,1130.8z"/>
<path class="st1" d="M1141.2,1072.5c-91.6-12.3-185.9-19.2-282.2-20.3c37-44.8,95-72.2,153.9-67.1
	C1071.9,990.1,1117.6,1025.4,1141.2,1072.5z"/>
<path class="st0" d="M1143.6,1012.9c-57.2-8-104.4-41.4-127.7-88.8c95.9,8.7,189.4,22.9,279.8,42.3
	C1255.6,1002.2,1200.9,1020.9,1143.6,1012.9z"/>
<path class="st1" d="M1295.7,966.4c-90.4-19.4-183.9-33.6-279.8-42.3c40.4-41.8,100.3-64.5,158.6-54.9
	C1233.1,878.8,1275.9,917.6,1295.7,966.4z"/>
<path class="st0" d="M1302.8,907.2c-56.5-12.4-100.8-49.4-120.4-98.5c95,16.1,187.2,37.5,275.9,63.8
	C1415.4,905.1,1359.4,919.5,1302.8,907.2z"/>
<path class="st1" d="M1458.2,872.4c-88.8-26.3-180.9-47.7-275.9-63.8c43.5-38.5,105.1-56.5,162.6-42.4
	C1402.6,780.2,1442.4,822.3,1458.2,872.4z"/>
<path class="st0" d="M1470,813.9c-55.4-16.8-96.8-57-112.5-107.6c93.6,23.4,184,51.8,270.7,84.9
	C1582.7,820.6,1525.6,830.6,1470,813.9z"/>
<path class="st1" d="M1628.2,791.3c-86.7-33.1-177.1-61.5-270.7-84.9c46.5-35.1,109.5-48.3,165.8-29.8
	C1579.9,695,1616.3,740,1628.2,791.3z"/>
<path class="st0" d="M1644.6,733.8c-54.1-21-92.3-64.3-103.9-116c91.7,30.5,179.9,65.9,264.1,105.6
	C1756.8,749.1,1698.9,754.7,1644.6,733.8z"/>
<path class="st1" d="M1804.8,723.4c-84.2-39.7-172.3-75-264.1-105.6c49.3-31.4,113.4-39.8,168.3-17
	C1764.2,623.7,1797,671.4,1804.8,723.4z"/>
<path class="st0" d="M648.2,1054.5c-5,61.6,23.4,112.4,67.6,141.2c3.3-96.3,12.4-194.4,27.5-293.5
	C690.9,935.9,653.1,993.1,648.2,1054.5z"/>
<path class="st1" d="M743.2,902.3c-15.1,99.1-24.2,197.2-27.5,293.5c46.3-35,79-87.8,85.4-147.7
	C807.5,988.1,785.5,934.4,743.2,902.3z"/>
<path class="st0" d="M805.7,909.9c-9.7,61,14.7,113.8,56.4,146c10.7-95.7,27.3-192.6,50-290.3C857.5,795.1,815.3,849,805.7,909.9z"
	/>
<path class="st1" d="M912.2,765.6c-22.8,97.6-39.3,194.6-50,290.3c48.8-31.2,85.4-81.2,96.5-140.4
	C969.6,856.3,951.8,800.9,912.2,765.6z"/>
<path class="st0" d="M973.9,778.1c-14.4,60,5.8,114.6,44.9,149.9c18.1-94.5,42.2-189.9,72.5-285.5
	C1034.4,667.7,988.2,718.2,973.9,778.1z"/>
<path class="st1" d="M1091.4,642.6c-30.4,95.6-54.5,191-72.5,285.5c51-27.3,91.5-74.3,107.1-132.5
	C1141.4,737.4,1128.1,680.9,1091.4,642.6z"/>
<path class="st0" d="M1151.9,659.8c-19.1,58.7-3.2,114.7,33.1,153c25.4-92.9,57-186.1,94.9-279.1
	C1221,554.4,1170.9,601.2,1151.9,659.8z"/>
<path class="st1" d="M1279.8,533.7c-37.9,93-69.5,186.3-94.9,279.1c53-23.3,97.1-67,117.3-123.9
	C1322.4,632.2,1313.5,574.7,1279.8,533.7z"/>
<path class="st0" d="M1339,555.6c-23.7,57.1-12.3,114.2,20.9,155.1c32.7-90.6,71.7-181.3,117-271.1
	C1416.3,455.7,1362.6,498.5,1339,555.6z"/>
<path class="st1" d="M1476.9,439.6c-45.3,89.9-84.3,180.5-117,271.1c54.8-19.1,102.3-59.4,127-114.5
	C1511.5,541.1,1507.3,483.1,1476.9,439.6z"/>
<path class="st0" d="M1534.2,466c-28.3,55.2-21.4,113,8.5,156.4c40-87.9,86.2-175.3,138.9-261.5
	C1619.7,372.3,1562.4,410.9,1534.2,466z"/>
<path class="st1" d="M1681.6,360.9c-52.7,86.1-98.9,173.6-138.9,261.5C1599,607.6,1649.8,571,1679,518
	C1708.1,464.9,1708.5,406.7,1681.6,360.9z"/>
<g>
	<path class="st1" d="M331.5,1726.5c-7.4-4.2-14.8-8.4-22.3-12.6C621,1163.2,1120.8,747.4,1712.3,539.2c2.8,8,5.7,16.1,8.5,24.1
		C1135.2,769.5,640.3,1181.2,331.5,1726.5z"/>
</g>
<path class="st0" d="M1836.6,586.8c-58.9,18.1-119.2,9.7-166-18.8c95.5-35.6,193.5-65.8,293.6-90.2
	C1941.1,527.8,1895.5,568.7,1836.6,586.8z"/>
<path class="st1" d="M1964.2,477.8c-100.1,24.4-198.1,54.5-293.6,90.2c16.5-52.1,61.6-98.2,124.1-117.4
	C1857.3,431.4,1921.1,444,1964.2,477.8z"/>
<path class="st0" d="M548.6,1610c-8,12.9-15.1,26.4-21.1,40.5c-4.4,10.3-8.1,20.8-11.3,31.4c-18.2-11.5-35.9-23.6-53.2-36.3
	c14-22,28.4-43.7,43.1-65.2C519.9,1590.7,534.1,1600.6,548.6,1610z"/>
<path class="st0" d="M1908.8,913.5c0,348-195.7,650.3-483.1,802.8l55.5-125.7c211.6-150.4,349.6-397.6,349.6-677
	c0-40.7-2.9-80.6-8.6-119.7c5.4-2.5,10.8-5.1,16.1-7.9l56.8-30.5C1904.1,806.7,1908.8,859.5,1908.8,913.5z"/>
<path class="st0" d="M1224.8,33.2c-3.8,3.5-7.5,7-11,10.7c-16.9,17.3-31.3,36.5-42.8,56.9c-55-11.5-112-17.5-170.4-17.5
	c-458.5,0-830.2,371.7-830.2,830.2c0,152.9,41.3,296.2,113.4,419.2c-13.3,28.3-26.1,56.8-38.4,85.6
	c-96.7-144.3-153.1-318-153.1-504.8C92.4,411.9,499,5.3,1000.6,5.3C1078,5.3,1153.1,15,1224.8,33.2z"/>
<rect x="938.2" y="1542.6" class="st1" width="77.6" height="445"/>
<path class="st1" d="M924.3,1945.7c-35.5,25.4-79.3,40.6-127.4,40.6c-121.7,0-221.8-99.5-221.8-221.8s100.2-221.9,221.8-221.9
	c48.2,0,91.9,14.6,127.4,39.9l-27.9,58.3c-27.9-22.8-60.8-34.2-99.5-34.2c-88.1,0-158.5,69.7-158.5,157.8
	c0,88.1,70.4,158.4,158.5,158.4c38.7,0,73.5-13.3,101.4-36.1L924.3,1945.7z"/>
<polygon class="st1" points="1347.3,1542.6 1243.1,1774.7 1282.1,1866.2 1424.9,1542.6 "/>
<polygon class="st1" points="1238.4,1828.3 1233.7,1817.4 1116.9,1542.6 1038.8,1542.6 1228.4,1986.3 1267.8,1897.3 "/>
</svg>
