<?xml version="1.0" encoding="utf-8"?>
<!-- Generator: Adobe Illustrator 23.0.1, SVG Export Plug-In . SVG Version: 6.00 Build 0)  -->
<svg version="1.1" id="Layer_1" xmlns="http://www.w3.org/2000/svg" xmlns:xlink="http://www.w3.org/1999/xlink" x="0px" y="0px"
	 viewBox="0 0 2000 2000" style="enable-background:new 0 0 2000 2000;" xml:space="preserve">
<style type="text/css">
	.st0{fill:#909A5D;}
	.st1{fill:#626841;}
</style>
<path class="st0" d="M978.4,1945.7c-35.5,25.4-79.3,40.6-127.4,40.6c-121.7,0-221.8-99.5-221.8-221.8
	c0-122.3,100.2-221.9,221.8-221.9c48.2,0,91.9,14.6,127.4,39.9l-27.9,58.3c-27.9-22.8-60.8-34.2-99.5-34.2
	c-88.1,0-158.5,69.7-158.5,157.8c0,88.1,70.4,158.4,158.5,158.4c38.7,0,73.5-13.3,101.4-36.1L978.4,1945.7z"/>
<polygon class="st0" points="1293.3,1543.9 1189.1,1776 1228.1,1867.5 1370.9,1543.9 "/>
<polygon class="st0" points="1184.4,1829.6 1179.7,1818.7 1062.9,1543.9 984.8,1543.9 1174.4,1987.6 1213.8,1898.6 "/>
<path class="st0" d="M1099.7,509.4c0,0,386.5,113.1,226.3,683.7c0,0,334.7-129.9,287.2-409.5C1573,547.6,1218.4,485.3,1099.7,509.4z
	"/>
<path class="st0" d="M1163,464c-27.5-0.3-146.8,12.1-195.9,19.8l-0.3,0c-133.2-17.9-330.5-12-588.9,81.3c0,0,91-203.9,286.4-305.5
	l0-0.1c45-23.3,95.4-41.3,151.6-50.1C1057.1,171.4,1139.6,339.3,1163,464z"/>
<path class="st1" d="M1278.5,331.5c-22.8,15-59.4,41.4-88.5,72.1c-45.1-151.3-152.7-237.9-301.6-240.2c-25-0.4-51.6,1.6-78.9,5.9
	c-34.4,5.4-68.3,14.2-101.4,26.5c79.5-104.2,226.2-241.5,398.5-141C1226.9,125.1,1268.6,234.4,1278.5,331.5z"/>
<path class="st1" d="M1659,365.9c-152.8-102.8-285.8-55.2-377.8,13.3c0,0-53.7,36.1-96.4,86c0,0,53,2.4,89.1,9.9
	c162.7,29.4,348.4,120.1,379.3,301.7c1.7,9.9,3,19.5,3.8,29.1c46.1,65.7,84.2,146.6,107.4,246
	C1764.3,1051.8,1950.6,561.9,1659,365.9z"/>
<path class="st0" d="M1154.4,569.8l-71.3,146.4l-1.9-1.7l-24-21l-33-28.9l-16.3-14.3L984,629.4l-23.6-20.6l-11.4-10l105.5-70
	C1082.3,535.6,1118,547.8,1154.4,569.8z"/>
<polygon class="st0" points="1044.2,722.6 984.2,856.9 972.9,847.6 948,827.1 919,803.3 900.8,788.5 869.1,762.5 845.1,742.9 
	835.6,735.1 958.5,647.6 "/>
<polygon class="st0" points="936.9,857.4 884,1002.4 876.3,997 849.7,978.1 811.6,951.2 791.6,937 757.7,913 732.4,895.1 
	719.3,885.8 845.1,782.2 "/>
<polygon class="st0" points="841.4,1009.7 801,1164.4 787.8,1156.8 759.8,1140.7 718.7,1117 695.7,1103.9 657,1081.6 630.1,1066.1 
	613.4,1056.5 735.8,934.8 "/>
<polygon class="st0" points="754.1,1172.6 723.2,1346.8 704,1337.7 675.3,1324.2 631.6,1303.5 606.1,1291.5 565.6,1272.3 
	537.1,1258.9 514.5,1248.2 636.9,1105.1 "/>
<polygon class="st0" points="670.2,1355.4 641.9,1528.8 621.5,1519.5 591.4,1505.8 549.7,1486.7 524,1475.1 482.8,1456.2 
	454.8,1443.5 431.8,1432.9 545.4,1296.5 "/>
<polygon class="st0" points="590.5,1538.8 586.9,1666.2 585.6,1711.4 488.6,1682 461.6,1673.9 461.3,1673.8 461.2,1673.7 
	364.6,1644.4 388.4,1606.6 432.9,1535.7 466.4,1482.2 "/>
<path class="st1" d="M762.4,36.7c-38.1,30.9-75.2,69.7-110.6,116.2l-7.7,10.1C364,296.6,170.5,582.4,170.5,913.4
	c0,216,82.4,412.7,217.5,560.5l-42.6,67.9C189.1,1378.6,93.1,1157.2,93.1,913.4C93.1,494.4,376.7,141.6,762.4,36.7z"/>
<path class="st1" d="M1652.6,279.7c-55.5-28.9-112.6-43.8-170.2-44.2c-59.9-42.6-125.8-77.4-196-103.1
	c-25.7-41.6-58.8-78-98.7-108.5C1368,61.5,1528.8,152.5,1652.6,279.7z"/>
<path class="st1" d="M1910.1,913.4c0,375.4-227.7,697.6-552.5,836.1l48.5-110c146-81.5,264.8-205.7,339.6-355.8
	c18.6-37.3,34.4-76.1,47.3-116.3l37.5-90.4c2.1-5.4,50.4-134.1,61.1-289.8c1.1-15.8,1.8-31.3,2-46.5
	C1904.4,796.7,1910.1,854.3,1910.1,913.4z"/>
</svg>
