<?xml version="1.0" encoding="utf-8"?>
<!-- Generator: Adobe Illustrator 16.0.0, SVG Export Plug-In . SVG Version: 6.00 Build 0)  -->
<!DOCTYPE svg PUBLIC "-//W3C//DTD SVG 1.1//EN" "http://www.w3.org/Graphics/SVG/1.1/DTD/svg11.dtd">
<svg version="1.1" id="Layer_1" xmlns="http://www.w3.org/2000/svg" xmlns:xlink="http://www.w3.org/1999/xlink" x="0px" y="0px"
	 width="4000px" height="4000px" viewBox="0 0 4000 4000" enable-background="new 0 0 4000 4000" xml:space="preserve">
<g>
	<path fill="#466870" d="M2500.682,3594.242l10.005-5.846l20.051-11.977c13.367-7.988,24.001-19.929,36.037-29.97
		c10.031-11.817,20.223-24.002,28.752-36.95c6.944-13.726,16.506-26.707,21.083-41.318c23.411-57.18,29.502-118.191,27.658-177.295
		c-0.123-14.916-2.056-29.527-3.065-44.346c-2.132-15.002-4.457-30.535-7.986-45.713c-0.716-2.793-1.69-5.527-2.464-8.291
		c55.216-46.871,110.822-92.562,171.115-127.517c15.215-9.656,31.312-16.242,47.166-23.973c8.022-3.531,16.31-5.785,24.454-8.816
		l12.264-4.254l12.503-2.489c33.304-8.556,67.729-7.015,100.604,2.256c33.563,7.899,63.597,28.033,92.851,48.356
		c13.576,11.877,27.423,23.582,40.763,35.939l37.541,40.133l18.746-15.035l-36.332-44.162c-13.123-13.934-27.03-27.36-40.78-40.903
		c-30.213-24.148-62.144-48.713-101.144-60.98c-37.897-13.516-80.579-17.945-120.47-10.551l-15.127,2.166l-14.488,3.955
		c-9.601,2.764-19.579,4.955-28.874,8.354c-18.302,7.363-37.279,14.021-54.388,23.283c-62.76,31.242-118.813,70.748-173.111,110.822
		c-3.116-5.402-6.292-10.842-9.801-16.074c-38.409-54.027-95.351-87.201-145.603-112.863
		c-50.979-26.264-76.604-39.004-103.634-74.143c-13.515-17.291-25.694-32.762-33.538-52.875
		c-3.715-11.166-2.943-17.883-4.456-27.947c0.507-5.049-0.479-10.098,0.741-14.883c0.98-4.221,1.398-11.816,1.844-12.383
		l-0.627-0.359v-0.035c2.855-173.611,226.553-133.711,355.553-448.748c12.209-30.178,21.738-59.26,28.754-87.533
		c42.409-172.52-8.561-314.713-85.642-457.524c0,0-0.024-0.063-0.024-0.086c42.711-57.209,127.4-165.804,218.469-255.215
		c150.893-148.361,173.613-226.519,221.139-326.619c36.39-76.863,61.934-99.439,71.467-105.615c1.1-0.806,2.08-1.277,2.848-1.609
		l1.277-0.618c-87.829-5.077-158.848,205.422-209.677,265.151c-98.192,115.017-264.83,265.765-317.581,293.387
		c-42.712,22.603-72.715-16.963-82.489-32.646c-0.827-1.397-1.687-2.85-2.55-4.28c-0.505-0.944-0.895-1.661-0.895-1.661l0.097,0.332
		c-14.353-24.507-28.669-49.256-42.658-74.522c-145.874-263.058,4.897-330.927,24.774-412.736
		c19.692-81.317-23.498-159.143-11.287-182.671c12.565-23.521,32.405-4.752,32.405-4.752
		c1.416-150.442-251.472,7.128-327.539,188.558c-76.28,181.605-181.134,234.654-181.134,234.654s15.125,13.306,86.587,10.273
		c0,0,9.713,22.252,55.756,41.354c0,0,240.236,348.502-339.776,39.529c-4.639-2.553-9.206-5.076-13.516-8.107
		c-99.123-70.512-273.061-326.762-335.202-488.315c-18.917-49.1-45.736-80.235-74.191-99.599
		c-67.521-46.252-144.064-27.323-144.064-27.323l8.736,1.567c27.766,6.212,114.711,32.588,148.655,127.902
		c40.699,114.215,30.513,340.278,248.796,548.381c218.438,208.286,518.713,604.467,529.646,777.924h0.318
		c32.262,6.031,71.475,25.256,50.65,85.162c0,0-21.418,156.121-297.179,298.168c0,0,0,0.024-0.034,0.024l-0.385-0.209
		c-3.652,1.81-7.041,3.89-10.668,5.759c-2.49,1.256-4.986,2.586-7.511,3.809c-1.13,0.476-2.229,1.127-3.175,1.572
		c-13.672,6.867-27.989,13.367-42.93,20.051l6.064,1.093l0.174,0.034c-42.388,25.604-81.799,54.148-119.645,86.468
		c-53.283,46.957-102.5,100.965-136.752,165.889c-17.699,32.231-30.325,64.309-42.293,98.377
		c-11.91,33.688-19.642,69.537-23.406,105.924c-3.531,36.416-2.264,74.016,6.388,110.143c8.283,36.086,22.696,70.363,40.901,101.701
		c18.262,31.457,41.133,59.111,64.871,85.338c12.766,12.568,23.672,25.16,38.885,37.547c14.729,11.908,30.892,22.359,48.383,29.818
		c34.658,15.83,73.071,20.494,109.688,18.269c36.691-2.972,72.1-12.656,104.768-27.326
		c101.588-46.365,181.099-133.16,221.051-235.133c78.324,20.231,161.083,20.407,238.105-1.365
		c39.683-11.139,77.701-27.803,112.396-49.332c15.206-9.387,29.579-19.902,43.452-31.017c1.217,5.701,2.409,11.437,3.539,17.263
		c1.54,13.305,4.063,26.618,4.806,39.924c4.367,53.166,1.275,107.285-15.77,155.756c-1.659,6.302-4.125,12.15-7.216,17.675
		l-8.353,17.143c-6.354,10.807-14.047,20.791-21.502,30.893c-9.416,8.201-17.135,18.527-27.745,25.396l-15.798,10.547l-7.905,5.347
		l-8.911,3.737c-46.487,21.955-101.701,29.023-156.201,24.74l-20.529-0.705l-20.47-2.916l-41.071-5.795
		c-27.213-5.34-54.182-12.381-81.416-18.502l-6.928,23.019c27.479,7.694,54.771,16.311,82.605,23.202l42.39,8.23l21.271,4.037
		l21.711,1.897c57.32,7.223,118.573,3.568,175.541-19.721L2500.682,3594.242z M1948.2,3519.806
		c-29.759,12.182-61.218,19.518-92.405,21.057c-31.13,0.838-62.144-4.123-89.086-17.611c-27.89-12.405-48.147-34.133-70.722-59.227
		c-21.021-24.863-40.897-50.584-55.952-78.599c-30.447-55.743-43.697-118.393-34.428-180.646
		c8.017-61.873,33.258-124.104,64.658-179.709c59.617-101.822,223.225-191.916,337.434-247.695
		c-3.212,4.132-6.538,8.173-9.688,12.357c-25.687,35.227-46.661,74.907-60.176,117.686c-13.551,42.709-18.863,88.313-16.162,132.563
		c0.978,21.057,4.104,46.543,11.916,69.746c7.777,23.053,18.441,44.555,31.338,63.949c26.166,38.526,59.645,68.881,95.965,92.075
		c30.564,19.931,63.424,34.463,97.076,45.42C2117.094,3404.205,2040.463,3481.49,1948.2,3519.806 M2496.998,3203.705
		c-29.916,15.953-61.846,27.537-94.67,34.49c-65.611,14.107-135.029,8.701-197.26-12.922
		c-61.872-21.48-118.18-61.223-146.724-110.676c-6.953-12.271-11.95-24.957-15.358-37.547c-3.213-12.656-3.834-24.595-3.633-40.877
		c0.245-30.326,5.649-59.845,16.553-87.795c10.932-27.949,26.996-54.304,46.955-78.119c10.156-11.826,20.642-23.441,32.349-33.771
		c5.672-5.354,11.678-10.313,17.613-15.006c3.418-2.764,28.192-13.99,47.38-22.631h0.113l9.957,1.723
		c-1.107,6.746-2.056,13.516-2.375,20.32c-1.108,17.934-0.211,36.199,3.68,53.936c6.742,35.854,25.22,68.59,47.855,94.219
		c22.778,25.783,50.141,45.267,77.074,60.441c27.003,15.063,53.648,26.561,78.891,38.293c50.855,22.67,95.201,47.322,125.025,84.777
		c3.803,5.104,7.307,10.447,10.607,15.945l-10.879,8.139C2526.318,3186.654,2511.943,3195.808,2496.998,3203.705"/>
	<path fill="#466870" d="M529.132,1106.187c0,0-56.234,104.998-335.379,99.919c0,0,148.542,166.337,319.96,168.862
		c0,0-138.212,43.55-263.555,43.55c0,0,240.359,191.73,404.143,148.688c-6.028,3.657-106.131,63.688-230.205,61.163
		c0,0,248.473,117.857,460.882,46.216c0,0-69.121,112.641-189.354,122.795c0,0,199.655,102.477,427.479-51.152
		c0,0-94.834,153.629-271.331,186.836c0,0,230.015,10.338,364.75-75.475c0,0-89.282,166.665-175.071,205.274
		c0,0,198.604-15.114,274.344-89.16c0,0-55.605,143.169-132.95,201.947c0,0,163.159-55.459,216.979-104.383
		c0,0,3.51,53.858-63.864,134.737c0,0,92.469-16.875,158.233-75.806c0,0,1.6,77.53-52.251,134.735c0,0,99.265-21.945,154.872-57.205
		c0,0,11.767,45.412-15.089,112.639c0,0,38.623-50.377,72.27-68.975c0,0,38.797,146.492,89.284,197.016
		c0,0-11.905-122.967,11.768-159.979c0,0,56.555,176.793,118.364,213.838c0,0-16.365-89.291,0-129.654
		c0,0,54.953,116.144,129.001,159.834c0,0-11.758-89.146,11.741-136.312c0,0,16.836,85.787,69.082,106.132
		c0,0-10.458-173.703,48.983-171.658c-10.937-173.465-315.388-526.217-533.802-734.502
		c-218.26-208.103-208.093-434.162-248.76-548.381c-34.01-95.314-120.89-121.689-148.693-127.869l-8.736-1.572
		c0,0-79.275-167.941-200.967-252.448C869.558,581.477,797.913,486.633,792.834,422.63c0,0-30.648,99.742-0.174,176.494
		c-9.033-4.602-295.16-154.759-355.664-242.918c0,0,35.902,204.776,161.224,342.984c0,0-335.347-122.945-424.959-225.262
		c0,0-28.098,130.602,245.768,386.495c0,0-230.354-2.561-301.968-25.579C117.058,834.845,296.254,1083.16,529.132,1106.187"/>
	<path fill="#466870" d="M2471.896,2723.379c-32.912,22.806-53.109,37.724-65.111,51.408l98.769,67.758l73.247-49.01
		l-58.398-104.731C2503.35,2701.277,2487.256,2712.828,2471.896,2723.379"/>
	<path fill="#466870" d="M2677.744,2521.123c-33.859,52.849-70.369,92.738-105.689,124.904l143.881,83.617l56.471-71.35
		L2677.744,2521.123z"/>
	<path fill="#466870" d="M2658.431,2877.711l38.972,55.041l21.981-95.969l-16.571-2.412l-100.015-16.836l-73.24,49.01
		l20.611,152.882l116.756-60.267c0,0-51.559,10.635-62.846-0.27c-13.574-13.156-2.113-57.836,12.469-74.646
		C2631.284,2867.287,2645.843,2868.896,2658.431,2877.711"/>
	<path fill="#466870" d="M2882.904,2756.966l27.409,71.229l2.733-132.77l-115.278-16.957l-58.843,64.395l20.651,152.916
		l98.638-73.159c0,0-35.199-0.209-46.486-11.138c-13.604-13.157-0.384-34.104,14.205-50.918
		C2846.065,2737.398,2866.892,2744.107,2882.904,2756.966"/>
	<path fill="#466870" d="M2873.722,1584.38c-90.981,89.254-175.697,197.909-218.439,255.265
		c77.083,142.813,128.051,285.001,85.637,457.521c36.211,25.248,51.623,60.063,51.623,60.063
		c28.455-21.928,50.375-72.303,50.375-72.303c7.752,20.647,0,47.824,0,47.824c33.66-18.095,73.552-85.306,73.552-85.306
		c4.922,24.619-16.039,56.996-16.039,56.996c71.019-42.202,110.071-97.516,110.071-97.516c10.02,25.1-12.051,58.455-12.051,58.455
		c51.32-5.879,103.362-116.757,103.362-116.757c19.101,13.07,18.146,35.104,18.146,35.104
		c38.11-29.047,66.239-151.549,66.239-151.549c14.14,13.969,13.192,75.299,13.192,75.299c40.039-48.295,24-141.713,24-141.713
		c24.113,0,55.754,38.291,55.754,38.291c22.393-65.736-19.399-153.927-19.399-153.927c95.646,0,155.552-41.944,155.552-41.944
		c-46.392,3.038-115.188-25.417-115.188-25.417c83.703-13.489,174.92-58.313,174.92-58.313
		c-38.966,3.03-79.302-28.423-79.302-28.423c127.101-35.913,255.771-164.409,255.771-164.409
		c-35.909,11.912-67.335,6.032-67.335,6.032c58.303-17.944,188.41-195.896,188.41-195.896
		c-27.03,28.458-76.249,22.427-76.249,22.427c68.764-59.765,85.125-162.979,85.125-162.979
		c-23.847,56.851-113.58,77.822-113.58,77.822c134.55-183.954,137.58-381.274,137.58-381.274
		c-30.501,89.76-102.949,135.989-107.553,138.866c134.381-219.717,29.851-470.888,29.851-470.888
		c-3.003,180.95-115.154,303.6-115.154,303.6C3630.527,716.84,3506.46,559.89,3506.46,559.89c0.357,5.072,0.804,10.004,1.095,14.938
		c19.399,262.568-69.857,325.966-69.857,325.966c0-89.772-95.795-176.476-95.795-176.476
		c31.459,222.691-171.413,425.563-171.413,425.563l-1.28,0.62l-2.879,1.607c-9.538,6.179-35.076,28.752-71.471,105.625
		C3047.363,1357.825,3024.645,1435.982,2873.722,1584.38"/>
</g>
</svg>
