<?xml version="1.0" encoding="utf-8"?>
<!-- Generator: Adobe Illustrator 16.0.0, SVG Export Plug-In . SVG Version: 6.00 Build 0)  -->
<!DOCTYPE svg PUBLIC "-//W3C//DTD SVG 1.1//EN" "http://www.w3.org/Graphics/SVG/1.1/DTD/svg11.dtd">
<svg version="1.1" id="Layer_1" xmlns="http://www.w3.org/2000/svg" xmlns:xlink="http://www.w3.org/1999/xlink" x="0px" y="0px"
	 width="4000px" height="4000px" viewBox="0 0 4000 4000" enable-background="new 0 0 4000 4000" xml:space="preserve">
<g>
	<path fill="#664140" d="M1054.346,1867.953c-0.743,6.19-1.238,9.438-1.238,9.438s-263.246-88.567-302.662-153.832
		c-39.704-64.986-88.331-146.128-148.583-197.732c3.951,0.979,36.692,9.188,71.682,9.188c0,0,27.789-95.509-25.811-135.231
		c-53.331-39.43-83.871-137.434-83.871-137.434s39.722,51.35,79.385,56.075c39.466,4.437-9.388-202.721-9.388-237.688
		c0,0,2.952-6.455,8.904-15.629c15.398-23.558,51.112-65.736,108.179-64.5c4.436,0,8.665,0.255,13.4,1.003
		c0,0,72.186,114.094,81.367,163.001c0,0,11.646-18.631,41.91-62.762c0,0,4.727,172.166,9.45,207.157
		c0,0,51.104-53.344,51.104-94.785c1.247,19.605,11.169,128.776,82.853,138.429
		C998.789,1523.092,1023.606,1788.823,1054.346,1867.953"/>
	<path fill="#664140" d="M2118.705,2723.638c-84.586,17.101-192.782,72.162-192.782,72.162
		c-46.36-93.021-194.744,51.874-201.677,58.807c22.311-53.813-36.477-37.451-64.276-12.882
		c-28.007,24.563-80.387,167.447-80.387,167.447c-80.597-77.179-113.348,146.117-113.348,146.117
		c-25.571-33.247-53.834-64.003-82.159-91.555c-53.568-52.078-107.146-92.759-141.661-117.085
		c-23.8-16.866-38.673-26.045-38.673-26.045s39.195-144.649,45.893-190.513c6.478-45.926-9.924-35.99-55.828-40.945
		c-45.872-4.979-72.176-68.975-72.176-68.975c27.768,18.101,98.47,8.183,152.572,11.408c54.094,3.207,67.227-59.04,36.207-70.467
		c-31.254-11.646-70.698-50.846-70.698-50.846c23.075,4.705,105.185,0,131.241,3.229c26.304,3.203,121.547-80.387,294-105.172
		c69.233-9.965,150.584-3.25,223.293,7.92c95.006,51.823,204.164,130.975,203.927,207.391
		C2091.904,2665.584,2104.076,2698.834,2118.705,2723.638"/>
	<path fill="#664140" d="M1146.648,3277.125c17.361,34.729,48.626,119.82-10.45,205.17c0,0-19.093-92.319-64.223-100.986
		c-45.142-8.672-72.931-50.371-76.416-76.396c-3.476-26.063-29.513-65.986-52.123-27.785
		c-22.549,38.179-15.618,118.09-69.455,133.98c-54.083,15.58-47.141,95.48-47.141,95.48s-69.434-62.511-60.779-137.431
		c8.676-74.691-33.007-72.94,0-100.764c33-27.728,74.692-79.87,27.789-85.06c-46.882-5.189-187.542,24.306-217.076-10.398
		c-29.513-34.749-102.71-41.71-130.499-13.923c0,0,26.067-83.349,99.234-104.445c72.947-20.817,31.265-64.245,85.101-57.312
		c53.835,6.961,97.253,81.893,144.127,78.407c46.933-3.479,59.063-57.577,27.779-78.407
		c-31.247-20.827-109.365-29.51-107.642-64.263c1.753-34.729-97.263-43.407-97.263-43.407s132.015-43.396,201.448-19.098
		c69.464,24.305,78.405-17.379,94.033,34.717c15.62,52.108-34.979,104.225,52.084,95.55c62.023-6.224,173.668-21.345,247.608-29.279
		c34.485,24.295,88.081,64.983,141.691,117.082c-43.942,2.483-195.279,14.896-227.783,65.269
		C1068.477,3212.861,1129.285,3242.391,1146.648,3277.125"/>
	<path fill="#664140" d="M727.123,753.776c-43.17,67.956-16.619,157.784-0.98,197.207c-57.063-1.219-92.795,40.951-108.175,64.524
		c-14.381-5.447-38.199-4.707-50.855,48.13c-19.114,79.138-11.409,61.775-78.14,134.184
		c-66.75,72.225-171.461-24.762-171.461-24.762s142.928,13.133,112.404-28.797c-30.542-41.684,13.39-64.74,30.521-93.282
		c17.105-28.551,30.513-85.843,59.037-173.433c28.521-87.559-20.836-45.64-20.836-45.64
		c-83.864,13.386-28.772-85.813-104.959-63.012c-76.169,23.094-112.386-43.679-112.386-43.679
		c24.796,11.398,116.1,7.46,142.929-40.187c26.789-47.638,104.669-26.54,137.195-32.236c32.463-5.697-24.829-108.683-34.269-148.582
		c-9.685-40.209,53.36-21.14,59.055-59.077c5.703-38.174-72.424-82.127-72.424-82.127c106.65-11.411,146.612,80.139,146.612,80.139
		c28.771,0,53.578,32.263,45.873,78.147c-7.676,45.653,11.438,87.587,57.076,34.244c45.91-53.336,49.625-39.938,95.263-57.07
		c45.904-17.111,45.904-78.141,45.904-78.141c32.265,36.237,32.265,114.375,32.265,114.375
		C965.302,633.7,784.434,664.206,727.123,753.776"/>
	<path fill="#664140" d="M3460.877,1703.704c3.238-4.952,23.323-38.941,88.576-209.877c71.723-187.814-19.59-348.567-133.47-286.788
		c-113.869,61.768-74.187,98.974-49.369,111.387c24.55,12.161,56.808-84.114,103.71,22.056
		c47.123,106.442-190.308,391.012-234.941,556.5c-44.398,165.729,64.244,489.72,64.244,489.72
		c-24.541-22.055-61.789-17.102-61.789-17.102c86.597,64.254,123.823,175.632-29.514,284.314
		c-153.554,108.912-279.596-108.684-381.049-244.866c-101.492-135.961-502.646-369.902-502.646-369.902
		c-70.938-194.299-225.998-911.008-93.033-1080.971c94.501-121.062,217.344-217.812,310.853-351.283h0.248
		c37.689-54.092,70.691-114.138,95.263-184.573c0,0-147.366,140.929-272.627,188.524c-295.74,112.658-385.308,263.26-385.308,263.26
		c4.208-54.578-45.905-149.625-45.905-149.625c84.627-20.073,216.84-87.566,185.078-103.18
		c-25.064-12.414-36.454-10.687-40.188-9.43c140.928-75.934,140.928-137.194,123.537-134.243
		c-16.133,2.485-43.676,14.162-47.133,15.396c47.133-74.434,84.618-114.63,98.987-134.685
		c14.145-20.137,48.657-83.374-23.055-73.225c-70.215,9.683-226.259,66.242-233.981,68.731c1.256-3.729,12.668-33.006,54.361-78.881
		c44.655-48.626,0-34.492-96.275-2.753c-96.241,31.494-301.414,257.032-328.718,234.209
		c-27.295-23.051-92.023-28.795-185.324-28.795c-93.521,0-143.632,47.397-165.202,77.417
		c-21.622,30.279-89.096,30.279-122.103,63.281c-32.978,32.987,12.924,239.884,44.399,109.168
		c31.76-130.755,252.838,109.137,252.838,109.137s-31.524,35.978-104.721,51.602c-73.428,15.873-123.537-42.933-106.413,0
		c17.37,43.186,140.688,91.305,140.688,91.305c-112.651,37.205-209.144,202.945-209.144,202.945
		c47.625,5.956-37.744,65.991-37.744,65.991c-25.54,24.784-42.644,71.442-53.31,129.011
		c-32.267,170.441-7.459,436.146,23.321,515.275c5.694,14.388,11.392,22.578,17.105,23.086
		c47.862,4.208,125.785,181.833,79.12,177.632c-46.379-3.967-232.2,6.957-232.2,6.957s0,0.24,0.269,0.478
		c14.874,49.608-6.983,108.666-23.85,142.922c-8.675,17.852-15.875,29.025-15.875,29.025s58.313-19.61,259.029,34.476
		c200.446,53.833,301.682-96.04,349.298-95.026c19.876,0.517,39.962-30.5,74.93,26.037
		c32.484,53.103,95.767,104.215,103.474,110.187c-26.551-31.017-1.485-60.312-1.485-60.312
		c28.254,43.405,39.178,19.607,132.479,58.808c24.78,10.409,57.293,25.55,91.538,44.397
		c95.025,51.832,204.143,131.006,203.925,207.422c-0.256,41.898,11.915,75.188,26.552,99.993
		c21.552,37.197,48.864,55.81,48.864,55.81c112.147,125.033,54.599,248.816,54.599,248.816
		c-58.551,57.321-125.063,139.685-129.055,144.919c55.867-49.131,146.414-34.75,146.414-34.75
		c0,57.304,98.979,129.011,98.979,129.011c-17.619-62.28,9.43-114.882,9.43-114.882s61.035,50.632,153.556,68.984
		c31.521,6.455,66.995,8.941,104.708,4.444c50.353-5.936,87.56,5.474,114.854,23.345c53.358,34.489,68.76,93.021,68.76,93.021
		c57.294-117.82-55.835-398.429-110.157-545.309c-54.123-146.623-10.694-274.123-10.694-274.123
		c64.272,37.187,69.216,185.583,247.097,291.988c178.143,106.193,346.314-14.898,442.886-138.679
		c96.47-123.541,24.811-311.61-24.838-499.668c-49.331-187.811-34.477-294.241,54.596-363.438
		c89.055-69.217,116.103-173.167,116.103-173.167C3540.283,1646.152,3466.838,1699.477,3460.877,1703.704 M1569.184,679.586
		c-10.429-1.726-103.215-8.667-132.729-50.617c0,0,134.451-8.678,160.775,0C1623.287,637.669,1579.612,681.309,1569.184,679.586"/>
	<path fill="#664140" d="M2883.567,3773.573c0,0-21.619-58.322-71.228-84.361c-49.605-25.811-62.521-30.268-66.986-75.433
		c-4.211-45.382-49.271-19-79.525,15.483c-30.258,34.479-11.509,29.812-30.859,92.574c-19.371,62.541-66.491,81.988-47.17,200.563
		c0,0-103.683-56.084-97.244-153.326c6.458-97.017,54.094-105.673,23.818-116.585c-30.254-10.656-116.596,56.3-142.401,54.086
		c-26.028-2.232-43.409,45.419-97.254,12.89c-54.074-32.507-121.091,47.651-121.091,47.651s23.836-127.54,93.054-136.193
		c68.978-8.729,28.034-32.267,81.882-36.763c54.093-4.21,144.87-12.866,95.025-43.172c-49.608-30.238-127.271-4.187-127.271-47.358
		c0-43.166-88.578-64.743-88.578-64.743s140.436-80.146,179.364-2.235c38.723,77.626,77.664,90.521,94.768,66.979
		c17.371-23.828,66.998-257.025,66.998-257.025l2.218-0.241c31.524,6.444,67.019,8.925,104.711,4.451
		c50.368-5.954,87.567,5.437,114.86,23.342l0.745,2.716c0,0-56.076,215.827,36.711,271.922
		C2900.907,3605.092,2883.567,3773.573,2883.567,3773.573"/>
	<path fill="#664140" d="M896.177,2555.668c0,0-3.714-98.977-51.372-98.977c-47.607,0-164.736-152.6-198.952-163.507
		c-34.257-10.902-55.065,47.626-98.979,91.537c-43.932,43.913-48.892,0-87.824,12.153c-39.209,12.172-52.616,67.224-52.616,67.224
		c-26.79-59.79,10.901-107.414,10.901-107.414c-2.465-56.317,139.187-106.193,153.862-125.774
		c14.856-19.602-97.53-40.449-152.593-37.961c-54.826,2.486-25.571-41.404-64.75-43.91c-38.939-2.494-92.795,30.512-92.795,30.512
		c19.606-97.76,121.069-111.115,121.069-111.115s98.74-38.973,132.968,2.484c34.246,41.396,63.501,50.08,96.499,31.729
		c33.009-18.341-35.462-76.912-45.151-103.719c-9.92-27.037,12.153-46.38,12.153-73.417c0-26.788-54.808-102.46-54.808-102.46
		c68.215,2.484,120.813,62.253,134.214,70.703c13.408,8.684,61.034,20.814,37.731,69.696
		c-23.096,48.887,6.675,104.475,24.303,142.188c17.848,37.694,204.43-5.211,204.43-5.211s0,0.24,0.238,0.477
		c14.887,49.637-6.962,108.687-23.838,142.91c-71.424,7.687-38.664,70.709,13.657,98.253c53.619,28.018,13.431,4.724,31.513,75.654
		C964.393,2488.426,896.177,2555.668,896.177,2555.668"/>
	<path fill="#664140" d="M3208.83,924.701c93.043,0,298.475-106.943,298.475-106.943
		c-87.33,163.263-487.039,456.259-487.039,456.259c67.473,25.323,213.877,0,213.877,0
		c-92.787,134.926-422.257,306.637-422.257,306.637c132.224,19.847,374.346-13.878,374.346-13.878
		c-140.642,163.242-531.894,213.602-531.894,213.602c81.617,42.181,281.332,42.678,281.332,42.678
		c-84.339,65.009-337.632,98.254-337.632,98.254c47.862,33.965,84.339,39.415,84.339,39.415
		c-39.466,30.264-186.078,55.081-278.863,68.243c-15.889-9.693-29.02-17.608-38.438-23.062
		c-83.636-243.651-199.477-883.462-94.787-1017.445c40.428-51.59,86.081-98.489,134.223-148.369
		c55.313-56.796,112.396-115.613,163.25-184.063h0.476l14.896-20.858c16.896-24.326,32.267-48.61,45.886-73.438
		c191.298-128.27,456.019-450.512,456.019-450.512c-31.018,140.661-301.208,495.434-301.208,495.434
		c98.521-14.147,275.905-233.723,275.905-233.723c-11.15,92.798-103.958,196.014-109.664,202.469
		c163.5-56.568,585.271-444.353,585.271-444.353c0,253.294-213.856,455.998-213.856,455.998
		c118.328,0,312.587-225.254,312.587-225.254C3560.851,592.505,3208.83,924.701,3208.83,924.701"/>
</g>
</svg>
