<?xml version="1.0" encoding="utf-8"?>
<!-- Generator: Adobe Illustrator 16.0.0, SVG Export Plug-In . SVG Version: 6.00 Build 0)  -->
<!DOCTYPE svg PUBLIC "-//W3C//DTD SVG 1.1//EN" "http://www.w3.org/Graphics/SVG/1.1/DTD/svg11.dtd">
<svg version="1.1" id="Layer_1" xmlns="http://www.w3.org/2000/svg" xmlns:xlink="http://www.w3.org/1999/xlink" x="0px" y="0px"
	 width="4000px" height="4000px" viewBox="0 0 4000 4000" enable-background="new 0 0 4000 4000" xml:space="preserve">
<g>
	<path fill="#664157" d="M1424.818,3057.076c0,0-147.306,261.978-539.131,47.621c-391.899-214.369-303.23-666.831-303.23-666.831
		l134.284,127.647C859.668,2749.691,1424.818,3057.076,1424.818,3057.076"/>
	<path fill="#664157" d="M3285.677,2612.205c0,0-80.229,21.951-189.617,200.674c-341.308,557.439-898.567,322.547-898.567,322.547
		c229.823-344.676,775.318-496.521,792.359-501.12c0.168-0.147,0.348-0.147,0.348-0.147L3285.677,2612.205z"/>
	<path fill="#664157" d="M2271.799,1900.757c-32.682-15.848-64.267-28.201-95.301-37.64c-30.771-11.16-61.082-19.181-90.846-25.872
		c-14.811-3.857-29.607-6.613-44.289-9.796c-14.813-2.348-29.412-5.36-43.807-8.235c-28.965-5.652-57.988-9.29-86.57-13.652
		l-86.383-10.415c-57.03-8.349-115.128-17.787-168.521-38.799c-107.974-40.559-202.482-104.813-292.65-179.131
		c-89.943-75.339-175.104-163.776-260.377-270.705l-0.932-1.171c-2.252-2.813-5.533-4.737-9.387-5.233
		c-7.781-0.961-14.891,4.618-15.843,12.421c-8.981,73.97,4.667,145.318,25.842,215.034c22.416,69.194,56.912,134.766,99.627,195.266
		c85.778,121.901,211.545,211.663,343.269,279.103c131.736,66.714,273.065,128.491,419.83,132.728
		c36.5,2.459,72.672-1.132,108.773-3.976c35.945-4.362,71.463-13.146,106.445-23.463c34.736-12.205,68.897-27.034,101.917-46.124
		c32.772-20.652,64.661-43.916,94.401-75.671c0.496-0.512,1.021-1.121,1.429-1.734c5.7-7.897,3.926-18.896-3.963-24.615
		l-0.477-0.296C2338.209,1932.905,2304.594,1915.498,2271.799,1900.757"/>
	<path fill="#664157" d="M963.595,1306.74c1.772,2.149,4.123,3.841,6.966,4.757c7.899,2.589,16.358-1.708,18.935-9.595l0.358-0.941
		c13.459-41.133,20.212-79.869,25.504-117.834c1.885-18.918,4.828-37.655,7.496-56.09c2.479-18.39,4.45-36.589,5.757-54.642
		c5.563-72.146,11.6-140.101,15.256-205.787c7.376-64.196,13.315-125.17,28.779-180.752c2.23-6.752,3.539-14.375,5.602-21.484
		c2.655-6.343,5.383-12.875,7.7-20.03l3.688-10.707c1.658-3.115,3.358-6.226,4.867-9.617c3.264-6.521,6.107-14.227,10.121-20.528
		c14.46-27.626,36.342-53.888,65.456-79.064l3.182-2.759c1.826-1.573,3.282-3.666,4.104-6.173
		c2.479-7.396-1.537-15.396-8.941-17.868c-45.313-15.074-94.174-8.624-138.062,10.927c-11.378,4.439-20.924,11.129-31.702,17.04
		c-5.313,3.042-10.406,6.361-15.611,9.724l-13.829,11.274c-9.3,7.58-18.24,15.779-27.243,24.158
		c-7.959,8.71-15.594,17.642-22.868,27.09c-58.944,75.654-83.488,164.845-92.846,249.281c-5.7,84.174,2.558,166.865,25.687,243.851
		C874.446,1168.373,909.965,1241.108,963.595,1306.74"/>
	<path fill="#664157" d="M2954.452,661.164c2.181,4.886,8.229,13.242,12.608,20.251c4.856,6.947,9.149,15.084,13.581,22.601
		c8.155,15.764,16.885,30.701,23.368,47.049c14.787,31.214,24.346,64.155,32.563,95.979c14.313,64.789,17.565,129.217,9.188,194.135
		c-1.559,16.117-5.465,32.615-7.853,48.701c-1.563,8.112-2.082,16.063-4.382,24.199c-2.439,8.119-4.601,16.258-6.643,24.417
		c-4.589,16.309-7.267,32.396-13.016,48.605c-6.087,16.225-11.874,32.364-17.139,48.62c-2.838,8.118-4.979,16.257-8.375,24.328
		l-10.784,24.16c-7.298,16.108-14.247,32.215-20.752,48.481c-6.47,16.753-14.481,28.503-21.329,43.046
		c-7.547,13.448-16.063,25.801-23.495,38.916c-16.961,24.038-34.11,47.505-54.552,66.658
		c-19.113,20.567-40.821,38.063-64.502,53.321c-46.953,30.81-101.553,55.614-164.472,75.716
		c-62.75,20.431-133.181,35.3-208.7,47.808c-75.695,12.45-156.088,22.364-243.491,35.193l-0.98,0.147
		c-3.043,0.409-5.938,1.848-8.27,4.163c-5.77,5.771-5.77,15.07-0.021,20.856c32.941,33.06,69.401,59.501,108.241,82.243
		c38.71,22.886,79.721,41.684,122.506,56.877c85.562,30.169,178.78,45.542,276.298,40.675
		c96.979-5.094,199.397-32.517,290.097-87.88c91.594-53.71,168.104-133.359,222.831-220.185
		c13.01-21.862,25.677-44.177,36.682-66.757c9.675-22.424,21.77-46.159,28.964-67.628c7.814-21.643,15.238-43.428,22.246-65.285
		l10.704-32.708c3.303-11.058,5.551-22.788,8.376-34.107c5.464-22.838,10.39-45.776,15.009-68.667
		c4.52-22.988,6.02-47.444,8.933-70.979c3.021-23.582,4.697-47.332,3.756-71.915c-0.623-24.399,0.27-48.318-2.081-72.715
		c-8.158-97.316-37.928-195.146-88.295-279.001c-13.622-20.48-27.07-40.753-42.08-59.716c-15.812-18.527-31.209-36.82-49.08-53.074
		c-17.149-16.636-35.867-31.706-55.494-45.343c-10.082-6.681-19.605-13.411-30.344-19.449c-10.627-6.603-20.27-11.155-34.497-18.163
		c-14.413-6.968-31.939-7.878-47.691-0.792c-28.203,12.71-40.761,45.868-28.034,74.068L2954.452,661.164z"/>
	<path fill="#664157" d="M1556.729,645.778c2.272,42.901,7.874,84.628,20.61,124.18l9.1,29.402
		c3.42,9.666,7.83,19.074,11.727,28.461c7.236,18.844,17.965,36.728,28.034,54.125c2.082,3.57,5.77,6.254,10.132,6.901
		c7.73,1.1,14.869-4.216,15.988-11.899l0.081-0.64c11.321-77.762,25.13-148.827,46.968-212.507
		c21.402-63.772,51.856-117.76,89.595-160.879c37.442-43.313,82.991-78.076,139.071-101.469
		c55.175-24.03,116.211-41.417,182.209-49.981c65.935-11.994,127.602-11.401,188.536-8.787c14.979,1.678,29.345,5.048,44.115,7.228
		c7.337,1.15,14.921,1.745,22.177,3.183l21.065,6.158c28.993,6.344,55.167,19.183,82.795,30.025
		c52.765,26.359,102.172,63.584,145.274,110.414c11.192,11.365,20.389,24.533,33.098,35.407
		c11.144,12.031,23.971,23.434,37.688,34.903c27.729,23.08,58.389,46.106,102.324,69.279l2.063,1.064
		c0.397,0.188,0.735,0.358,1.119,0.527c8.713,3.794,18.886-0.181,22.653-8.916c21.082-48.503,21.044-94.49,13.349-137.749
		c-8.236-43.224-26.781-83.177-51.992-118.679c-49.08-71.771-112.908-137.565-190.636-186.646
		c-78.024-48.569-167.097-78.244-256.53-91.138c-44.152-2.451-89.804-9.479-132.757-3.785l-65.206,5.003
		c-21.453,2.132-41.705,7.478-62.562,11.202c-82.597,14.444-166.421,44.482-245.208,87.941
		c-19.372,12.209-39.098,22.957-57.615,36.677l-53.929,43.811c-16.632,16.538-32.523,33.927-48.046,51.257
		c-14.692,18.199-27.597,38.083-40.367,57.538C1573.316,467.947,1552.895,560.326,1556.729,645.778"/>
	<path fill="#664157" d="M2741.709,3629.664c0,0-54.803,6.342-94.205,29.467l-53.885-20.756l-41.068-15.89l-39.713-18.58
		c-26.359-12.601-53.084-24.655-79.248-37.681c-103.162-54.917-200.736-119.681-289.677-195.188
		c-25.696-21.868-50.239-45.016-74.122-68.816c-5.295-21.504-17.385-78.188-7.793-113.354c0,0-81.313-23.853-136.006-55.156
		c-74.038-102.085-135.282-214.034-181.349-332.693c-16.763-42.874-31.095-86.729-44.189-131.053
		c14.501-31.571,40.365-79.936,75.167-112.184c0,0-70.512-27.004-115.772-58.15c-2.5-13.855-5.49-27.595-7.694-41.515
		c-9.904-58.696-15.968-118.075-19.626-177.514c-3.399-58.976-4.312-120.195-0.138-176.758l-78.67-9.203
		c-7.325,65.071-8.407,126.295-7.356,189.301c1.438,62.545,5.434,125.095,13.481,187.198
		c14.801,124.371,42.708,247.566,84.063,366.773c22.761,66.129,50.409,130.834,81.819,193.816
		c-47.669,83.354-200.293-7.146-200.293-7.146c436.998,283.702,546.814,652.078,546.814,652.078
		c60.021-13.699,211.354,5.98,283.365,16.707c2.158,1.301,4.23,2.687,6.395,3.943c27.847,15.277,56.283,29.531,84.527,44.303
		l42.479,21.808l43.668,18.937l87.551,37.607l89.564,31.633c217.718,26.664,108.697,64.467,358.343,82.734l10.272-191.164
		c-231.539-8-96.521-2.598-300.702-42.054C2771.615,3697.252,2737.69,3673.618,2741.709,3629.664"/>
	<path fill="#664157" d="M1444.327,2983.531c-101.847,6.501-727.586-418.034-727.586-418.034l-134.284-127.629
		c0,0,97.437-28.271,225.236-28.271C1595.849,2409.597,1444.327,2983.531,1444.327,2983.531"/>
	<path fill="#664157" d="M3285.677,2612.205l-295.479,21.951c0,0-0.18,0-0.348,0.148C2344.818,2769.327,2140.431,3101,2140.431,3101
		c-43.697-83.916-87.423-350.108,105.89-521.625c193.306-171.365,660.119-215.074,780.384-123.942
		C3147.14,2546.531,3285.677,2612.205,3285.677,2612.205"/>
	<path fill="#664157" d="M1127.071,931.101c1.614,24.128,4.282,48.239,6.572,72.448c1.271,12.093,2.499,24.195,4.433,36.242
		l7.742,35.895c6.008,23.76,10.627,47.95,18.338,71.265c30.524,93.748,79.385,181.07,141.225,255.591
		c62.241,74.405,137.254,134.389,215.321,183.965c78.412,49.062,160.927,89.297,249.68,109.317
		c87.985,19.265,182.917,23.02,269.812-10.496c2.736-1.069,5.178-2.917,6.941-5.474c4.678-6.849,2.943-16.134-3.866-20.804
		l-0.703-0.455c-72.752-49.927-132.438-95.523-190.163-142.236c-57.09-46.221-112.137-91.052-157.141-144.143
		c-45.324-52.41-82.458-108.561-113.029-165.003c-28.659-57.695-53.58-113.849-73.783-172.379
		c-37.232-116.034-61.222-250.611-49.753-378.452c5.771-64.709,20.154-130.583,45.817-197.832
		c6.167-17.01,14.275-33.062,21.392-50.575c8.654-16.094,16.249-34.021,26.162-50.299c18.17-34.169,40.534-67.755,65-100.847
		l1.299-1.795c2.169-2.875,3.171-6.599,2.559-10.456c-1.173-7.642-8.359-12.869-16.021-11.657
		c-178.146,27.831-334.099,166.886-412.769,345.08c-41.178,88.914-58.964,186.278-63.731,281.441
		C1127.855,883.224,1127.11,907.116,1127.071,931.101"/>
	<path fill="#664157" d="M2832.056,873.045c1.497,9.15,2.108,17.555,2.974,25.947c1.271,8.241,2.587,16.36,4.429,24.31
		c2.161,8.106,1.17,15.249,2.014,22.762c0.169,7.275,1.607,14.958,1.054,21.74c-2.705,12.875-1.2,26.743-6.701,37.233
		c-2.159,5.468-2.54,11.27-5.266,16.396c-3.064,5.044-5.868,10.03-8.308,15.096c-1.606,5.175-6.932,9.825-10.521,14.71
		c-4.279,4.788-6.649,9.837-11.825,14.604c-5.263,4.788-10.199,9.733-15.057,14.63l-7.324,7.438l-9.34,7.096
		c-47.912,38.416-111.729,74.237-177.811,108.565c-67.588,33.66-136.601,67.777-207.826,101.099l-26.526,12.599l-23.107,10.348
		c-15.097,7.366-30.254,12.369-45.431,17.734c-30.313,9.428-60.548,17.546-90.396,19.459
		c-59.745,6.542-118.642-4.619-177.521-32.416c-58.785-27.699-115.33-73.087-167.039-127.026
		c-52.08-53.817-99.646-116.756-143.817-183.091l-0.554-0.844c-2.707-4.093-7.564-6.543-12.758-6.01
		c-7.547,0.787-13.017,7.536-12.213,15.059c8.672,84.058,34.746,164.21,73.069,241.681c38.947,76.738,93.28,150.661,169.812,208.063
		c38.024,28.671,81.573,52.412,128.641,69.056c47.048,17.061,97.652,24.615,147.326,25.777
		c50.041,1.375,98.807-5.694,145.225-17.214c22.992-6.092,46.086-12.317,67.688-20.777l32.366-11.902l28.073-11.816
		c74.863-30.702,149.785-65.267,223.807-104.94c37.057-21.352,74.17-42.062,110.49-68.391c18.21-11.668,36.411-26.844,54.432-41.09
		c17.935-13.499,35.291-31.741,52.479-48.861l12.812-12.951l12.261-15.162l23.871-30.845c7.702-10.374,13.959-23.633,20.708-35.424
		c6.322-12.348,13.62-23.591,17.685-37.746c4.699-13.57,9.13-27.151,13.265-40.722c3.787-13.622,4.718-28.058,6.659-42.021
		c4.938-28.514,0.271-55.011-1.269-81.805c-16.467-102.76-58.924-186.354-159.729-222.458c-0.436-0.168-0.94-0.307-1.418-0.429
		c-9.437-2.518-19.123,3.104-21.639,12.521l-0.248,1.15c-7.062,26.564-9.306,49.245-9.517,70.361
		C2829.863,835.642,2829.26,855.023,2832.056,873.045"/>
	<path fill="#664157" d="M2540.492,1159.656l-0.1,0.318c-0.961,3.591-0.534,7.545,1.477,11.033
		c4.005,6.901,12.84,9.223,19.728,5.228c70.631-41.081,128.563-100.459,167.403-178.697c19.744-38.498,32.623-83.741,35.43-131.621
		c3.261-47.862-6.365-99.122-27.601-143.9c-21.006-45.041-52.577-82.633-87.153-111.749
		c-34.808-29.274-72.894-50.774-111.701-66.694c-77.976-31.126-158.342-43.724-239.392-34.46c-4.164,0.525-8.092,2.86-10.368,6.705
		c-4.034,6.588-1.901,15.204,4.721,19.164l0.931,0.572c65.744,39.71,128.494,77.589,181.935,118.987
		c53.291,41.454,95.74,86.729,114.894,133.677c19.239,46.439,20.629,99.159,7.988,162.89
		C2587.389,1014.772,2561.595,1082.479,2540.492,1159.656"/>
	<path fill="#664157" d="M2213.838,413.019c-59.141,5.211-115.92,20.322-171.754,42.993
		c-55.017,23.611-109.627,54.692-155.921,100.387c-23.208,22.655-44.007,48.814-61.649,77.763
		c-17.597,29.024-30.286,61.5-39.129,94.826c-9.05,33.443-12.063,68.095-11.823,101.929c-0.408,34.21,5.323,66.66,12.401,100.309
		c15.98,66.694,50.806,131.714,98.752,182.529c48.01,50.994,105.992,88.166,165.458,114.305
		c29.862,12.789,59.927,24.042,90.481,32.21c30.66,7.868,61.796,11.807,92.943,12.032c31.098,0.315,62.164-3.131,92.785-11.056
		c30.572-8.163,60.498-19.657,89.396-40.268c1.489-1.079,2.856-2.445,3.956-4.093c4.904-7.303,2.982-17.197-4.36-22.143
		l-0.845-0.559c-54.96-36.932-105.405-58.17-154.299-77.082c-48.424-19.438-96.404-30.65-140.525-49.091
		c-88.376-37.49-153.673-95.906-182.052-179.556c-29.056-87.549-23.793-178.896,33.476-257.973
		c55.712-79.834,149.814-143.433,248.908-191.361l0.934-0.456c4.885-2.354,8.047-7.598,7.552-13.335
		C2227.885,417.888,2221.311,412.343,2213.838,413.019"/>
	<path fill="#664157" d="M2194.043,787.88c-12.074-49.117-18.084-105.473-26.528-165.417l-0.188-1.269
		c-0.537-3.633-2.469-7.071-5.632-9.438c-6.305-4.671-15.245-3.331-19.924,3.012c-38.712,52.462-59.927,113.216-65.597,180.559
		c-1.98,33.593,0.149,69.479,11.617,105.712c10.887,36.159,32.081,73.107,62.93,101.6c30.683,28.824,69.343,46.825,106.359,55.458
		c37.372,7.796,72.987,7.474,106.553,2.717c66.59-10.687,124.688-37.588,174.271-78.213c2.727-2.282,4.688-5.54,5.186-9.34
		c1.1-7.979-4.521-15.309-12.521-16.333l-0.326-0.05c-62.225-8.298-118.887-9.618-168.999-17.429
		c-24.644-4.589-47.601-9.108-66.686-16.496c-18.914-7.347-33.583-16.174-45.836-26.932
		C2224.565,875.433,2205.68,837.427,2194.043,787.88"/>
	<path fill="#664157" d="M2269.025,667.012c-3.977,17.732-4.906,32.85-4.631,46.967c-0.35,14.584,1.615,27.25,4.105,39.456
		c5.212,24.173,14.146,45.172,26.309,63.402c12.152,18.221,26.576,34.497,49.535,43.469c23.077,8.88,50.467,14.058,94.582,4.885
		c8.94-1.943,16.934-8.255,20.361-17.458c15.84-42.196,14.877-70.043,9.646-94.206c-5.325-24.078-19.223-40.819-35.371-55.638
		c-16.148-14.792-35.549-26.855-58.626-35.689c-11.709-4.324-23.925-8.148-38.376-10.092c-13.907-2.43-28.967-3.807-47.146-2.599
		C2279.768,650.207,2271.264,657.077,2269.025,667.012"/>
</g>
</svg>
