<?xml version="1.0" encoding="utf-8"?>
<!-- Generator: Adobe Illustrator 16.0.0, SVG Export Plug-In . SVG Version: 6.00 Build 0)  -->
<!DOCTYPE svg PUBLIC "-//W3C//DTD SVG 1.1//EN" "http://www.w3.org/Graphics/SVG/1.1/DTD/svg11.dtd">
<svg version="1.1" id="Layer_1" xmlns="http://www.w3.org/2000/svg" xmlns:xlink="http://www.w3.org/1999/xlink" x="0px" y="0px"
	 width="4000px" height="4000px" viewBox="0 0 4000 4000" enable-background="new 0 0 4000 4000" xml:space="preserve">
<g>
	<path fill="#665C3E" d="M2254.846,3118.99c-33.281,19.376-69.681,37.305-88.823,50.545
		c-81.23,55.494-193.211,23.604-281.998,44.396c-52.203,12.044-149.048,156.362-240.708,147.388
		c-81.016-8.023-101.786,31.879-105.328,41.096c12.976-41.096-68.953-41.096-68.953-41.096s8.716-28.584-14.397-50.096
		c-23.423-21.709-46.535,23.16-69.954,52.689c-23.13,29.526-111.668,38.737-111.668,38.737s-12.317-49.596-44.892-68.269
		c-27.911-15.804-45.385,6.629-50.09,13.69l-1.167,1.897c-21.756-7.778-68.281-79.127-68.281-79.127
		c-37.1-121.634-98.253-25.514-98.253-25.514c-14.408,0-21.271-21.003-21.271-21.003l-13.888-29.524
		c-13.961-29.524,62.068-116.449,82.155-150.473c20.332-34.224,34.238,4.509,48.199,12.299c13.924,7.783,12.257-7.79,51.267-60.467
		c38.709-52.683,111.232,30.944,111.232,30.944c19.834,0,328.315-84.797,356.642-127.315
		c28.102-42.277-45.348-33.771-119.04-113.139c-73.431-79.136-93.294-141.455-93.294-183.991c0-42.278-81.941-144.325,8.487-248.95
		c70.647-81.488,460.122-50.063,628.3-32.36c2.599,6.611,4.957,13.478,7.068,20.302c45.112,138.906,47.012,275.655,45.834,328.073
		c-2.367,92.611,13.941,122.823,42.988,168.673c17.947,28.316,40.148,63.521,68.018,140.529
		c12.554,34.949,24.102,71.794,35.186,111.961l3.325,12.986C2252.746,3109.051,2253.903,3114.012,2254.846,3118.99"/>
	<path fill="#665C3E" d="M1063.7,3400.726c-38.241-48.183-53.366-108.193-53.366-108.193s61.153-96.1,98.252,25.53
		C1061.107,3345.228,1063.7,3400.726,1063.7,3400.726"/>
	<path fill="#665C3E" d="M1258.087,3574.564c-84.07-98.238-81.229-177.386-81.229-177.386l1.177-1.889
		c4.706-7.1,22.181-29.532,50.07-13.709c32.607,18.656,44.871,68.271,44.871,68.271
		C1230.695,3484.349,1256.441,3568.44,1258.087,3574.564"/>
	<path fill="#665C3E" d="M1514.377,3426c-59.737,74.631-143.832,61.406-143.832,61.406c64.694-31.658,74.869-102.527,74.869-102.527
		S1527.352,3384.879,1514.377,3426"/>
	<path fill="#665C3E" d="M1043.875,1787.5c-0.714,1.418-1.41,2.822-2.356,4.496l-14.644,17.48
		c-14.418,14.857-36.625,32.109-62.369,50.059c-25.262-40.379-97.308-152.829-145.747-195.086
		c-59.268-52.183-57.861-251.304-75.813-318.396c-17.721-66.856-129.424-92.115-148.549-120.464
		c-19.371-28.068-105.601-89.506-114.094-99.896c-8.475-10.173,27.423-47.964,27.423-47.964c9.206-26.224-73.47-26.224-73.47-26.224
		c-11.316-9.438-18.419-68.718-18.419-68.718c29.984-63.525-48.423-61.173-48.423-61.173
		c-18.667-72.755,22.438-110.06,22.438-125.903c0-10.154,20.77-13.71,43.672-21.021h0.253c12.755-4.005,26.006-9.203,36.594-17.012
		c28.619-21.015-15.804-46.505-20.271-48.881l-0.278-0.246c52.207-77.46,174.097-36.146,218.041,5.91
		c43.931,42.028,26.692,32.594,99.454,51.715c66.563,17.49-25.037,89.782,5.878,133.708C834.39,987.514,1080,1178.114,1080,1178.114
		C1158.892,1464.631,1043.875,1787.5,1043.875,1787.5"/>
	<path fill="#665C3E" d="M423.153,757.693c-10.635,7.799-23.849,12.998-36.613,17.002h-0.229
		c-40.18-1.393-73.222,4.488-73.222,4.488c33.773-39.669,89.527-70.617,89.527-70.617l0.215,0.235
		C407.329,711.147,451.722,736.67,423.153,757.693"/>
	<path fill="#665C3E" d="M368.572,1006.406c-60.221,4.009-83.136,46.538-83.136,46.538c-5.191-66.606,34.731-107.707,34.731-107.707
		S398.596,942.875,368.572,1006.406"/>
	<path fill="#665C3E" d="M460.469,1101.364c0,0-35.886,37.782-27.413,47.944c-45.349,8.516-75.347,27.872-75.347,27.872
		c-2.103-58.325,29.297-102.062,29.297-102.062S469.686,1075.118,460.469,1101.364"/>
	<path fill="#665C3E" d="M2827.379,2612.572c-52.92-29.753-54.563-66.13-59.519-131.084c-2.144-28.103-4.729-61.622-12.532-102.276
		c-87.857-460.791-464.104-943.346-504.27-1005.459c-39.914-62.123-11.813-78.427,90.462-143.609
		c102.063-64.979,56.231-149.284,56.231-149.284c-114.085,195.324-200.759-93.274-181.176-124.947
		c19.845-31.867,147.64,30.942,147.64,30.942c-7.575-57.404,55.733-129.45-21.967-127.084
		c-77.948,2.357-105.828-54.315-105.828-54.315c21.002-15.121,58.094-1.653,124.736,26.449
		c45.784,19.139,93.032,54.325,153.52,39.91c56.651-13.455,76.732-58.792,79.107-64.458
		c-48.415,63.071-73.227,53.128-114.806,58.561c-40.362,4.969-164.621-78.641-171.934-83.855c2.355,1.194,18.412,7.586,63.051,1.447
		c49.146-6.886,68.77,8.239,144.579-3.074c123.043-18.437,127.999-97.801,127.999-97.801
		c-51.716,117.622-192.974,90.47-257.688,91.878c-64.717,1.187-157.778-45.345-157.778-45.345s40.168-23.146,88.097-1.182
		c47.715,21.968,179.748,25.736,186.361-116.448c6.381-142.419-233.354-299-380.732-340.343
		c-147.394-41.108-227.219-189.438-227.219-189.438c-4.494,128.015-83.381,22.436-83.381,22.436
		c0,134.647-95.907,110.785-95.907,110.785c8.979,59.991-306.346,496.955-443.345,666.787
		c-137.208,169.791-143.841,320.036-143.841,320.036c78.896,286.488-36.141,609.391-36.141,609.391
		c-0.693,1.409-1.427,2.823-2.36,4.477c-3.289,5.189-8.021,11.101-14.65,17.474c-14.417,14.888-36.596,32.141-62.341,50.087
		c-83.373,58.084-202.88,124.473-220.133,145.027c-25.521,30.192-65.423-28.814-97.313-35.199
		c-31.87-6.379-59.029,62.103-116.459,59.027c-57.387-3.3-79.82,180.229-79.82,180.229c16.049-25.507,67.09-14.419,94.22-6.381
		c26.978,8.046,22.239,84.549,22.239,84.549c28.816,15.843,46.982,58.125,52.418,72.991l0.946,2.826
		c0.263,0.729,0.463,1.18,0.723,1.662l-0.457-1.662c-3.112-12.279-15.854-72.739,35.646-71.093
		c57.386,1.663,60.695,57.418,60.695,57.418c44.633,33.521,74.899-22.22,145.028-51.034c70.379-28.566,91.879,40.646,91.879,40.646
		c52.901-2.138,86.226-57.166,86.226-57.166c80.276-20.075,285.308-164.883,285.308-164.883
		c-4.011,28.11-32.116,64.256-32.116,64.256c148.575-72.291,192.908-165.563,192.908-165.563c44.16,16.05,14.695,78.67,14.695,78.67
		c108.402-20.08,250.939-41.961,250.939-41.961c141.25,40.152,100.295,57.179,247.661,125.323
		c42.137,19.472,40.188,83.367,53.878,126.353c42.959,132.506,49.827,266.67,47.928,343.684
		c-3.533,144.315,38.989,99.913,108.426,292.148c11.336,31.646,23.613,69.681,36.359,115.979c1.196,4.486,2.36,8.98,3.557,13.471
		c79.348,316.476-184.017,379.082-220.128,376.974c-36.608-2.143-56.475-90.708-81.5-74.188
		c-25.026,16.764-40.612,66.832-88.827,43.944c-47.924-22.926-125.86,166.047-125.86,166.047
		c8.497-5.666,16.063-9.922,22.891-12.742c60.711-26.245,61.638,43.938,62.623,79.604c0.933,39.656,33.288,93.721,33.288,93.721
		c62.583-62.563,114.794,41.852,114.794,41.852c109.337,58.31,138.166-14.907,204.334-51.752
		c63.739-35.65,34.451,40.636,32.55,45.601c39.936-19.594,53.856,15.82,53.856,15.82
		c121.184-125.652,156.354-175.497,156.354-175.497c17.015,22.688,22.698,96.359,22.698,96.359
		c45.572-19.825,54.084-73.672,130.827-136.254c76.54-62.371,161.809-187.574,201.017-304.724
		c95.428-284.854-30.461-401.286-30.461-465.282C2785.58,2768.221,2903.433,2655.334,2827.379,2612.572 M2155.885,544.678
		c-22.18-19.358-55.024-102.466-56.932-107.688l56.199,29.037l101.594,52.691c0,0-31.2,41.314-47.006,45.589
		C2196.018,568.066,2166.742,554.133,2155.885,544.678"/>
	<path fill="#665C3E" d="M1842.691,3719.351c-53.626,32.123-57.636,83.858-57.636,83.858
		c-38.021-116.002-27.869-150.697-27.869-150.697l22.903-12.764C1840.799,3613.522,1841.725,3683.682,1842.691,3719.351"/>
	<path fill="#665C3E" d="M1982.026,3951.063c-65.183-69.936-82.411-137.952-82.411-137.952
		c62.604-62.601,114.792,41.813,114.792,41.813C1967.398,3893.894,1982.026,3951.063,1982.026,3951.063"/>
	<path fill="#665C3E" d="M2281.526,3864.615c-45.572,51.963-84.791,48.17-84.791,48.17c36.608-33.304,30.943-64.016,30.943-64.016
		C2267.594,3829.166,2281.526,3864.615,2281.526,3864.615"/>
	<path fill="#665C3E" d="M590.848,2357.677c-28.549,46.532-21.5,84.069-21.5,84.069c-82.662-90.668-94.958-162.246-94.958-162.246
		c16.087-25.498,67.101-14.4,94.281-6.377C595.573,2281.147,590.848,2357.677,590.848,2357.677"/>
	<path fill="#665C3E" d="M758.613,2484.211c-33.765-13.164-70.008-64.692-70.008-64.692l-0.38-1.318
		c-2.49-9.933-12.808-58.771,28.794-57.409c46.371,1.321,49.056,46.343,49.056,46.343
		C747.931,2447.782,758.613,2484.211,758.613,2484.211"/>
	<path fill="#665C3E" d="M1001.359,2409.406c-48.639,98.253-136.991,69.228-136.991,69.228
		c56.189-38.758,45.132-109.858,45.132-109.858C979.86,2340.196,1001.359,2409.406,1001.359,2409.406"/>
	<path fill="#665C3E" d="M3273.83,1027.946c0,0,18.896,273.969-12.496,466.002c-31.426,191.776,50.063,490.606,119.507,569.719
		c-12.277-10.391-406.244-346.479-427.996-761.75c0,0-132.282-97.527-64.445-270.659c0,0,102.272,232.888,183.979,72.253
		c81.953-160.367-107.007-213.96-163.707-157.271c-56.688,56.682-150.896,97.553-50.297,374.596
		c100.854,277.063,188.953,434.36,264.563,636.068c75.543,201.467,169.791,239.257,169.791,239.257s-81.729,59.761-147.846,15.608
		c0,0-122.802,209.021-341.52,246.104c-2.157-28.104-4.737-61.662-12.548-102.29c0,0,177.854-58.8,158.991-197.215
		c-18.905-138.64-195.354-107.239-195.354-107.239s68.98-103.664,196.727-94.228c127.568,9.439,65.951-81.96-98.478-340.146
		c-164.396-258.13-205.244-632.745,35.697-793.348c240.653-160.614,643.616-428.21,253.397-667.51
		c0,0,399.672-88.102,321.006,421.837c0,0,88.068,4.729,103.914-164.36C3566.718,413.376,3755.673,785.599,3273.83,1027.946"/>
	<path fill="#665C3E" d="M3089.478,409.553c-13.458,18.462-35.895,44.575-73.732,78.063c-24.18,21.41-50.75,42.658-78.402,63.363
		c-94.961-54.025-194.626-100.673-298.221-139.165c-91.002-147.64-269.592-254.883-398.578-306.346
		C2547.414,149.837,2834.601,255.524,3089.478,409.553"/>
</g>
</svg>
