<?xml version="1.0" encoding="utf-8"?>
<!-- Generator: Adobe Illustrator 16.0.0, SVG Export Plug-In . SVG Version: 6.00 Build 0)  -->
<!DOCTYPE svg PUBLIC "-//W3C//DTD SVG 1.1//EN" "http://www.w3.org/Graphics/SVG/1.1/DTD/svg11.dtd">
<svg version="1.1" id="Layer_1" xmlns="http://www.w3.org/2000/svg" xmlns:xlink="http://www.w3.org/1999/xlink" x="0px" y="0px"
	 width="4000px" height="4000px" viewBox="0 0 4000 4000" enable-background="new 0 0 4000 4000" xml:space="preserve">
<g>
	<path fill="#54663E" d="M2127.478,3876.129c-7.438,31.459-196.131,51.028-237.479-21.814
		c-41.119-72.512,4.957-53.208,172.101-237.191c167.153-183.982,176.804-246.884,99.33-360.803
		c-77.517-113.863-174.364-353.578-174.364-353.578l1.99-2.216c4.673-0.273,8.891-0.512,12.629-0.512
		c93.343-3.209,159.461-111.426,159.461-111.426c27.002,33.168,0,129.262,60.167,294.667
		c22.791,62.163,102.538,116.351,197.377,167.111c16.345,45.589,29.687,81.979,35.632,95.611
		c21.793,48.285-322.145,394.696-336.524,428.616C2103.197,3808.281,2134.658,3844.702,2127.478,3876.129"/>
	<polygon fill="#54663E" points="2751.727,2342.998 3140.205,2323.573 3509.256,2832.898 2997.759,2448.75 2769.004,2455.214 	"/>
	<polygon fill="#54663E" points="3189.738,2323.573 3558.791,2832.888 3650.596,2639.221 	"/>
	<polygon fill="#54663E" points="3719.802,2429.439 3666.82,2598.304 3316.677,2362.803 	"/>
	<path fill="#54663E" d="M756.484,2608.928c-1.975,7.925-4.7,17.119-8.184,27.007c-18.783-19.549-225.58-21.297-240.695-24.778
		c-15.332-3.208,20.072,47.332,86.185,125.063c65.88,77.778,60.68,6.954,121.608-48.519c5.168-4.699,10.896-8.682,16.84-11.399
		c-31.252,71.071-85.926,169.37-146.363,272.153c-32.452-23.524-262.982-286.748-264.931-397.223
		c-1.77-110.182,144.121-130.957,213.173-140.13c69.333-9.423,99.282-26.271,117.901-127.308
		c18.795-101.017,47.762-136.41,47.762-136.41C699.782,2304.621,796.132,2437.852,756.484,2608.928"/>
	<path fill="#54663E" d="M1020.082,2929.974c-21.033,33.44-73.789,52.224-130.959,61.415
		c56.197-75.748,98.55-146.348,134.446-205.301C1038.157,2822.52,1051.552,2879.681,1020.082,2929.974"/>
	<path fill="#54663E" d="M1354.387,873.966l-2.477-1.729c-32.684-26.771-59.936-45.084-67.849-50.058l-2.227-1.452
		c0,0,45.543-83.457,64.871-56.472C1366.037,791.24,1354.387,873.966,1354.387,873.966"/>
	<path fill="#54663E" d="M3006.783,3890.256c-32.959,0-198.316,27.007-240.437-8.926c-42.122-36.129,156.232-342.947,81.191-469.257
		c-47.038-78.974-246.616-152.017-404.12-235.991c-94.808-50.757-174.562-104.95-197.325-167.115
		c-60.175-165.408-33.187-261.479-60.175-294.676c0,0-66.092,108.229-159.439,111.445c-3.737,0-7.954,0.237-12.664,0.473
		c-91.373,4.217-349.156,21.06-608.635-108.955c0.217-0.473,0.491-0.991,0.722-1.463c5.944-11.397,11.884-22.799,17.58-33.433
		c19.069-35.94,98.539-114.662,145.846-161.973c48.305-47.763,70.053-69.837,81.496-88.148c15.81-25.993,18.785-54.969,8.173-80.482
		c17.297-19.54,33.403-37.374,41.817-45.056c119.107-110.928,196.843-193.148,268.437-283.521
		c14.076-17.805,25.748-34.689,35.396-50.511c271.895,77.034,601.216,154.272,701.025,272.136
		c168.114,198.61-46.05,679.967-18.097,763.427c33.708,100.037,283.288,277.559,283.288,277.559s35.92,402.901,72.066,502.191
		C3079.077,3887.295,3039.969,3890.256,3006.783,3890.256"/>
	<path fill="#54663E" d="M1540.853,1805.03c-53.235,126.745-115.164,265.197-131.502,287.984
		c-18.816,25.748-30.684,63.379-43.313,102.988c-3.463,10.919-7.955,25.055-12.633,37.904c-6.182-0.982-12.142-1.756-18.07-1.756
		c-40.883,0-68.605,25.279-79.739,54.512c-15.595,26.985-29.733,59.67-44.563,94.092c-16.106,37.149-45.344,105.234-64.393,121.843
		c-10.916,0.735-24.522,1.717-40.604,3.208c-199.837,18.826-253.348,55.456-272.158,104.727
		c-12.86,33.693-4.692,69.844,22.295,98.793c18.785,20.824,49.252,40.861,95.564,63.645
		c-30.962,50.783-67.101,108.214-112.174,168.877c-6.425,8.686-12.849,17.375-19.782,26.26
		c-214.455,276.862-250.122,482.391-250.122,576.229c0,0-128.002,31.204-177.542-6.187c-49.516-37.17-22.249-56.977-32.194-99.05
		c-6.188-25.985,156.019-277.116,290.23-505.421c60.391-102.726,115.167-201.037,146.336-272.124
		c6.42-14.605,11.873-28.22,16.092-40.354c3.498-9.918,6.207-19.092,8.166-26.98c39.652-171.123-56.693-304.331-56.693-461.568
		c0-157.256,68.852-193.412,85.191-409.816c16.323-216.438,147.557-432.616,131.233-449.203
		c-16.588-16.342-270.152,109.709-322.153,107.982c-52.266-1.776-117.86-31.458-81.467-131.771c0,0-87.667,20.551-81.731-34.656
		c6.197-55.217,16.36-32.686,26.719-87.893c10.146-54.979,144.889-75.521,187.746-106.245
		c43.091-30.449,128.717-132.712,322.903-153.029c0,0,165.392-151.299,202.039-136.929c36.913,14.363,22.547,114.387,22.547,114.387
		l2.229,1.512c7.154,4.433,30.704,20.305,59.915,43.545l-33.91,62.662c70.561,57.455,116.616,115.652,123.062,154.772
		c4.207,25.271,8.66,65.879,13.595,112.926c2.492,21.043,10.897,96.331,10.897,96.331l23.055,18.058
		c21.038,16.599,41.839,44.085,59.413,74.532c6.446,45.828,13.616,92.619,22.532,137.686l-71.293,10.141l17.322,74.555
		C1500.244,1703.254,1519.038,1760.228,1540.853,1805.03"/>
	<path fill="#54663E" d="M3206.356,641.198c-111.17-28.467-1110.073-350.659-1110.073-350.659s-25.277,34.442-57.708,30.49
		c-32.463-4.219,26.007,261.47,22.269,331.313c-3.699,69.813-1.952,136.934-20.778,146.337c0,0,15.089,10.398-11.396,46.31
		c0,0-8.405,35.896-29.213,71.809c-20.807,35.892-4.718,220.888-27.479,278.821c-23.027,58.211-23.027,66.369-4.229,105.473
		c19.086,39.146,19.086,195.646,19.086,195.646s-35.182,3.966-35.182,17.582c0,13.39-4.219,161.952,13.383,170.123
		c17.597,8.154,66.195,81.142,25.818,162.101c-15.843,31.673-33.552,78.337-76.615,133.094
		c-67.588,85.439-143.324,165.879-261.195,275.565c-26.523,24.749-97.34,109.208-97.34,109.208s54.472-0.236,35.187,31.185
		c-19.311,31.461-190.661,181.276-229.321,253.573c-5.953,11.145-12.115,23.002-18.082,34.668
		c-32.673,63.891-63.651,129.016-69.584,130.502c-5.424,1.218-175.537-49.289-285.23-101.302
		c-36.432-17.564-66.124-35.146-80.996-51.23c-50.015-53.992,110.463-77.261,205.047-86.167c17.813-1.492,33.188-2.726,44.533-3.452
		h0.277c71.313-4.973,115.396-181.024,162.94-257.03c0,0,1.996-28.525,47.059,0c45.318,28.459,65.622-135.72,98.555-180.807
		c32.927-45.311,152.514-333.059,152.514-333.059c-27.483-45.302-49.272-111.163-66.351-184.938
		c40.366-5.729,79.221-18.854,84.923-48.538c12.652-64.41-62.153-228.325-137.922-287.75c-8.938-78.25-15.353-144.862-21.53-183.25
		c-12.399-74.285-88.66-149.556-148.095-198.098c0,0,90.64,29.219,88.895-42.093c-1.976-71.566-38.629-175.806,0-256.8
		c38.628-81.211,77.035-146.839,119.606-131.224c42.355,15.345,231.529,149.311,266.443,347.934c0,0,49.54-58.219,97.085-80.25
		c0,0-8.928-26.498,6.156-45.084c14.867-18.325-0.701-373.152-10.896-400.658c-10.39-27.485-4.68-67.574-4.68-67.574
		s-65.367-16.099-68.818-37.896c-3.495-21.807,57.442-90.64,71.037-89.396c13.881,1.256,95.34,26.486,108.955,26.486
		c13.879,0,40.608-12.605,56.481,8.936c0,0,34.654-2.748,47.545,14.361c0,0,9.899-40.354,15.834-38.385
		c6.165,1.728,34.928-1.972,32.431,7.908c-2.467,9.67-21.308,69.351-16.587,71.83c4.948,2.465,1189.712,410.703,1212.865,420.934
		c24.306,10.782,49.632,33.058,47.688,41.279C3397.438,658.541,3277.582,659.463,3206.356,641.198"/>
</g>
</svg>
