<?xml version="1.0" encoding="utf-8"?>
<!-- Generator: Adobe Illustrator 16.0.0, SVG Export Plug-In . SVG Version: 6.00 Build 0)  -->
<!DOCTYPE svg PUBLIC "-//W3C//DTD SVG 1.1//EN" "http://www.w3.org/Graphics/SVG/1.1/DTD/svg11.dtd">
<svg version="1.1" id="Layer_1" xmlns="http://www.w3.org/2000/svg" xmlns:xlink="http://www.w3.org/1999/xlink" x="0px" y="0px"
	 width="4000px" height="4000px" viewBox="0 0 4000 4000" enable-background="new 0 0 4000 4000" xml:space="preserve">
<g>
	<path fill="#664F40" d="M3118.58,2194.532c40.914-47.551,135.101-231.239,55.702-334.58c-5.725-7.416-12.172-14.331-19.591-20.817
		c-25.093-21.738-47.112-40.369-66.454-56.415c-3.361-2.395-6.506-5.001-9.61-7.648c-60.75-49.491-89.892-68.884-89.892-68.884
		s-3.601-38.979-12.237-94.689c-16.503-104.255-51.396-267.391-115.71-344.397c0,0,49.712,242.257,6.677,450.09
		c0,0-130.576-153.043-149.957-218.348c-19.144-65.271-65.283,20.818-47.358,100.912c17.685,80.149,71.292,102.625,45.921,105.472
		c-25.131,2.895-183.897-43.037-259.713,87.54c-75.599,130.574-45.923,243.458-22.238,451.298
		c23.686,207.829,74.606,326.447-111.956,374.034c-186.261,47.397-397.453,61.226-428.796,44.03
		c-31.113-17.473,89.218-254.478,189.908-325.047l-888.932,104.054c0,0,81.016,412.547-69.864,630.416l-16.266,13.148
		c0.714,0.707,1.19,1.697,1.904,2.409c18.181,24.381,36.829,50.934,56.427,79.123c38.521,45.235,79.664,114.566,116.015,171.051
		c1.657,2.851,3.819,5.707,5.725,8.604c85.15-67.438,176.965-144.941,226.734-214.061
		c-17.209,27.971-160.708,261.626-153.525,323.342c7.636,65.549,88.48,117.403,114.291,108.396
		c26.104-9.114,319.075-204.517,451.784-138.997c109.529,54.257,127.699,75.074,130.843,80.807
		c-2.181-11.939-18.905-87.767-86.826-132.439c0,0,69.808-57.672,124.11,28.43c0,0,16.496-56.249-31.57-81.303
		c-7.896-4.325-17.684-7.43-29.379-9.572h-0.276c-7.64-1.449-16.258-2.15-26.058-2.408
		c-114.312-2.408-319.027,59.529-385.301,21.028c0,0,2.381-1.429,6.952-4.269c7.657-4.555,20.58-12.942,37.056-23.942
		c30.846-20.331,73.894-50.437,115.301-83.938c11.448-9.321,22.952-19.123,33.961-28.942c25.104-22.236,47.57-45.427,64.311-67.699
		c13.152-17.675,26.781-24.588,40.418-23.647c19.619,0.943,39.973,18.172,60.285,41.629c16.008,18.875,32.492,41.854,48.776,64.102
		c8.346,11.448,16.954,23.208,25.581,33.73c18.438,23.401,36.837,42.553,55.008,50.904c6.439,3.112,15.532,6.696,26.542,11.245
		c14.364,5.736,31.789,12.65,51.875,20.82c145.698,57.407,419.794,166.423,463.518,253.753c0,0,0-90.159-50.972-137.052
		c0,0,109.589,24.885,149.244,83.461c0,0-5.011-116.211-135.1-151.146c-25.571-6.704-51.179-14.567-76.035-23.444
		c-78.705-27.246-149.958-62.416-190.395-94.473c-11.961-9.572-21.295-18.887-27.274-27.695c0,0,18.208,4.989,47.874,10.018
		c0.21,0,0.467,0,0.715,0.238c9.568,1.449,20.065,3.104,31.77,4.523c31.6,3.866,70.313,6.448,111.501,4.563
		c10.953-0.486,22.19-1.447,33.675-2.616c32.54-3.603,65.531-10.517,97.358-22.05c6.209-2.111,12.448-4.771,18.397-7.103
		c16.01-7.01,31.344-15.104,46.144-24.925c7.914-4.998,15.562-10.511,22.724-16.959c1.935-1.191,4.087-3.105,5.999-4.802
		c3.819-2.854,7.171-6.218,10.763-9.539c63.615-61.229,104.264-161.931,91.567-325.021
		c-42.532-547.915-301.78-623.51-114.769-853.093c0,0,127.461,264.285,161.938,313.322c0,0-6.02,246.074,63.131,344.568
		c0,0,5.477-70.998,45.666-118.338c0,0,176.479-29.209,156.42-154.975C3133.16,2234.752,3074.827,2245.75,3118.58,2194.532
		 M2995.411,2055.606c0,0-161.413-153.537-44.254-193.957c0,0,28.722,63.361,59.566,117.216
		C3041.324,2032.633,2995.411,2021.177,2995.411,2055.606"/>
	<path fill="#664F40" d="M3444.55,2503.771c0,0-43.513,123.901-82.521,293.455c-21.294,93.54-41.379,200.899-51.883,309.019
		c-29.447,304.455-88.256,422.102-417.813,659.33c-201.116,144.72-741.154,172.225-1095.801,159.545
		c-354.959-12.676-539.554-277.217-644.578-375.729c-16.483-15.542-32.97-33.739-49.703-54.063c-0.266-0.496-0.733-0.713-1-1.152
		c-55.227-67.939-110.959-157.416-166.45-237.525c-2.144-3.381-4.515-6.678-6.695-9.8c-31.315-45.188-62.637-86.806-93.265-119.576
		c-103.528-110.018-207.829-33.467-262.362,0c-54.493,33.722-69.331,174.345,73.436,228.878
		c72.491,27.776,175.793-20.816,251.344-73.396c55.264,79.603,110.493,168.547,165.51,236.256
		c-335.044,169.804-699.29,35.172-731.822-236.256c-1.925-16.27-2.658-33.259-1.925-50.505
		c12.438-354.664,340.095-358.969,474.508-346.313c88.711,8.391,168.386,83.482,271.448,222.951
		c0.694,0.679,1.171,1.643,1.895,2.372c18.182,24.401,36.837,50.94,56.436,79.125c38.522,45.235,79.657,114.565,116.015,171.021
		c1.658,2.841,3.812,5.762,5.704,8.606c0.754,0.923,1.22,1.917,1.952,2.916c205.669,308.741,394.605,363.262,558.438,401.031
		c163.575,37.769,579.468,10.563,745.224-21.027c165.946-31.372,373.825-155.204,482.84-275.062
		c109.302-119.564,138.72-329.537,161.651-413.47c8.666-31.844,18.925-64.139,29.913-96.136v-0.275
		C3315.151,2734.105,3444.55,2503.771,3444.55,2503.771"/>
	<path fill="#664F40" d="M2327.922,2035.996c-167.661,108.575-244.648,253.269-244.648,253.269l-888.931,104.015
		c-28.267-127.243-160.282-82.465-171.548-78.646c-0.438,0.211-0.676,0.47-0.676,0.47
		c-17.963-462.311,168.851-782.061,350.844-981.996c165.977-182.25,328.37-264.734,328.37-264.734
		c0.943,17.19,3.114,34.894,6.209,53.063c1.184,7.182,2.63,14.611,4.533,21.99c20.819,96.158,69.808,199.984,131.328,301.599
		c180.785,298.497,471.368,578.298,484.041,590.504C2327.922,2035.758,2327.922,2035.996,2327.922,2035.996"/>
	<path fill="#664F40" d="M1679.571,967.68c-19.866,45.667-26.075,76.779-26.075,76.779s-162.385,82.482-328.388,264.732
		c-181.965,199.917-368.769,519.678-350.843,981.984c0,0-88.694-352.748-45.886-569.436
		c42.542-216.679-19.876-315.197-193.754-173.863l0.258-0.437c6.457-21.104,252.306-787.858,941.776-580.741
		C1677.668,966.967,1678.593,967.204,1679.571,967.68"/>
	<path fill="#664F40" d="M1713.048,854.781c-14.104,23.417-24.895,45.693-33.477,65.065c-0.962-0.475-1.903-0.734-2.885-0.961
		c-689.499-207.137-935.35,559.606-941.805,580.654l-0.257,0.487c0,0,19.637-426.888,239.639-623.702
		c220.078-197.098-39.466-512.051-220.003-344.646c0,0,242.992-403.944,505.573-252.799
		C1474.827,402.548,1654.926,737.614,1713.048,854.781"/>
	<path fill="#664F40" d="M3521.308,3009.61c6.96-48.999-72.932-225.288-102.588-274.048c-3.563-6.011-8.134-7.426-13.15-5.037
		c29.903-143.034,73.901-296.571,73.901-296.571c-74.149,88.948-151.643,237.249-203.041,345.104
		c5.727-22.229,6.916-39.933-2.874-49.733c-32.048-32.104-153.806,166.451-153.806,166.451
		c4.322-155.919,106.693-309.465,224.106-409.949c117.441-100.187,207.115-194.164,207.115-194.164
		c6.438,68.15-59.797,153.546-14.809,326.438C3578.718,2783.123,3526.328,2991.2,3521.308,3009.61"/>
	<path fill="#664F40" d="M3082.723,845.696l-0.726-0.236c-9.085-3.354-71.76-25.848-161.201-34.201
		c-157.614-14.562-398.216,14.59-573.021,270.229c-277.181,405.15,16.973,911.949,27.535,930.102
		c-12.706-12.211-303.306-292.008-484.089-590.455c-8.37-13.656-16.258-27.273-24.172-41.17
		c-6.694-11.705-13.152-23.665-19.36-35.399c-1.171-1.866-2.191-3.799-3.114-5.706c-5.742-10.79-11.238-21.531-16.514-32.559
		c-6.229-12.627-12.162-25.324-17.657-38c-2.903-6.22-5.522-12.696-8.418-18.914c-7.62-17.913-14.58-35.856-20.542-53.33
		c-0.485-1.173-0.713-2.123-0.971-3.089c-8.619-24.882-15.542-49.54-20.533-73.454c-0.504-1.658-0.733-3.067-1.238-4.76
		c-1.199-5.754-2.352-11.485-3.333-17.21l-6.219-53.104c0,0,6.219-31.093,26.056-76.757c8.649-19.362,19.393-41.629,33.477-65.086
		c53.359-90.117,151.177-200.152,325.035-258.247C2726.107,446.785,3070.506,831.618,3082.723,845.696"/>
	<path fill="#664F40" d="M3130.352,797.528c-12.229-14.096-356.59-398.91-949.004-201.365c0,0,381.45-614.168,1157.062-440.518
		C3338.409,155.644,2944.025,350.809,3130.352,797.528"/>
	<path fill="#664F40" d="M3102.571,1751.157c-60.79-49.522-89.948-68.884-89.948-68.884s-3.554-38.988-12.191-94.673
		c8.114-37.112,43.047-173.896,117.196-206.174C3117.627,1381.428,3074.095,1608.83,3102.571,1751.157"/>
	<path fill="#664F40" d="M3291.611,1610.22c-10.561,61.171-48.902,141.101-100.767,203.889c-3.8-4.878-8.058-9.456-12.935-13.713
		c-16.531-14.354-31.048-26.657-43.835-37.228c15.761-28.865,81.054-146.016,105.804-170.137
		C3268.116,1565.297,3303.266,1542.595,3291.611,1610.22"/>
	<path fill="#664F40" d="M2189.193,3319.094c-29.626-2.409-77.234-4.307-125.07,0.959c-7.896-4.321-17.685-7.426-29.418-9.57h-0.237
		c-7.64-1.447-16.259-2.18-26.06-2.407c-114.31-2.411-319.026,59.53-385.299,21.027c0,0,2.398-1.429,6.952-4.267
		c7.657-4.555,20.579-12.945,37.056-23.944c30.846-20.334,73.895-50.436,115.274-83.939c11.472-9.323,22.949-19.12,33.989-28.939
		c25.104-22.236,47.568-45.429,64.31-67.646c13.179-17.73,26.781-24.646,40.418-23.701c19.618,0.94,39.972,18.168,60.257,41.606
		c-30.104,42.33-80.57,108.765-121.008,142.287c6.953-2.113,108.122-35.616,195.395-44.437
		c18.419,23.398,36.838,42.551,55.008,50.904c6.438,3.11,15.532,6.696,26.554,11.245
		C2151.661,3304.008,2169.09,3310.92,2189.193,3319.094"/>
	<path fill="#664F40" d="M2792.114,3294.207c39.468,37.791,29.181,105,29.181,105c-5.237-31.099-79.158-105-171.945-118.644
		c-44.99-6.707-95.188-23.412-135.328-38.726c10.953-0.485,22.189-1.446,33.675-2.615c32.54-3.604,65.531-10.544,97.358-22.02
		c6.209-2.165,12.447-4.802,18.397-7.154c34.201-6.53,69.828-17,127.025,1.657c99.69,32.543,120.271,141.128,120.271,141.128
		C2877.969,3314.787,2792.114,3294.207,2792.114,3294.207"/>
</g>
</svg>
