<?xml version="1.0" encoding="utf-8"?>
<!-- Generator: Adobe Illustrator 16.0.0, SVG Export Plug-In . SVG Version: 6.00 Build 0)  -->
<!DOCTYPE svg PUBLIC "-//W3C//DTD SVG 1.1//EN" "http://www.w3.org/Graphics/SVG/1.1/DTD/svg11.dtd">
<svg version="1.1" id="Layer_1" xmlns="http://www.w3.org/2000/svg" xmlns:xlink="http://www.w3.org/1999/xlink" x="0px" y="0px"
	 width="4000px" height="4000px" viewBox="0 0 4000 4000" enable-background="new 0 0 4000 4000" xml:space="preserve">
<g>
	<path fill="#3E4B66" d="M1545.25,2124.857c0,0,71.204-71.628,67.006-187.943c-4.141-116.327,270.056-226.413,363.518-207.75
		c0,0-141.245-95.513-255.48,0c-114.255,95.573-141.244,76.87-195.242,132.949C1471.05,1918.191,1563.413,2073.979,1545.25,2124.857
		"/>
	<path fill="#3E4B66" d="M1651.74,2242.244c0,0,105.959-20.775,147.483-137.089c41.543-116.323,380.11-280.409,556.667-274.191
		c0,0-122.515-76.87-351.023,22.827c-228.494,99.735-245.104,68.578-249.245,126.724
		C1751.464,2038.693,1730.668,2150.851,1651.74,2242.244"/>
	<path fill="#3E4B66" d="M1954.453,125.251l-97.604,79.51l241.844,92.249c0,0,38.894,192.604-335.266,224.105
		c-374.159,31.474-374.159,96.317-374.159,96.317s77.787-96.317,77.787-237.093S1698.869-28.502,1954.453,125.251"/>
	<path fill="#3E4B66" d="M2787.225,3188.476c0,0-168.601-11.341-244.922-104.041c-49.312-59.87-68.167,11.463-250.834,38.18
		c-100.065,14.636-249.362,38.884-479.792-32.719c-280.817-87.235-122.716,313.527,32.677,343.502
		c155.433,30.007,393.425,23.094,381.702,234.444c-8.174,147.248-218.136,193.602-321.712,166.326
		c-103.593-27.254-228.938-169.355-272.113-267.875c-43.174-98.457,24.277-136.271-45.885-161.894
		c-70.165-25.623-116.05-148.43-107.918-246.89c8.074-98.508,76.892-126.819,39.139-179.467
		c-37.793-52.621-95.807-26.979-102.555,9.448c-6.77,36.407-56.545,232.07-219.113,268.66c0,0-144.978,128.901-209.413,183.083
		c0,0,219.666,206.477,231.407,241.631c11.721,35.174-285.589-1.436-338.304-206.477
		c-52.735-205.027,224.066-250.435,248.958-287.045c24.91-36.604,71.752-156.717,137.655-203.571
		c65.903-46.862-1.467-111.31-65.902-87.896c-64.434,23.44-69.817,133.069-165.828,160.672
		c-96.011,27.631-332.717,80.209-345.846,153.861c-13.169,73.669,2.607,217.017,2.607,217.017s-142.02-72.352-126.261-147.3
		c15.778-74.976,86.799-96.03,114.419-157.84c27.599-61.783,195.977-76.238,219.602-123.593
		c23.689-47.353,105.228-88.12,145.995-111.799c40.771-23.675,103.9-73.647,88.104-103.901
		c-15.756-30.25-120.984-43.396-327.457,53.909c-206.497,97.325-332.72,139.421-343.237,224.903
		c-10.52,85.492-25.013,173.586-25.013,173.586s-94.664-71.031-102.575-143.325c-7.867-72.349,50.002-47.363,55.245-113.115
		c5.259-65.771,197.282-163.079,368.227-236.728c170.966-73.629,172.313-81.551,128.895-128.884
		c-43.379-47.333-223.11-277.901-242.335-604.893c-19.242-327.042-30.249-497.386-71.446-610.05
		c-41.24-112.687,112.687-269.334,236.338-247.339c123.636,22.003,217.077,82.446,211.595,230.848
		c-5.505,148.356-21.996,203.346,38.464,269.291c60.442,65.953,65.944,252.821,129.159,305.035
		c63.189,52.214,267.976,136.565,226.818,189.262c-41.136,52.685-197.527-11.539-250.201,90.537
		c-52.713,102.065-80.662,136.64-174.512,154.741c-93.854,18.091-131.705,69.143-110.281,88.885
		c21.403,19.786,159.694-47.729,223.864-46.089c64.211,1.65,110.302-97.122,169.56-161.323
		c59.299-64.202,166.276-60.921,207.434-42.805c41.158,18.117,82.313,23.045,13.148,62.568c-69.104,39.507-126.732,79-121.8,151.416
		c4.935,72.461-4.933,105.4-64.19,126.784c-59.276,21.392-169.559,72.446-143.222,113.563
		c26.337,41.197,80.661-26.316,146.525-51.003c65.82-24.694,171.188-14.818,174.47-54.314
		c3.284-39.526-70.796-102.075-31.27-154.748c39.484-52.696,218.953-90.541,293.011-116.895
		c74.117-26.338,154.778-148.156,212.387-222.234c57.606-74.064,162.979-52.673,284.773-80.644
		c121.84-27.987,349.026-46.101,439.554,4.924c0,0-217.3,26.336-391.794,113.582c-174.489,87.217-171.188,32.934-237.054,83.936
		c-65.862,51.053-83.963,103.734-179.445,153.131c-95.48,49.358-189.313,181.076-192.613,250.217
		c-3.303,69.146,26.337,77.341-29.64,105.361c-55.954,27.986-195.898,98.772-169.56,136.627
		c26.337,37.884,123.488-72.438,186.05-85.563c62.521-13.21,100.396-44.47,100.396-107.049c0-62.543-29.619-126.742,74.1-190.967
		c103.694-64.166,398.375-271.625,460.916-274.906c62.58-3.292,107.041,85.594,139.939,64.201
		c32.922-21.391,75.729-18.066,77.381-88.906c1.652-70.768,513.285,45.406,651.719,149.828
		c138.431,104.418-53.427,75.299-119.007,136.025c-65.597,60.707-201.582,102.008-354.59,58.313
		c-153.007-43.758-257.459-172.474-354.611-143.33c-97.11,29.142-242.862,38.866-257.419,97.138
		c-14.595,58.291,46.133,43.704,121.432,58.291c75.282,14.563,286.59,126.291,352.146,201.593
		c65.598,75.3,89.854,89.865,153.025,65.577c63.15-24.278,206.435,26.705,247.734,84.993
		C2964.125,2876.95,2338.357,2866.075,2787.225,3188.476"/>
	<path fill="#3E4B66" d="M3114.135,2764.601c0,0-200.36-321.396,121.002-306.26c321.364,15.114,502.848,185.276,521.786,336.489
		c18.875,151.246-34.021,298.707-151.233,370.543C3605.689,3165.373,3594.312,2692.754,3114.135,2764.601"/>
	<path fill="#3E4B66" d="M3458.207,3078.398c0,0-68.368-109.414-76.932-160.69c-8.521-51.289-53-123.104-117.945-95.727
		C3198.361,2849.31,3191.494,2955.328,3458.207,3078.398"/>
	<path fill="#3E4B66" d="M3484.115,3610.144c0,0-154.188,298.31-664.213,301.195c-509.963,2.924-512.855-121.7-512.855-211.522
		s127.485-220.205,336.121-168.051C2851.823,3583.93,3162.16,3791.406,3484.115,3610.144"/>
	<path fill="#3E4B66" d="M3193.533,3483.281c0,0-288.117-35.253-344.785,41.37c-56.732,76.605,56.668,61.277,79.662,50.563
		C2951.402,3564.5,3057.138,3486.326,3193.533,3483.281"/>
	<path fill="#3E4B66" d="M903.724,1023.764c0,0,203.665,135.007,203.665,277.037l381.272-187.051c0,0,29.618-98.063-49.147-157.948
		L903.724,1023.764z"/>
	<path fill="#3E4B66" d="M1545.475,907.745c0,0,47.374,85.228,47.374,236.775l319.67-61.562c0,0,80.193-46.302,149.011-0.64
		l391.511-36.154c0,0,58.586-81.61,276.435-112.381l92.343-179.975c0,0-11.803-104.198,56.832-137.333l9.581-243.022
		c0,0-156.389-131.124-229.796-10.368l59.198,187.081c0,0,97.111,75.78-75.789,120.758l-104.165,149.193
		c0,0,47.354,111.294-198.936,47.365l-267.591,44.969c0,0-71.042,37.888-158.634,7.115L1545.475,907.745z"/>
	<path fill="#3E4B66" d="M2556.656,326.53c0,0,73.18-130.454,270.198-66.558l-239.642-122.474l-532.222,52.563L2556.656,326.53z"/>
</g>
</svg>
