<?xml version="1.0" encoding="utf-8"?>
<!-- Generator: Adobe Illustrator 16.0.0, SVG Export Plug-In . SVG Version: 6.00 Build 0)  -->
<!DOCTYPE svg PUBLIC "-//W3C//DTD SVG 1.1//EN" "http://www.w3.org/Graphics/SVG/1.1/DTD/svg11.dtd">
<svg version="1.1" id="Layer_1" xmlns="http://www.w3.org/2000/svg" xmlns:xlink="http://www.w3.org/1999/xlink" x="0px" y="0px"
	 width="4000px" height="4000px" viewBox="0 0 4000 4000" enable-background="new 0 0 4000 4000" xml:space="preserve">
<g>
	<path fill="#663E49" d="M3566.959,1495.545c0.271-1.399,0.271-3.897,0.815-6.99
		C3567.772,1490.807,3567.478,1493.305,3566.959,1495.545"/>
	<path fill="#663E49" d="M3941.563,771.49c-7.201-13.291-23.486-87.274-109.045-28.055c-85.562,58.977-192.139,134.266-239.19,97.26
		c-47.203-36.775-42.086-199.692,53.309-296.444c0,0,29.023-24.847,32.837-35.451c4.153-10.417-11.961-32.258-11.961-32.258
		c-3.392-26.73,14.403-44.949,15.899-65.042c1.711-20.285-42.65-93.134-57.461-105.645c-14.806-12.522-33.555-86.887-63.525-41.136
		c-30.354,45.885-168.422,307.998-269.314,366.205c-100.894,58.052-297.203,131.637-407.028,259.85
		c-109.656,128.042-60.284,125.01-180.765,164.642c-120.422,39.852-216.426,68.854-214.133,116.235
		c1.875,41.579,99.592,55.774,123.834,58.433c2.463,0.397,3.788,3.434,2.293,5.338c-9.457,13.451-43.832,52.723-129.559,77.187
		c-104.12,30.164-233.277,101.083-366.02,150.403c-132.576,49.49-522.75,23.908-839.123,96.934
		c-268.154,62.012-428.277,132.004-469.038,232.528c-7.395,18.21-10.824,37.157-10.615,57.294
		c1.703,99.333,17.081,228.535-6.823,338.917c-7.982,36.768-20.495,71.681-39.072,102.61
		c-74.735,123.266-84.593,149.654-69.996,231.771c14.432,81.918-24.075,212.447-156.667,344.999
		c-132.763,132.761-220.369,208.084-214.679,295.117c5.477,86.687,1.896,267.652-24.096,341.417
		c-25.807,73.952-31.469,166.517,12.893,210.897c44.377,44.21,265.921,42.283,290.209,14.784
		c24.096-27.856,44.356-92.364-22.204-149.812c-66.77-57.127-112.686-99.779-97.88-182.83
		c14.789-83.117,77.198-319.027,295.521-406.482c84.379-33.773,201.049-97.89,321.068-172.03
		c188.559-116.639,385.985-258.523,480.451-347.655c54.053-51.013,101.865-86.674,147.173-107.716
		c85.769-39.284,164.062-26.752,262.894,32.994c0,0,181.313,181.536,381.433,130.665c22.37-5.477,42.637-11.172,61.041-16.107
		c146.269-40.203,175.649-52.943,215.295,76.617c21.231,69.833,51.958,193.488,76.981,317.529
		c26.938,135.586,47.033,271.951,40.418,339.855c-12.527,130.33-25.984,431.323,30.711,444.017
		c56.939,12.146,212.64,24.655,253.394,3.612c40.589-21.62,35.492-90.667,15.949-103.01
		c-19.529-12.514-111.53-37.336-125.77-120.407c-14.22-83.298-37.161-489.366-44.362-572.599
		c-7.037-83.474-17.651-384.491-19.527-437.802c-1.727-53.289-8.928-42.657,46.087-83.434
		c55.186-40.589,203.704-189.865,274.036-365.11c0,0,23.904,24.286,26.959,46.286c0.382,3.213,4.175,4.373,6.236,1.706
		c28.076-40.97,130.889-195.542,139.063-274.064c0,0,18.742,22.746,15.543,38.305c0,0,152.898-270.833,178.447-403.996
		c0,0,15.55,36.619,14.054,69.025c4.737-43.823,22.786-215.237,24.661-289.779c2.084-85.749,120.063-203.716,240.121-298.33
		C3952.768,805.625,3949.168,784.586,3941.563,771.49 M3235.039,824.975c-73.575-1.17-54.053-44.202-54.053-44.202l110.414-44.382
		C3291.4,736.389,3308.443,825.945,3235.039,824.975"/>
	<path fill="#663E49" d="M747.349,1877.521c1.667,99.502,17,228.61-6.973,339.024c-10.867,3.646-96.447-59.118-162.522,182.627
		l-0.272,0.272l-259.862,93.661l-160.583-275.721c7.539-11.75,178.149-267.672,433.272-339.865
		c70.814-19.813,125.449-39.314,167.534-57.167C750.448,1838.479,747.076,1857.459,747.349,1877.521"/>
	<path fill="#663E49" d="M549.671,2455.198c-3.874,5.856-68.286,102.021-139.649,232.83c-14.238,25.874-30.668,54.349-48.785,83.337
		l-165.916,49.361L75.722,2669.892c35.663-69.151-23.402-269.349-4.189-303.081c19.801-34.586,57.734-93.67,57.734-93.67
		l160.546,275.734L549.671,2455.198z"/>
	<path fill="#663E49" d="M328.591,2822.106c-70.268,105.116-151.403,205.506-195.743,219.162
		c-63.526,19.509-36.774-36.794-51.291-137.488c-11.962-81.979-35.364-139.386-22.558-193.447l125.203,154.472L328.591,2822.106z"/>
	<path fill="#663E49" d="M1157.199,3244.781c-24.518,42.392,66.918,133.841,103.714,206.045
		c36.802,72.216,29.851,83.07,107.614,90.066c77.807,6.669,72.523,39.58,71.113,111.784
		c-1.396,72.511-133.543,52.142-220.535,50.202c-86.718-1.958-79.473-59.124-85.035-138.605
		c-5.285-79.462-138.576-186.496-204.902-253.108c-66.666-66.382-7.56-125.496,132.972-310.357
		c140.516-184.83,55.672-128.277,55.672-128.277c0.545-1.671,1.096-3.379,1.683-5.031
		c188.479-116.542,385.84-258.472,480.371-347.691c54.069-50.994,101.758-86.688,147.214-107.592
		c-9.479,26.181-60.684,50.805-82.172,198.012C1637.025,2802.591,1181.74,3202.428,1157.199,3244.781"/>
	<path fill="#663E49" d="M2720.65,3616.477c-28.417,51.868-142.177,21.189-235.868,18.113c-93.669-3.032-21.168-81.695-9.184-187.65
		c11.982-105.632,18.092-353.781-21.19-480.623c-39.306-127.147-60.367-399.687-60.367-399.687
		c146.115-40.181,175.676-52.976,215.287,76.661c21.188,69.716,51.815,193.507,76.948,317.578
		c-38.506,132.978-112.84,459.864-50.389,492.217C2711.445,3492.41,2748.834,3564.599,2720.65,3616.477"/>
</g>
</svg>
