<?xml version="1.0" encoding="utf-8"?>
<!-- Generator: Adobe Illustrator 16.0.0, SVG Export Plug-In . SVG Version: 6.00 Build 0)  -->
<!DOCTYPE svg PUBLIC "-//W3C//DTD SVG 1.1//EN" "http://www.w3.org/Graphics/SVG/1.1/DTD/svg11.dtd">
<svg version="1.1" id="Layer_1" xmlns="http://www.w3.org/2000/svg" xmlns:xlink="http://www.w3.org/1999/xlink" x="0px" y="0px"
	 width="4000px" height="4000px" viewBox="0 0 4000 4000" enable-background="new 0 0 4000 4000" xml:space="preserve">
<g>
	<path fill="#3E665C" d="M882.334,1147.452c10.455,6.2,20.195,12.832,28.995,19.735
		C902.298,1160.546,892.787,1153.885,882.334,1147.452"/>
	<path fill="#3E665C" d="M736.645,952.343c-10.685-32.595,26.126-65.372,78.438-93.667c21.62-11.627,24.238-38.495,16.363-68.462
		c-2.349-9.472-5.93-19.213-10.204-28.956v-0.27c-14.747-33.511-38.736-66.078-60.608-80.815
		c-8.316-5.457-19.485-9.038-33.039-10.443c-60.357-7.343-164.708,21.651-229.823,54.659c-5.238,2.628-9.974,5.256-14.499,7.866
		c-76.068,43.706-99.114,89.364-129.785,135.252c-30.438,45.594-151.407,182.511-165.884,215.78
		c-14.728,33.52,55.833,104.11,55.833,104.11c-4.023,14.488,7.605,33.75,24.259,58.936c3.313,5.226,9.972,6.634,18.539,5.948
		c9.492,22.574,27.59,55.613,57.261,69.859c42.068,20.207-21.14-37.284-13.054-82.922c29.226-11.438,60.858-25.694,78.896-23.787
		c35.927,3.811,108.377,19.975,105.526,54.669c-2.848,34.471-33.036,43.722-81.998,87.243c-3.331,3.071-6.41,5.459-9.26,7.835
		c-14.749-11.677-29.939-37.552-29.939-22.833c0,10.704,8.779,24.046,16.154,33.064c-14.979,10.688-11.418,8.78,6.66,41.588
		c19.736,35.638,36.352,45.62,54.197,60.34c31.596,25.936,116.25-5.697,144.978-63.449c13.785-27.09,40.643-59.424,65.112-86.022
		c61.533-108.183,110.282-153.794,137.622-172.573c0.271-0.232,0.731-0.444,0.944-0.725h0.25l21.602-30.411
		C841.19,1124.156,747.562,984.89,736.645,952.343 M536.03,905.48c-4.024,5.229-23.298,11.429-23.298,11.429
		c-32.558-20.899-23.064-42.56-23.064-42.56c7.143-21.815,59.223-30.41,59.223-30.41S545.789,893.132,536.03,905.48"/>
	<path fill="#3E665C" d="M886.146,479.835l-1.213,1.162l-2.367,2.63c-14.979,15.69-75.338,79.862-124.761,144.253
		c-7.625-2.617-15.941-4.022-24.509-4.968c-8.067-0.961-17.136-1.423-26.358-1.423c-56.334,0-128.571,18.529-185.638,40.894
		C559.787,587.97,656.302,473.856,886.146,479.835"/>
	<path fill="#3E665C" d="M1235.261,584.389c0,0-175.185,54.428-237.18,100.567c-0.692,0.723-1.674,1.147-2.388,1.638
		c-2.387,1.436-3.561,2.406-3.561,2.406s-67.982-45.186-139.298,29.931c-13.052-23.789-31.343-49.701-53.234-67.984
		c48.269-62.033,105.795-123.104,117.887-135.723l1.928-2.119l39.679-39.729C1045.617,470.535,1184.645,483.386,1235.261,584.389"/>
	<path fill="#3E665C" d="M1679.969,1576.951c-8.069,18.993-19.948,37.774-36.371,55.61
		c-128.339,140.24-404.756,205.122-477.494,304.22c0,0,3.351-56.807,29.014-116.233c6.181-14.496,13.806-29.226,23.027-43.492
		c96.285-44.194,232.714-128.109,265.269-259.042c8.799-35.925,13.073-69.889,13.324-102.436l20.428-6.189
		c4.275-1.415,69.64-21.892,133.81-65.864C1680.2,1396.327,1717.762,1490.188,1679.969,1576.951"/>
	<path fill="#3E665C" d="M1181.546,1793c-8.761,19.955-19.928,38.736-32.537,56.334
		c-94.379,133.104-273.568,202.012-273.568,202.012c5.931-91.26,72.47-159.481,143.07-206.76l101.252-29.726
		C1123.094,1813.898,1147.332,1806.783,1181.546,1793"/>
	<path fill="#3E665C" d="M850.584,2006.631c0,0-232.211,101.146-210.646,320.121c21.563,218.965,132.057,180.659,132.057,180.659
		s2.291-6.525,28.843-52.926c26.528-46.478,56.352-179.142,49.748-267.067C843.961,2099.496,826.443,2056.304,850.584,2006.631"/>
	<path fill="#3E665C" d="M3214.418,2990.395c-87.004,170.898-152.832,353.919-166.636,382.923
		c-13.767,29.017-126.415,31.362-177.995,20.893c-49.44-9.981-11.879-69.872-9.028-74.615
		c-35.888,29.947-20.679,78.659-20.679,78.659s-42.55,6.645-73.199-6.901c-140.703-62.034,155.199-212.218,155.199-212.218
		c62.264-116.944,24.72-341.098-134.521-403.352c-14.498-5.689-29.459-12.623-45.168-20.697
		c-156.183-81.269-355.8-270.698-355.8-270.698s-42.317,4.296-120.504,23.027c-41.817,10.021-94.108,24.258-155.93,44.243
		c-176.803,57.287-622.472,131.871-679.287,171.859c-56.548,39.644,47.325,344.855,47.325,344.855
		c-137.141,114.294-145.477,409.007-145.477,409.007c-116.942,92.021-332.751,73.472-398.115,65.146
		c-12.592-1.414-28.978-32.55-26.627-45.168c6.662-35.379,43.993-45.397,57.758-48.007c-89.604,10.463-67.712,87.736-67.712,87.736
		c-3.333,1.182-6.912,1.903-10.956,2.114c-27.068,3.102-59.436-48.255-51.097-74.133c39.469-123.363,253.389-125.5,253.389-125.5
		c78.167-362.707-179.227-694.305-179.227-694.305l7.605-30.372l-102.655-104.821c70.561-115.993,69.155-317.1,63.92-409.513
		l13.303-5.229c6.201-2.414,125.973-49.21,225.549-140.701l-8.047,138.797l94.322-128.842
		c27.567-37.574,104.833-75.309,186.6-115.249c100.521-49.192,214.365-104.833,287.563-184.945
		c19.272-20.919,34.481-44.175,44.937-68.703c2.851-6.392,5.257-12.553,7.163-18.964c140.663,15.2,260.938,162.072,260.938,162.072
		c-60.146-5.93-154.218,30.912-154.218,30.912c238.354,181.095,634.831,169.484,867.021,197.506
		c188.721,22.805,247.922,243.388,262.17,347.009c3.544,23.988,4.735,41.845,4.253,49.45
		c-1.904,40.149,14.035,180.131,104.104,322.524C3164.746,2828.343,3214.418,2990.395,3214.418,2990.395"/>
	<path fill="#3E665C" d="M1718.955,1071.896c-52.444-143.839-363.401-225.213-483.694-249.462
		c252.715,23.778,324.626,63.833,324.626,63.833s101.135-191.306-120.68-269.294c-73.22-25.748-136.928-4.062-136.928-4.062
		l-52.982,16.433c-45.612,14.236-172.547,57.961-220.333,91.471l-1.425,1.176l-6.643,4.333l-27.09,26.599l-27.82-24.742
		c-0.229,0-10.435-5.456-23.988-5.456c-18.291,0-36.853,9.53-54.893,28.753l-14.518,15.461c4.988,14.034,7.837,27.8,7.837,27.8
		c8.067,47.508-7.585,86.484-42.993,105.525c-39.237,21.159-51.135,35.435-54.696,40.645
		c10.224,22.595,57.259,96.768,97.689,156.855l18.059,27.106l-16.151,22.584c10.453,6.142,20.194,12.832,28.975,19.705
		c4.275,3.351,8.568,6.66,12.611,10.021c4.063,3.073,7.856,6.401,11.648,10.216c3.792,3.087,7.373,6.64,10.686,10.23
		c3.121,3.082,6.198,6.152,9.299,9.523c0.23,0.682,0.923,1.375,1.635,2.069c2.62,3.138,5.257,6.208,7.375,9.077
		c5.7,6.854,10.688,14.248,15.211,21.391c2.618,4.035,4.755,7.788,6.911,11.869c2.368,4.043,4.254,8.328,6.181,12.612
		c1.424,3.077,2.831,5.929,4.025,9.038c4.755,12.353,8.316,24.451,10.684,36.358c60.842,38.757,101.983,79.612,128.843,120.496
		c0,0,0,0.212,0.229,0.212c19.485,24.02,35.176,55.362,38.758,96.274c0.231,0.232,0.231,0.461,0.231,0.703
		c23.278,132.403-69.175,242.454-69.175,242.454s286.64-83.906,331.094-263.121c82.711-333.677-294.706-517.39-316.115-527.409
		c372.663,123.132,381.924,385.05,381.924,385.05S1793.138,1275.362,1718.955,1071.896"/>
	<path fill="#3E665C" d="M851.528,1187.019c0,0-99.422,80.324-118.772,165.952c-19.329,85.628-53.851,187.882-151.905,280.363
		c-98.074,92.578-249.925,162.274-103.601,544.227c81.519,212.688,121.546,96.67,121.546,96.67s28.993-111.852,74.586-149.146
		c45.571-37.302,64.899-95.318,53.87-154.694c-11.09-59.397-9.185-197.5,55.487-261.036
		c64.671-63.542,206.683-232.557,173.22-390.49C935.51,1222.435,851.528,1187.019,851.528,1187.019"/>
	<path fill="#3E665C" d="M1007.42,1386.49c0,0,11.091,85.08-46.418,173.914c-57.548,88.834-79.959,115.307-119.813,168.252
		c-19.888,26.454-33.5,47.699-42.646,73.72c-9.125,25.974-13.782,56.7-15.807,102.041c-4.043,90.76-13.477,90.76-13.477,90.76
		s79.359-26.482,127.569-115.354c48.209-88.795,152.176-100.146,152.176-100.146S1246.312,1495.933,1007.42,1386.49"/>
	<path fill="#3E665C" d="M1049.641,3295.132c-72.025,7.564-220.793,37.532-258.588,155.421c-5.929,19.039-3.793,39.457,2.619,57.748
		c-52.984,5.008-120.042,9.029-124.529-1.412c-48.497-110.776,45.17-121.702,45.17-121.702
		c-94.128-2.869-75.838,105.524-75.838,105.524c-184.444-206.057,322.526-262.157,322.526-262.157
		c4.756-182.55-52.541-415.229-96.748-565.443l8.59,11.205C875.211,2677.136,1099.799,2971.141,1049.641,3295.132"/>
	<path fill="#3E665C" d="M2872.155,2916.713c-88.659,89.375-231.017,421.181-252.194,423.785
		c-45.147,5.02-206.738,33.263-216.502,5.02c-21.391-61.352,44.205-116.964,44.205-116.964
		c-78.916,13.557-69.387,102.93-69.387,102.93c-247.902-87.682,177.301-247.683,177.301-247.683
		c70.601-116.451,43.975-239.557-68.694-331.058c-65.347-53.244-116.945-145.247-148.787-212.739
		c13.303-2.615,24.239-4.502,32.807-5.704c52.06,47.775,214.383,192.261,349.847,262.619c17.6,9.062,33.75,16.666,49.692,22.825
		C2822.021,2839.94,2853.385,2879.871,2872.155,2916.713"/>
	<path fill="#3E665C" d="M3583.998,3302.026c-210.839,15.9-298.748-458.502-365.325-695.941
		c-47.96-170.197-150.675-271.91-204.854-315.625c-14.249-103.649-73.45-324.211-262.148-347.017
		c465.366,18.319,606.297,853.265,629.61,966.156c23.278,113.131,147.807,350.579,284.023,307.538
		c136.175-43.222,119.791-222.698,13.284-372.209c-106.222-149.489-303.968-355.575-250.733-556.623
		c53.022-200.828,217.465-180.632,318.696-116.694c101.252,63.939,58.722,192.021,5.255,263.833
		c-53.234,72.018-138.564,42.753-170.64-53.265c-31.823-96.003,183.942,2.618,104.084-117.403
		c-80.095-119.783-192.03-23.769-194.649,133.348c-2.617,157.289,306.586,445.399,357.202,602.735
		C3898.459,3157.974,3794.629,3286.072,3583.998,3302.026"/>
	<path fill="#3E665C" d="M662.252,1427.229c-20.928,56.537-54.447,115.924-113.863,171.804c-9.991,9.53-20.908,19.001-31.845,28.521
		c-25.646,22.326-49.942,44.948-71.083,70.121c0.231-14.498,2.389-30.662,6.912-47.796c11.88-45.119,28.054-80.786,43.743-116.424
		c1.657,0.223,3.544,0.223,5.218,0.223c52.062,0,124.549-34.704,156.394-98.403C658.923,1432.9,660.345,1430.272,662.252,1427.229"
		/>
</g>
</svg>
