<?xml version="1.0" encoding="utf-8"?>
<!-- Generator: Adobe Illustrator 16.0.0, SVG Export Plug-In . SVG Version: 6.00 Build 0)  -->
<!DOCTYPE svg PUBLIC "-//W3C//DTD SVG 1.1//EN" "http://www.w3.org/Graphics/SVG/1.1/DTD/svg11.dtd">
<svg version="1.1" id="Layer_1" xmlns="http://www.w3.org/2000/svg" xmlns:xlink="http://www.w3.org/1999/xlink" x="0px" y="0px"
	 width="4000px" height="4000px" viewBox="0 0 4000 4000" enable-background="new 0 0 4000 4000" xml:space="preserve">
<g>
	<polygon fill="#666741" points="2005.967,2117.234 2005.967,2651.239 1824.41,2370.111 	"/>
	<path fill="#666741" d="M3096.812,1359.873l-1087.446-353.534h-6.474l-767.328,249.452l-166.314,53.991l-154.109,50.09
		c-43.852,432.411,42.728,1078.966,122.463,1543.604c11.594,67.89,23.188,131.846,34.208,190.64l13.026,68.462
		c13.023,68.711,25.149,128.959,34.778,177.338c18.104,86.822,29.411,137.443,29.411,137.443
		c188.93,191.46,856.938,346.438,856.938,346.438s668.359-154.978,857.265-346.438
		C2863.229,3477.36,3172.33,2102.557,3096.812,1359.873 M2002.892,2787.843l-282.857-417.734l282.857-417.747l282.515,417.747
		L2002.892,2787.843z M2069.338,3448.202c0,35.086-28.267,63.363-63.371,63.363c-35.067,0-63.332-28.277-63.332-63.363
		c0-35.044,28.265-63.342,63.332-63.342C2041.071,3384.862,2069.338,3413.156,2069.338,3448.202 M2005.967,1269.073
		c35.104,0,63.371,28.554,63.371,63.351c0,35.065-28.267,63.332-63.371,63.332c-35.067,0-63.332-28.266-63.332-63.332
		C1942.634,1297.627,1970.899,1269.073,2005.967,1269.073 M1005.92,1418.664l797.272-204.442
		c-55.448,17.512-654.737,204.719-654.737,217.185c0,12.984-15.278,35.641,19.498,36.774c34.534,1.136,134.899-8.757,134.899-8.757
		s-224.528,55.147-229.072,86.517c-4.221,31.379-19.193,63.638,19.519,68.146c39.041,4.25,181.595-6.483,181.595-6.483
		s-191.202,58.263-191.202,88.545c0,30.243,10.773,55.108,48.647,55.108c36.213,0,160.64-17.789,171.128-19.193
		c-12.74,3.657-216.661,63.608-216.661,95.878c0,33.62,5.365,58.25,52.024,55.138c44.445-3.113,147.902-19.223,156.998-20.338
		c-11.882,3.912-204.764,67.549-202.53,96.982c2.272,30.274,4.26,54.023,55.157,57.402c44.119,2.847,149.604-22.347,175.638-28.563
		c-35.044,10.467-209.246,64.756-209.246,99.83c0,38.724,7.597,63.642,44.364,57.136c36.744-6.495,176.188-17.247,176.188-17.247
		s-223.728,64.774-223.728,87.653c0,22.653-2.253,49.516,47.54,47.52c49.771-2.254,137.168-7.619,137.168-7.619
		s-179.322,55.148-175.922,96.166c3.113,40.982,7.354,52.895,51.74,58.271c44.424,5.367,106.916-5.376,106.916-5.376
		s-144.79,43.289-141.389,72.395c3.093,29.116,9.586,54.021,47.498,54.021c37.89,0,150.177-10.734,150.177-10.734
		s-177.294,46.354-176.188,77.761c1.126,31.412,12.986,64.756,46.393,63.607c31.09-1.105,140.835-20.325,157.772-23.167
		c-22.881,7.09-207.016,64.48-204.166,96.71c3.377,34.543,10.772,51.778,46.392,59.4c35.658,7.628,150.177-7.048,150.177-7.048
		s-162.938,46.086-172.81,67.569c-9.609,21.477,3.398,73.563,36.765,72.396c31.38-1.115,106.652-12.443,115.951-13.865
		c-10.466,3.708-122.137,44.69-138.584,54.882c-17.265,10.752,0,57.421,15.015,72.396c14.132,14.184,139.115-5.357,156.955-8.162
		c-16.405,5.367-122.728,39.027-141.715,46.074c-20.604,7.362-10.731,74.394,7.64,99.259
		c16.979,23.192,188.947-18.65,211.563-24.019c-21.221,6.773-194.848,65.311-206.198,79.163
		c-11.838,14.984,9.647,60.567,21.528,74.691c11.86,13.854,217.215-27.173,217.215-27.173l-230.774,67.031
		C1005.92,2540.071,1005.92,1418.664,1005.92,1418.664 M2005.967,3691.155l-650.189-270.369l647.116,197.111l627.293-197.111
		L2005.967,3691.155z"/>
	<polygon fill="#666741" points="1085.084,842.921 975.563,939.996 1167.604,1147.704 1338.325,1092.158 	"/>
	<polygon fill="#666741" points="831.88,1067.793 966.489,1213.177 1132.827,1159.156 941.32,970.546 	"/>
	<path fill="#666741" d="M1161.317,521.615L870.92,783.44L462.646,330.596c11.348-21.731,17.862-46.4,17.862-72.618
		c0-86.886-70.457-157.295-157.305-157.295c-86.866,0-157.306,70.409-157.306,157.295c0,86.866,70.438,157.313,157.306,157.313
		c18.599,0,36.377-3.422,52.927-9.351l409.625,454.296L489.336,1127.5l76.767,85.205l672.022-605.916L1161.317,521.615z"/>
	<path fill="#666741" d="M2970.865,3424.559c272.664,243.787,737.916,476.578,752.332,483.625
		c-106.647-246.339-670.302-920.002-670.302-920.002c-11.592,67.878-23.163,131.78-34.204,190.598l123.283,175.094l-136.313-106.629
		C2992.659,3315.968,2980.49,3376.227,2970.865,3424.559"/>
	<polygon fill="#666741" points="2917.123,842.921 3026.637,939.996 2834.617,1147.704 2663.879,1092.158 	"/>
	<polygon fill="#666741" points="3170.343,1067.793 3035.713,1213.177 2869.416,1159.156 3060.885,970.546 	"/>
	<path fill="#666741" d="M2840.862,521.615l290.4,261.823l408.271-452.844c-11.326-21.731-17.816-46.4-17.816-72.618
		c0-86.886,70.441-157.295,157.305-157.295c86.864,0,157.283,70.409,157.283,157.295c0,86.866-70.419,157.313-157.283,157.313
		c-18.616,0-36.396-3.421-52.966-9.35L3216.47,860.237l296.418,267.264l-76.787,85.205l-672.024-605.916L2840.862,521.615z"/>
	<path fill="#666741" d="M1031.337,3424.559c-272.659,243.787-737.914,476.578-752.335,483.625
		c106.654-246.339,670.324-920.002,670.324-920.002c11.573,67.878,23.166,131.78,34.208,190.598l-123.303,175.094l136.31-106.629
		C1009.566,3315.968,1021.711,3376.227,1031.337,3424.559"/>
</g>
</svg>
