<?xml version="1.0" encoding="utf-8"?>
<!-- Generator: Adobe Illustrator 16.0.0, SVG Export Plug-In . SVG Version: 6.00 Build 0)  -->
<!DOCTYPE svg PUBLIC "-//W3C//DTD SVG 1.1//EN" "http://www.w3.org/Graphics/SVG/1.1/DTD/svg11.dtd">
<svg version="1.1" id="Layer_1" xmlns="http://www.w3.org/2000/svg" xmlns:xlink="http://www.w3.org/1999/xlink" x="0px" y="0px"
	 width="4000px" height="4000px" viewBox="0 0 4000 4000" enable-background="new 0 0 4000 4000" xml:space="preserve">
<g>
	<line fill="#5F3E66" x1="1860.76" y1="3640.744" x2="1860.535" y2="3640.531"/>
	<path fill="#5F3E66" d="M1985.525,3627.926h-191.762c-11.498,0-52.297,0.845-99.692,11.756
		c-102.191,23.572-168.219,77.844-190.38,155.064H1191.39c0-137.805,138.879-164.368,138.879-164.368
		c-176.964,0-170.391,139.477-170.391,139.477H973.83c0-167.683,192.597-181.134,192.597-181.134s172.857,5.243,288.738-33.137
		c115.887-38.052,55.37-47.938,155.87-415.255c65.483-238.895-38.897-618.849-120.246-855
		c39.712,56.148,79.448,110.078,118.642,161.879c181.324,240.236,295.288,396.15,346.251,533.38
		c5.245,14.266,9.872,28.485,13.734,42.729c-61.127,114.503-108.517,265.731-108.517,265.731l-115.368-74.772
		c-64.333,232.334-104.092,374.206-106.824,381.015c2.235-0.51,15.882-1.332,82.746-1.332h174.799
		C1896.253,3593.964,1953.47,3584.927,1985.525,3627.926"/>
	<path fill="#5F3E66" d="M1627.211,1216.955l457.212,1167.014c-256.413-208.23-464.327-413.412-554.438-585.462
		c-306.538-584.332-15.9-973.887,317.205-802.616c10.709,5.684,17.552,9.544,20.285,11.185c0.543,0.272,0.837,0.552,1.084,0.552
		l0.273,0.27c26.29,15.363,52.88,34.283,79.172,56.711c64.13,55.073,154.243,148.765,261.36,269.313l45.472,129.56l400.466,1138.002
		L1627.211,1216.955z"/>
	<path fill="#5F3E66" d="M3208.968,3643.545l-320.497-121.081l-314.762-706.787c12.851,9.351,25.73,18.116,38.333,26.837
		c50.396,34.807,104.363,71.259,168.518,113.996v0.273c0,0,6.302,4.088,15.022,9.847c19.151,12.572,50.957,33.713,60.02,39.464
		v0.248l12.874,8.516l47.688,87.908l120.808,223.003L3208.968,3643.545z"/>
	<line fill="#5F3E66" x1="2655.3" y1="2601.484" x2="2254.834" y2="1463.482"/>
	<path fill="#5F3E66" d="M2630.112,3863.795h-824.267c0-138.635,140.238-157.53,140.238-157.53
		c-176.133,0-165.719,143.827-165.719,143.827h-230.954c4.135-101.324,88.209-141.613,156.996-157.515
		c48.452-11.214,89.297-10.393,89.297-10.393h249.817c0,0-20.78-155.03-2.438-430.124c7.388-109.844-1.924-197.513-36.461-290.367
		c-52.027-139.961-160.815-291.492-353.91-547.329c-84.664-111.752-166.325-227.636-241.638-340.245
		c-210.669-315.889-371.46-608.695-408.147-733.895c-4.407-14.796-7.977-30.417-10.754-46.897
		c-30.899-171.487,10.754-414.707,10.754-414.707c8.201,80.778,152.861,250.395,152.861,250.395
		c-33.452-125.217,38.898-342.176,38.898-342.176c25.164,80.826,175.317,133.707,175.317,133.707
		c-8.49-139.162,72.311-242.169,72.311-242.169c7.092,24.092,155.057,63.297,255.574,138.079
		c39.194,29.308,69.331,65.747,91.767,98.612c-32.846-9.622-65.443-14.241-97.769-14.241c-113.67,0-214.805,59.139-277.286,162.463
		c-111.14,184.07-85.975,468.392,67.158,760.452c92.299,175.836,308.189,398.285,642.128,661.545l0.294,0.304l11.477,9.047
		c16.194,12.874,32.886,25.458,49.583,38.64l107.414,84.338l-1.652-4.371c68.469,51.231,140.26,102.736,214.192,154.782
		c-95.868-18.907-145.157,2.182-145.157,2.182v551.462c-42.762-100.813-172.904-85.476-172.904-85.476v458.315h287.434
		C2648.773,3694.505,2630.112,3863.795,2630.112,3863.795"/>
	<path fill="#5F3E66" d="M2123.884,2485.282c3.842,2.781,7.682,6.01,11.771,9.351l-11.477-9.045L2123.884,2485.282z"/>
	<path fill="#5F3E66" d="M2825.714,2921.464c-60.518-40.29-121.646-81.402-182.704-123.6
		c-15.605-10.672-31.218-21.356-46.558-32.282c-146.85-101.684-292.059-207.664-427.074-313.708l-341.642-873.062l772.805,1039.613
		l82.5,110.971L2825.714,2921.464z"/>
	<path fill="#5F3E66" d="M3849.173,3549.877c-10.096-5.478-233.684-130.95-539.658-319.473
		c-122.754-75.592-258.879-161.343-399.651-253.357v-0.318c-27.988-18.062-55.937-36.696-84.149-55.321l-77.255-219.423
		l-442.39-1256.562L3849.173,3549.877z"/>
	<path fill="#5F3E66" d="M3735.23,3910.087l-413.135-172.037l-358.312-661.298c101.875,65.713,208.25,132.614,317.269,200
		c32.279,19.989,63.203,38.876,93.38,57.249L3735.23,3910.087z"/>
	<path fill="#5F3E66" d="M1763.922,678.33c-21.393-42.693-62.752-46.239-66.01-65.996c-3.569-19.449,21.369-56.967,94.247-53.399
		c0,0-241.933-90.7-136.985-190.103c0,0-151.233-19.754-147.665-231.485c0,0-117.238,58.869-202.739,46.297
		c-85.479-12.377-252.554-30.188-346.793,32.022c-94.246,62.223-359.419-12.357-489.266,30.394
		c-129.847,42.491-206.287,98.908-215.325,230.977c0,0,80.535-126.073,214.758-143.578c134.273-17.553,374.759,9.32,374.759,9.32
		s-303.511-14.81-378.825,6.876c-75.088,21.336-143.597,72.239-174.55,118.031c0,0,53.743-30.938,119.457-25.503
		c66.003,5.488,526.536,6.875,558.838,71.279c32.078,64.324,48.232,103.291,0,217.479c-27.128,63.862-45.742,183.035-37.813,308.482
		c6.325-92.854,17.801-164.35,19.175-169.849c24.645-91.769,72.085-123.293,74.816-121.091l32.846,124.681
		c6.301,21.881,18.392,50.928,42.196,88.19c12.359-93.996,39.216-177.247,44.12-191.76l53.152-159.732l50.103,160.806
		c6.844,21.673,38.085,46.61,73.413,66.872c17.553-112.346,76.741-188.778,79.744-192.573l64.923-83.039
		c0,0,11.205,68.773,25.482,86.315c8.467,10.639,34.22,16.141,52.586,24.102c53.991,23.549,127.674,55.876,187.671,100.546
		c14.798,10.967,28.463,22.725,40.799,34.787c28.237-5.805,59.158-15.336,82.747-30.958
		C1853.784,776.72,1785.019,721.092,1763.922,678.33 M1102.862,320.897c-54.487,22.411-79.674-36.208-79.674-36.208
		s36.689-52.024,104.093-44.388C1127.281,240.301,1157.123,298.378,1102.862,320.897"/>
</g>
</svg>
