<?xml version="1.0" encoding="utf-8"?>
<!-- Generator: Adobe Illustrator 16.0.0, SVG Export Plug-In . SVG Version: 6.00 Build 0)  -->
<!DOCTYPE svg PUBLIC "-//W3C//DTD SVG 1.1//EN" "http://www.w3.org/Graphics/SVG/1.1/DTD/svg11.dtd">
<svg version="1.1" id="Layer_1" xmlns="http://www.w3.org/2000/svg" xmlns:xlink="http://www.w3.org/1999/xlink" x="0px" y="0px"
	 width="4000px" height="4000px" viewBox="0 0 4000 4000" enable-background="new 0 0 4000 4000" xml:space="preserve">
<g>
	<path fill="#97805C" d="M3486.146,3284.127c-29.799-37.214-106.184-199.319-109.975-247.766c0,0,46.625,42.851,52.262,68.96
		c0,0-13.07-130.216-46.521-163.908c3.65,2.053,61.504,35.873,65.047,53.938c0,0,11.254-70.785-3.648-149.034
		c-14.877-78.25,74.072-440.994-14.877-576.576c-122.064-186.015-221.537-183.335-296.846-323.102
		c-75.193-139.75-285.871-702.317-505.814-903.946c0,0,146.354-27.702,234.463-115.706c-10.492,2.066-305.627,62.615-459.768-32.363
		c0,0,281.551-75.188,343.951-197.735c0,0-477.123,113.901-694.258,19.285c0,0,215.67-60.164,342.217-184.059
		c0,0-317.318,81.541-475.51,55.191c0,0,140.606-76.306,198.59-252.789c-7.338,4.994-243.041,166.588-450.644,202.856
		c0,0,63.205-94.838,84.37-176.623c0,0-166.133,145.013-253.177,176.623c0,0,11.854-167.088,31.009-243.636
		c0,0-131.445,148.194-157.704,243.771c0,0-28.666-176.496-9.764-219.713c-6.475,5.365-213.114,178.8-253.133,312.943
		c0,0-136.235-129.145-76.404-305.865c0,0-148.2,160.016-129.166,353.606c0,0-293.913-26.266-379.837-203.111
		c0,0,40.53,215.072,131.348,289.161c0,0-164.787-31.136-241.319-117.046c0,0,52.602,140.968,129.021,227.015
		c0,0-356.044-64.572-485.039,52.489c0,0,303.422-9.532,403.866,74.076c0,0-196.021-9.518-298.783,81.303
		c0,0,425.369,62.105,470.751,277.19c45.432,215.059-13.279,256.684-29.289,329.186c-15.971,72.5-23.175,108.742-68.102,134.869
		c-45.036,26.122-155.233,134.85-175.526,208.84c-18.058,66.165-59.547,182.225-183.541,189.197
		c189.289,225.917,218.962,290,220.907,314.534c44.545-4.4,99.73-13.564,133.399-32.965c0,0,94.492,36.987,196.873-3.769
		c0,0-12.927,73.09-57.476,103.978c0,0,75.416-6.354,99.347-51.988c0,0,0,118.748-111.294,204.562
		c0,0,142.181-51.514,178.181-85.813c0,0,40.173,51.508-76.403,153.692c0,0,136.229-50.195,206.154-120.118
		c0,0-1.823,155.985,64.582,322.6c0,0,25.02-118.274,75.322-166.614c0,0,25.477,123.033,114.11,257.542
		c88.601,134.511,275.229,309.899,264.835,397.911c0,0-63.075,29.171-122.504,92.39c-17.859,18.924-35.307,40.777-50.54,65.929
		c0,0,19.278,16.576,48.321,10.223c2.929-5.973,33.94-66.157,81.767-70.05c-3.399,3.437-61.024,46.143-63.454,89.957
		c1.571,0,111.187,12.823,173.333-62.593c62.346-76.044,129.965-120.005,129.965-120.005s63.454-272.793,184.066-363.234
		c0,0,19.659,70.552,85.082,102.031c0,0-15.76-33.803-15.76-65.3c0,0,178.076,105.95,290.859,103.747
		c0,0-47.359-22.569-56.373-51.885c0,0,369.824,90.21,478.094,63.12c0,0-42.857-20.266-67.623-38.328
		c0,0,149.031-14.4,238.133-80.776c0,0-41.365,4.122-64.209,2.049c0,0,34.531-8.274,88.492-49.688
		c32.838-25.248,92.52,31.015,154.898,92.033c40.023,39.064,81.057,80.199,116.707,102.765
		c91.15,58.107,164.871,229.73,164.871,229.73s-61.99,6.578-126.564,69.573c-13.424,13.071-26.961,28.566-40.158,46.978
		c0,0,20.871,20.032,46.986,11.256c0,0,55.775-50.292,84.721-48.347c0,0-51.992,32.336-76.912,81.053
		c0,0,171.982,16.706,242.768-39.06c0,0,26.115-85.809,54.086-104.376C3461.984,3584.392,3515.938,3321.365,3486.146,3284.127
		 M768.534,1708.404c0,0-10.733-79.714,59.575-99.975c70.054-20.265,77.259-3.673,96.309-27.243
		C924.417,1585.358,923.228,1723.534,768.534,1708.404 M999.962,1135.581c0,0-35.019-163.186,38.675-362.509
		C1029.888,801.636,989.738,941.854,999.962,1135.581 M1329.998,1085.774c-61.729-217.986-267.42-344.314-280.106-352.017
		C1351.876,843.264,1329.998,1085.774,1329.998,1085.774"/>
	<path fill="#66553F" d="M4000,2619.063c0,0-35.264,21.833-100.684-25.524c-65.57-47.46-137.32-65.421-137.32-65.421
		s15.51,29.669,40.777,38.685c-5.613-1.575-83.254-24.899-114.27-60.163c-32.104-36.732-133.873-39.285-175.873-55.531
		c-3.041-1.241-6.35-2.204-9.762-3.188c-0.721-30.512-2.934-60.031-7.441-87.636c10.502,4.273,22.568,7.818,36.373,10.398
		c105.346,19.64,165.742,19.399,215.67,53.813c0,0-28.307,7.076-34.047,14.389c0,0,124.141,36.505,172.588,88.146
		C3934.453,2578.636,3965.471,2611.976,4000,2619.063"/>
	<path fill="#66553F" d="M360.708,2538.76c-8.932,30.133-132.316,26.24-233.357-61.164
		c-100.958-87.262-117.808-233.113-98.989-297.551c18.923-64.597,98.989,39.411,98.989,39.411s0.208,0.241,0.582,0.862
		C141.997,2236.901,369.382,2509.47,360.708,2538.76"/>
	<path fill="#66553F" d="M1447.308,3495.06c-25.396,14.526-69.567,43.57-112.065,88.85c-5.088,5.387-9.978,10.857-14.883,16.475
		c-37.458-9.516-57.227-23.301-57.227-23.301c55.172-72.74,137.907-117.915,137.907-117.915s-12.449-30.009-80.179-115.359
		c-27.829-35.013-50.163-79.419-66.658-119.718c16.24,20.368,33.215,41.015,49.815,61.375
		C1363.447,3357.85,1435.824,3445.987,1447.308,3495.06"/>
	<path fill="#66553F" d="M3228.352,3545.229c-27.578,10.726-64.682,30.51-102.008,66.864c-3.18,3.187-6.365,6.373-9.408,9.645
		c-23.322-13.419-38.221-28.186-38.221-28.186c44.803-63.221,111.336-84.571,111.336-84.571
		c-14.67-49.081-93.127-122.678-125.145-157.106c-4.609-4.882-9.389-10.854-14.02-17.435c14.518,12.45,28.943,23.538,42.727,32.34
		C3147.328,3400.93,3199.561,3488.457,3228.352,3545.229"/>
</g>
</svg>
