<?xml version="1.0" encoding="utf-8"?>
<!-- Generator: Adobe Illustrator 16.0.0, SVG Export Plug-In . SVG Version: 6.00 Build 0)  -->
<!DOCTYPE svg PUBLIC "-//W3C//DTD SVG 1.1//EN" "http://www.w3.org/Graphics/SVG/1.1/DTD/svg11.dtd">
<svg version="1.1" id="Layer_1" xmlns="http://www.w3.org/2000/svg" xmlns:xlink="http://www.w3.org/1999/xlink" x="0px" y="0px"
	 width="2000px" height="2000px" viewBox="0 0 2000 2000" enable-background="new 0 0 2000 2000" xml:space="preserve">
<g>
	<path fill="#476870" d="M867.416,1289.045l-23.823,10.107l13.982,25.797c-43.893,182.674-27.851,451.195-27.851,451.195
		c-171.317-241.018-38.033-447.281-161.92-481.955c-143.025-40.088-202.354-106.684-225.5-144.279
		c154.296,28.73,299.459,43.373,431.677,43.373c13.568,0,27.573-0.184,41.946-0.539
		C895.534,1215.895,879.743,1249.502,867.416,1289.045"/>
	<path fill="#476870" d="M1687.72,1368.719c-121.931-87.705-298.137-166.18-440.989-221.953
		c98.521-26.953,196.508-68.451,283.143-131.066C1683.195,1180.102,1687.72,1368.719,1687.72,1368.719"/>
	<path fill="#6394A0" d="M977.361,458.416c-93.826,19.375-177.912,48.303-249.96,86.129c-3.982,2.039-8.065,4.172-11.958,6.305
		l-16.133,8.814c-0.738-0.285-1.569-0.65-2.406-1.027c-4.454-2.127-8.995-4.168-13.539-6.209
		c-3.335-25.492-8.525-51.82-16.032-78.336c0,0,48.574-37.555,97.339-49.143c0,0-49.229,7.23-102.535,32.357
		c-6.585-20.307-14.651-40.613-24.571-60.451c18.347-11.121,43.58-24.109,68.886-30.135c0,0-32.728,4.824-73.894,20.209
		c-25.581-47.932-61.935-92.982-112.921-130.074C519.637,256.855,788.317,228.02,977.361,458.416"/>
	<path fill="#969696" d="M687.537,596.68c0.087-0.082,0.087-0.082,0.188-0.082c-0.102,0.082-0.102,0.174-0.188,0.174V596.68z"/>
	<path fill="#6394A0" d="M796.792,634.988c-29.263-14.984-61.281-30.768-95.594-46.73c-4.882-2.393-9.843-4.617-14.811-6.83
		c-62.692-28.904-132.389-58.082-206.612-84.326c-6.124-2.215-12.246-4.428-18.451-6.471
		c-141.523-48.861-298.04-86.637-451.627-91.512c0,0,145.878,82.902,301.505,202.178c22.343,17.195,44.961,35.115,67.396,53.738
		c45.665,37.686,90.443,78.035,130.969,119.793c41.24,42.48,78.034,86.383,106.678,130.537
		c94.352-70.238,206.608-132.572,333.691-185.248C917.298,700.432,864.358,669.758,796.792,634.988"/>
	<path fill="#476870" d="M595.668,919.906c-41.055,30.242-79.541,66.768-111.029,99.58c-0.88,0.982-1.765,1.953-2.737,2.834
		c-22.344,23.6-41.057,45.137-54.273,60.924c-0.44,0.535-0.881,1.15-1.421,1.682v-0.17c0.097-0.086,0.097-0.086,0.185-0.182v-0.082
		c-0.088-3.287-0.185-6.738-0.185-10.371c0-2.934,0.097-5.68,0.097-8.262c0-3.088,0-6.387,0.17-9.746
		c0.096-3.008,0.181-4.789,0.181-4.789c1.778-47.799,10.465-115.285,38.665-187.727c0-0.088,0.088-0.088,0.088-0.174
		c8.422-21.727,18.614-43.9,30.946-66.156c40.609,42.471,73.865,83.354,98.788,121.754L595.668,919.906z"/>
	<path fill="#476870" d="M990.31,693.205c-6.122-16.387-10.393-33.59-11.068-51.025c-1.171-17.365,0.974-34.883,6.424-51.459
		c3.407,8.322,5.063,16.439,7.688,24.348c2.663,7.902,4.385,15.762,7.106,23.375c4.428,15.4,9.995,30.145,15.414,44.857
		c1.157,3.107,2.368,6.191,3.608,9.266c6.537-2.449,13.084-4.863,19.636-7.246c-0.812-1.914-1.586-3.844-2.315-5.791
		c-6.132-16.383-10.402-33.59-11.086-51.025c-1.157-17.365,0.973-34.883,6.422-51.453c3.416,8.32,5.076,16.432,7.691,24.348
		c2.667,7.902,4.389,15.756,7.124,23.369c4.424,15.4,9.988,30.145,15.401,44.859c0.811,2.18,1.65,4.348,2.504,6.51
		c6.586-2.307,13.178-4.58,19.772-6.82c-0.464-1.148-0.917-2.301-1.352-3.461c-6.122-16.385-10.385-33.586-11.082-51.027
		c-1.166-17.365,0.982-34.883,6.434-51.459c3.398,8.316,5.064,16.439,7.69,24.354c2.673,7.893,4.381,15.756,7.11,23.371
		c4.421,15.406,9.985,30.145,15.411,44.857c0.584,1.572,1.187,3.135,1.793,4.697c310.943-101.639,624.688-133.766,780.325-143.861
		c-395.579-76.357-684.932-77.594-896.33-36.182c-102.436,19.961-186.684,50.014-255.748,86.281
		c-3.813,1.953-7.624,3.996-11.349,6.035c26.415,12.408,53.652,25.799,80.688,39.717c68.197,35.031,121.766,66.078,154.655,85.93
		l16.055,9.666c5.036-2.008,10.082-3.992,15.132-5.959C992.715,699.295,991.461,696.27,990.31,693.205z M1393.399,513.148
		l85.224,24.301C1387.28,596.777,1393.399,513.148,1393.399,513.148z"/>
	<path fill="#6394A0" d="M1120.469,683.795c2.303,5.113,4.67,10.221,7.075,15.35c6.85,14.521,14.198,28.893,22.442,44.262
		c-16.156-7.189-29.385-19.252-40.506-32.637c-4.85-5.973-9.334-12.277-13.361-18.867c-7.115,2.41-14.229,4.857-21.336,7.344
		c2.049,4.52,4.144,9.037,6.273,13.574c6.855,14.52,14.199,28.893,22.453,44.264c-16.164-7.193-29.395-19.26-40.516-32.639
		c-4.316-5.318-8.34-10.906-12.012-16.721c-7.158,2.596-14.309,5.229-21.451,7.902c1.654,3.615,3.34,7.234,5.043,10.863
		c6.852,14.525,14.201,28.896,22.45,44.268c-16.157-7.195-29.392-19.258-40.501-32.629c-3.57-4.393-6.938-8.969-10.073-13.705
		c-6.862,2.66-13.716,5.355-20.557,8.092c-3.109,1.246-6.307,2.482-9.4,3.811C853.404,786.07,734.404,848.598,629.677,926.711
		c-4.524,3.287-9.04,6.652-13.481,10.107l-0.169,0.184C545.7,991,482.298,1052.189,428.91,1121.711
		c99.325,19.244,191.178,31.834,276.05,39.025c20.49,1.768,40.525,3.186,60.211,4.25c65.979,3.734,127.435,4.07,184.721,1.512h0.081
		c602.644-26.781,739.646-369.252,739.646-369.252c256.275-106.139,300.26-253.078,302.219-259.822l0.08-0.086
		C1991.918,537.338,1555.746,541.563,1120.469,683.795z"/>
</g>
</svg>
