<?xml version="1.0" encoding="utf-8"?>
<!-- Generator: Adobe Illustrator 19.0.0, SVG Export Plug-In . SVG Version: 6.00 Build 0)  -->
<svg version="1.1" id="Layer_1" xmlns="http://www.w3.org/2000/svg" xmlns:xlink="http://www.w3.org/1999/xlink" x="0px" y="0px"
	 viewBox="0 0 1872.55 1872.55" style="enable-background:new 0 0 1872.55 1872.55;" xml:space="preserve">
<style type="text/css">
	.st0{fill:#674A44;}
	.st1{fill:#976E61;}
</style>
<g id="XMLID_15_">
	<path id="XMLID_24_" class="st0" d="M1436.39,838.24c-1.8,55.61-12.97,190.01-75.62,279.46
		c-64.79,92.55-133.12,254.88-165.25,323.21c-7.39-34.89-3.78-71.85-1.46-95.56c1.46-15.04,1.8-34.63,2.06-55.34
		c0.51-34.73,1.29-87.23,9.98-102.96c9.7-17.62,17.09-31.1,28.17-51.81l9.97,30.76c1.73-4.98,63.85-162.32,73.65-246.37
		c5.5-47.1,42.54-59.81,102.44-76.74C1425.65,841.34,1431.06,839.88,1436.39,838.24"/>
	<path id="XMLID_23_" class="st0" d="M553.67,1535.86c0,19.67-20.62,26.54-20.62,26.54c9.8-45.2-28.02-45.97-30.42-45.97
		c20.45,1.02,40.47,46.4,8.76,51.64c-24.49,3.96-114.29-1.2-154.42-3.69c1.27-8.94,1.02-19.08-0.79-30.25l-0.26-1.38
		c-5.58-26.04-31.02-45.71-67.71-52.76c-3.52-0.69-7.13-1.21-10.82-1.55c-0.26-2.4-0.52-4.82-0.78-7.3v-0.08
		c2.84-11.35,9.63-27.33,12.71-34.55c1.73-4.12,3.36-7.99,4.64-11.43l0.35-0.69l2.06-6.88c2.66-8.76,5.33-18.3,8.16-28.18
		c19.77-69.35,46.92-164.39,95.05-203.15c13.83-11.08,26.12-22.86,36.78-34.37l2.23,0.51c1.54,0.42,36.35,9.71,86.79,18.82
		c-22.24,38.41-64.02,117.38-62.12,166.28c2.57,66.51-34.71,133.97,12.63,138.35C536.84,1481.46,553.67,1516.09,553.67,1535.86"/>
	<path id="XMLID_22_" class="st0" d="M1270.13,343.98c3.36,30.16,19.58,79.14,62.46,111.56c0,0,70.18-80.82,62.79-141.79
		c0,0-12.2-7.26-27.51-14.21c-17.71-8.04-39.63-15.63-51.64-10.83c-6.94,2.79-14.27,6.23-21.08,10.57
		C1279.99,308.95,1267.72,323.09,1270.13,343.98"/>
	<path id="XMLID_21_" class="st0" d="M1816.39,289.46c0,0-28.96,35.83-48.03,36.52c-19.17,0.69-19.51-7.47-18.83-13.66
		c0.17-1.72,2.41-8.77,6.28-16.76C1765.95,274.85,1787.69,247.87,1816.39,289.46"/>
	<path id="XMLID_18_" class="st1" d="M1814.5,609.05c-6.1-1.72-12.38-4.21-18.73-7.14c-6.88-3.18-13.75-6.96-20.37-11.17
		c-53.53-33.86-58.61-86.88-62.64-115.58c-3.01-21.65,14.53-41.51,36.61-58.78c20.98-16.42,45.89-30.68,60.93-41.94
		c1.88-1.38,3.6-2.75,5.15-4.05c26.73-23.03,60.58-52.41,39.27-62.04c-4.39-1.97-15.9-9.88-25.95-14.87l-2.92,3.61
		c-5.42,6.7-33.69,40.22-57.06,41c-0.95,0.09-1.8,0.09-2.67,0.09c-10.91,0-18.56-2.76-23.54-8.25c-6.37-7.05-5.5-15.64-5.16-18.91
		c0.43-3.18,2.32-9.02,4.9-15.12c-19.25-1.56-32.41-13.5-49.93-31.11c-20.02-20.03-85.25-15.04-179.26-17.54
		c-67.81-1.9-102.01,17.18-124.7,35.06c11.08,5.49,18.99,10.22,19.42,10.48l10.22,6.1l1.47,11.86
		c8.5,69.78-60.69,151.67-68.58,160.69l-14.95,17.28L1317.89,475c-58.43-44.17-69.86-109.39-72.01-128.3
		c-1.45-13.24-0.08-36.7,22.26-57.33c-3.78-1.2-6.71-1.96-7.57-2.15c-63.84-11.25-131.47-23.97-188.62,9.63
		c-57.14,33.52-48.98,55.69-225.41,17.19c-176.42-38.5-316.84-26.12-540.44,69.6C82.5,479.29,74.59,607.51,75.2,655.29
		c0.77,47.77-27.33,140.67-45.72,168.6c-16.07,24.49-19.68,53.2-20.36,59.99c1.55-9.54,16.93-29.22,16.93-29.22
		c-22.52,72.36,5.41,176.59,11.95,218.36c6.52,41.76,49.06,111.37,38.49,149.87c-10.65,38.49-5.75,53.28-5.75,53.28
		c0.78-15.56,11.26-20.54,11.26-20.54s21.49,50.8,7.56,123.74c-13.92,72.79-31.63,201.01,23.71,205.55
		c73.56,5.93,145.92,15.9,164.22,6.46c17.53-8.95,3.87-40.04-5.76-46.75c5.59,3.52,26.55,21.57,21.91,44.78
		c0,0,16.76-8.09,13.67-25.97c-2.16-12.8-6.37-24.06-13.84-24.73c0,0,24.92-2.85,24.4,43.47c0,0,20.79-3,14.27-44.25
		c-3.95-18.48-26.99-29.83-48.72-34.03c-4.57-0.85-9.03-1.38-13.32-1.63c-1.71-0.18-3.27-0.43-4.81-0.87
		c-30.24-9.36-4.03-59.64,6.11-85.24c0.6-1.8,1.12-3.7,1.63-5.58c21.91-73.57,49.84-193.87,111.37-243.37
		c61.09-49.24,89.11-110.68,90.74-114.46c-5.75,31.11-30.24,76.13-30.24,76.13s39.01,10.4,94.01,19.84
		c40.55,7.06,89.79,13.41,138.53,14.78c114.63,3.18,240.53-79.47,240.53-79.47c-26.72-45.46-31.02-80.96-31.02-80.96
		c6.18,23.88,27.92,56.55,42.97,79.06c15.04,22.53-15.73,124.86-15.73,124.86c-8.84-8.85-27.23-8.17-27.23-8.17
		c22.42,30.43,33.43,67.21,34.03,69.54c-13.66-7.48-23.88-4.05-23.88-4.05c66.92,49.75,109.48,330.25,170.23,329.56
		c86.02-0.86,127.53,2.14,158.81-0.86c31.36-3.01,7.91-47.52-24.06-49.93c0,0,45.2-6.1,50.01,43.92c0,0,39.96-52.34-38.4-63.52
		c-22.18-3.19-27.59-32.9-34.63-51.82c-17.37-45.87-12.21-97.69-9.2-128.72c4.3-43.74-2.16-136.72,14.95-167.66
		c17.1-31.02,50.18-92.99,50.18-92.99c7.47,21.4,6.45,35.32,6.45,35.32s42.71-118.58,52.33-200.81
		c8.68-74.68,80.96-85.08,142.91-103.98c6.18-1.9,12.38-3.87,18.3-6.02c65.23-23.46,225.41-173.07,243.54-182.7
		c18.14-9.54,53.46,33.17,112.15,31.02c58.78-2.15,33.17-43.74,33.17-43.74C1835.73,613.35,1825.59,612.32,1814.5,609.05z
		 M1618.73,362.61c-11.16,12.42-40.49-15.41-37.51-30.8c2.99-15.41,41.25,0.99,41.25,0.99S1629.92,350.18,1618.73,362.61z"/>
	<path id="XMLID_17_" class="st0" d="M1757.94,433.55c11.8,7.79,19.46-0.71,19.46-0.71c14.14,3.3,20.75-5.84,20.75-5.84
		c11.3-1.62,10.46-9.14,10.46-9.14c11.6,4.6,24.97,29.51,24.97,29.51c-4.99-33.28-14.65-55.71-14.65-55.71
		C1803.85,402.94,1778.88,417.13,1757.94,433.55"/>
	<path id="XMLID_16_" class="st0" d="M1683.61,1717.82c4.82-4.56,9.56-9.12,14.3-13.67v0.08
		C1693.16,1708.8,1688.43,1713.26,1683.61,1717.82"/>
</g>
</svg>
