<?xml version="1.0" encoding="utf-8"?>
<!-- Generator: Adobe Illustrator 19.0.0, SVG Export Plug-In . SVG Version: 6.00 Build 0)  -->
<svg version="1.1" id="Layer_1" xmlns="http://www.w3.org/2000/svg" xmlns:xlink="http://www.w3.org/1999/xlink" x="0px" y="0px"
	 viewBox="0 0 2000 2000" style="enable-background:new 0 0 2000 2000;" xml:space="preserve">
<style type="text/css">
	.st0{fill:#5E6C97;}
	.st1{fill:#3F4C66;}
</style>
<g id="XMLID_2_">
	<path id="XMLID_11_" class="st0" d="M140.7,1023.6c0,0-132.9-92.6-135.9-243.1c0,0,58.3,146.8,150.8,173.3
		C155.5,953.8,184.8,967,140.7,1023.6"/>
	<path id="XMLID_10_" class="st1" d="M1147.9,1485c-17.4,16.5-93,9.4-93,9.4c-1.6-5,5.1-13.6,5.9-14.6c-7.6,2.4-8.2,10-8.2,10
		c-13.6,1.2-26.6-1.8-26.6-1.8c2.4-20.1,30.2-21.9,41.4-30.2c11.3-8.3,2.8-13.5-1.1-26c-5-16.1-36.7-71-43.2-93.5
		c-2-7-6.9-16.1-12.6-25.3c-0.1,0-0.1,0,0-0.1c-0.7-4.3-1.5-9.5-2.5-15.6c-1.4-8.6-3-18.6-4.6-29.7v-0.2l-0.2-1.6
		c-2-14.4-3.3-27.5-3.9-39.7c26.4,8.6,75.2,22.9,105.8,22.9c1.3,0,2.5,0,3.8-0.1h0.9c0.3,0,0.6,0,0.9,0.1c6.6,29.8,23,62.1,23,62.1
		c1.6,28.4,11.8,60,22.4,109.5C1166.7,1470.2,1162,1471.7,1147.9,1485"/>
	<path id="XMLID_9_" class="st1" d="M1914.3,1296.1c11.3,34,27.8,80.3,0,92.6c-27.8,12.3-44.5,90.7-68.3,100.6
		c-12.7,5.2-29.1,6-41.7,5.6c24.4-34.4,71.4-110.6,88.3-123.6c20.9-16.3,11.6-31.1,3.3-54.3c-8.3-23.2-45-112.3-20.4-150.4
		c24.6-37.9,59.6-66.7,77.4-133.9c-0.8,5.4-13.5,82.7-32.4,120.5C1900.9,1192.2,1902.9,1262.2,1914.3,1296.1"/>
	<path id="XMLID_8_" class="st0" d="M1992.9,936.9c-3.3,32.4,3.7,128.7-4.9,154.5c-8.6,25.7-42.2,56.8-36.3,94.5
		c0,0-10.4-22.3-7-39.7c0,0-7.1,14.4-5.1,28.5c0,0-12.4-15.1,3.4-54.1c15.8-38.9,29.2-29.5,29.5-68.1c0.4-38.6,6.8-81.2-8-88.6
		l-0.1-0.1c5.1-44.8,1.3-85.6-13.6-114.7c-17.9-35.1-88.8-165.8-157.5-212.4c14.5,4.7,131.2,45,159.7,110.9
		C1983.2,817.9,1996.2,904.4,1992.9,936.9"/>
	<path id="XMLID_7_" class="st0" d="M543,771.5c0.4,27.2-14.7,49.7-42,48c-27.2-1.7-21.6-33.8-21.6-33.8
		c-4.2-18.1-19.6-23.5-28-31.7c-2.2-2.1-3.9-4.4-4.8-7.2c-14.5-45,23.8-68.7,23.8-68.7c0.8,55.7,22.1,14.7,22.1,14.7
		s12.8,13.2,25.6,29.7C530.5,738.6,542.8,758,543,771.5"/>
	<path id="XMLID_6_" class="st1" d="M422,744.4c-17.5,10-38.2,26.2-44.5,49.1c-0.1,0.2-0.2,0.6-0.2,0.8c-9.7-1.5-26.6-4.7-27.1-9
		c-0.9-5.9,21.2-23.4,7.4-29.1c-13.9-5.6-25.7-53.3-25.2-69.4c0.6-16.1-15.9-55-6.3-46.8c9.5,8.3,19.4,37.6,26.8,48.9
		c5.3,8.2,45.6,31.2,67.4,43.2C420.6,736.1,421.1,740.2,422,744.4"/>
	<path id="XMLID_3_" class="st0" d="M1926.3,857.3c-17.9-35.1-88.8-165.8-157.6-212.4c-13.1-8.8-26-14.7-38.5-16.3
		c-78.4-10-152.8-48.5-219.3-27.9c-66.4,20.6-246.6,42.5-376.8,6c-130.3-36.6-262.6-45.8-411.4,21.2
		c-83.4,37.6-142.8,65.1-183.3,84.3c18,24.1,26.5,42.9,26.7,58.8c0.3,21.7-6.6,41-19.7,54.2c-11.2,11.4-25.9,17.5-42.6,17.5
		c-1.4,0-2.9-0.1-4.3-0.2c-17.5-1.1-27.8-9.6-33.3-16.7c-10.1-12.8-10.9-28.7-10.4-37.7c-1.5-2.8-4.3-5-9.9-9.1
		c-3.4-2.4-7.2-5.1-10.7-8.6c-1.7-1.6-3.3-3.4-4.6-5.2c-15.4,10.1-31.5,24.8-36.9,44.5c-0.1,0.2-0.2,0.6-0.2,0.8
		c-10.8,39.1-11.4,53.3-38.6,76.9c-6.2,4.9-12.9,9.5-19.7,14c-7.7-0.6-60.1-5.5-75-31.2c-16.2-27.8-25.6-7.6-22.9,4
		c2.2,9.4-0.3,57.5-1.4,75.8c-14.4,5.5-23.7,8.5-23.7,8.5c-8.9-0.1-18.1-0.6-26.5-1.3c0.4,1,0.7,2,0.9,2.9
		c5.3,21.4-3.8,46.8-27.9,77.6l-4.1,5.2c8.6,10.5,20.9,23.7,36.2,34.8c0,0-8,34.9,17.7,77.8c25.7,42.8,50.8,16.6,50.8,16.6
		s75.5,34.8,168.7-8c93.2-42.9,133.2-100.7,155.5-91c22.2,9.7,16,28.6,31.4,30.3c15.4,1.7,15.4-13.2,29.7-8.6
		c14.3,4.6,55.5,48,75.5,50.9c19.9,2.9,25.7,2.3,40.5,8c14.9,5.7,18.3,6.8,18.3,6.8s-14.8-30.2-10.8-87.2c0,0,9.1,79.8,52.5,146
		c43.3,66.2,52.1,83.8,52.1,121.8c0,38,16.1,74.5,0.9,101.1c-15.2,26.6-35.6,27.5-35.6,27.5C821.1,1474,808,1481,812,1493
		c0,0,27.4,2.9,38.1,0.3c0,0-2.6-11.3,8.4-12.7c0,0-11,9.1-2.9,16.4c8,7.4,92.2,9.2,103.9-2.5c11.8-11.8-5.5-40.6-5.5-51.2
		c0-10.6,30.6-101.3,34.4-113.2c1.5-4.7-3.8-29.3-8-60.9v-0.2c-3.2-23.8-5.7-51.5-4.2-78c1.4-27,6.8-52.7,19.8-71.8
		c0,0-15.4,39.9-8.3,72.5c0.5,2.3,1.1,4.6,1.9,6.8c0,0,81.3,28.9,118.5,27.5c37.2-1.6,130.6,45.5,163.9,42.5
		c33.4-3,198.9-6,328-143.5c0,0-53.9-91-15.2-253.5c0,0-19.3,201.3,67.6,285.4c49.3,47.8,40.9,62.6,54.7,104.6
		c13.6,41.6,40.4,85.8,36.4,100.8c-7.6,28.5-56.1,110.7-56.1,110.7s-37.8,10.8-35.5,26.1c2.4,15.3,34.4,9.2,34.4,9.2
		s-1.4-14.3,9.6-18c-1,0.9-10.5,9.5-6.9,22.2c0,0,65,8.8,78-1.5c2.5-2,7.1-7.8,13-16.1c24.4-34.4,71.4-110.6,88.3-123.6
		c20.9-16.3,11.6-31.1,3.3-54.3c-8.3-23.2-45-112.3-20.4-150.4c24.6-37.9,59.6-66.7,77.4-133.9c0.1-0.2,0.1-0.3,0.1-0.3
		c5.4-20.5,9.3-40.8,11.5-60.5C1944.9,927.1,1941.2,886.4,1926.3,857.3 M362.6,1008.6c0,0,27.8-1.2,33.8-9.2
		c6-8.1,10.5-10.5,10.5-10.5S426.4,1029.2,362.6,1008.6"/>
</g>
</svg>
