<?xml version="1.0" encoding="utf-8"?>
<!-- Generator: Adobe Illustrator 19.0.0, SVG Export Plug-In . SVG Version: 6.00 Build 0)  -->
<svg version="1.1" id="Layer_1" xmlns="http://www.w3.org/2000/svg" xmlns:xlink="http://www.w3.org/1999/xlink" x="0px" y="0px"
	 viewBox="0 0 2000 2000" style="enable-background:new 0 0 2000 2000;" xml:space="preserve">
<style type="text/css">
	.st0{fill:#88975D;}
	.st1{fill:#5E6640;}
</style>
<path class="st0" d="M883.4,1490.4c-12,56.5-48.4,88.7-48.4,88.7c-16.1-35.2-34.9-49-34.9-49c37.9,62.6,31.2,132.1,0,163.5
	c-83.2,83.9-78.2,174.9-72.6,174.9h0.1c0.4-0.1,0.5,0.1,0.3,0.5c-2.8,4.4-55.5,39.5-128-0.5c0,0,24.1-60.8-2.5-120.5
	c-17.3-38.8-31.6-78.9-35.3-114.7c-2.1-19.4-1-37.5,4.2-53.5c9.5-29.3,25.7-48,25.7-48s-4.4-1-24,25c0,0-41.2-20.1-82.4-74.5
	c-50.9-67.3,1.4-212.4,65-239.9c49.7-21.4,198.3-46.5,284.6,72.1C887,1385.6,893,1445.7,883.4,1490.4"/>
<path class="st0" d="M720.5,1986.5c-23.6,5.5-53.7,6.2-53.7,6.2l-3.2-68.8l-9.5,69.5c0,0-20.1,3.8-64.2-6.8
	c-41.2-9.8-41.6-28.2-27.4-50.7c7.9-12.4,18.4-31.7,26.2-46.3c26.2,14.3,53,21.5,79.5,21.5c30.8,0,56.9-10.2,71-20.9
	c8.5,16.7,19.1,39.8,23.5,57.6C770.3,1979.2,744.1,1980.9,720.5,1986.5"/>
<path class="st1" d="M544.4,1669.8c-5.6,21-5.8,40.5-5.8,42.5c-18-58.7-2.4-109.9-2.4-109.9s-14.2,22.3-18.8,76.5
	c-4.3,52.6-37.2,103-39.3,106.1c15.1-66.7,10.4-119.6,10.4-119.6c-17.2,46.7-44.5,68.1-44.5,68.1s52-78.3,23.9-147.4
	c-26.2-64.2-46.4-198.8-6.7-270.8c-4.5,11.1-8.5,22.9-11.7,35c-15.3,58.2-9,111.5,17.1,146c30.2,39.9,60.8,62.9,77.7,73.8
	c-0.3,0.7-0.5,1.4-0.8,2.1c-6,18.6-7.7,39.9-5.2,63.3C539.4,1646.3,541.4,1657.7,544.4,1669.8"/>
<path class="st1" d="M606.2,1203.4c-27.2,3.8-50.2,10.6-65.1,17c-4.3,1.8-8.5,4-12.6,6.6c9.8-14.6,14.2-25.2,14.8-38.2
	c0.5-11.2,3.9-22.7,7.8-32.3C565.1,1175.7,583.6,1191.3,606.2,1203.4"/>
<path class="st1" d="M973,1612.4l-7.4,8.6l2,11.1c1.2,6.7,2.5,13.4,3.8,20c-0.4,0.6-0.7,1.1-1,1.6c-17.3,29.9-12.9,83.9-12.9,83.9
	c-12.3-15.8-14.1-39.1-14.2-47.9c-0.6,38-33.5,100-35.6,104c19.7-70,1.8-128.2,1.8-128.2c-17.5,32.1-12.1,87.2-12.1,87.2
	c-24.5-51.5-22.2-87.2-22.2-87.2c-10.2,26.9,4.1,75.5,4.1,75.5s-42.4-56.4-4.1-143c9.8-22.1,14.4-41.1,15.8-57c0,0,0.1,0,0.1-0.1
	c6.4-13.1,12-28.3,15.7-45.6c13.5-63.2-4.1-128.8-52.4-195.1c-22.6-31.1-48.9-53-75.8-68.1c71.5-4.4,139.9-22.4,180.3-38.1
	c13.5-5.4,26.6-9.4,39.1-12.1c-24.4,35.6-32.9,87-32.4,123.8c0.4,30.3,6.4,47.3,14.6,71c7.2,20.8,17.1,49.2,27.9,101.8
	C1022.3,1548,997.4,1584.1,973,1612.4"/>
<path class="st1" d="M1319.3,1527.6c-27.3,14.3-72.7,55.3-218.5,49.2c0,0-57.8,44.4,41.9,104.7c99.7,60.3,90.9,63.8,90.9,63.8
	s-35.8,65.6-198.6,48.5c0,0-29.3-83.1-44.1-165.8c24.8-28.8,57.2-71.8,40.2-154.3c-22.7-110.8-41.2-116.6-42-168.4
	c-0.7-51.7,20.6-160.7,104.1-138.7c0,0,130.2,24.1,196.4,188.5c0,0,50.7,49.2,52.1,74.7C1343.4,1455.4,1346.7,1513.2,1319.3,1527.6"
	/>
<path class="st1" d="M1232.7,1868.4c0.9-35.7-21.7-59.2-21.7-59.2c16.8,32.8,4.7,69.7,4.7,69.7c-59,14.1-138.3-2-147.5-10.6
	c-19.3-17.8-27.6-36.5-30.9-50.7c17.2,1.8,33.7,2.6,49.2,2.6c106.1,0,148.7-38.4,162.7-55.9l3-1.3
	C1326.4,1842.9,1232.7,1868.4,1232.7,1868.4"/>
<path class="st0" d="M1208.3,830.1c4.6-0.8,18.3-3.5,30.4-8.7c0,0,16.8,19.1,1.4,41.8c-9,13.4-29.2,24.6-56.1,36.4v0.1
	c-18.6,8.1-40.5,16.7-64.1,26.5c-1.7,0.7-3.3,1.5-4.9,2.3c-1.6,0.8-3.2,1.8-4.7,2.8c-1.6,1-3,2-4.5,3.2c-1.5,1.1-2.9,2.3-4.4,3.6
	c-1.2,1.1-2.3,2.2-3.5,3.4c-3,2.8-5.8,6-8.6,9.4c-1.3,1.6-2.6,3.3-3.9,5c-1.3,1.7-2.6,3.4-3.9,5.2c-3.9,5.4-7.7,11.2-11.7,17.3
	c-0.3,0.4-0.6,0.8-0.8,1.2c-11.6,17.9-24.7,38.6-42.6,59.6c-1.8,2.1-3.6,4.2-5.5,6.3c-17.6,19.8-39.6,39.6-69.2,57.7
	c-2.3,1.4-4.5,2.8-7,4.2c-2.4,1.3-4.7,2.8-7.2,4.1c-2.4,1.3-4.9,2.7-7.4,4c-128.7,67.4-99.9,62.1-144.5,30.7
	c-44.6-31.3-152.1-162.1-160.4-247.6c0,0-29.1-36.5-50.6-92l-0.1-0.3c-7.3-18.9-13.8-40.1-17.8-62.6c11.2,14.7,30.5,21.7,30.5,21.7
	c-1.7-55.8,68.4-131.7,68.4-131.7c2.9,10.2,0,22.8,0,22.8c36.5-6.9,76.4-49,76.4-49c-2.4,6.3,6.8,12.6,22.2,33.1
	c15.4,20.5,27.1,62.7,27.1,62.7c0.8-20.3,23.3-60.4,42.4-83.5c13.9,16.7,28.9,40.6,28.8,65.7c-0.2,46.7-12.2,72.2-12.2,72.2
	s51.1,43.7,79.9,86.6c0,0-180.4,58-166.2,165.2c-0.8-14.1,3.6-66.9,109.4-123.7c28.7-15.4,49.2-26.9,64-35.9
	c49.2-29.9,35.4-32.3,45.3-56.5c12.9-31.5,28.1-69,28.9-87.4c0.8-18.4,17.1-23.1,17.1-23.1s34.8,5.6,54.1,4c0,0-29.7,31.3-41.2,50
	c5.3-5.5,48.7-50.1,69.5-61.8c22.1-12.4,58.5,6.4,63,15.8l-0.3,0.3c-2.6,2.3-22,18.9-37.2,36c3.7-3.5,33.1-31.8,48.7-36.3
	c16.6-4.9,50.5,32.1,49.6,46.8c0,0-11.8,14.6-28.5,28.1c8.6-6.3,19-14,23.9-17.8c9.1-7.1,35.1,36.8,29.9,55.5
	C1250.4,803.3,1234.3,823.9,1208.3,830.1"/>
<path class="st0" d="M1178.4,927.8c-18.1,50-72.9,78.4-72.9,78.4c-12.2,19.7-29.8,40.1-44.7,55.8c-15.3,16.3-27.7,27.6-27.7,27.6
	c-4.1,20-15.8,20-15.8,20c18.2,30.5,2.8,44.8,2.8,44.8c-19.3,1.7-42.7,6.7-70.1,17.4c-96.2,37.5-319.1,75.4-386.6-39.8
	c0,0,62.4-74.3,42.3-138.9C596,961.5,588.3,916,583,877.7c8.1,13.8,15.2,24.1,19.4,29.8c13.8,94.8,124.5,226.2,169.5,257.9
	c5.7,4,10.1,7.5,14,10.7c9.6,7.9,19.6,15.9,35.1,15.9c15.9,0,30.8-8,70.7-29.5c13.2-7,29.3-15.8,49.4-26.3c2.7-1.4,5.3-2.8,7.5-4
	c1.9-1.1,3.9-2.2,5.7-3.3l1.8-1c2.8-1.6,5.5-3.2,7.9-4.7c28.4-17.4,52.8-37.7,74.2-61.9c2.2-2.3,4.3-4.7,6.2-7
	c17.7-20.8,30.7-40.8,42.2-58.5l2.2-3.4l0.8-1.3c3.9-5.9,7.5-11.4,11.3-16.7c1-1.3,1.9-2.7,2.9-4l0.6-0.8c1-1.3,1.9-2.5,3.1-3.9
	c1.9-2.3,4.3-5,7-7.7c0.9-0.9,1.9-1.8,2.9-2.9c0.7-0.6,1.3-1.1,2.7-2.1c0.8-0.7,1.7-1.3,3.1-2.2c0.8-0.6,1.7-1.1,2.6-1.5
	c0.9-0.5,1.8-0.9,3-1.4c8.7-3.7,17.3-7.1,25.4-10.4C1162.8,934.2,1170.7,931,1178.4,927.8"/>
<path class="st1" d="M1413.8,948.2c-23,3.9-46.6-14.4-48.4-15.9c0.6,0.8,3.9,5.5,10.1,10.2l-0.7,5.9c-1.4,12.7-0.1,22.5,4.2,30.6
	c-16.3,12.3-15.3,42.5-9.6,56.7c1.9,4.9,4.5,8.9,7.7,11.9c0.2,0.1,0.3,0.3,0.4,0.4l0.6,0.3l-0.7,2.6c-2.5,9.8-3.4,24.5,6,39
	c2.3,3.5,5.4,6.9,8.8,9.5c0.8,0.7,2.2,1.8,4,2.9l-0.6,2.9c-1,5.4-1.2,10.7-0.4,16.1c-28.9-4.9-101.2-19.7-136.6-47.4
	c0,0-109.7-0.9-169.8-7.5c13.7-15.3,24.8-29.5,33.4-42.6c16.2-9.7,61-40,78.4-88.2l6.7-18.5c14.5,4,37.3,10.8,73.3,21.9
	c0,0-12.4,12.7-14.5,41.9c0,0,12.7-52.2,52-70.6c39.4-18.4,35.5-27.6,54.9-25c19.3,2.6,39,18.2,65.5,27.1
	C1465.1,921.6,1437.7,944.2,1413.8,948.2"/>
<path class="st1" d="M1470.1,1017.3c-0.4,8.9-6.9,23.5-14.7,26.1c-0.8,0.3-1.9,0.5-3.5,0.7c-14.3,1.5-59.1-0.7-59.1-0.7
	c0.4-0.9,0,0,0,0s-3.3-0.4-7.5-4.4c-1.7-1.6-3.4-4-4.9-7.6c-5-12.4-4.8-38.3,8-44.2c1.6-0.8,4.1-1.3,7.3-1.3h0.1
	c0.3,0,0.8,0.1,1.8,0.1c7.9,0.4,37.9,2.2,56.7,5.8c2.9,0.6,5.4,1.3,7.4,2.1C1474.7,999.1,1470.3,1009.6,1470.1,1017.3"/>
<path class="st1" d="M1464.3,982.1L1464.3,982.1c-2.3-0.7-4.7-1.4-7.7-2c-19.4-3.7-49.6-5.5-58.3-6l-2.3-0.2l-0.7,0.1
	c-2,0-3.8,0.2-5.4,0.5c-2.8-4.7-4.8-11.7-3.4-24.8c31.3,13.7,49.9-5,49.9-5s25,4.3,27.7,17.8C1465.5,968.8,1465,976.1,1464.3,982.1"
	/>
<path class="st1" d="M1439.1,1110.2c-0.9,7-3.5,12.6-6.5,14.6c-4.9,3.4-24.9-1.3-24.9-1.3c-1.4-6-1.2-11.5-0.3-15.8
	c1.3,0.2,2.4,0.4,3.6,0.4h1.2c4.7,0.7,16.1,2.1,24.8,2.1H1439.1z"/>
<path class="st1" d="M1453.8,1055.8c0,15.8-4.3,40.9-10.5,42.1c-1.2,0.3-2.6,0.3-4.2,0.3c-10.1,0.4-27.5-2.3-27.5-2.3
	c-1,1-6.7-1.3-11.9-5.6c-2.4-1.9-4.7-4.3-6.4-6.9c-7-10.6-6.5-21.6-4.5-29.6l3.3,1.3c1,0,25.2,1.2,43.9,1.2c7.6,0,13.2-0.2,17-0.6
	C1453.3,1055.9,1453.6,1055.8,1453.8,1055.8"/>
<path class="st1" d="M1031.1,390.5c1.7,5.1,3.8,10,6.1,14.7c-1.7,2.6-3.4,5.3-5.1,8.1c-1.5,2.5-3.1,5.1-4.8,7.9
	c0,0.2-0.2,0.3-0.3,0.5c-1.5,2.5-3,5-4.6,7.7c-4.8,8.2-9.6,16.9-14.3,25.7c-1.9,3.5-3.7,7.1-5.4,10.7c-3.8,7.7-7.3,15.3-10.3,22.8
	c-0.8,2.1-1.6,4.1-2.3,6c-1.2,3.1-2.3,6.2-3.2,9.1c0,0-4.9-46.4,7.9-77.7c0,0-61.6,58.6-95.7,136.8c0,0-12.2-12.8-7.5-44.2
	c0,0-5.1,12.6-48.6,47.8c-22.2,17.9-31.3,7.1-42.5,29.9c-22.6,37.8-19.4,66.1-19.4,66.1c-4.4-43.1-29.6-48.8-28.9-67
	c0.2-3.9,1.8-9.2,4.4-14.9v-0.1c9.1-20.6,28.9-47.7,28.9-47.7s-55.1,40.9-74.3,60.3c-19.3,19.4-33.1,30.2-33.1,30.2
	c12.3-27.1,3.2-49.9,3.2-49.9c-17.6,28.7-38.5,34.2-64.5,60.7c-26,26.5-41.7,90.9-41.7,90.9c-16.3-20.6-21.5-62.6-21.5-62.6
	s0,0.3-0.1,0.7c0,0.2-0.1,0.4-0.1,0.7c-2,11.6-14.6,91.7-7.4,130.2c0,0-38.2-103-21.5-155.9c16.7-53,56-56.7,75.6-81.3
	c0,0-21.4,14.4-58.5,5.3c0,0,86.2-29.2,128.8-79.4c41.3-48.6,138.6-100.3,146.2-103.6c-8,2.3-127.5,32.9-195.6,57.2
	c3.7-2.7,123.1-90.3,290.3-116.3c0,0-67.5,7.1-101.3-4.1c0,0,146.6-10.8,179.3-24.2c15.4-6.3,35.6-10.7,52.7-13.7
	c-11.5,22-17.4,44.6-17.7,67.2c-0.3,13.9,1.6,28.1,5.8,41.9C1030.5,388.2,1030.8,389.4,1031.1,390.5"/>
<path class="st0" d="M1353.9,227.3c-0.8,14.3-5,27.7-11.1,40.8c-2.3,4.9-4.9,9.9-7.7,14.8c-5,8.9-10.6,17.8-16.3,26.9
	c-13.2,21-26.7,43.5-34.5,70.3c-20.7,70.8-202.3,90.6-230.5,2.8c-0.2-0.7-0.4-1.4-0.6-2.1c-3.7-12.1-5.2-23.9-4.9-35.1
	c0.3-28.1,11.1-52.6,23.8-71.8c18.3-27.8,40.3-44.6,40.3-44.6c102.5,16.6,153.9,4.6,153.9,4.6s-88.7,6.4-205.7-27.8
	c-117.1-34.2-360.3-84.9-360.3-84.9c91-27.7,170-44.7,238.4-53.8c310.4-41.1,402.7,83.4,413.7,136.6
	C1353.9,212.2,1354.4,219.9,1353.9,227.3"/>
<path class="st1" d="M1386,760.1c-1.8-1.6-2.8-2.6-2.8-2.6s-3.3-16.4,1-2.6C1384.8,756.6,1385.4,758.4,1386,760.1"/>
<path class="st0" d="M1531.2,560c-2.2-21.6-68.7-90.6-68.7-104.7c0-14.2,17.5-19.1,10.2-33.8c-6.3-12.6-38.3-66.1-101.6-114.2
	c-2.6-1.9-5.3-3.9-8-5.8l-0.1,0.1l-0.2-0.3c-2.5-1.8-5.1-3.6-7.7-5.4c-4,7-8.3,14-12.7,21.1l-3.3,5.4c-13.6,21.6-25.2,41.3-32,64.4
	c-15,51.5-84.8,78.4-146.1,78.4c-44.2,0-80.6-12.5-104.3-34.7l-3.2,2.3c0,0-49.6,58.2-73.5,126.1c0,0-17.1-35.4-17.7-49
	c0,0-46.8,56.4-60.7,93.4c0,0-19.6-17.6-23.6-34.2c0,0-18.3,25.6-36.5,34.2c-0.1,0-0.2,0.1-0.2,0.2l0.8,0.9
	c15.7,18.8,34.4,48.3,34.3,81c-0.1,29.2-4.4,51-8.3,64.9c15.4,14.2,42.6,40.6,63.6,68.6c12.2-8.5,12.8-11.5,13.7-15.8
	c1-4.6,2.3-10.9,5.6-18.9c9.2-22.6,26.5-64.7,27.1-79.5c1.3-28,22.1-41.4,34.2-44.8l5.1-1.5l5.3,0.8c0.3,0.1,25,4,42.6,4
	c2,0,4-0.1,5.9-0.3l6.3-0.5c4.4-3.4,8.6-6.2,12.4-8.3c8.4-4.7,18.1-7,28.9-7c19.4,0,41.7,8.4,55.6,19.8c1.5-0.3,2.9-0.3,4.4-0.3
	c13.3-19.5,35-44.3,61.5-49.2c44.8-8.1,65.3,14.8,69,43c3.6,28.2,11.3,86.7,44.2,111.4c0,0-6.2-18.4-6-28.2c0,0,15.7,22.8,49.4,40.9
	c0,0-6.2-12-10.7-24.3c6.2,5.6,23.1,19.3,53.5,31.9c-1.3-2.8-31.9-67.3-4.8-101c27.6-34.5,35.4-20.3,25.5-37.1c0,0,15.8-4,19.2-10.9
	c0,0-2.1-20.6,9.5-45.6C1488.9,597.5,1533.3,581.7,1531.2,560z M1383.3,757.5c0,0-3.3-16.4,1-2.6c0.5,1.7,1.1,3.4,1.8,5.2
	C1384.2,758.5,1383.3,757.5,1383.3,757.5z M1407.1,449.9c-18.9-7.1-8.5-36.7-8.5-36.7c7.6,8.9,37.6,31.5,38.8,32.4
	C1437.3,445.7,1426,457.1,1407.1,449.9z"/>
<path class="st1" d="M1404,242.1c-13.8,12.6-23.8,26.6-30.3,37.8c-0.8-0.6-1.6-1.2-2.3-1.7l-5.4-3.8c7-15.8,10.8-30.8,11.7-45.5
	c0.7-9.7-0.1-19.7-2.1-29.7c-1.4-6.7-37-163.7-320.9-163.7c-37.1,0-77.3,2.8-119.2,8.4c-21,2.8-42.5,6.3-64.7,10.4
	c-39.3-6.1-67-8-67-8s202.9-75.2,468.5-7.3C1537.9,106.8,1433.5,215.4,1404,242.1"/>
<path class="st0" d="M1363.1,301.4L1363.1,301.4l-0.1,0.2l-0.3-0.3C1362.8,301.3,1363,301.4,1363.1,301.4"/>
</svg>
