<?xml version="1.0" encoding="utf-8"?>
<!-- Generator: Adobe Illustrator 19.0.0, SVG Export Plug-In . SVG Version: 6.00 Build 0)  -->
<svg version="1.1" id="Layer_1" xmlns="http://www.w3.org/2000/svg" xmlns:xlink="http://www.w3.org/1999/xlink" x="0px" y="0px"
	 viewBox="0 0 2000 2000" style="enable-background:new 0 0 2000 2000;" xml:space="preserve">
<style type="text/css">
	.st0{fill:#995D89;}
	.st1{fill:#674060;}
</style>
<g>
	<path class="st0" d="M806.6,1278c0.2-2.7,0.4-5.3,0.5-8C807,1269.9,807.3,1272.9,806.6,1278"/>
	<path class="st0" d="M1877.3,1046.9c-6.6-2.6-13.6-4.9-21.1-6.9c-150-40-183.4,27.2-183.4,27.2c31.6,12.6,53.5,26.9,67.8,42.1
		c70.3,74.9-43.1,171.6-81.1,183.8c-42.9,13.8-103.9,32-67.8-132.9c2.4-10.8,5.2-22.4,8.4-34.9c7.7-29.7,9.8-58.4,7.9-85.6
		c-10.5-158.8-152.5-272.4-80.9-278.6c84.1-7.2,97.5-54.9,117-103.2c19.5-48.3,20.2-84.5-55.5-111.2
		c-75.7-26.7-89.3-40.9-126.7-101.7c-37.4-60.8-151.4-116.6-304-192.5c-152.7-76-298.8-6.8-409.4-17.1
		c-110.7-10.2-135,38.2-156,64.7c-21,26.5-6.7,51-48.7,72c-42.1,21.1-51.5,47.2-65,79.7c-13.6,32.6-8.4,28.1-55.4,93
		c-47,65-6,138.9-6,138.9s47.1-35.2,173.1-12.7C730.7,696,666.5,879,639.5,931.7c-65.4,127,8.1,204.5,11.4,207.9
		c-1.7-1-64.2-39.1-53.5-131.4c11-93.7,129.3-270.5-19.4-309.7c-148.8-39.2-234.7,93.2-234.7,93.2
		c254.3-82.5,241.2,85.3,187.3,184.5c-53.8,99.2,49.5,209.8,81.8,225c145.7,68.9,194.2,76.9,194.2,76.9
		C879.9,1323,704,1430.7,642,1444c-61.9,13.3-69.5-158.2-318.7-212.5c-249.1-54.2-323.3,72-323.3,72s135.2-54.3,222.6,15.7
		c87.5,70.1,208.9,506.4,605,264.2c68.8-42.1,128.7-85,180.7-127.9c175-144.5,259.9-289.4,287-404.6c21.6-91.4,114-21.9,117.1,113.5
		v0.2c0.2,5.9,0.2,11.9-0.1,18c-0.6,19.4-2.6,40.2-6,62.3c-29.7,189.2,198.4,182.8,385.9,90.4
		C1970.3,1247.3,2003.1,1096,1877.3,1046.9 M1326.2,653.2c-95.9,8-120.8-98.3-120.8-98.3C1340.6,564.6,1326.2,653.2,1326.2,653.2
		 M949,1106.2c-4.1,0.6-8.1,1.2-12.2,1.7l-12.5,0.1c-16.5,0.2-33.4-2.9-49.2-9.8c-7.9-3.3-15.2-8.1-22.1-13.3
		c-6.7-5.5-12.8-11.6-18-18.4c-10.4-13.6-17.8-29.2-22.3-45.1c-4.5-16.1-6.5-32.4-7-48.6c-0.4-16.2,0.7-32.4,3.4-48.3
		c2.6-15.8,6.6-31.4,11.6-46.5c2.7-7.6,5.2-14.9,8.7-22.5c3.4-7.7,7.8-15,12.9-21.7c10.3-13.4,24.1-24.3,39.3-30.8
		c15.2-6.7,31.3-9.9,47.2-11.1c31.9-1.8,63.4,3.5,92.6,14c-30.4-5.7-61.5-7.7-91.4-3.1c-29.6,4.4-57.7,17.8-73.5,41.3
		c-3.9,5.8-7.2,12.1-9.7,18.8c-2.6,6.6-5,14-7.2,21.1c-4.2,14.4-7.4,29.1-9.4,43.8c-4,29.4-3.9,59.8,4.2,87.4
		c3.8,13.9,9.9,26.9,18.1,37.9c4.2,5.5,9.1,10.4,14.2,14.8c5.4,4.2,11.2,8,17.4,10.9c12.4,5.9,26.6,9.2,41,9.5l10.7,0.3l10.8-1.1
		c7.2-0.3,14.3-2.3,21.5-3.9c28.6-7.2,55.4-22.3,80.3-39.8c12.6-8.7,24.5-18.4,36-28.5c11.5-10.2,22.7-20.8,33.3-32.2
		c-8.8,12.9-18.4,25.1-28.9,36.7c-10.4,11.7-21.6,22.6-33.6,32.8c-24,20.1-50.9,38.3-82.1,48C965,1102.6,957.3,1105.3,949,1106.2
		 M922.6,888.7c-2.7-4.7-5.8-9.1-8.9-13.8c-3-4.5-5.9-7.6-10.3-7c-4.4,0.7-8.8,4.3-12.5,8.2c-3.7,4-7.2,8.4-10.2,13
		c2-5.2,4.5-10.3,7.7-15c3.3-4.6,7.2-9.4,13.8-11.5c3.3-0.9,7.5-0.5,10.3,1.5c1.7,0.8,2.9,1.9,4,3.1c1.2,1.1,2.2,2.3,3.1,3.3
		c3.6,4.2,7.1,8.7,10.4,13.4c6.8,9.3,11.9,19.9,15.5,31c3.6,11.2,5.1,22.9,5.2,34.5c-0.1,11.5-1.2,23.1-3.6,34.3
		c-2.5,11.1-5.1,22.2-10.2,32.9c-2.7,5.2-5.3,10.7-10.4,14.9c-2.4,2.1-5.6,3.9-9.2,4.4c-1.8,0.5-3.5-0.2-5.2-0.2
		c-1.6-0.4-3.1-1.1-4.6-1.7c-5.5-3.2-9.1-7.8-12.5-12.5c-3.3-4.6-5.8-9.7-8.3-14.7c3.5,4.4,6.8,8.8,10.7,12.7
		c3.7,3.9,7.9,7.7,12.4,9.5c9.4,4,15.4-6.2,19.1-15.8c3.6-9.9,6-20.7,7.7-31.4c2-10.7,3-21.5,2.8-32.2
		C939.6,928.1,934,907.2,922.6,888.7 M1452.5,615.1c-35.2,166.7-173.8,135.2-173.8,135.2s120.1-6.8,149.1-126.8
		c28.1-116.9-63-163.6-67.9-166.1C1366.2,459.3,1477.6,495.9,1452.5,615.1"/>
	<path class="st1" d="M573.5,1194.7c6.2,18-7.2,38.9-30,46.9c-22.8,7.9-46.3-0.2-52.6-18.2c-6.2-18,7.2-38.9,30-46.9
		C543.8,1168.5,567.3,1176.7,573.5,1194.7"/>
	<path class="st1" d="M454.3,1254.7c-20.6-11-43.9-21.2-70.3-29.9c5.2-5.5,12.2-9.9,20.3-12.7c22.8-8,46.4,0.2,52.6,18.2
		C459.6,1238.3,458.5,1246.9,454.3,1254.7"/>
	<path class="st1" d="M675.3,1242.9c9.2,16.6-0.4,39.6-21.5,51.3c-21.1,11.7-45.7,7.7-54.9-8.9c-9.2-16.6,0.4-39.6,21.5-51.3
		C641.5,1222.3,666.1,1226.3,675.3,1242.9"/>
	<path class="st1" d="M560,1337.2c-13.9-15.3-30.4-31.3-50.5-46.8c0.6-0.4,1.3-0.8,2.1-1.2c21.1-11.8,45.6-7.8,54.9,8.9
		C573.2,1310,570,1325.3,560,1337.2"/>
	<path class="st1" d="M773.8,1300c13.7,15.9,8.5,42.9-11.6,60.3c-20.2,17.4-47.6,18.7-61.4,2.8c-13.7-15.9-8.5-42.9,11.6-60.3
		C732.6,1285.4,760,1284.2,773.8,1300"/>
	<path class="st1" d="M673.8,1409.6c-12.6,5.6-25,9.9-36.5,12.3c-0.7,0.2-1.3,0.2-2,0.2c-8.1,0-22.3-18.6-36.2-36.8
		c2.4-2.9,5-5.7,8-8.4c20.1-17.4,47.6-18.7,61.4-2.8C676.6,1383.6,678.1,1396.8,673.8,1409.6"/>
	<path class="st1" d="M519.2,1114.1c4.2,15.8-9.2,33.1-30,38.6c-20.8,5.6-41.1-2.7-45.3-18.4c-4.2-15.8,9.2-33.1,30-38.6
		C494.7,1090.1,515,1098.3,519.2,1114.1"/>
	<path class="st1" d="M500,1035c1,13.8-12.6,26.1-30.4,27.3c-17.8,1.3-33-8.9-34-22.7c-1-13.8,12.6-26.1,30.4-27.3
		C483.8,1011,499,1021.1,500,1035"/>
	<path class="st1" d="M513.4,966.3c-4,9.9-17.9,13.7-31,8.4c-13.1-5.3-20.5-17.7-16.5-27.6c4-9.9,17.9-13.7,31-8.4
		C510,944,517.4,956.4,513.4,966.3"/>
	<path class="st1" d="M539.1,896.1c-0.5,8.5-10.1,14.8-21.3,14.1c-11.2-0.7-19.9-8.2-19.3-16.7c0.5-8.5,10.1-14.8,21.3-14.1
		C531,880.1,539.7,887.6,539.1,896.1"/>
	<path class="st1" d="M538.6,827.8c1.8,5.8-3.8,12.8-12.5,15.5c-8.7,2.8-17.3,0.3-19.2-5.5c-1.8-5.8,3.8-12.8,12.5-15.5
		C528.2,819.5,536.8,822,538.6,827.8"/>
	<path class="st1" d="M507.6,779c4.6,3.4,4.8,10.8,0.6,16.5c-4.2,5.7-11.4,7.5-16,4.1c-4.6-3.4-4.8-10.8-0.6-16.5
		C495.9,777.4,503.1,775.6,507.6,779"/>
	<path class="st1" d="M378.4,1163.5c-11.8,2.7-23.1-0.2-30.4-6.8c-1.8-1.7-3.4-3.6-4.6-5.6c-1.5-12.2-0.3-22,1.7-29.2
		c2-2.9,4.4-5.6,7.3-7.8c4.4-3.5,9.6-6.1,15.6-7.5c18.2-4.3,35.3,5,38.2,20.8C409,1143,396.6,1159.3,378.4,1163.5"/>
	<path class="st1" d="M415.5,1032.7c-1.5,12.1-16,20.1-32.5,17.8c-7.7-1.1-14.5-4.2-19.4-8.6c-0.7-0.6-1.4-1.2-1.8-1.9
		c2.1-7.8,6.6-20.6,16.5-33.6c1.7-0.2,3.5-0.4,5.3-0.3c1.5,0.1,3.1,0.1,4.6,0.4C404.6,1008.9,416.8,1020.5,415.5,1032.7"/>
	<path class="st1" d="M451,946.3c-1.2,8.6-13.2,14.3-26.9,12.7c-6.4-0.8-12-3-16.1-6.1c-0.6-0.4-1.1-0.9-1.5-1.3
		c1.7-5.6,5.4-14.7,13.6-23.9c1.4-0.1,2.9-0.3,4.4-0.2c1.2,0,2.5,0.1,3.8,0.3C442.1,929.3,452.2,937.6,451,946.3"/>
	<path class="st1" d="M488.5,881.8c-1.2,8.6-13.2,14.3-27,12.7c-1.3-0.2-2.6-0.4-3.8-0.7c4.2-4.4,9.8-10.2,15.8-16.6
		c2.6-2.8,4.6-6,6.1-9.5C485.6,871.3,489.2,876.5,488.5,881.8"/>
	<path class="st1" d="M1466.8,1430.4c-1,1.2-2.1,2.1-3.5,2.9c-28.1-16.1-42.1-38.7-48.7-59.6c10.2-3.3,25.5,1.4,38.4,12.6
		C1469.3,1400.7,1475.5,1420.4,1466.8,1430.4"/>
	<path class="st1" d="M1575.2,1438c-0.6,7.3-6.6,13.4-15.4,17h-0.1c-20.1-0.2-37.5-2.1-52.6-5.5h-0.1c-7-5-11-11.5-10.5-18.2
		c1.1-13.3,19.6-22.4,41.4-20.6C1559.6,1412.6,1576.3,1424.8,1575.2,1438"/>
	<path class="st1" d="M1652,1445.1c-18.3,3.7-35-2.4-37.2-13.5c-2.2-11.1,10.8-23.1,29.1-26.9c18.4-3.7,35.1,2.4,37.3,13.5
		C1683.4,1429.3,1670.3,1441.4,1652,1445.1"/>
	<path class="st1" d="M1991.5,1173.8c-1.9,1.5-4.1,2.4-6.3,2.4c-7.9,0-14.5-10.6-14.5-23.8c0-3.4,0.5-6.8,1.3-9.7
		C1979.5,1153.4,1985.9,1163.8,1991.5,1173.8"/>
	<path class="st1" d="M1989,1238c-5.9,14.9-18,24.1-27,20.5c-9.1-3.6-11.6-18.5-5.8-33.5c5.9-14.9,18-24.1,27.1-20.5
		C1992.3,1208.1,1994.8,1223.1,1989,1238"/>
	<path class="st1" d="M1933.1,1316.8c-12.1,10.5-27,13-33.5,5.7c-6.4-7.4-1.8-21.9,10.3-32.4c12.1-10.5,27.1-13,33.5-5.7
		C1949.8,1291.9,1945.2,1306.3,1933.1,1316.8"/>
	<path class="st1" d="M1971.5,1353.7c-8.9,7.2-18.9,13.8-29.9,20c-2.5-0.2-4.8-1-6.8-2.6c-7.5-6.2-5.2-21.2,5.1-33.5
		c10.3-12.2,24.7-17.2,32.2-10.9C1978.2,1331.8,1977.7,1343,1971.5,1353.7"/>
	<path class="st1" d="M1899.4,1393.3c-5.7,2.2-11.6,4.4-17.5,6.4c-11.7,4.1-23.8,7.8-36.4,11.3c3.6-5.7,9.4-11.3,16.8-15.7
		c8.2-4.7,16.7-6.9,23.9-6.7C1891.7,1388.8,1896.3,1390.4,1899.4,1393.3"/>
	<path class="st1" d="M1852.2,1378c-16.2,9.3-33.9,8.9-39.6-1c-5.6-9.9,2.9-25.4,19-34.8c16.2-9.3,34-8.9,39.7,0.9
		C1876.9,1353,1868.4,1368.6,1852.2,1378"/>
	<path class="st1" d="M1752.6,1421c-18,4.9-35.1,0.1-38.1-10.9c-3-11,9.1-23.9,27.2-28.8c18-5,35.1-0.2,38.1,10.8
		C1782.8,1403.1,1770.7,1416.1,1752.6,1421"/>
	<path class="st1" d="M314.1,1481.2c10,14,11.2,30.2,2.7,36.3c-8.5,6-23.5-0.3-33.5-14.3c-10-14-11.2-30.3-2.7-36.3
		C289.1,1460.9,304.1,1467.3,314.1,1481.2"/>
	<path class="st1" d="M265.1,1403.2c7.6,14.3,6.7,29.6-2,34.2c-8.7,4.6-21.9-3.2-29.5-17.5c-7.6-14.3-6.7-29.6,2-34.2
		C244.3,1381.1,257.5,1388.9,265.1,1403.2"/>
	<path class="st1" d="M222.3,1338.4c8.4,11.4,9.5,24.8,2.6,29.9c-7,5.1-19.4-0.1-27.8-11.5c-8.4-11.4-9.5-24.8-2.6-29.9
		C201.5,1321.9,214,1327,222.3,1338.4"/>
	<path class="st1" d="M149.2,1296.8c11.8,2.5,20.1,10.3,18.6,17.5c-1.5,7.2-12.3,11-24.1,8.5c-11.8-2.5-20.1-10.4-18.6-17.5
		C126.7,1298.1,137.5,1294.3,149.2,1296.8"/>
	<path class="st1" d="M270.3,1532.7c-15.7-13-28.7-26.3-39.6-39.4c4.7-2,10.8-1,16.7,2.4c5.1,2.8,10.2,7.3,14.5,13.1
		c4.7,6.5,7.4,13.5,8.2,19.8C270.2,1530.1,270.3,1531.4,270.3,1532.7"/>
	<path class="st1" d="M219,1451.4c-0.7,5.5-2.9,9.9-6.9,11.9c-0.8,0.4-1.7,0.7-2.5,1c-11.6-18-20.1-35.3-26.9-51.2v-0.1
		c0.6-0.5,1.2-1,2-1.4c2.4-1.3,5.2-1.6,8.1-1.1c7.6,1.4,16,8.3,21.4,18.6C218.1,1436.9,219.8,1444.9,219,1451.4"/>
	<path class="st1" d="M180.1,1392.7c-0.5,0.7-1,1.1-1.5,1.5c-1,0.7-2,1.2-3.1,1.5c-2-5-4-9.8-5.9-14.3c-5.1-12.2-9.7-22.6-15.2-30.5
		c6.8-0.2,15.3,4.8,21.6,13.5C183.7,1374.7,185.2,1386.9,180.1,1392.7"/>
	<path class="st1" d="M96.8,1309.1c0.1,1.6-0.4,3.1-1.2,4.5c-13.8-4.2-27.9-6.9-40.9-8.5c3.3-4.8,10.9-8.3,19.8-8.6
		C86.6,1296.2,96.5,1301.7,96.8,1309.1"/>
	<path class="st1" d="M1412.4,1164.4v0.2c0,0-24.8-57.6-69.9,33.9c-44.5,90.2-205.1,268.5-334.1,257.1
		c175-144.5,259.9-289.4,287-404.6C1316.9,959.6,1409.3,1029.1,1412.4,1164.4"/>
</g>
</svg>
