<?xml version="1.0" encoding="utf-8"?>
<!-- Generator: Adobe Illustrator 19.0.0, SVG Export Plug-In . SVG Version: 6.00 Build 0)  -->
<svg version="1.1" id="Layer_1" xmlns="http://www.w3.org/2000/svg" xmlns:xlink="http://www.w3.org/1999/xlink" x="0px" y="0px"
	 viewBox="0 0 2000 2000" style="enable-background:new 0 0 2000 2000;" xml:space="preserve">
<style type="text/css">
	.st0{fill:#9A7E71;}
	.st1{fill:#675349;}
	.st2{fill:#54443B;}
</style>
<g>
	<path class="st0" d="M1849.111,774.103c-7.693-12.568-25.494-21.931-74.779-26.176c-25.996-2.218-68.678-9.859-105.883-17.686
		h-0.063c-33.204-6.957-62.092-14.159-70.779-17.731c-18.479-7.707-31.533-8.505-31.533-8.505l-0.072,0.121
		c-0.984,2.098-17.055,34.258-51.736,45.209c-1.906,0.621-3.946,1.171-5.979,1.668c-3.197,0.746-6.214,1.357-9.056,1.794
		c-33.193,5.662-46.258-4.251-62.521-6.413c-17.74-2.34-70.094-31.546-97.074-27.716c-26.918,3.815,43.922,96.216,74.718,99.295
		c0,0-19.526,2.343-41.091-3.816c-21.556-6.158-112.907-14.361-179.123-31.851c-66.217-17.429-158.123-54.393-285.387-14.354
		c-91.597,28.826-134.348,45.95-180.484,53.654c-137.857,131.391-213.623,95.916-213.623,95.916
		c22.293-12.327,112.725-90.061,112.725-90.061l1.537-0.066c-50.207,1.719-76.873,4.99-121.592,8.32
		c-55.439,4.124-140.627-11.278-260.752,54.392c-120.117,65.724-174.57,96.52-159.169,163.229
		c15.402,66.781,51.376,199.213,73.918,247.438c22.612,48.234,33.882,103.683-12.314,183.759
		c-46.201,80.075-40.048,55.437-38.992,101.635c1.048,46.2,15.396,214.304,9.242,239.741c-5.796,23.837-13.62,30.735-14.544,31.538
		c1.295-0.368,11.947-3.578,19.65-7.394c0,0,1.047,21.563,8.746,33.887c7.703,12.313,87.598,16.995,83.527,7.14
		c-14.717-35.912-40.896-39.487-40.896-53.341c0-13.865-1.047-172.783,23.587-205.864c3.393-4.558,9.425-12.875,17.309-23.905
		c49.529-68.987,173.895-245.527,204.453-293.33c16.994-26.547,52.35-23.777,93.196-13.979
		c44.413,10.596,95.353,29.448,136.257,27.841c78.533-3.074,257.172,33.881,327.258,26.981c0,0,4.08-19.284-18.777-63.942
		c0,0,13.369,13.367,26.734,31.852c13.311,18.469,27.719,101.635,36.959,124.177c4.615,11.398,22.116,87.603,38.004,166.139
		c15.588,77.124,29.697,156.46,28.703,178.813c0,0-1.537,50.335-6.892,67.267c0,0,5.354-1.538,12.316-6.957
		c0,0,1.479,17.007,9.241,24.638c7.639,7.763,72.501,0.984,76.686-0.243c29.145-8.2-22.295-35.92-33.873-46.694
		c-11.586-10.778-20.511-120.115-10.531-177.893c10.041-57.716-25.38-175.56-19.219-207.841
		c6.154-32.401,11.578-117.04,11.578-117.04s4.554,26.929,4.554,36.964c0,0,83.158-34.678,98.561-65.474
		c15.402-30.806,58.516-31.606,75.518-39.24c0,0-3.876,11.513-13.609,20.264c0,0,62.588-21.063,90.859-43.671
		c0,0-3.638,14.412-9.24,20.572c0,0,83.649-42.135,104.714-67.27c0,0,3.578,8.195,2.031,15.403c0,0,23.096-23.896,28.52-38.5
		c0,0,7.639,5.358,8.431,14.604c0,0,11.534-26.931,13.874-38.442c0,0,3.814,7.645,12.314,14.603c0,0,9.24-36.162,20.828-64.683
		c0,0,3.078,23.838,7.629,33.879c0,0,16.205-51.558,29.33-67.756c0,0,3.076,38.497,6.154,45.389c0,0,42.321-70.027,73.918-88.511
		c0,0-7.764,24.643-6.154,31.601c0,0,57.715-79.337,83.156-93.193c25.373-13.864,71.57-14.603,79.27-26.188
		c7.703-11.573,14.112-40.528,4.873-41.827c-9.24-1.285-31.859-10.523-34.621-14.895c0,0,45.951-31.052,48.23-38.758
		C1860.146,824.921,1856.813,786.671,1849.111,774.103 M1578.882,766.406c7.147,1.537,25.38-2.593,32.082,6.398
		c6.661,8.995,16.139,14.11,16.139,14.11C1566.811,803.857,1578.882,766.406,1578.882,766.406"/>
	<path class="st0" d="M1702.323,478.431c-10.964,37.95-98.737,125.475-133.911,154.733c-0.984,0.866-1.906,1.604-2.838,2.344
		c-10.349,8.383-15.396,17.066-17.428,24.952c-4.377,17.303,5.602,31.219,5.602,31.219l-0.061,0.128
		c-0.984,2.097-17.063,34.256-51.746,45.22l-15.025,3.45c0,0-10.841-42.071-286.432-88.639c-13.925-2.35-28.519-4.743-43.797-7.087
		c0,0-0.063-0.063-0.245-0.124c-2.532-1.107-25.259-9.428-158.687-13.74c-143.149-4.613-170.131,6.158-256.373,133.977
		c-11.701,17.369-23.586,32.584-35.352,45.892c-74.849,84.822-145.619,93.446-145.619,93.446
		c29.135-18.972,69.849-54.817,102.991-90.178c52.794-56.428,86.175-111.738,21.802-96.092
		c-102.127,24.754-161.873-18.608-164.715-20.756c158.625,45.336,284.833-67.09,264.752-83.231
		c-19.957-16.131-90.059,2.339-150.111-23.1c-60.063-25.432-79.289-105.516-90.121-116.23c-10.287-10.414-38.312-0.865-40.65-0.061
		c2.029-1.906,25.434-22.922,46.075-18.422c21.558,4.557,35.421,37.695,45.46,10.716c9.61-25.931,29.937-54.698,31.475-56.787
		c-1.231,2.836-27.229,63.567-10.718,117.65c16.942,55.438,103.175,49.28,112.415,36.225c9.241-13.125-8.502-49.287-4.616-73.927
		c3.755-23.956-9.978-126.516-10.724-132.182c1.731,5.421,29.389,93.131,34.559,147.585c5.422,56.178,46.998,33.879,63.938,23.839
		c16.94-10.035,3.824-38.493-19.217-135.151c-23.156-96.652,31.544-168.217,62.34-189.038
		c30.797-20.761,63.139-108.534,63.139-108.534s-20.017,96.207-56.236,134.775c-36.16,38.432-60.004,142.415,6.153,228.65
		c66.276,86.243,175.185,96.215,175.185,96.215c5.794,15.035,18.108,19.285,18.108,19.285
		c-79.21-183.07-46.197-274.912-46.197-274.912c-3.814,87.032,75.465,237.95,97.014,267.955
		c10.233,14.224,51.815,30.857,101.829,43.296c12.746,3.144,25.997,6.035,39.482,8.563c45.214,8.501,92.275,12.635,126.648,8.257
		c24.205-3.078,42.013-22.602,54.997-48.91c32.723-65.664,35.86-173.645,35.86-173.645c3.455,3.328,6.408,7.082,8.81,11.143
		c13.003,21.013,14.479,51.197,10.839,80.938c-4.499,37.514-17.062,74.354-25.125,91.233c-1.423,2.898-2.715,5.241-3.762,6.84
		c-13.055,20.075-23.094,50.08,18.479,42.384c10.839-1.979,21.812-8.136,32.404-16.392c7.765-5.917,15.333-12.997,22.603-20.445
		c21.318-21.621,40.476-46.264,54.639-55.56c25.688-16.945,76.696-64.683,92.081-85.507c14.797-19.893,1.67-37.26,0.563-38.679
		C1684.397,422.871,1713.293,440.488,1702.323,478.431"/>
	<path class="st1" d="M1928.699,507.689c0,0-30.795-18.479-80.879-10.775c-49.215,7.58-134.281,100.225-136.936,103.115
		c2.594-1.363,84.645-45.03,103.369-73.368c0,0,14.347-13.175,27.412-14.35c0,0-18.48,81.622-132.812,119.744
		c-112.292,37.398-42.937,78.235-40.468,79.712c-33.195-6.964-62.092-14.163-70.779-17.736c-11.639-4.87-21.125-6.967-26.559-7.824
		l-2.943-4.5c-0.071-0.065-5.303-8-3.088-16.871c1.424-5.432,5.293-10.722,11.465-15.716c1.107-0.856,2.215-1.786,3.077-2.522
		c1.723-1.423,3.753-3.204,6.101-5.239c8.502,2.343,17.178,2.284,25.805-1.232c40.044-16.196,161.697-173.277,215.598-170.93
		C1880.963,471.531,1922.528,473.012,1928.699,507.689"/>
	<path class="st2" d="M1524.799,587.771c-0.553,0.616-1.17,1.173-1.725,1.785c-7.639,7.818-14.416,13.977-20.816,18.847
		c-0.993,0.806-1.979,1.543-2.963,2.164c-5.725-4.62-11.824-8.934-18.11-12.757c0.122-0.307,0.245-0.61,0.429-0.919
		c5.98-12.448,12.941-31.788,18.482-53.54c2.285,8.256,4.747,14.732,7.453,18.982
		C1512.666,570.219,1518.449,578.956,1524.799,587.771"/>
	<path class="st2" d="M1500.096,543.357c-5.541,21.748-12.502,41.085-18.482,53.528c-0.184,0.303-0.307,0.621-0.429,0.929
		c-4.985-3.143-10.103-5.978-15.333-8.445c8.063-16.878,20.635-53.709,25.125-91.223
		C1493.756,515.818,1496.708,531.404,1500.096,543.357"/>
	<path class="st1" d="M1427.592,554.135c-2.408,6.219-4.984,12.198-7.754,17.805c-1.177,2.408-2.409,4.683-3.639,6.898
		c-1.916,0.063-3.816,0.242-5.724,0.495c-83.167,10.713-78.481-7.762-106.198,4.557c0,0-11.271,9.295-29.629,22.359
		c-5.792-0.919-11.646-1.974-17.617-3.075c-7.763-1.478-15.588-3.091-23.41-4.811c5.055-3.816,9.617-7.643,13.616-11.398
		c48.538-45.399,73.919-43.861,50.876-79.271c-23.158-35.417-120.123-225.64-107.053-288.718c0,0,56.177,210.919,167.853,304.919
		C1391.424,551.248,1413.176,558.447,1427.592,554.135"/>
	<path class="st1" d="M1476.199,386.465l-21.193-20.391l-1.111,39.484c0,0.243-0.244,6.04-0.922,15.583
		c-1.047-39.727-3.076-103.85-21.68-132.123c-21.565-32.836-64.248-134.288-66.832-140.566c3.755,6.4,59.254,101.574,86.041,132.129
		C1461.844,293.511,1469.547,337.063,1476.199,386.465"/>
	<path class="st1" d="M1172.891,664.953c-35.545,15.461-73.182,25.506-105.769,20.572c0,0,28.455-11.449,63.813-28.391
		c0,0,0,0.06,0.063,0c8.811,1.229,13.802,2.275,16.264,2.887l1.1,1.117l5.678,0.852
		C1160.441,662.985,1166.718,663.966,1172.891,664.953"/>
	<path class="st1" d="M1805.119,462.261c0,0,13.477-5.004,31.957-3.079c0,0-11.939-29.643-39.658-38.499
		C1797.418,420.683,1805.119,438.783,1805.119,462.261"/>
	<path class="st1" d="M492.957,1313.953c-5.17,4.44-10.717,10.599-16.439,19.161c-24.643,36.95-87.781,125.47-128.618,194.034
		c-40.782,68.563-44.599,139.4-21.565,197.114c23.155,57.716,20.818,83.96,36.221,92.403c15.402,8.434,25.383,15.393,40.045,31.594
		c14.654,16.144-53.899,13.064-62.339,11.518c-7.647-1.414-19.71-32.211-21.997-38.189c0.677,2.655,1.734,10.04-6.031,17.438
		c-9.732,9.234-1.291-17.006-3.578-25.442c-1.782-6.535-58.514-131.944-83.713-187.329c1.85-2.521,3.756-5.228,5.857-8.119
		c47.367-65.912,173.893-245.411,204.997-294.08c3.826-6.03,10.831-12.926,30.989-12.926
		C474.17,1311.129,482.672,1312.045,492.957,1313.953"/>
	<path class="st1" d="M1071.684,1799.535v-0.062c-8.195-8.752-20.703-18.23-28.467-25.44c-11.578-10.716-5.723-68.553,7.147-122.764
		c-2.153-10.905-4.37-22.3-6.778-34.128c-17.609-87.224-33.748-154.8-37.082-162.989c-4.124-10.1-8.553-28.52-13.732-49.889
		c-2.213-9.123-5.055-20.71-8.008-31.915l-1.17,0.124c3.322,12.695,6.039,31.294,2.154,51.495
		c-7.211,36.965,10.223,217.631,10.223,260.751c0,43.123-18.17,108.838-18.17,108.838s14.109-6.159,18.17-11.27
		c0,0-3.076,15.403,6.156,29.752c8.016,12.442,49.592,14.906,68.193,9.363c2.901-0.865,5.24-1.973,6.777-3.203
		C1082.46,1813.887,1078.7,1807.053,1071.684,1799.535"/>
</g>
</svg>
