<?xml version="1.0" encoding="utf-8"?>
<!-- Generator: Adobe Illustrator 19.0.0, SVG Export Plug-In . SVG Version: 6.00 Build 0)  -->
<svg version="1.1" id="Layer_1" xmlns="http://www.w3.org/2000/svg" xmlns:xlink="http://www.w3.org/1999/xlink" x="0px" y="0px"
	 viewBox="0 0 2000 2000" style="enable-background:new 0 0 2000 2000;" xml:space="preserve">
<style type="text/css">
	.st0{fill:#039A72;}
	.st1{fill:#048461;}
	.st2{fill:#04674B;}
	.st3{fill:#045E44;}
</style>
<g id="XMLID_2_">
	<path id="XMLID_23_" class="st0" d="M1636.127,1851.79c-4.914,6.372-43.643,21.227-59.616,15.963
		c-15.871-5.348-153.865,10.025-167.214-22.344c-13.239-32.339,14.195-47.03-10.182-71.16
		c-24.451-24.018-168.486-141.816-190.386-194.198c0,0-76.601,23.862-123.053,5.516c16.127-30.573,29.808-66.164,40.763-105.905
		c10.366-37.697,27.765-67.927,50.448-87.288l4.834-4.172c42.962,16.996,77.117,32.791,83.818,42.715
		c18.597,27.02,43.654,60.648,43.654,60.648s19.866-2.816,43.212,64.45c23.356,67.175,122.373,193.186,170.529,217.229
		c48.146,24.03,86.351,50.937,101.208,57.988C1639.019,1838.369,1641.136,1845.41,1636.127,1851.79"/>
	<path id="XMLID_22_" class="st1" d="M1074.638,1398.072l0.341,1.004C1074.979,1399.075,1073.616,1399.425,1074.638,1398.072"/>
	<path id="XMLID_21_" class="st1" d="M1106.996,1360.026c-12.318,8.054-20.897,13.929-26.917,18.253l-12.151-32.265
		C1080.593,1350.506,1093.75,1355.173,1106.996,1360.026"/>
	<path id="XMLID_20_" class="st0" d="M1169.071,1383.206c-18.853,16.137-40.846,44.417-54.258,93.317
		c-12.834,46.885-27.775,80.855-39.918,103.768c-13.081,24.637-23.096,36.521-24.202,37.893l-0.091,0.081
		c0,0-65.896-16.486-80.671-50.963c-3.305-7.631-15.033-18.937-31.935-32.688c-59.009-47.972-180.619-126.102-223.923-185.969
		l-3.055,357.509l-0.258,31.419l-0.93,105.731c0,0-283.382,22.25-403.371-74.312c0,0,171.965-460.686,221.897-501.027
		c0,0,4.584-21.237,0.331-38.892c-3.976-16.728-128.733-429.434-139.772-528.195c17.575,10.451,38.895,19.784,65.131,28.364
		l0.423,0.249l0.774,0.258c39.814,12.999,82.374,21.662,122.621,29.384l7.898,1.528c24.369,4.576,51.875,9.676,57.741,13.156
		c7.134,7.65,14.525,11.461,22.001,11.461c1.787,0,3.48-0.248,5.008-0.671c21.56,16.984,45.164,25.564,70.15,25.564
		c17.324,0,31.077-4.16,39.557-7.65c9.509-3.912,14.951-9.592,16.304-16.726c0.257-1.188,0.349-2.293,0.349-3.388
		c2.624-3.148,4.078-6.464,4.842-9.271c7.208,1.447,15.705,2.984,23.604,4.005l74.897,204.996
		c-23.355-1.188-36.859-2.211-36.859-2.211s-25.814,173.06-52.309,213.742c0,0,20.124,0,16.976,49.158
		c0,0,37.8,14.022,44.759,33.133c0,0,17.491,7.372,26.494,22.839c0,0,24.966-7.476,73.794,12.733
		c10.881,4.592,30.582,11.552,54.691,20.216l24.534,67.256c-21.136,18.34-50.687,46.187-53.909,61.146
		c-1.28,5.939,1.096,10.015,2.624,11.884c2.477,3.058,6.206,4.76,10.284,4.76c8.321,0,16.901-6.453,51.956-33.98
		c22.519-17.574,50.531-39.483,82.043-61.384c2.301-1.619,4.502-3.149,6.793-4.758
		C1157.868,1378.879,1163.547,1380.995,1169.071,1383.206"/>
	<path id="XMLID_19_" class="st0" d="M1492.351,790.552c0,2.891-1.693,5.948-6.186,9.253c-1.104,0.847-2.725,1.537-4.676,2.034
		h-0.093c-0.074,0-0.166,0.094-0.248,0.094c-1.445,0.423-3.057,0.763-4.925,1.095c-14.951,2.477-39.834,1.104-47.723,2.642
		c0,0,1.012,35.582-15.707,54.435c-10.457,11.71-12.068,20.465-11.809,25.38c0.083,3.065,0.928,4.593,0.928,4.593
		s-5.256,0.681-12.307,1.188c-8.497,0.847-19.536,1.528-27.185,0.929c0,0,15.981,4.088,24.81,4.244c0,0,1.187,33.214-19.028,51.728
		c0,0-132.979-9.271-168.466-3.407c-35.59,5.855-102.424,10.615-134.865,7.392c0,0-14.259,33.453-84.409,32.443
		c-17.923-0.258-34.301-0.682-48.827-1.188l-1.777-4.769l-76.61-203.466c2.799-1.518,5.266-3.895,6.793-7.557
		c0.258-0.581,0.423-1.097,0.598-1.686l25.306,1.447l-22.674,29.042l64.8-12.915c4.832,2.541,9.261,5.183,12.649,7.815
		c0,0,30.748-7.382,46.711,13.845c0,0,54.093-19.119,76.932,7.383c0,0,13.247-7.383,30.232-5.771c0,0,98.76,5.257,160.329,15.872
		c61.559,10.612,123.643,2.642,128.402-13.24c1.354-4.427,3.222-8.836,5.598-12.821c2.716-4.42,6.029-8.406,9.933-11.463
		c5.174-3.995,11.378-6.369,18.431-5.946c3.644,0.249,8.67,0.249,14.352,0.249c5.275,0.09,11.12,0,17.076,0.09l33.104,1.861
		l3.148,0.174c1.455,0.342,2.468,0.858,2.975,1.282c1.187,1.011,2.209,2.106,2.88,3.294c0.423,0.691,0.774,1.289,1.022,1.961
		c0,0.092,0.083,0.092,0,0.176C1492.186,788.943,1492.351,789.79,1492.351,790.552"/>
	<path id="XMLID_18_" class="st1" d="M1484.968,781.549l-3.138-0.174l-33.114-1.861c12.308,0.084,24.709,0.333,32.266,1.356
		c1.354,0.164,2.458,0.339,3.471,0.587C1484.627,781.458,1484.802,781.549,1484.968,781.549"/>
	<path id="XMLID_17_" class="st0" d="M899.7,1520.269c-35.331-14.278-64.615-28.37-64.615-28.37
		c-30.738,29.724-57.84,31.335-57.84,31.335c-2.624,35.064-34.383,111.501-53.909,155.653l2.449-297.809
		c36.263,37.697,91.8,78.636,141.99,115.486C878.894,1504.733,889.683,1512.612,899.7,1520.269"/>
	<path id="XMLID_16_" class="st2" d="M1056.042,1629.811c-64.366,82.457-194.463,98.842-194.463,98.842l-12.733-41.436
		c-35.928,47.559-91.045,53.414-126.026,51.379v-0.939l0.257-27.001l11.286-26.918c21.652-49.012,47.649-112.864,53.762-150.322
		c10.863-2.79,29.118-9.76,49.16-27.157c10.964,5.09,33.122,15.114,57.923,25.131l42.457,18.679
		c16.478,14.01,20.29,19.948,21.227,22.002c16.644,38.792,81.435,56.036,88.827,57.913l6.621,1.528L1056.042,1629.811z"/>
	<path id="XMLID_15_" class="st0" d="M846.886,744.865c-0.175,0.081-0.423,0.249-0.673,0.339c0,0,2.202,3.387,3.222,7.983
		c0.332,1.444,0.507,3.056,0.507,4.757c0,1.87-0.433,3.637-1.104,5.432c-0.931,2.202-5.515,2.89-11.886,2.625
		c-0.939,0-1.868,0-2.89-0.084c-18.172-1.26-46.361-8.147-46.361-8.147s8.828,12.317-4.584,20.807c0,0,7.033,6.792-7.475,12.824
		c-14.526,5.936-58.429,18.686-103.695-21.23c0,0-6.701,9.501-20.122-5.016c-5.267-5.68-33.888-10.688-71.75-17.822
		c-36.013-6.979-80.423-15.799-121.094-29.046c-0.258-0.083-0.423-0.164-0.598-0.268c-25.905-8.477-50.191-18.75-69.808-31.574
		c-0.083,0-0.258-0.083-0.331-0.184c0,0-10.108-89.15,32.855-95.015c42.965-5.77,94.517,11.217,121.525,25.991
		c5.176,2.88,14.426,8.053,25.98,14.6c49.085,27.588,140.112,79.398,140.112,79.398s11.719,2.119,29.727-6.359
		c7.474-3.491,19.698-1.963,32.781,0.92c0.073,0.081,0.073,0.081,0.073,0c18.522,4.253,38.812,11.129,50.033,10.189
		c5.349-0.413,11.802,0.692,17.74,2.799c0.847,0.349,1.61,0.607,2.375,0.949C855.29,725.495,864.809,736.625,846.886,744.865"/>
	<path id="XMLID_12_" class="st0" d="M804.603,553.284c-21.485-39.227-89.424-76.685-129-72.433
		c-38.214,4.07-104.79,4.493-107,137.222c1.878,1.03,3.904,2.137,5.947,3.323c44.41,24.957,123.211,69.706,137.738,78.028h0.175
		c3.47,0,10.78-0.671,20.878-5.422c4.502-2.135,9.85-3.149,16.396-3.149c2.88,0,6.03,0.175,9.508,0.591v-0.765l13.083,2.984
		l-2.89-14.187c0,0,17.749-6.361,19.617-7.898c1.868-1.622,3.305-5.091,3.047-6.03c-0.249-0.931-15.272-33.382-15.449-37.357
		c-0.081-3.996,7.991-8.745,9.851-12.152c1.869-3.303,6.297-20.042,2.127-29.55c1.445,2.538,9.086,17.159,3.728,37.965
		C792.36,624.454,826.081,592.609,804.603,553.284 M746.091,631.927c0,0-12.059-11.139-12.924-14.443
		c-0.828-3.407,13.431,0.339,13.431,0.339S749.148,624.702,746.091,631.927"/>
	<path id="XMLID_11_" class="st2" d="M1554.518,608.492c-39.317-5.526-54.94,15.188-51.801,22.579
		c3.222,7.392-3.902,19.112-23.262,48.819c-19.453,29.736-2.716,28.373-2.716,28.373c-18.513,17.325-1.03,23.613-1.03,23.613
		c-3.388,4.151-3.646,10.189-2.633,15.953c1.703,9.693,6.887,19.119,6.887,19.119c0.514,0.672,1.02,1.437,1.445,2.293l-32.009-1.702
		l-17.076-1.013l-2.035-0.091c-0.34-1.612-0.765-3.223-1.271-4.853c-14.361-47.207-4.768-82.695,7.982-100.784
		c12.733-18.091,6.279-49.352,11.628-68.444c5.348-19.11,34.474-12.742,34.474-12.742c14.858-93.421-50.955-195.918-120.495-260.616
		c-69.466-64.708-169.258-169.848-169.258-169.848L847.825,709.459c-0.507-0.259-0.931-0.524-1.455-0.682
		c-0.174-0.081-0.598-0.266-1.022-0.424c52.832-87.555,339.169-563.027,335.514-566.073c-3.976-3.481-2.375-13.331-16.717-31.338
		c-14.361-18.006-24.377-47.217-24.377-47.217c49.343,36.097,43.489,44.575,49.343,59.95
		c5.855,15.373,179.946,179.937,247.885,256.381c67.93,76.427,62.582,184.955,62.582,184.955
		c15.107-30.231,44.842-40.598,44.842-40.598c-13.505,7.899-18.853,39.835-18.853,53.321
		C1525.567,591.246,1593.755,614.087,1554.518,608.492"/>
	<path id="XMLID_10_" class="st2" d="M1480.126,1070.189c-23.695,29.044-18.43,15.54-9.167-7.808
		c9.167-23.362-12.061-43.827-12.061-43.827s-2.126,41.02-38.885,123.144c-36.86,82.033-178.004,160.908-261.555,216.117
		c-6.794,4.493-13.505,9.085-20.123,13.752c-73.97,51.47-131.037,104.697-128.154,91.037c3.231-14.859,56.311-59.873,56.311-59.873
		l-24.037-65.806L913.205,982.641L838.481,778.07h0.847c0.589,0,1.27,0,2.118-0.084l77.117,204.903l134.506,357.767l21.569,57.406
		c-1.022,1.362,0.341,1.023,0.341,1.023l-0.341-1.023c1.777-2.384,10.78-9.756,46.536-32.853
		c26.587-17.161,67.938-43.057,132.13-81.879c200.669-121.506,183.085-263.238,183.085-263.238
		c-40.847-12.743-16.801-42.634-20.63-50.44c-3.903-7.731,5.265-38.553-6.021-52.326c-4.428-5.339-6.555-10.696-7.567-15.188
		c0.847,0,1.27-0.084,1.27-0.084l11.212-2.476l-1.693-14.342c0.074,0,0.074-0.084,0-0.332c0-1.537,0.331-7.319,8.828-16.819
		c13.413-15.114,17.325-37.533,18.347-51.202c2.209,0,4.492-0.1,6.71-0.1c7.972-0.158,16.801-0.24,24.7-1.087
		c-0.074,0.332-0.248,0.506-0.332,0.765c-0.764,1.427-0.257,3.303,1.362,4.834c0.848,0.928,2.118,1.693,3.647,2.115
		c-0.074,0.423-0.175,0.765-0.249,1.188c-3.654,3.662-9.086,10.192-7.724,15.466c0.423,1.869,1.177,3.232,2.118,4.244
		c0.259,0.248,0.59,0.516,0.846,0.755c-0.34,1.528-0.681,3.056-0.938,4.583c-0.59,2.735-1.104,5.277-1.603,7.66
		c-1.62,8.322-2.724,15.024-2.724,18.256c0,13.063-4.585,23.016-4.585,23.016c-1.445,10.954-6.021,16.642-6.021,16.642
		s14.51,60.115,16.636,70.049C1474.096,995.207,1503.821,1041.154,1480.126,1070.189"/>
	<path id="XMLID_9_" class="st1" d="M1074.979,1399.085c0,0-1.362,0.33-0.341-1.013L1074.979,1399.085z"/>
	<path id="XMLID_8_" class="st2" d="M1390.884,776.119c-2.798,2.283-5.522,4.997-7.898,8.055l-402.773-23.439l-70.572,14.103
		l-16.902,3.397l6.022-7.732l10.88-13.837h-0.092l-47.796-2.798c-0.175-1.188-0.35-2.303-0.598-3.316c0-0.165,0-0.339-0.083-0.514
		c1.602-1.353,2.88-2.799,3.811-4.153l42.375,2.458l-15.953-19.276l87.795,23.439L1390.884,776.119z"/>
	<path id="XMLID_7_" class="st2" d="M1705.503,815.777l1.022-12.75l-202.188-11.719c0.074-0.248,0.074-0.497,0.074-0.763
		c0-2.541-0.59-5.092-1.271-6.713c-0.164-0.423-0.331-0.847-0.589-1.186h0.681l204.149,11.719l1.179-11.535l22.424,16.983
		L1705.503,815.777z"/>
	<path id="XMLID_6_" class="st2" d="M1498.815,770.255l-13.164-0.765l-4.254-0.249c-0.423-0.856-0.921-1.621-1.435-2.299
		c0,0-5.184-9.43-6.887-19.105C1476.646,750.213,1491.174,760.405,1498.815,770.255"/>
	<path id="XMLID_5_" class="st3" d="M1496.689,806.69c-0.507,3.223-1.354,6.371-2.799,9.087c-0.084,0.158-0.259,0.423-0.341,0.581
		c-1.364,2.474-3.149,4.427-5.616,5.522c-4.401,2.135-8.139,2.374-10.947,1.703c-0.258,0-0.506-0.081-0.763-0.175
		c-1.529-0.423-2.799-1.188-3.647-2.115c-1.619-1.53-2.126-3.407-1.362-4.834c0.091-0.259,0.258-0.443,0.332-0.765
		c2.384-0.175,4.677-0.524,6.793-0.866c1.621-0.239,3.149-0.579,4.511-0.847l1.187-0.074l1.445-0.688
		c3.223-0.92,5.855-2.202,7.807-3.729C1494.561,808.549,1495.666,807.62,1496.689,806.69"/>
	<path id="XMLID_4_" class="st3" d="M1490.069,839.381c0,2.964-0.093,10.863-2.974,14.609c-3.563,4.667-8.074,8.746-12.327,8.478
		c-2.54-0.156-4.914-2.531-6.104-5.173c0.508-2.384,1.023-4.916,1.613-7.641c0.257-1.528,0.589-3.055,0.938-4.583
		c2.891,2.293,6.795,1.528,8.747,0.174C1482.17,843.615,1485.991,842.612,1490.069,839.381"/>
	<path id="XMLID_3_" class="st3" d="M1490.069,839.381c-4.078,3.232-7.899,4.234-10.108,5.864c-1.952,1.354-5.856,2.119-8.747-0.174
		c-0.257-0.258-0.597-0.507-0.846-0.775c-0.94-1.002-1.704-2.365-2.126-4.244c-1.354-5.257,4.078-11.8,7.723-15.446
		c0.093-0.423,0.177-0.765,0.259-1.188c0.257,0.074,0.515,0.158,0.763,0.158c2.809,0.679,6.546,0.439,10.957-1.686
		c2.457-1.114,4.252-3.065,5.606-5.525C1494.221,819.248,1496.862,832.338,1490.069,839.381"/>
</g>
</svg>
