<?xml version="1.0" encoding="utf-8"?>
<!-- Generator: Adobe Illustrator 19.0.0, SVG Export Plug-In . SVG Version: 6.00 Build 0)  -->
<svg version="1.1" id="Layer_1" xmlns="http://www.w3.org/2000/svg" xmlns:xlink="http://www.w3.org/1999/xlink" x="0px" y="0px"
	 viewBox="0 0 2000 2000" style="enable-background:new 0 0 2000 2000;" xml:space="preserve">
<style type="text/css">
	.st0{fill:#955F60;}
	.st1{fill:#666767;}
	.st2{fill:#684342;}
</style>
<g id="XMLID_2_">
	<path id="XMLID_31_" class="st0" d="M1456.554,1505.019c21.714,11.573,54.879,8.204,54.879,8.204l2.127-27.617l-12.161-21.015
		c-0.062,0-2.481-3.49-6.37-3.49c-2.246,0-5.073,0.958-8.27,2.723c-7.481,4.317-14.394,6.379-21.01,6.379
		c-1.94,0-3.827-0.188-5.717-0.527L1456.554,1505.019z"/>
	<path id="XMLID_30_" class="st0" d="M1383.551,1496.055c27.084,35.88,70.817,31.454,70.817,31.454l2.186-22.49l3.484-35.342
		c-1.245-0.239-2.482-0.55-3.728-0.959c-10.21-3.477-15.568-11.563-19.061-16.867c-0.409-0.599-0.938-1.425-1.406-2.062
		c-1.421-0.191-3.312-0.31-5.556-0.31c-11.911,0-19.59,3.538-21.057,5.962l-9.333,19.24l-14.637-14.106
		C1378.359,1473.853,1376.293,1486.434,1383.551,1496.055"/>
	<path id="XMLID_29_" class="st0" d="M1210.694,1432.309c4.481,6.911,16.466,12.154,26.799,20.428
		c7.958,6.37,23.777,10.738,38.935,12.143c17.651,1.663,34.476-0.698,36.832-8.663c0.644-2.123,1.004-4.246,1.187-6.321
		c-5.852-2.012-11.223-4.777-15.343-8.385c-3.249-0.577-9.923-1.057-19.773-1.465l-7.499-0.25
		C1249.348,1438.969,1226.272,1438.212,1210.694,1432.309"/>
	<path id="XMLID_28_" class="st0" d="M1128.072,1420.806c0,13.578,6.606,25.612,11.913,29.62
		c9.333,6.969,42.969-4.356,55.425-10.967l-16.232-25.023c-9.678-4.795-21.417-9.86-33.998-14.584
		c-2.886-1.118-5.837-2.183-8.789-3.182c-0.827,1.056-1.589,2.183-2.306,3.31c-0.581,0.818-1.121,1.707-1.531,2.593
		c-0.47,0.887-0.938,1.824-1.295,2.702c-1.829,4.206-2.768,8.454-3.072,12.58
		C1128.133,1418.862,1128.072,1419.849,1128.072,1420.806"/>
	<path id="XMLID_27_" class="st0" d="M1081.744,1633.206c0.591,0.059,1.246,0.059,1.829,0.059l7.194,0.161l4.905,4.973
		c0.587,0.579,2.244,2.243,4.725,4.467c7.132,6.272,18.64,15.004,32.751,21.084c4.602,1.936,8.789,3.421,12.811,4.417l4.54,1.187
		l3.311,3.31l0.049,0.058c1.95-1.774,4.247-3.776,6.974-6.08c0.584-0.479,1.234-1.017,1.88-1.596
		c0.653-0.528,1.304-1.075,2.008-1.653c5.26-4.368,8.445-10.389,10.148-17.229c1.716-6.499,2.124-13.707,1.766-20.833
		c-0.819-17.179-5.891-33.997-7.841-39.73c-3.713-10.729-23.613-15.863-35.772-15.156c-2.705,0.182-5.834,1.648-9.256,3.96
		c-9.146,6.123-20.124,18.394-28.502,28.663c-2.715,3.368-5.2,6.508-7.262,9.102c-1.123,1.475-2.119,3.069-2.886,4.785
		c-0.359,0.707-0.653,1.466-0.954,2.222c-0.527,1.428-0.933,2.853-1.23,4.259c-0.248,0.777-0.359,1.546-0.484,2.244
		c-0.233,1.174-0.343,2.311-0.467,3.488c-0.05,0.698-0.111,1.354-0.176,2.053
		C1081.803,1632.019,1081.744,1632.597,1081.744,1633.206"/>
	<path id="XMLID_26_" class="st0" d="M1166.726,1683.84c11.271,8.554,28.737,19.462,47.634,22.414
		c3.294,0.466,6.419,0.767,9.371,0.767h4.371l3.775,2.123c0.062-0.052,0.062-0.171,0.126-0.232c0.408-0.875,0.76-1.834,1.119-2.72
		c0.595-1.345,1.062-2.702,1.531-4.058c0.474-1.536,0.951-3.012,1.298-4.546c0.125-0.358,0.238-0.72,0.299-1.077
		c0.42-1.574,0.76-3.171,1.002-4.774c0.293-1.527,0.479-3.122,0.587-4.668c0.125-0.467,0.125-0.927,0.175-1.466
		c0.124-1.484,0.185-3.009,0.185-4.544c0-1.475-0.062-2.961-0.185-4.427c-0.641-9.32-3.421-18.583-8.495-27.864
		c-0.936-1.813-1.998-3.648-3.184-5.483c-8.678-13.64-22.072-17.824-32.997-18.713v0.13c0.483,9.61-0.282,18.295-2.23,25.731
		c-2.719,10.856-7.975,19.641-15.703,26.022l-1.77,1.486c-0.823,0.698-1.591,1.356-2.008,1.644
		C1169.795,1681.17,1168.205,1682.595,1166.726,1683.84"/>
	<path id="XMLID_25_" class="st0" d="M1239.256,1632.556c0.418,0.529,0.77,1.058,1.121,1.638c1.474,2.311,2.831,4.605,3.83,6.559
		c6.147,11.205,9.689,22.9,10.518,34.525c0.111,1.954,0.173,3.838,0.173,5.782c0,2.003-0.062,3.959-0.238,6.312
		c-0.059,0.657-0.117,1.235-0.242,1.833c-0.111,1.775-0.345,3.59-0.645,5.304c-0.351,1.954-0.762,3.897-1.231,5.852
		c-0.122,0.518-0.31,1.126-0.484,1.712c-0.341,1.537-0.828,3.064-1.406,4.958l-0.183,0.588c-0.645,1.764-1.237,3.477-1.94,5.184
		c-0.358,0.717-0.592,1.485-0.954,2.254c6.791,1.89,15.411,3.477,25.087,3.477c2.481,0,4.949-0.12,7.49-0.288
		c6.67-0.587,13.335-2.075,19.828-4.368l5.381-1.903l3.766,1.186c0.713-2.234,1.479-4.476,2.369-6.67
		c0.411-1.118,0.886-2.243,1.347-3.301c0.887-2.183,1.899-4.375,2.962-6.558c0.528-1.048,1.059-2.183,1.654-3.231
		c5.543-10.816,12.442-21.195,19.529-30.865c1.825-2.492,3.245-4.976,4.306-7.379c7.552-17.247-2.84-31.573-16.111-32.88
		c-0.183,0-0.355-0.058-0.526-0.058c-15.409-1.586-51.294-8.784-65.156-7.677C1252.776,1615.08,1245.219,1623.765,1239.256,1632.556
		"/>
	<path id="XMLID_24_" class="st0" d="M1325.594,1716.65c2.075,0.228,4.255,0.349,6.494,0.349c2.604,0,5.012-0.229,7.135-0.587
		c7.675-1.247,10.094-4.306,10.863-5.303l12.565-15.703l4.79,5.483c1.237-2.003,2.653-4.248,4.123-6.719
		c0.778-1.187,1.538-2.483,2.308-3.781c1.654-2.658,3.308-5.433,4.95-8.392c0.886-1.466,1.714-2.952,2.541-4.414
		c2.541-4.498,5.026-9.095,7.198-13.631c0.418-0.767,0.779-1.536,1.123-2.312c4.013-8.435,7.089-16.459,7.802-22.71
		c0.112-0.529,0.112-1.007,0.175-1.415c0.174-2.364,0-4.377-0.595-6.034c-0.233-0.698-0.593-1.405-0.945-2.052
		c-0.475-0.959-1.065-1.904-1.831-2.831c-0.702-1.079-1.656-2.075-2.652-3.072c-0.475-0.539-1.068-1.076-1.657-1.536
		c-0.532-0.527-1.126-1.007-1.704-1.477c-0.953-0.767-2.011-1.533-3.076-2.253c-1.059-0.756-2.181-1.464-3.369-2.183
		c-4.891-2.948-10.443-5.433-16.105-7.305c-11.21-3.84-22.714-5.386-29.865-3.072c-1.061,0.358-1.998,0.698-2.886,1.116
		c9.256,2.472,17.345,8.623,22.308,17.118c6.548,11.154,7.025,24.952,1.356,37.954c-1.596,3.659-3.721,7.196-6.136,10.497
		c-7.79,10.688-13.756,20.069-18.416,29.101c-0.299,0.578-0.592,1.177-0.89,1.815l-0.346,0.657c-0.886,1.835-1.778,3.65-2.716,6.024
		c-0.293,0.765-0.651,1.532-1.121,2.83C1326.482,1714.048,1326.012,1715.354,1325.594,1716.65"/>
	<path id="XMLID_23_" class="st0" d="M1382.369,1708.507c1.766-0.888,3.952-2.253,6.557-4.251l23.428-18.532l1.94,16.279
		c20.837-21.822,55.658-60.303,52.522-71.221c-2.532-8.853-33.168-12.391-58.834-13.817c1.187,1.486,2.123,3.021,2.952,4.656
		c0.582,1.137,1.359,2.671,1.887,4.259c1.357,3.897,1.892,8.083,1.531,12.869v0.121l-0.058,0.516
		c-0.05,0.66-0.176,1.297-0.283,2.016c-0.954,7.426-3.84,16.169-9.158,27.326c-0.408,0.877-0.883,1.824-1.362,2.77
		c-2.064,4.318-4.529,8.974-7.665,14.468c-0.828,1.524-1.716,3.13-2.418,4.246c-1.77,3.13-3.547,6.142-5.201,8.785
		c-0.825,1.354-1.591,2.719-2.416,4.027c-1.121,1.824-2.183,3.538-3.185,5.134L1382.369,1708.507z"/>
	<path id="XMLID_22_" class="st0" d="M1016,1607.644c0.47,0.119,0.888,0.29,1.356,0.42l4.138,1.234l3.06,3.011
		c0.175,0.179,14.877,14.166,40.551,19.121v-0.709l0.237-3.007c0.172-1.765,0.355-3.361,0.64-4.716
		c0.185-1.08,0.418-2.254,0.713-3.37c0.476-2.064,1.063-4.129,1.829-6.251c0.471-1.137,0.948-2.244,1.423-3.381
		c1.229-2.584,2.836-5.242,4.958-8.086c0,0,5.077-6.308,7.369-9.189c12.332-15.065,22.96-25.735,31.752-31.695
		c-7.021-8.333-16.579-16.888-27.021-18.294c-21.136-2.951-41.32-15.461-45.452-3.418c-0.175,0.406-0.349,0.926-0.591,1.464
		c-1.582,4.248-4.593,11.576-8.146,20.299c-1.411,3.608-2.951,7.384-4.483,11.285c-0.702,1.824-1.411,3.706-2.122,5.541
		C1022.32,1588.054,1018.543,1598.611,1016,1607.644"/>
	<path id="XMLID_21_" class="st0" d="M975.574,1576.548l2.9,2.881l0.754,1.128c0.059,0.05,6.79,9.332,18.119,17.466
		c6.085,4.436,12.332,7.617,18.653,9.622c2.532-9.022,6.32-19.59,10.21-29.741c0.71-1.822,1.42-3.717,2.122-5.541
		c1.532-3.901,3.077-7.677,4.483-11.285c3.553-8.723,6.564-16.041,8.146-20.289c-5.966-5.793-27.612-26.38-34.342-26.798
		c-1.591-0.131-3.421,0.757-5.435,2.411c-0.996,0.777-2.056,1.834-3.119,3.073c-7.146,8.024-14.766,23.667-16.294,37.535
		C980.943,1564.625,978.413,1571.226,975.574,1576.548"/>
	<path id="XMLID_20_" class="st0" d="M894.193,1532.872l2.482,0.948l2,2.064c11.393,9.202,46.277,34.175,69.405,37.774l5.483,0.888
		l2.016,1.993c2.839-5.304,5.371-11.924,6.196-19.54c1.531-13.857,9.147-29.49,16.279-37.524
		c-7.901,0.875-28.081,2.243-36.588-6.012c-10.677-10.27-34.288-15.464-46.435-9.921
		C907.946,1506.784,899.796,1521.298,894.193,1532.872"/>
	<path id="XMLID_19_" class="st1" d="M1130.49,1377.017L1130.49,1377.017c3.808,1.268,7.647,2.534,11.27,3.84L1130.49,1377.017z"/>
	<path id="XMLID_18_" class="st2" d="M999.358,1498.469c2.302-0.829,4.609-1.237,6.967-1.237l1.295,0.059
		c4.367,0.229,11.331,0.708,34.057,21.247c2.478-0.72,5.183-1.079,8.026-1.079c6.899,0,14.155,2.123,21.833,4.377
		c5.901,1.715,11.98,3.549,17.705,4.318c12.92,1.764,25.553,9.85,37.585,24.066l3.311,3.959c0.594-0.121,1.246-0.18,1.887-0.232
		c1.062-0.057,2.183-0.117,3.306-0.117c13.868,0,42.022,5.541,49.278,26.606c1.296,3.719,4.667,14.227,6.841,27.2l3.244,0.249
		c12.817,1.056,23.914,5.193,32.824,12.153c15.221-20.956,26.378-21.833,30.625-22.192c1.406-0.059,2.952-0.111,4.668-0.111
		c11.33,0,28.677,2.64,43.955,5.014c1.84,0.299,3.669,0.578,5.373,0.888c3.897-6.371,10.269-11.285,18.588-13.878
		c0.95-0.29,1.89-0.577,2.901-0.828c-26.862-18.463-52.647-42.549-56.017-68.041c-1.64-12.333-2.124-25.782-1.765-39.301
		c-0.295,0-0.644,0-0.938-0.059c-7.505-0.718-33.056-3.888-47.867-15.751c-3.301-2.662-7.138-5.073-10.801-7.508
		c-3.126-2.003-6.196-4.008-9.028-6.132l-3.947,2.073c-11.516,6.132-36.59,15.156-54.006,15.156c-8.024,0-14.281-1.826-19.356-5.594
		c-9.203-6.969-18.528-23.967-18.528-42.969c0-1.246,0.061-2.594,0.108-4.139c0.481-6.309,1.95-12.392,4.248-17.575
		c0.542-1.354,1.187-2.723,1.89-4.087c0.653-1.298,1.421-2.652,2.249-3.888c-7.025-2.294-14.102-4.367-21.186-6.32
		c-3.37-0.95-6.729-1.825-10.394-2.763c-3.06-0.767-6.137-1.545-9.429-2.303c-3.779-0.958-7.619-1.784-11.516-2.603
		c-16.405-3.36-31.69-7.844-45.381-13.149C1012.523,1396.49,997.771,1454.971,999.358,1498.469"/>
	<path id="XMLID_13_" class="st0" d="M1667.832,685.833c0.702-57.612-20.666-71.112-20.666-71.112
		c7.85-38.375-23.6-114.092-49.156-187.845c-25.612-73.775-61.027-102.279-124.933-190.808
		c-63.921-88.526-207.564-202.65-469.174-216.408C742.293,5.905,627.212,35.424,464.923,125.886
		C302.635,216.35,215.051,372.753,218.001,526.191c2.952,153.433-15.578,326.302,18.706,391.203
		c34.288,64.932,67.507,143.542,84.454,184.078c17,40.595,45.024,60.125,74.882,57.173c26.152-2.594,33.935-16.449,35.475-19.88
		c-3.01,8.623-8.914,16.928-8.914,16.928c17.173,29.691,53.698,55.133,55.946,56.729c-9.915-2.543-20.888-9.511-20.888-9.511
		s-24.255,187.854-12.455,283.272c11.803,95.438,195.754,173.091,264.619,210.507c68.82,37.356,344.244,221.322,438.664,263.574
		c94.431,42.3,149.487-2.951,208.503-54.055c53.709-46.577,44.732-164.656,42.675-185.672c-0.126-0.826-0.183-1.464-0.246-2.003
		l-0.113-1.177l-0.061,0.061c-2.012,1.595-4.013,2.951-5.959,4.127c-0.646,0.418-1.247,0.757-1.892,1.117
		c-0.126,0.058-0.234,0.058-0.293,0.178c-1.002,0.541-2.014,0.996-2.951,1.425c-0.829,0.349-1.595,0.65-2.423,0.928
		c-0.592,0.25-1.17,0.478-1.774,0.599h-0.116c-5.008,1.466-9.207,1.307-12.392,0.479c-3.836-1.078-6.369-2.952-7.49-3.969
		c-0.126-0.118-0.234-0.17-0.296-0.278l-0.473-0.479c-1.48,1.836-3.185,3.489-5.075,4.895c-0.586,0.47-1.182,0.878-1.773,1.237
		c-0.704,0.467-1.472,0.946-2.235,1.354c-0.826,0.411-1.716,0.829-2.607,1.187c-0.703,0.299-1.407,0.599-2.124,0.829
		c-1.294,0.467-2.591,0.877-4.008,1.184c-1.126,0.279-2.248,0.529-3.357,0.698c-3.312,0.538-6.615,0.769-9.927,0.769
		c-1.356,0-2.716-0.062-4.064-0.109c-2.069-0.121-4.069-0.31-6.02-0.529c-0.533-0.059-1.062-0.13-1.544-0.188
		c-2.703-0.361-5.245-0.828-7.543-1.357c-0.954-0.169-1.775-0.42-2.544-0.528c-0.466-0.17-1.002-0.299-1.479-0.409
		c-0.408-0.121-0.769-0.25-1.111-0.308l-0.953-0.28l-0.345-0.13l-0.309-0.06c-0.284-0.052-0.467-0.111-0.518-0.167h-0.066
		c-1.882,0.637-3.775,1.295-5.614,1.773c-0.233,0.109-0.406,0.169-0.582,0.169c-1.774,0.539-3.49,1.007-5.195,1.356
		c-0.293,0.071-0.593,0.13-0.827,0.18c-1.716,0.358-3.37,0.717-5.009,0.89c-2.248,0.416-4.495,0.707-6.788,0.884
		c-1.423,0.112-2.841,0.241-4.248,0.3c-0.126-0.059-0.238,0-0.359,0c-2.89,0.118-5.778,0.118-8.555,0
		c-5.493-0.188-10.625-0.827-15.344-1.716c-0.062-0.059-0.122-0.059-0.174-0.059c-2.132-0.349-4.197-0.769-6.205-1.295
		c-0.241-0.069-0.471-0.13-0.647-0.189c-1.121-0.229-2.183-0.519-3.18-0.829c-2.667-0.767-5.142-1.524-7.323-2.292
		c-1.182-0.409-2.243-0.828-3.244-1.238c-0.186-0.059-0.363-0.117-0.536-0.188c-0.529-0.22-1.061-0.408-1.54-0.639
		c-1.765-0.718-3.236-1.357-4.421-1.953c-0.654-0.349-1.171-0.578-1.531-0.758l-0.529-0.297h-1.126
		c-1.416-0.06-2.884-0.121-4.492-0.241c-0.996-0.062-2.057-0.17-3.059-0.291c-0.953-0.069-1.89-0.237-2.777-0.358
		c-0.175,0-0.36-0.05-0.534-0.05c-2.826-0.488-5.662-1.076-8.37-1.783c-1.307-0.29-2.602-0.639-3.839-1.058
		c-9.33-2.779-18.008-6.898-25.675-11.334c-1.121-0.578-2.183-1.177-3.244-1.886c-0.183-0.107-0.359-0.238-0.534-0.297
		c-2.947-1.825-5.787-3.65-8.32-5.494c-0.886-0.637-1.761-1.295-2.649-1.872c-1.126-0.828-2.248-1.657-3.247-2.433l-1.953-1.527
		c-7.612-6.03-12.033-10.498-12.033-10.498c-0.536-0.117-1.063-0.308-1.541-0.475c-4.839-1.238-9.386-2.894-13.744-4.777
		c-16.881-7.267-30.106-17.646-37.241-23.918c-3.307-2.951-5.308-5.004-5.726-5.413l-0.06-0.071h-1.77
		c-6.07-0.116-11.796-0.636-17.107-1.582l-0.776-0.131c-2.652-0.408-5.184-0.996-7.619-1.644c-3.654-0.827-7.132-1.885-10.32-3.072
		c-1.594-0.526-3.133-1.116-4.605-1.714c0,0,0-0.059-0.059-0.059c-1.479-0.579-2.889-1.237-4.307-1.876
		c-13.333-6.151-21.418-13.11-23.601-15.064c-0.126-0.169-0.234-0.29-0.36-0.349c-0.112-0.119-0.175-0.17-0.233-0.23l-0.059-0.059
		c-0.532-0.188-1.062-0.299-1.599-0.526l-0.232-0.071h-0.059c-2.064-0.637-4.074-1.356-5.959-2.182
		c-3.128-1.299-6.018-2.715-8.854-4.307c0-0.052,0-0.052-0.05,0h-0.062c-1.886-1.187-3.778-2.294-5.555-3.542
		c-0.938-0.656-1.824-1.295-2.768-1.953c-0.06,0-0.06-0.049-0.121-0.049c-1.294-0.948-2.532-1.885-3.715-2.84
		c-1.244-0.949-2.361-1.877-3.481-2.882c-1.296-1.126-2.483-2.194-3.605-3.202c-0.879-0.826-1.717-1.644-2.419-2.412
		c-3.482-3.548-6.025-6.54-7.491-8.373c-0.24-0.299-0.409-0.529-0.592-0.769c-0.125-0.179-0.299-0.359-0.362-0.528l-0.22-0.299
		l-0.064-0.059h-0.062c-18.059-2.844-39.719-15.115-55.533-25.553c-1.716-1.177-3.421-2.313-4.953-3.3
		c-0.888-0.599-1.665-1.197-2.481-1.775c-3.664-2.593-6.788-4.905-9.268-6.729c-0.644-0.467-1.238-0.947-1.769-1.356
		c-0.891-0.718-1.592-1.295-2.243-1.775c-0.593-0.408-0.953-0.707-1.065-0.819l-0.358-0.297c-0.108-0.121-0.293-0.238-0.344-0.308
		l-0.125-0.102h-0.126l-1.403-0.537c-9.924-3.421-66.695-22.014-123.877-21.135c-62.976,1.016-87.515-93.417-44.264-170.141
		c43.258-76.714,41.313-129.824,41.313-129.824c67.874,51.154,125.874-64.93,125.874-64.93s10.865,15.76,44.268,31.453
		c33.466,15.761,30.037,60.027,33.466,92.966c2.593,24.725,25.368,46.737,64.202,61.89c12.921,5.075,27.624,9.462,43.965,12.88
		c4.015,0.829,8.026,1.715,11.979,2.652c3.307,0.768,6.558,1.595,9.736,2.423c3.604,0.888,7.089,1.826,10.568,2.771
		c17.355,4.776,33.578,10.151,48.03,15.584c24.803,9.322,44.327,18.931,55.303,26.319c1.532,1.008,2.891,1.935,4.073,2.881
		c0.951,0.769,2.073,1.425,3.36,2.066c13.519,6.678,43.388,6.978,66.161,7.863c14.64,0.59,26.319,1.416,28.863,4.306
		c0,0,0,0.06,0.05,0.121c6.908,7.775,32.466,13.161,46.622,7.248c12.811-5.303,34.354,8.445,38.602,11.335
		c0.527,0.29,0.763,0.479,0.763,0.479c8.864-14.766,36.888-15.702,47.684-12.751c7.556,2.064,9.865,15.643,19.12,18.762
		c4.014,1.356,9.264,0.769,16.828-3.539c25.068-14.286,37.353,6.909,37.353,6.909c17.7-22.133,25.549-72.3,16.701-90.532
		c-8.861-18.187-1.481-52.112,14.751-73.237c16.231-21.195,20.183-63.973,20.183-63.973s-35.884,3.956-44.255-3.899
		c-8.382-7.906-2.492-45.261,0-66.916c2.359-20.895,69.447-141.696,73.526-149.142c-5.433,6.37-94.069,112.593-90.756,139.342
		c3.468,27.506-3.905,64.374-20.664,72.767c-16.704,8.374-38.836,4.417-56.536-13.278c-17.703-17.718-13.286-16.233-11.804-63.915
		c1.469-47.754,58.302-110.183,88.518-134.916c30.224-24.665,87.052-81.851,103.991-86.626
		c16.993-4.847,22.896,32.461,22.896,32.461s17.356-29.929-9.206-49.808c-22.184-16.65-41.022-53.646-46.622-65.34
		c9.442,18.124,28.562,31.753,28.562,31.753c2.183-47.983,50.872-76.714,63.385-90.703
		C1681.104,766.207,1667.115,743.309,1667.832,685.833 M700.68,813.422c0,0-37.587-55.359-57.484-47.214
		c-19.94,8.144-112.123,140.152-177.805,145.285c0,0,33.218-27.268,5.134-41.313c-27.969-13.978-149.724-67.086-165.954-89.228
		c-16.231-22.131,22.131,178.525,76.721,269.995c54.583,91.47-18.703,79.198-18.703,79.198s20.653-15.752-2.952-45.252
		c-23.601-29.509-79.678-133.799-93.419-183.956c-13.752-50.157-36.416-378.65,43.253-481.915c0,0-32.464,151.436-14.749,186.846
		c17.7,35.403,4.961,89.516,15.75,114.123c10.8,24.563,103.282,103.285,164.249,96.384c61.017-6.918,105.282-64.922,139.69-64.922
		c34.398,0,53.103-12.799,53.103-15.751c0-2.96-34.525-42.391-39.006-60.136c3.009,3.291,83.926,92.995,133.018,128.696
		c-24.665-13.678-60.609-32.858-68.155-32.858C681.558,771.403,704.409,805.276,700.68,813.422 M910.952,935.88
		c-32.455,106.215-190.322,38.361-190.322,38.361s156.386-28.035,163.766-72.299c7.386-44.266,20.655-125.408-41.312-162.303
		c-59.021-35.105-29.692-102.377-43.427-126.515c9.489,12.971,46.497,60.317,81.31,58.66c0,0,59.967-56.068,121.933-72.767
		c61.906-16.768,75.771-71.759,52.697-171.981c1.246,4.196,21.306,71.599,42.725,100.163
		c22.132,29.498-47.204,97.371-64.907,140.149C1015.707,710.149,943.417,829.655,910.952,935.88 M1496.68,803.563
		c0,0,3.955-43.258-18.712-53.108c-22.591-9.799-46.202,49.211-3.001,128.826c-1.424-1.295-24.208-22.731-45.157-57.005
		c0,0,39.305,174.087-67.868,174.087c-107.223,0-119.021,2.951-149.536,10.798c-30.454,7.913-139.624-54.066-154.388-54.066
		c0,0-24.602-61.95-35.416-76.706c-10.851-14.766,79.683-179.999,163.237-188.852c83.636-8.853,95.434-18.704,129.849-18.704
		C1350.144,668.834,1522.232,683.59,1496.68,803.563"/>
</g>
</svg>
