<?xml version="1.0" encoding="utf-8"?>
<!-- Generator: Adobe Illustrator 19.0.0, SVG Export Plug-In . SVG Version: 6.00 Build 0)  -->
<svg version="1.1" id="Layer_1" xmlns="http://www.w3.org/2000/svg" xmlns:xlink="http://www.w3.org/1999/xlink" x="0px" y="0px"
	 viewBox="0 0 2000 2000" style="enable-background:new 0 0 2000 2000;" xml:space="preserve">
<style type="text/css">
	.st0{fill:#977561;}
	.st1{fill:#694F43;}
</style>
<g id="XMLID_2_">
	<path id="XMLID_20_" class="st0" d="M12.119,979.444c-9.021,49.398,61.885,40.83,97.708,81.736
		c16.984,19.39,13.373,72.139,131.246,148.842c117.878,76.661,139.593,95.552,94.985,136.765
		c-44.67,41.163-271.826,125.848-271.826,125.848s86.39,68.839,59.484,171.284c-26.913,102.438-10.495,131.3,28.245,131.3
		c38.731,0,145.766,17.083,152.961-17.033c7.254-34.161-19.707-38.74-19.707-38.74s40.135-1.906,27.17,47.13
		c0,0,32.105-2.682,34.32-24.498c2.216-21.305-29.07-31.167-30.666-31.693c1.698,0,43.889,0.409,36.476,39.675
		c0,0,26.241-9.77,11.166-37.879c-12.512-23.151-37.865,2.384-88.287-32.104c-36.538-24.949-48.111-38.731-25.837-91.78
		c17.145-40.797,61.442-57.32,110.779-66.063c14.818-2.634,30.097-4.521,45.226-6.176c1.19-0.1,2.367-0.251,3.553-0.418
		c31.945-3.185,81.443-5.71,128.982-21.909c3.606-1.244,7.209-2.574,10.812-3.962c48.467-18.88,93.283-53.358,113.399-119.003
		c0,0,3.544,32.104-17.393,67.29c0,0,139.69-78.624,224.895-89.364c0,0-7.103-39.309,26.703-82.171
		c-2.675,4.941-33.08,62.821,3.808,110.813c38.588,50.275,42.134,46.673,26.911,114.842c0,0,72.03,28.569,66.523,112.017
		c-5.498,83.457-57.005,110.73-30.817,147.305c26.183,36.533,207.391,40.286,224.634,22.375
		c17.234-17.947,29.639-35.798-5.451-58.592c2.101,0.568,39.718,11.468,32.006,43.011c0,0,26.287-0.468,32.864-21.922
		c6.383-20.729-38.017-45.176-41.005-46.816c3.091,0.62,52.847,11.058,53.255,42.442c0,0,19.61-4.528,20.329-25.835
		c0.097-1.636,0.049-3.433-0.159-5.29c-2.626-25.835-41.624-31.085-74.448-35.045c-28.76-3.435-60.202-9.563-69.094-25.728
		c-0.778-1.437-1.346-2.874-1.76-4.461c-0.258-0.98-0.458-2.008-0.56-3.095c-1.496-14.61,2.32-59.267,20.481-110.619
		c2.513-7.204,5.347-14.51,8.533-21.924c7.981-18.881,18.058-38.222,30.514-56.953c52.225-78.307,106.303-101.61,151.007-204.157
		c5.561-12.763,12.396-26.446,20.267-40.553c55.467-98.978,163.004-219.336,251.958-204.61
		c101.621,16.776,126.779,111.849,126.779,111.849s71.781-12.145,89.464-48.469c0,0-52.43-1.179-60.238-22.223
		c-7.773-20.996-22.79-67.86-54.646-79.897c0,0,53.46-33.65,96.723,1.797c12.151,9.931,22.034,18.732,30.624,26.079
		c5.451,4.68,10.341,8.75,14.969,12.143c2.216,1.606,4.322,3.093,6.427,4.38c5.21,3.293,10.14,5.507,15.19,6.587
		c5.86,1.237,11.926,0.977,18.713-1.079c27.641-8.45,85.321-35.456,88.307-48.685c3.032-13.223-145.967-99.755-149.005-119.572
		c-2.981-19.801,29.43-19.801,23.465-30.616c-6.026-10.84-93.129-49.281-105.743-66.731c-12.654-17.385-48.667-3.596-46.304-27.006
		c2.426-23.403,0.612-60.086,42.653-76.294c0,0-75.064,5.399-133.356,46.864c-43.125,30.668-129.35,22.493-210.179,40.857
		c-28.359,6.434-55.978,16.105-80.935,31.851c-96.118,60.755-125.126,118.795-125.126,118.795s6.324-58.04-86.134-128.725
		c-41.725-31.96-73.776-57.06-97.908-78.158c-29.327-25.626-47.183-45.325-57.112-64.215
		c-18.162-34.47-111.547-82.529-111.547-82.529s-29.889-46.196-110.571-95.191c0,0,18.113,51.713-4.58,92.518
		c-22.634,40.796-180.39,63.446-185.839,80.68c-5.454,17.227,6.329,16.308,0,26.286c-6.334,9.989-168.606,62.563-190.374,72.541
		c-21.765,9.938,68.889,116.955,100.644,116.955c31.691,0,48.049,13.574,73.416,6.327c0,0-12.135,10.598-24.589,9.621
		c-12.454-0.977-24.91-6.687-25.887-2.876c-0.919,3.853,84.286,46.915,107.747,50.726c0,0-16.777-22.483,21.039-33.49
		c37.821-11.015,150.289-21.506,161.761-13.383c11.479,8.126,106.512,130.113,101.102,200.455c0,0-18.104-59.216-46.931-75.164
		c0,0-172.042,157.693-415.77,181.616c-243.723,23.869-221.408-107.02-303.25-157.302C90.393,969.432,18.368,945.209,12.119,979.444
		 M649.595,651.62c-11.682,4.897-36.114-7.763-42.91-15.579c-6.845-7.824,63.44-9.788,63.44-9.788S661.331,646.79,649.595,651.62
		 M1733.935,822.545c2.057-1.186,29.013-12.973,38.643-14.452c10.487-1.596,20.107,28.954,20.107,28.954
		C1768.558,852.334,1736.351,821.776,1733.935,822.545"/>
	<path id="XMLID_19_" class="st1" d="M600.315,1677.094c-1.453-21.397-23.87-25.511-26.695-25.861
		c2.141,0.862,19.602,8.217,19.602,18.757c0,26.361-15.754,27.372-15.754,27.372c7.102-35.003-23.706-36.19-23.706-36.19
		s30.984,13.598,15.488,40.043c-15.488,26.446-38.341,19.184-114.942,20.127c-76.605,0.853-79.083-22.852-62.655-67.542
		c10.105-27.632-6.244-75.575-20.618-108.69c10.438-1.806,22.164-3.345,36.706-4.873c1.465-0.184,3.002-0.344,3.771-0.427
		c4.361-0.444,9.069-0.871,14.125-1.37c27.041-2.4,62.397-5.576,98.853-15.321c-14.634,35.422-29.1,82.419-21.657,95.518
		c11.126,19.841,46.646,1.029,84.738,19.339C625.744,1656.207,600.315,1677.094,600.315,1677.094"/>
	<path id="XMLID_18_" class="st1" d="M1434.372,1664.164c-4.789-19.852-32.864-22.768-34.322-22.768
		c1.799,0.853,26.104,7.789,26.104,22.768c0,15.912-18.828,21.22-18.828,21.22c-5.052-20.878-19.77-24.731-21.565-25.067
		c16.697,13.089,19.082,22.242,5.13,42.019c-9.327,13.087-56.399,10.355-87.206,6.935c0-0.517,0.084-1.035,0.084-1.63
		c0.173-3,0.079-6.167-0.17-9.243c-4.712-45.703-59.477-52.289-95.774-56.661c-38.776-4.622-48.361-11.124-50.244-12.745
		c-0.685-11.217,2.483-51.354,19.343-99.036c2.399-6.922,5.056-13.776,7.964-20.535c7.96-18.665,17.461-36.551,28.41-52.901
		c19.258-28.927,38.434-49.556,58.719-71.378c30.807-33.033,62.56-67.176,90.636-128.382c-3.079,29.362-10.358,62.736-25.94,92.007
		c-38.171,71.813-44.412,149.526-45.869,180.418c-1.546,30.992,31.923,68.739,66.246,81.309
		c34.322,12.494,78.734,9.17,84.042,27.991C1446.439,1657.309,1434.372,1664.164,1434.372,1664.164"/>
	<path id="XMLID_15_" class="st1" d="M1563.956,351.595c-16.349-10.958-44.767,40.394-86.364,43.721
		c-41.591,3.252-61.277,24.065-61.277,24.065c5.477-32.355,54.855-84.661,85.59-121.111c7.009-8.217,13.007-15.663,17.283-21.906
		c3.167-4.38,5.392-8.217,6.503-11.226c9.847-26.27-18.572-117.073-39.366-115.962c-20.797,1.113-137.796,135.645-152.092,140.025
		c-14.204,4.363-16.341-37.244-25.162-26.277c-8.731,10.957-20.791,26.277-66.67,44.85c-45.961,18.655-37.23,44.841-85.328,67.869
		c-48.188,22.926-97.318-26.286-97.318-26.286c0,51.452,46.731,113.587,46.731,113.587c-11.307,20.871,16.091,61.189,3.252,119.22
		c-7.445,33.466-40.052,58.291-66.332,73.352c22.853,19.599,52.55,42.711,89.269,70.869c45.19,34.476,69.237,67.007,81.909,92.936
		c20.889-23.446,53.317-53.745,101.677-84.295c24.825-15.661,53.749-27.13,88.497-35.002c6.334-1.455,12.752-2.743,19.175-3.771
		c2.741-5.39,5.649-11.308,8.816-17.627c41.592-83.106,2.643-94.747,46.979-200.203c23.714-56.318,89.442-57.162,89.442-57.162
		S1580.385,362.461,1563.956,351.595 M1266.539,340.212c11.726-9.771,38.079-17.553,38.079-17.553
		c15.666,8.811,20.462,28.334,20.462,28.334C1296.838,362.721,1266.539,340.212,1266.539,340.212"/>
	<path id="XMLID_14_" class="st1" d="M1537.768,339.183c0,0-11.887-20.219-27.281-32.363c7.005-8.232,12.976-15.639,17.295-21.864
		C1533.341,294.317,1541.215,312.839,1537.768,339.183"/>
	<path id="XMLID_13_" class="st0" d="M1857.861,1007.946c-2.421,1.906-6.018,4.473-11.113,7.204
		c-8.132,4.373-20.01,9.212-36.537,12.555c0,0,19.562-15.655,26.246-36.282c5.449,4.679,10.34,8.75,14.968,12.143
		C1853.641,1005.172,1855.747,1006.658,1857.861,1007.946"/>
	<path id="XMLID_12_" class="st1" d="M1873.042,1014.533c-4.583,5.299-15.696,15.328-36.793,19.131c0,0,5.769-8.901,10.5-18.522
		c5.094-2.715,8.692-5.289,11.122-7.204C1863.063,1011.231,1867.993,1013.453,1873.042,1014.533"/>
</g>
</svg>
