<?xml version="1.0" encoding="utf-8"?>
<!-- Generator: Adobe Illustrator 19.0.0, SVG Export Plug-In . SVG Version: 6.00 Build 0)  -->
<svg version="1.1" id="Layer_1" xmlns="http://www.w3.org/2000/svg" xmlns:xlink="http://www.w3.org/1999/xlink" x="0px" y="0px"
	 viewBox="0 0 2000 2000" style="enable-background:new 0 0 2000 2000;" xml:space="preserve">
<style type="text/css">
	.st0{fill:#685F30;}
	.st1{fill:#989642;}
	.st2{fill:#8F885E;}
</style>
<g id="XMLID_2_">
	<path id="XMLID_15_" class="st0" d="M325.072,1252.704c-44.033,59.679-60.809,125.537-62.491,120.76
		c-21.919-66.141-32.702-125.637-34.475-178.749c37.19,6.832,68.667,25.097,93.874,54.327L325.072,1252.704z"/>
	<path id="XMLID_14_" class="st1" d="M781.208,854.37l-0.093,0.092c-5.709-4.401-12.732-7.22-21.078-7.22
		c-30.074,0-45.254,34.383-58.736,86.288c-0.293,1.126-0.564,2.25-0.754,3.376c-0.375,1.409-0.659,2.81-0.84,4.127
		c-1.875-0.193-3.656-0.476-5.061-0.658c-1.031-0.092-1.872-0.284-2.624-0.375c-1.783-0.284-2.81-0.469-2.81-0.469
		c-6.56,17.421-17.611,35.225-31.939,52.838v0.091c-3.945,4.877-8.162,9.846-12.563,14.714c-2.533,2.807-5.153,5.525-7.774,8.333
		c-2.158,2.443-4.504,4.786-6.934,7.22c-4.401,4.493-9.087,8.901-13.865,13.394c-15.744,14.622-33.168,29.051-51.436,43.002
		c-6.003,4.502-12.09,9.097-18.283,13.404c-1.773,1.309-3.641,2.618-5.516,3.934c0,0-0.09,0-0.09,0.092
		c-6.378,4.593-12.936,9.085-19.39,13.586c-6.567,4.493-13.126,8.903-19.685,13.211c-13.103,8.62-26.325,16.864-39.251,24.73
		c-3.186,1.968-6.469,3.936-9.654,5.809c-4.4,2.627-8.802,5.245-13.215,7.779c-5.989,3.558-11.982,7.025-17.791,10.302
		c-6.938,3.933-13.779,7.776-20.329,11.335c-1.034,0.566-2.162,1.218-3.187,1.785c-4.219,2.434-8.436,5.06-12.457,7.776
		c-3.389,2.252-6.566,4.592-9.744,7.118c-5.355,4.025-10.496,8.243-15.374,12.743c-3.651,3.369-7.212,6.835-10.583,10.396
		c-2.822,2.808-5.436,5.718-8.055,8.617c-38.501-44.777-83.384-59.112-114.118-63.989c0.093-4.868,0.284-9.745,0.568-14.52
		c0.181-4.116,0.466-8.153,0.84-12.179c0.468-5.057,0.933-10.024,1.603-14.892c0.546-4.878,1.299-9.654,2.049-14.338
		c0.568-4.026,1.318-8.05,2.058-11.995c1.032-5.334,2.152-10.484,3.47-15.646c0.841-3.557,1.689-7.025,2.713-10.494
		c0.943-3.365,1.878-6.743,2.811-10.018c1.5-5.06,3.192-10.028,4.869-14.896c0.85-2.718,1.791-5.252,2.906-7.878
		c0.755-2.058,1.504-4.024,2.345-5.992c1.226-3.092,2.442-6.186,3.845-9.178c1.044-2.534,2.249-5.058,3.382-7.594
		c2.994-6.366,6.175-12.644,9.544-18.737c3.195-6.084,6.653-11.995,10.311-17.703c1.023-1.695,2.152-3.375,3.277-5.059
		c6.649-10.211,13.771-19.956,21.455-29.141c1.781-2.342,3.752-4.593,5.719-6.835c2.344-2.718,4.683-5.435,7.119-8.06
		c10.113-11.053,20.796-21.264,31.949-30.733c2.713-2.342,5.523-4.685,8.331-6.926c4.309-3.469,8.722-6.845,13.122-10.027
		c2.527-1.968,5.15-3.845,7.773-5.628c5.159-3.651,10.501-7.21,15.833-10.585c5.527-3.56,11.063-6.926,16.677-10.119
		c2.529-1.4,5.05-2.809,7.585-4.21c4.127-2.25,8.254-4.502,12.463-6.561c4.127-2.157,8.342-4.216,12.561-6.184
		c3.277-1.593,6.656-3.092,9.916-4.503c2.641-1.215,5.254-2.342,7.882-3.365c2.53-1.127,5.148-2.251,7.684-3.284
		c6.653-2.618,13.314-5.15,19.956-7.494c2.901-0.935,5.898-1.967,8.8-2.902c16.123-5.342,32.231-9.742,47.97-13.302
		c9.56-2.159,19.113-4.034,28.391-5.525c10.302-1.693,20.331-3,30.167-3.943c3.28-0.367,6.466-0.56,9.652-0.843
		c9.187-0.75,17.985-1.125,26.513-1.215c5.618-0.092,11.053,0,16.396,0.284c2.81,0.091,5.523,0.283,8.242,0.466
		c9.565,0.567,18.459,1.684,26.709,3.092c18.547,3.277,33.342,8.527,43.276,15.553c8.526,6.085,16.123,11.895,22.579,17.522
		c3.185,2.808,6.275,5.525,8.996,8.152c1.418,1.399,2.805,2.717,4.127,4.208c1.308,1.316,2.523,2.625,3.738,3.943
		c1.225,1.309,2.346,2.618,3.379,3.935C780.183,853.052,780.642,853.713,781.208,854.37"/>
	<path id="XMLID_13_" class="st2" d="M759.287,832.165c3.185,2.808,6.275,5.525,8.996,8.152
		C765.562,837.599,762.574,834.883,759.287,832.165"/>
	<path id="XMLID_10_" class="st1" d="M1438.569,838.415c-0.756-3.295-1.594-6.654-2.73-9.948
		c-8.421,6.478-17.042,9.664-25.764,9.664c-13.954,0-26.037-8.246-31.472-21.457c-6.649-16.314-1.874-37.19,11.801-50.688
		l2.912-2.899c-52.845-40.193-122.262-4.409-122.262-4.409s1.114-113.36-192.631-99.225l15.738,23.249l-36.907,5.81
		c8.052,7.493,12.46,11.61,12.46,11.61l15.927,15.088l-11.813,18.443c-19.488,30.742-50.96,42.16-66.331,46.104
		c-19.672,16.587-44.404,24.913-73.447,24.913c-18.273,0-38.035-3.175-60.341-9.825c-2.063-0.659-4.21-1.31-6.368-1.968
		c-18.172,34.2-23.424,61.456-23.424,61.456l-48.814,22.863l-22.385,10.494c0,0-17.803-54.539-45.627,52.28
		c-0.193,0.75-0.375,1.5-0.465,2.248c-25.856,104.926,68.387,130.133,68.387,130.133c-34.287,30.824-86.379,100.522-108.492,130.97
		c22.958-4.114,46.187-0.932,40.377,31.86c49.189-42.627,100.353-151.677,100.353-151.677
		c60.045-35.618,44.498-104.558,44.498-104.558c23.606-20.522,67.179-18.18,67.179-18.18s-17.149,29.983-30.086,54.998
		c-12.826,25.095,15.748,75.233-18.545,108.399c-7.867,7.584-16.396,20.795-24.822,37.193c13.768-3.761,29.313-3.562,41.682,7.584
		c3.56-4.209,6.938-7.675,9.846-10.221c20.047-17.035-2.248-37,25.197-72.508c27.357-35.608,51.81-115.508,51.81-115.508
		s29.599,14.794,126.572,18.545c30.825,1.207,53.783-10.676,70.836-27.448c-1.601-3.933-3.471-8.152-5.445-12.461
		c-5.049-11.052-10.768-21.739-16.01-31.199c-7.598,4.219-17.053,7.493-28.676,9.279c-1.773,0.273-3.647,0.465-5.435,0.465
		c-14.896,0-33.628-10.413-37.292-39.535c-4.207-33.075,11.526-84.429,51.914-94.814c2.901-0.749,5.902-1.215,8.984-1.215
		c17.803,0,40.76,10.382,76.269,81.502c14.804,27.356,105.493,164.989,137.258,189.445c31.849,24.356,51.144,3.651,41.499-43.661
		C1406.241,979.038,1455.895,914.299,1438.569,838.415 M1336.07,810.308c1.783-1.502,42.624-8.62,43.374,28.663
		c0.842,37.294,10.119,93.133,10.119,93.133S1259.149,870.829,1336.07,810.308"/>
	<path id="XMLID_9_" class="st0" d="M891.795,1190.871c-16.768,27.824-33.63,69.143-38.031,117.294
		c-6.938,74.394-77.77,347.592-108.684,372.79c-30.822,25.094-15.936-32.043,1.216-74.386
		c17.143-42.269,61.739-212.582,62.864-261.768c0.658-31.292,19.487-98.668,41.783-151.96l21.555-5.81
		c2.993-0.843,5.807-1.327,8.337-1.327c4.686,0,6.935,1.5,8.53,3.009L891.795,1190.871z"/>
	<path id="XMLID_8_" class="st0" d="M656.641,1235.75c-53.117,55.93-52.753,125.152-57.439,163.378
		c-5.15,42.453-50.12,127.323-52.743,164.626c-2.527,37.273-101.559,186.534-92.568,225.135
		c8.995,38.583-32.129,141.468-16.768,168.445c15.461,27.063,34.758,19.309,33.452,1.3c-1.222-17.986,14.14-113.156,7.772-151.757
		c-6.467-38.602,60.432-187.754,97.715-244.443c37.296-56.578,62.775-202.454,64.933-233.947
		c1.59-23.971,24.538-43.751,54.43-67.631v-0.09C695.426,1260.765,713.828,1217.368,656.641,1235.75"/>
	<path id="XMLID_7_" class="st0" d="M1227.482,989.066c8.156,48.061,98.377,341.011,77.293,192.152
		c-11.994-84.887-46.559-193.745-80.758-269.92c-25.764-57.33-51.248-96.134-66.894-92.096
		c-36.259,9.367-41.509,85.343-19.858,81.977c37.473-5.801,35.129-30.449,35.129-30.449s21.268,31.941,37.751,67.559
		C1218.021,955.424,1224.767,973.422,1227.482,989.066"/>
	<path id="XMLID_6_" class="st0" d="M1539.801,717.999c-22.668,6.452-75.149,50.029-103.634,74.952
		c-5.605,4.951-10.291,9.087-13.571,12.178c-20.335,18.362-26.702-7.227-13.487-20.329c4.595-4.595,9.177-8.995,13.487-13.13
		C1528.468,671.898,1565.754,710.488,1539.801,717.999"/>
	<path id="XMLID_5_" class="st0" d="M1673.256,799.437c-61.181,7.027-145.503,22.013-208.548,34.009
		c-0.111-0.284-0.111-0.567-0.192-0.841c-1.777-7.779-4.118-15.371-6.746-22.207c79.729-15.553,246.027-45.628,286.131-36.076
		C1797.19,786.876,1783.622,786.876,1673.256,799.437"/>
	<path id="XMLID_4_" class="st0" d="M1051.443,719.438c-19.307,30.348-56.494,35.882-56.494,35.882
		c-27.271,26.706-66.799,28.005-113.648,14.052c-93.139-27.731-215.107-115.792-326.228-183.716
		C388.217,483.623,424.107,461.602,424.107,461.602S123.455,97.53,262.764,101.739c44.039,1.321,139.225,63.616,248.753,148.313
		c179.134,138.382,396.678,336.444,491.671,424.315c3.844,3.561,7.486,6.944,10.869,10.129
		C1037.855,706.608,1051.443,719.438,1051.443,719.438"/>
	<path id="XMLID_3_" class="st0" d="M1048.723,662.929c-5.34,0.842-10.584,1.868-15.643,3.094l-0.841-0.851
		c-3.095-2.992-11.063-10.292-11.063-10.292C911.933,553.789,702.543,364.067,527.721,229.052
		c-10.87-8.336-21.172-16.303-31.201-23.88c-13.203-41.702-27.631-95.755-28.381-133.799C466.821,1.014,480.6-0.387,639.121,145.868
		C797.732,292.01,1048.723,662.929,1048.723,662.929"/>
</g>
</svg>
