<?xml version="1.0" encoding="utf-8"?>
<!-- Generator: Adobe Illustrator 19.0.0, SVG Export Plug-In . SVG Version: 6.00 Build 0)  -->
<svg version="1.1" id="Layer_1" xmlns="http://www.w3.org/2000/svg" xmlns:xlink="http://www.w3.org/1999/xlink" x="0px" y="0px"
	 viewBox="0 0 2000 2000" style="enable-background:new 0 0 2000 2000;" xml:space="preserve">
<style type="text/css">
	.st0{fill:#6A4D31;}
	.st1{fill:#989898;}
	.st2{fill:#CECCCC;}
	.st3{fill:#9A7146;}
	.st4{fill:#695643;}
</style>
<g>
	<path class="st0" d="M1244.657,1696.64c-34.497,39.63-83.437,10.385-83.437,10.385s3.461-52.521-22.321-55.028
		c-25.903-2.626-82.602-110.175-109.34-133.332c-11.817-10.265-19.934-22.082-25.306-31.87c2.148-2.626,4.536-5.491,6.923-8.356
		l4.656-5.849c73.29-89.405,79.617-99.909,81.527-103.371c11.459-18.859,11.459-30.796,11.579-43.449c0-2.387,0-4.894,0.12-7.758
		c0-2.865,0.477-8.356,1.074-14.801c1.075-13.011,2.626-30.916,3.343-51.089c3.104-1.91,11.578-6.326,24.947-6.326
		c5.014,0,10.265,0.716,15.637,1.91c7.282,1.791,14.801,2.865,22.321,3.461c-3.7,17.189-12.055,41.897-30.677,60.996
		c-31.87,32.706-73.052,132.496-73.052,132.496c3.462,104.088,119.486,196.954,140.136,206.384
		c20.65,9.55,11.22,16.354,11.22,16.354L1244.657,1696.64z"/>
	<path class="st0" d="M1716.392,730.253c-19.218,9.669-45.001,28.647-83.914,65.173c-1.91,1.791-3.82,3.582-5.849,5.491
		c-7.997,7.52-16.592,15.876-25.784,25.067c-3.819-3.342-8.236-7.281-13.13-11.817c-0.12-0.12-0.12-0.12-0.12-0.12
		c28.529-18.382,74.365-49.536,85.705-65.532c16.831-23.754,16.234-24.35,36.168-19.934
		C1710.901,728.821,1713.288,729.417,1716.392,730.253z"/>
	<path class="st0" d="M1988.666,869.553c0,0-6.804,51.089-83.438,44.166l-7.52-21.128c0,0-4.417-8.713,3.104-23.754
		c7.52-14.921-42.971-20.65-41.778-48.105c0,0-16.711-2.387-37.003-6.803v-4.894c0-2.745,0.239-5.61,0.358-8.236
		c1.433-17.785,0.955-31.751-1.79-42.971c46.314,14.562,90.598,31.154,89.644,40.584
		C1908.332,817.151,1951.901,862.629,1988.666,869.553z"/>
	<path class="st0" d="M844.661,1097.542c-10.504,15.16-17.308,28.171-20.292,39.63l-42.733-14.921l-334.463,96.568l77.826-31.752
		l260.935-106.594L844.661,1097.542z"/>
	<polygon class="st0" points="762.896,1080.472 447.173,1195.781 434.161,1154.122 	"/>
	<polygon class="st0" points="723.983,1080.472 434.161,1138.126 434.161,1066.746 	"/>
	<path class="st1" d="M1232.959,758.781c-2.507-0.835-9.907-3.461-20.651-7.401c-10.981-4.058-25.425-9.669-41.181-16.234
		L1232.959,758.781z"/>
	<path class="st1" d="M1553.338,418.946c-1.313-2.745-2.626-5.491-4.177-7.878h0.597L1553.338,418.946z"/>
	<path class="st2" d="M1498.668,341.119c-0.477,0.12-0.836,0.239-1.193,0.358c0.239-0.239,0.358-0.478,0.358-0.597L1498.668,341.119
		z"/>
	<path class="st2" d="M1540.088,379.197c-0.955-0.358-1.552-0.597-1.552-0.597c0.239-0.597,0.597-1.193,0.955-1.91
		C1539.73,377.526,1539.849,378.361,1540.088,379.197z"/>
	<path class="st2" d="M1553.338,418.946c-1.313-2.745-2.626-5.491-4.177-7.878h0.597L1553.338,418.946z"/>
	<path class="st3" d="M1801.196,809c0-3.342,0.239-6.565,0.477-9.908c2.149-27.573-1.074-41.778-7.52-49.298
		c-6.923-8.117-17.785-8.236-29.483-8.594h-2.148c-23.516-0.836-47.746-1.671-160.309,113.398c0,0-11.34-9.191-28.529-25.066
		c-21.486-19.576-52.163-49.537-81.885-84.392c-31.871-37.601-39.033-137.629-39.033-137.629s-32.348-19.098-33.422-36.765
		c-1.075-17.666-2.149-40.823-2.149-40.823s4.297,36.526,9.072,44.523c4.894,7.998,105.161,78.185,136.793,83.199
		c31.632,4.775,23.038,39.63,46.673,31.035c18.621-6.804,13.488-14.443,10.623-17.427c3.462,2.984,12.653,9.788,16.712,4.536
		c5.968-7.52,10.743-27.216,10.743-27.216s12.294-10.504,2.745-33.303c-9.43-22.56-71.859-97.403-73.649-105.997
		c-1.91-8.595-3.343-27.216-14.921-34.02c-8.356-4.894-12.653-31.99-21.128-50.253c-3.223-7.043-7.043-12.772-11.937-15.517
		c0,0-0.239,4.297-1.552,10.026c-1.791,8.236-5.729,19.696-13.966,27.096c0.477-0.955,6.685-13.608,8.953-29.722
		c1.193-8.595,1.193-18.144-1.194-27.574c-2.387-9.072-3.7-16.472-4.297-22.203c-1.074-10.265-0.358-15.875,0-17.308
		c-0.836,1.552-4.058,8.117-8.117,15.279c-3.104,5.372-6.685,10.981-10.027,15.16c-2.148,2.506-4.177,4.536-6.087,5.372
		c-8.475,4.297-19.099,23.157-20.412,25.425c0.358-2.507,3.939-20.054,15.398-28.648c-19.098-0.716-28.528,15.995-28.528,15.995
		c-3.104-15.159-21.009-17.069-21.009-17.069c5.729,8.952-1.91,27.216-1.91,27.216c-5.729-16.592-54.073-14.085-54.073-14.085
		c6.326,5.849,5.61,23.634,5.61,23.634c-15.875-17.189-51.447-5.133-51.447-5.133c-6.565,5.372-13.13,11.22-19.695,18.024
		c-81.05,84.392-82.721,328.018-82.721,328.018l-0.836-0.239l-61.831-23.634l-0.478-0.239c-31.274-13.13-67.441-30.199-92.27-48.104
		c-15.637-11.22-22.799-19.934-24.351-28.648c-0.238-1.193-0.358-2.506-0.358-3.7c0-19.218,26.38-38.794,49.059-82.721
		c32.468-62.906-100.626-162.934-115.427-173.797c10.624,9.072,86.063,74.007,100.029,132.019
		c14.801,62.548-75.44,91.435-67.562,148.014c7.998,56.579,199.581,148.969,199.581,148.969s-12.892,33.065-34.139,35.69
		c0,0-66.965,85.705-121.396,93.105c0,0-49.775,48.702-84.273,49.657c0,0-11.578,6.923-26.022,6.326
		c-16.234,14.683-31.513,29.364-45.12,43.449c-17.069,17.428-31.632,34.139-42.614,49.179h-0.119
		c-11.34,15.279-18.86,28.648-21.486,39.391c-19.935,82.243,32.229,110.295,63.622,152.789
		c31.632,42.494,36.407,52.043,36.407,62.428c0,10.265,6.088,52.76-32.11,100.745c-38.556,47.985-28.171,78.781-5.61,111.607
		c22.56,32.945,69.471,148.014,91.912,150.163c9.908,0.955,14.085,11.817,15.637,23.634c2.148,15.279,0,32.109,0,32.109
		s36.765,35.571,80.93,2.865l-17.786-30.915c0,0,1.91-1.671,2.03-4.059c0.238-2.029-0.716-4.536-4.894-6.923
		c-9.191-5.133-127.84-115.785-110.175-235.629c0,0,13.369-16.114,30.916-37.361c15.875-19.457,35.332-43.33,51.685-63.742
		c16.234-20.412,29.484-37.362,32.826-42.971c10.265-17.189,7.998-24.589,8.475-41.181c0.716-16.592,9.669-86.899,1.79-145.388
		c1.552,6.326,9.788,43.21,9.191,64.816c0,0,21.605-18.144,59.803-9.311c6.923,1.552,13.727,2.507,20.53,2.984
		c30.32,2.03,59.325-6.684,93.344-17.069c41.54-12.772,132.258-14.801,171.768-60.399c39.63-45.598,119.247-112.085,119.247-112.085
		s23.516,14.802,44.643-23.395c21.128-38.317,97.761-180.72,147.775-208.891c0,0,7.162,86.779,21.248,117.336
		c0,0-27.454,23.396-24.232,66.487c0,0-27.454-21.963-50.969,10.147c0,0-8.475,58.608,25.067,82.84c0,0,70.426-54.67,79.856-80.453
		c9.311-25.784,19.457-30.558,18.74-58.012C1825.189,921.085,1800.003,865.341,1801.196,809z M1640.41,620.401
		c10.862,8.714,2.745,17.666,2.745,17.666S1629.667,611.568,1640.41,620.401z M1561.867,498.051c0,0-0.836,21.605-8.117,32.467
		l-22.799-48.224L1561.867,498.051z"/>
	<path class="st4" d="M1190.226,835.653c-2.865,3.462-5.611,5.968-7.64,6.207l-8.475,1.194l-5.371,6.684
		c-15.995,20.531-70.187,80.094-107.788,85.227l-6.804,1.075l-5.013,4.655c-18.264,18.024-52.044,43.33-70.187,43.807l-5.491,0.12
		l-4.655,2.745c0,0.12-6.207,3.461-13.25,3.461l-1.074-0.119l-8.595-0.358l-6.445,5.849c-2.745,2.507-5.372,5.014-8.117,7.401
		c-2.268-1.671-4.536-3.82-6.804-6.206c0,0-70.904,27.454-54.073-18.621c0,0-71.738,36.406-62.905,2.745
		c0,0-54.073,19.457-53.238-1.91c0,0-83.198,36.407-84.153-18.502c0,0-74.127,4.298-71.62-35.451c0,0-193.373,72.575-26.022-105.401
		c-5.968,3.461-223.215,130.229-257.831,95.732c-33.542-33.542,179.049-156.847,198.148-167.948
		c-17.785,8.117-201.251,92.15-288.746,106.952c-0.12,0-0.358,0-0.478,0.119c-22.321,3.7-38.316,2.984-43.688-4.894
		c-10.504-15.16,20.65-41.778,63.144-69.232c0.119-0.119,0.358-0.239,0.478-0.358h0.12c64.696-41.42,155.414-84.272,167.947-90.121
		c-11.22,4.297-83.437,32.467-156.25,54.55c-0.119,0-0.358,0.119-0.477,0.119c-37.243,11.34-74.485,20.889-103.968,24.947h-0.358
		c-29.483,4.178-50.969,2.626-56.579-8.594c-9.072-18.144,31.274-45.479,83.795-72.216c0.119-0.12,0.239-0.12,0.358-0.239
		c39.749-20.173,86.54-39.987,123.902-55.028c0.239-0.12,0.359-0.12,0.597-0.239c23.873-9.549,43.927-17.069,55.624-21.486
		c-11.34,3.7-30.2,9.788-53.356,16.83c-0.12,0-0.358,0.119-0.478,0.119c-32.945,10.027-74.604,21.844-114.83,31.274
		c-0.119,0-0.358,0.12-0.477,0.12c-69.949,15.995-136.435,24.589-150.043,3.343c-21.725-33.661,116.143-81.647,200.057-107.191
		c0.12,0,0.238-0.12,0.358-0.12c27.693-8.594,49.537-14.562,57.654-16.711c-7.879,1.91-28.529,6.923-55.386,12.653
		c-0.119,0-0.239,0-0.358,0.119c-77.707,16.234-206.981,37.003-229.064,1.432c-13.847-22.441,119.486-68.158,296.147-106.952
		c0.119-0.12,0.238-0.12,0.358-0.12c44.405-9.788,91.435-18.979,139.658-27.454c0.12-0.119,0.358-0.119,0.477-0.119
		c183.466-31.871,382.33-50.492,505.754-29.125c6.327,5.849,13.727,12.533,21.844,20.053l-2.745,3.462
		c37.123,31.632,83.914,82.362,93.105,121.037c5.013,20.889-7.759,36.646-29.125,60.4c-20.531,22.918-43.927,48.82-38.675,85.466
		c2.745,19.337,17.308,51.805,112.443,110.653C1141.883,810.228,1171.486,825.984,1190.226,835.653z"/>
	<path class="st0" d="M1190.226,835.653c-2.865,3.462-5.611,5.968-7.64,6.207l-8.475,1.194l-5.371,6.684
		c-15.995,20.531-70.187,80.094-107.788,85.227l-6.804,1.075l-5.013,4.655c-18.264,18.024-52.044,43.33-70.187,43.807l-5.491,0.12
		l-4.655,2.745c0,0.12-6.207,3.461-13.25,3.461l-1.074-0.119l-8.595-0.358l-6.445,5.849c-2.745,2.507-5.372,5.014-8.117,7.401
		c-2.268-1.671-4.536-3.82-6.804-6.206c0,0-70.904,27.454-54.073-18.621c0,0-71.738,36.406-62.905,2.745
		c0,0-54.073,19.457-53.238-1.91c0,0-83.198,36.407-84.153-18.502c0,0-74.127,4.298-71.62-35.451c0,0-193.373,72.575-26.022-105.401
		c-5.968,3.461-223.215,130.229-257.831,95.732c-33.542-33.542,179.049-156.847,198.148-167.948
		c-17.785,8.117-201.251,92.15-288.746,106.952c-0.12,0-0.358,0-0.478,0.119c-22.321,3.7-38.316,2.984-43.688-4.894
		c-10.504-15.16,20.65-41.778,63.144-69.232c0.119-0.119,0.358-0.239,0.478-0.358h0.12c64.696-41.42,155.414-84.272,167.947-90.121
		c-11.22,4.297-83.437,32.467-156.25,54.55c-0.119,0-0.358,0.119-0.477,0.119c-37.243,11.34-74.485,20.889-103.968,24.947h-0.358
		c-29.483,4.178-50.969,2.626-56.579-8.594c-9.072-18.144,31.274-45.479,83.795-72.216c0.119-0.12,0.239-0.12,0.358-0.239
		c39.749-20.173,86.54-39.987,123.902-55.028c0.239-0.12,0.359-0.12,0.597-0.239c23.873-9.549,43.927-17.069,55.624-21.486
		c-11.34,3.7-30.2,9.788-53.356,16.83c-0.12,0-0.358,0.119-0.478,0.119c-32.945,10.027-74.604,21.844-114.83,31.274
		c-0.119,0-0.358,0.12-0.477,0.12c-69.949,15.995-136.435,24.589-150.043,3.343c-21.725-33.661,116.143-81.647,200.057-107.191
		c0.12,0,0.238-0.12,0.358-0.12c27.693-8.594,49.537-14.562,57.654-16.711c-7.879,1.91-28.529,6.923-55.386,12.653
		c-0.119,0-0.239,0-0.358,0.119c-77.707,16.234-206.981,37.003-229.064,1.432c-13.847-22.441,119.486-68.158,296.147-106.952
		c0.119-0.12,0.238-0.12,0.358-0.12c44.405-9.788,91.435-18.979,139.658-27.454c0.12-0.119,0.358-0.119,0.477-0.119
		c183.466-31.871,382.33-50.492,505.754-29.125c6.327,5.849,13.727,12.533,21.844,20.053l-2.745,3.462
		c37.123,31.632,83.914,82.362,93.105,121.037c5.013,20.889-7.759,36.646-29.125,60.4c-20.531,22.918-43.927,48.82-38.675,85.466
		c2.745,19.337,17.308,51.805,112.443,110.653C1141.883,810.228,1171.486,825.984,1190.226,835.653z"/>
	<path class="st0" d="M1593.922,430.883c0,0-12.892,0.955-28.648-0.835c-1.552-4.656-3.342-9.43-5.491-13.846l-5.61-12.176h-1.313
		c-2.865-4.059-6.088-7.401-9.669-10.027c-0.359-3.461-1.075-6.684-1.91-9.907c-0.477-1.671-0.836-3.223-1.193-4.894
		c6.088,2.507,28.886,12.772,32.229,28.767C1576.137,426.347,1593.922,430.883,1593.922,430.883z"/>
	<path class="st0" d="M1546.534,370.364c0,0-4.656,3.104-7.042,6.327c-0.359-1.91-0.836-3.939-1.075-5.73l3.461-2.626
		C1543.43,368.932,1544.982,369.528,1546.534,370.364z"/>
	<path class="st1" d="M1553.338,418.946c-1.313-2.745-2.626-5.491-4.177-7.878h0.597L1553.338,418.946z"/>
	<path class="st0" d="M1501.652,340.403c-1.074,0.12-2.029,0.239-2.984,0.716l-0.836-0.238c0,0.119-0.119,0.358-0.358,0.597v0.119
		c-8.117,3.7-12.414,16.114-12.414,16.114c0.835,0.597,1.671,1.193,2.506,1.791c-0.358,0.716-0.836,1.432-1.193,2.029
		c-9.788,0-18.144,2.745-24.948,6.685c-7.281-4.775-15.278-7.043-21.009-7.759l-43.329-4.774l11.937,18.74
		c-6.088-0.597-12.892-0.955-20.054-0.955c-4.894,0-7.997,0.119-7.997,0.119l-49.536,2.865l14.204,12.892
		c-8.833,1.432-15.159,3.581-16.234,3.82l-3.461,1.193l-2.984,2.387c-7.162,5.849-14.443,12.533-21.486,19.814
		c-69.114,71.858-84.272,242.91-87.615,312.5l-35.213-13.369c-0.955-0.477-2.029-0.954-2.984-1.313
		c9.311-35.333,24.828-83.795,24.828-83.795c-7.043,3.223-22.082,24.232-22.082,24.232c3.103-26.5,31.274-84.153,32.944-87.734
		c-9.907,5.014-24.947,21.128-25.902,22.203c12.772-40.107,50.85-99.193,50.85-99.193c-22.799,0.119-40.823,11.817-41.898,12.533
		c24.709-34.258,92.151-81.288,92.151-81.288c-11.101,0-29.961,9.191-31.155,9.788c32.468-48.702,68.755-58.847,68.755-58.847
		c-7.639-3.104-27.454-3.104-27.454-3.104c33.781-16.592,76.395-15.996,76.395-15.996c0-4.416-8.236-15.876-8.236-15.876
		c28.647,0,33.064,12.295,33.064,12.295c8.834-12.176,32.707-16.712,36.407-17.308c-7.043,1.91-3.343,17.308-3.343,17.308
		C1467.274,333.838,1501.652,340.403,1501.652,340.403z"/>
	<path class="st1" d="M1498.668,341.119c-0.477,0.12-0.836,0.239-1.193,0.358c0.239-0.239,0.358-0.478,0.358-0.597L1498.668,341.119
		z"/>
</g>
</svg>
