<?xml version="1.0" encoding="utf-8"?>
<!-- Generator: Adobe Illustrator 19.0.0, SVG Export Plug-In . SVG Version: 6.00 Build 0)  -->
<svg version="1.1" id="Layer_1" xmlns="http://www.w3.org/2000/svg" xmlns:xlink="http://www.w3.org/1999/xlink" x="0px" y="0px"
	 viewBox="0 0 2000 2000" style="enable-background:new 0 0 2000 2000;" xml:space="preserve">
<style type="text/css">
	.st0{fill:#985D5E;}
	.st1{fill:#683F3F;}
	.st2{fill:#604A35;}
</style>
<g id="XMLID_106_">
	<path id="XMLID_128_" class="st0" d="M1959.28,530.52c-22.937-8.507-41.816-12.21-55.937-23.16
		c-14.121-10.871-20.518-17.33-61.008-18.67c-40.412-1.339-44.079-0.315-60.305-10.871c-16.149-10.556-43.767-2.757-43.767-2.757
		s-180.293-71.45-235.215,235.618c-5.461,30.487-111.64,3.072-256.67,46.872c-144.952,43.799-273.989,55.38-329.925,34.583
		C860.516,771.417,308.326,675.468,13.116,898.01c3.667-1.418,73.568-28.596,170.385-51.125c0,0,0.078,0,0.234-0.079h0.234
		c82.462-19.221,184.428-34.976,281.634-28.753c214.776,13.865,605.553,165.114,605.553,165.114s-15.447-51.047-13.34-76.57
		c0,0,17.397,103.117,176.47,206.235c14.121,9.138,29.412,18.354,45.873,27.414c0,0-46.887,31.668-52.66,92.325
		c-5.773,60.736-37.915,73.183-40.412,87.363c-2.418,14.101,28.865,162.987,49.461,171.337c16.93,6.854,62.88,22.215,86.441,23.397
		c-2.34-3.703-3.511-8.508-3.511-15.283v-1.891l0.624-1.733c0.936-2.915,3.276-6.775,7.021-9.926
		c-2.73-0.788-5.773-1.576-9.128-2.284c-36.511-7.72-34.171-17.803-34.171-17.803s58.433,12.998,82.93,10.713
		c-0.234-0.236-0.39-0.473-0.624-0.709c-3.432-4.333-4.914-9.926-4.134-15.598c0.078-2.915,0.936-8.507,5.383-13.392
		c0.624-0.63,1.248-1.339,2.107-2.048c-8.894-1.733-26.135-1.654-43.611-5.199c-0.078,0-0.156-0.079-0.234-0.079
		c-0.391-0.079-0.859-0.157-1.249-0.236c-14.432-3.072-28.866-8.744-38.773-19.773c-5.461-6.145-10.766-13.234-15.603-20.718
		c-15.369-23.948-25.667-51.756-20.284-63.099c7.022-14.81,124.122-133.052,126.463-163.932c2.34-30.88,8.816-45.138,2.34-63.572
		c-1.326-3.702-2.653-8.98-4.135-15.519v-0.079c-6.007-25.839-14.121-72.158-29.958-127.775
		c1.872,3.703,16.851,34.189,21.688,53.647c0,0,54.143-16.543,78.796-37.655c-4.291,4.963-42.83,51.362-32.064,89.962
		c0.78,2.757,1.716,5.357,2.965,7.799c15.681,33.323,64.518,35.055,87.221,38.837c24.341,4.017,48.838,14.416,44.859,24.735
		c-3.979,10.398-18.724,49.944-62.412,65.384c-18.177,6.459-30.426,12.367-38.461,17.015c-0.468,0.315-0.937,0.552-1.327,0.945
		c2.496,0.866,4.681,2.363,6.475,4.333c3.745,4.097,4.525,9.217,4.681,12.053c0.312,1.733,0.312,3.466,0.078,5.199
		c18.958-6.539,48.526-17.803,58.277-27.65c14.823-14.967,25.277-23.79,25.277-23.79s-9.908,23.869-24.575,42.46
		c-4.291,5.436-9.518,11.501-14.901,17.567c-3.432,3.781-6.943,7.562-10.298,11.186c-9.362,10.162-18.021,19.221-21.922,24.263
		c0,0-5.617,3.466-12.014,8.823c0,0-0.078,0-0.156,0.158c-4.837,4.096-10.064,9.217-13.575,14.731
		c-2.965,4.49-4.681,9.296-4.135,14.022c0.156,1.103,0.313,2.127,0.702,3.151c1.95,5.514,4.915,7.562,8.348,7.405l0.078-0.079
		c8.192-0.394,18.802-13.392,24.107-19.536c7.49-8.823,67.171-59.397,78.015-83.424c10.844-23.948,43.376-101.069,32.532-114.54
		c-0.78-0.945-1.872-2.206-3.276-3.545c-17.475-17.882-79.186-66.881-103.526-68.85c0,0,31.83-21.821,58.979-52.938
		c0-0.079,0-0.079,0-0.079c22.313-25.523,41.27-57.27,36.901-88.307c0,0,46.653-75.152,69.823-128.483
		c23.092-53.331,53.674-107.529,104.618-107.529c50.32,0,57.731-14.889,64.284-17.094c-5.617,1.181-98.299,21.033-126.15-25.996
		c2.184,1.812,46.653,38.915,131.3,18.433c86.675-20.954,155.406,0.237,163.987-57.349c0,0,8.036-0.158,7.178-4.096
		C1985.961,582.04,1982.138,539.028,1959.28,530.52z M1761.121,511.851c22.468-16.464,25.823,26.784,25.823,26.784
		C1756.363,563.055,1738.653,528.315,1761.121,511.851z"/>
	<path id="XMLID_127_" class="st1" d="M1221.275,1135.676c-5.672,13.865-16.779,29.384-38.6,32.377
		c-40.727,5.514-155.74,84.684-184.336,96.736c-28.596,12.131-22.845,85.472-22.845,85.472c1.26,0.394,2.915,1.34,4.805,2.757
		c9.768,7.09,25.681,25.681,19.143,35.607h-0.079c-1.103,1.733-2.994,3.23-5.75,4.333c-2.048,0.787-3.939,1.497-5.751,2.127
		c-0.551,0.158-1.26,0.394-1.26,0.394c-0.158,0.078-0.315,0.078-0.473,0.157c-1.655,0.552-3.387,0.945-4.963,1.339
		c-6.46,1.575-12.053,2.127-16.858,1.812c-35.213-2.679-30.565-50.574-30.565-50.574c-9.374,46.005,14.653,55.379,28.281,57.191
		c0.236,0,0.473,0.079,0.63,0.079c4.647,0.473,7.878,0.079,7.878,0.079c-0.079,0.158-0.158,0.315-0.158,0.473
		c-0.237,0.473-0.394,1.024-0.551,1.576c-0.158,0.551-0.315,1.103-0.394,1.576c-0.079,0.394-0.158,0.787-0.158,1.26
		c-0.157,1.891-0.079,3.86,0.315,5.672c0.157,0.709,0.315,1.339,0.551,2.048c0.394,1.339,0.946,2.599,1.576,3.939
		c0.315,0.63,0.63,1.26,1.103,1.891c0.237,0.473,0.552,0.945,0.867,1.418c0.237,0.394,0.473,0.787,0.788,1.181
		c0.709,1.024,1.497,2.048,2.442,2.994c0.945,1.024,1.891,2.127,2.994,3.072c0.078,0.158,0.236,0.237,0.394,0.394
		c0.788,0.709,1.733,1.497,2.6,2.206c2.442,1.891,5.041,3.623,7.72,5.042c0.079,0.078,0.158,0.078,0.236,0.157
		c0.709,0.315,1.497,0.788,2.442,1.34v0.078c-0.788,0.788-1.654,1.733-2.363,2.757c-7.168,9.531-6.775,20.797,0.866,29.698
		c-27.493,0.63-76.649-79.248-72.71-101.069c4.254-23.948,3.939-120.685,11.029-138.094c7.168-17.488,65.935-36.867,65.935-36.867
		c40.727-68.456,106.662-99.415,106.662-99.415s-72.789-48.132-112.334-53.253c-39.624-5.12-51.204-46.477-110.995-83.03
		c-31.274-19.142-63.099-35.607-95.161-49.786c144.869,43.484,267.838,90.356,270.044,91.223l26.783,10.241
		c28.044,35.528,70.347,76.57,133.84,117.376C1217.021,1132.998,1219.149,1134.337,1221.275,1135.676z"/>
	<path id="XMLID_126_" class="st1" d="M1026.463,1424.626c0,0,2.6-28.911-15.282-35.055c4.49-14.495-8.193-31.432-18.828-41.042
		c12.604-3.387,32.219-4.805,44.036,13.549C1054.744,1390.752,1026.463,1424.626,1026.463,1424.626z"/>
	<path id="XMLID_125_" class="st1" d="M1021.027,1493.24c0,0-6.932-13.865-18.749-24.263h-0.079
		c-7.956-7.089-5.12-13.943-2.363-17.567c1.182-1.733,2.442-2.757,2.442-2.757h0.079c0.079,0,0.237,0,0.315,0.078
		c0.867,0.158,1.733,0.315,2.521,0.551h0.079c0.473,0.158,0.866,0.237,1.339,0.473c0.709,0.237,1.339,0.473,1.969,0.788
		c0.473,0.236,0.867,0.473,1.261,0.787c0.473,0.237,0.787,0.552,1.181,0.788c0.788,0.551,1.418,1.103,2.048,1.733l0.158,0.158
		c0.551,0.552,1.103,1.181,1.654,1.891c0.315,0.394,0.551,0.787,0.866,1.181C1024.493,1470.158,1021.027,1493.24,1021.027,1493.24z"
		/>
	<path id="XMLID_124_" class="st2" d="M969.587,1416.118c-0.473-1.891-0.551-3.781-0.315-5.672
		C969.114,1412.337,969.193,1414.306,969.587,1416.118z"/>
	<path id="XMLID_123_" class="st1" d="M1020.397,1439.515c-0.236,1.339-1.418,2.442-3.072,3.387
		c-1.024,0.552-2.206,1.024-3.466,1.497l-3.782-3.781c-0.709-0.709-1.497-1.418-2.363-2.206c0,0,0,0-0.079,0
		c-0.079-0.157-0.236-0.236-0.394-0.394l-0.787-0.552c-2.363-1.969-4.806-3.702-7.248-5.12c-1.102-0.709-2.363-1.418-3.623-2.048
		c-10.005-5.357-17.094-15.046-14.81-20.324l0.709-1.576c2.757-0.63,5.672-1.339,8.587-2.284c0.315-0.079,0.63-0.237,0.945-0.315
		c4.018,7.799,11.108,18.512,22.845,25.838C1019.058,1434.867,1020.791,1437.466,1020.397,1439.515z"/>
	<path id="XMLID_122_" class="st1" d="M1050.647,1461.729c-1.182-0.315-10.792-3.23-22.136-4.333c0,0,0,0-0.079,0
		c-0.866-2.206-1.969-4.333-3.229-6.302c2.284-1.655,4.411-3.939,5.514-7.169
		C1036.704,1447.234,1044.266,1452.828,1050.647,1461.729z"/>
	<path id="XMLID_121_" class="st2" d="M970.532,1405.562c-0.079,0.158-0.158,0.315-0.158,0.473c-3.702,0-6.538-0.394-7.72-0.551
		C967.302,1405.956,970.532,1405.562,970.532,1405.562z"/>
	<path id="XMLID_120_" class="st0" d="M1367.05,1461.139c-1.17,5.852,2.731,11.314,10.924,10.924
		c8.193-0.39,18.336,14.825,18.336,14.825s-1.951-37.063-15.995-36.672C1366.27,1450.606,1367.05,1461.139,1367.05,1461.139z"/>
	<path id="XMLID_119_" class="st0" d="M1324.135,1499.372c0,9.363,2.341,11.704,10.534,15.995
		c8.193,4.292,12.875,16.776,12.875,16.776s7.412-38.233-6.242-40.574S1324.135,1499.372,1324.135,1499.372z"/>
	<path id="XMLID_118_" class="st0" d="M1318.485,1427.856c-14.337-3.23-24.578-8.508-31.432-15.913
		c-3.308-3.702-6.617-7.878-9.847-12.368c3.702,0.394,7.011,1.024,10.083,1.733
		C1309.032,1406.507,1316.279,1418.482,1318.485,1427.856z"/>
	<path id="XMLID_117_" class="st0" d="M1318.485,1427.856c-14.337-3.23-24.578-8.508-31.432-15.913
		c-3.308-3.702-6.617-7.878-9.847-12.368c3.702,0.394,7.011,1.024,10.083,1.733
		C1309.032,1406.507,1316.279,1418.482,1318.485,1427.856z"/>
	<path id="XMLID_116_" class="st0" d="M1370.162,1427.619c0,0-23.396-25.759-41.515-4.884c-2.836-9.453-10.792-23.317-32.535-30.486
		c7.957-6.854,20.718-14.573,37.418-14.573C1363.544,1377.676,1377.173,1406.114,1370.162,1427.619z"/>
	<path id="XMLID_115_" class="st1" d="M1396.551,1073.759c0.945,3.466,2.127,6.538,3.388,9.059
		c-7.72,2.993-15.125,5.357-20.718,6.932c-1.576-7.011-3.388-15.44-5.436-25.208c-2.285-10.635-4.884-22.845-7.878-36.316
		c6.144-1.891,22.136-7.248,39.23-14.81C1396.63,1031.456,1390.722,1053.198,1396.551,1073.759z"/>
	<path id="XMLID_114_" class="st1" d="M1636.345,1326.314c-3.623-2.284-7.089-2.836-9.768-2.836c-6.065,0-11.186,2.915-14.967,6.144
		c0.709-7.878,1.812-16.858,2.442-24.972c0.315-4.097,0.552-7.956,0.63-11.344c0-1.891-0.078-3.624-0.157-5.199
		c-0.709-11.501-3.624-18.513-3.624-18.513s0,8.745-2.206,17.725c-2.757-1.733-6.617-2.994-11.895-2.994
		c-1.733,0-3.545,0.158-5.278,0.316c-2.994,0.394-5.908,1.102-8.193,1.733c1.576-8.823,4.726-18.433,5.042-24.105
		c0.709-12.604,2.205-56.561,5.12-82.005c0.158-1.261,0.315-2.6,0.473-3.86c16.464-51.126,7.169-62.548,1.891-69.008
		c-1.103-1.418-2.757-3.23-4.806-5.199c-4.411-4.411-21.427-19.536-42.145-35.213c24.657,10.32,58.215,21.033,69.716,25.602
		c19.221,7.641,19.221,21.978,16.543,41.515c-2.6,19.537-3.624,66.802-1.024,92.325c2.6,25.445,0.394,36.158-0.394,54.985
		C1633.194,1295.118,1637.212,1313.394,1636.345,1326.314z"/>
	<path id="XMLID_113_" class="st1" d="M1604.52,1298.348c0,0-4.569,14.652-17.488,23.869c0,0,0,0,0,0.079
		c-8.114,5.829-19.537,9.453-35.292,5.908c0,0,28.596-10.556,30.88-29.856c0,0,5.042-1.891,10.398-2.6
		C1597.587,1295.118,1602.393,1295.355,1604.52,1298.348z"/>
	<path id="XMLID_112_" class="st1" d="M1590.97,1380.354c0,0,18.354-13.943,22.845-36.788c0,0,10.556-15.598,19.221-5.593
		C1641.702,1347.977,1611.373,1380.669,1590.97,1380.354z"/>
	<path id="XMLID_111_" class="st1" d="M1602.708,1337.106c0,0,0,0,0,0.079c-0.552,1.576-7.011,19.3-37.34,25.76
		c0,0,20.324-21.349,22.766-30.959C1590.576,1322.454,1602.708,1337.106,1602.708,1337.106z"/>
	<path id="XMLID_110_" class="st0" d="M1465.086,1272.667c-3.623,3.939-6.696,7.247-8.902,9.926
		c-1.812,1.181-4.963,3.387-8.586,6.144l-2.994,0.079l-2.048,4.096c-3.86,3.387-7.168,6.696-9.926,10.005
		c-0.236,0-0.552-0.158-0.787-0.237c-1.34-0.552-2.442-1.497-3.309-2.836c-2.442-3.781-1.891-7.799,0.709-10.792
		c3.072-3.703,8.981-5.987,15.755-4.963C1444.999,1284.09,1454.294,1277.63,1465.086,1272.667z"/>
	<path id="XMLID_109_" class="st0" d="M1416.797,1300.948c-5.75-2.521-12.289-7.878-17.961-18.67
		c0.788,0.787,6.617,6.144,17.646,7.247C1415.458,1293.228,1415.537,1297.167,1416.797,1300.948z"/>
	<path id="XMLID_108_" class="st0" d="M1425.305,1339.154c-13.234-5.042-24.972-17.961-24.972-17.961
		c6.775,4.333,15.361,6.224,22.057,7.011c0,0.709,0.079,1.418,0.158,2.127c0.236,1.733,0.551,3.545,1.26,5.357
		C1424.281,1336.948,1424.753,1338.13,1425.305,1339.154z"/>
	<path id="XMLID_107_" class="st0" d="M1437.121,1251.713c-3.387,2.836-9.059,4.096-15.597,2.048
		c-11.974-3.86-22.924-16.464-22.688-31.038c0,0,17.331,17.724,30.014,13.628c1.497-0.551,2.836-0.788,4.018-0.866h0.078
		c8.272-0.788,7.563,7.483,7.563,7.483C1441.375,1246.199,1440.036,1249.428,1437.121,1251.713z"/>
</g>
</svg>
