<?xml version="1.0" encoding="utf-8"?>
<!-- Generator: Adobe Illustrator 19.0.0, SVG Export Plug-In . SVG Version: 6.00 Build 0)  -->
<svg version="1.1" id="Layer_1" xmlns="http://www.w3.org/2000/svg" xmlns:xlink="http://www.w3.org/1999/xlink" x="0px" y="0px"
	 viewBox="0 0 2000 2000" style="enable-background:new 0 0 2000 2000;" xml:space="preserve">
<style type="text/css">
	.st0{fill:#61A4A0;}
	.st1{fill:#466F6C;}
</style>
<g id="XMLID_28_">
	<g id="XMLID_29_">
		<path id="XMLID_40_" class="st0" d="M993.924,1757.041c0,22.071,15.834,41.072,15.834,41.072
			c4.702-19.001,30.036-31.572,30.036-31.572c1.535,15.738,15.833,31.572,15.833,31.572c6.334-9.501,9.5-41.072,9.5-41.072
			c17.369,0,44.239,30.036,44.239,30.036c4.798-17.369-1.536-44.334-1.536-44.334c22.167,3.167,33.971,33.202,33.971,33.202
			c8.636-26.869,7.868-72.738,7.868-72.738c18.233,0,36.178,20.44,38.577,23.319l0.288,0.384
			c-1.632-41.071-17.465-147.108-17.465-147.108c19,4.702,20.631,34.833,20.631,34.833c4.703-61.703-64.869-267.444-64.869-267.444
			c17.945,1.344,21.975,10.076,22.743,12.187c-5.854-42.703-37.137-115.345-58.152-197.296
			c-17.561-68.324-6.046-210.059-1.536-256.408c0.96-9.596,1.536-15.066,1.536-15.066c1.055,16.025,11.803,36.849,13.147,39.344
			l0.096,0.288c-7.389-51.915,12.954-152.003,37.137-207.564c6.621-15.258,12.379-30.804,17.369-45.486v-0.095
			c13.147-38.96,20.344-71.204,20.344-71.204c9.98,16.698,16.025,40.784,16.025,40.784c11.131-22.263,3.647-40.784,18.52-116.785
			c14.778-76.001-26.006-124.174-37.041-168.604c-11.132-44.526-35.218-81.567-35.218-81.567
			c-66.789,123.31-138.28,23.222-162.174-12.667S993.06,153.435,993.06,116.01c0-37.424,40.688-48.268,40.688-48.268
			c-84.83-109.3-238.847,2.303-247.772,40.208c-8.924,37.904-28.98,111.603-64.678,171.77
			c-35.794,60.168-20.152,167.452-20.152,214.377c0,46.829-2.207,42.415-8.924,102.679c-6.717,60.263,31.283,129.451,46.925,171.77
			c3.358,9.212,4.798,18.137,4.99,27.541c0.576-0.863,1.151-1.631,1.727-2.495c2.399-3.551,5.374-6.909,8.156-10.267l7.677-8.925
			c9.501-12.091,16.793-25.814,21.687-40.687c9.788-29.748,11.804-62.471,14.394-95.001c2.495-32.627,5.758-65.638,14.107-97.593
			c8.06-32.051,21.975-62.375,40.208-89.531c-83.007,132.426-17.657,254.201-90.012,335.288
			c-71.204,79.935-125.325,399.294-126.957,409.274c19.059-29.498,45.774-35.122,45.774-35.122c0,23.03,10.555,43.758,10.555,43.758
			c10.556-15.066,23.031-20.823,31.38-23.031c5.566-1.344,9.212-1.248,9.212-1.248c0,22.935,12.379,56.425,12.379,56.425
			c19.384-37.041,59.976-67.077,59.976-67.077c1.823,22.935,0,81.183,0,81.183c9.884-8.924,20.823-25.91,32.243-48.461
			c5.854-11.419,11.708-24.374,17.657-38.288c8.349-19.576,16.793-41.455,25.142-64.582
			c17.849-49.516,35.218-105.174,50.284-158.719c37.041-131.851,0-157.569,31.763-198.16c31.763-40.591,52.971-86.461,52.971-86.461
			c8.637,20.536,15.45,20.823,15.834,20.823c14.106-63.814,8.828-170.907,8.828-170.907c2.015,28.501,3.358,57.193,2.879,85.789
			c-0.48,28.693-1.823,57.481-7.101,86.174l-0.768,4.03l-3.838-0.384c-3.455-0.288-4.222-1.247-5.758-2.015
			c-1.344-0.864-2.399-1.823-3.358-2.783c-1.919-1.919-3.455-3.935-4.894-6.046c-0.576-0.864-1.055-1.727-1.536-2.687
			c-10.172,21.208-21.495,41.743-34.642,61.319c-3.838,5.662-7.773,11.227-11.803,16.697c-3.839,5.086-6.909,9.98-8.924,15.45
			c-4.222,10.556-3.935,23.031-3.454,36.274c0.671,13.243,1.151,26.965,0.767,40.687c-0.384,13.722-1.535,27.349-3.454,40.976
			c-3.647,26.965-10.268,53.738-17.465,79.456c-14.106,51.819-29.94,103.062-48.077,153.826
			c-8.54,23.798-17.656,47.501-27.924,70.819c14.682,53.834,43.95,164.573,43.95,191.826c0,24.95,14.106,93.082,23.03,148.74
			c4.03,25.525,7.005,48.364,7.005,63.238c0,47.501,14.203,137.705,14.203,137.705c-1.536-15.834,11.131-42.703,11.131-42.703
			S993.924,1734.874,993.924,1757.041z"/>
		<path id="XMLID_39_" class="st1" d="M1166.75,733.52c-14.202,32.722-26.006,78.592-32.051,119.759c0,0,0,0,0,0.096
			s-0.095,0.384-0.095,0.672c-0.48,2.207-1.728,9.308-2.687,21.783c-0.192,1.151-0.192,2.303-0.287,3.55
			c-1.44,16.121-1.728,30.612-0.576,42.223c0,0.096,0,0.288,0.095,0.384c0,1.44,0,2.975,0.096,4.51
			c0.384,10.652,1.055,22.551,2.208,35.793c0.384,1.055,0.863,2.207,1.247,3.359c2.687,7.197,5.086,15.929,7.102,26.389
			c11.419,60.167,117.648,212.746,117.648,212.746c8.733-20.536,9.98-60.168,9.98-60.168c15.929-2.975,29.556,16.121,29.556,16.121
			s21.015-7.005,9.692-40.208c0,0,15.738-5.661,40.208,9.405c2.975-23.511-20.535-60.168-20.535-60.168
			c14.682-5.853,42.511,0,42.511,0c-1.44-24.95-39.536-52.779-39.536-52.779c8.732-1.44,48.364,0,48.364,0
			c-14.682-32.243-123.214-152.578-162.462-198.064c-21.304-24.758-36.657-64.582-46.157-95.673
			C1169.628,726.803,1168.189,730.161,1166.75,733.52z"/>
		<path id="XMLID_38_" class="st0" d="M627.16,1409.086c22.359-0.863,26.005-6.429,26.005-6.429s2.783,36.273,43.758,26.006
			c0,0,1.632,10.652,11.515,16.889c7.101,4.51,18.616,6.621,36.945,0.768c0,0,41.839,36.369,72.547-14.874
			c30.707-51.147-4.607-62.375-4.607-62.375s75.426-16.985-0.288-108.052l-22.647,21.591l0.863-31.955
			c0.288-13.434,0.576-26.965,0.576-40.303c0.096-3.839,0-7.773,0-11.612c-3.647,3.551-7.389,7.101-10.844,10.844
			c-9.692,10.459-18.137,21.879-24.566,33.682l-14.49,26.869l-10.268-28.501c-1.823-5.086-3.262-9.692-4.702-14.586
			c-1.439-4.894-2.783-9.788-3.934-14.778c-1.151-4.894-2.207-9.884-2.975-14.97c-1.344,0.576-2.687,1.056-4.03,1.823
			c-5.182,3.263-9.788,7.869-13.627,13.339l-13.147,18.328l-9.692-19.96c-2.111-4.51-3.454-8.061-4.99-12.091
			c-1.344-3.935-2.495-7.965-3.55-12.091c-0.576-2.111-0.864-4.318-1.248-6.525c-2.399,1.44-4.703,2.879-6.813,4.606
			c-6.525,5.182-12.187,11.419-16.889,18.52l-35.122,53.259l4.99-27.349c-13.626,25.814-29.556,62.375-29.556,91.835
			C586.377,1372.429,604.801,1410.046,627.16,1409.086z"/>
		<path id="XMLID_37_" class="st1" d="M701.626,1748.117c0,0,24.566-27.925,46.925-33.49c0,0,8.924,27.924,18.905,49.132
			c0,0,20.152-5.566,32.435-35.794c12.283-30.131,16.697-63.622,46.925-93.754c17.081-17.081,40.4-49.9,57.481-75.234
			c0-0.096,0-0.096,0-0.096c-1.151-8.636-2.591-18.616-4.414-30.227c-2.783-17.273-6.046-35.985-9.309-54.122
			c-7.581-42.607-14.01-79.36-14.01-98.84c0-5.182-1.631-15.642-4.51-29.748c-0.48,1.728-0.959,3.455-1.535,5.182
			c-3.647,10.652-9.404,18.808-15.93,25.142c6.813,19.768,2.399,43.086-13.338,69.188c-20.056,33.49-45.582,40.591-63.335,40.591
			c-15.354,0-28.5-5.374-37.617-10.46c-5.182,1.056-10.268,1.536-15.066,1.536c-11.035,0-20.823-2.495-29.268-7.389
			c-1.44,3.167-2.975,6.621-4.51,10.364c-9.98,23.511-42.319,42.415-42.319,42.415s32.339,1.151,54.698-14.49
			c0,0-7.773,29.077-35.698,55.849c-27.445,26.389-64.774,101.431-65.829,103.734c2.495-1.439,43.086-24.662,70.148-33.298
			c-1.151,2.687-21.975,49.804-17.081,75.809c0,0,30.612-30.132,47.309-31.283C702.682,1678.833,697.116,1730.268,701.626,1748.117z
			"/>
		<path id="XMLID_34_" class="st1" d="M1091.228,179.92c-2.495-26.485-10.556-64.678-31.763-90.875l-18.713,4.99
			c-1.823,0.576-20.536,6.429-20.536,21.975c0,16.41-4.99,36.178-10.268,57.097c-6.525,26.101-16.505,65.542-7.677,78.88
			c33.203,49.804,55.37,60.264,68.228,60.264c19.769,0,38.193-28.501,47.405-45.485l6.717-12.475
			C1110.708,232.315,1093.148,200.936,1091.228,179.92z M1056.298,179.632c7.773-7.197,26.677,11.036,26.677,11.036
			C1039.985,232.315,1048.525,186.829,1056.298,179.632z"/>
		<path id="XMLID_33_" class="st1" d="M1468.163,1164.289c0,0,34.162-28.692,22.263-51.723
			c-9.116-17.561-51.723-39.536-84.254-67.365l-14.586-0.576c3.551,7.485,5.949,15.354,6.429,23.606l2.015,35.506l-28.596-6.046
			c3.647,11.612,5.854,24.086,4.414,35.698l-5.278,41.839l-33.586-20.632c-0.863,2.879-1.919,5.662-3.262,8.349
			c-8.253,16.505-22.072,22.263-26.102,23.606l-16.217,5.374c-1.727,8.349-3.934,16.602-6.909,23.51l-19.288,45.294l-14.01-20.152
			c-0.959,10.556-0.192,21.495,4.414,29.844c12.859,23.127,55.561,57.289,68.324,34.162c0,0,23.031,6.046,42.703-25.621
			c0,0,39.248,4.318,58.056-30.708c0,0,43.47,23.031,52.875-23.894C1486.972,1177.436,1468.163,1164.289,1468.163,1164.289z"/>
		<path id="XMLID_32_" class="st1" d="M858.715,1862.406c0,0-33.971-43.279-70.052-78.88c-7.197,4.414-12.666,6.046-13.914,6.429
			l-22.167,6.142l-9.692-20.728c-3.167-6.717-6.238-14.01-8.924-20.92c-4.703,4.031-8.925,8.253-11.9,11.708l-34.162,38.48
			l-12.666-49.804c-1.536-6.334-2.304-14.682-2.495-23.607l-34.642,33.97l-9.5-50.091c-1.727-9.5-1.343-20.248,0.288-31.091
			c-5.47,2.879-9.98,5.47-12.955,7.197l-54.218,31.187c-7.485,25.142-0.96,55.657,46.829,83.582
			c107.477,62.951,78.112,119.376,135.689,119.376c57.481,0,163.326,15.258,173.114-9.692c9.788-25.046,0-45.678,0-45.678
			L858.715,1862.406z"/>
		<path id="XMLID_31_" class="st0" d="M1345.429,1859.336c0,0-58.056-28.98-101.911-45.869c-10.076-3.839-18.233-8.828-24.95-14.49
			l0.576,13.818l-45.006-59.784c-1.344,10.844-3.359,21.783-6.43,31.283l-23.318,72.547l-15.354-38.96l-6.717,24.47l-33.203-37.137
			c-1.535-1.632-3.166-3.359-4.798-4.99c-1.727,4.894-3.646,9.404-6.045,12.955l-19.384,29.076l-23.415-25.91
			c-0.48-0.48-1.151-1.248-1.919-2.207l-11.227,40.591l-22.263-26.101c-12.955,46.157-28.692,128.3,23.318,128.3
			c72.163,0,239.423,30.036,256.312,7.101c16.025-21.783-6.142-40.304-8.253-42.031c2.591,0.576,29.46,7.773,23.223,38.864
			c0,0,50.859-29.556-0.576-57.001c0,0,47.309,13.626,27.061,43.471c0,0,62.854-36.753-0.096-54.89c0,0,63.142,8.637,24.278,47.885
			c0,0,62.471-34.738,5.854-52.97c0,0,42.415,1.439,25.142,33.778c0,0,51.051,0,40.975-46.733L1345.429,1859.336z"/>
		<path id="XMLID_30_" class="st0" d="M839.81,1250.942c5.854,7.389,10.844,14.586,15.258,21.687
			c-2.591-9.884-5.374-20.632-8.349-32.147C844.416,1244.225,842.113,1247.679,839.81,1250.942z"/>
	</g>
</g>
</svg>
