<?xml version="1.0" encoding="utf-8"?>
<!-- Generator: Adobe Illustrator 19.0.0, SVG Export Plug-In . SVG Version: 6.00 Build 0)  -->
<svg version="1.1" id="Layer_1" xmlns="http://www.w3.org/2000/svg" xmlns:xlink="http://www.w3.org/1999/xlink" x="0px" y="0px"
	 viewBox="0 0 2000 2000" style="enable-background:new 0 0 2000 2000;" xml:space="preserve">
<style type="text/css">
	.st0{fill:#996B5F;}
	.st1{fill:#664A40;}
	.st2{fill:#6676B7;}
</style>
<g id="XMLID_55_">
	<path id="XMLID_76_" class="st0" d="M954.285,1277.49c0,26.456-21.541,47.997-47.997,47.997c-26.456,0-47.893-21.541-47.893-47.997
		c0-26.455,21.436-47.892,47.893-47.892C932.744,1229.598,954.285,1251.034,954.285,1277.49z"/>
	<path id="XMLID_75_" class="st0" d="M1677.9,1900.196c-7.006,4.182-14.012,8.261-20.809,11.92
		c-6.065-2.091-12.026-3.973-17.672-5.542c-2.824-0.627-69.538-18.299-64.31-150.892l0.209-6.379l-4.287-4.497
		c-0.627-0.627-59.709-62.95-75.185-154.97c-11.816-70.166,0.523-137.195,0.627-137.926l-2.823-109.902l-182.995-59.5
		c0,0,37.226,141.168,156.643,163.964c-0.523,2.927-13.384,72.675-0.627,148.278c14.64,87.315,63.578,148.697,78.636,165.846
		c-2.928,120.359,50.402,159.049,74.871,170.447c-212.379,99.131-331.064-13.489-398.406-128.933
		c-73.198-125.482-172.538-158.631-172.538-158.631c123.705-174.211-39.736-261.422-39.736-261.422
		c-5.02,1.151-9.83,2.092-14.221,2.928c30.847-25.515,50.088-63.996,50.506-106.451v-1.046c0-1.255,0-2.405-0.105-3.66
		c44.128-10.352,112.516-41.723,203.7-128.515c92.857-88.361,188.432-158.84,252.533-202.654c0.941,1.359,1.359,1.987,1.359,1.987
		c73.198,38.377,57.722,586.211,57.722,586.211l-37.958,40.573c16.417,97.981,79.158,162.709,79.158,162.709
		C1596.232,1882.524,1677.9,1900.196,1677.9,1900.196z"/>
	<path id="XMLID_74_" class="st0" d="M1484.03,918.924c-65.147,44.651-161.559,115.967-255.043,204.955
		c-85.851,81.668-148.592,110.738-187.178,120.463c-0.313-1.045-0.523-2.091-0.836-3.242c-16.313-60.65-71.734-103-134.684-103
		c-76.858,0-139.39,62.532-139.39,139.389c0,49.88,26.874,96.308,70.375,121.195c0.105,0.105,0.209,0.105,0.314,0.209
		l-95.576,173.166H565.604c0,0,79.786-117.64,113.666-167.31c34.089-49.67,34.089-75.812,11.816-125.482
		c-22.273-49.67-141.168-397.361,236.639-518.869C1237.039,660.849,1425.68,847.922,1484.03,918.924z"/>
	<path id="XMLID_71_" class="st1" d="M1015.294,1263.579c-0.627-5.019-1.673-9.934-2.928-14.745
		c-12.548-46.742-55.317-81.145-106.033-81.145c-60.65,0-109.797,49.147-109.797,109.797c0,40.886,22.378,76.544,55.421,95.47
		c15.999,9.098,34.612,14.327,54.376,14.327c6.379,0,12.548-0.523,18.613-1.569c51.552-8.784,90.766-53.434,91.184-107.392v-0.836
		C1016.131,1272.781,1015.817,1268.076,1015.294,1263.579z M906.334,1355.077c-42.769,0-77.486-34.821-77.486-77.59
		c0-42.769,34.717-77.486,77.486-77.486c42.768,0,77.59,34.717,77.59,77.486C983.924,1320.255,949.102,1355.077,906.334,1355.077z"
		/>
	<line id="XMLID_70_" class="st2" x1="1493.231" y1="930.636" x2="1493.231" y2="930.532"/>
	<path id="XMLID_69_" class="st1" d="M1796.899,237.032c0,0-393.282,117.849-480.283,513.85
		c-59.709-28.442-131.757-48.729-215.934-48.729c-58.976,0-120.254,10.143-182.054,30.011
		C789.589,773.678,701.752,844.89,657.728,943.812c-35.24,79.159-35.554,161.663-26.037,226.495
		c-264.558,93.798-255.148,316.32-255.148,316.32c-24.991-38.167-57.303-103.732-85.85-187.073l29.592-48.938l-47.16-6.275
		c-45.278-154.761-72.675-355.428-26.247-552.331l172.329-6.169l-154.657-57.617c6.588-20.6,14.117-41.095,22.587-61.382
		l97.144-36.181l-42.455-70.793c60.441-98.399,147.651-190.21,269.996-268.114C842.92,44.522,1068.892,15.347,1260.567,35.843
		l-5.333,139.913l54.48-133.43C1597.8,86.767,1796.899,237.032,1796.899,237.032z"/>
</g>
</svg>
