<?xml version="1.0" encoding="utf-8"?>
<!-- Generator: Adobe Illustrator 19.0.0, SVG Export Plug-In . SVG Version: 6.00 Build 0)  -->
<svg version="1.1" id="Layer_1" xmlns="http://www.w3.org/2000/svg" xmlns:xlink="http://www.w3.org/1999/xlink" x="0px" y="0px"
	 viewBox="0 0 2000 2000" style="enable-background:new 0 0 2000 2000;" xml:space="preserve">
<style type="text/css">
	.st0{fill:#C07863;}
	.st1{fill:#93617F;}
	.st2{fill:#634457;}
</style>
<g id="XMLID_80_">
	<path id="XMLID_87_" class="st0" d="M747.021,1138.461c0.539,6.739-0.898,10.514-0.898,10.514S746.482,1145.021,747.021,1138.461z"
		/>
	<path id="XMLID_83_" class="st1" d="M1958.083,1055.781c-31.055-20.672-95.369-96.472-156.192-86.733
		c-29.125,4.686-78.831,12.771-135.52,12.771c-26.92,0-55.494-1.838-84.068-6.707c-5.421-1.011-10.933-2.021-16.354-3.124v-0.092
		c-15.16-3.216-30.32-7.442-45.112-12.679c-15.987-5.788-31.606-12.771-46.674-21.316
		c-115.582-65.876-136.99-137.082-408.03-232.819c-37.762-13.322-71.757-26.644-102.903-39.415c0,0,0,0-0.091,0
		c-38.221-15.619-72.216-30.595-104.006-44.101c-4.135-1.746-8.177-3.399-12.128-5.053c-25.91-10.933-50.349-20.672-74.697-28.85
		c0-0.092,0-0.092,0-0.092c-89.765-30.504-175.762-40.243-314.13-7.258C194.763,643.065,10.272,830.68,25.616,1140.032
		c15.16,306.78,349.779,420.8,666.114,312.017c1.011-0.368,0.643-1.93-0.367-1.838c-62.661,6.156-471.333,36.567-544.836-212.238
		C66.96,968.496,244.56,766.364,422.987,744.957c178.335-21.5,243.476,3.032,280.963,39.783c0,0-6.891-27.563,12.22-51.268
		c0,0-9.188,51.268,19.937,77.269c29.125,26.094,15.343,31.423-17.64,32.157c-32.892,0.827-58.894,10.75-68.082,57.424
		c0,0-126.699,12.312-142.043,41.713c0,0,23.337-11.117,31.697-9.464c8.269,1.746,26.921,5.513,77.453,5.237
		c50.533-0.367,74.972,27.196,41.345,69.736c-33.536,42.539-42.172,59.996-86.365,81.496c-44.193,21.591-37.946,26.736-42.264,31.33
		c-4.319,4.594-26.645,10.015-26.645,10.015s78.647,10.933,140.665-66.519c62.018-77.545,66.06-97.666,68.908-61.466
		c2.848,36.108,19.937,111.999,25.266,126.515c1.746,4.778,2.573,8.912,2.848,12.404c1.93-21.867,5.788-72.124,5.145-107.773
		c-0.735-46.674-3.032-56.596,12.312-42.448c15.251,14.15,57.424,35.557,65.784,37.119c8.453,1.562,16.538,14.884,16.538,14.884
		s6.891-13.322-25.266-40.886c-32.157-27.563-53.289-35.281-34.454-37.578c18.651-2.297,47.593-2.297,57.332,8.729
		c-0.551-1.286-5.237-11.301-9.555-15.619c-4.594-4.594-17.181-11.117-46.674-10.658c-29.492,0.367-36.751-19.57-16.813-20.305
		c19.753-0.827,95.829-47.041,83.149-103.087c1.47,4.869,13.69,51.911-27.104,95.369c0,0,130.375,127.527,207.736,148.934
		c77.27,21.5,165.38,42.172,165.38,42.172s43.183-37.118,86.273-24.531c0,0-48.236,7.442-73.502,35.557
		c-25.266,28.207-35.005,62.109-35.557,100.514c-0.551,38.497-20.673,79.291-41.345,92.429c-20.672,13.23-6.707,31.055-6.707,31.055
		s1.103-14.517,6.891-14.517c5.696,0,26.001-17.273,37.854-34.087c11.852-16.813,21.499-28.298,18.008,5.696
		c-3.399,34.087-23.704,86.549-9.188,123.668c0,0-1.103-20.673,3.491-27.931c0,0,7.626,1.194,16.447-22.969
		c8.82-24.072,19.845-104.098,47.041-92.98c27.195,11.025,60.915,48.236,70.47,48.603c9.555,0.367,11.485,16.079,11.485,16.079
		s6.156-16.906-27.931-54.759c-34.087-37.946,8.361-24.531,16.079-25.634c7.625-1.194,16.813,1.102,16.813,1.102
		s-22.602-15.251-52.83-20.305c-30.228-4.961-30.228-19.478-20.305-28.666c10.014-9.188,19.937-45.939,7.258-81.128
		c0,0,17.273,14.884,18.008,33.26c0,0,48.695,25.818,95.737,0.551c0,0,243.476,53.84,395.81,17.824c0,0,222.62-21.867,205.99-82.139
		C1981.052,1106.865,1989.137,1076.453,1958.083,1055.781z M1806.117,1080.679c8.82,7.626,28.666,16.814,28.666,16.814
		C1790.773,1112.836,1806.117,1080.679,1806.117,1080.679z"/>
	<path id="XMLID_82_" class="st2" d="M1653.599,955.633c-23.521-0.551-45.939-2.664-66.519-6.156c0,0-7.35-1.378-10.014-1.838
		l-5.697-1.194c-2.388-0.459-4.777-1.011-7.074-1.654c-3.767-7.993-7.075-16.997-8.729-26.002c0,0-0.919,9.004,2.021,24.348
		c-9.555-2.389-18.927-5.237-27.839-8.361c-3.859-1.378-7.626-2.848-11.301-4.41c-0.551-29.125,4.869-70.195,39.599-71.389
		C1596.084,857.6,1634.305,919.158,1653.599,955.633z"/>
	<path id="XMLID_81_" class="st2" d="M960.565,636.45c-21.408-8.912-41.437-17.548-61.007-25.91
		c-10.29-4.41-20.397-8.729-30.32-12.955l-12.128-5.054c-0.459-0.183-0.919-0.367-1.378-0.551
		c-0.735-13.138-0.276-28.757,3.307-42.815c-1.103,2.021-7.718,15.527-10.658,39.691c-18.927-7.901-35.097-14.241-50.073-19.662
		v-0.275l-6.615-2.206c25.634-25.266,72.124-62.936,110.529-49.614C941.363,530.698,955.604,597.126,960.565,636.45z"/>
</g>
</svg>
