<?xml version="1.0" encoding="utf-8"?>
<!-- Generator: Adobe Illustrator 19.0.0, SVG Export Plug-In . SVG Version: 6.00 Build 0)  -->
<svg version="1.1" id="Layer_1" xmlns="http://www.w3.org/2000/svg" xmlns:xlink="http://www.w3.org/1999/xlink" x="0px" y="0px"
	 viewBox="0 0 2000 2000" style="enable-background:new 0 0 2000 2000;" xml:space="preserve">
<style type="text/css">
	.st0{fill:#5B9977;}
	.st1{fill:#3D6850;}
</style>
<g id="XMLID_113_">
	<g id="XMLID_114_">
		<path id="XMLID_111_" class="st0" d="M1579.54,797.781c-0.869,2.954-1.738,5.909-2.607,8.777
			c-1.825,5.735-3.737,11.384-5.822,16.945c0,0-0.087,0.087-0.087,0.174c-0.608,1.477-1.13,2.868-1.651,4.345
			c-0.869,2.086-1.651,4.084-2.52,6.083c-1.912,4.605-3.911,9.124-5.996,13.556c-0.956,2.172-1.999,4.345-3.129,6.517
			c-2.086,4.345-4.345,8.516-6.517,12.601c-2.259,4.084-4.518,8.082-6.778,11.992c-2.172,3.65-4.345,7.212-6.517,10.688
			c-0.261,0.434-0.521,0.782-0.695,1.13c-2.259,3.563-4.519,6.952-6.778,10.254c-3.129,4.692-6.344,9.211-9.472,13.469
			c-11.21,15.12-21.812,27.373-30.067,36.237c-9.906,10.689-16.424,16.424-16.424,16.424
			c-72.3,105.93-233.672,104.279-233.672,104.279c-158.07,43.711-322.744-33.63-322.744-33.63
			c-57.18,3.389-200.129-68.911-200.129-68.911c-29.285-1.564-57.441-10.08-82.468-21.29c0,0,0,0-0.086,0
			c-56.832-25.287-97.327-63.871-97.327-63.871c-37.019-12.34-70.475-36.672-98.11-65.087
			c-17.727-18.162-33.022-37.975-45.274-57.354c-11.384-17.901-20.161-35.455-25.809-50.923
			c-9.559-25.809-10.514-45.883-0.608-52.487C988.625,240.756,1422.34,366.847,1548.43,578.708
			c4.432,7.386,8.43,14.773,11.992,22.072C1596.486,673.167,1595.53,740.861,1579.54,797.781z"/>
		<path id="XMLID_110_" class="st0" d="M1685.819,1635.055c-218.552,98.978-157.288-9.733-113.925-103.845
			c14.599-31.718,27.113-61.785,26.244-81.685c-3.389-79.079-18.857-123.745,25.809-285.291
			c34.152-123.657-44.318-204.474-82.989-235.497c3.302-4.519,6.604-9.298,9.82-13.991c2.433-3.563,4.779-7.126,7.213-10.949
			l0.782-1.303c2.26-3.65,4.606-7.3,6.952-11.384c2.346-4.085,4.692-8.169,7.212-12.774l0.782-1.477
			c2.086-3.911,4.258-7.908,5.909-11.297c1.304-2.694,2.607-5.301,3.476-7.387c2.259-4.779,4.431-9.646,6.343-14.251
			c0.608-1.478,2.781-6.691,2.781-6.691l0.087-0.087l1.824-5.04c0.087,0,1.478-3.563,1.478-3.563v-0.434
			c1.738-4.606,3.302-9.385,4.866-14.426c0.956-2.954,1.825-5.909,2.781-9.211c0.782-2.607,1.477-5.301,2.085-7.908
			c4.432-0.087,9.298,0,14.686,0.26c1.911,0.087,3.91,0.174,5.909,0.261c3.215,0.174,6.604,0.434,9.993,0.695
			c1.912,0.173,3.824,0.347,5.736,0.521c1.999,0.173,3.997,0.347,5.996,0.608c64.827,7.299,162.502,35.455,232.282,131.652
			C1993.442,1086.894,1977.974,1502.795,1685.819,1635.055z"/>
		<path id="XMLID_109_" class="st1" d="M1600.223,1157.63c-37.975,137.388-33.717,194.22-29.198,254.441
			c0.956,12.34,1.912,25.027,2.52,38.496c0.695,16.598-16.598,54.225-23.984,70.301c-2.52,5.388-5.04,10.775-7.56,16.164
			c-2.172,4.605-4.258,9.124-6.344,13.556c-26.852,12.861-53.878,22.072-74.907,20.943c-63.61-3.476,27.46-104.887,17.119-165.022
			c-10.254-60.134,27.547-185.53,43.102-283.465c10.341-64.827-6.256-119.487-18.597-148.945c2.086-1.999,4.172-4.258,6.517-6.778
			c5.736-6.083,11.384-12.514,16.859-19.205C1566.245,980.617,1629.682,1051.092,1600.223,1157.63z"/>
		<path id="XMLID_117_" class="st0" d="M1886.643,511.274c-103.497-22.855-225.591-13.643-308.666,69.954
			c1.651,2.868,3.128,5.823,4.606,8.777c29.285,58.57,38.67,119.66,27.981,181.88c3.302,0,6.865,0.087,10.688,0.348l5.736,0.26
			c3.476,0.174,6.865,0.434,10.254,0.695l6.691,0.608c2.259,0.174,4.518,0.347,6.865,0.695c1.564,0.173,3.128,0.347,4.779,0.608
			c10.949-25.548,34.412-60.742,77.688-46.751c65.435,21.203,145.817-4.258,182.575-56.484c0,0,14.599-15.294,42.32-11.036
			C1958.161,660.828,1997.7,535.866,1886.643,511.274z M1868.828,576.448c-10.776-12.774-16.685-19.726-16.685-19.726
			c25.548-13.73,39.279,0,39.279,9.906C1891.422,576.448,1879.691,589.223,1868.828,576.448z"/>
		<path id="XMLID_106_" class="st0" d="M589.671,951.592c-40.669,4.345-103.932,12.253-170.844,25.462
			c-113.664,22.42-307.276,147.294-356.895,123.31c-32.587-15.816-54.92-181.881,49.098-277.817l0.087-0.087
			c50.314-46.404,130.175-76.297,252.79-64.914c3.042,5.562,6.344,11.123,9.907,16.685c13.817,21.812,30.589,43.102,48.49,61.438
			c31.718,32.587,67.173,56.572,102.888,69.519C534.229,913.183,557.605,932.909,589.671,951.592z"/>
		<path id="XMLID_105_" class="st1" d="M351.045,731.824c-12.861-0.869-25.461-1.303-37.541-1.303
			c-41.972,0-80.121,5.127-114.272,15.468c58.136-34.325,112.013-39.192,142.775-38.409c1.043,3.476,2.259,7.212,3.737,11.036
			C347.309,722.96,349.047,727.305,351.045,731.824z"/>
	</g>
</g>
</svg>
