<?xml version="1.0" encoding="utf-8"?>
<!-- Generator: Adobe Illustrator 19.0.0, SVG Export Plug-In . SVG Version: 6.00 Build 0)  -->
<svg version="1.1" id="Layer_1" xmlns="http://www.w3.org/2000/svg" xmlns:xlink="http://www.w3.org/1999/xlink" x="0px" y="0px"
	 viewBox="0 0 2000 2000" style="enable-background:new 0 0 2000 2000;" xml:space="preserve">
<style type="text/css">
	.st0{fill:#9B6066;}
	.st1{fill:#684145;}
</style>
<g id="XMLID_134_">
	<path id="XMLID_161_" class="st0" d="M1766.494,1191.599l15.719-13.486c-19.828-11.253-25.722-49.926,0-69.843
		c25.812-19.828,74.934,5.537,74.934,5.537l2.59-45.639c21.346,1.518,24.382-13.755,24.382-13.755
		c-21.345-12.146,29.027-64.841,29.027-64.841c9.914-0.715,15.987,13.307,15.987,13.307c1.518-16.523-7.592-32.331-7.592-32.331
		c7.859,1.429,25.901-9.289,28.044-10.628c-22.596,5.805-11.254-29.831-11.254-29.831c12.146,3.84,30.456-4.555,30.456-4.555
		c-27.419-2.322-16.97-92.349-16.97-92.349c23.579,7.145,30.098-13.129,30.098-13.129c-30.098,17.684-38.583-28.758-38.583-28.758
		c12.415,1.339,23.579-11.789,23.579-11.789c-35.993,10.449-65.377-18.934-65.377-18.934c14.379,0,23.489-15.004,23.489-15.004
		c-29.384,9.11-43.764-16.344-43.764-16.344c9.825-1.965,14.38-14.379,14.38-14.379c-8.485,7.145-36.619,1.965-39.208-9.2
		c-2.412-9.914,3.662-13.129,4.912-13.665c-25.365,10.628-55.464-52.784-53.588-71.629c1.876-18.934-17.952-32.242-17.952-32.242
		c17.952,38.851-55.91,0.982-55.91,0.982c1.429-9.914,16.613-18.934,16.613-18.934c-20.81-0.982-34.564,12.772-34.564,12.772
		c-13.219-14.647-35.547-13.218-35.547-13.218c10.003,0.893,9.021,18.041,9.021,18.041
		c-43.942-10.985-102.977,11.253-102.977,11.253c-1.072-13.218-13.665-38.94-13.665-38.94c0,7.145-8.217,20.274-8.217,20.274
		c-3.305-21.971-24.74-52.695-24.74-52.695c0,9.914-9.824,25.812-9.824,25.812c-1.697-32.331-29.652-74.04-29.652-74.04
		c1.072,14.826-5.627,22.864-5.627,22.864c-7.055-28.848-28.848-61.447-28.848-61.447c1.875,7.056-1.876,20.274-1.876,20.274
		c-8.038-20.274-32.242-43.942-32.242-43.942c4.287,7.056,0,16.523,0,16.523c-11.789-19.381-39.744-33.492-39.744-33.492
		c6.698,5.895,10.271,15.898,10.628,17.148c-57.875-23.579-324.563-20.453-358.323-5.18c-33.76,15.183-99.316,0-99.316,0
		c5.269,5.894,11.878,5.894,11.878,5.894c-20.452,2.68-50.908-5.894-50.908-5.894c5.269,4.644,15.897,7.949,15.897,7.949
		c-49.658,5.269-105.3,39.03-121.823,53.588c-16.612,14.558-41.709,15.897-41.709,15.897c7.949,1.34,20.452,0,20.452,0
		c-64.127,46.353-204.526,68.86-204.526,68.86c20.542,3.93,48.586,2.948,48.586,2.948s-28.401,14.2-143.169,58.857
		c-114.677,44.656-140.042,74.13-140.042,74.13c-46.71,10.539-82.079,26.08-108.247,45.014c0,0,0,0-0.089,0.089
		c-18.13,13.129-31.885,27.955-41.888,43.942h-0.089c-38.315,61.001-22.506,138.346,7.771,202.561c0,0,0,0,0,0.089
		c19.917,42.245,46.175,78.774,67.342,101.192c18.309,19.291,31.795,39.655,41.709,60.107
		c30.367,62.787,27.151,126.735,23.311,164.246c-5.09,49.747-4.108,41.62,45.639,93.332
		c49.747,51.802,90.385,142.186,107.264,173.356c11.701,21.524,39.923-1.429,39.923-1.429s-2.769,31.617,10.985,31.617
		c13.755,0,60.554,11.075,75.648-9.557c15.183-20.631-53.588-59.214-53.588-59.214s-41.352-53.588-70.2-78.417
		c-28.848-24.739-60.554-93.51-49.48-147.187c10.985-53.588,16.434-163.621,16.434-163.621
		c52.337-85.294,41.262-240.787,41.262-240.787c19.291,129.325-6.073,232.124-6.073,232.124s53.141,38.494,94.671,47.782
		c41.531,9.289,65.288,83.954,65.288,83.954c0.536-26.258-17.505-65.556-18.577-67.967c8.931,4.644,23.311,20.899,23.311,20.899
		c0-8.396-6.431-24.382-6.431-24.382s93.689,10.718,145.848-11.879c35.279-15.183,107.354-21.792,150.402-24.382
		c20.631-1.34,34.653-1.697,34.653-1.697s38.673-51.444,8.306-109.051c-6.698-12.772-11.521-25.365-15.005-37.243
		c-12.325-42.067-7.591-75.469-7.591-75.469c-0.446,17.952,7.056,42.513,16.523,67.699c15.541,41.352,36.44,84.401,36.44,102.62
		c0,29.116,7.77,71.004,7.77,71.004c6.788-14.647,21.346-20.453,21.346-20.453c4.912,31.171,50.64,53.499,57.428,85.651
		c2.769,12.95,7.413,26.973,11.968,39.208c6.877,17.952,13.486,31.795,13.486,31.795c-2.411-18.22,12.415-31.438,12.415-31.438
		c3.305,33.046,16.523,56.177,16.523,56.177c1.697-21.435,19.827-33.045,19.827-33.045c9.11,28.133,0.804,70.289,0.804,70.289
		c13.218-7.503,23.132-27.33,23.132-27.33c0,15.719-14.022,57.07-14.022,57.07c31.438-9.109,66.092-52.069,66.092-52.069
		c0,14.826-13.218,44.567-13.218,44.567c22.328-10.718,31.348-44.567,31.348-44.567c0.893,23.936,9.914,54.481,9.914,54.481
		c10.807-26.437,20.721-33.046,20.721-33.046c3.304,27.33,0.803,60.286,0.803,60.286c15.719-12.325,28.044-54.481,28.044-54.481
		c0.357,2.769,1.518,5.091,3.305,7.056c7.056,8.395,23.132,11.164,23.132,11.164c-9.021-10.807,13.218-40.548,13.218-40.548
		c7.591,14.647,21.524,26.883,32.778,35.1c9.11,6.609,16.523,10.628,17.505,11.075c-27.955-28.044-25.454-89.134-25.454-89.134
		c3.305,17.416,31.349,34.743,31.349,34.743c-20.631-40.459-13.486-124.056-13.486-124.056c0.536,9.914,18.667,17.058,18.667,17.058
		c0-19.738,21.882-34.028,21.882-34.028c1.697,7.681,13.754,18.667,13.754,18.667c-1.608-15.362,22.507-30.724,22.507-30.724
		c0,16.969,15.361,50.461,15.361,50.461c0-17.594,15.898-36.261,15.898-36.261c3.305,37.869,32.867,76.809,32.867,76.809
		c-2.143-13.665,14.29-21.882,14.29-21.882c0.536,19.738,15.362,45.996,15.362,45.996c-9.289-25.722,4.376-71.808,4.376-71.808
		s18.13,70.736,21.971,110.748c3.84,40.101,32.867,67.52,32.867,67.52c-6.609-13.754-0.536-32.421-0.536-32.421
		c7.413,30.902,42.691,47.782,44.924,48.765c-32.867-23.579-30.098-75.023-30.098-75.023c2.679,26.079,32.064,41.263,33.939,42.156
		c-25.186-20.364-15.272-43.853-15.272-43.853c0,14.915,10.092,18.755,11.432,19.113c-0.268-0.893-4.019-14.29,18.131-45.996
		c23.042-32.867,13.307-115.749,13.307-115.749C1777.758,1198.054,1766.494,1191.599,1766.494,1191.599z M1692.365,737.354
		c-14.915,23.936-18.398,46.175-17.773,62.966c18.041,8.306,33.224,29.741,35.546,51.444c2.59,24.115-9.735,45.55-34.028,58.947
		c-12.861,7.055-25.812,10.628-38.583,10.628c-18.041,0-34.207-7.145-46.71-20.631c-20.721-22.507-29.205-59.572-25.097-110.302
		c7.77-96.994,96.725-176.393,123.519-176.393h8.396l7.056,5.091C1717.283,628.66,1741.397,659.116,1692.365,737.354z
		 M1734.734,921.339c0,0,30.063-3.93,35.69,6.163C1776.14,937.594,1749.197,972.12,1734.734,921.339z"/>
	<path id="XMLID_160_" class="st1" d="M167.884,769.953c-21.346,33.939-29.741,74.934-24.919,120.305v0.446
		c-1.339,17.952-1.429,37.6,0.179,58.41c6.788,88.509-24.472,132.451-26.258,134.862c8.753-23.668,7.324-51.623,7.324-51.623
		c-34.743,98.155-107.265,87.616-107.265,87.616c82.347-17.505,78.863-74.487,78.863-74.487
		c-18.755,25.276-51.176,42.959-55.553,45.282c53.766-35.903,52.07-75.916,52.07-75.916c-14.915,12.236-21.971,6.073-21.971,6.073
		c48.229-35.903,58.767-164.693,71.003-216.405c4.287-18.041,16.523-31.349,30.634-41.084L167.884,769.953z"/>
	<path id="XMLID_159_" class="st1" d="M287.563,1167.664c-31.259,33.492-93.243,97.351-117.893,104.585
		c-33.582,9.914-63.412,116.911-80.56,168.355c-17.148,51.533,27.598,90.295,35.01,105.925c7.413,15.719-44.031,12.682-71.629,8.931
		c-27.598-3.662-11.164-37.243-11.164-37.243c-10.45-8.931-8.753-38.673-8.753-38.673c-26.258,4.197,59.036-211.672,63.234-249.63
		c4.197-37.958,18.934-52.695,56.892-62.162c37.958-9.467,42.156-55.82,40.012-93.778c-0.714-13.218-0.357-27.955,0.358-41.441
		c15.897,27.151,34.564,52.694,52.962,72.164c15.272,16.077,27.866,34.118,37.333,53.677
		C284.884,1161.501,286.224,1164.537,287.563,1167.664z"/>
	<path id="XMLID_158_" class="st0" d="M1101.65,1325.211c-1.697,8.753-2.5,18.131-1.965,27.687
		c2.411,44.121-25.365,68.235-25.365,68.235c2.769-15.272,0-17.684,0-17.684c-4.644,10.628-11.7,20.364-19.56,29.116
		c-23.043,25.543-53.409,41.977-55.285,42.959c4.734-12.682-3.305-17.773-3.305-17.773c-3.394,4.109-7.056,7.324-10.628,9.735
		c-0.089,0.089-0.089,0.089-0.089,0.089c-10.985,7.413-21.346,8.038-21.346,8.038c1.608-26.437-27.24-41.709-27.24-41.709
		c0,13.665-12.861,29.741-12.861,29.741c6.431-48.139-36.082-69.843-36.082-69.843c-11.253,6.431-12.861,21.703-12.861,21.703
		c-18.488-56.178,21.614-116.285,21.614-116.285c-27.687,5.269-50.908,21.078-52.784,22.328c1.339-2.501,23.489-42.245,58.41-62.43
		c36.083-20.899,32.956-51.355,32.956-51.355c-10.449,6.43-20.095,5.627-20.095,5.627c6.431-5.895,11.7-13.755,15.809-21.435
		c4.108-0.268,8.217-0.536,12.415-0.804c19.827-1.339,33.581-1.697,33.671-1.697l12.236-0.268l7.145-9.557
		c0.893,5.091,1.429,8.217,1.518,8.753l14.558,78.06l27.151-58.768c4.734,5.627,9.824,10.896,14.647,15.987
		c10.182,10.628,20.721,21.614,22.596,30.545c2.59,12.236,6.967,26.615,13.04,42.959c4.555,11.878,9.021,22.06,11.7,27.954V1325.211
		z"/>
	<path id="XMLID_157_" class="st1" d="M1101.65,1325.211c-1.697,8.753-2.5,18.131-1.965,27.687
		c2.411,44.121-25.365,68.235-25.365,68.235c2.769-15.272,0-17.684,0-17.684c-4.644,10.628-11.7,20.364-19.56,29.116
		c-23.043,25.543-53.409,41.977-55.285,42.959c4.734-12.682-3.305-17.773-3.305-17.773c-3.394,4.109-7.056,7.324-10.628,9.735
		c-0.089,0.089-0.089,0.089-0.089,0.089c-10.985,7.413-21.346,8.038-21.346,8.038c1.608-26.437-27.24-41.709-27.24-41.709
		c0,13.665-12.861,29.741-12.861,29.741c6.431-48.139-36.082-69.843-36.082-69.843c-11.253,6.431-12.861,21.703-12.861,21.703
		c-18.488-56.178,21.614-116.285,21.614-116.285c-27.687,5.269-50.908,21.078-52.784,22.328c1.339-2.501,23.489-42.245,58.41-62.43
		c36.083-20.899,32.956-51.355,32.956-51.355c-10.449,6.43-20.095,5.627-20.095,5.627c6.431-5.895,11.7-13.755,15.809-21.435
		c4.108-0.268,8.217-0.536,12.415-0.804c19.827-1.339,33.581-1.697,33.671-1.697l12.236-0.268l7.145-9.557
		c0.893,5.091,1.429,8.217,1.518,8.753l14.558,78.06l27.151-58.768c4.734,5.627,9.824,10.896,14.647,15.987
		c10.182,10.628,20.721,21.614,22.596,30.545c2.59,12.236,6.967,26.615,13.04,42.959c4.555,11.878,9.021,22.06,11.7,27.954V1325.211
		z"/>
	<path id="XMLID_156_" class="st1" d="M1095.13,1595.74c-20.81,0-71.093,5.627-73.683-3.84c-2.501-9.378,3.84-42.156-3.126-49.658
		c-3.84-4.198-21.167-14.201-30.277-32.153l23.132-12.146c0.893-0.446,12.058-6.341,26.526-16.791l-1.161,6.252l20.899-18.131
		c0.625,10.539,1.161,20.899,1.161,26.973c0,16.344,43.942,71.182,55.017,77.434
		C1124.693,1580.021,1115.939,1595.74,1095.13,1595.74z"/>
	<path id="XMLID_153_" class="st0" d="M1857.147,1113.808c0,0-49.122-25.365-74.934-5.537c-25.722,19.917-19.828,58.589,0,69.843
		c19.917,11.254,63.323,6.43,69.843-15.094C1858.486,1141.584,1857.147,1113.808,1857.147,1113.808z M1823.16,1163.459
		c-7.77,8.663-35.793,3.835-24.176-17.43c0,0,1.282,6.505,12.178,7.13C1822.147,1153.784,1830.93,1154.706,1823.16,1163.459z"/>
	<path id="XMLID_152_" class="st1" d="M1658.156,842.311c0,0-27.219-54.437,12.785-118.36
		c40.003-63.923,21.858-82.069,18.558-84.543c-3.299-2.474-91.141,60.211-98.565,153.002s32.58,118.36,72.996,96.09
		s13.571-61.38-2.24-66.057C1661.69,822.443,1658.409,832.337,1658.156,842.311z"/>
	<path id="XMLID_151_" class="st0" d="M1407.278,1439.532c0,0-10.217-7.572-15.744-13.1c0,0-1.483,5.568,1.131,10.59l-41.029-7.047
		c-0.625-0.089-1.339-0.268-2.233-0.447l6.163,13.308c0,0-5.001,5.537-29.294,32.51c-24.383,26.973,9.914,59.393,28.223,71.54
		c18.22,12.146,30.456-3.305,43.674-31.527c13.307-28.223,6.698-63.68,6.698-63.68
		C1406.296,1448.195,1407.1,1443.998,1407.278,1439.532z"/>
</g>
</svg>
