<?xml version="1.0" encoding="utf-8"?>
<!-- Generator: Adobe Illustrator 19.0.0, SVG Export Plug-In . SVG Version: 6.00 Build 0)  -->
<svg version="1.1" id="Layer_1" xmlns="http://www.w3.org/2000/svg" xmlns:xlink="http://www.w3.org/1999/xlink" x="0px" y="0px"
	 viewBox="0 0 2000 2000" style="enable-background:new 0 0 2000 2000;" xml:space="preserve">
<style type="text/css">
	.st0{fill:#444066;}
	.st1{fill:#F08539;}
	.st2{fill:#665E9A;}
</style>
<g id="XMLID_167_">
	<path id="XMLID_165_" class="st0" d="M538.923,1961.127c-9.452,6.159-158.137,17.311-191.379,0.956
		c9.771-24.958-3.399-46.411-13.701-60.855c0.637-2.337,1.381-4.779,2.124-7.434c9.983-35.366,19.754-127.869,13.806-204.973
		c2.018-10.727,3.292-20.816,3.292-30.374c0,0,0.956-6.479,10.727-21.772c31.437-49.81,94.309-102.38,122.347-102.38
		c0.637,0,1.274,0,1.912,0.106c14.869,2.018,33.561,3.187,54.589,3.293c-6.16,20.709-12.532,51.296-12.532,89.211
		c0,73.599-7.116,100.256-12.426,141.039c-5.31,40.782-11.47,77.953,9.771,122.347
		C548.695,1934.576,548.695,1954.967,538.923,1961.127z"/>
	<path id="XMLID_164_" class="st1" d="M843.771,809.557l0.106,0.106c-0.213,0-0.425,0-0.213-0.106H843.771z"/>
	<path id="XMLID_173_" class="st2" d="M1851.433,81.317c-14.125-17.311-4.248-23.471,2.443-35.791
		c6.797-12.32-10.408-31.967-55.333-14.763c-45.03,17.205-142.101,150.491-130.737,316.488
		c11.47,165.997,9.24,207.841-46.411,224.94c-55.544,17.205-98.132-13.063-157.819-23.365
		c-59.687-10.301-71.369-15.718-87.194-30.799c-15.718-15.187-28.144-25.489-127.657-4.886
		c-99.513,20.604-89.105,48.323-136.154,50.129c-47.048,1.805-127.02,15.081-180.335,63.085
		c-53.314,48.004-56.925,34.623-75.511,80.822c-7.434,18.267-14.125,38.977-27.932,55.226c2.549,9.771,6.16,23.577,7.965,28.356
		c2.337,6.478,5.31,13.276,8.072,17.736c0.213,0.425,0.425,0.531,0.637,0.85c0.531-0.213,1.274-0.425,2.018-0.744
		c1.593-0.531,2.761-1.381,6.797-2.655c0.637-0.106,1.593-0.319,2.336-0.531l1.274-0.106c0.531-0.106,1.593-0.106,2.443,0
		c2.018,0.213,2.973,0.106,5.841,1.487c2.443,1.168,5.204,3.823,5.735,5.098c1.062,1.593,1.806,3.505,2.231,5.31
		c0.106,0.85,0.213,1.593,0.318,2.442c0.106,2.018,0,2.868-0.106,3.718l-0.319,2.655l-0.106,1.593c0,1.169,0,2.443,0.213,3.824
		c0.637,5.522,2.868,11.576,5.735,16.461c1.381,2.443,3.08,4.673,4.886,6.478c0.956,0.956,1.699,1.487,2.973,2.549
		c2.018,1.593,4.036,3.08,5.629,4.673c6.478,6.266,11.151,12.426,16.037,18.267c4.673,5.841,9.452,11.576,13.7,15.399
		c1.381,1.381,2.868,2.124,3.292,2.443c1.806,0.212,3.718,0.637,5.523,1.062c1.699,0.425,2.336,0.85,3.505,1.274
		c2.336,0.956,4.248,1.805,6.054,2.761c7.327,3.611,13.913,7.541,20.603,11.364c13.17,7.646,26.126,15.4,39.189,22.622
		c6.585,3.611,13.17,7.009,19.754,10.195c6.372,2.868,13.487,5.947,18.798,6.585h1.169l0.531,0.106c0.318,0,0.955-0.106,1.487-0.212
		c2.018-0.425,4.035-0.743,6.053-0.956c4.248-0.531,8.603-0.85,13.064-0.531c8.921,0.318,19.754,5.098,25.276,13.488
		c1.381,2.018,2.443,4.141,3.504,6.266l1.274,3.08c0,0,0,0.106,0.106,0.212c1.062,1.381,4.355,3.611,7.222,5.417
		c6.16,3.611,12.851,7.009,19.542,10.089c13.594,6.266,27.613,12.001,41.738,17.418c28.144,10.726,56.925,20.497,86.026,28.781
		c14.444,3.823,29.312,8.178,43.65,9.133c6.691,0.106,12.532-3.823,14.868-10.726c2.655-6.585,3.08-14.125,2.868-21.56
		c-0.425-14.974-3.717-29.843-7.859-44.393c-4.248-14.55-9.559-28.781-15.612-42.694c6.585,13.701,12.533,27.72,17.418,42.163
		c4.779,14.444,8.815,29.312,9.877,44.818c0.425,7.647,0.425,15.612-2.23,23.365c-0.637,1.911-1.806,3.717-2.655,5.629
		c-1.381,1.593-2.655,3.504-4.355,4.779c-3.505,2.655-7.965,4.248-12.213,4.248c-16.037-0.425-30.693-4.142-45.668-7.541
		c-29.737-7.115-58.943-15.718-87.937-25.382c-14.55-4.886-28.888-10.09-43.225-15.931c-7.115-2.974-14.232-6.16-21.347-9.983
		c-3.611-2.231-7.009-3.824-11.045-7.965c-0.956-0.85-2.549-3.718-2.974-4.673l-0.955-2.018c-0.637-1.381-1.381-2.549-2.23-3.611
		c-3.292-4.248-7.859-6.16-14.019-6.372c-3.08-0.106-6.266,0.212-9.664,0.744c-1.7,0.318-3.292,0.637-4.992,1.062
		c-0.531,0.106-0.744,0.213-1.381,0.319l-2.336,0.212c-1.487,0.106-2.974,0.106-4.46,0.106c-9.983-1.062-16.887-4.248-24.533-7.115
		c-7.222-3.08-14.338-6.373-21.241-9.877c-13.807-6.904-27.188-14.232-40.57-21.241c-6.585-3.505-13.382-7.01-19.754-9.771
		c-1.593-0.849-3.186-1.486-4.46-1.912c-0.531-0.106-1.381-0.531-1.699-0.531c0,0,0,0,0-0.106
		c-8.815-0.425-13.488-4.354-17.205-7.115c-7.222-5.947-12.32-12.001-17.418-17.736c-4.992-5.629-9.877-11.364-14.55-15.293
		c-1.168-1.062-2.231-1.806-3.292-2.549c-1.806-1.275-4.142-2.974-5.841-4.673c-3.718-3.399-6.797-7.116-9.452-11.152
		c-4.779-7.646-8.178-15.718-9.877-24.639c-2.549,0.425-5.31,0.743-8.391,0.318l-2.973-0.425c-1.274-0.425-2.761-0.956-4.036-1.593
		c-3.08-1.487-4.036-2.549-5.629-3.823c-1.593-1.381-2.336-2.443-3.292-3.505c-1.062-1.168-1.912-2.23-2.549-3.186
		c-5.523-8.178-8.709-15.506-12.001-23.046c-2.655-6.373-4.991-12.638-7.222-19.117c-23.471,10.62-58.625,12.851-114.063-0.743
		c-135.304-33.136-251.491-60.749-397.415,60.748c-146.03,121.391-159.306,189.149-163.979,305.336s-5.523,302.044-10.196,372.67
		c-4.673,70.519,12.107,168.12-25.064,228.55s-56.713,210.921-17.736,215.594c39.083,4.673,191.485,22.303,210.071-9.345
		c18.586-31.543-47.367-50.129-34.41-125.427c13.063-75.299,39.933-132.861,39.933-171.944c0-8.921,5.735-22.197,15.293-37.278
		c32.179-50.872,108.009-122.453,153.889-115.975c15.4,2.124,36.852,3.292,61.704,3.08c70.944-0.637,170.351-12.214,241.189-41.207
		c0,0,0-107.797-12.957-142.207c-13.063-34.304-29.737-146.774,11.47-184.37c0,0-30.374,72.643,0,178.741
		c30.268,106.098,12.107,162.067,54.483,246.924c42.482,84.857-60.536,375.75-22.728,389.45
		c37.915,13.594,222.816,24.958,228.232,5.735s10.727-50.022-13.913-67.758c-24.639-17.736-42.375-47.792-29.206-90.167
		c13.063-42.375,23.046-109.39,36.959-197.964c2.655-16.992,5.842-33.773,9.24-50.234c14.551-69.245,33.667-131.162,37.49-165.147
		c4.673-42.057,34.516-54.164,46.73-78.485c9.558-19.223,79.228-45.03,141.251-122.984c16.143-20.285,31.649-44.074,45.561-72.325
		c67.333-136.365,132.755-130.737,192.548-144.756c59.793-14.018,130.843-68.289,130.843-68.289s80.29,1.912,72.856-21.453
		c-3.08-9.771-8.072-17.311-13.913-23.471c-17.099-2.442-33.666-6.266-49.597-11.364c-23.365-7.541-45.667-17.948-66.271-31.118
		l-17.205-11.045l3.929-19.966c4.354-22.834,26.869-66.377,80.821-67.334l8.815-0.213l7.646,4.673
		c0.425,0.319,3.505,2.124,8.709,4.673c7.965,4.036,20.71,9.878,37.065,15.081c0.425,0.212,0.956,0.318,1.487,0.531
		c6.797,2.23,13.594,4.142,20.391,5.628c8.496-7.646,17.099-16.249,25.064-25.807c26.657-31.224,48.961-73.493,53.952-129.25
		c14.019-154.739-49.279-257.226-29.737-351.323c19.542-94.096,46.517-134.136,68.926-131.268
		C1852.814,112.329,1865.664,98.522,1851.433,81.317z M1392.101,664.695c0,0-1.7-40.145,37.383-16.674
		C1429.485,648.021,1427.786,663.208,1392.101,664.695z"/>
	<path id="XMLID_161_" class="st0" d="M1291.845,1946.151c-17.971,11.835-233.224,17.736-227.914-6.266
		c5.31-23.896,27.507-178.21,7.965-242.039c-7.541-24.639-18.373-54.057-28.887-83.901c0,0,0,0,0-0.106l0.637-4.355
		c2.336-14.762,5.204-30.692,8.921-48.747c6.266-29.525,13.382-58.2,19.754-83.476c8.497-33.985,15.825-63.298,18.267-84.538
		c1.912-17.311,9.983-26.126,21.241-38.233c7.222-7.965,15.506-16.78,21.665-28.463c3.399-3.504,14.232-10.832,23.047-16.78
		c21.665-14.656,51.402-34.942,82.308-65.528c0,0.319-0.106,0.743-0.213,1.169c-7.965,35.472,27.401,257.013,24.746,340.383
		c-2.655,83.37-24.002,257.969-12.851,280.166C1261.683,1887.633,1320.416,1927.336,1291.845,1946.151z"/>
	<path id="XMLID_160_" class="st1" d="M1944.255,751.783c-20.391,33.136-171.201,109.921-308.098,65.846
		c-20.179-6.478-40.145-15.612-59.262-27.825c0,0,8.072-42.056,51.828-42.906c0,0,3.93,2.442,11.151,6.054
		c9.346,4.673,24.215,11.364,42.907,17.311c41.313,13.275,101.212,22.727,161.111-1.912c3.823-1.593,7.541-3.08,11.151-4.673
		C1960.93,720.134,1964.434,718.965,1944.255,751.783z"/>
	<path id="XMLID_159_" class="st2" d="M1855.044,763.678c-3.611,1.593-7.328,3.08-11.151,4.673
		c-59.899,24.639-119.798,15.187-161.111,1.912c-18.692-5.947-33.561-12.638-42.907-17.311c-7.222-3.611-11.151-6.054-11.151-6.054
		c-43.756,0.85-51.828,42.906-51.828,42.906c19.117,12.214,39.083,21.347,59.262,27.825
		c136.897,44.075,287.707-32.71,308.098-65.846C1964.434,718.965,1960.93,720.134,1855.044,763.678z"/>
	<path id="XMLID_158_" class="st0" d="M1910.057,698.468c-6.266,5.098-16.886,13.169-28.781,21.984
		c-10.833,4.354-23.471,9.558-38.446,15.718c-2.23,0.956-4.567,1.912-6.903,2.868l-3.505,1.486
		c-21.028,8.603-43.968,13.064-68.077,13.064c-4.885,0-9.877-0.213-14.869-0.637c3.93-4.036,7.541-8.072,10.833-12.001
		c6.904-8.072,13.276-16.461,19.01-25.17c37.065-6.054,80.927-16.887,107.266-35.472
		C1939.264,643.242,1930.767,681.581,1910.057,698.468z"/>
	<path id="XMLID_157_" class="st2" d="M107.352,1047.773c-6.478,30.162-9.027,62.342-10.514,98.77
		c-2.231,53.739-3.505,121.604-4.779,187.238c-1.487,75.724-2.973,147.198-5.417,184.583c-1.381,21.241-0.955,43.65-0.531,67.333
		c0.531,32.392,1.168,65.528-3.08,94.522c-6.478,5.417-13.064,2.655-13.064,2.655c-35.791-35.684-5.31-134.348-5.31-134.348
		c0-34.623-3.186-320.099,0-404.106C66.676,1090.573,90.572,1061.579,107.352,1047.773z"/>
</g>
</svg>
