<?xml version="1.0" encoding="utf-8"?>
<!-- Generator: Adobe Illustrator 19.0.0, SVG Export Plug-In . SVG Version: 6.00 Build 0)  -->
<svg version="1.1" id="Layer_1" xmlns="http://www.w3.org/2000/svg" xmlns:xlink="http://www.w3.org/1999/xlink" x="0px" y="0px"
	 viewBox="0 0 2000 2000" style="enable-background:new 0 0 2000 2000;" xml:space="preserve">
<style type="text/css">
	.st0{fill:#675B4A;}
	.st1{fill:#99804E;}
	.st2{fill:#907F67;}
</style>
<g id="XMLID_178_">
	<path id="XMLID_176_" class="st0" d="M1714.419,1488.017c-35.764,13.34-42.638-8.839-73.982,0
		c-31.344,8.839-61.379,1.391-81.839-27.252c-20.46-28.644-100.58-106.063-112.856-132.661c0,0-1.718,6.792,0,10.884
		c0,0-59.742-54.504-79.465-86.913c-16.286-26.598-38.873-51.804-48.776-84.785c31.835-3.519,83.394-27.171,133.234-50.085
		c30.771-14.158,59.824-27.498,77.747-32.899c3.519-1.064,7.12-1.964,10.966-2.537c-1.8,14.65-3.437,33.881-2.373,51.313
		c2.046,34.045-5.402,70.218,10.23,105c15.713,34.781,75.701,138.471,83.885,162.286c8.184,23.897,42.638-1.718,61.379,15.386
		c0,0-16.368,0-26.925,4.747c0,0,60.07-6.465,61.707,15.713c0,0-12.604-3.764-39.856-3.11c0,0,39.201,4.092,47.057,10.557
		C1742.408,1450.208,1750.265,1474.759,1714.419,1488.017z"/>
	<path id="XMLID_175_" class="st1" d="M1923.845,1112.377c-26.025,66.616-90.268,105.736-90.268,105.736
		c9.739-12.849,17.923-25.37,24.634-37.4c20.051-35.354,28.398-65.962,31.754-85.604c0.409,0.082,0.818,0.082,1.227,0.082
		c2.374,0.164,4.583,0.246,6.384,0.246c7.857,5.974,15.058,10.803,21.933,14.649
		C1920.981,1110.903,1922.454,1111.64,1923.845,1112.377z"/>
	<path id="XMLID_174_" class="st2" d="M1889.964,1095.109c-3.356,19.641-11.703,50.249-31.754,85.604
		c-20.869,15.55-40.428,17.514-40.428,17.514c32.981-27.416,46.239-76.683,51.313-104.836c0.9,0.163,1.8,0.245,2.7,0.327
		C1877.524,1094.372,1883.58,1094.781,1889.964,1095.109z"/>
	<path id="XMLID_180_" class="st1" d="M1963.537,1017.607c-5.647-40.919-44.52-53.032-44.52-53.032
		c-0.655-14.322-12.931-34.781-12.931-34.781c0-14.322-18.414-34.782-18.414-34.782c-6.138-17.022-148.046-115.884-218.919-128.159
		c-70.954-12.276-107.291-56.387-208.689-106.391c-48.53-23.897-120.057-0.737-199.195,2.701
		c-76.765,3.273-201.815-39.528-409.194-8.184c-207.298,31.344-362.792,53.195-422.78,200.178
		c-60.069,146.983-202.551,219.165-292.574,215.155s-88.713-142.564-23.897-173.089c31.917-15.058,59.906-101.726-40.265-52.622
		c-100.171,49.103-90.678,335.539,122.103,270.395c164.251-50.331,213.436-121.449,245.517-187.493
		c9.493-19.56,17.514-38.628,26.598-56.632c34.29-68.254,61.706-86.913,63.343-87.977
		c-117.111,153.857,12.358,307.878,23.979,341.268c11.54,33.472-62.77,62.771-90.759,118.666
		c-2.865,5.811-4.174,12.522-4.174,20.133c-0.082,65.88,97.716,190.03,103.772,196.086c6.793,6.792-2.046,15.713,5.483,28.644
		c7.448,12.93,113.183,25.206,116.62-0.655c3.192-24.388-30.362-34.863-34.372-36.091c46.648,4.173,43.866,35.354,43.866,35.354
		s36.173-2.7,32.081-29.298c-4.092-26.598-45.011-27.989-80.448-31.344c-35.518-3.437-103.035-109.173-30.035-141.909
		c73-32.735,152.057-96.161,152.057-96.161c-1.228,9.003-5.565,18.496-6.056,19.723c2.373-1.064,45.175-21.688,76.355-91.332
		c31.999-71.609,8.184-171.125,8.184-171.125c37.482,64.734,10.23,153.448,10.23,153.448s29.953-13.667,72.264,13.585
		c42.311,27.334,151.648,41.656,151.648,41.656c5.646-17.759-10.476-13.013,15.467-96.897
		c25.861-83.885,70.218-90.677,70.218-90.677c-40.919,19.068-72.264,113.92-68.908,141.826c3.437,27.989,3.437,70.3-10.885,84.622
		c-13.913,13.913-25.861,45.911-26.516,47.957c5.238-4.01,20.624-0.245,20.624-0.245c-12.767,7.529-9.821,19.805-35.027,87.977
		c-25.207,68.171-9.739,102.299,6.629,124.804c16.368,22.506,2.046,31.754,14.813,49.103c12.849,17.35,41.492,9.166,55.323,17.35
		c13.749,8.184,60.315,14.649,60.806-6.056c0.573-20.787-30.199-35.845-30.199-35.845c36.336-0.491,41.983,35.845,41.983,35.845
		s23.488,1.473,20.951-32.245c-2.537-33.8-62.525-22.015-64.571-56.142c-1.637-26.516,76.356-164.332,103.444-208.361
		c23.979-38.792,15.55-83.64,74.637-117.439c7.775-4.583,16.777-8.838,27.171-12.93c55.405-21.606,89.368-58.188,107.127-82.658
		c9.247-12.767,14.158-22.26,15.385-24.634c-2.291,9.576-5.974,18.905-10.639,27.825c-22.342,41.983-67.762,75.292-107.291,91.742
		c-48.039,19.887-48.039,45.993-48.039,45.993c45.502-3.519,160.077-67.517,208.689-82.33c7.12-2.21,14.322-3.519,21.524-4.174
		c41.983-4.01,82.821,13.995,88.059,17.514c6.138,4.092,2.455,13.585,2.455,13.585c9.166-2.373,18.005-10.23,18.005-10.23
		c4.501,8.511,3.764,23.897,3.764,23.897c7.202-8.184,13.995-21.524,13.995-21.524c5.483,9.575,2.701,28.971,2.701,28.971
		c9.248-9.821,13.012-21.115,13.012-21.115s26.598,24.552,22.506,36.828c-4.092,12.276-13.667,32.899-9.575,69.727
		c4.092,36.828,56.796,32.245,56.796,32.245s17.596,1.555,25.779-3.601c0,0-23.979,0.655-34.209-9.084
		c-5.319-12.604-10.802-36.991-8.511-82.985c4.092-82.821,75.783-82.821,97.716-71.118c9.903,5.319,25.043,8.102,38.71,9.575
		c6.629,0.737,12.931,1.146,18.087,1.391c7.938,0.41,13.258,0.328,13.258,0.328c1.146,0.9,2.21,1.718,3.274,2.537
		c8.347,6.547,15.549,11.376,21.851,14.895c48.448,26.925,41.41-25.534,41.41-25.534
		C2007.484,1048.542,1963.537,1017.607,1963.537,1017.607z M1755.175,889.447c-9.329-7.202-19.887-12.603-30.935-16.368
		c-11.13-3.682-22.67-5.974-34.291-6.547c-10.476-0.409-21.278,0.164-31.426,2.21c0.737,9.739,6.957,19.805,14.077,27.825
		c2.046,2.21,4.174,4.42,6.383,6.22c2.128,1.719,5.074,3.683,5.32,2.947c1.637-0.246,4.256-2.128,6.383-4.092
		c2.292-1.965,4.501-4.092,6.629-6.384l3.438-3.437c0.573-0.573,1.227-1.228,1.882-1.801c0.327-0.245,0.982-0.736,1.473-1.064
		c0.164-0.163,1.391-0.573,2.046-0.573c0.819,0,1.473,0.246,2.046,0.655c2.374,1.964,1.882,3.437,2.128,4.42
		c0,1.063-0.082,1.964-0.246,2.864c-0.245,1.719-0.572,3.274-0.9,4.91c-0.818,3.192-1.637,6.22-2.537,9.33l-1.391,4.583
		c-0.164,1.228-0.491,2.537-0.246,3.765c0.573,5.401,5.565,10.066,10.476,13.585c5.156,3.519,10.803,6.466,16.695,8.921
		c-6.138-1.637-12.194-3.847-17.841-7.12c-5.401-3.192-11.539-7.202-13.34-14.731c-0.491-1.8-0.245-3.682,0-5.565l1.146-4.665
		c0.655-3.028,1.309-6.138,1.882-9.166c0.164-1.145,0.328-2.291,0.41-3.355l-2.374,2.783c-2.128,2.373-4.256,4.828-6.629,7.201
		c-2.619,2.21-4.91,4.747-9.575,6.056c-1.064,0.327-2.537,0.327-4.01,0.081c-1.064-0.409-2.292-0.818-3.028-1.309
		c-1.719-0.9-3.11-1.882-4.502-2.946c-2.782-2.128-5.156-4.42-7.447-6.875c-4.501-4.91-8.511-10.312-11.621-16.286
		c-3.028-6.056-5.484-12.931-4.911-20.542l0.246-2.946l2.782-0.573c12.521-2.782,24.715-3.437,37.073-2.537
		c12.276,0.982,24.552,3.683,35.927,8.43c11.375,4.583,22.178,10.884,31.262,19.068c9.329,7.857,16.777,17.677,23.324,27.743
		C1772.934,905.079,1765.078,896.076,1755.175,889.447z M1870.977,961.629c0,0-17.677-12.521-20.787-24.061
		c0,0,28.398-0.245,37.646,5.893C1887.836,943.461,1884.481,956.473,1870.977,961.629z"/>
	<path id="XMLID_170_" class="st0" d="M442.152,1232.598c-4.337,8.839-6.547,19.069-6.547,30.362
		c0,10.803,1.964,22.588,5.483,34.863c-12.521,40.838-21.605,103.199-17.35,110.073c6.138,9.902,16.368-4.092,52.541,5.074
		c36.091,9.248,29.953,48.448,29.953,48.448c-18.741-48.039-60.315-39.201-60.315-39.201c34.29,0.491,56.223,26.107,48.039,47.057
		c-8.184,20.951-132.415,28.644-139.126-2.537c-6.629-31.181-27.58-31.181-40.919-52.213
		c-13.258-20.951-6.629-80.775-16.368-133.479c-9.657-52.704,32.736-87.486,76.765-107.373
		c44.029-19.969,61.87-77.747,58.269-124.886c-1.391-18.987-0.491-42.392,0.982-63.507c0.082-0.082,0.082-0.164,0.082-0.246
		c9.657-14.403,17.677-28.644,24.879-43.129c6.056,72.755,41.656,134.052,61.707,168.588c4.828,8.43,10.393,18.005,11.457,20.624
		c-0.818,6.056-18.004,21.36-29.38,31.426C482.09,1180.548,456.965,1202.891,442.152,1232.598z"/>
</g>
</svg>
