<?xml version="1.0" encoding="utf-8"?>
<!-- Generator: Adobe Illustrator 19.0.0, SVG Export Plug-In . SVG Version: 6.00 Build 0)  -->
<svg version="1.1" id="Layer_1" xmlns="http://www.w3.org/2000/svg" xmlns:xlink="http://www.w3.org/1999/xlink" x="0px" y="0px"
	 viewBox="0 0 2000 2000" style="enable-background:new 0 0 2000 2000;" xml:space="preserve">
<style type="text/css">
	.st0{fill:#7F5D9A;}
	.st1{fill:#523F66;}
</style>
<g id="XMLID_200_">
	<g id="XMLID_218_">
		<path id="XMLID_253_" class="st0" d="M1254.588,1713.371c10.309-26.508-9.13-40.646-32.693-40.646
			s-214.518-108.879-247.899-211.278c-32.202-99.16-170.535-146.482-179.174-149.329c94.742,19.636,120.66,49.383,120.66,49.383
			c36.621-14.628,67.645-49.481,67.645-49.481c296.202-9.719,129.104-391.73,23.857-485.194
			C901.639,733.36,733.166,602.882,745.831,496.752c7.756-65.779,50.169-89.047,85.611-96.509c21.698-4.614,40.842-3.24,47.911-2.16
			c18.556,2.945,34.853,6.676,37.112,50.463c0.393,7.658,1.276,13.942,2.749,19.243c6.873,25.428,25.428,28.864,49.875,46.045
			c29.65,20.715,55.667,124.588,98.669,124.588c43.002,0,23.76-32.595,23.76-32.595c1.472,38.584-60.87-28.177-91.993-68.234
			c-31.122-40.057,0-55.667,13.647-55.667c13.549,0,10.8,37.798,59.791,53.409c14.138,4.516,25.821,11.094,35.245,18.261
			c23.268,17.181,32.988,37.406,32.988,37.406s4.811-2.062,13.843-18.653c4.909-9.033,10.996-22.286,18.163-41.726
			c6.284-16.887,3.24-29.552-4.123-40.057c-11.487-16.396-33.577-27.883-48.794-42.708c-7.462-7.167-13.353-15.217-15.512-24.937
			c-4.418-19.636-11.094-36.228-18.261-50.464c-8.345-16.69-17.476-30.435-24.446-42.511c-2.946-5.105-7.756-7.855-13.549-9.229
			h-0.098c-2.16-0.491-4.418-0.687-6.774-0.786c-16.69-0.786-37.21,7.167-41.824,9.13l-0.197,0.098
			c-0.491,0.197-0.785,0.294-0.785,0.294c8.05,5.793,13.646,15.905,14.235,17.181c-7.559-5.498-15.217-10.898-22.875-15.905h-0.098
			v-0.098c-17.279-11.388-34.951-21.206-53.409-28.569c15.217,16.494,24.741,28.472,26.017,30.141l6.971,8.738l-7.167,8.64
			c-4.418,5.498-11.781,11.879-19.145,17.574c-10.407,8.247-20.814,15.217-22.679,16.396l-11.781,7.756l-7.658-11.781
			c-23.465-36.424-46.733-65.583-68.43-88.851c-22.287,4.123-45.947,12.566-71.473,26.41c-10.407,5.694-21.207,12.174-32.203,19.733
			c-123.311,83.844-47.027,311.322,109.272,428.251c133.227,99.651,129.497,212.064,125.471,242.99
			c-0.687,5.4-1.375,8.345-1.375,8.345c-17.574,0.197-34.559,7.265-50.267,18.359c-34.951,24.839-63.717,70.099-78.641,107.701
			c-2.16,5.596-5.204,11.586-8.935,17.967c-7.854,13.745-18.85,29.061-31.122,44.769c0,0,0,0-0.098,0
			c-6.873,8.738-14.138,17.574-21.599,26.213c-4.319,5.007-8.737,10.014-13.057,14.923v0.098
			c-11.094,12.37-22.09,24.152-32.203,34.853c0,0,0,0-0.098,0c-16.886,17.77-31.416,32.203-39.565,40.449l-2.945,2.945
			c-25.723,25.232-46.144,39.762-27.784,84.138c0.589,1.473,1.375,3.043,2.258,4.615v0.098c4.418,7.658,11.585,15.807,21.108,24.446
			c0,0,0,0,0,0.098c47.813,43.394,153.354,96.116,230.718,127.435c95.92,38.879,111.53,96.018,129.398,144.911
			c17.868,48.991,57.63,49.58,57.63,49.58c16.69,2.258,29.944,21.893,29.944,21.893c3.437-16.101,1.669-19.635,1.669-19.635
			c39.173-40.842-27.588-64.503-27.588-64.503c52.427-1.178,50.07,58.22,50.07,58.22c15.61,9.229,24.25,3.436,24.25,3.436
			c13.254,0.589,31.614,22.482,31.614,22.482c4.614-15.021-1.08-30.533-1.08-30.533c19.537-49.58-47.813-58.219-47.813-58.219
			c73.142-6.873,58.121,48.991,58.121,48.991c17.279,4.615,23.661-6.873,23.661-6.873c8.64,0.491,23.563,16.101,23.563,16.101
			C1266.664,1727.116,1254.588,1713.371,1254.588,1713.371z M984.599,392.487c0.883,0.098,1.767,0.196,2.65,0.392
			c8.149,1.473,15.316,5.007,21.403,9.425c19.439,14.138,29.06,37.602,29.06,37.602c-29.06-2.749-44.573-9.523-52.525-16.985
			c-14.628-13.941-3.437-30.73-3.437-30.73c0.982,0.098,1.865,0.197,2.749,0.295H984.599z"/>
		<path id="XMLID_252_" class="st0" d="M908.61,292.836c-45.26-45.751-118.599-106.916-182.316-100.534
			c0,0,54.587,19.145,123.311,96.018c20.225,22.581,41.726,50.071,63.325,83.648c0,0,29.06-19.145,38.878-31.122
			C951.807,340.845,934.921,319.443,908.61,292.836z"/>
		<path id="XMLID_251_" class="st1" d="M1033.982,292.149c-15.217,0.982-30.141,5.694-38.682,8.836
			c-6.676-4.124-13.156-7.854-19.537-11.291c-32.202-79.23-80.408-132.933-80.408-132.933
			C964.08,181.699,1011.598,252.19,1033.982,292.149z"/>
		<path id="XMLID_250_" class="st1" d="M1525.46,741.214c-19.341,9.229-36.325,25.133-49.089,50.267
			c-16.494,32.595-22.09,82.175-25.428,138.627c-4.909,82.175-4.909,178.585-26.508,257.717
			c-26.508,97.589-86.004,168.768-228.067,154.139c0,0,43.689-13.254,56.354-30.435c0,0-21.698,9.13-54.096,17.574
			c-45.358,11.978-111.726,22.876-168.473,5.891c84.531-15.709,120.464-64.994,135.584-106.916
			c49.678-137.547-64.209-354.52-140.297-422.066c-12.468-11.094-25.821-22.679-39.664-34.657
			c-93.564-81.193-221.784-192.33-212.359-271.364c4.222-35.147,20.519-54.587,40.449-64.797
			c-21.795,22.679-33.184,57.14-0.589,106.818c40.744,62.147,190.367,141.67,307.69,260.368c5.596,5.694,11.29,11.487,16.69,17.377
			c4.026,4.32,8.051,8.738,11.88,13.058c0.687,0.786,1.375,1.571,2.062,2.356c3.633,4.123,7.167,8.247,10.603,12.37
			c7.756,9.327,15.218,18.752,22.188,28.079c3.338,4.615,6.676,9.229,9.916,13.942c3.24,4.614,6.382,9.326,9.425,14.039
			c3.043,4.614,5.989,9.326,8.737,13.941c2.749,4.516,5.4,9.032,7.855,13.549c0.098,0.197,0.196,0.294,0.294,0.491l2.945,5.4
			c31.81,58.907,50.758,125.177,47.911,200.283c0,0,10.113-53.212-5.596-124.391l6.873-93.171c0.589-9.326,0.786-21.01,0-34.755
			c0-0.098,0-0.098,0-0.098c-1.669-31.81-8.443-74.321-27.49-123.41c-6.873-17.868-15.414-36.62-25.919-56.059
			c-4.614-8.541-8.738-17.083-12.37-25.723c-1.472-3.437-2.945-6.971-4.222-10.407l-0.785-1.865
			c-1.276-3.142-2.357-6.382-3.437-9.425l-0.491-1.473c-1.178-3.633-2.356-7.265-3.632-11.388c-0.393-1.473-0.786-2.847-1.276-4.712
			c-0.589-2.062-1.178-4.124-1.669-6.185l-0.491-2.356c-0.981-3.829-1.865-7.658-2.65-11.094c-0.786-4.222-1.571-8.345-2.16-12.272
			l-4.32-27.294c5.694-11.094,11.487-24.839,17.476-40.842c6.479-17.574,6.774-34.755,0.786-50.365l6.479-9.229
			c0.589-0.884,1.276-1.571,1.964-2.356l0.491-0.491l0.392-0.589l0.982-0.883c2.454-2.749,5.203-5.105,7.952-6.971l1.375-0.982
			l0.883-0.491c1.865-1.178,3.829-2.16,5.694-2.946l1.571-0.589l0.884-0.196l1.767-0.589l0.393-0.098l1.767-0.491
			c0.786-0.197,1.571-0.393,2.357-0.491c12.566-2.061,24.839-3.141,36.62-3.141h2.847c-11.192,3.927-21.501,11.585-30.042,24.151
			c-40.351,59.496-13.941,133.522,22.679,224.827c9.524,23.661,19.734,48.402,29.65,74.418l3.534,9.425
			c2.062,5.4,4.026,10.996,6.087,16.592c2.553,7.265,5.204,14.53,7.658,21.893c3.338,10.014,7.462,22.385,11.487,36.719
			c3.534,11.977,6.774,24.151,9.719,36.522c0.098,0.197,0.098,0.393,0.098,0.589c0.982,4.222,1.964,8.541,2.945,12.861
			c0.589,2.651,1.08,5.301,1.669,8.051l0.982,4.909c0.491,2.356,0.884,4.811,1.375,7.167
			c11.192,61.361,14.039,127.828,0.589,199.694c0,0,20.323-48.795,19.93-155.612c3.142-14.53,6.971-29.159,11.389-43.493
			C1402.444,845.381,1454.969,761.144,1525.46,741.214z"/>
		<path id="XMLID_249_" class="st1" d="M1741.451,1692.754c0,0,8.149,12.468-13.057,13.156c-7.756,0.393-19.44-0.883-37.013-5.007
			c-65.19-15.119-156.79,0.491-160.717-53.801c-3.829-54.194-187.422-83.648-237.001-119.286
			c-43.1-31.024-84.531-94.741-94.839-157.674c11.388,1.08,22.581,1.571,33.184,1.571c103.97,0,174.462-49.678,210.1-147.66
			c3.829,18.752,3.142,45.064-10.996,79.623c-32.693,79.916-52.329,108.683-56.256,153.255c0,0,7.559-30.926,16.985-36.817
			c0,0,100.927,52.623,166.313,123.9c43.984,48.009,76.775,72.16,104.952,81.193c13.647,4.516,26.312,5.4,38.485,3.731
			c15.021-2.062,24.349,1.08,30.042,5.596c8.542,6.578,9.13,16.298,9.13,16.298s32.203,10.014,48.893,36.228
			c1.08,1.865,2.16,3.731,3.142,5.694C1792.799,1692.754,1759.222,1683.819,1741.451,1692.754z"/>
		<path id="XMLID_248_" class="st1" d="M1789.657,1687.059c1.08,1.865,2.16,3.731,3.142,5.694c0,0-33.577-8.934-51.347,0
			c0,0,8.149,12.468-13.057,13.156c-0.295-0.098-0.491-0.294-0.786-0.392l-29.748-13.941l-10.014-24.938l-24.741-41.431
			c13.647,4.516,26.312,5.4,38.485,3.731c15.021-2.062,24.349,1.08,30.042,5.596c8.542,6.578,9.13,16.298,9.13,16.298
			S1772.967,1660.846,1789.657,1687.059z"/>
		<path id="XMLID_247_" class="st1" d="M1846.208,1672.823c0,0-16.298,0.197-31.025,2.749c-0.491-0.786-0.982-1.669-1.472-2.454
			l-0.589-0.982c-14.236-22.384-35.835-35.54-50.071-42.216c-0.197-0.491-0.491-0.982-0.786-1.473
			c9.033,0.393,18.458,3.142,26.705,10.505c2.553,2.258,5.007,5.007,7.265,8.345
			C1796.235,1647.297,1826.081,1650.635,1846.208,1672.823z"/>
		<path id="XMLID_246_" class="st1" d="M1846.208,1672.823c0,0-16.298,0.197-31.025,2.749c-0.491-0.786-0.982-1.669-1.472-2.454
			l-0.589-0.982c-14.236-22.384-35.835-35.54-50.071-42.216c-0.197-0.491-0.491-0.982-0.786-1.473
			c9.033,0.393,18.458,3.142,26.705,10.505c2.553,2.258,5.007,5.007,7.265,8.345
			C1796.235,1647.297,1826.081,1650.635,1846.208,1672.823z"/>
		<path id="XMLID_245_" class="st0" d="M1244.966,918.032c-22.09-39.664-51.052-78.641-86.887-117.224
			c-5.694-6.087-11.487-12.076-17.279-17.967c0.197-29.649-3.534-77.266-21.108-143.634c3.239-6.971,4.222-14.04,3.927-20.519
			l4.026,8.345l24.545-10.407c2.16-0.982,4.32-2.258,6.479-3.828c0.687,4.32,1.473,8.737,2.356,13.254
			c0.884,4.222,1.865,8.443,2.945,12.665c0.098,0.491,0.197,1.08,0.393,1.669c0.589,2.552,1.276,5.105,1.964,7.658
			c0.491,1.767,0.982,3.534,1.571,5.4c1.178,4.026,2.454,8.051,3.829,12.076c1.375,3.927,2.749,7.952,4.32,11.977
			c0.196,0.589,0.393,1.178,0.687,1.767c1.472,3.829,3.043,7.658,4.712,11.487c3.927,9.326,8.443,18.653,13.45,27.882
			C1243.69,808.466,1247.126,882.394,1244.966,918.032z"/>
		<path id="XMLID_241_" class="st0" d="M1608.911,520.118c-22.384-16.592-46.635-29.552-50.365-50.365
			c-4.025-22.483-23.661-47.322-43.689-67.645l-2.16-2.16c-21.501-21.5-43.002-37.503-45.456-39.271
			c-0.098-0.098-0.196-0.098-0.196-0.196c0.491,5.105-2.062,8.149-5.989,9.916c-10.799,4.909-31.711,0.491-31.711,0.491
			s0,0,0.098,0.098c8.64,17.377,2.061,42.805,2.061,42.805c0.491-20.323-9.523-28.374-9.523-28.374s-49.58-31.81-112.512-47.518
			c-28.079-7.069-58.808-10.8-88.949-7.167c-20.715,2.553-38.682,12.37-53.801,27.588c-2.945,2.946-5.793,6.087-8.541,9.524
			c-10.603,13.058-19.537,28.864-26.802,46.733c0.196,0.687,0.393,1.472,0.589,2.258c0.687,3.043,3.239,6.774,7.559,10.996
			c4.909,4.712,11.193,9.425,17.77,14.432c8.738,6.578,18.359,13.745,26.508,22.482c1.178-1.669,2.454-3.142,3.731-4.615
			c0.687-0.883,1.473-1.669,2.258-2.454c4.026-4.418,8.444-8.247,13.156-11.388c0.982-0.786,2.062-1.473,3.142-2.062
			c3.044-1.865,6.284-3.534,9.621-4.909c1.375-0.589,2.651-1.08,4.026-1.472c0.491-0.197,0.982-0.393,1.571-0.491
			c1.276-0.491,2.553-0.884,3.927-1.08c1.767-0.491,3.534-0.883,5.301-1.178c78.641-12.96,151.979,9.72,177.8,77.659
			c-1.08,16.494,7.069,31.613,22.679,42.315c9.327,6.578,21.403,11.388,35.835,14.039c37.013,6.578,59.496,21.206,82.175,47.223
			c0.883,0.883,1.669,1.865,2.454,2.749c18.85,22.286,46.438,8.051,56.551,1.473c4.418,0.687,8.836,1.473,13.45,2.258
			c10.014,6.578,12.763,13.549,12.763,13.549c1.669-3.436,3.142-6.676,4.418-9.916
			C1662.909,568.716,1637.383,541.422,1608.911,520.118z M1487.367,418.405c0,0,34.362,9.916,45.948,47.126
			C1533.315,465.531,1463.412,472.6,1487.367,418.405z"/>
		<path id="XMLID_237_" class="st0" d="M1608.911,520.118c-22.384-16.592-46.635-29.552-50.365-50.365
			c-4.025-22.483-23.661-47.322-43.689-67.645l-2.16-2.16c-21.501-21.5-43.002-37.503-45.456-39.271
			c-0.098-0.098-0.196-0.098-0.196-0.196c0.491,5.105-2.062,8.149-5.989,9.916c-10.799,4.909-31.711,0.491-31.711,0.491
			s0,0,0.098,0.098c8.64,17.377,2.061,42.805,2.061,42.805c0.491-20.323-9.523-28.374-9.523-28.374s-49.58-31.81-112.512-47.518
			c-28.079-7.069-58.808-10.8-88.949-7.167c-20.715,2.553-38.682,12.37-53.801,27.588c-2.945,2.946-5.793,6.087-8.541,9.524
			c-10.603,13.058-19.537,28.864-26.802,46.733c0.196,0.687,0.393,1.472,0.589,2.258c0.687,3.043,3.239,6.774,7.559,10.996
			c4.909,4.712,11.193,9.425,17.77,14.432c8.738,6.578,18.359,13.745,26.508,22.482c1.178-1.669,2.454-3.142,3.731-4.615
			c0.687-0.883,1.473-1.669,2.258-2.454c4.026-4.418,8.444-8.247,13.156-11.388c0.982-0.786,2.062-1.473,3.142-2.062
			c3.044-1.865,6.284-3.534,9.621-4.909c1.375-0.589,2.651-1.08,4.026-1.472c0.491-0.197,0.982-0.393,1.571-0.491
			c1.276-0.491,2.553-0.884,3.927-1.08c1.767-0.491,3.534-0.883,5.301-1.178c78.641-12.96,151.979,9.72,177.8,77.659
			c-1.08,16.494,7.069,31.613,22.679,42.315c9.327,6.578,21.403,11.388,35.835,14.039c37.013,6.578,59.496,21.206,82.175,47.223
			c0.883,0.883,1.669,1.865,2.454,2.749c18.85,22.286,46.438,8.051,56.551,1.473c2.454-1.571,3.927-2.651,3.927-2.651
			c3.731,1.473,6.873,3.24,9.524,4.909c10.014,6.578,12.763,13.549,12.763,13.549c1.669-3.436,3.142-6.676,4.418-9.916
			C1662.909,568.716,1637.383,541.422,1608.911,520.118z M1487.367,418.405c0,0,34.362,9.916,45.948,47.126
			C1533.315,465.531,1463.412,472.6,1487.367,418.405z"/>
		<path id="XMLID_236_" class="st0" d="M1466.848,569.109c-14.432-2.651-26.508-7.462-35.835-14.039
			c21.992-8.738,45.456-14.923,69.903-18.457l37.602-5.4l28.766,24.839c5.4,4.615,10.702,9.72,16.101,15.414l20.617-9.524
			l11.291-29.159l-6.382-12.665c28.472,21.304,53.998,48.598,29.748,106.326c-1.276,3.24-2.749,6.48-4.418,9.916
			c0,0-2.749-6.97-12.763-13.549c-4.615-0.785-9.032-1.571-13.45-2.258c-10.113,6.578-37.701,20.814-56.551-1.473
			c-0.786-0.883-1.571-1.865-2.454-2.749C1526.344,590.315,1503.862,575.686,1466.848,569.109z"/>
		<path id="XMLID_232_" class="st0" d="M1925.436,815.24c0.59-16.985-11.879-40.842-25.428-61.656
			c-15.807-24.446-33.282-44.671-33.282-44.671c-30.73,22.188-56.551-10.799-62.343-19.047c-0.786-1.178-1.178-1.865-1.178-1.865
			c-7.167-3.633-14.236-7.068-21.207-10.309c5.4,10.701,8.541,17.672,9.033,18.752l2.454,5.694l-2.553,5.695
			c-5.891,12.763-19.734,19.047-32.203,21.992c-10.112,2.454-19.341,2.847-22.581,2.847l-11.388,0.098l-2.357-11.094
			c-5.007-23.661-16.886-52.82-29.551-80.113c-9.229-3.044-18.163-5.793-26.999-8.247c-0.491,1.276-0.982,2.651-1.571,3.927
			c-1.276,3.239-3.044,7.167-5.007,11.29l-21.501,44.377l-27.686-41.824c-8.934,4.123-20.617,7.854-33.282,7.854
			c-18.359,0-34.46-7.559-46.537-21.893l-0.687-0.687l-0.687-0.687l-0.884-1.08c-5.203-5.89-10.21-10.996-15.217-15.316
			c-117.224,16.789-166.608,106.13-186.44,163.171c4.811,12.763,9.523,25.919,14.138,39.468c9.229,27.49,19.242,60.477,26.802,98.08
			c20.52-84.826,107.996-343.033,377.297-126.747c-17.279,29.748-8.541,42.02,41.431,67.841
			c49.874,25.821,72.259,52.231,100.436,79.819c28.079,27.49,45.26-5.793,45.26-5.793c8.051,2.946,11.487,10.898,11.487,10.898
			C2031.076,882.884,1924.258,851.959,1925.436,815.24z M1793.682,759.082c0,0,36.718,13.45,44.278,47.813
			C1837.96,806.895,1764.524,794.034,1793.682,759.082z"/>
		<path id="XMLID_231_" class="st1" d="M1858.97,680.246l-8.541,6.087c-1.473,1.08-3.535,2.258-5.105,2.258
			c-4.32,0-16.297-4.32-21.795-12.076l-18.654-18.752c-1.178-15.807-5.007-38.289-14.923-68.43
			c-5.792-17.476-13.549-37.504-23.955-60.281c0,0,32.203,22.974,62.442,78.248h0.098
			C1839.433,627.23,1850.134,651.382,1858.97,680.246z"/>
		<path id="XMLID_230_" class="st0" d="M1778.268,702.041c-4.712,10.407-20.519,14.334-31.416,15.806
			c-6.185,0.786-10.8,0.884-10.8,0.884c-1.08-5.007-2.454-10.309-4.025-15.708c-2.651-8.836-5.891-18.163-9.622-27.686
			c-13.45-35.148-32.693-72.357-46.34-97.098v-0.098c-0.392-7.068-1.669-13.745-3.437-19.832
			c8.542,6.382,16.69,13.647,24.447,21.403C1746.852,629.979,1778.268,702.041,1778.268,702.041z"/>
		<path id="XMLID_229_" class="st0" d="M334.073,1279.621c9.032,6.873,17.475,13.549,24.643,19.439
			c-15.709,11.291-36.326,17.083-59.791,17.083c-26.115,0-55.274-7.265-82.666-20.715c0,0-8.149-4.222-9.524-5.007l0.295-0.883
			c0.392-1.178,0.786-2.259,1.276-3.437c1.08-2.847,2.258-5.498,3.436-8.148c0.687-1.768,1.473-3.535,2.356-5.204
			c0.687-1.571,1.473-3.142,2.258-4.614c0.785-1.571,1.571-3.142,2.454-4.615c1.178-2.062,2.356-4.025,3.534-5.989
			c3.829-5.989,7.952-11.389,12.567-15.512c0.589-0.589,1.178-1.178,1.865-1.669c0.786-0.687,1.669-1.276,2.454-1.865
			c0.687-0.491,1.473-0.982,2.16-1.375c1.964-1.178,4.025-2.061,6.185-2.749c0.687-0.197,1.276-0.393,1.964-0.491
			c0.589-0.098,1.276-0.196,1.865-0.294c0.883-0.098,1.767-0.197,2.65-0.197c2.651,0,5.302,0.491,8.051,1.473
			c8.541,3.044,18.85,8.542,29.748,15.316c3.142,1.964,6.381,4.025,9.621,6.185c2.062,1.375,4.222,2.847,6.284,4.32
			c0.196,0.098,0.294,0.196,0.491,0.294c3.829,2.553,7.56,5.302,11.291,7.952c0.589,0.491,1.178,0.884,1.767,1.276
			c0.098,0.197,0.294,0.295,0.491,0.393c2.258,1.669,4.516,3.239,6.676,4.909C330.342,1276.872,332.208,1278.247,334.073,1279.621z"
			/>
		<path id="XMLID_228_" class="st0" d="M531.116,1207.755c3.534,18.752,4.516,37.701,2.749,56.157
			c-0.392,2.946-0.687,5.891-1.08,8.836c-1.571,11.585-4.32,23.072-8.149,34.166c-0.982,2.946-2.061,5.793-3.239,8.64
			c-1.964,4.811-4.124,9.524-6.48,14.138c-0.786,1.67-1.669,3.24-2.553,4.909c-2.356,4.32-4.909,8.541-7.658,12.665
			c-3.338,5.105-6.971,10.014-10.996,14.923c-7.854,9.72-16.985,18.851-27.294,27.392c-7.462,6.185-15.61,11.977-24.348,17.377
			c-1.08,0.786-2.356,1.473-3.534,2.16c-4.516,2.651-9.229,5.301-14.138,7.756c-0.982,0.491-1.964,0.982-2.945,1.473
			c-3.142,1.571-6.382,3.043-9.72,4.516c-3.239,1.473-6.676,2.946-10.112,4.32c-0.197,0-0.393,0.098-0.589,0.197
			c-3.043,1.276-6.284,2.454-9.524,3.633c-2.553,0.884-5.203,1.767-7.854,2.651c-2.16,0.687-4.418,1.375-6.676,2.061
			c-4.614,1.375-9.327,2.749-14.039,3.927c-2.062,0.589-4.222,1.08-6.48,1.571c-1.767,0.491-3.633,0.883-5.498,1.276
			c-3.633,0.786-7.265,1.571-10.898,2.16c-0.098,0.098-0.197,0.098-0.294,0.098c-4.32,0.883-8.64,1.571-13.058,2.258
			c-4.615,0.786-9.229,1.375-14.039,1.964c-7.462,0.883-14.923,1.669-22.287,2.16c-8.738,0.786-17.378,1.375-25.919,1.571
			c-5.792,0.294-11.585,0.392-17.279,0.392h-2.16c-5.105,0-10.21-0.098-15.119-0.392c-3.338-0.098-6.382-0.295-9.425-0.589
			c-1.767,0-3.534-0.197-5.301-0.295h-0.589c-2.651-0.196-5.302-0.393-7.952-0.687l-3.829-0.392l-2.553-0.295
			c-1.669-0.196-3.24-0.393-4.909-0.687l-2.062-0.197l-1.472-0.295c-3.927-0.491-7.854-1.178-11.88-1.865h-0.098
			c-3.731-0.687-7.462-1.374-11.094-2.16c-3.043-0.687-6.381-1.571-9.915-2.454l-3.633-0.884l-6.087-1.865
			c-1.276-0.294-2.454-0.687-3.633-1.08l-1.865-0.589c-5.301-1.669-10.112-3.338-15.021-5.301l-1.865-0.687
			c-0.393-0.197-0.687-0.295-1.08-0.491c-0.786-0.295-1.669-0.687-2.749-1.178c-1.964-0.786-3.927-1.669-5.792-2.553
			c-0.197,0-0.295-0.098-0.491-0.197c-0.785-0.392-1.571-0.786-2.356-1.178c-1.669-0.884-3.436-1.669-5.105-2.553
			c-0.393-0.196-0.687-0.392-1.08-0.589c-2.258-1.178-4.418-2.356-6.578-3.633c-2.356-1.276-4.615-2.651-6.873-4.123
			c-2.061-1.276-4.123-2.651-6.087-4.026c-3.633-2.454-7.069-4.909-10.309-7.559c-0.687-0.589-1.473-1.178-2.16-1.767
			c-2.258-1.964-4.418-3.829-6.479-5.793c-1.08-0.982-2.258-1.964-3.24-3.043c-1.08-0.982-2.16-2.062-3.142-3.142
			c-1.178-1.178-2.258-2.454-3.338-3.632c-0.295-0.295-0.589-0.491-0.786-0.786c-2.553-2.847-5.007-5.792-7.265-8.836
			c-1.473-1.865-2.945-3.829-4.222-5.793c-0.197-0.197-0.295-0.294-0.393-0.491c-0.196-0.295-0.491-0.589-0.687-0.982v-0.098
			c-0.982-1.375-1.964-2.749-2.848-4.32c-0.196-0.295-0.392-0.589-0.589-0.884c-1.865-2.945-3.633-5.989-5.203-9.13
			c-0.982-1.669-1.767-3.534-2.651-5.301c-0.197-0.491-0.491-0.884-0.687-1.375c-0.197-0.393-0.392-0.786-0.491-1.178
			c-0.392-0.884-0.786-1.669-1.08-2.454c-0.393-0.786-0.687-1.571-0.982-2.356l-0.098-0.098c-0.294-0.491-0.491-1.08-0.687-1.571
			c-0.098-0.392-0.295-0.687-0.393-1.08l-1.472-3.829c-0.491-1.276-0.884-2.552-1.276-3.828c-0.393-1.375-0.884-2.651-1.276-4.026
			c-0.491-1.375-0.884-2.749-1.178-4.123c-0.786-2.749-1.473-5.498-2.062-8.247c-0.589-2.749-1.178-5.596-1.669-8.443
			c-0.491-2.749-0.884-5.596-1.178-8.541c-0.295-2.847-0.589-5.694-0.786-8.64c-0.197-2.847-0.295-5.792-0.392-8.738
			c-0.491-17.868,1.767-36.522,6.381-55.274c24.938-100.534,197.435-143.339,274.309-157.575
			c76.383,64.798,108.978,134.602,88.458,194.098c-15.119-4.615-29.65-7.854-43.591-9.916
			c-12.469-9.229-25.821-18.654-38.486-26.606c-13.745-8.443-25.232-14.333-35.148-17.868c-5.694-2.062-11.487-3.043-17.378-3.043
			c-23.072,0-43.1,14.923-59.594,44.376c-5.4,9.719-9.915,20.224-13.45,29.65c-8.934,4.712-13.646,8.149-13.646,8.149
			c-22.777-7.56-53.409-42.708-57.14-47.027c16.592,24.25,38.486,45.26,63.03,61.852c7.952,5.4,16.297,10.309,24.741,14.727v0.098
			c62.932,32.89,136.271,37.995,182.709-0.098c7.069-5.792,13.45-12.468,19.047-20.322c4.418-5.989,8.345-12.665,11.781-19.93
			c0.883-1.669,1.571-3.436,2.356-5.203c30.926-73.928-9.229-142.26-76.873-208.824c-4.516-4.418-9.13-8.836-13.843-13.352
			c-39.468-36.817-86.593-73.339-133.816-109.959C55.837,836.054,32.765,630.666,150.186,581.086
			c3.927-1.669,8.05-3.239,12.37-4.516c43.297-13.254,81.292-8.051,115.261,7.265c39.86,17.868,74.026,49.58,104.461,81.487
			c22.385,23.465,42.708,47.027,61.754,65.288c66.957,64.405,136.663,83.156,136.663,83.156
			c-66.368-3.338-110.647-35.737-156.201-76.873l-0.098-0.196c-27.097-24.446-54.587-51.936-87.575-78.444
			c-21.403-17.181-45.063-29.552-68.233-36.228c-0.687-0.295-1.375-0.491-2.062-0.687c-1.276-0.393-2.454-0.687-3.731-0.982
			c-0.392-0.196-0.786-0.294-1.276-0.392c-4.32-1.08-8.738-1.964-13.058-2.553c-1.374-0.197-2.847-0.393-4.32-0.589
			c-1.178-0.197-2.356-0.294-3.534-0.392c-1.767-0.197-3.534-0.295-5.4-0.393c-2.258-0.098-4.516-0.196-6.774-0.196
			c-8.64,0-16.789,0.883-24.544,2.749c-1.571,0.295-3.043,0.687-4.516,1.178c-2.552,0.687-5.007,1.571-7.363,2.454
			c-1.472,0.491-2.847,1.08-4.222,1.767c-2.749,1.178-5.4,2.553-7.952,4.026c-1.276,0.786-2.553,1.571-3.731,2.356
			c-2.552,1.669-4.909,3.436-7.265,5.4c-2.061,1.669-4.025,3.534-5.989,5.498c-0.589,0.589-1.178,1.276-1.767,1.865
			c-0.687,0.786-1.375,1.571-1.964,2.356c-0.982,1.178-1.964,2.356-2.945,3.633c-0.589,0.786-1.178,1.473-1.669,2.258
			c-0.786,1.08-1.571,2.258-2.258,3.436c-0.589,0.982-1.178,1.865-1.767,2.847c-0.786,1.276-1.472,2.651-2.16,3.927
			c-1.964,3.927-3.731,7.952-5.4,12.371c-0.589,1.473-1.08,2.945-1.472,4.516c-0.589,1.767-1.178,3.534-1.571,5.301
			c-0.589,1.767-0.982,3.633-1.374,5.498c-0.884,3.731-1.571,7.56-2.062,11.585c-0.491,3.534-0.884,7.167-1.178,10.898
			c-0.786,10.898-0.589,22.581,0.491,35.05c0.197,2.258,0.491,4.615,0.786,6.873c0.197,1.669,0.491,3.338,0.786,5.007
			c0.491,3.142,1.178,6.284,1.865,9.425l1.472,5.596c0.589,2.16,1.276,4.32,1.964,6.48c0.589,2.16,1.276,4.32,2.16,6.479
			c12.567,33.871,36.326,63.816,66.074,91.797c1.865,1.865,3.731,3.633,5.694,5.301c1.865,1.669,3.829,3.436,5.793,5.105
			c1.964,1.865,3.927,3.534,5.89,5.203c3.731,3.142,7.462,6.284,11.291,9.524c5.4,4.417,10.898,8.737,16.494,13.057
			c2.651,2.062,5.301,4.124,7.952,6.087c18.948,14.432,38.78,28.57,58.907,42.904c11.094,7.854,22.287,15.807,33.381,23.955
			c4.222,3.043,8.345,6.185,12.566,9.228c4.615,3.338,9.13,6.774,13.647,10.211c3.534,2.651,7.069,5.4,10.505,8.051
			c8.051,6.283,16.003,12.665,23.661,19.145c2.946,2.356,5.694,4.811,8.541,7.265c10.309,8.934,20.323,18.163,29.65,27.686
			c1.865,1.865,3.731,3.73,5.4,5.596c2.946,2.946,5.694,5.989,8.345,9.033c3.534,3.927,6.97,7.952,10.309,11.977
			c11.388,14.039,21.108,28.766,29.159,43.984c3.142,6.087,6.087,12.272,8.738,18.457c1.178,3.142,2.454,6.284,3.731,9.425
			c4.712,12.469,8.247,25.134,10.603,37.896C531.018,1207.657,531.018,1207.657,531.116,1207.755z"/>
		<path id="XMLID_227_" class="st1" d="M375.897,1494.729c-30.533,3.437-64.601,4.418-102.302,2.946
			c-49.285-1.964-89.047-9.72-121.249-21.108c-20.814-7.363-38.486-16.298-53.409-26.312c2.062,1.08,4.026,2.061,6.185,3.044
			c2.356,1.08,4.712,2.16,7.069,3.142c1.571,0.687,3.141,1.374,4.712,1.964l0.491,0.196l1.276,0.491
			c5.301,2.062,10.702,4.026,16.69,5.891c2.258,0.687,4.614,1.472,6.97,2.061l5.4,1.669l1.276,0.294
			c0.883,0.197,1.963,0.491,3.141,0.786c3.338,0.884,6.873,1.767,10.211,2.553c4.418,0.981,8.934,1.865,13.155,2.553
			c4.026,0.687,8.247,1.374,12.469,1.963l2.062,0.393h0.785c2.946,0.491,5.989,0.786,9.033,1.178l4.222,0.392
			c2.945,0.295,5.792,0.589,8.738,0.786h1.08c9.621,0.786,19.734,1.178,31.319,1.276h1.964c21.403,0,44.474-1.375,68.822-4.32
			c115.457-13.941,197.632-67.448,231.209-150.605c31.319-77.658,13.45-171.811-46.733-245.739
			c-43.198-52.918-103.283-95.822-161.404-137.252c-86.691-61.754-168.473-119.974-175.64-198.712
			c-3.338-37.209,3.043-65.681,18.261-82.469c13.843-15.022,32.988-18.163,46.733-18.163c9.818,0,20.126,1.473,30.533,4.418
			c-90.225-18.064-107.897,58.612-87.084,125.275c20.715,65.975,193.018,160.717,311.813,269.891
			c53.409,48.991,95.92,100.927,109.075,154.433c0.295,0.982,0.589,1.964,0.786,2.946c1.669,7.462,3.142,14.825,4.418,22.188
			C622.323,1363.269,566.754,1473.915,375.897,1494.729z"/>
		<path id="XMLID_226_" class="st0" d="M1450.453,344.674c-0.491,0.098-1.571,0.196-3.338,0.196c-4.909,0-10.407-0.883-12.076-1.178
			l-23.759-4.909c-21.01-34.46-59.593-89.44-111.53-128.514c0,0,81.782,39.271,153.648,131.853
			C1451.042,343.594,1449.667,344.674,1450.453,344.674z"/>
		<path id="XMLID_225_" class="st0" d="M870.713,1034.078c-29.159,29.453-50.954,67.841-63.128,98.374
			c-1.472,3.828-3.829,8.541-7.068,14.138c-5.498,9.719-13.352,21.108-23.759,34.755l-5.203,6.676
			c-3.927,5.007-7.952,9.916-12.076,14.825c-11.683-0.491-25.723-0.884-40.744-0.687c-2.356,0-4.811,0-7.265,0.098
			c-3.731,0.098-7.56,0.197-11.389,0.393c-3.828,0.098-7.756,0.295-11.683,0.589c-4.025,0.295-8.05,0.589-12.076,0.982
			c-0.786,0.098-1.571,0.098-2.356,0.196c-4.025,0.393-7.952,0.884-11.88,1.375c-4.418,0.589-8.737,1.178-12.96,1.865
			c-8.541,1.473-16.886,3.24-24.74,5.4c-0.982-6.185-2.258-12.174-3.534-17.966c-0.295-1.473-0.687-3.043-1.179-4.713
			c-11.781-47.224-43.787-96.116-97.686-149.23C586.292,1038.006,723.741,1032.41,870.713,1034.078z"/>
		<path id="XMLID_224_" class="st0" d="M618.101,1366.214c0.098-0.098,0.098-0.098,0.098-0.197
			c-0.098,0.393-0.197,0.884-0.197,1.276c-1.669,8.934-3.534,18.065-5.792,27.294c-0.884,3.534-1.767,7.167-2.749,10.701
			c-0.294,0.884-0.491,1.865-0.786,2.749c-1.08,4.025-2.258,8.05-3.534,12.076c-0.294,0.786-0.491,1.571-0.687,2.258
			c-1.374,4.222-2.847,8.345-4.32,12.567c-0.393,1.08-0.785,2.16-1.178,3.24c-1.472,3.829-2.945,7.658-4.516,11.389
			c-4.124,9.719-8.64,19.243-13.745,28.472c-7.068,12.763-14.432,24.25-22.188,34.362c-45.849,60.379-102.596,72.553-166.509,8.345
			c90.323-11.978,156.201-44.966,196.061-97.981C601.018,1405.681,610.934,1386.831,618.101,1366.214z"/>
		<path id="XMLID_223_" class="st1" d="M736.111,1230.042l-0.589,0.687c-7.167,7.854-14.236,15.512-21.01,22.777l-8.149,8.64
			c-9.916,10.309-18.948,19.635-26.41,27.097c-13.843,1.669-29.257,3.043-44.278,3.142c0,0,0.197-4.32-0.491-10.799
			c-0.098-1.375-0.294-2.946-0.589-4.516c-0.197-1.767-0.589-3.534-0.982-5.301c-0.197-0.982-0.393-1.865-0.687-2.848
			c-0.589-2.553-1.473-5.203-2.454-7.854c-0.393-6.676-0.982-13.45-1.767-20.323l3.044-0.883c6.479-1.767,13.941-3.338,21.893-4.713
			c3.927-0.687,7.952-1.178,11.88-1.767c3.731-0.392,7.363-0.883,11.388-1.276c0.884-0.098,1.865-0.098,2.16-0.196
			c3.534-0.295,7.167-0.589,11.388-0.884c3.437-0.294,6.971-0.491,11.094-0.589c3.338-0.197,6.578-0.294,9.916-0.294l1.08-0.098
			c2.062-0.098,4.222-0.098,6.48-0.098h7.756C729.926,1229.943,733.068,1229.943,736.111,1230.042z"/>
		<path id="XMLID_222_" class="st1" d="M729.533,1610.481c0,0,9.524-1.178,23.072-1.178c24.937,0,63.717,3.927,82.567,26.41
			c0,0,25.821-4.615,46.536,29.944c0,0-22.286,0-33.871,4.811c-0.098,0.098-0.098,0.098-0.197,0.098
			c0.294,26.312-34.461,8.148-71.179,6.087c-43.296-2.356-66.172,19.341-105.934-13.156c-33.479-27.49-51.642-99.454-89.047-135.387
			c8.051-10.702,16.003-22.876,23.562-36.62c5.302-9.524,10.211-19.636,15.021-31.123c1.669-3.927,3.24-7.952,5.007-12.665
			l2.258-6.382c1.276-3.436,2.454-6.872,3.633-10.309l0.687-2.454c0.392-1.375,0.884-2.651,1.178-4.025
			C632.828,1424.532,674.287,1482.075,729.533,1610.481z"/>
		<path id="XMLID_221_" class="st0" d="M358.716,1299.06c-15.709,11.291-36.326,17.083-59.791,17.083
			c-26.115,0-55.274-7.265-82.666-20.715c0,0-8.149-4.222-9.524-5.007l0.295-0.883c0.392-1.178,0.786-2.259,1.276-3.437
			c1.08-2.847,2.258-5.498,3.436-8.148c0.687-1.768,1.473-3.535,2.356-5.204c0.687-1.571,1.473-3.142,2.258-4.614
			c0.785-1.571,1.571-3.142,2.454-4.615c1.178-2.062,2.356-4.025,3.534-5.989c3.829-5.989,7.952-11.389,12.567-15.512
			c0.589-0.589,1.178-1.178,1.865-1.669c0.786-0.687,1.669-1.276,2.454-1.865c0.687-0.491,1.473-0.982,2.16-1.375
			c1.964-1.178,4.025-2.061,6.185-2.749c0.687-0.197,1.276-0.393,1.964-0.491c0.589-0.098,1.276-0.196,1.865-0.294
			c0.883-0.098,1.767-0.197,2.65-0.197c2.651,0,5.302,0.491,8.051,1.473c8.541,3.044,18.85,8.542,29.748,15.316
			c3.142,1.964,6.381,4.025,9.621,6.185c2.062,1.375,4.222,2.847,6.284,4.32c0.196,0.098,0.294,0.196,0.491,0.294
			c3.633,2.553,7.363,5.204,11.291,7.952c0.589,0.491,1.178,0.884,1.767,1.276c0.098,0.197,0.294,0.295,0.491,0.393
			c2.258,1.669,4.516,3.239,6.676,4.909c1.865,1.374,3.731,2.749,5.596,4.123C343.105,1286.494,351.548,1293.17,358.716,1299.06z"/>
		<path id="XMLID_220_" class="st0" d="M373.737,1691.771c0.295,8.051-1.767,13.745-1.767,13.745
			c-18.457-22.287-49.383-22.385-49.874-22.385c-9.621-36.62-37.111-39.075-37.111-39.075
			c-13.745-37.995-75.499-25.133-75.499-25.133c72.946-5.498,66.467,28.374,66.467,28.374c24.74,4.123,34.951,37.111,34.951,37.111
			c-19.243-15.512-46.144,0.295-46.144,0.295c-6.382,7.462-7.756,6.676-27.391,0.393c-18.851-5.989-53.9-3.24-81.586-0.687
			c-1.178,0.098-2.356,0.197-3.436,0.295c-26.999,2.553-24.839-7.854-21.795-39.271c-0.098-0.098,0-0.098,0-0.197
			c0.098-1.473,0.294-2.945,0.392-4.516c1.375-15.119,5.596-47.813,9.916-80.113c1.571-12.076,3.24-24.054,4.712-35.05
			c1.08-7.56,2.062-14.727,2.945-21.01c35.148,11.88,75.794,18.752,121.25,20.716c-0.295,3.436-0.687,7.167-0.884,10.898
			c-0.982,14.825-0.883,31.515,2.16,44.966c3.338,14.727,10.309,25.624,23.268,26.312c12.37,0.687,21.304,4.712,27.784,10.21
			c15.316,12.665,16.69,32.889,16.69,32.889C367.257,1661.14,373.442,1679.303,373.737,1691.771z"/>
		<path id="XMLID_219_" class="st1" d="M387.678,1693.244v-1.767c-0.295-13.156-5.694-36.424-36.424-50.856
			c-1.571-6.578-4.811-15.709-11.291-24.25c16.2,0.687,38.486,6.971,43.689,35.442c0,0,27.588,18.556,26.017,48.107
			C409.67,1699.92,403.583,1695.797,387.678,1693.244z"/>
	</g>
</g>
</svg>
