<?xml version="1.0" encoding="utf-8"?>
<!-- Generator: Adobe Illustrator 19.0.0, SVG Export Plug-In . SVG Version: 6.00 Build 0)  -->
<svg version="1.1" id="Layer_1" xmlns="http://www.w3.org/2000/svg" xmlns:xlink="http://www.w3.org/1999/xlink" x="0px" y="0px"
	 viewBox="0 0 2000 2000" style="enable-background:new 0 0 2000 2000;" xml:space="preserve">
<style type="text/css">
	.st0{fill:#3A5B62;}
	.st1{fill:#3A838F;}
</style>
<g id="XMLID_252_">
	<path id="XMLID_273_" class="st0" d="M1951.059,958.478c-7.797,8.679-23.464-6.105-23.464-6.105s0,7.87-9.562,13.902
		c-5.002,3.163-29.422-26.553-53.768-60.241c-0.074-0.074-0.074-0.147-0.074-0.22c-22.14-47.516-32.217-88.265-32.217-88.265
		c-0.956-2.575-1.912-7.282,2.427-10.886c15.594-13.313,36.851-61.785,38.322-96.871c6.105,3.31,12.283,5.59,17.653,7.649
		c3.825,1.398,9.489,3.531,11.328,4.928l14.49,18.609c-2.28,43.691-4.045,103.859,12.283,140.93
		C1951.059,933.248,1958.929,949.798,1951.059,958.478z"/>
	<path id="XMLID_272_" class="st1" d="M1946.499,1410.763c-75.982,101.946-243.98,42-295.983,30.01s-205.952,35.968-289.951,20.007
		c-83.999-16.035-166.012,7.944-275.976,7.944c-23.684,0-45.383-2.869-64.875-7.429c-71.127-16.476-112.906-54.798-112.906-54.798
		c-102.535,7.061-160.128-54.798-160.128-54.798c-203.672-33.688-323.124-181.164-323.124-181.164s-51.929,0-103.932-91.355
		c-52.003-91.281,44.942-108.124,123.645-176.972c78.63-68.847,228.312-36.777,228.312-36.777
		c-33.246-56.931,99.298-41.558,99.298-41.558s198.45-114.304,489.063,28.024c286.126,140.121,413.302,468.173,417.2,478.397
		c-65.831-210.365-210.145-349.677-210.145-349.677s-74.069-74.069-20.007-242.068c54.062-168.071,176.236-215.073,292.599-206.835
		c116.289,8.238,178.443,133.501,178.443,168.292c0,2.721-0.074,5.737-0.22,9.121c-9.268-11.916-38.322-11.842-49.429-30.525
		c-11.033-18.683-28.833-21.257-28.833-21.257s0,19.565,10.151,35.674c10.224,16.182-11.843,83.263-28.834,97.754
		c-15.961,13.461-9.194,32.143-8.238,34.497c-14.343-30.746-110.184-80.468-156.082-90.472
		c-45.971-10.004-90.03,98.048,15.961,241.993C1778.501,1120.812,2022.48,1308.743,1946.499,1410.763z"/>
	<path id="XMLID_271_" class="st0" d="M961.607,1463.943c-34.056,1.03-74.658,1.177-96.356-2.648
		c-41.999-7.429-214.705-10.518-231.77-24.493c-17.138-14.049-91.796-49.796-135.34-43.544
		c-43.544,6.179-152.993-14.049-193.154-43.618c-40.234-29.569-164.688-91.722-186.46-110.405c0,0-68.405-9.341-80.91-57.593
		l70.024,9.341c0,0-17.065-31.113,46.707-9.341c0,0-26.48-37.292,46.633-21.772c73.113,15.594,101.137,40.455,141.592,34.203
		c16.991-2.575,33.982-7.135,48.031-11.622c8.973,4.266,16.623,6.473,22.287,7.65c26.039,29.569,140.783,148.432,323.933,181.091
		c16.476,15.005,69.803,56.71,153.802,56.71c3.016,0,6.105-0.074,9.121-0.147C910.045,1435.845,931.229,1450.85,961.607,1463.943z"
		/>
</g>
</svg>
