<?xml version="1.0" encoding="utf-8"?>
<!-- Generator: Adobe Illustrator 19.0.0, SVG Export Plug-In . SVG Version: 6.00 Build 0)  -->
<svg version="1.1" id="Layer_1" xmlns="http://www.w3.org/2000/svg" xmlns:xlink="http://www.w3.org/1999/xlink" x="0px" y="0px"
	 viewBox="0 0 2000 2000" style="enable-background:new 0 0 2000 2000;" xml:space="preserve">
<style type="text/css">
	.st0{fill:#66915F;}
	.st1{fill:#4D614D;}
</style>
<g id="XMLID_71_">
	<g id="XMLID_72_">
		<path id="XMLID_75_" class="st0" d="M1938.901,630.591c0,0,4.417-25.735-19.11-33.61c0,0-11.235-15.749-40.427-20.166
			c0,0-3.361-29.193-31.401-31.498c0,0-75.094-80.759-158.158-94.204c-82.969-13.444-123.301-96.412-133.479-122.244
			c-10.083-25.832-68.372-65.011-69.524-80.76c-1.056-15.653-4.321-31.785-18.533-23.623c0,0-3.073,16.133,1.92,36.394
			c-1.152-1.728-10.563-16.229-17.669-33.322c-7.682-18.341-25.448-10.179-33.61,10.179c-8.067,20.262-12.676,29.481-23.911,34.571
			c-11.14,5.089-15.173,47.726-36.01,79.799c-20.839,31.978-15.557,69.044-86.425,92.091
			c-70.869,23.047-77.687,22.183-101.694,24.775c-23.911,2.593-52.912,5.09-68.276,17.093c-15.364,11.907-54.64-1.728-74.326,31.593
			c-19.59,33.322-64.051,19.59-75.094,39.276c-11.14,19.59-4.321,46.093-38.411,44.365c-34.186-1.633-46.19,37.643-66.644,41.004
			c-20.55,3.458-71.733,37.643-93.916,39.276c-22.278,1.728-28.232,18.822-54.736,18.822c-26.408,0-30.729,29.865-72.502,37.547
			c-41.868,7.682-59.825,12.004-86.329,29.961c-26.408,17.861-48.686,3.361-61.458,31.593
			c-12.772,28.137-15.173,16.421-24.007,32.266c-8.931,15.748-43.885,14.98-53.488,43.789c-9.603,28.808-6.818,24.679-23.911,36.298
			c-17.189,11.62-41.1,20.55-41.869,40.428c-0.672,19.878-19.782,47.918-38.315,64.435
			c-18.533,16.42-71.253,109.568-104.863,132.903c-33.514,23.239-149.708,107.744-160.56,168.722
			c-10.851,60.882-2.496,89.306,32.554,153.549c35.051,64.339,113.505,168.338,222.498,183.51
			c108.992,15.173,245.544,36.011,282.515,61.651c36.971,25.639,70.101,14.212,55.888-36.971c0,0,20.934,9.315,20.454,24.007
			c0,0,66.547-5.569,73.557,3.073c7.01,8.643,16.805,13.924,22.663,5.762c5.666-8.163,16.517-33.898,0.192-48.59
			c3.649,2.401,19.59,14.692,16.229,40.716c0,0,178.708-1.633,188.215,6.145c9.507,7.874,12.388,14.5,25.928,14.5
			c13.636,0,26.408-15.653-10.275-34.666c-36.683-18.917-34.57-18.533-59.729-18.533c-25.063,0-244.104-23.047-379.792-78.935
			c-135.688-55.888-318.334-228.259-401.11-275.697c3.073,1.056,42.829,14.884,59.153,28.52c0,0-0.96-31.881,12.196-47.053
			c-1.345,2.977-19.686,43.693,7.682,66.451c28.425,23.719,226.627,176.02,282.035,201.083
			c55.312,25.159,228.739,84.985,243.912,65.011c15.268-19.878-53.199-292.982-370.861-420.988c0,0,149.9,28.232,263.982,164.689
			c114.082,136.36,115.426,241.223,136.36,255.723c21.03,14.404,184.662,47.15,253.899,25.351
			c69.332-21.798,116.386-50.606,116.386-50.606s-72.886-65.684-112.642-140.778c4.034,5.57,70.389,95.74,149.228,141.162
			c0,0-87.578,30.057-98.141,67.22c-10.659,37.163,296.824,31.113,394.388,15.94c93.916-14.596,224.418-29.288,259.085-29.288
			c34.762,0,63.282-11.619,37.835-22.374c-25.448-10.851-90.267,6.145-152.781-3.073c0,0,111.873-2.305,149.708-15.461
			c37.835-13.156,29.385-26.215,9.314-37.067c-20.07-10.755-152.301,43.885-280.307,4.225
			c-32.073-9.987-45.613-50.031-71.061-98.813l-0.096-0.096c-10.371-19.878-22.375-42.253-37.355-66.836
			c-31.113-51.279-75.574-112.353-146.827-181.397c4.321,3.072,74.998,55.024,163.632,169.297c0,0,93.627-111.393,125.029-133.383
			c8.258-5.762,17.189-11.427,26.119-17.286h0.096c25.063-16.516,49.935-34.858,56.849-62.61c0,0,261.773-54.832,257.068-227.299
			c0,0,62.802-76.151,69.524-96.317c6.722-20.262,61.746-85.273,34.762-139.145C1960.123,732.669,1994.981,675.436,1938.901,630.591
			z M1560.742,463.597c-9.891,15.557-30.153,34.666-69.909,37.643c-4.129,0.288-8.066,0.384-12.004,0.384
			c-70.1,0-106.111-47.534-109.953-91.803c-2.016-23.815,4.034-69.044,29.001-96.22c12.772-13.924,29.001-21.222,47.054-21.222
			c2.112,0,4.225,0.096,6.434,0.288c63.282,5.761,96.797,28.425,115.618,78.263C1576.01,394.937,1579.851,433.637,1560.742,463.597z
			"/>
		<path id="XMLID_67_" class="st1" d="M1450.082,306.182c63.802,5.843,88.818,28.874,104.154,69.514s8.435,106.584-64.41,111.951
			c-72.845,5.368-104.284-42.94-107.351-78.979S1396.603,301.285,1450.082,306.182z"/>
		<path id="XMLID_66_" class="st1" d="M1881.86,1453.264c-3.073,10.755-85.562,18.437-117.155,13.828
			c-29.673-4.321-76.919-20.934-82.585-22.855c5.186,2.785,44.077,22.951,85.658,33.61c44.749,11.62,69.332,7.778,51.663,31.594
			c-17.766,23.911-91.708,10.083-147.115-7.683c-55.505-17.765-139.529,0-139.529,0c-5.378-22.374,11.62-36.202,11.62-36.202
			c-15.46,4.609-16.997,13.06-21.606,36.107c-4.61,23.046-49.263,36.298-63.955,13.924c-2.208-3.265-4.705-6.241-7.586-8.834
			c-0.768-1.536-1.632-3.169-2.401-4.802c-4.129-8.547-8.547-17.477-13.444-26.792l-2.016-3.841
			c-6.722-12.868-14.5-27.464-23.527-43.117l1.632-2.017c35.338-41.964,99.101-114.082,119.748-128.581
			c5.858-4.034,12.1-8.067,18.341-12.1l0.288-0.288h0.192l5.09-3.265c7.971,15.46,17.861,36.01,23.911,54.928
			c11.523,36.203,48.494,57.809,97.853,79.319c49.263,21.606,114.754,16.229,164.88,10.851
			C1891.847,1421.671,1884.932,1442.413,1881.86,1453.264z"/>
	</g>
</g>
</svg>
