<?xml version="1.0" encoding="utf-8"?>
<!-- Generator: Adobe Illustrator 19.0.0, SVG Export Plug-In . SVG Version: 6.00 Build 0)  -->
<svg version="1.1" id="Layer_1" xmlns="http://www.w3.org/2000/svg" xmlns:xlink="http://www.w3.org/1999/xlink" x="0px" y="0px"
	 viewBox="0 0 2000 2000" style="enable-background:new 0 0 2000 2000;" xml:space="preserve">
<style type="text/css">
	.st0{fill:#5F7491;}
	.st1{fill:none;}
	.st2{fill:#4E5261;}
</style>
<g id="XMLID_93_">
	<g id="XMLID_94_">
		<path id="XMLID_271_" class="st0" d="M1496.257,1419.515c-9.45,10.686-14.748,48.485-17.133,88.756
			c-2.385,40.183-11.834,65.087-40.183,92.817c-28.437,27.819-31.351,59.788-31.351,59.788c-2.738-10.862-0.442-18.722-0.088-19.959
			c-11.834,22.078-32.588,87.342-57.315,51.31c-24.905-36.12-13.601-110.038-10.686-119.488c3.003-9.45,22.52-10.068,27.201-11.216
			c4.769-1.237,7.683-27.201,33.736-35.502c26.052-8.301,18.369-69.856,26.052-106.506c7.684-36.65-31.351-85.752-69.238-107.036
			c-37.886-21.283-66.854-52.635-66.854-52.635c-10.598,1.148-26.582-7.772-26.582-7.772c-8.302,5.387-26.317,6.977-26.317,6.977
			c0.53,68.973-40.448,123.639-34.796,184.664c5.564,61.025-20.224,81.16-19.782,139.359c0.53,56.344,24.728,116.751,26.229,120.46
			c-3.268-4.593-6.977-8.302-6.977-8.302c2.385,22.961,27.201,44.157,27.201,44.157c-9.803-4.769-13.071-7.506-13.071-7.506
			c4.151,19.694,42.214,48.749,43.186,67.56c0.883,18.722-110.833,22.52-131.411,11.216c-20.665-11.216-12.717-93.348-12.717-93.348
			c-4.239,8.478-11.216,6.535-11.216,6.535c15.455-43.627,16.691-178.04,8.831-203.033c-7.859-25.081,8.655-61.555,4.328-89.373
			c-4.328-27.907,5.033-77.893-8.567-112.247s-19.517-103.857-19.517-103.857c-10.067,37.71,2.385,77.363,2.385,77.363
			c-61.201,37.798-201.002-2.914-233.413-19.517c-32.323-16.515-77.893-25.876-77.893-25.876
			c-12.893-170.092-109.774-220.519-115.867-223.433c5.475,4.239,93.348,72.859,98.558,185.37
			c5.299,116.221,17.309,118.87-9.362,177.599c-26.759,58.728-12.01,93.435,27.996,121.519
			c40.094,27.996,108.714,56.256,122.579,86.459c13.953,30.203,26.406,44.157,46.541,47.248c0,0-4.68,8.567-23.227,5.475
			c0,0,36.386,42.567,41.773,65.794c5.387,23.226-16.25,21.725-53.43,17.839c-37.18-3.886-76.657-11.657-75.155-34.089
			c1.59-22.432,0-35.679-3.797-47.248c0,0-12.364,8.478-19.783,8.478c0,0,6.536-10.775,3.444-22.432
			c0,0-43.362-53.43-120.018-85.134c-76.656-31.793-75.862-32.588-67.383-57.315c5.652-16.338,30.203-66.853,25.169-115.161
			c-2.649-25.081-13.335-49.632-38.858-68.531c-66.766-49.279-208.685-165.146-203.916-270.681v-0.088
			c0.618-12.453,3.179-24.728,8.213-36.739c0,0,0-0.088,0.088-0.353c16.78-39.918,32.765-72.152,50.869-96.438
			c0.088,0,0.088-0.088,0.088-0.088v-0.088c33.471-44.863,74.095-62.702,139.27-52.9c100.589,15.102,188.196,85.753,295.497,78.157
			c107.213-7.506,139.271-62.968,179.718-73.389c0,0,1.943-30.38,7.772-50.074c0,0-13.159-22.608-14.571-35.06
			c0,0-59.082-50.692-78.069-106.948c24.375,4.946,44.422,9.185,54.843,11.657c14.483,3.444,34,5.741,48.661,5.741
			c9.273,0,37.621,0,44.068-23.492c0.441-1.501,0.795-3.002,1.06-4.327c3.179-2.826,6.005-6.358,8.302-10.509
			c2.296-0.265,4.416-0.618,6.358-0.971l122.226,139.271c-1.325,16.161-2.385,33.824-0.795,46.894
			c2.914,24.463,13.865,49.367,31.175,73.3c17.221,23.933,11.481,116.397,11.481,116.397c31.351,28.437,10.686,92.906,10.686,92.906
			c12.364,17.133,11.834,50.25,11.834,50.25c33.118,17.221,60.318,77.539,69.768,95.82c9.45,18.369,47.954,77.54,72.152,96.438
			C1520.543,1373.415,1505.706,1408.917,1496.257,1419.515z"/>
		<path id="XMLID_270_" class="st0" d="M1338.97,597.933c-9.45,17.044-9.626,57.757-12.187,68.178
			c-2.826,11.128-24.198,18.105-24.198,18.105c3.444,26.141-8.125,43.539-9.891,59.523l-106.241-120.99l69.15-3.621l22.344-18.811
			C1296.403,599.611,1316.892,598.816,1338.97,597.933z"/>
		<path id="XMLID_269_" class="st0" d="M1863.2,640.324c-0.089,0.265-0.176,0.53-0.265,0.707c0.088-0.265,0.176-0.441,0.176-0.707
			H1863.2z"/>
		<path id="XMLID_268_" class="st0" d="M1432.848,536.026c-57.757,1.855-111.805,3.533-157.11,5.034l-26.671-18.193l-28.879,1.678
			l26.759-27.289c5.122,1.325,9.626,1.943,9.626,1.943c109.686,0.971,70.563,30.026,131.411,31.44
			C1402.909,530.992,1418.099,533.111,1432.848,536.026z"/>
		<path id="XMLID_114_" class="st0" d="M1259.474,369.466c0.441-7.153,8.655-5.387,7.595-11.216
			c-1.06-5.828-9.891-31.881-9.891-31.881s13.512,18.281,37.975,4.416c-2.208,0.353-16.073,2.385-11.922-13.335
			c4.416-17.133,21.283-34.354-26.141-54.843c-47.513-20.4-85.399-24.816-133.089-1.943c0,0-56.697,22.697-63.851,52.723
			c-7.153,30.027-17.928,48.926-32.235,55.814c-14.218,6.8-1.236,39.476-4.857,49.279c-3.621,9.803-15.101,46.365-29.585,53.253
			c0,0,6.535,2.384,11.657-0.354c0,0,4.151,19.341-8.92,27.289c-13.159,7.948-18.281,11.745-27.642,10.686
			c-7.33-0.883-43.627-21.813-82.308-19.694c11.304,10.509,26.053,25.876,34.884,41.331c34.442,11.039,84.692,25.523,106.418,27.642
			c14.13-15.19,35.149-24.551,57.139-24.816c9.362,0,17.398,2.119,24.022,5.122c6.712,3.091,12.01,7.065,16.073,10.774
			c11.128,0.972,20.753,2.032,28.879,3.268l103.68-105.711c-3.797-4.327-7.419-6.889-7.419-6.889s7.065-4.327,8.39-13.423
			l9.714-6.712l-0.971-15.102c0,0,15.278-3.886,13.512-9.979C1278.815,389.072,1258.944,376.531,1259.474,369.466z M1244.549,374.5
			c-7.772-2.915-11.481-11.834-11.481-11.834l13.247,1.413C1247.728,371.851,1244.549,374.5,1244.549,374.5z"/>
		<path id="XMLID_265_" class="st1" d="M1295.432,330.697c-0.088,0.088-0.177,0.088-0.265,0.088"/>
		<line id="XMLID_264_" class="st1" x1="1407.59" y1="1640.741" x2="1407.502" y2="1640.917"/>
		<path id="XMLID_263_" class="st1" d="M1209.238,1703.708c0,0,0-0.088-0.088-0.177"/>
		<line id="XMLID_262_" class="st1" x1="664.431" y1="1023.87" x2="664.166" y2="1023.693"/>
		<path id="XMLID_261_" class="st2" d="M627.516,1434.175c0,0,0,0,0,0.088c-47.336,60.053-125.052,99.353-145.276,116.486
			c-25.876,22.078-16.515,125.759-5.475,162.144c11.039,36.385,47.424,70.563,47.424,70.563
			c-12.187-3.886-18.193-7.772-18.193-7.772s13.777,19.87,28.084,41.331c14.395,21.46-24.816,23.227-59.523,23.756
			c-34.707,0.53-65.087-11.039-65.087-29.762s-14.13-108.537-14.13-108.537c-5.475,8.566-11.746,10.068-11.746,10.068
			c18.987-47.955-4.769-136.71-7.153-154.726c-2.385-17.928,31.087-47.778,65.794-99.176
			c34.707-51.399,82.485-72.947,14.307-211.688c-21.725-44.157-33.736-81.249-40.006-111.363
			c39.653,73.477,118.34,142.715,188.02,194.29c17.133,12.629,26.582,29.409,28.878,50.957
			C635.287,1398.673,632.196,1417.395,627.516,1434.175z"/>
		<path id="XMLID_260_" class="st0" d="M428.722,932.112c-7.86,15.013-16.073,32.323-24.816,52.635
			c-21.019,15.366-43.98,51.046-27.554,119.665c18.104,76.215,3.886,104.652-18.458,129.998
			c-22.343,25.434-55.814,77.186-13.159,108.714c0,0-36.561,0.971-54.842-33.559c0,0-51.664,59.258-109.421,59.258
			c-32.765,0-53.341-20.93-64.469-44.422c-8.567-17.839-11.657-37.092-10.598-49.721c2.385-29.232,3.179-51.399-18.193-69.591
			c-21.372-18.193-37.18-63.233-13.424-83.015c8.92-7.418,11.393-18.193,9.185-26.759c-3.621-14.307-20.489-22.52-43.185,0.618
			c0,0,8.655-77.451,60.848-49.014c2.384,1.325,4.504,2.738,6.447,4.151c39.653,30.91-20.312,98.381,35.502,139.801
			c58.464,43.539,85.399,15.543,85.399-17.486c0-33.118,17.398-113.748,44.951-134.325c-3.002,1.148-57.227,21.902-41.066-36.827
			c0,0-1.502,54.225,41.154,11.481c42.744-42.656,34.177-61.643,103.327-69.591C397.371,941.738,414.68,937.234,428.722,932.112z"/>
		<path id="XMLID_259_" class="st2" d="M86.154,1316.453c-26.582-9.979-60.937-31.704-58.287-76.745
			c1.06-17.927,6.536-38.063,14.484-58.993c5.917,16.868,16.073,32.765,28.614,43.45c10.951,9.273,11.923,19.164,9.538,48.396
			C79.353,1285.72,81.473,1301.352,86.154,1316.453z"/>
		<path id="XMLID_258_" class="st2" d="M146.03,1074.385c-1.943-15.632-8.213-31.087-24.198-43.539
			c-1.06-0.795-2.208-1.502-3.268-2.208c2.915-6.006,5.299-11.393,6.889-15.985c14.837-42.391-27.378-32.588-43.097-13.512
			c1.06-2.738,23.05-53.165,65.705-33.913C170.051,975.121,158.129,1024.135,146.03,1074.385z"/>
		<path id="XMLID_257_" class="st0" d="M1172.234,602.172c0,0,3.444,10.068,0,13.512c-3.533,3.532-30.821,5.21-30.821,5.21
			c0.883,16.868-11.922,18.546-11.922,18.546s0.706,4.504-1.59,12.893c-2.296,8.302-41.419,5.122-62.791,0
			c-14.925-3.532-46.276-9.979-76.833-15.985c-13.335-2.649-26.494-5.21-38.152-7.33c-37.975-7.153-25.964,5.564-106.859,13.6
			c-80.895,8.125-95.644-77.893-106.683-95.555s28.702-23.58,57.404-45.658c28.702-22.078,62.173-4.857,62.173-4.857l0.088,0.088
			c2.384,1.943,40.094,33.294,46.895,54.755c0,0,129.379,43.097,138.21,30.027c8.743-13.159,25.787-22.344,43.715-22.608
			c18.016-0.265,27.907,15.013,27.907,15.013s49.015,3.886,58.287,8.213C1180.447,586.453,1172.234,602.172,1172.234,602.172z"/>
		
			<rect id="XMLID_256_" x="1351.875" y="77.663" transform="matrix(0.714 0.7002 -0.7002 0.714 645.6275 -841.7853)" class="st0" width="2.5" height="583.332"/>
		<g id="XMLID_102_">
			
				<rect id="XMLID_255_" x="1055.425" y="857.418" transform="matrix(0.6596 0.7516 -0.7516 0.6596 1113.4141 -741.3381)" class="st0" width="639.609" height="2.5"/>
		</g>
		<path id="XMLID_254_" class="st0" d="M1932.791,590.603c-13.954,17.928-41.949-1.413-41.949-1.413
			c-2.12,2.208-6.447,5.034-10.509,7.418c-4.857,2.914-9.184,5.211-9.184,5.211c-0.088,1.237-0.088,2.561-0.265,3.974
			c-0.353,3.974-0.971,8.213-1.854,12.452c-0.972,4.769-2.12,9.538-3.356,13.688c-0.354,1.148-0.618,2.296-0.971,3.356
			c-0.53,1.855-1.06,3.533-1.502,5.034h-0.089c0,0.265-0.088,0.441-0.176,0.707c-1.325,4.239-2.296,6.888-2.296,6.888
			c2.738,28.349-18.899,36.739-18.899,36.739s-41.596-25.17-102.885-9.273c-61.29,15.808-165.058,2.296-180.337-5.564
			c-15.366-7.948-44.157-23.668-64.557-18.105c-20.489,5.564-70.121-7.418-93.789-9.273c-23.756-1.854-61.378-26.494-61.378-26.494
			c-1.236-5.74,0.354-13.6,1.502-18.016c106.241-4.151,247.543-9.714,370.21-14.748c42.479,5.387,88.667,10.244,106.065,10.774
			c5.299,0.177,9.803-0.265,13.689-1.237c1.148-0.265,2.296-0.53,3.356-0.971c0.707-0.177,1.413-0.441,2.031-0.707
			c8.037-3.179,12.54-8.566,15.543-13.865c2.031-3.356,3.444-6.624,4.769-9.185c4.681-9.008,21.902-2.826,34.531-7.86
			c12.54-5.033,20.047,4.239,21.46,9.979c0.53,1.943,3.091,5.034,6.27,8.125c0.265,0.176,0.53,0.441,0.795,0.706
			C1925.108,584.686,1932.791,590.603,1932.791,590.603z"/>
		<path id="XMLID_253_" class="st2" d="M1871.148,481.625l28.702,40.889c-13.601,0.353-28.79,0.706-45.305,1.148
			c12.806-38.151,20.577-128.761-24.551-166.471c-51.486-43.009-219.106-119.665-242.862-149.25
			c-23.756-29.585-41.684-56.873-34.972-68.973c6.712-12.099,15.19,9.803,19.694,22.167c4.504,12.364,71.269,73.3,182.898,114.543
			c111.54,41.242,150.575,98.999,161.791,157.287c6.8,35.502,8.655,57.492,12.629,71.004L1871.148,481.625z"/>
		<path id="XMLID_252_" class="st2" d="M1946.303,754.16c-7.153,17.574-15.455,39.564-16.515,78.069
			c-1.06,38.417-48.131,121.785-152.606,161.349c-104.387,39.653-160.289,81.337-174.949,105.446
			c-14.748,24.109-12.894,34.177-20.135,25.523c-7.242-8.743-4.328-37.798,29.408-62.173
			c33.647-24.374,242.774-118.517,256.728-184.752c13.954-66.235,1.766-95.82-19.782-115.602
			c-15.19-14.042-27.554-26.053-22.608-46.718l24.993-7.33c12.805-4.946,35.502-22.873,35.06-56.168l1.325-4.416l0.883-2.738v-0.353
			l1.59-5.211c1.325-4.592,2.738-10.156,3.797-15.72c0.088-0.265,0.088-0.441,0.177-0.707l4.239-2.472
			c1.325,0.441,2.65,0.794,3.974,1.148c0.441,2.738,1.06,5.299,1.943,7.683c-1.236,7.418-0.088,14.837,2.738,21.46
			c-0.795,6.447,0.353,12.893,2.738,18.811c-0.795,12.805,5.122,24.639,16.515,31.44c5.74,3.356,12.276,5.034,19.517,5.034
			c1.678,0,3.444-0.088,5.299-0.265C1972.797,733.406,1953.28,736.762,1946.303,754.16z"/>
		<path id="XMLID_251_" class="st0" d="M1957.166,661.254c0,0,9.891,15.632-6.094,18.811c-5.917,1.237-9.979,0.618-12.717-0.971
			c-4.592-2.738-5.034-8.567-2.649-13.954v-0.088c0,0-8.743-9.626-1.413-17.751c0,0-11.215-9.626-2.914-20.665
			c0,0-16.25-14.307,9.714-33.471c0,0,17.133,3.709,12.011,22.52c0,0,13.159,8.036,5.652,26.847
			C1958.755,642.532,1964.142,648.714,1957.166,661.254z"/>
		<path id="XMLID_250_" class="st2" d="M1974.917,545.917l-19.782-8.743l-44.245-19.518l23.75,29.086
			c-123.374,2.826-482.451,13.569-666.232,19.575h-0.088l-35.678,1.148c-6.712,0.177-13.071,0.353-19.076,0.618l-8.655,0.265
			c-2.385,0.088-4.769,0.176-6.977,0.176c-1.502,0.088-3.003,0.177-4.416,0.177c2.296,2.826,4.062,6.094,5.21,9.626
			c0.442-0.088,0.971-0.088,1.413-0.088l32.852-1.237c5.122-0.265,10.421-0.441,15.896-0.618
			c177.422-6.8,559.025-21.637,685.844-28.084l-16.515,29.938l-0.883,1.678l1.678-0.972l36.032-21.283L1974.917,545.917z"/>
		<polygon id="XMLID_249_" class="st2" points="1268.403,566.327 1242.003,548.353 1180.708,551.939 1198.001,568.617 		"/>
		<path id="XMLID_248_" class="st2" d="M1268.408,575.678l-22.52,18.899l-45.746,2.385c0.795-5.299,0.883-11.304-0.972-17.31
			l0.972-1.413l32.852-1.237l15.896-0.618l16.338-0.618L1268.408,575.678z"/>
	</g>
</g>
</svg>
