<?xml version="1.0" encoding="utf-8"?>
<!-- Generator: Adobe Illustrator 19.0.0, SVG Export Plug-In . SVG Version: 6.00 Build 0)  -->
<svg version="1.1" id="Layer_1" xmlns="http://www.w3.org/2000/svg" xmlns:xlink="http://www.w3.org/1999/xlink" x="0px" y="0px"
	 viewBox="0 0 2000 2000" style="enable-background:new 0 0 2000 2000;" xml:space="preserve">
<style type="text/css">
	.st0{fill:#96955A;}
	.st1{fill:none;stroke:#8963AA;stroke-width:0.2835;stroke-miterlimit:10;}
	.st2{fill:#66653C;}
</style>
<g id="XMLID_258_">
	<path id="XMLID_264_" class="st0" d="M1571.265,596.603c0.849,0.254,1.528,0.424,2.037,0.509
		C1572.878,596.942,1572.115,596.857,1571.265,596.603z M1937.074,793.727c-27.676,1.952-84.13-53.398-98.222-82.347
		c-14.177-29.034-21.224-40.749-134.132-119.191c-44.824-31.156-99.835-34.891-153.403-26.742
		c19.78,12.055,30.647,22.752,31.241,23.261l29.543,29.204l-40.579-8.914c-0.509-0.085-38.287-8.319-65.369-13.073l0.085,0.254
		l-15.79,3.65c-1.274,0.34-2.632,0.679-4.075,1.019l-7.301,10.442c-1.104,1.613-2.207,3.226-3.226,4.924h9.932l-7.301,16.809
		c-1.189,2.886-2.377,6.282-3.311,9.508c2.207,0.934,4.245,2.292,6.367,4.075c1.953,1.189,12.31,3.141,28.185,3.141l22.242-0.339
		l-9.677,18.082c-0.679,1.358-17.743,32.345-49.069,32.345c-16.979,0-34.128-9.169-50.851-27.251
		c-16.13-17.403-24.025-38.457-22.582-60.02c-17.658,7.471-32.429,14.008-43.126,18.082
		c-57.983,21.903-123.691,13.923-192.709,26.996c-68.934,12.989-168.599-28.609-226.327-56.879
		c-57.728-28.185-220.215-61.039-220.215-61.039c15.45,7.386,20.12,23.431,20.12,23.431
		c-143.725-32.175-223.611,8.065-223.611,8.065c14.093,3.396,24.534,18.337,24.534,18.337
		c-95.081,14.856-163.591,71.141-163.591,71.141c9.678-3.905,38.117,6.452,38.117,6.452
		c-123.436,62.057-190.757,173.268-190.757,173.268c12.31-7.046,25.044-4.924,25.044-4.924
		c-43.551,67.746-72.5,181.673-72.5,181.673c15.196-33.788,61.463-79.376,61.463-79.376c0.425,4.16,0.679,10.357,0.849,17.998
		c1.189,47.965-0.849,151.875-0.849,151.875c6.198-4.839,13.159-12.394,13.159-12.394c3.48,41.003,2.037,87.95,0.934,111.805v0.085
		c-0.509,9.848-0.934,15.79-0.934,15.79c9.423-8.914,15.451-15.366,15.451-15.366c7.555,34.637,0.594,73.009,0.084,76.15
		c4.924-5.008,9.763-18.167,9.763-18.167c0.509,23.346-4.415,39.221-4.415,39.221c4.924,0,13.413-8.489,13.413-8.489
		c-13.413,70.462,133.878,187.446,155.271,198.312c21.308,10.867,72.415-2.802,112.654,10.867
		c40.24,13.668,63.586,6.451,63.586,6.451c13.243,0,29.374,11.715,29.374,11.715c-0.849-11.715-13.668-28.015-13.668-28.015
		c-4.839-23.855-33.024-44.484-33.024-44.484c28.185,12.14,37.862,37.863,37.862,37.863c7.641-0.425,30.902,6.621,30.902,6.621
		c-3.565-12.989-16.469-27.591-16.469-27.591c-1.188-10.442-19.016-24.28-42.616-45.927c-23.516-21.733-68.34-18.083-95.846-17.319
		c-27.506,0.679-62.312-57.982-62.312-63.076c0-5.008,39.9-57.133,62.652-56.115c11.97,0.509,54.756-2.717,92.704-5.943
		c34.467-2.886,65.029-5.773,65.029-5.773c-1.952,9.593-26.147,21.224-26.147,21.224c27.081,0.934,145.848-19.356,145.848-19.356
		c-4.5,9.083-30.222,18.931-33.448,20.204l-0.34,0.085c52.125,3.905,160.025-20.205,160.025-20.205
		c-5.009,4.415-20.12,14.432-20.12,14.432c23.261,0.679,48.05-5.263,96.1-30.986c48.05-25.723,119.785-12.819,137.188,5.009
		c17.318,17.828,25.807,19.271,25.807,19.271c-1.867-4.754,0-11.291,0-11.291c15.026,19.271,32.345,25.808,32.345,25.808
		c-4.669-4.245-7.64-17.828-7.64-17.828c51.106,2.717,102.552,84.724,104.42,121.908c1.868,37.184,29.883,39.646,29.883,39.646
		c3.226,12.734-1.528,35.571-1.528,35.571c25.128-16.554,27.845-32.175,27.845-32.175c7.81-9.338,6.792-32.005,6.792-32.005
		c6.537,13.159-2.462,32.939-2.462,32.939c0,3.651-2.292,7.471-2.292,7.471c0.764,4.33,5.858,4.415,5.858,4.415
		c5.858,13.413,1.359,37.608,1.359,37.608c24.28-21.139,27.336-41.428,27.336-41.428c6.961-11.121,4.415-27.845,4.415-27.845
		c6.282,15.96-0.849,29.798-0.849,29.798c0,8.404-2.547,9.677-2.547,9.677c4.245,8.404,1.274,25.129,1.274,25.129
		c15.111-7.895,13.498-38.882,13.498-38.882c3.141-5.603,13.498-31.75,5.518-57.983c-2.462-8.404-4.839-21.138-7.301-36.759
		c-5.094-33.024-10.442-78.697-17.997-122.333c-10.782-62.227-95.336-89.224-100.6-90.836
		c99.411,20.289,109.598,81.413,109.598,81.413c35.061-24.11,76.15-89.648,76.15-89.648c0,5.688-1.528,13.668-1.782,15.111
		c2.037-3.311,27.845-45.843,39.815-86.677c3.396-11.291,5.603-22.497,6.027-32.684c2.037-48.475,52.719-76.659,82.347-95.081
		c29.628-18.507,93.468-11.206,132.944-17.149c39.561-5.943,115.201,3.311,138.971,3.905c23.686,0.679,36.844-20.375,36.844-20.375
		c18.422-1.952,33.533-23.685,33.533-23.685c21.733-7.216,32.26-14.517,37.608-30.307c5.263-15.79-2.037-12.48,7.216-23.686
		C1980.455,814.101,1964.664,791.689,1937.074,793.727z M1706.247,747.544c-9.678-6.876,2.802-35.061,11.8-26.063
		c8.999,8.914,22.072,15.366,22.072,15.366S1716.01,754.505,1706.247,747.544z M1943.611,838.126
		c-8.32,15.281-20.884-1.188-24.535-8.744c0,0,10.442-2.887,15.026-6.537C1938.687,819.195,1951.845,822.845,1943.611,838.126z"/>
	<path id="XMLID_252_" class="st1" d="M1573.92,597.197c-0.169,0-0.339,0-0.594-0.084c-0.509-0.085-1.188-0.255-2.037-0.509
		c-0.594-0.085-1.358-0.255-2.207-0.425c-0.934-0.169-1.952-0.424-3.141-0.679c-1.443-0.255-3.056-0.594-4.754-1.019
		c-1.782-0.34-3.65-0.764-5.603-1.189c-3.99-0.764-8.319-1.698-12.989-2.632c-2.292-0.424-4.669-0.934-7.046-1.444
		c-1.189-0.169-2.377-0.424-3.65-0.679c-1.868-0.34-3.82-0.764-5.688-1.104c-0.509-0.085-1.104-0.17-1.613-0.34
		c-1.188-0.254-2.377-0.509-3.565-0.679c-2.037-0.34-4.075-0.764-6.028-1.104c-2.462-0.424-4.839-0.849-7.131-1.274
		c-1.189-0.169-2.377-0.424-3.481-0.594c-3.396-0.594-6.536-1.019-9.423-1.443c-0.934-0.17-1.867-0.339-2.802-0.424
		c-0.679-0.085-1.358-0.17-1.952-0.255c-1.867-0.254-3.565-0.424-5.009-0.509c-1.104,0.34-2.207,0.594-3.226,0.934
		c1.528,1.358,4.499,4.16,5.773,6.367c0,0-25.638,5.857-34.043,16.045c0,0,12.734-0.764,15.536,0.255
		c0,0-13.753,19.61-14.008,29.967c0,0,7.386-6.112,12.225-6.112c0,0-7.641,17.573-5.603,27.251c0,0,4.075-6.367,11.885,0.255
		c7.895,6.622,37.948,6.028,37.948,6.028s-30.392,56.624-80.48,2.632c-16.894-18.252-21.733-38.712-18.761-57.134
		c5.858-36.334,42.022-65.199,77.338-55.435c16.469,4.584,30.817,10.612,42.786,16.894c15.706,8.15,27.251,16.554,34.128,22.157
		c1.189,0.934,2.292,1.868,3.141,2.547c0.679,0.594,1.274,1.104,1.783,1.613c0.594,0.509,1.104,0.934,1.443,1.359
		C1573.496,596.687,1573.75,596.942,1573.92,597.197z"/>
	<path id="XMLID_251_" class="st2" d="M1573.92,597.197c-0.169,0-0.339,0-0.594-0.084c-0.509-0.085-1.188-0.255-2.037-0.509
		c-0.594-0.085-1.358-0.255-2.207-0.425c-0.934-0.169-1.952-0.424-3.141-0.679c-1.443-0.255-3.056-0.594-4.754-1.019
		c-1.782-0.34-3.65-0.764-5.603-1.189c-3.99-0.764-8.319-1.698-12.989-2.632c-2.292-0.424-4.669-0.934-7.046-1.444
		c-1.189-0.169-2.377-0.424-3.65-0.679c-1.868-0.34-3.82-0.764-5.688-1.104c-0.509-0.085-1.104-0.17-1.613-0.34
		c-1.188-0.254-2.377-0.509-3.565-0.679c-2.037-0.34-4.075-0.764-6.028-1.104c-2.462-0.424-4.839-0.849-7.131-1.274
		c-1.189-0.169-2.377-0.424-3.481-0.594c-3.396-0.594-6.536-1.019-9.423-1.443c-0.934-0.17-1.867-0.339-2.802-0.424
		c-0.679-0.085-1.358-0.17-1.952-0.255c-1.867-0.254-3.565-0.424-5.009-0.509c-1.868-0.169-3.311-0.169-4.33-0.085
		c0,0,0.424,0.34,1.104,1.019c1.528,1.358,4.499,4.16,5.773,6.367c0,0-25.638,5.857-34.043,16.045c0,0,12.734-0.764,15.536,0.255
		c0,0-13.753,19.61-14.008,29.967c0,0,7.386-6.112,12.225-6.112c0,0-7.641,17.573-5.603,27.251c0,0,4.075-6.367,11.885,0.255
		c7.895,6.622,37.948,6.028,37.948,6.028s-30.392,56.624-80.48,2.632c-16.894-18.252-21.733-38.712-18.761-57.134
		c5.858-36.334,42.022-65.199,77.338-55.435c16.469,4.584,30.817,10.612,42.786,16.894c15.706,8.15,27.251,16.554,34.128,22.157
		c1.189,0.934,2.292,1.868,3.141,2.547c0.679,0.594,1.274,1.104,1.783,1.613c0.594,0.509,1.104,0.934,1.443,1.359
		C1573.496,596.687,1573.75,596.942,1573.92,597.197z"/>
	<path id="XMLID_250_" class="st2" d="M1588.098,1452.589c6.536,1.868,41.598,13.328,47.965,50.767c0,0,7.98,9.423,9.169,21.478
		c0,0-19.441-9.678-35.995-11.8c0,0-7.641,4.415-55.69-2.632c-48.135-7.046-78.188,0.594-94.402-16.215
		c-7.216-7.471-21.648-35.486-35.316-64.265c1.783-12.734,1.698-27.676-2.801-42.617c-1.868-6.452-4.075-17.488-6.622-33.618
		c-1.867-12.225-3.82-26.232-5.858-41.174c-2.971-21.563-6.282-45.503-10.102-69.358c18.422-13.583,37.184-35.316,51.87-54.587
		c1.189,9.508-2.717,20.629-3.141,21.818c11.376-12.734,27.506-41.683,39.052-63.586c0.169-0.425,0.424-0.764,0.594-1.189
		c3.65-6.537,7.81-14.602,12.055-23.516c0.169-0.509,0.424-0.934,0.594-1.358c0.254-0.509,0.509-1.019,0.764-1.528
		c0.085-0.085,0.085-0.17,0.085-0.17c1.783,30.986,2.802,71.396-0.085,111.551c-5.858,82.687,35.061,151.366,40.24,179.89
		c0,0,85.064,21.648,111.126,58.577c0,0,22.242,12.14,26.657,34.297c0,0-23.601-9.763-36.25-6.198
		C1642.005,1497.158,1634.195,1462.521,1588.098,1452.589z"/>
	<path id="XMLID_249_" class="st2" d="M871.847,1400.548c0,0-14.687-12.479-28.185-12.734c0,0-1.528,2.547-5.094,2.037
		c0,0-7.046-34.721-47.88-41.598c0,0,44.654,17.743,40.07,43.89c0,0,4.584,13.413,0.255,23.855c0,0-6.622-14.687-18.762-14.177
		c0,0-8.914,4.245-37.523-5.603c-28.694-9.932-85.998,3.057-101.533-17.233c-7.98-10.527-26.063-36.844-41.683-59.681l11.291-0.169
		c0.849,0.085,1.783,0.085,2.802,0.085c13.498,0,40.41-3.226,67.745-7.131h0.17c-12.734,8.065-30.137,15.705-30.137,15.705
		c42.277,0,86.083-7.216,86.083-7.216s0,0,0.084,0c18.337,4.33,92.365,23.685,90.327,50.766
		C859.877,1371.345,870.828,1383.74,871.847,1400.548z"/>
	<path id="XMLID_248_" class="st2" d="M226.313,1205.972v0.339c-0.509,9.254-0.934,14.772-0.934,14.941l-0.764,10.442
		c-28.439,17.233-68.255,27.421-68.255,27.421c5.093-7.386,3.65-16.215,3.65-16.215c-13.413,19.95-46.777,19.95-46.777,19.95
		c10.187-11.121,5.603-17.658,5.603-17.658c-25.468,20.884-66.217,12.564-66.217,12.564c7.81-3.735,12.479-18.082,12.479-18.082
		c-18.507,12.479-33.363,1.867-33.363,1.867c43.551-27.845,93.128-88.969,93.128-88.969c-11.63,5.094-24.025,3.82-24.025,3.82
		c45.164-27.591,87.441-99.835,112.57-149.668c-0.17,47.116-1.189,99.666-1.189,100.429l-1.019,50.597l16.299-12.734
		C227.756,1169.127,226.992,1191.54,226.313,1205.972z"/>
</g>
</svg>
