<?xml version="1.0" encoding="utf-8"?>
<!-- Generator: Adobe Illustrator 19.0.0, SVG Export Plug-In . SVG Version: 6.00 Build 0)  -->
<svg version="1.1" id="Layer_1" xmlns="http://www.w3.org/2000/svg" xmlns:xlink="http://www.w3.org/1999/xlink" x="0px" y="0px"
	 viewBox="0 0 2000 2000" style="enable-background:new 0 0 2000 2000;" xml:space="preserve">
<style type="text/css">
	.st0{fill:#5D976D;}
	.st1{fill:#3F684A;}
</style>
<g id="XMLID_33_">
	<g id="XMLID_34_">
		<path id="XMLID_31_" class="st0" d="M363.505,858.196c-15.162-9.346-23.901-25.073-32.677-39.958
			c-3.605-7.419-7.746-15.295-10.843-23.123c-2.905-7.735-5.926-15.733-8.649-23.786c-9.885-31.993-15.117-64.817-17.13-98.023
			c-3.045-66.075,7.454-133.475,32.457-197.336c24.925-63.74,63.652-124.541,114.674-175.137
			c50.692-50.912,113.372-90.618,179.396-117.1c66.078-26.316,135.475-40.971,202.482-42.538c8.426-0.736,16.79-0.677,25.053-0.31
			l24.814,0.743c16.529,0.789,32.964,1.283,48.942,3.954c16.07,2.251,32.039,4.435,47.867,7.142
			c15.645,3.153,31.008,7.243,46.323,11.1c30.849,7.146,59.839,18.853,88.719,29.86c28.61,11.684,55.871,26.065,82.665,40.559
			c13.205,7.632,26.065,16.004,38.76,24.514c12.75,8.269,25.248,17.001,37.452,26.067c23.97,19.356,47.263,39.246,68.842,61.949
			c-31.456,5.648-61.196,8.486-90.263,10.789c-29.27,3.344-57.728,6.222-85.349,7.851c-27.89,3.952-54.885,5.278-81.318,8.482
			c-26.364,3.98-52.245,5.161-77.139,9.945c-100.203,14.257-187.874,36.441-259.544,72.236
			c-71.782,36.002-131.263,82.101-194.645,146.61c-31.753,32.102-62.336,69.419-94.025,110.904
			c-15.472,20.812-31.679,42.765-46.684,66.288c-7.665,11.706-15.062,23.761-22.388,36.554c-3.213,6.13-7.202,12.936-10.091,19.567
			c-1.544,3.325-3.081,6.868-4.565,10.612C365.537,849.974,364.368,853.869,363.505,858.196z"/>
		<path id="XMLID_30_" class="st0" d="M1810.168,833.254l-14.023-1.274c-7.082-19.831-12.609-39.237-17.99-58.076
			c-6.799-18.556-11.049-37.112-17.706-54.676c-3.399-8.782-6.092-17.564-9.208-26.205c-2.692-8.641-6.8-16.856-9.916-25.072
			c-6.374-16.714-13.881-32.295-21.389-47.594c-15.297-30.029-32.154-57.509-51.275-82.015
			c-19.975-24.079-41.08-46.036-65.16-65.582c-46.036-38.103-102.128-68.558-164.735-95.896c0,0,0-0.142-0.142-0.142l-65.16-68.699
			c-22.38-23.514-45.894-43.77-66.716-60.768c10.482-2.124,21.105-4.108,31.729-5.665c41.927-6.233,84.705-6.516,127.767-1.559
			c42.92,4.816,86.122,15.156,127.909,32.296c41.644,16.998,81.873,41.078,117.425,71.674
			c35.696,30.455,66.576,67.425,89.663,108.361c23.516,40.794,37.255,85.697,45.612,129.608
			C1860.028,670.926,1847.703,757.756,1810.168,833.254z"/>
		<path id="XMLID_29_" class="st1" d="M1766.224,1052.255c-0.701,5.607-1.401,11.414-2.303,17.222l-307.089-43.856l-190.041,329.318
			l75.796-34.444l7.71,11.815l-80.702,73.493l-18.523,16.821l-113.644,103.531l57.973,314.298l3.505,18.924H939.677l3.505-18.824
			l51.665-280.255l-362.86-149.59l-90.715,23.83c-8.411-3.905-16.722-8.211-24.932-12.616l79.6-26.033l-134.069-55.27l4.406-13.417
			l41.152,10.313L268.526,1064.17c0.5-2.003,1.001-4.005,1.702-6.008l270.443,287.865l471.698,119.251l0.701-4.105l-277.252-419.432
			L426.927,850.099c0.301-0.601,0.601-1.002,0.901-1.502l2.603-4.906c2.202-3.505,4.105-7.009,6.408-10.614l255.423,142.781
			l-60.777-92.017l-1.302-0.201l0.3-1.402l-97.223-146.886l11.414-8.51l92.918,112.943l48.261-285.962
			c7.61-5.607,15.119-10.714,22.829-15.62l-41.252,337.728l194.948,236.8l197.85-363.161l-70.289-307.59
			c5.406-1.002,10.913-1.702,16.621-2.503h0.401l70.589,278.353l19.324-35.445l12.816,6.007l-61.477,155.497l156.899-45.358
			l166.311-330.419l12.716,6.208l-150.491,315.9l63.581-18.323l4.406,13.517l-270.242,100.828l-115.447,291.469l196.75,238.802
			l5.206,6.408l33.943-15.62l139.977-214.172l-139.477-227.188l11.815-7.709l146.386,206.161l221.381-338.629l-10.313-339.23
			l5.407-0.301c3.104,2.103,6.208,4.105,9.111,6.208l17.923,299.48l106.635-163.207c3.004,5.207,5.908,10.714,8.811,16.421
			c1.001,2.103,2.103,4.305,3.104,6.408l-198.051,343.235L1766.224,1052.255z"/>
		<path id="XMLID_28_" class="st0" d="M1982.836,1171.935c-4.817,30.029-13.031,60.2-25.072,89.663
			c-12.605,29.18-28.897,57.368-48.584,82.865c-5.101,6.233-10.482,12.182-15.724,18.272l-7.932,9.066l-8.073,7.649
			c-10.766,9.916-21.531,19.973-32.58,29.605c-10.907,9.774-23.372,17.422-35.27,25.922l-17.99,12.323
			c-6.09,3.966-12.749,7.082-18.982,10.624c-50.284,29.038-105.102,46.177-159.354,55.526c-54.391,9.49-108.927,10.34-161.478,2.975
			c-13.172-2.125-26.346-4.533-39.237-6.941c-12.889-3.399-25.639-5.949-38.386-10.057c-25.214-7.65-49.719-17.281-73.233-30.737
			l2.125-14.024c49.435-14.306,96.038-27.621,140.372-42.495c44.338-15.015,86.265-31.304,125.077-49.718
			c38.528-18.839,74.932-38.245,106.52-62.184c4.108-2.833,8.357-5.241,12.182-8.358l11.189-9.49l11.474-9.208
			c3.825-2.974,7.791-5.807,10.907-9.348c6.799-6.941,13.881-13.457,20.964-20.114l5.241-4.817l4.108-4.675
			c2.692-3.116,5.666-6.091,8.215-9.207c10.198-12.891,19.266-26.488,27.339-41.362c7.648-15.015,14.447-31.304,19.973-48.868
			c5.098-17.706,9.773-36.546,12.889-56.518c2.69-19.973,5.383-40.795,6.092-62.326c1.558-29.321,1.416-59.634,0.14-90.655
			l17.706-32.579l16.999-34.42c9.491-18.981,17.564-38.67,24.223-58.784c11.614,16.574,22.238,33.854,32.294,51.56
			c25.497,45.894,45.328,95.612,58.076,149.298c5.526,26.913,10.482,54.676,11.758,83.288
			C1988.077,1112.443,1987.228,1142.048,1982.836,1171.935z"/>
		<path id="XMLID_27_" class="st0" d="M801.49,1608.07l-1.416,14.023c-66.29,10.624-132.724,10.766-199.158,5.666
			c-66.574-5.524-133.148-17.14-199.015-37.112c-65.725-20.114-131.166-47.877-192.499-89.663
			c-30.596-20.964-60.484-45.044-86.974-74.082c-13.314-14.59-26.061-30.029-37.819-46.461
			c-11.898-16.573-21.956-34.562-31.304-53.118c-18.273-37.395-30.88-78.331-36.404-117.992
			c-5.948-40.37-5.665-82.156,0.992-122.384c6.799-40.087,19.264-78.614,36.263-113.46c17.281-34.846,37.819-66.858,61.19-95.046
			c39.52-48.302,85.414-87.397,134.426-119.409c2.267,9.774,4.816,19.406,7.79,28.897l0.567,1.416
			c2.691,8.074,5.666,16.006,8.64,23.797l0.991,2.55c3.117,8.216,6.801,15.582,10.058,21.955l3.399,7.224l2.409,4.108
			c5.239,8.782,11.333,19.406,19.688,29.604c-21.247,29.605-40.226,59.634-55.95,89.522
			c-25.639,48.727-41.218,97.596-44.901,143.631c-1.843,23.231-0.851,45.894,2.974,68.699c3.967,23.372,9.773,44.336,19.122,64.592
			c9.633,20.256,21.673,40.228,37.112,59.351c15.723,18.839,33.712,37.537,54.252,54.959
			c40.935,35.129,89.803,66.717,142.072,95.329C562.955,1512.457,680.24,1559.059,801.49,1608.07z"/>
	</g>
</g>
</svg>
