<?xml version="1.0" encoding="utf-8"?>
<!-- Generator: Adobe Illustrator 23.0.1, SVG Export Plug-In . SVG Version: 6.00 Build 0)  -->
<svg version="1.1" id="Layer_1" xmlns="http://www.w3.org/2000/svg" xmlns:xlink="http://www.w3.org/1999/xlink" x="0px" y="0px"
	 viewBox="0 0 4000 4000" style="enable-background:new 0 0 4000 4000;" xml:space="preserve">
<style type="text/css">
	.st0{fill:#61985E;}
	.st1{fill:#426640;}
</style>
<g>
	<polygon class="st0" points="3042,2436.9 3394.3,2436.9 2581.4,1365.7 2952.2,1365.7 2000,111 1047.8,1365.7 1418.6,1365.7 
		605.7,2436.9 958,2436.9 114.7,3548.2 1813,3548.2 1813,3864.6 2187,3864.6 2187,3548.2 3885.3,3548.2 	"/>
	<polygon class="st1" points="3885.3,3548.2 3042,2436.9 3394.3,2436.9 2581.4,1365.7 2952.2,1365.7 2000,111 2513,1360.7 
		2278.4,1360.7 2649.5,2430.2 2468.2,2430.2 2874.9,3548.2 	"/>
	<polyline class="st1" points="2187,3864.6 2187,3548.2 2082.2,3548.2 2082.2,3864.6 2201.1,3864.6 	"/>
</g>
</svg>
