<?xml version="1.0" encoding="utf-8"?>
<!-- Generator: Adobe Illustrator 16.0.0, SVG Export Plug-In . SVG Version: 6.00 Build 0)  -->
<!DOCTYPE svg PUBLIC "-//W3C//DTD SVG 1.1//EN" "http://www.w3.org/Graphics/SVG/1.1/DTD/svg11.dtd">
<svg version="1.1" id="Layer_1" xmlns="http://www.w3.org/2000/svg" xmlns:xlink="http://www.w3.org/1999/xlink" x="0px" y="0px"
	 width="4000px" height="4000px" viewBox="0 0 4000 4000" enable-background="new 0 0 4000 4000" xml:space="preserve">
<g>
	<path fill="#4C673E" d="M2542.837,628.271v3246.815h-202.455V628.271c0-252.834-190.561-463.255-442.513-508.352
		c32.695-5.89,66.618-8.956,101.21-8.956c150.185,0,286.114,57.9,384.539,151.452
		C2481.954,356.098,2542.837,485.39,2542.837,628.271"/>
	<path fill="#6E985B" d="M2340.382,628.271v3246.815h-885.079V628.271c0-227.855,154.796-421.184,369.826-490.204
		c23.525-7.609,47.846-13.672,72.74-18.147C2149.821,165.016,2340.382,375.436,2340.382,628.271"/>
	<path fill="#4C673E" d="M3884.877,1932.924v422.302c0,165.156-65.343,315.224-171.686,425.467c-2.536,2.82-5.171,5.455-7.856,8.089
		c-111.035,110.997-264.243,179.595-433.629,179.595h-728.869v-171.74h608.793c234.184,0,438.951-125.951,550.363-313.688
		c56.694-95.441,89.205-206.886,89.205-325.943V1712.3C3849.021,1768.055,3884.877,1846.299,3884.877,1932.924"/>
	<path fill="#4C673E" d="M2865.277,2796.636h-322.387v-395.154h162.849v1.647
		C2705.739,2556.041,2766.756,2694.919,2865.277,2796.636"/>
	<path fill="#6E985B" d="M3791.198,1712.3v444.705c0,119.058-32.511,230.502-89.205,325.943
		c-111.412,187.736-316.18,313.688-550.363,313.688h-286.353c-98.521-101.768-159.49-240.595-159.49-393.532v-1.622h340.921
		c124.263,0,224.998-100.807,224.998-224.931v-243.627c0-84.717,34.265-161.412,89.775-216.815
		c55.575-55.401,132.13-89.768,216.805-89.768C3661.009,1626.34,3735.97,1659.11,3791.198,1712.3"/>
	<path fill="#4C673E" d="M1455.303,2149.469v114.427h-728.82c-169.384,0-322.539-68.601-433.616-179.571
		c-50.913-50.933-92.932-110.709-123.417-177.004c119.974,147.761,303.106,242.148,508.196,242.148H1455.303z"/>
	<path fill="#6E985B" d="M1455.303,1696.997v452.472H677.646c-205.089,0-388.222-94.388-508.196-242.172
		c-36.037-78.031-56.134-164.962-56.134-256.545v-422.31c0-169.358,137.197-306.561,306.586-306.561
		c84.69,0,161.243,34.352,216.807,89.754c55.524,55.399,89.774,132.116,89.774,216.807v243.653
		c0,124.101,100.791,224.903,225,224.903H1455.303z"/>
</g>
</svg>
