<?xml version="1.0" encoding="utf-8"?>
<!-- Generator: Adobe Illustrator 23.0.1, SVG Export Plug-In . SVG Version: 6.00 Build 0)  -->
<svg version="1.1" id="Layer_1" xmlns="http://www.w3.org/2000/svg" xmlns:xlink="http://www.w3.org/1999/xlink" x="0px" y="0px"
	 viewBox="0 0 4000 4000" style="enable-background:new 0 0 4000 4000;" xml:space="preserve">
<style type="text/css">
	.st0{fill:#988F33;}
	.st1{fill:#CDC33F;}
</style>
<g>
	<g>
		<path class="st0" d="M1320.3,1381.5c4-81.6,9.8-163.6,17.6-246.2C1330.2,1217.9,1324.3,1299.9,1320.3,1381.5z"/>
		<path class="st0" d="M1355.9,969.6c-6.9,55.4-12.8,110.7-18,165.7C1343.1,1080.2,1349.1,1025,1355.9,969.6z"/>
		<path class="st0" d="M1008.3,1561.7c0-55,0.8-110.3,2.5-165.8C1009.2,1451.4,1008.3,1506.7,1008.3,1561.7z"/>
		<path class="st0" d="M2891.7,401.8c50.5-26.5,101.6-52.3,153-77.3C2993.3,349.5,2942.3,375.3,2891.7,401.8z"/>
		<path class="st0" d="M3200.4,251.5c-52.4,23.6-104.2,47.9-155.6,72.9C3096.2,299.5,3148.1,275.1,3200.4,251.5z"/>
		<path class="st0" d="M742.4,2210.6L742.4,2210.6c-8.4-65.7-15.9-131.9-22-198.6C726.5,2078.7,733.9,2144.9,742.4,2210.6z"/>
		<path class="st0" d="M720.4,2011.9c-5-54.5-9.3-109.4-12.7-164.6C711.1,1902.6,715.4,1957.4,720.4,2011.9z"/>
		<path class="st0" d="M2205.5,869.2c2.1-4.5,4.4-8.9,6.6-13.3c-7.5,5.4-15,10.8-22.5,16.2C2194.9,871,2200.2,870.1,2205.5,869.2z"
			/>
		<path class="st0" d="M779.4,2353.8c-0.6-1.3-1.2-2.7-1.8-4c-0.4,0.5-0.8,1.1-1.2,1.7C777.4,2352.2,778.4,2353.1,779.4,2353.8z"/>
		<path class="st0" d="M748.2,2255.2c-2.7-14.7-4.6-29.5-5.8-44.6c-8.4-65.7-15.9-131.9-22-198.6c-5-54.5-9.3-109.4-12.7-164.6
			c-3.5-55.2-6.1-110.7-7.9-166.6c-100.9,95.2-160.4,235.8-145.9,372.5c12.9,123.7,82,216.8,175.1,266.8
			c7.8-11.8,15.7-23.4,23.5-35.2C751.1,2275,749.5,2265.2,748.2,2255.2z"/>
		<path class="st1" d="M720.4,2011.9c6.2,66.8,13.6,132.9,22,198.6c-0.8-11-1.4-22.1-1.5-33.4c-0.5-112.6,43-227.3,117.8-319.7
			c-31.5-78.3-87-140.4-159-176.6c1.9,55.8,4.5,111.4,7.9,166.6C711.1,1902.6,715.4,1957.4,720.4,2011.9z"/>
		<path class="st0" d="M754.1,2282.5c-2.3-9-4.2-18.1-5.9-27.3c1.4,9.9,2.9,19.8,4.3,29.8C753,2284.1,753.5,2283.3,754.1,2282.5z"/>
		<path class="st0" d="M949.9,1768.3l37.1-28.5l24.8,15.7c-1.3-37-2.3-74.2-2.9-111.5c-0.4-27.4-0.6-54.8-0.5-82.3
			c0-55,0.8-110.3,2.5-165.8c0.8-27.8,1.9-55.6,3.1-83.5c-108,87-178.1,222.4-174.2,359.6c1.6,59.5,16.7,113.1,41.6,159.1
			C902.3,1808.4,925.2,1787.2,949.9,1768.3z"/>
		<path class="st1" d="M1008.3,1561.7c0,27.5,0.2,54.9,0.5,82.3c0.5,37.3,1.5,74.5,2.9,111.5l14.7,9.3c14.3,9.1,27.8,19,40.6,29.7
			c11.6-85.8,48.6-169.7,104.2-241.3c-17.4-104-73.7-190.5-157.2-240.8c-1.2,27.9-2.2,55.8-3.1,83.5
			C1009.2,1451.4,1008.3,1506.7,1008.3,1561.7z"/>
		<path class="st0" d="M1304,1430.5l14.7-9.6c0.5-13.1,1-26.2,1.6-39.4c4-81.6,9.8-163.6,17.6-246.2c5.2-55.1,11.2-110.3,18-165.7
			c-114.5,78.4-194.9,207.9-201.7,345c-3.9,76.3,15,144.4,49.6,200.5C1233.5,1483.2,1267,1454.6,1304,1430.5z"/>
		<path class="st1" d="M1320.3,1381.5c-0.6,13.2-1.1,26.3-1.6,39.4l24.5-16l37.4,28.1c13.2,9.9,25.7,20.7,37.4,32.1
			c0.4-0.4,0.8-0.8,1.2-1.2c13.3-60,39-118.1,74.8-170.7c0.1-0.9,0.2-1.9,0.3-2.9c10.2-133.7-42.2-252.2-138.3-320.9
			c-6.9,55.4-12.8,110.7-18,165.7C1330.2,1217.9,1324.3,1299.9,1320.3,1381.5z"/>
		<path class="st0" d="M1646.3,1143.9c3.1-27.1,6.3-54.4,9.9-81.6c13.9-108,31.1-216.8,51.8-326.2c5.2-27.3,10.6-54.7,16.2-82.1
			c-120.5,69.4-211.1,192.4-228.6,328.6c-12,92.2,10.5,174.9,55.5,240.2C1579.6,1193.2,1611.5,1166.6,1646.3,1143.9z"/>
		<path class="st1" d="M1656.1,1062.3c-3.5,27.2-6.8,54.4-9.9,81.6c12.1-7.9,24.4-15.5,37.2-22.4l41-22.4l35.1,30.9
			c2.4,2.1,4.5,4.3,6.9,6.5c10.6-9.3,21.4-18.6,32.1-27.8c18.3-38.7,31.5-80.2,38.3-123.8c20.7-132.6-22.1-254.9-112.7-330.9
			c-5.6,27.4-11,54.8-16.2,82.1C1687.2,845.4,1670,954.2,1656.1,1062.3z"/>
		<path class="st0" d="M1991.5,897.2c2.9-15.9,5.8-31.8,8.9-47.7c25.9-133.2,57.2-267.2,94-401.6c7.4-26.9,15-53.8,22.7-80.7
			c-126,60.1-226.3,175.9-254.6,310.5c-22.7,107,3.2,204.7,59.5,278.6C1943.4,934.8,1966.7,915.1,1991.5,897.2z"/>
		<path class="st1" d="M2000.4,849.6c-3.1,15.9-5.9,31.8-8.9,47.7c29.5-21.3,61.3-39.8,94.9-54.8l42.6-19.1l12.6,13
			c4.4-3.2,8.9-6.3,13.3-9.6c21.4-37.2,37.9-77.7,48.2-120.6c31.4-130.8-1.7-256.1-86.1-339c-7.8,26.9-15.4,53.8-22.7,80.7
			C2057.6,582.4,2026.3,716.3,2000.4,849.6z"/>
		<path class="st0" d="M2350.2,686c49.3-190.9,110.2-383,183.3-575c-131,50.4-240.7,158.3-279.8,290.5
			c-35.6,119.6-7.3,232,59.8,313.8c4.3-2.9,8.6-5.9,13-8.9C2334.1,699.4,2342.1,692.6,2350.2,686z"/>
		<path class="st1" d="M2474.3,609.9c19.8-12.5,39.8-24.9,59.8-37.2c24.4-35.5,44.1-74.6,58-116.7c41.9-128.2,19.1-255.9-58.6-345
			c-73.1,191.9-133.9,384-183.3,575C2387.7,655.6,2429.4,629.8,2474.3,609.9z"/>
		<path class="st1" d="M776.5,2351.5c0.4-0.5,0.8-1.1,1.2-1.7c-9.7-21.5-17.7-44-23.5-67.3c-0.5,0.8-1.1,1.6-1.6,2.4
			c-7.9,11.7-15.7,23.4-23.5,35.2c-268.2,406.1-486.8,847.6-647.5,1316.2c15.5,5.3,31.1,10.6,46.6,16c10.9-23.3,21.8-46.5,32.9-69.6
			C317.5,3145.4,524.8,2732.6,776.5,2351.5z"/>
		<path class="st0" d="M1418.7,1465.8c0.2-0.6,0.3-1.2,0.5-1.9c-0.4,0.4-0.8,0.8-1.2,1.2C1418.3,1465.4,1418.5,1465.6,1418.7,1465.8
			z"/>
		<path class="st1" d="M1795,1165.6c8.6-28.7,20.3-56.7,34.5-83.6c-10.4,8.8-20.7,17.7-31,26.6c-10.7,9.2-21.4,18.5-32.1,27.8
			C1776.5,1145.6,1786.2,1155.4,1795,1165.6z"/>
		<path class="st1" d="M2161.7,856.8c6.7,6.9,13.1,14.2,19.3,21.5c2.9-2.1,5.8-4.2,8.6-6.2c7.5-5.5,15-10.8,22.5-16.2
			c27.8-55.4,66.9-106.3,114.4-149.4c-4.3,2.9-8.6,5.9-13,8.9c-53.4,36.3-106.3,73.5-158.4,111.4c-4.4,3.2-8.9,6.3-13.3,9.6
			L2161.7,856.8z"/>
		<path class="st1" d="M2511.3,595l44-15.7l26,31.2c16.3-9.9,32.9-19.7,49.4-29.5c-12.3-3.4-24.5-7.2-36.5-11.7
			c1.5-12.3,3.9-24.6,6.7-36.9c-22.4,13.3-44.6,26.8-66.8,40.3c-20,12.3-39.9,24.7-59.8,37.2C2486.4,604.5,2498.7,599.4,2511.3,595z
			"/>
		<path class="st0" d="M2891.7,401.8c-3.1,1.6-6.1,3.3-9.2,4.9c23.8-10.3,48.4-19.1,73.7-26l45.1-12.3l27,38.2
			c14.7,20.8,26.9,43,37,65.9c67.2-61,113.9-138.4,134.9-221c-52.3,23.6-104.2,47.9-155.6,72.9
			C2993.3,349.5,2942.3,375.3,2891.7,401.8z"/>
		<path class="st0" d="M2594.2,569.2c12,4.5,24.1,8.3,36.5,11.7c8.4,2.3,17,4.5,25.5,6.2c37.3-52.2,85.7-98.2,141.2-134.7
			C2728.8,490.2,2660.9,529,2594.2,569.2z"/>
		<path class="st1" d="M2797.4,452.5c26.8-17.7,55.4-32.9,85.2-45.8c3.1-1.6,6.1-3.3,9.2-4.9c50.5-26.5,101.6-52.3,153-77.3
			c51.4-25.1,103.3-49.4,155.6-72.9c-108.5-56.4-253.2-58-382.3,9.9c-115.9,60.7-192.2,163.2-217.2,271c-2.9,12.3-5.2,24.5-6.7,36.9
			C2660.9,529,2728.8,490.2,2797.4,452.5z"/>
	</g>
	<g>
		<path class="st0" d="M990.6,1821.2c-7.6,111.4-11.9,222-13,331.5C978.7,2043.2,983,1932.7,990.6,1821.2z"/>
		<path class="st0" d="M1295.4,1897.4c5.9-81.4,13.6-163.4,23.3-245.8C1309.1,1734.1,1301.3,1816,1295.4,1897.4z"/>
		<path class="st0" d="M977.6,2170.6L977.6,2170.6c0.1-5.9,0-11.9,0.1-17.8C977.5,2158.7,977.6,2164.6,977.6,2170.6z"/>
		<path class="st0" d="M919.5,2361.9c5.2-65.9,25.6-131.2,58.1-191.3c0.1-5.9,0-11.9,0.1-17.8c1.1-109.5,5.3-220.1,13-331.5
			c-110,84.5-183.5,218.4-182.8,355.7c0.3,106.7,44,195.3,111.7,255.6C917.6,2409.5,917.6,2385.9,919.5,2361.9z"/>
		<path class="st1" d="M977.6,2170.6c35.9-66.3,86.7-126.2,148.4-173.4c-24.9-74-71.8-135.6-135.3-176c-7.6,111.4-11.9,222-13,331.5
			C977.5,2158.7,977.6,2164.6,977.6,2170.6z"/>
		<path class="st0" d="M1201,1946.5l37.2,28.3c13.4,10.3,26.1,21.2,37.9,33c4-18.1,9.3-36.1,15.4-53.7c1.2-18.8,2.3-37.6,3.7-56.5
			c5.9-81.4,13.6-163.4,23.3-245.8c6.4-54.9,13.7-110,21.8-165.3c-116.2,75.6-199.7,203.2-209.7,340.1
			c-4.1,55.1,3.9,106.2,21.2,151.8c3.2-2.2,6.4-4.5,9.8-6.7L1201,1946.5z"/>
		<path class="st1" d="M1295.4,1897.4c-1.4,18.9-2.5,37.7-3.7,56.5c32.9-93.2,95.8-178.7,177.8-241.8
			c-13-92.6-58.6-172.7-129.1-225.6c-8.1,55.2-15.3,110.4-21.8,165.3C1309.1,1734.1,1301.3,1816,1295.4,1897.4z"/>
		<path class="st0" d="M1583.9,1642.5l34.9,31.1c2.2,1.9,4.2,4,6.2,5.9c22.1-165.1,52.1-331.8,90.3-499.5
			c-121.8,66.4-215,187.1-235.7,322.8c-10.5,68.2-1.9,131.7,21.1,187.1c13.6-8.9,27.5-17.5,41.8-25.2L1583.9,1642.5z"/>
		<path class="st1" d="M1654.1,1709.4c29.1-95.3,90.7-182.8,172.5-248.2c6-111.8-34.3-213.4-111.2-281.2
			c-38.2,167.7-68.2,334.4-90.3,499.5C1635.3,1689.1,1645,1698.9,1654.1,1709.4z"/>
		<path class="st0" d="M1989.4,1369.3l0.3,0.3c34-154.8,75.3-310.4,124.1-466.3c-126.9,56.8-229.4,170-260.6,303.8
			c-18.9,80.5-9.9,156.3,19.3,221.1c23.5-15.2,48.4-28.6,74.2-40L1989.4,1369.3z"/>
		<path class="st0" d="M2533.8,657.9c-131.5,47-242.9,152.1-284.7,283.1c-29.5,91.8-20.6,180.3,15.2,254.3
			c30.8-19.2,63.8-35.4,98.2-48.2C2411,984.2,2467.9,820.9,2533.8,657.9z"/>
		<path class="st1" d="M2371.4,1143.6l44.1-15.5l29.7,36.2c0.4,0.5,0.7,0.9,1.1,1.4c26.1-15.8,52.3-31.5,78.7-46.9
			c25-34.9,45.5-73.4,60.1-115.1c44.4-126.9,24.2-254.9-51.3-345.9c-65.9,163-122.8,326.3-171.3,489.2
			C2365.5,1145.9,2368.4,1144.7,2371.4,1143.6z"/>
		<path class="st0" d="M2973.8,445.2c-135.4,36.8-255.4,133.1-307.7,260.6c-41.9,101.9-33.9,203.2,8.9,286.2
			c23.8-14.3,48.8-26.8,74.7-37.3C2814.4,784.4,2889,614.2,2973.8,445.2z"/>
		<path class="st1" d="M2815.3,932.5l45.2-12l8.9,12.6c19.4-9.6,38.9-19.1,58.4-28.6c27.8-32.9,51.4-69.7,69.5-110.2
			c54.8-123.3,44.9-252.5-23.4-349.2c-84.9,169-159.4,339.2-224.1,509.6C2771.1,946,2792.9,938.4,2815.3,932.5z"/>
		<path class="st1" d="M949.6,2557.7c-8.8-21.1-15.8-42.9-21-65.4C632.1,2860.6,378.9,3266.8,177.5,3704
			c13.9,6.4,27.8,12.8,41.7,19.2c19-32.3,38.3-64.3,57.9-96.2C462.7,3243.9,688.9,2885.9,949.6,2557.7z"/>
		<path class="st1" d="M2113.8,903.3c-48.8,155.9-90.1,311.5-124.1,466.3l32,33.4c8.6,8.9,16.5,18.4,24.1,28c0,0,0,0,0,0
			c2.8,3.5,5.6,6.9,8.3,10.5c3.2-8.2,6.6-16.2,10.3-24.1l0,0c28.8-62.5,72.4-119.6,126-167c0.6-2.2,1.3-4.2,1.9-6.4
			C2226.5,1114.1,2196.2,988.2,2113.8,903.3z"/>
		<path class="st1" d="M2474.6,1205.4c15.7-32.2,35.4-62.8,58.4-91.1c-2.7,1.5-5.4,3.1-8,4.6c-26.4,15.4-52.6,31.1-78.7,46.9
			C2456.6,1178.4,2466,1191.7,2474.6,1205.4z"/>
		<path class="st1" d="M2887.3,958.8c5,7.2,9.8,14.6,14.3,22c13-6.5,26.1-12.9,39.3-19.3c14.2-19.1,30-37.2,47-54.4c0,0,0,0-0.1,0
			c2.8-12.1,6.3-24.1,10.4-36c-23.6,11-47.1,22.1-70.6,33.4c-19.5,9.4-38.9,19-58.4,28.6L2887.3,958.8z"/>
		<path class="st0" d="M3346.3,787.8c21.4,36.3,36.1,75.6,44.6,116.3c111.6-54.1,193.6-146.1,232.3-251.7
			c-99.1,33.1-196.9,68.9-293.5,107L3346.3,787.8z"/>
		<path class="st0" d="M2987.9,907.1L2987.9,907.1C2987.9,907,2987.9,907.1,2987.9,907.1C2987.8,907.1,2987.8,907.1,2987.9,907.1z"
			/>
		<path class="st1" d="M2988,907c75.9-76,178-130.7,288.6-151.1l46-8.5l7,11.9c96.6-38.2,194.5-74,293.5-107
			c-102.2-67.1-246.1-83.3-381.4-28.9C3120.2,672.1,3034,766.3,2998.2,871c-4.1,11.9-7.6,23.9-10.4,36
			C2987.9,907.1,2987.9,907,2988,907z"/>
	</g>
	<g>
		<path class="st0" d="M1440.8,2825.3c-128.9,2.3-244.3-54.7-312.1-151.1c214.5-14.5,425.3-15.7,630.9-4.3
			C1683.9,2762.6,1570,2822.7,1440.8,2825.3z"/>
		<path class="st1" d="M1759.7,2669.9c-205.7-11.3-416.5-10.2-630.9,4.3c74.6-106.2,198.9-177.1,330.6-176.1
			C1591.6,2498.8,1699.3,2569.5,1759.7,2669.9z"/>
		<path class="st0" d="M1754.8,2537.2c-128.5-7.9-239.1-73.7-299.1-175.1c214.7,2.5,424.7,18,628.9,45.3
			C2001.8,2493.8,1883.6,2544.7,1754.8,2537.2z"/>
		<path class="st1" d="M2084.5,2407.3c-204.1-27.4-414.2-42.8-628.9-45.3c82.5-99.9,211.7-160.8,342.9-149.4
			C1930.2,2223.6,2032.1,2302.4,2084.5,2407.3z"/>
		<path class="st0" d="M2089.8,2274.6c-127.5-17.9-232.6-92.2-284.6-198c213.8,19.3,422,51,623.5,94.2
			C2339.5,2250.7,2217.7,2292.2,2089.8,2274.6z"/>
		<path class="st1" d="M2428.8,2170.8c-201.5-43.2-409.7-74.9-623.5-94.2c89.9-93.1,223.5-143.7,353.5-122.2
			C2289.3,1975.6,2384.7,2062.1,2428.8,2170.8z"/>
		<path class="st0" d="M2444.6,2038.8c-125.9-27.7-224.7-110-268.4-219.5c211.7,35.9,417,83.6,614.8,142.2
			C2695.5,2034.3,2570.7,2066.4,2444.6,2038.8z"/>
		<path class="st1" d="M2791,1961.5c-197.8-58.6-403.1-106.3-614.8-142.2c97-85.8,234.3-126,362.4-94.5
			C2667.1,1756.1,2755.6,1849.8,2791,1961.5z"/>
		<path class="st0" d="M2817.2,1831.1c-123.5-37.3-215.8-127.1-250.6-239.7c208.6,52.1,409.9,115.5,603.1,189.2
			C3068.3,1846,2941.1,1868.3,2817.2,1831.1z"/>
		<path class="st1" d="M3169.7,1780.7c-193.2-73.7-394.5-137.1-603.1-189.2c103.6-78.1,244-107.7,369.5-66.4
			C3062.2,1566.2,3143.2,1666.5,3169.7,1780.7z"/>
		<path class="st0" d="M3206.3,1652.6c-120.5-46.7-205.6-143.4-231.5-258.4c204.4,68,400.8,146.8,588.4,235.2
			C3456.4,1686.7,3327.2,1699.2,3206.3,1652.6z"/>
		<path class="st1" d="M3563.2,1629.5c-187.5-88.4-384-167.2-588.4-235.2c109.9-69.9,252.7-88.6,375.1-37.8
			C3472.8,1407.2,3545.9,1513.5,3563.2,1629.5z"/>
		<path class="st0" d="M986.1,2367.2c-11.1,137.3,52.1,250.5,150.6,314.6c7.3-214.6,27.5-433.1,61.2-653.9
			C1081.2,2103,996.9,2230.2,986.1,2367.2z"/>
		<path class="st1" d="M1197.9,2028c-33.7,220.9-53.9,439.3-61.2,653.9c103.1-78,176-195.6,190.3-329.1
			C1341,2219.3,1292,2099.5,1197.9,2028z"/>
		<path class="st0" d="M1337.1,2044.9c-21.6,135.9,32.7,253.6,125.8,325.3c23.8-213.1,60.8-429.2,111.5-646.8
			C1452.3,1789.2,1358.5,1909.4,1337.1,2044.9z"/>
		<path class="st1" d="M1574.4,1723.5c-50.7,217.5-87.7,433.5-111.5,646.8c108.7-69.6,190.3-181,214.9-312.9
			C1702.2,1925.5,1662.6,1802.1,1574.4,1723.5z"/>
		<path class="st0" d="M1711.9,1751.4c-32.2,133.7,12.9,255.3,100.1,334.1c40.3-210.6,93.9-423.1,161.6-636.1
			C1846.6,1505.4,1743.7,1617.9,1711.9,1751.4z"/>
		<path class="st1" d="M1973.5,1449.3c-67.6,213-121.4,425.5-161.6,636.1c113.7-60.8,203.8-165.6,238.7-295.2
			C2085.1,1660.6,2055.4,1534.6,1973.5,1449.3z"/>
		<path class="st0" d="M2108.5,1487.7c-42.6,130.9-7.2,255.6,73.6,340.9c56.7-206.9,126.9-414.7,211.4-621.9
			C2262.3,1252.8,2150.8,1357.1,2108.5,1487.7z"/>
		<path class="st1" d="M2393.5,1206.7c-84.4,207.2-154.8,415-211.4,621.9c118.1-51.8,216.3-149.4,261.3-276
			C2488.3,1426.1,2468.5,1298.1,2393.5,1206.7z"/>
		<path class="st0" d="M2525.3,1255.4c-52.9,127.2-27.4,254.4,46.5,345.7c72.9-202,159.7-403.9,260.7-604.1
			C2697.6,1032.9,2577.8,1128.4,2525.3,1255.4z"/>
		<path class="st1" d="M2832.5,997c-101,200.3-187.8,402.1-260.7,604.1c122.1-42.6,227.9-132.3,283.1-255.2
			C2909.7,1223.2,2900.2,1094,2832.5,997z"/>
		<path class="st0" d="M2960.4,1055.8c-63.1,122.9-47.7,251.7,18.9,348.5c89.1-195.9,192.2-390.7,309.5-582.6
			C3150.7,847.1,3023.1,933.1,2960.4,1055.8z"/>
		<path class="st1" d="M3288.7,821.7c-117.4,191.9-220.4,386.7-309.5,582.6c125.5-33.1,238.6-114.4,303.7-232.7
			C3347.8,1053.3,3348.7,923.6,3288.7,821.7z"/>
		<g>
			<path class="st1" d="M280.5,3864.6c-16.5-9.3-33.1-18.7-49.6-28.1c694.8-1227.1,1808.4-2153.6,3126.4-2617.4
				c6.3,17.9,12.6,35.9,18.9,53.7C2071.2,1732.1,968.4,2649.5,280.5,3864.6z"/>
		</g>
		<path class="st0" d="M3634.1,1325c-131.3,40.3-265.5,21.6-369.9-41.8c212.8-79.4,431.2-146.7,654.2-201
			C3866.9,1193.5,3765.4,1284.6,3634.1,1325z"/>
		<path class="st1" d="M3918.5,1082.3c-223.1,54.3-441.5,121.5-654.2,201c36.7-116.1,137.3-218.8,276.6-261.5
			C3680.2,978.8,3822.3,1006.9,3918.5,1082.3z"/>
	</g>
</g>
</svg>
