<?xml version="1.0" encoding="utf-8"?>
<!-- Generator: Adobe Illustrator 23.0.1, SVG Export Plug-In . SVG Version: 6.00 Build 0)  -->
<svg version="1.1" id="Layer_1" xmlns="http://www.w3.org/2000/svg" xmlns:xlink="http://www.w3.org/1999/xlink" x="0px" y="0px"
	 viewBox="0 0 4000 4000" style="enable-background:new 0 0 4000 4000;" xml:space="preserve">
<style type="text/css">
	.st0{fill:#909A5D;}
	.st1{fill:#626841;}
</style>
<g>
	<path class="st0" d="M2013,1202c0,0,854,249.8,500,1510.8c0,0,739.6-287,634.6-905C3059,1286.3,2275.2,1148.7,2013,1202z"/>
	<path class="st0" d="M2152.9,1101.6c-60.8-0.7-324.4,26.7-432.9,43.7l-0.6,0c-294.4-39.5-730.5-26.5-1301.3,179.8
		c0,0,201.2-450.5,632.8-675.1l0-0.2c99.3-51.5,210.7-91.4,334.9-110.8C1918.9,455,2101.3,826,2152.9,1101.6z"/>
	<path class="st1" d="M2408.2,808.7c-50.3,33.2-131.2,91.5-195.5,159.3c-99.6-334.3-337.5-525.8-666.5-530.7
		c-55.3-0.8-114,3.6-174.3,13c-75.9,11.9-151,31.5-224.2,58.7c175.7-230.3,499.8-533.8,880.6-311.5
		C2294.2,352.6,2386.4,594.1,2408.2,808.7z"/>
	<path class="st1" d="M3248.9,884.7c-337.6-227.1-631.5-122-834.9,29.4c0,0-118.7,79.7-213,190c0,0,117.1,5.4,196.9,21.9
		c359.5,65,769.9,265.3,838.1,666.7c3.7,21.8,6.5,43.2,8.3,64.3c101.8,145.3,186.1,324,237.4,543.7
		C3481.8,2400.6,3893.5,1318,3248.9,884.7z"/>
	<path class="st0" d="M2134,1335.4L1976.5,1659l-4.3-3.8l-53-46.4l-72.8-63.8l-36.1-31.7l-52.9-46.2l-52.2-45.6l-25.2-22
		l233.2-154.7C1974.6,1259.8,2053.5,1286.8,2134,1335.4z"/>
	<polygon class="st0" points="1890.3,1673.1 1757.8,1969.7 1732.8,1949.3 1677.7,1904 1613.6,1851.5 1573.6,1818.7 1503.4,1761.3 
		1450.4,1717.9 1429.4,1700.6 1701,1507.3 	"/>
	<polygon class="st0" points="1653.4,1971 1536.4,2291.4 1519.4,2279.4 1460.5,2237.7 1376.5,2178.2 1332.2,2146.9 1257.3,2093.9 
		1201.4,2054.3 1172.4,2033.7 1450.4,1804.8 	"/>
	<polygon class="st0" points="1442.3,2307.4 1352.9,2649.3 1323.8,2632.6 1261.9,2596.9 1171,2544.7 1120.4,2515.6 1034.7,2466.3 
		975.3,2432.1 938.3,2410.9 1208.8,2142 	"/>
	<polygon class="st0" points="1249.4,2667.4 1181.1,3052.5 1138.6,3032.4 1075.2,3002.5 978.5,2956.8 922.3,2930.2 832.7,2887.9 
		769.9,2858.1 719.8,2834.5 990.2,2518.4 	"/>
	<polygon class="st0" points="1064,3071.5 1001.3,3454.6 956.4,3434 889.9,3403.8 797.6,3361.7 740.9,3335.9 649.7,3294.3 
		588,3266.1 537.2,3242.8 788.2,2941.2 	"/>
	<polygon class="st0" points="887.8,3476.8 879.9,3758.2 877,3858.1 662.7,3793.2 603,3775.2 602.2,3775 602.1,3774.9 388.7,3710.1 
		441.2,3626.5 539.5,3469.8 613.6,3351.7 	"/>
</g>
</svg>
